<svg xmlns="http://www.w3.org/2000/svg" enableBackground="new 0 0 1652.36 2855.5" viewBox="0 0 1652.36 2855.5">
              <rect width="4000" height="4000" x="-1085.8" y="-724.36" fill="#ffffff" display="none" className="colorfff svgShape"></rect>
              <path
                fill="#38212a"
                d="M827.05,2855.5c-44.62,0-71.44-6.68-89.67-22.32c-25.39-21.8-31.63-58.25-41.98-118.63l-1.8-10.46
				c-18.7-108.4-20.02-182.31-20.03-183.04c-0.08-4.4,2.21-8.58,5.98-10.89c1.98-1.21,4.25-1.85,6.57-1.85
				c0.84,0,1.68,0.08,2.49,0.25l-3.2-28.27c-1.66-0.9-3.11-1.82-4.34-2.75c-17.63-13.21-25.82-56.51-27.88-80.01
				c-1.94-22.1-1.54-51.33,11.37-65.11c4.94-5.27,10.53-8.46,16.98-9.66c3.41-46.61-15.64-99.95-21.9-116.02
				c-69.39-15.69-73.91-56.37-74.07-58.12c-0.25-2.77,0.44-5.59,1.95-7.94c20.22-31.32,18.45-73.76,17.97-81.06
				c-9.6-31.53-3.94-60.13,16.84-85.07c-0.24-0.9-0.38-1.84-0.41-2.79c-2.58-78.96,23.43-141.05,37.78-168.98
				c-5.52-2.34-10.77-5.46-15.65-9.32c-22.07-17.4-22.15-56.52-0.24-116.25c12.25-33.41,28.01-64.25,33.83-75.26
				c-9.18-57.73-5.03-98.79,12.33-122.06c2-2.68,4.16-5.09,6.46-7.21c-9.7-9.32-23.49-22.63-40.16-38.87
				c-22.59-21.99-20.2-41.28-11.28-51.11c5-5.52,12.45-8.56,20.99-8.56c3.3,0,6.67,0.44,10.09,1.32c-0.55-4.62-1.02-9.18-1.4-13.64
				c-20.13-16.8-37.45-38.22-48.08-52.67c-12.64,15.07-30.35,26.3-52.76,33.46c-11.62,3.71-24.87,5.6-39.36,5.6
				c-44.48,0-95.19-17.99-129.21-45.84c-25.4-20.8-54.43-56.9-48.45-110.73c0.95-8.53,2.58-16.63,4.84-24.15
				c-15.04-15.86-65.62-73.43-99.47-162.41c-27.53,34.96-85.84,123.26-48.43,204.31c8,17.33,18.07,32.85,30.78,47.46
				c15.95,18.3,33.62,32.37,50.69,45.98c39.51,31.48,80.36,64.02,70.93,140.36c-6.5,52.52-41.76,86.66-94.32,91.33
				c-3.73,0.33-7.58,0.5-11.45,0.5c-50.68,0-113.74-29.68-130.78-84.7c-1.61-5.18,0.28-10.78,4.71-13.93
				c2.14-1.52,4.65-2.32,7.27-2.32c2.7,0,5.27,0.85,7.44,2.45c0.33,0.24,35.13,25.38,66.13,25.38c4.6,0,8.92-0.57,12.84-1.69
				c12.51-3.57,22.09-13.47,28.47-29.42c15.52-38.79-26.99-81.23-76.2-130.38c-39.28-39.22-79.89-79.77-100.86-127.49l-0.18-0.39
				c-24.03-55.02-47.06-153.67-39.65-265.52c5.77-87.13,32.94-213.42,128.86-324.58C94.89,555.57,53.7,504.43,31.91,465.56
				C6.1,419.52,0.35,379.46,0.12,377.78c-0.08-0.6-0.12-1.2-0.11-1.8l0-0.24l0.03-0.4c0.02-0.43,0.08-1,0.19-1.57
				c0.05-0.24,0.08-0.44,0.13-0.63c0.15-0.66,0.36-1.32,0.63-1.95l0.11-0.26l0.1-0.2c0.25-0.52,0.51-0.99,0.81-1.45
				c0.09-0.14,0.21-0.32,0.34-0.5c0.41-0.59,0.86-1.12,1.34-1.6l0.21-0.21l0.1-0.08c0.29-0.27,0.62-0.55,0.96-0.82l0.22-0.16
				c0,0,0.6-0.39,0.76-0.49c1.22-0.77,2.62-1.33,4.1-1.63c0.16-0.03,0.36-0.07,0.57-0.1c0.68-0.11,1.33-0.16,1.95-0.16h0.3
				l0.18,0.01c0.58,0.02,1.2,0.09,1.86,0.22c0.19,0.04,0.36,0.07,0.54,0.12c0.6,0.14,1.15,0.31,1.69,0.52l0.37,0.14
				c17.08,7.46,34.62,11.07,53.7,11.07c39.74,0,80.04-15.4,126.7-33.24c30.3-11.58,61.63-23.56,96.72-32.99
				c16.47-4.42,33.02-6.67,49.2-6.67c3.96,0,7.93,0.14,11.87,0.4c6.65-51.43,51-90.92,103.44-90.92c12.69,0,25.5,2.39,37.41,6.96
				c11.57-26.65,28.91-51.9,51.6-75.13c57.2-58.58,111-69.01,167.95-80.06c48.71-9.45,99.07-19.22,157.81-60.9
				C876.18,1.08,879.08,0,882.1,0c0.32,0,0.64,0.01,0.96,0.04c4.4,0.34,8.34,3.05,10.29,7.08c0.09,0.2,0.17,0.38,0.25,0.57
				c0.26,0.62,0.46,1.23,0.62,1.85c0.09,0.29,0.17,0.57,0.22,0.87c0.22,1.22,5.54,31.33-1.93,74.5
				c-5.71,32.99-20.57,81.3-58.66,129.55c7.43-0.43,13.3-0.54,17.44-0.54c2.46,0,4.32,0.04,5.54,0.08
				c24.51-5.24,50.24-7.9,76.47-7.9c54.89,0,113.65,11.56,174.67,34.36c79.26,29.62,162.64,78.79,241.14,142.21
				c147.17,118.91,263.52,276.42,289.51,391.94c21.98,97.7,17.54,170.54-13.19,216.51c-23.21,34.71-53.33,40.29-54.6,40.51
				c-0.71,0.12-1.42,0.18-2.13,0.18c-2.95,0-5.76-1.05-7.98-2.87c-2.88,11.73-6.11,23.92-9.72,36.55
				c-31.39,109.84-89.9,157.36-134.46,177.89c-4.76,17.97-23.28,67.46-89.32,114.95c-2.2,11.12-8.4,25.07-18.5,41.6
				c5.18,0.05,9.94,1.21,14.16,3.47c11.59,6.2,15,19,15.19,25.59c0.11,4.01-1.71,7.85-4.89,10.3c-0.45,0.34-44.23,34.08-72.82,61.71
				c-4.85,4.69-9.06,9.7-12.57,14.94c6.85,1.36,14.17,4.34,19.79,10.45c11,12.01,29.24,68.68,24.75,104.19
				c18.09,13.93,35.35,37.02,48.89,65.47c15.47,32.52,22.71,65.88,19.85,91.54c-2.95,26.5-16.06,44.56-37.91,52.23
				c-1.57,0.55-3.18,1.01-4.84,1.39c11.01,25.86,25.82,74.68-1.27,106.59c9.9,11.67,14.92,24.45,14.94,38.03
				c0.02,21.94-13.21,39.22-20.51,47.08c1.25,63.79,47,132.9,47.46,133.59c3.29,4.9,2.76,11.32-1.3,15.61
				c-17.89,18.91-45.24,31.29-79.32,35.95c-2.09,24.99-0.26,47.84,5.33,66.62c6.36,0.37,12.14,2.68,17.61,7.02
				c14.79,11.75,19.46,40.59,20.77,62.72c1.4,23.56-0.38,67.61-15.91,83.27c-1.06,1.07-2.35,2.18-3.84,3.3l1.24,28.36
				c1.25-0.41,2.57-0.62,3.92-0.62c1.71,0,3.38,0.34,4.96,1.03c4.04,1.74,6.91,5.53,7.48,9.9c0.1,0.72,9.56,74.22,6.91,184
				l-0.25,10.63c-1.43,61.23-2.29,98.19-24.23,123.47c-23.22,26.75-66.62,35.01-138.57,40.88c-11.1,0.91-21.75,1.37-31.64,1.37
				c-53.94,0-89.67-13.65-106.19-40.57c-17.5-28.51-7.75-64.65,7.2-88.97c17.32-28.16,15.79-69.15,6.53-139.72
				c-5.96-45.35-3.79-73.19,6.64-85.13c3.17-3.63,6.52-5.29,9.16-6.03l-1.63-21.68c-0.33-0.18-0.65-0.36-0.97-0.55
				c-13.71-7.84-21.78-34.36-26.15-55.21c-5.4-25.82-10.82-74.51,3.1-93.25c4.52-6.1,10.53-9.48,17.43-9.85
				c-2.11-31.1-8.49-58.15-12.32-72.19c-15.04,2.47-29.84,3.72-44.05,3.72c-31.21,0-52.06-5.94-61.03-9.14
				c-3.73,1.02-7.47,1.97-11.17,2.85c-1.01,15.5-2.38,46.36-0.14,78.23c0.21-0.01,0.42-0.01,0.62-0.01c6.11,0,11.66,2.44,16.49,7.25
				c16.52,16.53,18.26,65.52,16.69,91.86c-1.27,21.25-5.39,48.63-17.79,58.37c-0.31,0.24-0.62,0.48-0.93,0.72l1.46,21.65
				c2.59,0.33,6.3,1.42,10.07,4.64c12.06,10.3,18.27,37.53,18.99,83.26c1.14,71.19,5.61,111.96,26.84,137.26
				c18.35,21.87,33.27,56.21,20.12,86.98c-14.71,34.4-58.65,54.22-130.62,58.89C858.5,2854.83,841.53,2855.5,827.05,2855.5z
				 M1582.42,868.89c0,33.3-3.64,76.92-15.17,131.53c24.28-35.45,29.82-78.11,16.46-127.02
				C1583.29,871.9,1582.86,870.4,1582.42,868.89z"
                className="color38212a svgShape"
              ></path>
              <path
                fill="#ffdfca"
                d="M1358.49 1246.24c-.02 0-.04.02-.04.02s19.91-.29 47.24-11.79c-.58 3.59-11.04 61.84-90.13 116.78.56-9.2-3.47-15.69-15.38-16.32 0 0-4.9-26.92-31.32-13.7 0 0-10.36-27.9-48.03 25.93 0 0-4.9-38.17-48.94 12.72-10.63 12.29-19.18 24.41-25.86 36.18l-1.06-.62c-16.19 1.91-32.82 3.53-49.71 4.9-70.1 5.69-144.3 6.89-206.95 4.46-16.92-.64-33.02-1.56-47.95-2.72l-.77-.1c4.4-33.38 7.33-61.15.75-69.1-9.34-11.31-18.95-4.19-21.92-1.45-.62.56-.95.93-.95.93s7.26-37.28-19.32-31.72c-20.24 4.23-31.51 63.66-31.51 63.66-9.11-120.74-51.31-69.7-51.31-69.7-28.33-13.41-31.01 26.71-28.62 60.86-30.37-23.83-55.11-60.46-60.36-68.52 5-9.8 7.27-19.86 7.51-28.94 33.96 9.34 74.43 13.08 122.59 8.22 0 0 0 0-.02-.02-2.51-1.85-224.8-168.63-48.22-526.17h.08c-4.63 62 4.59 130.33 41.58 197.3 0 0-1.68-104.18 99.16-191.88l1.47-.39c18.89 72.36 58.87 148.08 138.35 205.43 0 0-27.65-45.69-42.66-138.95 3.3 6.68 56.44 113.71 77.94 132.03 22.21 18.91 206.33 5.75 206.33 5.75s16.48-65.22 24.54-149.35l.96.1c10.21 54.61 65.7 89.84 84.38 100.28 3.86 2.16 6.14 3.26 6.14 3.26-2.55-2.16-4.9-4.65-7.08-7.41-24.78-31.28-27.84-99.14-27.34-163.32 14.86 14.24 89.88 93.57 67 223.59 0 0 23.5-40.27 42.28-97.18l.44.15c0 0 57.6 46.31 25.97 200.76-12.76 62.23-29.74 104.53-45.44 132.84C1379.62 1233.9 1359.54 1245.65 1358.49 1246.24zM907.48 2319.85c-17.1 11.37-44.23 38.96-104.76 37.26-62.08-1.76-91.5-18.91-109.97-21.94.42-2.72.75-5.46 1-8.22 4.03-42.03-9.49-88.65-18.2-113.39-3.88-11.04-6.81-17.71-6.81-17.71v-.02c5.02.96 10.38 1.79 16.13 2.49 0 0 23.56 34.73 112.88 12.41 0 0 37.57 18.29 109.08 3.36C906.23 2221.3 902.17 2272.23 907.48 2319.85z"
                className="colorffdfca svgShape"
              ></path>
              <path
                fill="#c0ddcd"
                d="M926.78,2450.14c-2.01,1.58-4.05,3.09-6.16,4.53c-69.39,48.24-185.82,31.86-222.74,17.5
					c-4.17-1.6-7.33-3.2-9.28-4.67c-2.39-1.79-4.71-4.71-6.87-8.49c-15.8-27.5-24.39-100.57-8.03-118.04
					c2.59-2.76,5.25-4.5,8.14-5.4c3.26-1.04,6.81-1.06,10.9-0.41c18.47,3.03,47.89,20.18,109.97,21.94
					c60.53,1.7,87.66-25.9,104.76-37.26c7.78-5.19,13.47-7,19.3-1.2C945.38,2337.26,944.14,2436.5,926.78,2450.14z"
                className="colorc0ddcd svgShape"
              ></path>
              <path
                fill="#fcb19e"
                d="M1348.54 2173.51c-21.52 22.75-54.32 30.87-81.93 33.27-28.09 2.47-50.81-1-50.81-1-76.92 28.52-145.13 0-145.13 0-9.34 2.76-18.29 4.96-26.8 6.7-71.76 14.61-113.38-4.23-113.38-4.23-8.26 2.35-16.13 4.28-23.64 5.85-71.51 14.94-109.08-3.36-109.08-3.36-89.32 22.33-112.88-12.41-112.88-12.41-5.75-.69-11.11-1.52-16.13-2.49-46.87-8.95-62.75-28.81-68.06-40.1-2.33-4.98-2.64-8.28-2.64-8.28 22.29-34.52 20.55-79.73 19.95-88.59-.06-1-.12-1.54-.12-1.54s76.3-77.94 340.52-76.08c264.22 1.87 340.5 46.52 340.5 46.52C1297.67 2097.85 1348.54 2173.51 1348.54 2173.51zM1291.9 2490.51c-20.63 10.79-61.56 27.73-121.26 32.28-57.27 4.36-87.1-10.17-100.94-20.88l-.39-5.02-3.51-46.83c1.64.81 3.28 1.58 4.96 2.33 73.87 33.07 179.47 3.01 215.62-16.25l3.15.14L1291.9 2490.51zM924.13 2506.77c-12.23 12.6-39.62 31.14-96.6 35.16-59.22 4.17-101.96-6.39-124.11-14.05l-.77-6.79-5.36-47.37.21-.52.39-1.02c36.91 14.36 153.35 30.74 222.74-17.5L924.13 2506.77z"
                className="colorfcb19e svgShape"
              ></path>
              <path
                fill="#e88e7c"
                d="M981.35,2715.6c-22.85-27.23-28.52-66.98-29.77-145.13c-1.23-78.15-18.6-75.68-18.6-75.68
					s-2.16,5.11-8.84,11.98c-12.23,12.6-39.62,31.14-96.6,35.16c-59.22,4.17-101.96-6.39-124.11-14.05
					c-6.16-2.1-10.71-3.99-13.6-5.29c-2.45-1.1-3.7-1.76-3.7-1.76s1.23,73.19,19.86,181.12c8.1,46.97,13.08,79.65,24.29,101.65
					c18.56,36.45,54.2,43.47,149.37,37.28C1032.21,2830.97,1013.61,2754.06,981.35,2715.6z M931.93,2616.82
					c-1.25,3.7-3.07,6.7-5.48,8.55c-14.68,11.35-51.15-2.41-51.15-2.41l-2.89-0.17c-3.61,2.39-7.87,3.92-12.52,4.19
					c-3.92,0.25-7.66-0.41-11.08-1.78l-0.52,1.02c0,0-30.76,23.95-48.13,17.46c-17.37-6.48-26.49-59.18-6.19-71.72
					c20.28-12.54,44.86,13.01,44.86,13.01l0.12,0.1c4.34-5.07,10.65-8.45,17.83-8.9c5.71-0.35,11.1,1.22,15.53,4.15
					c2.05-3.8,17.29-30.82,38.77-25.28c12.68,3.26,20.49,20.72,22.54,37.69C934.67,2601.6,934.17,2610.32,931.93,2616.82z"
                className="colore88e7c svgShape"
              ></path>
              <path
                fill="#c0ddcd"
                d="M1297.23,2428.88c-2.05,2.06-5.75,4.57-10.84,7.27c-36.95,19.7-146.56,50.69-220.58,13.91
					c-2.28-1.14-4.53-2.33-6.73-3.59c-3.74-2.14-7.35-7.6-10.61-15.15c-12.85-29.64-20.45-91.58-10.27-112.15
					c0.5-1.04,1.06-1.99,1.68-2.8c4.11-5.54,8.91-5.75,15.34-3.32c18.08,6.83,48.95,34.56,113,23.27
					c62.12-10.98,88.59-32.75,106.42-38.01c7.08-2.08,12.79-1.58,18.85,3.22C1314.79,2318.46,1314.69,2411.26,1297.23,2428.88z"
                className="colorc0ddcd svgShape"
              ></path>
              <path
                fill="#e88e7c"
                d="M1307.45,2481.28c0,0-5.25,3.84-15.55,9.22c-20.63,10.79-61.56,27.73-121.26,32.28
					c-57.27,4.36-87.1-10.17-100.94-20.88c-3.59-2.76-6.12-5.29-7.74-7.14c-1.78-1.99-2.53-3.22-2.53-3.22s-17.54,0.08-7.35,77.57
					c10.17,77.49,10.34,117.65-8.28,147.93c-10.05,16.34-17.31,37.96-13.95,57.72c5.48,31.94,38.71,59.07,132.87,51.39
					c152.38-12.45,148.45-36.16,151.53-162.78C1316.91,2553.88,1307.45,2481.28,1307.45,2481.28z M1212.57,2619.45
					c-16.25,8.95-50.17-10.25-50.17-10.25l-2.1-0.15c-2.82,1.41-5.92,2.32-9.24,2.6c-5.31,0.44-10.36-0.75-14.67-3.18l-1.18,1.47
					c0,0-34.08,18.91-50.25,9.84c-16.17-9.09-17.06-62.56,4.92-71.84c20.43-8.61,39.46,15.9,42.03,19.37
					c3.97-3.55,9.09-5.9,14.8-6.39c7.18-0.62,13.89,1.81,18.91,6.19l0.12-0.12c0,0,20.59-28.87,42.49-19.41
					C1230.13,2557.04,1228.8,2610.51,1212.57,2619.45z"
                className="colore88e7c svgShape"
              ></path>
              <path
                fill="#ad8271"
                d="M1568.71,1019.26c81.87-98.62-7.43-225.15-7.43-225.15s29.77,85.58-22.33,267.93
					c-31.59,110.55-91.21,154.76-133.26,172.43c-27.32,11.5-47.24,11.79-47.24,11.79s57.68-31.63,89.32-186.07
					c31.63-154.45-25.97-200.76-25.97-200.76l-0.44-0.15c-18.78,56.9-42.28,97.18-42.28,97.18
					c18.64-105.88-27.65-178.14-53.53-209.02c-5.89-7.04-10.71-11.93-13.47-14.57c-0.52,67.27,2.88,138.59,31.09,167.59
					c1.06,1.12,2.18,2.16,3.34,3.15c0,0-78.21-37.67-90.52-103.54l-0.96-0.1c-8.07,84.13-24.54,149.35-24.54,149.35
					s-184.12,13.16-206.33-5.75c-18-15.34-58.22-92.93-72.73-121.64c-2.82-5.58-4.67-9.3-5.21-10.38
					c15.01,93.26,42.66,138.95,42.66,138.95c-10.01-7.24-19.39-14.74-28.19-22.52c-61.03-53.86-93.64-119.68-110.16-182.91
					l-1.47,0.39c-100.84,87.7-99.16,191.88-99.16,191.88c-36.99-66.98-46.21-135.31-41.58-197.3h-0.08
					c-177.58,359.55,48.24,526.19,48.24,526.19c-48.16,4.86-88.63,1.12-122.59-8.22c-38.05-10.42-67.96-27.86-91.41-48.12
					c2.6,27.81,35.1,61.56,36.37,62.89c-2.06-0.44-94.8-21.15-150.97-154.31l-1,0.42c-9.28,2.05-22.83,7.02-34.54,19.14
					c-3.18,3.28-6.23,7.08-9.03,11.5c-2.6,4.09-4.98,8.7-7.02,13.91l-1.76-0.69c0,0-70.22-68.69-107.85-182.37
					c-33.48-101.07-41.18-237.71,49.13-393.26c5.98-10.3,12.39-20.7,19.26-31.16c32.71-49.84,66.82-92.16,101.29-128.09
					c14.72-15.36,29.52-29.54,44.29-42.64c7.66-6.81,15.3-13.31,22.94-19.53c29.43-24.02,58.58-43.92,86.78-60.36
					c85.17-49.73,161.7-68.25,210.89-75.02c0.39-0.06,0.73-0.12,1.02-0.15c0.93-0.14,1.41-0.19,1.41-0.19
					c34-4.5,54.26-3.36,54.26-3.36c314.45-68.85,718.23,327.48,768.47,550.77C1676.63,1000.64,1568.71,1019.26,1568.71,1019.26z"
                className="colorad8271 svgShape"
              ></path>
              <path
                fill="#ffdfca"
                d="M1325.53 1429.35c0 0-.02 0-.06.02-1.81 1.43-45.08 34.83-73.83 62.62-12.95 12.52-19.99 25.24-23.83 35.54-4.84 13.03-4.53 22.19-4.53 22.19-45.52 17.62-81.72.48-81.72.48s.85-9.01-.96-23.14c-1.25-9.82-3.8-22.11-8.82-35.56-9.28-24.87-6.73-58.47 14.26-95.44 6.68-11.77 15.23-23.89 25.86-36.18 44.03-50.88 48.94-12.72 48.94-12.72 37.67-53.84 48.03-25.93 48.03-25.93 26.42-13.22 31.32 13.7 31.32 13.7 11.91.64 15.94 7.12 15.38 16.32-1.54 25.97-39.44 73.69-39.44 73.69C1324.55 1394.61 1325.53 1429.35 1325.53 1429.35zM578.85 1272.76c-1.27-1.33-33.77-35.08-36.37-62.89 23.44 20.26 53.35 37.7 91.41 48.12-.23 9.09-2.51 19.14-7.51 28.94-8.88 17.41-26.34 34.12-56.38 43.71-68.75 21.96-212.64-30.45-200.74-137.64 1.29-11.54 3.76-21.3 7.02-29.58 12.45-31.51 36.45-41.43 50.59-44.56l1-.42C484.04 1251.61 576.78 1272.31 578.85 1272.76zM836.22 1427.17c-5.79 43.82 3.3 50.44 3.3 50.44s-21.5 61.21-122.4-2.47c0 0-15.21-14.49-39.33-37.88-4.03-3.92-8.3-8.07-12.79-12.45-31.43-30.6-3.88-52.76 27.11-26.63 0 0-3.8-20.05-5.38-42.72-2.39-34.15.29-74.27 28.62-60.86 0 0 42.2-51.04 51.31 69.7 0 0 11.27-59.43 31.51-63.66 26.57-5.56 19.32 31.72 19.32 31.72s.33-.37.95-.93c2.64-2.43 10.55-8.36 18.85-1.62 1.02.81 2.05 1.83 3.07 3.07 6.58 7.95 3.65 35.72-.75 69.1C838.52 1410.11 837.36 1418.58 836.22 1427.17zM1274.63 2298.32c-17.83 5.27-44.3 27.03-106.42 38.01-64.04 11.29-94.92-16.44-113-23.27l5.15-2.2c-.15-5.75-.48-11.4-.93-16.92-2.33-28.94-8.05-53.99-11.79-68.1-2.06-7.72-3.53-12.16-3.53-12.16l-.25-1.22c8.51-1.74 17.46-3.94 26.8-6.7 0 0 68.21 28.52 145.13 0 0 0 22.71 3.47 50.81 1l.12 1.27c-3.03 25.9-3.18 57.87 6.91 86.39L1274.63 2298.32zM1095.27 1400.34c-.73 1.74-3.94 8.93-10.63 17.81-9.78 12.93-27 29.43-54.84 37.74-8.74 2.6-18.54 4.42-29.48 5.06-3.69-2.41-8.1-3.82-12.85-3.82-4.34 0-8.43 1.18-11.92 3.26-8.34-.85-15.96-2.37-22.9-4.4-25.74-7.41-42.32-21.42-52.29-33.13-6.91-8.12-10.63-15.15-12.02-18.06C950.98 1407.23 1025.17 1406.04 1095.27 1400.34z"
                className="colorffdfca svgShape"
              ></path>
              <path
                fill="#7c4b45"
                d="M235.04,1265.08c56.02,64.26,130.85,77.71,118.63,176.56c-14.9,120.33-184.84,93.03-212.12,4.96
					c0,0,94.26,69.47,126.53-11.17c32.24-80.6-130.19-159.99-177.35-267.87c1.83,2.64,60.82,86.95,143.85,97.93L235.04,1265.08z"
                className="color7c4b45 svgShape"
              ></path>
              <path
                fill="#ad8271"
                d="M266.67,980.36c-5,5.31-115.26,123.94-64.33,234.28c9.3,20.15,20.57,36.49,32.71,50.44l-0.46,0.41
					c-48.82-6.46-89.32-38.26-114.77-63.91c-17.85-17.96-28.31-32.92-29.08-34.02c-0.02-0.04-0.04-0.06-0.04-0.06
					c-1.52-3.49-3.05-7.18-4.55-11.04C41.12,1041.61,7.6,773.24,190.55,576.45c6.12,1.76,12.43,3.34,18.97,4.73
					c30.55,6.56,65.74,9.07,106.28,5.92C225.49,742.65,233.19,879.29,266.67,980.36z"
                className="colorad8271 svgShape"
              ></path>
              <path
                fill="#e88e7c"
                d="M436.34,427.85c-28.37,29.56-56.48,63.45-83.77,102.31c-5.89,8.36-11.73,16.96-17.52,25.78
					c-6.87,10.46-13.28,20.86-19.26,31.16c-49.22,3.82-90.56-0.69-125.25-10.65c-143.06-41-173.32-174.48-177.47-197.11
					c-0.21-1.18-0.35-2.05-0.44-2.59c-0.02-0.19-0.04-0.33-0.06-0.44c-0.02-0.1-0.02-0.15-0.02-0.19c0.04,0.1,0.15,0.33,0.31,0.69
					c3.28,7,31.92,60.32,138.61,46.39C265.38,408.34,357.04,371.24,436.34,427.85z"
                className="colore88e7c svgShape"
              ></path>
              <path
                fill="#c0ddcd"
                d="M1319.01,1827.99c-6.29,2.2-13.14,2.49-20.42,1.18c-2.22-0.41-4.5-0.95-6.79-1.64
					c-63.16-18.79-151.65-141.77-165.68-161.72c2.1,1.47,4.3,2.55,6.6,3.24c1.85,0.56,4.79,1,8.55,1.35
					c30.89,2.78,118.07-2.43,133.32-25.28c1.68-2.53,2.97-5.54,3.92-8.91C1331.61,1669.43,1383.91,1805.22,1319.01,1827.99z"
                className="colorc0ddcd svgShape"
              ></path>
              <path
                fill="#c0ddcd"
                d="M1298.91,2027.76c0,0-76.28-44.65-340.5-46.52c-264.22-1.85-340.52,76.08-340.52,76.08
					c-10.92-34.17-0.23-61.01,20.55-81.87l-3.99-4.13c-3.32-101.73,43.82-176.16,43.82-176.16l0.04-0.23
					c57.04,7.29,129.83-77.28,165.35-161.86l-4.11-2.1c1.1-0.12,2.2-0.23,3.3-0.37c0,0,18.89-47.04,26.57-82.16
					c0.02-0.02,0.02-0.02,0-0.04c2.86-13.03,4.17-24.39,2.37-31.11c-6.62-24.8-32.26-39.69-32.26-39.69s-9.09-6.62-3.3-50.44
					c1.14-8.59,2.3-17.06,3.38-25.18l0.77,0.1c14.94,1.16,31.03,2.08,47.95,2.72c3.4,7.12,20.69,38.65,64.31,51.19l-0.02,0.1
					c0,0-62,46.14-62.52,65.09c-0.29,10.67,8.68,23.62,18.95,32.82c-0.79,1.22-26.67,40.68,2.59,57.89
					c22.23,13.12,55.86-0.87,70.12-42.9l1.1,0.37c0,0,9.88,64.3,54.84,48.68c36.89-12.81,11.79-53.82,11.79-53.82l-0.33-0.81
					c19.66-7.85,44.61-26.76,45.94-42.24c1.52-17.93-47.16-62-65.09-64.57l-0.21-0.71c46.91-14.01,63.66-51.25,65.47-55.55
					c16.88-1.37,33.52-2.99,49.71-4.9l1.06,0.62c-20.99,36.97-23.54,70.57-14.26,95.44c5.02,13.45,7.56,25.74,8.82,35.56l-1.02,0.14
					c0,0-27.34-2.57-43.59,11.1c-1.97,1.66-3.32,3.7-4.19,6.06c-6.21,17.1,13.49,50.48,12.74,70.01
					c-0.73,19.22,8.12,42.28,21.59,51.44c14.53,20.69,109.06,152.02,172.47,163.36c7.6,13.87,43.3,84.48,1.6,117.57l-0.87,0.96
					C1344.85,1987.45,1298.91,2027.76,1298.91,2027.76z"
                className="colorc0ddcd svgShape"
              ></path>
              <path
                fill="#e88e7c"
                d="M1278.51,1636.2c-0.95,3.38-2.24,6.39-3.92,8.91c-17.1,25.63-124.77,29.06-141.87,23.93
					c-2.3-0.69-4.5-1.78-6.6-3.24c-9.61-6.54-16.86-20.15-19.97-34.39c-1.25-5.73-1.83-11.54-1.62-17.06
					c0.85-22.23-24.78-62.38-8.55-76.07c0.85-0.71,1.74-1.39,2.66-2.03c3.86-2.68,8.16-4.59,12.48-5.96
					c6.89-2.18,13.84-2.97,19.14-3.2c5.56-0.25,9.3,0.1,9.3,0.1l1.02-0.14c1.81,14.12,0.96,23.14,0.96,23.14s0.35,0.17,1.04,0.46
					c6.21,2.59,39.67,14.94,80.68-0.95c0,0-0.31-9.17,4.53-22.19l1.49,0.52c0,0,19.64-3.42,29.04,6.83
					C1266.82,1544.12,1287.08,1605.43,1278.51,1636.2z"
                className="colore88e7c svgShape"
              ></path>
              <path
                fill="#fcb19e"
                d="M1219,2612.44c-1.78,3.18-3.92,5.63-6.43,7c-16.25,8.95-50.17-10.25-50.17-10.25l-1.43-0.1l-0.68-0.06
					c0.17-0.08,0.35-0.17,0.5-0.29c8.74-4.61,14.34-14.14,13.45-24.64c-0.6-6.85-3.84-12.81-8.63-17l0.12-0.12
					c0,0,20.59-28.87,42.49-19.41c0.64,0.27,1.27,0.6,1.87,0.95v0.02C1226.87,2558.3,1228.32,2595.65,1219,2612.44z"
                className="colorfcb19e svgShape"
              ></path>
              <path
                fill="#fcb19e"
                d="M1131.92,2567.31c3.98-3.55,9.09-5.9,14.8-6.39c7.18-0.62,13.89,1.81,18.91,6.19
					c4.79,4.19,8.03,10.15,8.63,17c0.91,10.69-4.92,20.4-13.95,24.93c-2.82,1.41-5.92,2.32-9.24,2.6
					c-5.31,0.44-10.36-0.75-14.67-3.18c-7.08-3.99-12.12-11.31-12.87-20.01C1122.81,2580.16,1126.17,2572.46,1131.92,2567.31z"
                className="colorfcb19e svgShape"
              ></path>
              <path
                fill="#fcb19e"
                d="M1136.39 2608.47l-1.18 1.47c0 0-34.08 18.91-50.25 9.84-16.17-9.09-17.06-62.56 4.92-71.84 20.43-8.61 39.46 15.9 42.03 19.37-5.75 5.15-9.11 12.85-8.39 21.15C1124.27 2597.16 1129.31 2604.47 1136.39 2608.47zM985.84 1515.7c.54-.91 1.08-1.81 1.62-2.74.48-.87.96-1.74 1.45-2.62.73-1.31 1.45-2.64 2.14-4.01l-1.7-.96-1.89-1.08c.69 0 1.41-.04 2.08-.1 2.16-.19 4.23-.66 6.17-1.39 8.95-3.36 15.32-11.98 15.32-22.09 0-8.28-4.26-15.55-10.73-19.74 10.94-.64 20.74-2.45 29.48-5.06l.21.71c.25.04.52.08.79.14 0 .02.02.02.02.02 18.54 3.7 65.78 46.76 64.28 64.41-1.33 15.48-26.28 34.39-45.94 42.24-3.15 1.27-6.14 2.24-8.9 2.88-17.23 3.97-48.56-31.72-52.13-51.35L985.84 1515.7z"
                className="colorfcb19e svgShape"
              ></path>
              <path
                fill="#e88e7c"
                d="M988.13,1514.94c-0.03-0.16,1.4,10.5,1.32,10.39c-0.15-0.21-0.29-0.39-0.41-0.56
					c-0.02-0.04-0.04-0.06-0.06-0.08l-1.52-11.73c-0.02,1.95,0.96,16.19,0.89,18.06c-0.58,14.51-2.95,27.17-6.6,37.98
					c-14.26,42.03-47.89,56.02-70.12,42.9c-6.08-3.57-9.78-8.12-11.81-13.08c-7.76-18.89,8.61-43.84,9.22-44.81
					c1.45,1.31,2.93,2.53,4.42,3.67c6.66,5.07,13.37,8.3,18.14,8.1c10.94-0.42,31.18-15.32,48.57-41.06
					c0.02-0.02,0.02-0.04,0.02-0.04c1.93-2.86,3.84-5.85,5.65-8.97c0.54-0.91,1.08-1.81,1.62-2.74c0.48-0.87,0.96-1.74,1.45-2.62
					L988.13,1514.94z"
                className="colore88e7c svgShape"
              ></path>
              <path
                fill="#e88e7c"
                d="M1046.28 1613.9c-2.39 1.58-5.23 2.99-8.59 4.15-44.96 15.61-54.84-48.68-54.84-48.68l-1.1-.37c4.05-11.98 6.52-26.24 6.72-42.82.02-.29.02-.6.02-.89l.5-.6c.93 1.33 2.49 3.49 4.5 6.14 9.84 12.91 30.72 37.57 45.58 35.68.41-.06.81-.12 1.2-.21 2.76-.64 5.75-1.6 8.9-2.88l.33.81C1049.48 1564.23 1070.23 1598.11 1046.28 1613.9zM1000.32 1460.95c6.46 4.19 10.73 11.46 10.73 19.74 0 13.03-10.56 23.58-23.58 23.58-13.01 0-23.56-10.56-23.56-23.58 0-8.66 4.67-16.23 11.64-20.3 5.06.52 10.4.81 16 .81C994.55 1461.21 997.48 1461.13 1000.32 1460.95z"
                className="colore88e7c svgShape"
              ></path>
              <path
                fill="#fcb19e"
                d="M991.05 1506.32c-.64 1.23-1.27 2.45-1.93 3.65-18.81 34.69-44.63 55.3-57.52 55.8-5.83.23-14.59-4.63-22.56-11.77-10.27-9.2-19.24-22.15-18.95-32.82.52-18.95 62.52-65.09 62.52-65.09l.02-.1c4.07 1.2 8.37 2.2 12.93 3.01 3.2.58 6.52 1.04 9.98 1.39-6.97 4.07-11.64 11.64-11.64 20.3 0 8.43 4.42 15.82 11.08 19.99 3.63 2.28 7.89 3.59 12.48 3.59l.56.33L991.05 1506.32zM911.07 2555.03c23.12 5.96 30.04 58.99 15.38 70.33-14.68 11.35-51.15-2.41-51.15-2.41l-2.89-.17c7.31-4.86 11.89-13.37 11.33-22.77-.5-8.32-4.96-15.46-11.42-19.7C874.35 2576.51 889.59 2549.5 911.07 2555.03z"
                className="colorfcb19e svgShape"
              ></path>
              <path
                fill="#fcb19e"
                d="M872.3,2580.31c6.46,4.25,10.92,11.38,11.42,19.7c0.56,9.4-4.01,17.91-11.33,22.77
					c-3.61,2.39-7.87,3.92-12.52,4.19c-3.92,0.25-7.66-0.41-11.08-1.78c-8.82-3.57-15.28-11.94-15.88-22.07
					c-0.42-6.85,1.91-13.22,6.02-18.06c4.34-5.07,10.65-8.45,17.83-8.9C862.48,2575.82,867.87,2577.38,872.3,2580.31z"
                className="colorfcb19e svgShape"
              ></path>
              <path
                fill="#e88e7c"
                d="M803.67 229.95c-28.33 3.76-66.17 11.44-109.76 27-28.11 10.03-58.64 23.33-90.54 40.97-.04.04-.1.06-.13.08-4.26 2.37-8.57 4.8-12.89 7.33-7.04-74.81 54.94-148.16 173.92-199.68 107.34-46.47 116.99-87.57 117.78-92.53.04-.17.04-.29.04-.37.02-.1.02-.14.02-.14S903.06 127.23 803.67 229.95zM842.84 1630.61c-1.1.14-2.2.25-3.3.37-76.53 7.72-148.87-26.84-148.87-26.84-1.04-6.16-1.89-12.02-2.6-17.62-13.49-106.15 29.06-111.38 29.06-111.38 100.9 63.68 122.4 2.47 122.4 2.47s25.64 14.9 32.26 39.69C878.38 1542.11 842.84 1630.61 842.84 1630.61z"
                className="colore88e7c svgShape"
              ></path>
              <path
                fill="#fcb19e"
                d="M882.11 12.61c0 0-.15 2.05-1.58 5.77-5.11 13.39-26.63 48.45-116.26 87.26C645.28 157.16 583.3 230.51 590.35 305.32c-13.7 7.99-27.67 16.81-41.74 26.53-14.88 10.25-29.93 21.5-45.04 33.83-2.43-5.6-25.03-61.11-.27-129.67 9.55-26.49 26.18-54.96 53.8-83.22 99.38-101.77 188.35-51 311.56-131 2.95-1.91 5.94-3.92 8.93-6C879.1 14.76 880.6 13.7 882.11 12.61zM848.8 2625.2l-.52 1.02c0 0-30.76 23.95-48.12 17.46-17.37-6.48-26.49-59.18-6.19-71.72 20.28-12.54 44.86 13.01 44.86 13.01l.12.1c-4.11 4.84-6.44 11.21-6.02 18.06C833.52 2613.25 839.98 2621.63 848.8 2625.2z"
                className="colorfcb19e svgShape"
              ></path>
              <path
                fill="#c0ddcd"
                d="M843.65,1633.08c-35.52,84.58-108.31,169.15-165.35,161.86c-9.32-1.18-18.23-4.82-26.49-11.35
					c-5.92-4.67-9.4-11.62-10.96-20.13c-9.59-51.42,49.82-159.33,49.82-159.33s0.6,0.29,1.72,0.79
					c11.37,5.09,77.53,33.07,147.15,26.05L843.65,1633.08z"
                className="colorc0ddcd svgShape"
              ></path>
              <path
                fill="#e88e7c"
                d="M503.57,365.68c-7.64,6.21-15.28,12.72-22.94,19.53l-0.42-0.46c0,0-40.56-57.08-112.94-67.79l0.06-0.42
					c0-5.9,0.56-11.67,1.62-17.27c8.09-42.45,45.38-74.52,90.17-74.52c7.7,0,15.17,0.95,22.31,2.74c7.64,1.89,14.92,4.77,21.65,8.45
					l0.23,0.08C478.54,304.57,501.14,360.08,503.57,365.68z"
                className="colore88e7c svgShape"
              ></path>
              <path
                fill="#fcb19e"
                d="M480.63,385.21c-9.3,8.26-18.62,16.94-27.92,26.09c-5.46,5.36-10.92,10.88-16.36,16.56
					c-79.31-56.62-170.96-19.51-284.87-4.65C51.02,436.32,19.76,389.8,13.74,378.49c-0.06-0.1-0.1-0.19-0.15-0.27
					c-0.02-0.02-0.02-0.02-0.02-0.04c-0.29-0.48-0.46-0.85-0.56-1.08c-0.04-0.04-0.04-0.08-0.06-0.12c0-0.02-0.02-0.04-0.02-0.08
					c-0.02-0.02-0.02-0.04-0.02-0.04l-0.02-0.02c0-0.02,0-0.02,0-0.02c-0.02-0.02-0.02-0.02-0.02-0.02
					c-0.23-0.48-0.33-0.75-0.33-0.75c88.07,38.46,169.94-23.56,285.31-54.57c25.59-6.87,48.78-7.58,69.41-4.53
					c72.38,10.71,112.94,67.79,112.94,67.79L480.63,385.21z"
                className="colorfcb19e svgShape"
              ></path>
              <path
                fill="#e2a383"
                d="M1346.22 922.92c-37.86-2.37-80.45-35.49-80.45-35.49 0 23.66-11.85 80.45-11.85 80.45-120.66 21.3-217.68 9.46-217.68 9.46l-26.03-16.56 9.47 28.4c-144.34-40.23-184.57-189.3-184.57-189.3-49.69 47.31-78.09 186.92-78.09 186.92-56.79-44.96-68.62-108.85-68.62-108.85-65.78 242.05 66.21 386.25 68.04 388.24-2.51-1.85-224.8-168.63-48.22-526.17h.08c-4.63 62 4.59 130.33 41.58 197.3 0 0-1.68-104.18 99.16-191.88l1.47-.39c18.89 72.36 58.87 148.08 138.35 205.43 0 0-27.65-45.69-42.66-138.95 3.3 6.68 56.44 113.71 77.94 132.03 22.21 18.91 206.33 5.75 206.33 5.75s16.48-65.22 24.54-149.35l.96.1c10.21 54.61 65.7 89.84 84.38 100.28C1343.5 913.94 1346.22 922.92 1346.22 922.92zM1358.45 1246.26c0-.02.02-.02.04-.04v.02C1358.47 1246.24 1358.45 1246.26 1358.45 1246.26z"
                className="colore2a383 svgShape"
              ></path>
              <path
                fill="#e2a383"
                d="M1447.78,1060.19c-12.76,62.23-29.74,104.53-45.44,132.84c-24.87,32.21-42.93,52.2-43.84,53.2
				c85.56-138.06,68.17-320.94,68.17-320.94c-30.76,47.31-82.82,63.89-82.82,63.89c49.69-78.09-9.45-189.3-9.45-189.3
				c-7.43,28.21-0.87,69.49,5.04,96.31c-24.78-31.28-27.84-99.14-27.34-163.32c14.86,14.24,89.88,93.57,67,223.59
				c0,0,23.5-40.27,42.28-97.18l0.44,0.15C1421.8,859.43,1479.4,905.74,1447.78,1060.19z"
                className="colore2a383 svgShape"
              ></path>
              <path
                fill="#7c4b45"
                d="M960.68 927.97c-61.03-53.86-93.64-119.68-110.16-182.91l-1.47.39c-100.84 87.7-99.16 191.88-99.16 191.88-36.99-66.98-46.21-135.31-41.58-197.3h-.08c-177.58 359.55 48.24 526.19 48.24 526.19-48.16 4.86-88.63 1.12-122.59-8.22-38.05-10.42-67.96-27.86-91.41-48.12 2.6 27.81 35.1 61.56 36.37 62.89-2.06-.44-94.8-21.15-150.97-154.31l-1 .42c-9.28 2.05 12.72-12.54 1-.42-42.39-128.07-122.58-411.79 143.47-666.67-3.49 3.88-254.42 237.47-106.03 617.72 29.77 76.29 109.78 147 202.82 163.75 0 0-195.37-223.3 107.92-712.65 0 0-46.52 176.75-27.92 254.9 0 0-14.88-119.08 100.5-264.2C848.63 511.29 852.18 777.15 960.68 927.97zM1346.51 903.6c0 0-78.21-37.67-90.52-103.54l-.96-.1c-8.07 84.13-24.54 149.35-24.54 149.35s-184.12 13.16-206.33-5.75c-18-15.34-58.22-92.93-72.73-121.64-.17-.58-.31-1.18-.46-1.76C915.6 680.61 967.7 438.71 967.7 438.71s-13.02 303.3 74.43 476.35c0 0 96.75 9.3 154.45-3.72 0 0 78.15-225.15 24.18-396.35 0 0 44.67 96.77 59.55 243.77 9.98 98.47 42.49 130.98 62.87 141.69C1344.23 901.57 1345.35 902.62 1346.51 903.6z"
                className="color7c4b45 svgShape"
              ></path>
              <path
                fill="#7c4b45"
                d="M1568.71,1019.26c81.87-98.62-7.43-225.15-7.43-225.15s29.77,85.58-22.33,267.93
				c-31.59,110.55-91.21,154.76-133.26,172.43c-27.32,11.5-47.24,11.79-47.24,11.79s57.68-31.63,89.32-186.07
				c31.63-154.45-25.97-200.76-25.97-200.76l-0.44-0.15c-18.78,56.9-42.28,97.18-42.28,97.18
				c18.64-105.88-27.65-178.14-53.53-209.02c-10.28-21.44-13.18-15.32-13.45-14.63c0.54-2.91,19.61-105.59-28.08-195.47
				c0,0,40.93,31.63,53.95,135.83c13.02,104.2,42.8,74.43,55.82,173.05c0,0,66.98-106.05,16.77-238.14
				c1.78,3.49,153.81,304.59,48.38,533.97c1.66-2.64,128.07-204.25,80-422.36C1538.95,719.69,1695.23,909.49,1568.71,1019.26z"
                className="color7c4b45 svgShape"
              ></path>
              <path
                fill="#eab8a7"
                d="M96.89,1171.83C96.89,1171.83,97.72,1171.93,96.89,1171.83c-17.85-17.96-5.39-3.18-6.16-4.28
				c-0.02-0.04-0.04-0.06-0.04-0.06c-47.08-107.81-89.23-387.66,99.86-591.04c6.12,1.76,12.43,3.34,18.97,4.73
				C-14.75,862.95,96.89,1171.83,96.89,1171.83z"
                className="coloreab8a7 svgShape"
              ></path>
              <path
                fill="#7c4b45"
                d="M266.67,980.36c-5,5.31-115.26,123.94-64.33,234.28c9.3,20.15,20.57,36.49,32.71,50.44l-0.46,0.41
				c-48.82-6.46-89.32-38.26-114.77-63.91c-17.85-17.96-28.31-32.92-29.08-34.02c-0.02-0.04-0.04-0.06-0.04-0.06
				c-1.52-3.49-3.05-7.18-4.55-11.04c-0.33-2.1-0.41-3.24-0.41-3.24s22.33,39.07,55.82,31.65c33.48-7.45,22.32-83.74,48.37-163.75
				c37.66-115.68-18.06-304.23,125.87-434.01C225.49,742.65,233.19,879.29,266.67,980.36z"
                className="color7c4b45 svgShape"
              ></path>
              <path
                fill="#eab8a7"
                d="M379.73 528.02c-192.38 253.05-105.47 480.28 3.57 621.49-2.6 4.09-4.98 8.7-7.02 13.91l-1.76-.69c0 0-70.22-68.69-107.85-182.37-33.48-101.07-41.18-237.71 49.13-393.26 5.98-10.3 12.39-20.7 19.26-31.16 32.71-49.84 66.82-92.16 101.29-128.09 14.72-15.36 29.52-29.54 44.29-42.64 7.66-6.81 15.3-13.31 22.94-19.53 29.43-24.02 58.58-43.92 86.78-60.36 85.17-49.73 161.7-68.25 210.89-75.02C776.85 234.14 573.5 273.15 379.73 528.02zM967.7 438.71c0 0-104.2 215.84-22.33 481.92l39.08 24.19C984.45 944.83 893.28 799.7 967.7 438.71zM1284.03 537.34c0 0 15.29 52.5 12.78 173.01-1.69 81.05-8 151.32 46.36 190.11 0 0-34.96-63.55-33.1-184.5S1284.03 537.34 1284.03 537.34z"
                className="coloreab8a7 svgShape"
              ></path>
              <path
                fill="#e2a383"
                d="M1095.27,1400.34c-0.73,1.74-3.94,8.93-10.63,17.81c-77.8,15.19-149.62,9.3-184.3,4.71
				c-6.91-8.12-10.63-15.15-12.02-18.06C950.98,1407.23,1025.17,1406.04,1095.27,1400.34z"
                className="colore2a383 svgShape"
              ></path>
              <path
                fill="#c97881"
                d="M1095.1,1521.18c-1.33,15.48-26.28,34.39-45.94,42.24c-3.15,1.27-6.14,2.24-8.9,2.88
				c-17.23,3.97-43.59-30.87-50.54-40.58c-0.73-5.89-0.96-11.13-0.81-15.38c0.08-1.87,0.23-3.53,0.44-4.98
				c0.06-0.41,0.12-0.81,0.19-1.18c1.08-5.67,3.36-6.99,6.17-1.39c0.37,0.75,0.75,1.62,1.16,2.64
				c16.13,41.24,71.71,43.03,73.5,14.34c1.62-26.01-33.11-57.41-39.56-63C1049.37,1460.47,1096.6,1503.52,1095.1,1521.18z"
                className="colorc97881 svgShape"
              ></path>
              <path
                fill="#c97881"
                d="M989.12,1509.97c-18.81,34.69-44.63,55.3-57.52,55.8c-5.83,0.23-14.59-4.63-22.56-11.77
				c-10.27-9.2-19.24-22.15-18.95-32.82c0.52-18.95,62.52-65.09,62.52-65.09l0.02-0.1c4.07,1.2,8.37,2.2,12.93,3.01
				c-1.12,1.14-2.41,2.32-3.92,3.51c-50.13,40.12-58.39,64.3-37.74,79.64c15.11,11.23,44.34-31.22,51.08-41.47
				c0.91-1.39,1.41-2.18,1.41-2.18c6.1-1.58,9.84,0.89,11.64,6.1C988.56,1506.15,988.93,1507.96,989.12,1509.97z"
                className="colorc97881 svgShape"
              ></path>
              <path
                fill="#bf5d52"
                d="M1046.28 1613.9c-.27-9.49-3.18-26.42-19.53-32.63-23.23-8.84-36.99-34.04-36.99-34.04.6-6.58 1.91-11.98 3.72-16.4 9.84 12.91 30.72 37.57 45.58 35.68.41-.06.81-.12 1.2-.21 2.76-.64 5.75-1.6 8.9-2.88l.33.81C1049.48 1564.23 1070.23 1598.11 1046.28 1613.9zM989.05 1524.77c-.08 1.97-.31 4.05-.69 6.25-.62 3.57-1.66 7.45-3.18 11.62 0 0-29.14 35.04-56.63 36.66-18.14 1.08-25.74 9.44-28.71 19.51-7.76-18.89 8.61-43.84 9.22-44.81 1.45 1.31 2.93 2.53 4.42 3.67 6.66 5.07 13.37 8.3 18.14 8.1 10.94-.42 31.18-15.32 48.57-41.06.02-.02.02-.04.02-.04 1.93-2.86 3.84-5.85 5.65-8.97.54-.91 1.08-1.81 1.62-2.74C988.66 1516.35 989.24 1520.29 989.05 1524.77z"
                className="colorbf5d52 svgShape"
              ></path>
              <path
                fill="#e2a383"
                d="M1325.48,1429.37c-1.81,1.43-45.08,34.83-73.83,62.62c-12.95,12.52-19.99,25.24-23.83,35.54
				c-4.84,13.03-4.53,22.19-4.53,22.19c-45.52,17.62-81.72,0.48-81.72,0.48s0.85-9.01-0.96-23.14c34.25,12.89,54.68,5.5,86.86-27.54
				C1277,1448.67,1323.41,1429.71,1325.48,1429.37z"
                className="colore2a383 svgShape"
              ></path>
              <path
                fill="#bf5d52"
                d="M1278.51,1636.2c-0.95,3.38-2.24,6.39-3.92,8.91c-17.1,25.63-124.77,29.06-141.87,23.93
				c-2.3-0.69-4.5-1.78-6.6-3.24c-9.61-6.54-16.86-20.15-19.97-34.39c15.44,25.07,57.35,20.15,108.25,11.75
				c57.75-9.55,46.87-90.41,10.08-81.21c-76.91,19.23-130.87-16.13-130.87-16.13c-0.39-1.56,4.53-8.45,5.04-9.57
				c1.58-3.72,7.24-5.27,12.48-5.96c4.9-0.64,9.44-0.52,9.98-0.73c3.16-1.23,6.21-2.03,9.17-2.47c5.56-0.25,9.3,0.1,9.3,0.1
				l1.02-0.14c1.81,14.12,0.96,23.14,0.96,23.14s0.35,0.17,1.04,0.46c6.21,2.59,39.67,14.94,80.68-0.95c0,0-0.31-9.17,4.53-22.19
				l1.49,0.52c0,0,19.64-3.42,29.04,6.83C1266.82,1544.12,1287.08,1605.43,1278.51,1636.2z"
                className="colorbf5d52 svgShape"
              ></path>
              <path
                fill="#91a399"
                d="M1319.01,1827.99c-6.29,2.2-13.14,2.49-20.42,1.18c-2.22-0.41-4.5-0.95-6.79-1.64
				c-1.64-4.3,0.96-6.98,9.59-6.31c47.14,3.72,19.84-153.81-39.69-143.89c-75.12,12.52-121.57-3.72-121.57-3.72s0.33-1.14,1.14-3.2
				c30.89,2.78,118.07-2.43,133.32-25.28c1.68-2.53,2.97-5.54,3.92-8.91C1331.61,1669.43,1383.91,1805.22,1319.01,1827.99z"
                className="color91a399 svgShape"
              ></path>
              <path
                fill="#91a399"
                d="M1298.91,2027.76c0,0-76.28-44.65-340.5-46.52c-264.22-1.85-340.52,76.08-340.52,76.08
				c-10.92-34.17-0.23-61.01,20.55-81.87l-3.99-4.13c-3.32-101.73,43.82-176.16,43.82-176.16l0.04-0.23
				c57.04,7.29,129.83-77.28,165.35-161.86l-4.11-2.1c1.1-0.12,2.2-0.23,3.3-0.37c0,0,18.89-47.04,26.57-82.16
				c-14.95,197.69-138.84,243.21-169.65,276.5c-31.01,33.5-52.1,95.52,18.62,85.6c70.7-9.92,88.07,2.47,88.07,2.47
				c-89.32,11.17-162.51,68.23-166.22,89.32c-3.72,21.09,38.38-45.94,295.23-48.38c261.73-2.49,359.72,66.98,351.04,27.29
				c-8.68-39.69-152.58-96.75-152.58-96.75c93.05-2.49,160.02,50.87,148.87-2.49c-11.17-53.33-65.76-68.21-135.23-148.85
				c-69.47-80.64-59.53-95.52-59.53-122.8c0-27.3,2.47-67,2.47-67l1.29,1c-6.21,17.1,13.49,50.48,12.74,70.01
				c-0.73,19.22,8.12,42.28,21.59,51.44c14.53,20.69,109.06,152.02,172.47,163.36c7.6,13.87,43.3,84.48,1.6,117.57l-0.87,0.96
				C1344.85,1987.45,1298.91,2027.76,1298.91,2027.76z"
                className="color91a399 svgShape"
              ></path>
              <path
                fill="#bf5d52"
                d="M842.84,1630.61c-1.1,0.14-2.2,0.25-3.3,0.37c-76.53,7.72-148.87-26.84-148.87-26.84
				c-1.04-6.16-1.89-12.02-2.6-17.62c0.17,0.08,0.37,0.17,0.54,0.25c47.14,22.33,136.44,43.42,148.85-4.96
				c12.41-48.38,6.19-65.74-35.97-60.78c-42.18,4.96-84.36-45.89-84.36-45.89c100.9,63.68,122.4,2.47,122.4,2.47
				s25.64,14.9,32.26,39.69C878.38,1542.11,842.84,1630.61,842.84,1630.61z"
                className="colorbf5d52 svgShape"
              ></path>
              <path
                fill="#91a399"
                d="M843.65,1633.08c-35.52,84.58-108.31,169.15-165.35,161.86c-9.32-1.18-18.23-4.82-26.49-11.35
				c-5.92-4.67-9.4-11.62-10.96-20.13c0.21,0.23,0.41,0.46,0.62,0.69c57.06,65.74,184.82-110.39,129.02-119.08
				c-55.82-8.68-80.64-33.5-80.64-33.5s0.79-2.49,2.55-6.66c11.37,5.09,77.53,33.07,147.15,26.05L843.65,1633.08z"
                className="color91a399 svgShape"
              ></path>
              <path
                fill="#e2a383"
                d="M836.22,1427.17c-5.79,43.82,3.3,50.44,3.3,50.44s-21.5,61.21-122.4-2.47c0,0-15.21-14.49-39.33-37.88
				c0.29-0.66,0.46-1,0.46-1s63.68,51.27,105.03,47.97c41.35-3.3,35.56-31.43,40.52-64.51c4.96-33.07,12.41-88.49,12.41-88.49
				c0.35-0.5,0.69-0.96,1.06-1.41c1.02,0.81,2.05,1.83,3.07,3.07c6.58,7.95,3.65,35.72-0.75,69.1
				C838.52,1410.11,837.36,1418.58,836.22,1427.17z"
                className="colore2a383 svgShape"
              ></path>
              <path
                fill="#c97881"
                d="M1348.54,2173.51c-21.52,22.75-54.32,30.87-81.93,33.27c-28.09,2.47-50.81-1-50.81-1
				c-76.92,28.52-145.13,0-145.13,0c-9.34,2.76-18.29,4.96-26.8,6.7c-71.76,14.61-113.38-4.23-113.38-4.23
				c-8.26,2.35-16.13,4.28-23.64,5.85c-71.51,14.94-109.08-3.36-109.08-3.36c-89.32,22.33-112.88-12.41-112.88-12.41
				c-5.75-0.69-11.11-1.52-16.13-2.49c-46.87-8.95-62.75-28.81-68.06-40.1c0.44-3.53,1.22-7.1,2.32-10.75
				c0,0,26.05,23.56,52.1,23.56s40.94-59.54,40.94-59.54s14.89,49.62,8.67,71.95c-6.19,22.33,55.82,29.77,73.19,11.17
				c17.37-18.62,21.09-85.6,21.09-85.6s22.32,71.96,19.85,85.6c-2.49,13.64,74.43,13.64,95.52-2.49
				c21.09-16.13,17.36-74.43,17.36-74.43s21.1,65.74,21.1,78.15c0,12.41,81.85,6.19,94.26-2.49c12.41-8.68,18.61-80.62,18.61-80.62
				s14.89,52.1,21.08,76.92c6.21,24.8,100.5,16.11,106.69,4.96c6.19-11.17,8.68-90.56,8.68-90.56s17.37,63.26,26.05,81.88
				c8.68,18.6,81.87,9.92,79.39-19.86c-2.47-29.77-24.8-74.43-28.52-111.65c-3.72-37.2-455.26-104.2-654.97,3.72
				c-2.08,1.12-4.13,2.2-6.1,3.2c-0.06-1-0.12-1.54-0.12-1.54s76.3-77.94,340.52-76.08c264.22,1.87,340.5,46.52,340.5,46.52
				C1297.67,2097.85,1348.54,2173.51,1348.54,2173.51z"
                className="colorc97881 svgShape"
              ></path>
              <path
                fill="#e2a383"
                d="M1274.63,2298.32c-17.83,5.27-44.3,27.03-106.42,38.01c-64.04,11.29-94.92-16.44-113-23.27l5.15-2.2
				c-0.15-5.75,0.96-0.84,0.52-6.36c10.54,7.59,25.56,16.73,65.74,21.49c30.19,3.58,78.63-6.74,96.92-21.49
				c26.13-21.07,25.3-74.78-23.65-68.65c-73.52,9.19-151.61-9.2-151.61-9.2c-0.23-0.27-0.44-0.54-0.64-0.81
				c-2.06-7.72-3.53-12.16-3.53-12.16l-0.25-1.22c8.51-1.74,17.46-3.94,26.8-6.7c0,0,68.21,28.52,145.13,0c0,0,22.71,3.47,50.81,1
				l0.12,1.27c-3.03,25.9-3.18,57.87,6.91,86.39L1274.63,2298.32z"
                className="colore2a383 svgShape"
              ></path>
              <path
                fill="#91a399"
                d="M1297.23,2428.88c-2.05,2.06-5.75,4.57-10.84,7.27c-36.95,19.7-146.56,50.69-220.58,13.91
				c-2.28-1.14-4.53-2.33-6.73-3.59c-3.74-2.14-7.35-7.6-10.61-15.15c111.36,46.06,234.04,4.42,237.44-44
				c3.42-48.59-19.77-48.85-115.08-34.1c-75.76,11.73-129.57-31.55-129.57-31.55c-1.08-0.83-2.08-1.68-3.05-2.51
				c0.5-1.04,1.06-1.99,1.68-2.8c4.11-5.54,8.91-5.75,15.34-3.32c18.08,6.83,48.95,34.56,113,23.27
				c62.12-10.98,88.59-32.75,106.42-38.01c7.08-2.08,12.79-1.58,18.85,3.22C1314.79,2318.46,1314.69,2411.26,1297.23,2428.88z"
                className="color91a399 svgShape"
              ></path>
              <path
                fill="#c97881"
                d="M1291.9,2490.51c-20.63,10.79-61.56,27.73-121.26,32.28c-57.27,4.36-87.1-10.17-100.94-20.88l-0.39-5.02
				c1.6,0.56,3.32,1.25,5.17,2.1c78.42,35.81,201.18-13.64,197.77-28.13c-3.42-14.49-58.94,8.22-121.05,6.83
				c-62.31-1.4-80.14-16.21-80.14-16.21c-1.52-3.03-1.54-6.06-0.31-9.09c73.87,33.07,179.47,3.01,215.62-16.25l3.15,0.14
				L1291.9,2490.51z"
                className="colorc97881 svgShape"
              ></path>
              <path
                fill="#bf5d52"
                d="M1314.27,2663.36c-3.09,126.62,0.85,150.34-151.53,162.78c-94.17,7.68-127.39-19.45-132.87-51.39
				c19.99,29.74,240.91,39.04,251.68-57.91c6.09-54.79,9.01-128.01-6.28-160.48c-12.76-27.08-37.44-18.17-90.47-18.17
				c-118.36,0-127.76-40.93-127.76-40.93s1.74-0.91,4.94-2.51c1.62,1.85,4.15,4.38,7.74,7.14c13.84,10.71,43.67,25.24,100.94,20.88
				c59.7-4.55,100.63-21.5,121.26-32.28c10.3-5.38,15.55-9.22,15.55-9.22S1316.91,2553.88,1314.27,2663.36z"
                className="colorbf5d52 svgShape"
              ></path>
              <path
                fill="#c97881"
                d="M1219 2612.44c-1.78 3.18-3.92 5.63-6.43 7-16.25 8.95-50.17-10.25-50.17-10.25l-1.43-.1c-.06-.12-.12-.23-.17-.35 8.74-4.61 14.34-14.14 13.45-24.64-.6-6.85-3.84-12.81-8.63-17l.12-.12c0 0 20.59-28.87 42.49-19.41.64.27 1.27.6 1.87.95v.02c0 0-24.22 5.07-22.52 32.67C1188.9 2602.85 1201.63 2612.71 1219 2612.44zM1081.54 2612.44c1.78 3.18 3.92 5.63 6.43 7 16.25 8.95 50.17-10.25 50.17-10.25l1.43-.1c.06-.12.12-.23.17-.35-8.74-4.61-14.34-14.14-13.45-24.64.6-6.85 3.84-12.81 8.63-17l-.12-.12c0 0-20.59-28.87-42.49-19.41-.64.27-1.27.6-1.87.95v.02c0 0 24.22 5.07 22.52 32.67C1111.64 2602.85 1098.91 2612.71 1081.54 2612.44zM930.32 2615.52c-1.17 3.45-2.84 6.25-5.06 8.05-14.37 11.73-51.2-1.05-51.2-1.05l-1.42.16c-.08-.1-.16-.21-.23-.31 7.77-6.11 11.56-16.49 8.79-26.66-1.82-6.63-6.08-11.91-11.55-15.17l.09-.13c0 0 15.06-32.1 38.3-26.74.67.15 1.36.36 2.01.59l0 .02c0 0-22.91 9.35-16.27 36.19C898.98 2611.51 913.28 2618.91 930.32 2615.52zM795.1 2640.27c2.32 2.81 4.87 4.84 7.58 5.73 17.59 5.88 47.51-19.11 47.51-19.11l1.39-.35c.04-.12.07-.25.11-.37-9.43-2.96-16.65-11.33-17.67-21.82-.64-6.85 1.47-13.29 5.42-18.28l-.13-.09c0 0-25.45-24.69-45.29-11.44-.58.38-1.15.82-1.67 1.27l0 .02c0 0 24.73.63 28.03 28.08C822.99 2625.42 812.23 2637.41 795.1 2640.27z"
                className="colorc97881 svgShape"
              ></path>
              <path
                fill="#e2a383"
                d="M907.48,2319.85c-17.1,11.37-44.23,38.96-104.76,37.26c-62.08-1.76-91.5-18.91-109.97-21.94
				c0.42-2.72,0.75-5.46,1-8.22c0.89,0.25,1.79,0.52,2.7,0.79c133.97,40.52,187.71-9.92,186.9-42.99
				c-0.83-33.09,15.71-57.06-78.57-51.27c-94.28,5.79-124.04-16.56-124.04-16.56c-1.79-1.14-3.53-2.26-5.19-3.36
				c-3.88-11.04-6.81-17.71-6.81-17.71v-0.02c5.02,0.96,10.38,1.79,16.13,2.49c0,0,23.56,34.73,112.88,12.41
				c0,0,37.57,18.29,109.08,3.36C906.23,2221.3,902.17,2272.23,907.48,2319.85z"
                className="colore2a383 svgShape"
              ></path>
              <path
                fill="#91a399"
                d="M926.78,2450.14c-2.01,1.58-4.05,3.09-6.16,4.53c-69.39,48.24-185.82,31.86-222.74,17.5
				c-4.17-1.6-7.33-3.2-9.28-4.67c-2.39-1.79-4.71-4.71-6.87-8.49c35.41,10.75,233.02,26.22,232.21-42.78
				c-0.79-68.52-15.75-34.96-94.26-37.22c-86.83-2.47-137.29-42.16-137.29-42.16c-0.21-0.42-0.39-0.85-0.54-1.27
				c3.26-1.04,6.81-1.06,10.9-0.41c18.47,3.03,47.89,20.18,109.97,21.94c60.53,1.7,87.66-25.9,104.76-37.26
				c7.78-5.19,13.47-7,19.3-1.2C945.38,2337.26,944.14,2436.5,926.78,2450.14z"
                className="color91a399 svgShape"
              ></path>
              <path
                fill="#c97881"
                d="M924.13,2506.77c-12.23,12.6-39.62,31.14-96.6,35.16c-59.22,4.17-101.96-6.39-124.11-14.05l-0.77-6.79
				c1.81,0.17,3.88,0.5,6.21,1c102.54,22.33,187.71-2.49,191.03-17.37c3.3-14.9-2.49-19.86-61.21-10.75
				c-74.7,11.56-135.61-10.77-135.61-10.77c-3.49-3.43-5.29-6.77-5.58-10.01l0.39-1.02c36.91,14.36,153.35,30.74,222.74-17.5
				L924.13,2506.77z"
                className="colorc97881 svgShape"
              ></path>
              <path
                fill="#bf5d52"
                d="M879.64,2840.89c-95.17,6.19-130.81-0.83-149.37-37.28c130.98,38.88,259.92-11.42,236.61-50.79
				c-23.99-40.52-35.56-62.85-35.56-119.1c0-5.87,0.27-11.52,0.62-16.9c0.56-8.76,1.37-16.83,1.68-24.1
				c1.29-31.16-6.62-47.62-81.68-39.21c-103.37,11.58-162.92-24.8-162.92-24.8c0.15-2.06,0.41-4.11,0.81-6.12
				c2.89,1.29,7.45,3.18,13.6,5.29c22.15,7.66,64.89,18.22,124.11,14.05c56.98-4.01,84.36-22.56,96.6-35.16
				c6.68-6.87,8.84-11.98,8.84-11.98s17.37-2.47,18.6,75.68c1.25,78.15,6.93,117.9,29.77,145.13
				C1013.61,2754.06,1032.21,2830.97,879.64,2840.89z"
                className="colorbf5d52 svgShape"
              ></path>
              <path
                fill="#af465f"
                d="M603.24,297.95c0,0,0.04-0.02,0.13-0.04c-0.04,0.04-0.1,0.06-0.13,0.08
				C603.24,297.97,603.24,297.95,603.24,297.95z"
                className="coloraf465f svgShape"
              ></path>
              <path
                fill="#bf5d52"
                d="M803.67,229.95c-28.33,3.76-66.17,11.44-109.76,27c29.14-16.94,62.13-39.9,93.93-70.28
				c83.96-80.2,93.55-166.31,94.2-173.55c0.04-0.17,0.04-0.29,0.04-0.37c0.02-0.1,0.02-0.14,0.02-0.14S903.06,127.23,803.67,229.95z
				"
                className="colorbf5d52 svgShape"
              ></path>
              <path
                fill="#c97881"
                d="M880.52,18.38c-5.11,13.39-26.63,48.45-116.26,87.26C645.28,157.16,583.3,230.51,590.35,305.32
				c-13.7,7.99-27.67,16.81-41.74,26.53c-17.96-52.08,8.45-161.28,129.27-210.66c116.16-47.49,171.54-84.83,190.78-99.41
				c5.69-4.32,8.22-6.64,8.22-6.64l0.71,0.64L880.52,18.38z"
                className="colorc97881 svgShape"
              ></path>
              <path
                fill="#bf5d52"
                d="M352.58,530.16c-5.89,8.36-11.73,16.96-17.52,25.78c-6.87,10.46-13.28,20.86-19.26,31.16
				c-49.22,3.82-90.56-0.69-125.25-10.65c-143.06-41-173.32-174.48-177.47-197.11c-0.21-1.18-0.35-2.05-0.44-2.59
				c-0.02-0.19-0.04-0.33-0.06-0.44c-0.02-0.1-0.02-0.15-0.02-0.19c0.04,0.1,0.15,0.33,0.31,0.69
				C19.06,391.07,115.39,602.29,352.58,530.16z"
                className="colorbf5d52 svgShape"
              ></path>
              <path fill="#af465f" d="M12.91,376.87c0,0,0,0.02,0.02,0.04c0,0.02,0,0.02,0,0.04C12.91,376.93,12.91,376.89,12.91,376.87z" className="coloraf465f svgShape"></path>
              <path
                fill="#c97881"
                d="M452.71,411.29c-5.46,5.36-10.92,10.88-16.36,16.56c-79.31-56.62-170.96-19.51-284.87-4.65
				C51.02,436.32,19.76,389.8,13.74,378.49c4.75,7.95,32.28,40.46,154.83,15.03C293.53,367.59,386.66,338.47,452.71,411.29z"
                className="colorc97881 svgShape"
              ></path>
              <path
                fill="#bf5d52"
                d="M503.57,365.68c-7.64,6.21-15.28,12.72-22.94,19.53l-0.42-0.46c0,0-40.56-57.08-112.94-67.79l0.06-0.42
				c0-5.9,0.56-11.67,1.62-17.27c2.24,0.1,68.75,3.47,111.22,53.66c0,0-20.55-56.23,1.25-125.45c7.64,1.89,14.92,4.77,21.65,8.45
				l0.23,0.08C478.54,304.57,501.14,360.08,503.57,365.68z"
                className="colorbf5d52 svgShape"
              ></path>
              <path
                fill="#38212a"
                d="M578.88,1279.53c-1.85,0-3.65-0.78-4.93-2.12c-5.91-6.17-35.39-38.25-38.19-66.7
					c-0.05-0.32-0.08-0.63-0.1-0.97c-0.3-3.72,2.47-6.98,6.18-7.28c3.69-0.31,6.98,2.47,7.28,6.18c0.03,0.17,0.05,0.42,0.07,0.59
					c1.86,19.82,22.3,46.01,34.26,58.57c1.34,1.23,2.18,3,2.18,4.97C585.64,1276.51,582.61,1279.53,578.88,1279.53z"
                className="color38212a svgShape"
              ></path>
              <path
                fill="#38212a"
                d="M578.85,1279.51c-0.47,0-0.95-0.05-1.43-0.15c-4-0.86-98.54-22.59-155.78-158.29
					c-30.03-71.15-44.32-161.03-42.46-267.16c1.52-87.09,22.89-170.11,63.51-246.75c32.45-61.23,77.19-118.51,132.96-170.27
					c94.84-88.01,190.32-130.18,191.27-130.6c3.42-1.49,7.4,0.07,8.89,3.49c1.49,3.42-0.07,7.4-3.49,8.89
					c-0.93,0.41-94.63,41.85-187.81,128.42c-85.66,79.59-188.47,214.81-191.83,407.06c-1.82,104.23,12.11,192.27,41.4,261.67
					c28.47,67.5,66.56,104.72,93.49,124.07c29.37,21.09,51.74,26.07,52.68,26.27c3.65,0.78,5.97,4.37,5.18,8.02
					C584.77,1277.35,581.97,1279.51,578.85,1279.51z"
                className="color38212a svgShape"
              ></path>
              <path
                fill="#38212a"
                d="M715.58,1275.09c-29.91,0-57.87-3.54-83.49-10.58c-35.67-9.77-67.31-26.43-94.03-49.53
					c-70.08-60.45-83.7-143.74-84.25-147.25c-0.57-3.69,1.95-7.14,5.64-7.71c3.69-0.58,7.14,1.95,7.71,5.64
					c0.18,1.12,13.65,82.1,79.73,139.1c25.19,21.77,55.06,37.49,88.78,46.72c31.2,8.58,66.15,11.71,104.07,9.33
					c-19.04-17.69-55.26-57.19-80.26-120.38c-20.26-51.2-28.79-107.35-25.37-166.89c4.26-74.11,27.16-153.68,68.07-236.5
					c1.65-3.34,5.7-4.72,9.05-3.06c3.34,1.65,4.72,5.7,3.06,9.05c-90.43,183.09-73.04,314.08-42.53,391.72
					c33.04,84.08,88.18,125.64,88.74,126.04c2.24,1.66,3.23,4.53,2.49,7.22c-0.74,2.69-3.05,4.65-5.83,4.93
					C742.92,1274.37,729.05,1275.09,715.58,1275.09z"
                className="color38212a svgShape"
              ></path>
              <path
                fill="#38212a"
                d="M749.89,944.09c-2.41,0-4.7-1.3-5.91-3.49c-33.57-60.78-47.83-128.43-42.41-201.07
					c9.9-133.18,83.72-239.14,84.46-240.2c2.15-3.05,6.36-3.77,9.41-1.62c3.05,2.15,3.78,6.36,1.63,9.41
					c-0.72,1.03-72.41,104.08-82.03,233.41c-4.61,61.76,5.52,119.72,30.15,172.66c5.52-36.73,25.75-108.75,99.43-172.83
					c2.82-2.45,7.08-2.15,9.53,0.66c2.45,2.81,2.15,7.08-0.66,9.53c-97.35,84.66-96.86,185.67-96.84,186.68
					c0.05,3.1-2.02,5.84-5.01,6.63C751.05,944.01,750.46,944.09,749.89,944.09z"
                className="color38212a svgShape"
              ></path>
              <path
                fill="#38212a"
                d="M988.87,957.24c-1.38,0-2.76-0.42-3.95-1.28c-70.57-50.92-117.99-121.31-140.94-209.2
					c-31.73-121.52-5.31-231.75-4.17-236.38c0.89-3.62,4.55-5.84,8.17-4.94c3.62,0.89,5.84,4.55,4.95,8.17
					c-0.27,1.1-26.71,111.66,4.13,229.74c19.6,75.09,57.68,136.9,113.36,184.12c-9.47-22.99-22.21-61.06-30.87-114.87
					c-17.86-110.91-10.86-237.63,20.83-376.65c0.83-3.64,4.45-5.91,8.08-5.08c3.64,0.83,5.91,4.45,5.08,8.09
					c-31.29,137.32-38.25,262.31-20.66,371.5c14.64,90.91,41.51,136.08,41.78,136.53c1.66,2.75,1.16,6.28-1.2,8.46
					C992.17,956.64,990.52,957.24,988.87,957.24z"
                className="color38212a svgShape"
              ></path>
              <path
                fill="#38212a"
                d="M1111.27,960.53c-68.99,0-85.37-6.61-91.5-11.82c-22.35-19.04-73.82-122.45-79.61-134.18
					c-0.03-0.07-0.07-0.13-0.1-0.2c-1.68-3.32-0.35-7.39,2.96-9.08c3.31-1.69,7.37-0.39,9.06,2.92c0,0,0.08,0.16,0.22,0.47
					c19.18,38.8,59.72,115.73,76.22,129.79c2.8,2.38,18.8,10.02,106.94,8.36c38.91-0.74,76.47-3.01,89.61-3.87
					c3.86-16.45,16.53-73.77,23.23-143.59c8.14-84.79,8.62-202.04-35.27-279.11c-1.85-3.24-0.72-7.37,2.53-9.21
					c3.25-1.84,7.37-0.71,9.21,2.53c45.64,80.14,45.3,200.35,36.98,287.08c-8.02,83.67-24.55,149.71-24.72,150.36
					c-0.71,2.83-3.16,4.87-6.07,5.08c-0.46,0.03-46.77,3.31-95.19,4.23C1126.94,960.45,1118.79,960.53,1111.27,960.53z"
                className="color38212a svgShape"
              ></path>
              <path
                fill="#38212a"
                d="M1346.51,910.36c-0.99,0-1.99-0.22-2.93-0.67c-3.32-1.6-81.44-39.94-94.23-108.39
					c-0.69-3.67,1.73-7.19,5.4-7.88c3.66-0.68,7.19,1.73,7.88,5.4c7.01,37.5,37.31,65.76,60.16,82.23
					c-15.67-35.96-17.9-91.62-17.46-148.23c0.09-13.58,0.34-26.93,0.59-39.83c0.28-14.49,0.53-28.18,0.53-40.66
					c0-77.1-28.47-111.09-28.76-111.43c-2.43-2.82-2.12-7.08,0.69-9.52c2.81-2.44,7.05-2.16,9.5,0.65
					c1.31,1.5,32.08,37.63,32.08,120.3c0,12.61-0.26,26.36-0.54,40.91c-0.24,12.87-0.49,26.17-0.58,39.67
					c-0.53,67.9,2.87,140.67,32.05,165.55c2.58,2.2,3.13,5.98,1.28,8.83C1350.89,909.26,1348.73,910.36,1346.51,910.36z"
                className="color38212a svgShape"
              ></path>
              <path
                fill="#38212a"
                d="M1379.08,963.21c-0.77,0-1.56-0.13-2.32-0.41c-3.07-1.12-4.9-4.29-4.33-7.51
					c22.25-126.41-50.26-203.39-65.02-217.54c-1.36-1.32-2.13-2-2.22-2.08c-2.83-2.42-3.16-6.68-0.75-9.52
					c2.42-2.84,6.67-3.18,9.51-0.76c0.11,0.09,1.13,0.97,2.85,2.65c14.07,13.49,78.05,81.23,73.07,192.31
					c7.66-16.48,16.86-38.27,25.07-63.18c22.91-69.35,39.95-167.95-8.95-243.9c-2.02-3.14-1.11-7.32,2.02-9.33
					c3.13-2.02,7.32-1.11,9.33,2.02c51.79,80.43,34.25,183.31,10.42,255.45c-18.78,56.92-41.88,96.79-42.86,98.46
					C1383.68,961.98,1381.43,963.21,1379.08,963.21z"
                className="color38212a svgShape"
              ></path>
              <path
                fill="#38212a"
                d="M1358.45,1253.02c-3.06,0-5.75-2.06-6.53-5.03c-0.79-3,0.56-6.15,3.28-7.65
					c0.51-0.29,55.53-33.02,85.95-181.51c30.23-147.61-23.08-193.72-23.62-194.17c-2.86-2.37-3.29-6.61-0.95-9.49
					c2.35-2.88,6.55-3.33,9.45-1.01c2.48,2,60.44,50.69,28.36,207.38c-20.98,102.38-53.37,151.96-73.8,174.3
					c6.51-1.66,14.14-4.08,22.48-7.6c42.19-17.73,98.87-61.29,129.39-168.06c50.73-177.57,22.73-263.03,22.44-263.87
					c-1.09-3.18,0.32-6.68,3.31-8.21c3-1.53,6.65-0.63,8.59,2.11c0.94,1.33,23.15,33.11,35.41,77.69
					c13.77,50.07,9.13,95.99-13.32,134.33c6.66-4.9,14.04-12.03,20.85-22.35c18.82-28.51,35.84-86.53,10.08-201.05
					C1594.7,667.24,1481.04,514.06,1337,397.68c-166.52-134.53-340.6-194.49-477.62-164.49c-0.6,0.13-1.22,0.18-1.82,0.15
					c-0.19-0.01-20.15-1.03-53,3.31c-49.12,6.53-125.58,24.76-210.8,74.51c-29.52,17.22-58.43,37.32-85.91,59.76
					c-7.54,6.13-15.18,12.63-22.73,19.34c-15.02,13.34-29.79,27.56-43.9,42.27c-35.91,37.44-69.73,80.21-100.52,127.12
					c-6.59,10.03-13,20.41-19.06,30.85c-74.78,128.8-91.11,259.26-48.56,387.74c36.63,110.66,105.47,178.99,106.16,179.67
					c2.66,2.61,2.71,6.89,0.1,9.55c-2.61,2.66-6.88,2.71-9.55,0.1c-2.92-2.85-71.83-71.15-109.54-185.07
					c-19.41-58.6-26.87-118.78-22.18-178.85c5.76-73.71,29.95-147.7,71.87-219.92c6.19-10.65,12.73-21.25,19.45-31.48
					c31.24-47.6,65.57-91.02,102.06-129.06c14.35-14.97,29.38-29.45,44.68-43.02c7.69-6.84,15.49-13.47,23.17-19.72
					c28.02-22.87,57.5-43.38,87.63-60.95c87.15-50.88,165.47-69.54,215.83-76.23c30.54-4.04,50.1-3.62,54.57-3.45
					c75.17-16.25,158.81-7.48,248.61,26.07c78.68,29.4,161.51,78.26,239.53,141.29c146.23,118.15,261.77,274.36,287.51,388.71
					c21.62,96.09,17.46,167.42-12.36,212.02c-21.86,32.7-49.61,37.82-50.78,38.02c-2.79,0.48-5.58-0.83-6.99-3.27
					c-1.42-2.45-1.16-5.52,0.65-7.7c32.39-39.01,41.06-87.15,25.78-143.08c-3.98-14.55-9.15-27.78-14.23-38.89
					c3.94,42.43,2.56,118.33-29.61,230.92c-31.98,111.92-92.23,157.92-137.14,176.8c-28.21,11.87-48.89,12.3-49.76,12.32
					C1358.52,1253.02,1358.49,1253.02,1358.45,1253.02z"
                className="color38212a svgShape"
              ></path>
              <path
                fill="#38212a"
                d="M534.44 1342.4c-42.14 0-91.48-16.64-125.54-44.53-24.29-19.89-52.06-54.36-46.36-105.61 1.29-11.49 3.79-22.02 7.45-31.31 13.72-34.73 40.61-45.4 55.42-48.68 3.64-.8 7.25 1.49 8.05 5.14.8 3.64-1.5 7.25-5.14 8.05-12.19 2.69-34.35 11.53-45.77 40.44-3.22 8.18-5.44 17.55-6.59 27.85-5.02 45.21 19.79 75.89 41.5 93.66 41.11 33.66 108.61 50.16 150.48 36.79 31.44-10.04 45.86-27.48 52.42-40.34 4.21-8.25 6.55-17.26 6.77-26.05.02-.7.04-1.38.02-2.06-.09-3.73 2.86-6.82 6.59-6.91 3.72-.08 6.82 2.86 6.91 6.59.02.9 0 1.8-.02 2.73-.27 10.79-3.12 21.8-8.24 31.84-7.73 15.15-24.47 35.62-60.35 47.07C560.75 1340.69 547.96 1342.4 534.44 1342.4zM90.69 1174.25c-2.6 0-5.08-1.51-6.19-4.05-23.76-54.4-46.53-152.01-39.18-262.83 6.01-90.66 35.21-222.43 140.19-335.41.18-.2.35-.39.54-.59l.15-.16c2.52-2.75 6.79-2.93 9.54-.41 2.75 2.52 2.93 6.8.4 9.54l-.42.46c-.04.05-.18.2-.22.25C20.25 769.55 42 1039.14 96.88 1164.79c1.49 3.42-.07 7.4-3.49 8.89C92.51 1174.07 91.59 1174.25 90.69 1174.25z"
                className="color38212a svgShape"
              ></path>
              <path
                fill="#38212a"
                d="M260.36,1529.22c-50.15,0-109.26-28.98-125.25-80.62c-0.86-2.79,0.16-5.81,2.54-7.5
					c2.38-1.69,5.57-1.66,7.92,0.07c0.47,0.35,48.01,34.88,83.99,24.6c14.32-4.09,25.18-15.14,32.26-32.84
					c16.94-42.34-26.82-86.04-77.49-136.63c-38.98-38.93-79.3-79.18-99.78-126.03c-1.49-3.42,0.07-7.4,3.48-8.89
					c3.42-1.49,7.4,0.07,8.89,3.48c19.45,44.5,58.85,83.84,96.94,121.88c51.81,51.73,100.74,100.59,80.49,151.21
					c-8.72,21.8-22.56,35.53-41.13,40.82c-26.73,7.61-56.99-4.4-76.2-14.69c22.95,36.29,72.82,54.8,113.08,51.22
					c43.47-3.86,71.49-31.01,76.87-74.48c8.11-65.61-23.62-90.89-63.79-122.89c-17.75-14.15-36.11-28.77-53.23-48.4
					c-13.94-16.02-24.97-33.04-33.75-52.05c-52.71-114.21,60.69-236.58,65.55-241.74c0.05-0.06,0.11-0.11,0.16-0.16
					c2.61-2.66,6.94-2.75,9.6-0.14c2.66,2.61,2.75,6.83,0.14,9.49l-0.14,0.14c-5.46,5.82-111.77,121.18-63.05,226.75
					c8.23,17.83,18.59,33.8,31.67,48.84c16.3,18.7,34.18,32.94,51.46,46.71c40.02,31.88,77.81,61.99,68.78,135.11
					c-6.14,49.61-39.44,81.86-89.08,86.28C267.71,1529.06,264.06,1529.22,260.36,1529.22z"
                className="color38212a svgShape"
              ></path>
              <path
                fill="#38212a"
                d="M234.59 1272.24c-.3 0-.59-.02-.9-.06-85.31-11.28-145.6-96.57-148.49-100.74-1.87-2.59-1.68-6.22.6-8.61 2.58-2.7 6.85-2.8 9.55-.22.34.32.66.7.93 1.1 2.48 3.58 59.52 84.54 139.18 95.07 3.7.49 6.3 3.88 5.81 7.58C240.83 1269.77 237.93 1272.24 234.59 1272.24zM367.32 323.28c-3.73 0-6.75-3.02-6.75-6.75 0-54.34 44.21-98.55 98.55-98.55 16.51 0 32.83 4.16 47.2 12.02 3.27 1.79 4.47 5.9 2.68 9.17-1.79 3.27-5.9 4.47-9.17 2.68-12.38-6.78-26.46-10.36-40.71-10.36-46.89 0-85.04 38.15-85.04 85.04C374.07 320.26 371.05 323.28 367.32 323.28z"
                className="color38212a svgShape"
              ></path>
              <path
                fill="#38212a"
                d="M282.02,595.19c-33.67,0-64.93-4.1-93.34-12.25c-83.05-23.81-128.35-78.51-151.72-120.21
					c-25.27-45.08-30.89-84.11-31.11-85.75c-0.34-2.42,0.66-4.83,2.61-6.31c1.95-1.48,4.54-1.78,6.78-0.81
					c59.23,25.87,117.38,3.64,184.71-22.1c30.16-11.53,61.35-23.45,96.15-32.8c24.48-6.57,48.76-8.15,72.15-4.69
					c74.38,11,115.73,68.13,117.46,70.56c2.16,3.04,1.45,7.26-1.59,9.42c-3.04,2.16-7.25,1.45-9.41-1.59l0,0
					c-0.39-0.55-39.9-54.89-108.43-65.03c-21.56-3.19-43.99-1.71-66.67,4.38c-34.13,9.17-64.99,20.97-94.83,32.37
					c-65.82,25.16-123.22,47.09-183.19,26.45c3.44,14.58,11.28,41.1,27.4,69.74c32.2,57.19,80.45,95.34,143.42,113.38
					c36.3,10.42,77.64,13.92,122.87,10.41c0.25-0.03,0.63-0.05,1-0.08l0.8-0.07c3.68-0.34,7,2.4,7.33,6.12
					c0.33,3.72-2.41,7-6.12,7.33l-1.86,0.15C304.71,594.74,293.23,595.19,282.02,595.19z"
                className="color38212a svgShape"
              ></path>
              <path
                fill="#38212a"
                d="M436.78 434.91c-1.23 0-2.47-.33-3.59-1.04-.21-.13-.41-.27-.61-.42-.05-.04-.11-.07-.16-.11-59.28-42.32-127.58-29.89-206.65-15.49-23.51 4.28-47.82 8.7-73.42 12.04C34.37 445.29 7.36 381.3 6.27 378.57c-1.39-3.46.3-7.39 3.76-8.78 3.45-1.38 7.37.29 8.76 3.73.99 2.39 24.95 56.93 131.8 42.99 25.27-3.3 49.41-7.69 72.75-11.94 82.05-14.93 152.92-27.83 216.83 17.72.12.08.24.17.36.25 3.04 2.02 3.93 6.11 1.97 9.21C441.22 433.79 439.03 434.91 436.78 434.91zM497.72 369.16c0 0-.17-.31-.41-.94-3.02-7.01-25.8-64.07-.37-134.51 11-30.52 29.62-59.33 55.32-85.65 55.94-57.28 108.87-67.55 164.91-78.42 49.58-9.62 100.85-19.56 161-62.53 1.88-1.34 4.32-1.63 6.46-.76 2.14.87 3.69 2.77 4.11 5.05.22 1.22 5.37 30.32-1.94 72.52-6.72 38.79-25.75 96.44-78.29 150.73-.32.34-.66.7-1.03 1.06-2.64 2.64-6.91 2.64-9.55 0-2.64-2.64-2.64-6.91 0-9.55.27-.27.52-.53.77-.8 50.05-51.73 68.23-106.39 74.69-143.16 4.44-25.3 4.11-45.85 3.25-57.6-58.69 39.26-110.72 49.35-156.9 58.31-56.25 10.91-104.83 20.33-157.82 74.6-24.34 24.92-41.93 52.11-52.28 80.8-23.86 66.06-2.41 118.88.11 124.69.05.11.09.22.13.33-.05-.12-.09-.2-.09-.2L497.72 369.16z"
                className="color38212a svgShape"
              ></path>
              <path
                fill="#38212a"
                d="M590.59 314.6c-3.39 0-6.31-2.55-6.7-6-.11-.94-.21-1.89-.28-2.81-7.43-78.88 57.43-154.15 177.97-206.35 107.7-46.63 113.76-87.09 113.8-87.49.29-3.72 3.5-6.43 7.25-6.15 3.72.29 6.5 3.6 6.21 7.32-.15 1.94-4.99 48.1-121.89 98.71-114.82 49.72-176.73 120.01-169.88 192.85.07.9.15 1.65.24 2.4.42 3.71-2.24 7.05-5.95 7.47C591.1 314.59 590.84 314.6 590.59 314.6zM1314.91 1358.47c-2.08 0-4.13-.96-5.46-2.76-2.2-3.01-1.55-7.24 1.46-9.44l.68-.48c75.87-52.7 86.7-108.12 87.4-112.23.37-3.38 3.23-6.02 6.71-6.02 3.73 0 6.75 3.02 6.75 6.75 0 .36-.05.9-.11 1.26-1.05 6.53-12.61 65.45-92.95 121.24l-.52.37C1317.69 1358.05 1316.29 1358.47 1314.91 1358.47zM952.31 1412.76c-21.84 0-43.4-.4-64.25-1.21-16.68-.63-32.91-1.55-48.21-2.74-3.72-.29-6.5-3.54-6.21-7.26.29-3.72 3.54-6.53 7.25-6.21 15.12 1.17 31.17 2.08 47.68 2.71 66.09 2.56 139.3.99 206.15-4.44 17.24-1.4 33.88-3.04 49.46-4.88 3.74-.42 7.06 2.22 7.5 5.92.44 3.7-2.21 7.06-5.92 7.5-15.75 1.86-32.55 3.51-49.95 4.93C1049.54 1410.83 1000.23 1412.76 952.31 1412.76zM687.48 1362.81c-1.44 0-2.89-.46-4.12-1.4-.29-.23-.59-.46-.88-.7-31.48-24.73-56.97-62.71-61.77-70.08-.73-1.1-1.12-1.73-1.12-1.73-1.96-3.17-.98-7.34 2.19-9.3 3.17-1.96 7.33-.99 9.29 2.18.04.06.34.55.92 1.41 4.64 7.13 29.07 43.54 58.91 66.96.07.05.13.1.19.16.17.14.34.27.51.41 2.95 2.28 3.5 6.52 1.23 9.47C691.5 1361.91 689.5 1362.81 687.48 1362.81z"
                className="color38212a svgShape"
              ></path>
              <path
                fill="#38212a"
                d="M1000.31 1467.71c-3.55 0-6.53-2.77-6.74-6.36-.22-3.72 2.63-6.92 6.35-7.13 9.8-.57 19.2-2.18 27.95-4.78 43.26-12.92 59.15-46.97 61.11-51.55.16-.43.25-.64.25-.64 1.54-3.37 5.53-4.92 8.92-3.41 3.38 1.51 4.94 5.41 3.46 8.81-.05.12-.07.21-.12.33-1.91 4.52-20.05 44.55-69.76 59.4-9.75 2.91-20.19 4.7-31.03 5.33C1000.57 1467.7 1000.44 1467.71 1000.31 1467.71zM975.55 1467.15c-.23 0-.46-.01-.69-.03-8.38-.85-16.49-2.41-24.11-4.63-46.77-13.45-65.29-47.98-68.52-54.77-.56-1.12-.84-1.82-.84-1.82-1.36-3.46.31-7.4 3.77-8.78 3.44-1.38 7.34.26 8.74 3.68.04.1.19.44.46.99 2.86 5.99 18.91 35.87 60.14 47.73 6.86 2 14.16 3.4 21.72 4.17 3.71.38 6.41 3.69 6.04 7.4C981.9 1464.56 978.97 1467.15 975.55 1467.15z"
                className="color38212a svgShape"
              ></path>
              <path
                fill="#38212a"
                d="M987.46,1511.03c-16.71,0-30.31-13.61-30.31-30.33c0-10.72,5.74-20.73,14.98-26.13
					c4.57-2.73,9.89-4.18,15.33-4.18c5.9,0,11.62,1.7,16.54,4.91c8.64,5.6,13.8,15.1,13.8,25.4
					C1017.8,1497.42,1004.19,1511.03,987.46,1511.03z M987.46,1463.89c-3.01,0-5.93,0.8-8.46,2.31c-5.17,3.02-8.34,8.56-8.34,14.5
					c0,9.28,7.54,16.83,16.81,16.83c9.28,0,16.83-7.55,16.83-16.83c0-5.71-2.86-10.97-7.65-14.07c-0.01-0.01-0.02-0.01-0.02-0.02
					C993.9,1464.83,990.74,1463.89,987.46,1463.89z"
                className="color38212a svgShape"
              ></path>
              <path
                fill="#38212a"
                d="M931.19,1572.53c-10.44,0-22.07-9.39-26.65-13.5c-5.09-4.56-21.66-20.79-21.19-38.04
					c0.57-20.62,50.08-59.04,65.24-70.32c2.99-2.23,7.22-1.61,9.45,1.39c2.23,2.99,1.61,7.22-1.39,9.45
					c-28.55,21.25-59.54,50.18-59.8,59.85c-0.2,7.37,6.51,18.47,16.71,27.61c7.55,6.76,14.62,10.12,17.78,10.05
					c9.18-0.36,34.98-19.31,53.71-55.79c1.7-3.32,5.78-4.63,9.09-2.92c3.32,1.7,4.63,5.78,2.92,9.09
					c-19.87,38.69-48.75,62.47-65.2,63.11C931.64,1572.53,931.41,1572.53,931.19,1572.53z"
                className="color38212a svgShape"
              ></path>
              <path
                fill="#38212a"
                d="M1037.48,1573.35c-19.37,0-41.83-27.52-54.01-44.77c-0.72-1.02-1.11-1.6-1.11-1.6
					c-2.06-3.11-1.21-7.3,1.89-9.36c3.11-2.06,7.29-1.22,9.35,1.88l0,0c0.03,0.04,0.34,0.5,0.89,1.28
					c17.28,24.49,35.87,40.83,44.24,38.93c2.42-0.56,5.07-1.42,7.88-2.56c20.56-8.21,40.84-25.98,41.75-36.56
					c0.33-3.88-5.57-15.76-23.18-32.58c-15.64-14.94-30.29-23.88-36.13-24.72c-3.69-0.53-6.26-3.95-5.73-7.64
					c0.53-3.69,3.96-6.25,7.64-5.73c12.05,1.73,30.99,16.34,43.54,28.32c10.71,10.23,28.51,29.48,27.31,43.5
					c-1.71,19.93-30.37,40.03-50.17,47.94c-3.43,1.39-6.77,2.46-9.88,3.18C1040.37,1573.2,1038.93,1573.35,1037.48,1573.35z"
                className="color38212a svgShape"
              ></path>
              <path
                fill="#38212a"
                d="M929.22,1623.42c-7.43,0-14.6-1.91-21.03-5.71c-8.64-5.08-14.1-12.27-16.24-21.36
					c-4.68-19.93,8.69-41.83,11.42-46.01c0.2-0.3,0.43-0.6,0.67-0.87c2.51-2.76,6.79-2.97,9.55-0.46c2.55,2.32,2.92,6.12,0.99,8.87
					c-1.37,2.14-12.91,20.82-9.49,35.39c1.28,5.43,4.53,9.63,9.95,12.81c7.55,4.45,16.76,5.03,25.95,1.62
					c14.9-5.53,27.42-20.42,34.35-40.87c4.12-12.18,6.27-26.17,6.38-41.58c0.03-3.71,3.05-6.71,6.75-6.71c0.02,0,0.03,0,0.05,0
					c3.73,0.03,6.73,3.07,6.71,6.8c-0.12,16.85-2.5,32.27-7.09,45.82c-8.25,24.32-23.72,42.25-42.45,49.2
					C940.19,1622.4,934.64,1623.42,929.22,1623.42z"
                className="color38212a svgShape"
              ></path>
              <path
                fill="#38212a"
                d="M1024.25 1627.26c-6.84 0-13.22-1.77-19.1-5.31-22.93-13.81-28.73-50.03-28.97-51.56-.57-3.69 1.96-7.13 5.65-7.7 3.67-.58 7.13 1.96 7.7 5.64l0 0c.05.31 5.1 31.55 22.61 42.06 6.66 4 14.29 4.42 23.34 1.27 7.65-2.66 12.36-6.7 14.4-12.35 3.97-11.03-3.1-26.53-6.16-31.57-1.93-3.18-.93-7.34 2.25-9.28 3.18-1.94 7.32-.95 9.27 2.23.59.96 14.3 23.72 7.36 43.13-3.45 9.63-11.08 16.56-22.69 20.6C1034.46 1626.32 1029.24 1627.26 1024.25 1627.26zM816.45 1638.86c-67.88 0-125.98-27.34-128.69-28.64-1.99-.95-3.38-2.81-3.75-4.98-9.8-58.36-6.24-99.38 10.58-121.92 9.77-13.09 20.52-14.75 21.71-14.9 1.55-.19 3.11.16 4.43.99 47.85 30.2 75.68 30.5 90.59 25.43 16.56-5.62 21.64-18.96 21.85-19.53.69-1.87 2.18-3.37 4.06-4.05 1.88-.67 3.96-.51 5.69.49 1.15.67 28.14 16.61 35.4 43.79 6.98 26.23-25.48 108.3-29.2 117.57-.92 2.28-3.01 3.89-5.45 4.19-1.14.14-2.27.26-3.41.38C832.23 1638.5 824.27 1638.86 816.45 1638.86zM696.75 1599.45c14.53 6.3 76.79 31.12 141.32 24.88 13.33-33.92 31.42-89.41 27.19-105.3-3.99-14.93-16.03-26.02-23.33-31.58-4.19 6.41-12.13 15.27-25.88 20.06-25.24 8.79-58.85.37-99.92-25.02C708.45 1485.79 681.52 1504.39 696.75 1599.45z"
                className="color38212a svgShape"
              ></path>
              <path
                fill="#38212a"
                d="M685.29 1802.13c-2.64 0-5.25-.16-7.84-.49-10.8-1.36-20.84-5.65-29.82-12.74-19.88-15.68-19.34-52.59 1.6-109.71 14.94-40.75 35.33-77.93 35.53-78.3 1.8-3.27 5.91-4.45 9.17-2.66 3.27 1.8 4.46 5.91 2.66 9.17-30.11 54.71-67.76 149.48-40.6 170.9 7.03 5.55 14.82 8.9 23.16 9.95 24.14 3.1 54.35-12.7 85.04-44.47 28.83-29.83 55.52-71.13 73.24-113.3 1.44-3.44 5.4-5.06 8.84-3.61 3.44 1.44 5.06 5.4 3.61 8.84C814.61 1719.67 744.74 1802.12 685.29 1802.13zM839.51 1484.36c-1.38 0-2.77-.42-3.97-1.29-3.71-2.7-11.72-13.64-6.02-56.78.6-4.56 1.21-9.08 1.81-13.53.53-3.95 1.06-7.84 1.56-11.66 2.46-18.65 7.58-57.46 2.24-63.9-1.94-2.35-3.85-3.6-5.66-3.73-2.9-.21-5.68 2.2-6.48 2.94-.31.28-.47.45-.54.51-2.05 2.2-5.34 2.81-8.03 1.44-2.68-1.37-4.16-4.32-3.59-7.28 1.04-5.46 1.75-18.17-2.73-22.57-.63-.62-2.55-2.51-8.57-1.25-10.8 2.25-22.05 36.12-26.26 58.31-.63 3.33-3.61 5.67-7.01 5.49-3.38-.19-6.1-2.86-6.36-6.24-4.64-61.47-17.47-72.07-22.77-73.78-7.64-2.46-16.52 7.79-16.61 7.9-1.97 2.35-5.3 3.1-8.08 1.78-7.26-3.44-10.02-1.55-10.93-.93-2.67 1.82-11.15 11.2-8.06 55.22 1.53 21.98 5.24 41.74 5.28 41.94.53 2.81-.76 5.65-3.23 7.09-2.47 1.45-5.57 1.18-7.76-.67-13.72-11.56-25.11-11.44-28.5-7.71-3.39 3.74-.89 13.3 10.45 24.33 31.02 30.22 51.86 50.08 52.07 50.27 2.7 2.57 2.8 6.85.23 9.55-2.57 2.7-6.85 2.81-9.55.23-.21-.2-21.09-20.1-52.17-50.38-19.64-19.12-18.22-35.16-11.03-43.08 6.55-7.22 19.26-9.36 33.76-2.41-1.09-7.71-2.29-17.65-3.03-28.23-2.6-37.12 1.95-59.14 13.92-67.31 3.97-2.71 10.45-5 19.77-1.95 5.26-4.81 15.77-12.26 27.53-8.52 13.32 4.23 22.57 21.08 28.01 51.23 6.03-16.35 15.07-32.73 27.57-35.34 10.83-2.27 17.31 1.39 20.82 4.86 5.67 5.59 7.31 14.2 7.52 21.48 1.64-.35 3.4-.51 5.27-.38 5.66.38 10.76 3.28 15.15 8.6 7.72 9.33 6.39 31.39.74 74.28-.51 3.83-1.03 7.74-1.57 11.69-.6 4.44-1.21 8.95-1.81 13.49-4.56 34.51.6 43.67 1.24 44.64 2.44 2.3 2.85 6.11.82 8.89C843.66 1483.4 841.6 1484.36 839.51 1484.36zM843.51 1472.16C843.51 1472.16 843.51 1472.16 843.51 1472.16 843.51 1472.16 843.51 1472.16 843.51 1472.16zM843.5 1472.15C843.5 1472.15 843.5 1472.15 843.5 1472.15 843.5 1472.15 843.5 1472.15 843.5 1472.15z"
                className="color38212a svgShape"
              ></path>
              <path
                fill="#38212a"
                d="M726.22 1377.69c-3.53 0-6.5-2.74-6.73-6.31-2.43-37.12-10.66-74.95-10.74-75.33-.8-3.64 1.51-7.24 5.15-8.04 3.65-.8 7.25 1.51 8.04 5.15.35 1.58 8.53 39.22 11.02 77.34.24 3.72-2.58 6.94-6.3 7.18C726.52 1377.69 726.37 1377.69 726.22 1377.69zM808.77 1387.03c-.51 0-1.03-.06-1.55-.18-3.63-.85-5.89-4.48-5.04-8.12 4.04-17.24 8.05-39.63 9.59-48.46.32-1.83.49-2.86.49-2.88.6-3.68 4.06-6.18 7.75-5.58 3.68.6 6.18 4.07 5.58 7.75 0 0-.18 1.08-.51 3.02-1.56 8.95-5.63 31.65-9.74 49.22C814.61 1384.93 811.83 1387.03 808.77 1387.03zM634.43 1978.08c-3.63 0-6.63-2.88-6.75-6.53-3.35-102.63 42.9-176.88 44.87-179.99 2-3.15 6.17-4.09 9.32-2.09 3.15 2 4.09 6.17 2.09 9.32l0 0c-.46.73-45.99 74.02-42.78 172.32.12 3.73-2.8 6.85-6.53 6.97C634.58 1978.07 634.51 1978.08 634.43 1978.08z"
                className="color38212a svgShape"
              ></path>
              <path
                fill="#38212a"
                d="M617.88,2064.07c-0.52,0-1.05-0.06-1.57-0.19c-2.29-0.55-4.14-2.25-4.86-4.5
					c-10.66-33.37-3.19-63.21,22.2-88.7c52.63-52.87,164.68-68.27,169.42-68.91c3.68-0.48,7.09,2.11,7.58,5.81
					c0.49,3.7-2.11,7.09-5.8,7.58c-1.12,0.15-112.25,15.45-161.63,65.05c-19.27,19.34-26.36,40.72-21.5,65.1
					c26.46-19.78,117.52-72.35,336.73-70.83c230.76,1.63,318.85,35.49,339.13,45.03c5.23-5.72,15.17-18.59,15.11-33.73
					c-0.04-11.61-6.03-22.71-17.81-33c-26.63-23.26-80.72-41.49-160.77-54.18c-3.68-0.58-6.2-4.04-5.61-7.73
					c0.58-3.68,4.03-6.2,7.73-5.61c82.6,13.1,138.97,32.4,167.54,57.35c14.87,12.98,22.41,27.53,22.43,43.23
					c0.03,26.61-21.91,46.17-22.84,46.99c-2.19,1.92-5.36,2.22-7.87,0.75c-0.74-0.43-78.94-43.77-337.14-45.6
					c-134.55-0.92-218.65,19.28-265.56,36.42c-50.69,18.51-69.92,37.47-70.11,37.66C621.4,2063.36,619.66,2064.07,617.88,2064.07z"
                className="color38212a svgShape"
              ></path>
              <path
                fill="#38212a"
                d="M1300.2 1953.49c-1.99 0-3.96-.88-5.29-2.56-2.32-2.92-1.83-7.17 1.09-9.49 37.42-29.7 3.8-96.04-3.33-109.04-.76-1.38-1.22-2.16-1.25-2.21-1.89-3.21-.82-7.35 2.39-9.24 3.22-1.9 7.35-.83 9.25 2.38 0 0 .54.91 1.45 2.57 8.04 14.68 45.8 89.68-.11 126.12C1303.16 1953.01 1301.67 1953.49 1300.2 1953.49zM1159.5 1677.85c-12.96 0-23.52-.78-28.72-2.33-2.99-.9-5.85-2.31-8.52-4.17-14.79-10.06-25.34-34.69-24.48-57.24.28-7.33-3.18-18.16-6.53-28.64-6.44-20.15-13.09-40.98.37-52.33 18.21-15.31 47.34-12.77 48.57-12.66 3.71.35 6.44 3.64 6.09 7.35-.35 3.71-3.63 6.43-7.34 6.09l0 0c-.24-.02-24.78-2.1-38.62 9.54-6.55 5.52-1.06 22.72 3.79 37.89 3.87 12.12 7.53 23.56 7.16 33.27-.67 17.69 7.69 38.15 18.64 45.6 1.57 1.1 3.15 1.88 4.76 2.36 6.92 2.08 36.25 2.83 68.24-.68 35.37-3.88 60.06-11.55 66.05-20.53 1.23-1.85 2.25-4.21 3.03-6.99 7.83-28.13-11.33-86.97-18.64-94.94-5.63-6.14-18.76-5.46-22.9-4.74-3.68.64-7.17-1.82-7.81-5.5-.64-3.67 1.82-7.17 5.5-7.81 2.38-.41 23.62-3.69 35.17 8.92 10.5 11.45 30.71 75.3 21.7 107.7-1.16 4.16-2.78 7.8-4.8 10.84-8.68 13.01-34.18 21.91-75.82 26.47C1189.1 1677.01 1173 1677.85 1159.5 1677.85z"
                className="color38212a svgShape"
              ></path>
              <path
                fill="#38212a"
                d="M1306.99 1836.7c-3.1 0-6.3-.3-9.59-.89-65.44-11.71-158.76-140.44-176.8-166.13-1.3-1.81-1.99-2.82-1.99-2.82-2.09-3.08-1.29-7.29 1.79-9.38 3.08-2.1 7.28-1.3 9.38 1.79.03.04.65.95 1.83 2.6 10.77 15.34 106.66 149.65 168.17 160.65 6.31 1.14 12.03.83 17-.9 14.56-5.11 23.01-17.27 25.12-36.15 5.04-45.29-30.01-120.41-66.97-143.53-.68-.43-1.35-.83-2.01-1.21-3.23-1.86-4.34-5.99-2.47-9.22 1.86-3.23 5.99-4.34 9.22-2.47.81.47 1.64.96 2.46 1.47 19.45 12.17 39.09 36.98 53.88 68.05 15.02 31.57 22.06 63.79 19.32 88.41-2.69 24.13-14.47 40.53-34.07 47.41C1316.79 1835.92 1312.02 1836.7 1306.99 1836.7zM1181.13 1564.46c-24.79 0-41.41-7.67-42.45-8.16-2.57-1.22-4.1-3.91-3.83-6.74.01-.07.74-8.56-.94-21.64 0 0 0 0 0 0-1.47-11.52-4.32-22.98-8.45-34.06-10.92-29.27-5.7-65.19 14.71-101.13 7.1-12.51 16.06-25.05 26.62-37.26 19.44-22.46 34.69-31.63 46.61-28.04 3.86 1.16 6.79 3.53 8.95 6.31 14.92-19.11 27.58-27.74 38.53-26.34 4.59.59 8.05 2.87 10.46 5.44 7.91-2.81 14.99-2.69 21.11.37 7.47 3.73 11.21 10.77 12.98 15.58 5.06 1 9.08 3.15 11.99 6.41 3.66 4.1 5.3 9.64 4.89 16.48-.96 16.17-14.13 39.1-25.28 55.83 9.24-2.67 16.9-2.33 23.13 1.01 9.25 4.95 11.98 15.31 12.13 20.65.06 2.16-.92 4.22-2.63 5.54-.44.34-44.56 34.35-73.31 62.14-10.25 9.92-17.72 21.04-22.19 33.04-4.25 11.43-4.12 19.56-4.11 19.64.06 2.85-1.66 5.46-4.31 6.49C1209.33 1562.36 1194.11 1564.46 1181.13 1564.46zM1148.51 1545.65c9.82 3.38 36.43 10.2 68.27-.75.44-4.41 1.61-11.39 4.71-19.73 5.18-13.92 13.75-26.71 25.46-38.04 24.74-23.91 60.45-52.19 71.25-60.64-.62-2.1-1.9-4.75-4.49-6.11-2.88-1.51-11.96-3.52-34.02 10.29-2.79 1.74-6.43 1.23-8.62-1.22-2.19-2.45-2.3-6.13-.26-8.7 10.17-12.82 36.83-50.36 37.99-69.89.19-3.12-.31-5.36-1.48-6.67-1.63-1.83-4.98-2.37-7.51-2.51-3.12-.17-5.72-2.46-6.28-5.53-.44-2.23-2.59-8.63-7.17-10.88-3.5-1.72-8.37-1.04-14.48 2.01-1.72.86-3.71.95-5.5.24-1.78-.7-3.18-2.13-3.85-3.93-.07-.15-1.14-2.55-3.46-2.8-1.8-.21-11.79.35-32.71 30.25-1.6 2.29-4.43 3.36-7.15 2.69-2.71-.67-4.73-2.93-5.08-5.7-.19-1.35-1.57-6.77-4.66-7.67-1.56-.46-10.48-1.47-32.47 23.95-9.99 11.55-18.43 23.35-25.09 35.09-18.4 32.41-23.31 64.28-13.81 89.74 4.49 12.05 7.59 24.52 9.19 37.07l0 0C1148.38 1534.64 1148.56 1541.37 1148.51 1545.65z"
                className="color38212a svgShape"
              ></path>
              <path
                fill="#38212a"
                d="M1188.53 1401.85c-1.46 0-2.93-.47-4.16-1.44-2.94-2.3-3.45-6.55-1.15-9.48 13.78-17.57 31.66-46.97 31.84-47.27 1.94-3.19 6.09-4.2 9.28-2.27 3.19 1.93 4.21 6.09 2.27 9.28-.75 1.23-18.47 30.39-32.76 48.6C1192.51 1400.96 1190.53 1401.85 1188.53 1401.85zM1232.16 1393.53c-1.58 0-3.17-.55-4.45-1.67-2.81-2.46-3.09-6.72-.63-9.53 22.92-26.18 36.32-61.19 36.45-61.54 1.32-3.49 5.21-5.24 8.71-3.93 3.49 1.32 5.25 5.22 3.93 8.71-.58 1.52-14.41 37.66-38.92 65.66C1235.91 1392.75 1234.04 1393.53 1232.16 1393.53zM1256.63 1410.17c-1.65 0-3.31-.6-4.62-1.83-2.72-2.55-2.86-6.82-.31-9.55 20.57-21.95 42.18-66.36 42.4-66.81 1.62-3.36 5.66-4.76 9.02-3.14 3.36 1.63 4.76 5.66 3.14 9.02-.92 1.9-22.72 46.7-44.7 70.16C1260.23 1409.45 1258.43 1410.17 1256.63 1410.17zM853.19 2226.73c-30.77 0-49.65-6.34-56.02-8.9-77.83 18.86-107.97-4.88-115.74-13.13-4.9-.64-9.58-1.39-13.96-2.23-71.64-13.69-76-52.74-76.15-54.4-.14-1.5.23-3.01 1.05-4.27 23.2-35.94 18.83-85.33 18.79-85.83-.35-3.71 2.37-7.01 6.08-7.36 3.68-.35 7.01 2.36 7.36 6.07.21 2.17 4.73 52.48-19.41 92.1 1.93 6.93 12.25 30.38 64.83 40.42 4.86.93 10.13 1.75 15.67 2.42 1.94.23 3.68 1.3 4.78 2.91.16.22 23.05 30.29 105.66 9.65 1.54-.39 3.17-.21 4.59.48.34.16 36.78 17.01 104.74 2.82 7.55-1.57 15.34-3.5 23.17-5.73 1.53-.44 3.18-.32 4.63.34.38.17 40.83 17.69 109.26 3.76 8.69-1.77 17.52-3.98 26.23-6.55 1.49-.44 3.08-.36 4.52.25.65.27 66.82 27.1 140.17-.1 1.07-.4 2.23-.51 3.37-.34.22.03 22.33 3.31 49.2.95 22.53-1.95 53.01-8.36 73.88-27.5-11.21-17.92-48.83-82.81-47.73-144.9.07-3.73 3.11-6.72 6.87-6.63 3.73.06 6.7 3.14 6.63 6.87-1.18 67.18 47.99 141.12 48.48 141.86 1.76 2.62 1.47 6.11-.7 8.41-18.79 19.87-48.62 32.09-86.26 35.36-24.4 2.14-44.66-.04-50.65-.81-70.87 25.62-133.4 5.01-146.19.21-8.36 2.41-16.8 4.48-25.13 6.18-64.31 13.09-105.07.13-115.13-3.71-7.38 2.05-14.73 3.84-21.86 5.33C886.96 2225.14 868.59 2226.73 853.19 2226.73z"
                className="color38212a svgShape"
              ></path>
              <path
                fill="#38212a"
                d="M684.89 2205.08c-.54 0-1.09-.07-1.65-.2-3.62-.9-5.82-4.57-4.91-8.19 7.2-28.77 9.7-81.26 9.73-81.78.17-3.73 3.37-6.6 7.06-6.43 3.73.17 6.61 3.33 6.43 7.06-.1 2.2-2.59 54.35-10.12 84.44C690.66 2203.03 687.91 2205.08 684.89 2205.08zM797.77 2217.48c-.31 0-.61-.02-.92-.06-3.7-.5-6.28-3.91-5.78-7.61 3.61-26.46 2.43-95.03 2.42-95.72-.07-3.73 2.9-6.81 6.63-6.87.04 0 .08 0 .12 0 3.67 0 6.68 2.95 6.75 6.63.05 2.86 1.21 70.31-2.54 97.79C803.99 2215.03 801.1 2217.48 797.77 2217.48zM930.48 2215c-.75 0-1.51-.12-2.25-.39-3.52-1.24-5.36-5.1-4.12-8.62 5.72-16.18 3.47-67.97 2.12-86.56-.27-3.72 2.53-6.96 6.25-7.23 3.73-.25 6.95 2.53 7.23 6.25.52 7.13 4.84 70.27-2.86 92.05C935.87 2213.27 933.26 2215 930.48 2215zM1070.66 2212.53c-3.06 0-5.84-2.1-6.57-5.21-5.11-21.72-2.76-88.28-2.66-91.11.14-3.73 3.27-6.57 6.99-6.5 3.73.14 6.64 3.27 6.51 6.99-.02.67-2.39 67.56 2.31 87.53.85 3.63-1.4 7.27-5.03 8.12C1071.7 2212.47 1071.18 2212.53 1070.66 2212.53zM1215.8 2212.53c-2.83 0-5.46-1.79-6.41-4.62-8.89-26.66-11.4-92.15-11.5-94.92-.14-3.73 2.77-6.86 6.5-7 .09 0 .17-.01.25-.01 3.62 0 6.61 2.86 6.75 6.5.02.66 2.54 66.32 10.82 91.15 1.18 3.54-.73 7.36-4.27 8.54C1217.22 2212.41 1216.5 2212.53 1215.8 2212.53z"
                className="color38212a svgShape"
              ></path>
              <path
                fill="#38212a"
                d="M691.89 2346.98c-.43 0-.86-.04-1.3-.13-3.66-.72-6.05-4.26-5.33-7.92.31-1.58.58-3.15.82-4.75 9.28-59.86-23.18-134.87-23.51-135.62-1.5-3.42.06-7.4 3.47-8.9 3.42-1.5 7.4.06 8.9 3.47 1.41 3.21 34.37 79.41 24.49 143.07-.26 1.75-.57 3.54-.91 5.32C697.88 2344.75 695.06 2346.98 691.89 2346.98zM907.76 2329.15c-3.39 0-6.31-2.55-6.7-5.99l-.29-2.53c-5.28-47.41-1.48-97.54-.66-107.11.05-.48.06-.7.07-.75.26-3.71 3.5-6.46 7.18-6.26 3.71.24 6.53 3.45 6.3 7.16 0 0-.02.37-.1 1.1-.79 9.24-4.51 58.21.63 104.34l.29 2.54c.42 3.71-2.24 7.05-5.95 7.47C908.27 2329.14 908.02 2329.15 907.76 2329.15z"
                className="color38212a svgShape"
              ></path>
              <path
                fill="#38212a"
                d="M796.89,2493.67c-44.76,0-84.49-8.6-101.46-15.2c-4.73-1.82-8.41-3.7-10.89-5.57
					c-13.93-10.43-23.03-46.66-25.6-75.89c-1.5-17.13-2.22-47.78,9.83-60.65c6.71-7.16,14.44-9.57,25.05-7.86
					c5.83,0.96,12.17,3.03,20.18,5.66c18.18,5.96,45.65,14.97,88.9,16.19c49.72,1.39,75.56-17.69,92.68-30.31
					c2.88-2.13,5.6-4.13,8.15-5.82c5.04-3.36,16.87-11.25,27.8-0.35c13.11,13.11,16.96,54.5,14.99,87.4
					c-0.98,16.43-4.32,45.32-15.59,54.17c-2.09,1.65-4.28,3.26-6.49,4.78C887.84,2485.68,840.02,2493.67,796.89,2493.67z
					 M687.64,2341.47c-3.75,0-6.3,1.25-9,4.13c-5.91,6.31-8.36,26.02-6.23,50.23c2.96,33.78,12.82,60.7,20.25,66.27
					c0.68,0.51,2.78,1.89,7.65,3.77c36.32,14.13,150.16,29.35,216.46-16.74c0.01-0.01,0.02-0.01,0.03-0.02
					c1.98-1.36,3.93-2.8,5.8-4.28c3.95-3.1,8.9-18.3,10.46-44.37c2.05-34.33-2.9-68.89-11.05-77.04c-1.86-1.85-3.09-3.09-10.77,2.04
					c-2.28,1.51-4.75,3.34-7.62,5.45c-17.48,12.89-46.72,34.43-101.08,32.95c-45.21-1.28-73.81-10.66-92.73-16.86
					c-7.46-2.45-13.35-4.38-18.14-5.17C690.17,2341.6,688.84,2341.47,687.64,2341.47z"
                className="color38212a svgShape"
              ></path>
              <path
                fill="#38212a"
                d="M703.44 2534.89c-3.48 0-6.43-2.67-6.72-6.2l-.01-.15-6.12-54.07c-.42-3.7 2.24-7.05 5.95-7.47 3.72-.44 7.05 2.25 7.47 5.95l6.14 54.17c.01.07.02.14.02.2l.02.25c.31 3.72-2.46 6.98-6.18 7.29C703.81 2534.88 703.62 2534.89 703.44 2534.89zM924.26 2515.59c-3.53 0-6.5-2.74-6.73-6.31l-3.7-54.93c-.27-3.72 2.53-6.95 6.25-7.22 3.72-.27 6.96 2.53 7.22 6.25l.06.81 3.65 54.21c.24 3.72-2.57 6.94-6.3 7.18C924.56 2515.59 924.41 2515.59 924.26 2515.59z"
                className="color38212a svgShape"
              ></path>
              <path
                fill="#38212a"
                d="M827.05,2849.71c-40.22,0-67.63-5.25-85.89-20.93c-23.81-20.44-29.92-56.12-40.04-115.22l-1.8-10.45
					c-18.5-107.2-19.94-181.41-19.95-182.15c-0.04-2.39,1.18-4.62,3.22-5.87c2.04-1.25,4.58-1.33,6.69-0.21
					c0.05,0.02,5.72,2.98,16.34,6.63c19.97,6.91,62.29,17.86,121.45,13.7c56.1-3.95,81.86-22.45,92.23-33.13l0,0
					c5.55-5.7,7.47-9.93,7.49-9.97c0.95-2.12,2.95-3.67,5.24-3.99c1.1-0.16,5.02-0.38,9.34,3.31c10.57,9.03,16.28,35.59,16.97,78.95
					c1.16,72.55,5.84,114.26,28.19,140.89c17.24,20.56,31.35,52.62,19.23,80.98c-13.78,32.23-56.06,50.87-125.67,55.39
					C860.31,2848.91,842.71,2849.71,827.05,2849.71z M693.25,2531.34c1.09,23.99,5.1,86.75,19.38,169.46l1.8,10.47
					c9.61,56.11,15.41,89.98,35.53,107.26c19.2,16.48,53.02,20.57,129.25,15.62c63.22-4.11,102.68-20.44,114.13-47.22
					c9.72-22.73-2.49-49.51-17.16-66.99c-24.96-29.74-30.14-73.63-31.35-149.36c-0.69-43.71-6.47-60.06-9.97-65.98
					c-1.48,2.02-3.41,4.35-5.87,6.88c-14.3,14.73-43.42,33.13-100.96,37.19c-61.56,4.33-105.87-7.16-126.8-14.4
					C698.2,2533.23,695.54,2532.24,693.25,2531.34z"
                className="color38212a svgShape"
              ></path>
              <path
                fill="#38212a"
                d="M858.2,2633.78c-4.07,0-8.08-0.78-11.92-2.32c-11.5-4.65-19.38-15.62-20.11-27.95
					c-0.51-8.32,2.19-16.44,7.61-22.83c5.76-6.73,13.76-10.72,22.56-11.27c7.01-0.43,13.82,1.39,19.66,5.25
					c8.44,5.55,13.85,14.87,14.46,24.94c0.68,11.44-4.81,22.47-14.33,28.8c-4.74,3.15-10.23,4.98-15.87,5.31
					C859.58,2633.76,858.89,2633.78,858.2,2633.78z M858.34,2582.87c-0.39,0-0.77,0.01-1.16,0.03c-5.11,0.32-9.77,2.64-13.11,6.55
					c-3.14,3.7-4.71,8.41-4.41,13.25c0.42,7.17,5.01,13.53,11.68,16.23c2.58,1.04,5.32,1.47,8.11,1.29c3.3-0.19,6.48-1.25,9.22-3.08
					c5.53-3.67,8.71-10.09,8.32-16.74c-0.36-5.92-3.41-11.19-8.39-14.46c-0.01,0-0.01-0.01-0.02-0.01
					C865.52,2583.92,862,2582.87,858.34,2582.87z"
                className="color38212a svgShape"
              ></path>
              <path
                fill="#38212a"
                d="M909.23 2636.58c-16.27 0-33.57-6.27-36.32-7.31-3.49-1.32-5.25-5.21-3.93-8.7 1.32-3.49 5.2-5.26 8.7-3.93 12.75 4.79 36.14 9.95 44.64 3.39 4.27-3.3 6.88-16.59 3.64-32.3-2.89-14.03-9.4-24.3-16.58-26.15-16.3-4.19-29.33 18.61-31.07 21.82l-.18.39c-1.67 3.33-5.73 4.68-9.07 3.01-3.33-1.67-4.68-5.71-3.02-9.04l.15-.31c.05-.11.11-.22.16-.32 3.2-5.95 20.48-35.3 46.4-28.62 12.51 3.23 22.39 16.87 26.43 36.5 3.45 16.77 2.13 37.4-8.61 45.71C924.93 2635.08 917.2 2636.58 909.23 2636.58zM806.74 2651.52c-3.12 0-6.14-.46-8.95-1.51-12.72-4.75-20.11-24.08-21.79-41.13-1.96-19.94 3.42-35.89 14.41-42.67 24.64-15.24 52.12 12.86 53.28 14.07 2.59 2.69 2.5 6.96-.18 9.55-2.68 2.58-6.96 2.51-9.54-.18-.26-.27-21.09-21.45-36.45-11.95-6.3 3.9-9.47 15.61-8.07 29.86 1.57 15.98 8.01 27.9 13.07 29.79 10.03 3.75 30.86-8.11 41.62-16.47 2.95-2.29 7.19-1.76 9.48 1.19 2.29 2.94 1.76 7.18-1.18 9.47C849.45 2633.86 826.13 2651.51 806.74 2651.52zM1273.63 2301.19c-2.78 0-5.39-1.73-6.37-4.5-8.83-24.96-11.27-55.05-7.25-89.42.43-3.71 3.78-6.35 7.49-5.92 3.7.43 6.36 3.79 5.92 7.49-3.73 31.86-1.45 60.68 6.57 83.35 1.24 3.52-.6 7.38-4.12 8.62C1275.13 2301.07 1274.38 2301.19 1273.63 2301.19zM1060.36 2317.61c-3.64 0-6.64-2.9-6.75-6.57-1.42-50.77-15.76-94.81-15.91-95.25-1.17-3.54.75-7.36 4.3-8.53 3.54-1.17 7.36.75 8.53 4.29.62 1.87 15.11 46.28 16.59 99.11.1 3.73-2.83 6.83-6.56 6.94C1060.49 2317.61 1060.43 2317.61 1060.36 2317.61z"
                className="color38212a svgShape"
              ></path>
              <path
                fill="#38212a"
                d="M1149.14,2473.79c-30.34,0-60.62-4.91-86.34-17.68c-0.01,0-0.01-0.01-0.02-0.01
					c-2.5-1.25-4.88-2.52-7.06-3.76c-12.46-7.13-19.98-35.25-23.35-51.37c-6.74-32.25-8.97-73.74,2.07-88.61
					c8.33-11.23,19.49-7,23.16-5.61c4,1.51,8.29,3.8,13.26,6.44c18.78,10.01,47.16,25.13,96.18,16.49
					c42.59-7.53,68.45-20.45,85.56-28.99c7.94-3.97,14.22-7.1,20.12-8.85c9.66-2.84,17.59-1.44,24.96,4.41
					c13.8,10.97,17.57,41.37,18.59,58.53c1.74,29.31-1.98,66.48-14.24,78.86c-2.59,2.61-6.79,5.47-12.47,8.49
					C1261.71,2456.96,1205.33,2473.79,1149.14,2473.79z M1068.81,2444.01c74.43,36.99,183.2,2.81,214.39-13.82
					c6.11-3.24,8.49-5.32,9.22-6.07c6.54-6.6,12.36-34.68,10.35-68.55c-1.44-24.24-6.74-43.37-13.5-48.75
					c-3.93-3.11-7.26-3.64-12.74-2.03c-4.75,1.4-10.55,4.3-17.9,7.97c-17.81,8.9-44.72,22.34-89.25,30.21
					c-53.6,9.44-85.7-7.66-104.88-17.87c-4.56-2.43-8.49-4.52-11.69-5.73c-5.28-2-6.13-0.86-7.53,1.03
					c-6.87,9.25-6.73,44.15,0.3,77.8c5.35,25.58,12.47,39.92,16.83,42.41C1064.38,2441.73,1066.54,2442.87,1068.81,2444.01
					L1068.81,2444.01z"
                className="color38212a svgShape"
              ></path>
              <path
                fill="#38212a"
                d="M1292.09 2501.55c-3.59 0-6.58-2.83-6.74-6.45l-2.57-58.51c-.16-3.73 2.73-6.88 6.45-7.04 3.77-.13 6.88 2.72 7.04 6.45l2.56 58.5c.17 3.73-2.72 6.88-6.44 7.05C1292.29 2501.54 1292.19 2501.55 1292.09 2501.55zM1069.76 2509.46c-3.5 0-6.47-2.71-6.73-6.26l-4.02-53.49c-.26-3.72 2.54-6.95 6.26-7.21 3.71-.25 6.95 2.54 7.21 6.26l.06.83 3.95 52.61c.28 3.72-2.52 6.96-6.24 7.23C1070.09 2509.45 1069.92 2509.46 1069.76 2509.46z"
                className="color38212a svgShape"
              ></path>
              <path
                fill="#38212a"
                d="M1132.11,2834.23c-51.83,0-85.83-12.67-101.25-37.81c-16.13-26.28-6.85-60.06,7.2-82.91
					c18.23-29.64,16.77-71.58,7.33-143.51c-5.65-42.99-3.88-70.1,5.26-80.57c3.74-4.28,7.65-4.63,8.76-4.63c0.01,0,0.02,0,0.03,0
					c2.35,0,4.53,1.22,5.76,3.22l0,0c0,0,2.48,3.8,8.63,8.54c0,0,0.01,0.01,0.01,0.01c11.78,9.12,39.94,23.78,96.29,19.48
					c59.42-4.53,99.84-21.7,118.64-31.53c9.63-5.03,14.65-8.66,14.7-8.7c1.93-1.4,4.45-1.68,6.64-0.74
					c2.19,0.94,3.73,2.97,4.03,5.33c0.1,0.73,9.49,74.37,6.87,183.12l-0.25,10.64c-1.4,59.93-2.24,96.11-22.81,119.8
					c-21.93,25.25-64.24,33.16-134.67,38.91C1152.26,2833.78,1141.87,2834.23,1132.11,2834.23z M1059.02,2501.51
					c-2.6,6.36-5.94,23.36-0.24,66.73c9.85,75.08,11.13,119.26-9.22,152.34c-11.95,19.43-20.12,47.71-7.19,68.77
					c15.23,24.82,56.65,35.22,119.81,30.06c76.12-6.22,108.98-15.19,125.57-34.3c17.38-20.02,18.18-54.36,19.51-111.27l0.25-10.65
					c2.03-83.91-3.16-146.59-5.59-170.48c-1.99,1.15-4.29,2.42-6.9,3.78c-19.72,10.31-62.04,28.31-123.87,33.03
					c-57.81,4.39-89.32-9.68-105.59-22.27C1062.89,2505.18,1060.73,2503.23,1059.02,2501.51z"
                className="color38212a svgShape"
              ></path>
              <path
                fill="#38212a"
                d="M1148.88,2618.49c-5.56,0-10.97-1.41-15.81-4.15c-9.27-5.23-15.36-14.69-16.28-25.31
					c-0.87-10.18,3-19.93,10.62-26.76c0,0,0,0,0.01-0.01c5.26-4.7,11.73-7.49,18.73-8.08c8.78-0.76,17.27,2.03,23.92,7.84
					c6.31,5.52,10.18,13.16,10.91,21.5c1.12,13.23-5.8,25.61-17.65,31.55c-3.67,1.83-7.6,2.94-11.69,3.3
					C1150.72,2618.46,1149.8,2618.49,1148.88,2618.49z M1136.42,2572.34c-4.42,3.97-6.67,9.63-6.17,15.53
					c0.53,6.17,4.07,11.67,9.46,14.71c3.27,1.85,6.99,2.64,10.78,2.34c2.36-0.21,4.66-0.85,6.79-1.92
					c6.87-3.45,10.89-10.64,10.24-18.32c-0.42-4.84-2.68-9.28-6.34-12.49c-3.86-3.37-8.79-4.99-13.88-4.55
					C1143.23,2567.99,1139.47,2569.61,1136.42,2572.34z"
                className="color38212a svgShape"
              ></path>
              <path
                fill="#38212a"
                d="M1095.99 2628.95c-5.19 0-10.13-.93-14.32-3.28-11.84-6.65-16.17-26.88-15.2-43.97 1.13-20.01 8.9-34.96 20.8-39.99 24.78-10.43 46.07 16.15 50.09 21.58l.37.51c2.16 3.05 1.44 7.26-1.61 9.41-3.05 2.16-7.26 1.44-9.42-1.61l-.28-.39c-1.75-2.36-18.13-23.72-33.91-17.07-6.82 2.88-11.76 13.99-12.56 28.3-.9 16.01 3.62 28.78 8.33 31.43 9.35 5.24 31.75-3.27 43.67-9.86 3.26-1.8 7.37-.63 9.18 2.63 1.81 3.26.63 7.37-2.63 9.18C1135.52 2617.49 1114.21 2628.94 1095.99 2628.95zM1201.82 2628.54c-18.3 0-39.76-11.77-42.74-13.46-3.25-1.84-4.39-5.96-2.55-9.2 1.84-3.25 5.96-4.39 9.2-2.55 11.86 6.69 34.18 15.38 43.58 10.21 4.72-2.6 9.34-15.32 8.58-31.33-.69-14.32-5.53-25.48-12.33-28.41-16.59-7.15-34.15 16.9-34.32 17.14-2.17 3.02-6.39 3.72-9.42 1.56-3.03-2.17-3.73-6.38-1.57-9.41.97-1.36 24.05-33.19 50.67-21.69 11.86 5.12 19.51 20.13 20.47 40.17.82 17.09-3.67 37.27-15.55 43.81C1211.71 2627.63 1206.88 2628.54 1201.82 2628.54z"
                className="color38212a svgShape"
              ></path>
              <g>
                <path
                  fill="#3a212b"
                  d="M1241.28,842.18c52.55-8.36,98.84-8.79,198.4,59.65c0,0-162.12-97.97-297.51,0.46l0,0
															C1148.73,875.31,1200.7,848.64,1241.28,842.18z"
                  className="color3a212b svgShape"
                ></path>
                <ellipse cx="1271.14" cy="1076.21" fill="#ffffff" rx="109.25" ry="108.98" transform="rotate(-37.36 1271.16 1076.248)" className="colorfff svgShape"></ellipse>
                <path
                  fill="#c1c1c1"
                  d="M1164.06,1057.17c0,0,104.51-93.09,221.92,11.98c0,0,19.35-64.53-52.18-93.89
											S1191.22,965.36,1164.06,1057.17z"
                  className="colorc1c1c1 svgShape"
                ></path>
                <path
                  fill="#603745"
                  d="M1197.65,1078.1c0.54,59.77,39.21,107.8,86.4,107.26c47.17-0.54,85.01-49.43,84.46-109.19
											c-0.07-7.85-0.8-15.5-2.13-22.87c-0.65-3.7-1.46-7.32-2.43-10.87c-11.57-43.12-43.97-73.97-81.84-73.54
											c-34.33,0.39-63.69,26.39-76.94,63.55c-0.65,1.8-1.26,3.65-1.83,5.52C1199.57,1050.4,1197.54,1063.93,1197.65,1078.1z"
                  className="color603745 svgShape"
                ></path>
                <ellipse cx="1304.4" cy="1078.89" fill="#3a212b" rx="47.28" ry="37.58" transform="rotate(-87.599 1304.4 1078.916)" className="color3a212b svgShape"></ellipse>
                <ellipse cx="1319.92" cy="1044.39" fill="#ffffff" opacity=".5" rx="24.52" ry="31.21" transform="rotate(-15.963 1319.99 1044.444)" className="colorfff svgShape"></ellipse>
                <ellipse cx="1250.66" cy="1116.85" fill="#ffffff" opacity=".5" rx="22.68" ry="21.89" transform="rotate(-88.665 1250.666 1116.879)" className="colorfff svgShape"></ellipse>
                <path fill="#3a212b" d="M1174.32,1160.33c0,0,87.12,68.14,200.1-2.26C1374.43,1158.07,1260.05,1189.61,1174.32,1160.33z" className="color3a212b svgShape"></path>
                <path
                  fill="#603745"
                  d="M1205.18,1032.44c37.38-15.96,96.47-26.01,161.21,20.86c-0.65-3.7-1.46-7.32-2.43-10.87
											c-11.57-43.12-43.97-73.97-81.84-73.54C1247.79,969.28,1218.43,995.28,1205.18,1032.44z"
                  opacity=".5"
                  className="color603745 svgShape"
                ></path>
                <path
                  fill="#3a212b"
                  d="M1444.74,996.93c-21.13,9.87-55.24-0.02-55.24-0.02c-17.49-17.24-49.21-43.4-84.48-48.09
											c-74.29-9.88-138.61,48.08-140.96,108.35c0,0,16.7-66.36,94.92-85.08c65.79-15.75,110.32,54.78,116.37,76.52
											c6.47,23.26,3.58,45.28,3.58,45.28s20.69-42.67,26.4-52.34c5.71-9.67,35.01-8.1,41.16-21.23c0,0-24.2,5.81-42.76-8.04
											c0,0-0.35-0.43-0.97-1.17C1432.3,1012.48,1444.74,996.93,1444.74,996.93z"
                  className="color3a212b svgShape"
                ></path>
                <ellipse cx="856.71" cy="1078.08" fill="#ffffff" rx="109.08" ry="109.16" transform="rotate(-71.38 856.677 1078.032)" className="colorfff svgShape"></ellipse>
                <path
                  fill="#c1c1c1"
                  d="M964.15,1060.98c0,0-102.63-94.97-222.12,7.95c0,0-18.05-64.87,54.05-92.93
											C868.18,947.94,938.84,968.69,964.15,1060.98z"
                  className="colorc1c1c1 svgShape"
                ></path>
                <path
                  fill="#603745"
                  d="M776.94,1079.39c-1.81,62.22,35.22,105.16,82.38,106.55c47.17,1.39,86.61-39.29,88.42-101.52
											c0.39-13.36-1.02-26.21-3.89-38.18c-0.29-1.25-0.62-2.5-0.94-3.73c-11.36-41.95-41.29-72.24-77.29-73.3
											c-36.7-1.08-68.9,28.57-82.21,71.13c-0.42,1.32-0.8,2.66-1.19,4C779.13,1055.32,777.3,1067.1,776.94,1079.39z"
                  className="color603745 svgShape"
                ></path>
                <path
                  fill="#3a212b"
                  d="M951.82 1163.94c0 0-88.47 66.55-200.02-5.89C751.8 1158.05 865.51 1191.65 951.82 1163.94zM865.18 840.86c-53.1-2.31-99.16 2.55-191.08 81.95 0 0 151.06-115.9 295.8-33.52l0 0C960.6 863.22 906.18 842.64 865.18 840.86z"
                  className="color3a212b svgShape"
                ></path>
                <ellipse cx="886.31" cy="1077.14" fill="#3a212b" rx="37.58" ry="47.28" transform="rotate(-.676 884.328 1074.752)" className="color3a212b svgShape"></ellipse>
                <ellipse cx="907.39" cy="1042.49" fill="#ffffff" opacity=".5" rx="24.55" ry="31.16" transform="rotate(-19.529 907.461 1042.539)" className="colorfff svgShape"></ellipse>
                <ellipse cx="843.23" cy="1119.82" fill="#ffffff" opacity=".5" rx="22.68" ry="21.89" transform="rotate(-88.665 843.231 1119.849)" className="colorfff svgShape"></ellipse>
                <path
                  fill="#603745"
                  d="M783.4,1040.33c70.35-37.16,130.49-12.44,160.44,5.91c-0.29-1.25-0.62-2.5-0.94-3.73
											c-11.36-41.95-41.29-72.24-77.29-73.3C828.9,968.12,796.71,997.77,783.4,1040.33z"
                  opacity=".5"
                  className="color603745 svgShape"
                ></path>
                <path
                  fill="#3a212b"
                  d="M684.73,995.66c20.93,10.25,55.23,0.98,55.23,0.98c17.83-16.92,50.07-42.5,85.43-46.55
											c74.48-8.53,137.62,50.59,138.75,110.89c0,0-15.37-66.65-93.19-86.79c-65.46-16.94-111.4,52.77-117.88,74.4
											c-6.94,23.14-4.49,45.21-4.49,45.21s-19.83-43.04-25.35-52.81c-5.52-9.77-34.84-8.73-40.72-21.97
											c0,0,24.08,6.25,42.91-7.26c0,0,0.36-0.43,1-1.16C696.86,1011.44,684.73,995.66,684.73,995.66z"
                  className="color3a212b svgShape"
                ></path>
                <g>
                  <ellipse cx="1090.81" cy="1176.87" fill="#e2a383" rx="12.3" ry="11.87" transform="rotate(-88.665 1090.813 1176.899)" className="colore2a383 svgShape"></ellipse>
                </g>
                <g>
                  <ellipse cx="1265.24" cy="1256.17" fill="#f7c1ba" rx="28.64" ry="72.23" transform="rotate(-89.307 1265.305 1256.202)" className="colorf7c1ba svgShape"></ellipse>
                </g>
                <g>
                  <ellipse cx="850.62" cy="1251.04" fill="#f7c1ba" rx="28.64" ry="72.22" transform="rotate(-87.094 850.583 1251.048)" className="colorf7c1ba svgShape"></ellipse>
                </g>
                <g>
                  <path
                    fill="#38212a"
                    d="M973.37,1263.22c0,0-1.37,30.1,18.6,53.14c11.42,13.19,29.85,24.07,59.55,25.65
					c32.78,1.74,53.18-9.18,65.89-23.08c19.56-21.35,20.86-49.71,20.86-49.71S1083.79,1271.81,973.37,1263.22z"
                    className="color38212a svgShape"
                  ></path>
                </g>
                <g>
                  <path
                    fill="#d68e8e"
                    d="M991.96,1316.36c11.42,13.19,29.85,24.07,59.55,25.65c32.78,1.74,53.18-9.18,65.89-23.08
					C1101.59,1310.9,1049.53,1289.22,991.96,1316.36z"
                    className="colord68e8e svgShape"
                  ></path>
                </g>
                <g>
                  <path
                    fill="#38212a"
                    d="M1058.33,1348.94c-2.35,0-4.74-0.06-7.18-0.19c-27.87-1.48-49.5-10.89-64.3-27.97
					c-21.49-24.79-20.3-56.53-20.24-57.87c0.08-1.83,0.9-3.54,2.27-4.75c1.37-1.21,3.16-1.82,5-1.67
					c108.74,8.46,163.51,6.01,164.05,5.98c1.89-0.08,3.74,0.62,5.09,1.97c1.35,1.34,2.06,3.19,1.97,5.09
					c-0.06,1.26-1.65,31.07-22.62,53.97C1106.93,1340.4,1085.4,1348.94,1058.33,1348.94z M980.43,1270.53
					c0.9,9.57,4.28,27.14,16.64,41.4c12.3,14.2,30.74,22.05,54.81,23.33c26.23,1.39,46.6-5.64,60.55-20.89
					c11.87-12.96,16.41-29.03,18.11-38.18C1112.06,1276.54,1061.87,1276.63,980.43,1270.53z"
                    className="color38212a svgShape"
                  ></path>
                </g>
              </g>
            </svg>