<svg xmlns="http://www.w3.org/2000/svg" enableBackground="new 0 0 1937.49 2959.14" viewBox="0 0 1937.49 2959.14">
              <rect width="4000" height="4000" x="-1031.26" y="-520.43" fill="#ffffff" display="none" className="colorfff svgShape"></rect>
              <path
                fill="#38212a"
                d="M1345.16,2959.14c-13.93,0-27.54-1.06-40.45-3.14c-27.96-4.52-43.13-11.98-46.38-22.81
							c-2.8-9.33,0.09-26.17,7.48-66.76c5.72-31.37,13.54-74.32,20.04-126.2c4.86-38.92,8.35-77.91,10.35-115.87
							c7.87-149.45-4.79-354.73-8.34-407.25c-14.17,1.43-29.33,3.1-46.11,5.08c-21.72,33.95-116.37,185.06-187.99,349.02
							c-27.83,63.7-47.18,121.24-64.25,172.01l-0.24,0.72c-3.7,11.01-7.28,21.62-10.78,31.82c-21.36,62.2-41.97,115.91-78.05,143.25
							c-27.07,20.51-61.2,24.82-85.05,24.82c-36.13,0-67.71-9.32-83.77-17.3c-14.4-7.16-21.41-15.03-21.41-24.07
							c0-16.76,10.92-42.72,27.46-82.02c12.9-30.66,28.93-68.77,43.9-112.92c0.2-1.54,0.69-3.01,1.46-4.34
							c2.96-8.88,5.58-17.07,8.01-25c30.69-100.17,91.92-384.13,103.24-437.02c-86.32-16.65-144.87-48.6-147.37-49.98
							c-3.75-2.07-6.05-6.01-6.01-10.29c0.05-4.71,1.9-116.41,67.31-213.39c16.22-24.05,26.75-46.49,33.47-66.44
							c-15.08,31.86-32.72,52.15-52.59,60.43c-6.31,2.63-12.66,3.96-18.88,3.96c-0.16,0-0.33,0-0.49,0
							c-14.34,41.45-49.48,64.11-51.01,65.08c-1.87,1.18-4.02,1.8-6.22,1.8c-3.32,0-6.48-1.42-8.69-3.9
							c-2.27-2.56-4.71-5.12-7.29-7.68c-10.01,42.95-23.32,69.22-40.6,80.2c-5.9,3.75-12.18,5.65-18.65,5.65
							c-2.69,0-5.4-0.34-8.06-1.01c-10.93-2.8-17.73-13.66-15.49-24.74c1.04-5.1,1.34-11.41,1.33-17.13
							c-29.8,9.46-53.64,14.24-70.92,14.24c-13.46,0-23.17-2.77-29.67-8.47c-2.1-1.84-3.8-3.91-5.08-6.19
							c-15.81-0.68-23.32-8.52-26.55-13.65c-7.38-2.25-10.46-6.84-11.74-10.46c-4.79-13.56,7.85-25.59,38.4-54.64l1.9-1.8
							c31.13-29.64,42.8-45.98,42.92-46.14c14.97-21.4,20.99-56.61,21.98-63c-0.84-9.31-5.47-67.32,6.3-106.97
							c6.45-21.7,34.14-55.18,82.33-99.53c18.5-49.49,148.99-255.11,198.53-299.38c14.56-13,34.62-22.96,54.02-32.6
							c2.38-1.18,4.76-2.38,7.13-3.57c0.03-0.04,0.05-0.07,0.08-0.11c2.18-3.03,5.7-4.83,9.44-4.83c0.07,0,0.15,0,0.22,0
							c10.13-5.26,22.66-12.21,32.65-20.38c4.51-3.69,11.56-10.82,19.85-20.07c-100.66-21.55-163.13-57.9-198.11-85
							c-28.2-21.84-43.91-41.3-51.63-52.62c-8.91,2.43-17.57,3.74-25.8,3.92c17.85,87.56-1.03,180.01-52.23,254.68
							c-40.99,59.78-99.05,101.19-151.51,108.07c-10.03,1.31-19.92,1.98-29.4,1.98c-42.73,0-77.74-13.21-101.24-38.21
							c-22.53-23.96-31.77-56.61-25.36-89.56c13.63-70.08,84.18-74.84,84.89-74.88c0.23-0.01,0.42-0.02,0.62-0.02
							c3.68,0,7.18,1.75,9.36,4.69c2.34,3.15,2.93,7.22,1.59,10.9c-0.68,1.88-16.37,46.39,12.28,57.6c4.22,1.65,8.46,2.49,12.6,2.49
							c7.74,0,14.97-2.95,20.91-8.54c10.68-10.04,18.86-30.78,9.8-58.87c-11.05-34.28-20.75-50.42-61.75-50.42
							c-16.3,0-37.99,2.71-66.29,8.27c-33.89,6.67-66.39,10.05-96.59,10.05c-48.96,0-92.32-8.87-128.87-26.38
							c-43.83-20.99-78.32-54.61-102.49-99.94c-37.47-70.23-29.15-140.64-15.57-187.33c11.05-37.99,26.79-66.15,34.6-78.76
							C6.88,795.66-13.22,681.25,8.49,567.25c11.37-59.68,36.77-114.48,75.5-162.89c30.83-38.54,70.1-73.08,116.73-102.67
							c64.95-41.22,125-60.95,146.44-67.19c3-19.15,15.13-66.64,62.04-80.28c8.5-2.47,16.68-3.72,24.32-3.72
							c10.86,0,20.84,2.5,29.71,7.45c8.1-2.7,22.33-6.38,39.62-6.38c20.41,0,39.08,5.12,55.55,15.24
							C645.61,88,731.22,36.43,812.88,13.51C844.82,4.55,876.42,0,906.82,0c22.5,0,44.28,2.47,64.78,7.35
							c1.48-0.72,3.1-1.12,4.74-1.16c0.83-0.02,1.66-0.04,2.47-0.04c7.35-0.17,14.86-0.25,22.22-0.25
							c154.85,0,283.2,37.13,381.58,110.38c8.51-11.36,28.27-33.18,58.59-40.59c6.88-1.68,13.96-2.53,21.06-2.53
							c20.06,0,40.92,6.75,61.98,20.05c33.06,20.88,55.4,55.27,64.81,99.66c6.11-0.58,14.38-1.1,24.3-1.1
							c22.89,0,45.44,2.7,67.03,8.04c51.14,12.63,120.15,46.75,158.54,137.55c49.05,116.06,41.07,240.39,31.51,305.86
							c11.48,11.82,35.67,40.48,51.53,85.49c20.69,58.73,20.74,124.54,0.15,195.61c-20.61,71.14-54.04,120.19-102.22,149.93
							c-41.67,25.73-87.57,32.98-128.06,39.38c-16.17,2.55-31.44,4.97-45.3,8.36c-34.28,8.39-56.36,28.5-60.59,55.17
							c-3,18.92,4.15,37.87,17.39,46.06c5.36,3.31,11.15,4.99,17.23,4.99c5.38,0,10.84-1.32,16.24-3.93
							c22.58-10.92,39.32-41.08,43.69-78.72c0.59-5.06,4.34-9.1,9.34-10.07c0.73-0.14,1.47-0.21,2.2-0.21
							c4.27,0,8.19,2.33,10.22,6.09c1.19,2.19,28.86,54.18,13.21,101.25c-7.8,23.47-24.75,41.37-50.38,53.2
							c-16.42,7.58-32.79,11.42-48.66,11.42c-13.61,0-26.77-2.87-39.16-8.53c-17.55,4.35-34.32,6.56-49.87,6.56
							c-27.22,0-51.63-6.64-72.56-19.73c-17.26-10.8-28.74-23.96-35.92-34.45c-47.22,35.21-120.48,52.93-223.53,54.08
							c0.92,2.59,1.65,4.29,2.07,5.15c3.74,2.23,14.06,3.72,23.23,5.04c1.93,0.28,3.91,0.56,5.94,0.87
							c27.71,4.15,57.05,11.12,83.9,33.83c37.72,31.91,94.42,100.91,113.2,124.19c2-2.34,4.12-4.65,6.34-6.92
							c-3.46-8.77-5.28-18.27-5.28-27.69c0-41.46,33.73-75.19,75.19-75.19c39.35,0,72.22,31.03,74.96,69.91
							c27.39,10.08,50.96,28.8,67.06,53.23c7.73-2.63,15.82-3.96,24.11-3.96c41.45,0,75.17,33.72,75.17,75.17
							c0,36.77-26.22,67.66-61.84,74.01c2.87,22.47,5.97,66.73-8.89,94.06c-12.11,22.29-53.79,46.29-94.88,54.65
							c-9.95,2.03-19.54,3.05-28.5,3.05c-6.09,0-11.91-0.48-17.41-1.44c108.27,216.03,123.21,397.38,123.35,399.21
							c0.37,4.89-2.38,9.51-6.86,11.5c-22.1,9.82-45.52,15.37-75.49,17.85c-7.29,31.99-27.87,126.75-41.43,232.22
							c-5.46,42.49-7.66,100.19-9.99,161.28c-1.91,50.13-3.88,101.87-7.8,148.72c-6.68,79.85-17.92,128.59-35.36,153.41
							c-16.38,23.31-44.67,39.6-81.81,47.12C1379.11,2957.52,1362.11,2959.14,1345.16,2959.14z"
                className="color38212a svgShape"
              ></path>
              <path
                fill="#e8c8a2"
                d="M1910.92,921.07c-53.43,184.45-182.72,168.93-267.18,189.62s-82.75,99.98-46.55,122.4
								c36.2,22.4,86.2-12.07,94.82-86.2c0,0,53.58,98.95-31.82,138.36c-34.73,16.04-62.12,11.26-81.75,1.16
								c-110.73,29.42-150.39-40.47-156.44-52.79c38.94-34.34,49.05-79.19,51.07-122.94c4.52-97.14,29.03-153.63,44.91-196.55
								c8.33-22.54,14.28-41.33,13.71-60.32c45,44.05,82.73,61.87,149.97,53.47c0,0-72.36-58.47-94.8-193.07
								c-4.59-27.55-8.65-58.21-13.44-90.67c4.79,9.21,57.35,106.35,142.73,109.62c0,0-70.61-40.56-131.87-249.31l2.27-0.66
								c0,0,59.39,16.04,66.32-70.72c7.4-92.65-72.95-132.63-72.95-132.63s6.08-34.07-0.27-74.12c0,0,0.04,0,0.09-0.02l0.23-0.04
								c0,0,177.55-31.02,248.23,136.18c49,115.95,39.99,240.17,29.85,305.46C1873.38,661.79,1959.74,752.6,1910.92,921.07z"
                className="colore8c8a2 svgShape"
              ></path>
              <path
                fill="#ae756c"
                d="M1729.61,1558.79c0,9.83-2.23,19.16-6.22,27.48c-10.24,21.34-32.07,36.09-57.33,36.09
								c-15.7-8.1-25.31-3.77-31.18,5.45l-0.36-0.21c7.01-11.46,12.21-24.13,15.23-37.63c1.98-8.81,3.02-17.98,3.02-27.4
								c0-21.86-5.61-42.42-15.5-60.3l2.09-1.16c8.12-3.77,17.16-5.86,26.69-5.86C1701.15,1495.24,1729.61,1523.7,1729.61,1558.79z"
                className="colorae756c svgShape"
              ></path>
              <path
                fill="#e8c8a2"
                d="M1681.65,907.29c-67.23,8.4-104.97-9.42-149.97-53.47c-1.14-1.13-2.29-2.25-3.45-3.41
								c-45.8-45.82-73.26-61.57-74.1-62.05c-0.02-0.02-0.02-0.02-0.02-0.02l-1.97,0.05c0.54,18.2,0.23,29.25,0.23,29.25
								c-1.23-0.05-2.47-0.13-3.66-0.18c-31.64-1.84-53.47-8.92-68.09-16.46c-19.31-9.92-26.12-20.67-26.48-21.26l-0.02-0.02h-0.09
								c0.14,5.42,0.18,9.87,0.18,13.23c0,4.86-0.09,7.45-0.09,7.45c-51.77,13.85-94.6-5.92-126.8-33.36
								c-0.04-0.02-0.05-0.04-0.05-0.05c-29.59-25.19-50.18-56.88-60.44-74.85c-0.02-0.02-0.04-0.05-0.04-0.07
								c-1.05-1.86-2-3.56-2.84-5.08c-3.06-5.63-4.63-8.97-4.63-8.97l-2.34,0.89c0.02,0.02,0.02,0.02,0.02,0.04
								c2.45,6.36,4.92,12.48,7.42,18.31c0.04,0.11,0.09,0.21,0.13,0.3c28.87,67.61,58.81,99.52,61.78,102.59
								c0.02,0,0.02,0,0.02,0.04c0.04,0.04,0.07,0.07,0.11,0.11c0.04,0.04,0.05,0.05,0.07,0.07s0.04,0.04,0.04,0.04
								c-193.46,97.44-276.14-236.38-298.52-351.76v-0.07c-1.72-8.8-3.07-16.29-4.09-22.27v-0.02c-1.7-9.87-2.5-15.46-2.5-15.46
								l-0.43-0.04c-5.76,74.56-19.95,167.09-53,251.72c-53.68,137.47-123.29,186.77-169.29,204.35c0.07,0.36,0.13,0.72,0.2,1.07
								c30.87,171.72,134.04,238.19,134.04,238.19c-49.05-15-88.11-38.77-118.81-64.91c-0.41,2.63-1.14,6.86-2.25,12.19
								c-4.4,21.04-14.78,58.74-35.23,77.98c0,0,6.88,6.29,21.29,8.67l-0.59,3.4c44.82,184.45-86.2,346.5-191.35,360.28
								s-155.15-49.98-143.08-112.05c3.36-17.34,10.65-30.12,19.4-39.51c17.86-19.2,41.81-24.29,50.97-25.58
								c0.04,0,0.09,0,0.14-0.02c1.89-0.27,3.13-0.36,3.5-0.38c0.09-0.02,0.13-0.02,0.13-0.02s-0.07,0.18-0.18,0.5
								c-0.04,0.11-0.07,0.23-0.13,0.38c-0.07,0.2-0.14,0.39-0.21,0.64c-0.14,0.43-0.3,0.95-0.48,1.54
								c-0.05,0.11-0.09,0.21-0.11,0.34c-3.68,12.48-13.75,55.77,20.08,69c39.63,15.52,75.83-25.87,58.6-79.3
								c-17.23-53.43-36.2-70.67-141.35-49.98s-246.5,18.95-315.45-110.33c-68.97-129.28,22.4-260.28,22.4-260.28l0.04-0.02
								C19.44,797.35-1.83,683.56,19.91,569.42c28.83-151.4,143.83-238.19,231.71-283.5c56.15-28.98,101.23-41.03,105.78-42.21
								c0.07-0.02,0.14-0.04,0.2-0.04c0.13-0.04,0.18-0.05,0.18-0.05s0.02,0,0.04,0.02c0.02,0,0.04,0,0.04,0
								c3.15,0.63,104.35,21.2,171.2,116.27c26.49,37.65,47.59,86.99,55.08,151.38c1.31,11.08,2.2,22.6,2.61,34.59
								c0.16,3.77,0.25,7.6,0.3,11.48c0,0,110.33-27.58,82.75-118.95l-0.02-0.02c10.26-8.22,21.67-29.01,20.7-81
								c-1.73-93.08-89.44-116.57-89.44-116.57l-2.18,0.21c-4.49-20.11-15.59-41.63-39.4-59.47C758.9-1.75,904.38,0,978.87,21.26
								l-0.07-3.49c176.66-3.97,309.66,39.19,406.26,114.96c0,0,0,0,0.02,0.02c94.92,74.44,154.7,180.32,186.25,303.94
								c4.24,16.61,8.56,32.32,12.92,47.18c61.26,208.74,131.87,249.31,131.87,249.31c-73.44-2.82-122.6-75.1-137.93-101.09
								c-0.41-0.7-0.8-1.34-1.16-1.97c-1.86-3.2-3.07-5.49-3.63-6.56c4.79,32.46,8.85,63.12,13.44,90.67
								C1609.29,848.81,1681.65,907.29,1681.65,907.29z"
                className="colore8c8a2 svgShape"
              ></path>
              <path
                fill="#ffdfca"
                d="M1660.29,1721.31c-15.61,28.71-103.04,69.13-148.79,43.4c-2.34-1.32-4.59-2.82-6.7-4.51
								c-4.38-3.49-8.21-7.74-11.37-12.89c-20.4-33.2-19.09-56.78-11.05-67.68c5.68-7.69,14.71-9.08,21.88-3.11
								c0,0,6.79-33.55,33.52-14.77c0,0,13.51-29.23,35.18-8.28c0,0,10.76-31.46,37.17,2.68c4.86,6.29,10.26,14.8,16.21,26.15
								c0,0-2.84-36.54,8.54-54.51c4.54-7.15,11.35-11.35,21.49-9.12c2.95,0.64,6.17,1.84,9.69,3.66
								C1666.06,1622.36,1678.34,1688.09,1660.29,1721.31z"
                className="colorffdfca svgShape"
              ></path>
              <path
                fill="#cc4855"
                d="M1652.85,412.48c-6.94,86.75-66.32,70.72-66.32,70.72l-2.27,0.66c-4.36-14.86-8.69-30.57-12.92-47.18
								c-31.55-123.62-91.33-229.52-186.27-303.95l2.54-3.2c0,0,27.33-46.87,78.03-44.67c15.37,0.66,32.86,5.83,52.38,18.16
								c39.94,25.22,55.88,66.43,61.62,102.72c6.35,40.04,0.27,74.12,0.27,74.12S1660.25,319.83,1652.85,412.48z"
                className="colorcc4855 svgShape"
              ></path>
              <path
                fill="#ae756c"
                d="M1652.78,1562.57c0,23.83-6.67,46.09-18.25,65.03c-6.29,10.31-14.05,19.65-22.97,27.71l-1.43,0.86
								c-26.4-34.14-37.17-2.68-37.17-2.68c-21.67-20.95-35.18,8.28-35.18,8.28c-26.73-18.79-33.52,14.77-33.52,14.77
								c-7.17-5.97-16.2-4.58-21.88,3.11l-0.91-1.02c-46.05-18.41-78.58-63.43-78.58-116.05c0-7.31,0.63-14.48,1.84-21.45
								c3.06-17.7,9.83-34.11,19.49-48.41c5.7-8.42,12.37-16.11,19.9-22.88c22.15-20.04,51.5-32.21,83.72-32.21
								c12.08,0,23.76,1.72,34.81,4.92c32.07,9.28,58.83,31.07,74.65,59.74c1.32,2.4,2.57,4.83,3.72,7.31
								C1648.56,1525.67,1652.78,1543.62,1652.78,1562.57z"
                className="colorae756c svgShape"
              ></path>
              <path
                fill="#f07c7d"
                d="M1504.8,1760.21c-4.38-3.49-8.21-7.74-11.37-12.89c-20.4-33.2-19.09-56.78-11.05-67.68l-0.91-1.02
									c-46.05-18.41-78.58-63.43-78.58-116.05c0-5.13,0.3-10.17,0.91-15.14c2.43-20.11,9.62-38.74,20.41-54.72l-2.84-2.77
									c0,0-73.56-93.1-118.38-131.02c-26.1-22.08-55.31-27.8-78.12-31.21l-0.02,0.18c0,0-40.22,89.65-97.69,98.84
									c-54.18,8.67-177.87-77.71-191.78-87.58c-23.33,11.91-47.86,22.65-64.21,37.25c-43.49,38.86-156.04,212.69-188.61,279.41
									c-3.24,6.67-5.7,12.26-7.2,16.55l0.46,0.5c-31.34,28.62-74.53,71.58-82.11,97.09c-12.12,40.83-5.74,103.97-5.74,103.97
									c113.5-7.92,173.49,78.46,173.49,78.46s41.6,18.16,77.82-75.28c8.53-21.99,16-44.83,22.56-67.75
									c0.32,1.59,0.7,3.68,1.05,6.26c3.22,23.01,5.15,83.93-45.07,158.39C753.61,2069.2,752.5,2181,752.5,2181
									c0.02,0,0.04,0.02,0.05,0.02c1.95,1.07,65.12,35.41,155.54,50.86c43.48,7.44,93.23,10.49,145.51,3.38
									c65.95-8.97,126.44-17.39,181.32-23.95c22.15-2.65,43.37-4.99,63.68-6.92c53.59-5.15,100.77-7.58,141.37-5.67
									c49,2.31,88.08,4.02,121.33,2c30.62-1.86,56.28-6.88,80.16-17.5C1641.46,2183.22,1626.61,1988.95,1504.8,1760.21z
									 M1218.67,1515.48c-14.94,6.52-30.43-0.98-44.42-13.91c-26.53-24.45-47.73-68.32-49.93-72.92
									c2.02,4.72,20.81,50.25,13.89,100.32c-2.27,16.43-12.33,25.85-23.65,28.44c-17.72,4.08-38.49-8.6-37.11-37.45
									c2.23-47.27,46.69-91.69,46.69-91.69c0-0.02,0-0.02,0-0.02C1191.66,1409.69,1267.63,1494.08,1218.67,1515.48z"
                className="colorf07c7d svgShape"
              ></path>
              <path
                fill="#ae756c"
                d="M1563.49,1439.63l-0.86,2.9c-11.05-3.2-22.72-4.92-34.81-4.92c-22.77,0-44.14,6.1-62.51,16.75v0.02
								c-7.62,4.4-14.73,9.58-21.2,15.45l-0.29-0.32c-4.76-8.9-7.45-19.07-7.45-29.87c0-31.73,23.24-58.03,53.63-62.8
								c3.24-0.5,6.56-0.77,9.94-0.77C1535.03,1376.06,1563.49,1404.52,1563.49,1439.63z"
                className="colorae756c svgShape"
              ></path>
              <path
                fill="#ffdfca"
                d="M1561.31 2200.72c-2.86 12.14-28.08 121.27-43.56 241.71-10.05 78.17-9.17 206.88-17.84 310.51l-2.25-.18c-10.58 4.38-21.04 7.78-31.28 10.31-92.28 23.1-167.7-21.27-167.7-21.27l-1.29-.12c4.36-34.9 8.17-73.97 10.42-116.7 8.13-154.49-5.47-367.02-8.54-411.55-.38-5.47-.59-8.4-.59-8.4l-.05-.64c53.59-5.15 100.77-7.58 141.37-5.67C1488.98 2201.02 1528.06 2202.74 1561.31 2200.72zM1531.49 862.56c-3.66 52.32-51.9 107.81-58.42 248.13-2.02 43.74-12.14 88.6-51.07 122.94-40.88 36.06-113.53 60.55-241.96 59.98-18.88-.07-38.97-.7-60.33-1.91-41.13-2.32-78.03-6.86-111.08-13-212.23-39.35-266.43-143.87-266.43-143.87-18.98 6.58-33.64 6.95-44.23 5.22-14.41-2.38-21.29-8.67-21.29-8.67 25.62-24.08 35.43-77.15 37.49-90.17 29.73 25.31 67.32 48.43 114.23 63.48.04.02.07.04.11.04 1.48.46 2.97.93 4.47 1.39 0 0 0 0-.02-.02-1.59-1.04-103.81-68.07-134.22-239.24 46-17.57 115.61-66.88 169.29-204.35 33.05-84.63 47.25-177.16 53-251.72l.43.04c0 0 72.4 506.8 305.12 389.58 0 0-37.09-37.09-69.58-121.49l2.34-.89c0 0 72.4 155.13 194.8 122.38 0 0 .25-7.42-.09-20.68h.09c0 0 20.68 34.48 98.25 37.92 0 0 .3-11.05-.23-29.25l1.97-.05c0 0 27.58 15.52 74.12 62.07 1.16 1.16 2.31 2.29 3.45 3.41C1531.77 856.73 1531.7 859.64 1531.49 862.56z"
                className="colorffdfca svgShape"
              ></path>
              <path
                fill="#ae756c"
                d="M1499.9,2752.94c-5.51,65.79-14.86,121.47-33.29,147.7c-47.46,67.54-191.67,47.46-197.16,29.21
								c-0.8-2.7-0.73-7.51-0.02-14.28c3.04-27.64,17.2-88.17,27.94-173.88l1.29,0.12c0,0,75.42,44.37,167.7,21.27
								c10.24-2.54,20.7-5.94,31.28-10.31L1499.9,2752.94z"
                className="colorae756c svgShape"
              ></path>
              <path
                fill="#ffffe8"
                d="M1224.87,1327.7l-0.02,0.18c0,0-40.22,89.65-97.69,98.84c-54.18,8.67-177.87-77.71-191.78-87.58
								c6.47-3.27,12.82-6.65,18.9-10.23c7.19-4.22,13.98-8.72,20.04-13.68c0,0,112.62,67.81,142.51,60.91
								c29.87-6.88,72.4-57.45,72.4-57.45c3.91,3.33,10.55,5.06,18.98,6.51C1213.18,1326.06,1218.81,1326.81,1224.87,1327.7z"
                className="colorffffe8 svgShape"
              ></path>
              <path
                fill="#f07c7d"
                d="M1174.25,1501.57c-26.53-24.45-47.73-68.32-49.93-72.92c-0.09-0.2-0.14-0.32-0.18-0.38
								c0-0.02,0-0.02,0-0.02c67.52-18.57,143.49,65.82,94.53,87.22C1203.72,1522,1188.24,1514.5,1174.25,1501.57z"
                className="colorf07c7d svgShape"
              ></path>
              <path
                fill="#ffdfca"
                d="M1189.23 1318.69c0 0-42.53 50.57-72.4 57.45-29.89 6.9-142.51-60.91-142.51-60.91 4.97-4.08 11.39-10.64 17.32-17.09 8.35-9.08 15.77-17.98 16.98-19.47 33.05 6.13 69.95 10.67 111.08 13 21.36 1.22 41.46 1.84 60.33 1.91v.97c0 0 2.02 8.01 4.5 14.87C1186.04 1313.65 1187.72 1317.43 1189.23 1318.69zM1234.94 2211.3c-14.07 21.76-115.55 180.64-191.83 355.26-34.29 78.5-56.06 148.46-75.62 205.44l-2.88-.98c-9.51 1-18.72 1.3-27.6 1.02-84.81-2.68-139.63-58.46-143.76-62.82 3-8.96 5.99-18.18 8.88-27.64 34.68-113.19 105.88-449.2 105.88-449.2l.09-.5c43.48 7.44 93.23 10.49 145.51 3.38C1119.56 2226.28 1180.06 2217.86 1234.94 2211.3z"
                className="colorffdfca svgShape"
              ></path>
              <path
                fill="#f07c7d"
                d="M1114.56,1557.42c-17.72,4.08-38.49-8.6-37.11-37.45c2.23-47.27,46.69-91.69,46.69-91.69
								c0.04,0.05,0.09,0.18,0.18,0.38c2.02,4.72,20.81,50.25,13.89,100.32C1135.94,1545.4,1125.87,1554.82,1114.56,1557.42z"
                className="colorf07c7d svgShape"
              ></path>
              <path
                fill="#ae756c"
                d="M967.49,2772c-22.4,65.23-41.92,113.39-74.08,137.76c-60.24,45.64-171.6,10.96-171.6-7.29
								c0-5.95,1.89-13.93,5.18-23.83c11.58-34.68,40.49-92.92,66.25-169.42c4.13,4.36,58.96,60.14,143.76,62.82
								c8.88,0.29,18.09-0.02,27.6-1.02L967.49,2772z"
                className="colorae756c svgShape"
              ></path>
              <path
                fill="#ffffe8"
                d="M761.46,1952.38c-10.55,43.98-48.98,68.32-48.98,68.32c-6.99-7.87-14.53-14.96-22.38-21.38
								c-55.42-45.23-126.3-56.04-126.3-56.04c1.36-1.95,2.66-3.99,3.88-6.1c15.39-26.4,20.29-63.26,20.29-63.26
								c1.77-0.12,3.54-0.21,5.29-0.3C703.33,1868.68,761.46,1952.38,761.46,1952.38z"
                className="colorffffe8 svgShape"
              ></path>
              <path
                fill="#cc4855"
                d="M669.79,438.4c27.58,91.37-82.75,118.95-82.75,118.95c-0.16-13.09-0.86-25.63-2.02-37.67
								c-6.58-68.52-28.33-120.51-55.97-159.78c-67.91-96.57-171.27-116.29-171.27-116.29s3.7-63.43,54.67-78.25
								c22.65-6.58,38.54-2.31,49.52,5.49l0.05-0.09c0,0,5.9-2.52,15.41-4.65c18.95-4.22,52.31-6.83,82.04,15.43
								c23.81,17.84,34.91,39.36,39.4,59.47l2.18-0.21c0,0,87.7,23.49,89.44,116.57c0.97,51.98-10.44,72.77-20.7,81L669.79,438.4z"
                className="colorcc4855 svgShape"
              ></path>
              <path
                fill="#ffdfca"
                d="M690.1,1999.32l-1.23,1.48c-17.32,89.92-43.28,96.94-56.81,93.51c-4.9-1.25-7.96-6.22-6.95-11.17
								c2.91-14.27,0.86-35.29,0.86-35.29c-115.09,39.69-107.71,3.4-107.71,3.4c-24.96,3.4-27.23-11.91-27.23-11.91
								c-20.97-1.7-3.93-17.47,28.35-48.18c32.8-31.23,44.42-47.89,44.42-47.89S634.68,1954.1,690.1,1999.32z"
                className="colorffdfca svgShape"
              ></path>
              <path
                fill="#e2a383"
                d="M828.5 1104.71c1.48.46 2.97.93 4.47 1.39C831.54 1105.75 830.03 1105.29 828.5 1104.71zM1531.49 862.56c-1.38-.05-2.11-.09-2.11-.09l-60.78-36.38-1.77 14.07c-65.02 8.78-101.93-17.57-101.93-17.57-97.46 10.26-123.38-22.74-124.72-24.54l14.02 24.54C964.2 928.02 925.53 555.44 925.53 555.44c-45.69 284.72-195.09 335.68-195.09 335.68 20.92 120.25 101.2 213.44 102.5 214.96-1.59-1.04-103.81-68.07-134.22-239.24 46-17.57 115.61-66.88 169.29-204.35 33.05-84.63 47.25-177.16 53-251.72l.43.04c0 0 72.4 506.8 305.12 389.58 0 0-37.09-37.09-69.58-121.49l2.34-.89c0 0 72.4 155.13 194.8 122.38 0 0 .25-7.42-.09-20.68h.09c0 0 20.68 34.48 98.25 37.92 0 0 .3-11.05-.23-29.25l1.97-.05c0 0 27.58 15.52 74.12 62.07 1.16 1.16 2.31 2.29 3.45 3.41C1531.77 856.73 1531.7 859.64 1531.49 862.56z"
                className="colore2a383 svgShape"
              ></path>
              <path
                fill="#d7a276"
                d="M1226.57,800.4c-193.46,97.44-276.14-236.38-298.52-351.76v-0.07c-0.75-28.78-0.13-46.89-0.13-46.89
							c107.06,455.47,233.57,358.15,233.57,358.15c-91.47-109.01-54.49-350.36-54.49-350.36c-2.91,123.37,26.85,220.97,57.42,287.78
							c0.04,0.11,0.09,0.21,0.13,0.3c30.09,65.66,60.87,101.52,61.98,102.81C1226.55,800.38,1226.57,800.4,1226.57,800.4z"
                className="colord7a276 svgShape"
              ></path>
              <path
                fill="#d7a276"
                d="M1354.23 792.95c0 4.86-.09 7.45-.09 7.45-51.77 13.85-94.6-5.92-126.8-33.36-.04-.02-.05-.04-.05-.05-25.76-29.69-48.19-58.65-60.44-74.85-.02-.02-.04-.05-.04-.07-5.95-7.87-9.47-12.69-9.8-13.12 2.34 2.77 4.67 5.45 6.95 8.04 96.39 109.06 153.26 59.22 153.26 59.22 7.74-177.73-109.15-380.38-110.92-383.43 140.12 144.07 147.91 430.14 147.91 430.14S1354.21 792.93 1354.23 792.95zM1448.72 817.46c-31.64-1.84-53.47-8.92-68.09-16.46l-26.48-21.26c36.92 17.91 72.08 1.52 72.08 1.52 9.65-94.71-40.17-248.88-40.87-251.07 73.95 95.37 62.28 280.27 62.28 280.27L1448.72 817.46z"
                className="colord7a276 svgShape"
              ></path>
              <path
                fill="#d7a276"
                d="M1681.65 907.29c-67.23 8.4-104.97-9.42-149.97-53.47-1.14-1.13-2.29-2.25-3.45-3.41-45.8-45.82-73.26-61.57-74.1-62.05-.02-.02-.02-.02-.02-.02s20.77-3.18 85 43.53c52.77 38.38 90.31 52.13 91.46 52.54-64.19-44.8-67.22-153.74-99.23-342.57-34.25-201.91-184.93-350.38-184.93-350.38 179.62 88.06 223.83 383.16 230.62 438.65-1.86-3.2-3.07-5.49-3.63-6.56 4.79 32.46 8.85 63.12 13.44 90.67C1609.29 848.81 1681.65 907.29 1681.65 907.29zM924.03 425.05c0 0-.02.43-.07 1.23-1.7-9.87-2.5-15.46-2.5-15.46l-.43-.04c-5.76 74.56-19.95 167.09-53 251.72-53.68 137.47-123.29 186.77-169.29 204.35.07.36.13.72.2 1.07-28.24 5.85-47.53 7.49-47.53 7.49 101.22-72.02 144.17-267.4 144.17-267.4 23.35 62.28-27.26 179.07-27.26 179.07 126.53-132.36 153.77-523.6 153.77-523.6L924.03 425.05z"
                className="colord7a276 svgShape"
              ></path>
              <path
                fill="#d7a276"
                d="M651.39,875.41c0,0,14.95,87.03,88.5,160.58c0,0-64.36-32.18-124.11-135.61
							c0,0,66.61,170.08,217.18,205.7c0,0-92.63-61.32-134.22-239.24L651.39,875.41z"
                className="colord7a276 svgShape"
              ></path>
              <path
                fill="#e2a383"
                d="M1184.54,1309.43c-68.18,25.17-169-3.74-192.9-11.28c8.35-9.08,15.77-17.98,16.98-19.47
							c33.05,6.13,69.95,10.67,111.08,13c21.36,1.22,41.46,1.84,60.33,1.91v0.97C1180.04,1294.56,1182.06,1302.57,1184.54,1309.43z"
                className="colore2a383 svgShape"
              ></path>
              <path
                fill="#cc4855"
                d="M1641.46,2183.22c-23.88,10.62-49.54,15.64-80.16,17.5c-33.25,2.02-72.33,0.3-121.33-2
							c-40.6-1.91-87.77,0.52-141.37,5.67c-20.31,1.93-41.53,4.27-63.68,6.92c-54.88,6.56-115.37,14.98-181.32,23.95
							c-52.29,7.11-102.04,4.06-145.51-3.38c-90.42-15.45-153.59-49.79-155.54-50.86c-0.02,0-0.04-0.02-0.05-0.02
							c0,0,1.11-111.8,65.32-207.01c55.81-82.77,47.21-148.8,44.01-164.64c0,0,43.39-134.15,46.89-257.05
							c0,0,24.58,263.34-45.64,393.26c-70.24,129.93-63.24,192.44-45.69,213.52c9.87,11.84,49.83,28.91,109.03,36.89
							c5.57,0.75,41.55-178.7,47.41-178.13c2.98,0.29-20.69,180.69-17.64,180.93c40.63,3.25,85.72,2.01,135.11-7.43
							c39.9-7.62,74.12-13.04,106.73-16.92c6.66-0.79-2.43-247.17,3.94-247.84c2.9-0.3,24.95,245.05,27.79,244.77
							c91.77-9.07,152.76-6.13,200.31-8.89c4.5-0.26-15.05-152.94-10.81-153.32c5.28-0.47,34.29,151.32,39.21,150.61
							c26.13-3.75,47.42-11.22,67.26-26.77c80.39-63-99.93-434.54-181.61-668.47c0.75,1.04,24.06,33.2,59.65,82.89
							c-0.61,4.97-0.91,10.01-0.91,15.14c0,52.63,32.54,97.64,78.58,116.05l0.91,1.02c-8.04,10.9-9.35,34.48,11.05,67.68
							c3.16,5.15,6.99,9.4,11.37,12.89C1626.61,1988.95,1641.46,2183.22,1641.46,2183.22z"
                className="colorcc4855 svgShape"
              ></path>
              <path
                fill="#e2a383"
                d="M1561.31,2200.72c-2.86,12.14-28.08,121.27-43.56,241.71c-10.05,78.17-9.17,206.88-17.84,310.51
							l-2.25-0.18c-10.58,4.38-21.04,7.78-31.28,10.31c8.6-76.83,12.55-172.13,13.76-247.64c2.16-134.72,19.26-266.54-19.85-277.39
							c-35.16-9.78-137.69-10.76-159.7-10.85c-0.38-5.47-1.91-22.17-1.91-22.17l-0.05-0.64c53.59-5.15,100.77-7.58,141.37-5.67
							C1488.98,2201.02,1528.06,2202.74,1561.31,2200.72z"
                className="colore2a383 svgShape"
              ></path>
              <path
                fill="#77413c"
                d="M1499.9,2752.94c-5.51,65.79-14.86,121.47-33.29,147.7c-47.46,67.54-191.67,47.46-197.16,29.21
							c-0.8-2.7-0.73-7.51-0.02-14.28c53.11,10.55,142.69,10.83,167.23-24.22c13.37-19.09,22.95-68,29.69-128.26
							c10.24-2.54,20.7-5.94,31.28-10.31L1499.9,2752.94z"
                className="color77413c svgShape"
              ></path>
              <path
                fill="#e2a383"
                d="M1234.94,2211.3c-14.07,21.76-115.55,180.64-191.83,355.26c-34.29,78.5-56.06,148.46-75.62,205.44
							l-2.88-0.98c-9.51,1-18.72,1.3-27.6,1.02c32.68-87.93,64.18-203.36,106.36-291.37c76.05-158.62,104.31-221.63-4.34-219.45
							c-108.64,2.16-130.93-29.34-130.93-29.34c43.48,7.44,93.23,10.49,145.51,3.38C1119.56,2226.28,1180.06,2217.86,1234.94,2211.3
							z"
                className="colore2a383 svgShape"
              ></path>
              <path
                fill="#77413c"
                d="M967.49,2772c-22.4,65.23-41.92,113.39-74.08,137.76c-60.24,45.64-171.6,10.96-171.6-7.29
							c0-5.95,1.89-13.93,5.18-23.83c26.74,19.22,67.02,34.77,122.99,23.58c33.88-6.76,60.82-59.62,87.02-130.18
							c8.88,0.29,18.09-0.02,27.6-1.02L967.49,2772z"
                className="color77413c svgShape"
              ></path>
              <path
                fill="#cc4855"
                d="M862.89,1815.61c-0.36-2.57-0.73-4.67-1.05-6.26c-6.56,22.92-14.03,45.76-22.56,67.75
							c-36.22,93.44-77.82,75.28-77.82,75.28s-59.99-86.38-173.49-78.46c0,0-6.38-63.14,5.74-103.97
							c7.58-25.51,50.77-68.47,82.11-97.09l-0.46-0.5c1.5-4.29,3.97-9.89,7.2-16.55c14.73-4.84,24.47-7.13,25.12-7.28
							c-149.91,118.95-93.05,196.5-20.65,210.28c72.4,13.8,68.95,70.68,120.67,22.42c51.72-48.27,93.08-329.25,93.08-329.25
							C904.42,1615.3,878.84,1742.26,862.89,1815.61z"
                className="colorcc4855 svgShape"
              ></path>
              <path
                fill="#e9cfb6"
                d="M1224.87 1327.7l-.02.18c0 0-40.22 89.65-97.69 98.84-54.18 8.67-177.87-77.71-191.78-87.58 6.47-3.27 12.82-6.65 18.9-10.23 27.01 19.77 120.24 84.7 170.9 77.19 33.86-5.01 65.48-50.57 83.04-80.91C1213.18 1326.06 1218.81 1326.81 1224.87 1327.7zM761.46 1952.38c-10.55 43.98-48.98 68.32-48.98 68.32-6.99-7.87-14.53-14.96-22.38-21.38-55.42-45.23-126.3-56.04-126.3-56.04 1.36-1.95 2.66-3.99 3.88-6.1 23.38-.55 64.18 3.09 108.58 28.12 44.89 25.28 71.83 15.52 51.45-19.41-20.4-34.93-134.91-69.88-134.91-69.88.11-.82.27-1.63.46-2.4C703.33 1868.68 761.46 1952.38 761.46 1952.38z"
                className="colore9cfb6 svgShape"
              ></path>
              <path
                fill="#e2a383"
                d="M1660.29 1721.31c-15.61 28.71-103.04 69.13-148.79 43.4 23.26-4.38 111.1-22.81 130.5-54.15 12.8-20.68 14.93-61.05 14.37-91.87 2.95.64 6.17 1.84 9.69 3.66C1666.06 1622.36 1678.34 1688.09 1660.29 1721.31zM690.1 1999.32l-1.23 1.48c-17.32 89.92-43.28 96.94-56.81 93.51 24.33-19.63 42.9-76.9 25.67-94.16-17.25-17.23-93.92-56.88-93.92-56.88S634.68 1954.1 690.1 1999.32z"
                className="colore2a383 svgShape"
              ></path>
              <path
                fill="#77413c"
                d="M1465.31 1454.36v.02c-7.62 4.4-14.73 9.58-21.2 15.45l-.29-.32c-4.76-8.9-7.45-19.07-7.45-29.87 0-31.73 23.24-58.03 53.63-62.8C1483.58 1380.58 1450.37 1402.77 1465.31 1454.36zM1723.39 1586.27c-10.24 21.34-32.07 36.09-57.33 36.09-15.7-8.1-25.31-3.77-31.18 5.45l-.36-.21c7.01-11.46 12.21-24.13 15.23-37.63C1673.77 1608.22 1705.37 1596.1 1723.39 1586.27z"
                className="color77413c svgShape"
              ></path>
              <path
                fill="#77413c"
                d="M1652.78,1562.57c0,23.83-6.67,46.09-18.25,65.03c-6.29,10.31-14.05,19.65-22.97,27.71l-1.43,0.86
							c-26.4-34.14-37.17-2.68-37.17-2.68c-21.67-20.95-35.18,8.28-35.18,8.28c-26.73-18.79-33.52,14.77-33.52,14.77
							c-7.17-5.97-16.2-4.58-21.88,3.11l-0.91-1.02c-46.05-18.41-78.58-63.43-78.58-116.05c0-7.31,0.63-14.48,1.84-21.45
							c2.7,16.2,23.45,114,129.21,104.97c83.72-7.13,102.86-91.08,107.06-136.5C1648.56,1525.67,1652.78,1543.62,1652.78,1562.57z"
                className="color77413c svgShape"
              ></path>
              <path
                fill="#d7a276"
                d="M697.37 1143.43c44.82 184.45-86.2 346.5-191.35 360.28s-155.15-49.98-143.08-112.05c3.36-17.34 10.65-30.12 19.4-39.51 30.68-16.34 54.74-25.99 54.74-25.99s0 .02-.02.04c-1.07 2.25-59.49 122.49 60.17 108.79 161-18.39 161.25-264.44 161.25-264.44-27.58 6.9-47.3 6.45-47.3 6.45 44.82-44.83 37.92-111.13 37.92-111.13-25.02-37.21-96.53-134.46-96.53-134.46C376.73 755.58 483.6 586.64 497.4 483.23c13.68-102.65-136.97-237.71-139.59-239.59.02 0 .02 0 .04 0 175.62 63.78 216.7 203.15 226.28 267.65 3.13 20.95 2.91 34 2.91 34-.11.2-.21.39-.3.59-130.44 247.79 29.03 354.51 29.03 354.51 28.73 86.18 95.39 151.7 95.39 151.7s.25.45.75 1.3c-4.4 21.04-14.78 58.74-35.23 77.98 0 0 6.88 6.29 21.29 8.67L697.37 1143.43zM1910.92 921.07c-53.43 184.45-182.72 168.93-267.18 189.62s-82.75 99.98-46.55 122.4c36.2 22.4 86.2-12.07 94.82-86.2 0 0 53.58 98.95-31.82 138.36-34.73 16.04-62.12 11.26-81.75 1.16-110.73 29.42-150.39-40.47-156.44-52.79 38.94-34.34 49.05-79.19 51.07-122.94 4.52-97.14 29.03-153.63 44.91-196.55-53.47 267.66 37.88 338.49 40.11 340.17-59.73-91.92-36.18-191.33 188.49-234.4 192.08-36.81 112.46-298.73 112.46-298.73-13.85 69.29-39.26 90.06-39.26 90.06 68.95-501.04-240.15-605.49-240.15-605.49s.04 0 .09-.02l.23-.04c0 0 177.55-31.02 248.23 136.18 49 115.95 39.99 240.17 29.85 305.46C1873.38 661.79 1959.74 752.6 1910.92 921.07z"
                className="colord7a276 svgShape"
              ></path>
              <path
                fill="#d7a276"
                d="M1716.13,733.17c-73.44-2.82-122.6-75.1-137.93-101.09c-2.57-8.54-3.84-13.89-3.93-14.34
							c33.45,61.83,83.59,78.57,83.59,78.57c-35.11-41.81-90.29-163.87-117.05-302.67c-26.53-137.7-153.74-258.99-155.72-260.89
							c94.92,74.44,154.7,180.32,186.25,303.94c4.24,16.61,8.56,32.32,12.92,47.18C1645.52,692.61,1716.13,733.17,1716.13,733.17z"
                className="colord7a276 svgShape"
              ></path>
              <path
                fill="#f07c7d"
                d="M357.85 243.64c0 0 99.11-23.29 201.09 131.13 55.83 84.53 34.88 112.7 59.03 122.09 24.15 9.39 33.54-50.98 33.54-50.98s48.3-144.9-48.3-177.1c0 0-45.62-101.97-126.12-80.5C477.1 188.28 390.2 147.4 357.85 243.64zM1385.08 132.75c0 0 74.21-48.3 124.77 9.16 50.56 57.46 48.9 138.7 48.9 138.7s46.09 40.03 65.06 88.98c11.38 29.37 8.85 69.3-7.65 85.15-29.63 28.47-16.39-44.08-89.93-175.09C1452.68 148.64 1385.08 132.75 1385.08 132.75z"
                className="colorf07c7d svgShape"
              ></path>
              <path
                fill="#c1a2a0"
                d="M357.81 243.64c-.04.02-.11.02-.21.04.13-.04.18-.05.18-.05S357.79 243.62 357.81 243.64zM436.95 1326.18c-.38.04-1.57.16-3.5.38C435.34 1326.29 436.57 1326.2 436.95 1326.18z"
                className="colorc1a2a0 svgShape"
              ></path>
              <path
                fill="#f9e4cf"
                d="M491.87 1415.28c-72.09 7.21-61.13-68.89-55.91-85.71-3.68 12.48-13.75 55.77 20.08 69 39.63 15.52 75.83-25.87 58.6-79.3-17.23-53.43-36.2-70.67-141.35-49.98s-246.5 18.95-315.45-110.33c-68.97-129.28 22.4-260.28 22.4-260.28l.04-.02C19.44 797.35-1.83 683.56 19.91 569.42c28.83-151.4 143.83-238.19 231.71-283.5-48.89 29.44-106.88 78.87-156.28 161.23-130.41 217.32 2.82 473.78 2.82 473.78s-59.22 70.5-31.03 186.13c28.21 115.64 176.51 172.04 341.24 141.01C565.49 1218.48 566.99 1407.77 491.87 1415.28zM577.61 199.12c0 0 232.94-234.9 454.14-148.77 0 0-175.29-136.92-472.29 131.2L577.61 199.12zM1107.01 409.48c0 0 45.67 242.22 120.27 357.51 0 0-64.38-35.43-87.87-135.27S1107.01 409.48 1107.01 409.48zM1206.3 362.79c0 0 161.07 122.01 174.33 438.21l-26.48-21.26C1354.15 779.74 1351.48 538.2 1206.3 362.79zM1391.93 529.94c0 0 76.34 103.75 86.13 272.09l-23.92-13.67C1454.14 788.35 1452.61 633.68 1391.93 529.94zM789.02 602.36c0 0-49.14 157.82-141.07 269.29C647.95 871.66 760.57 809.6 789.02 602.36z"
                className="colorf9e4cf svgShape"
              ></path>
              <path
                fill="#38212a"
                d="M832.96,1112.37c-0.61,0-1.22-0.09-1.83-0.27c-44.9-13.73-85.62-35.98-121.03-66.13
								c-74.32-63.26-100.14-138.87-101.2-142.06c-1.09-3.28,0.68-6.82,3.96-7.91c3.28-1.1,6.82,0.68,7.91,3.95l0,0
								c0.25,0.75,25.9,75.6,97.44,136.49c25.22,21.48,53.25,38.79,83.64,51.7c-8.7-8.49-18.83-19.46-29.45-33.13
								c-27.56-35.46-63.78-96.69-79.83-187.06l-0.36-2.05c-0.61-3.4,1.65-6.65,5.06-7.26c3.4-0.6,6.65,1.66,7.26,5.06l0.35,2.03
								c15.56,87.58,50.46,146.82,77,181.11c28.78,37.17,54.22,53.86,54.47,54.02c2.62,1.7,3.59,5.07,2.27,7.89
								C837.59,1111,835.34,1112.37,832.96,1112.37z"
                className="color38212a svgShape"
              ></path>
              <path
                fill="#38212a"
                d="M652.83,882.71c-2.12,0-3.34-0.09-3.53-0.11c-2.61-0.22-4.81-2.05-5.51-4.58s0.26-5.22,2.4-6.75
								C708.1,827.04,742.54,757.53,760.52,707c19.62-55.11,24.48-100.27,24.53-100.72c0.36-3.44,3.43-5.93,6.87-5.58
								c3.44,0.36,5.93,3.43,5.58,6.87c-0.2,1.89-5.02,46.86-25.08,103.32c-16.92,47.63-48.04,111.62-102.27,157.55
								c7.25-1.3,16.2-3.56,26.35-7.44c46.8-17.88,113.54-67.23,165.7-200.78c27.54-70.51,45.23-154.6,52.59-249.92
								c6.44-83.39,2.2-144.94,2.16-145.55c-0.25-3.45,2.35-6.44,5.8-6.69c3.46-0.24,6.44,2.35,6.69,5.8
								c0.04,0.62,4.35,63.02-2.17,147.41c-7.46,96.56-25.43,181.85-53.41,253.51c-53.82,137.81-123.72,189.13-172.89,207.91
								C677.62,881.62,660.03,882.71,652.83,882.71z"
                className="color38212a svgShape"
              ></path>
              <path
                fill="#38212a"
                d="M1159.25,824.24c-20.13,0-39.55-4.85-58.14-14.56C1042.96,779.33,994,702.95,955.56,582.65
								c-28.4-88.89-40.19-170.14-40.3-170.95c-0.49-3.42,1.89-6.59,5.31-7.08c3.43-0.49,6.59,1.89,7.08,5.31
								c0.46,3.19,47.12,319.69,179.25,388.66c33.52,17.5,70.29,17.41,109.42-0.23c-11.89-14.04-39.82-51.33-65.17-117.2
								c-29.99-77.85-46.16-168.77-48.06-270.22c-0.06-3.45,2.68-6.31,6.14-6.37c3.48-0.04,6.31,2.68,6.37,6.14
								c1.87,99.99,17.75,189.48,47.22,265.96c31.53,81.92,67.8,118.95,68.17,119.32c1.41,1.42,2.06,3.44,1.74,5.42
								c-0.32,1.98-1.57,3.69-3.36,4.59C1205.24,818.15,1181.79,824.24,1159.25,824.24z"
                className="color38212a svgShape"
              ></path>
              <path
                fill="#38212a"
                d="M1320.75,811.14c-40.19,0-79.2-18.73-114.42-55.31c-33.73-35.04-51.91-73.54-52.66-75.17
								c-1.46-3.13-0.11-6.85,3.02-8.31c3.13-1.46,6.85-0.11,8.32,3.02c0.18,0.38,18.19,38.48,50.56,72.01
								c41.23,42.71,85.75,58.88,132.4,48.12c0.03-3.46,0.01-8.75-0.17-15.62c-1.59-57.65-16.62-257.62-143.27-409.87
								c-2.21-2.66-1.85-6.6,0.81-8.81c2.66-2.21,6.6-1.85,8.81,0.81c55.06,66.19,95.62,147.84,120.56,242.68
								c20.2,76.82,24.71,142.53,25.6,174.86c0.34,13.31,0.1,20.76,0.09,21.07c-0.09,2.75-1.98,5.12-4.64,5.83
								C1344.03,809.58,1332.34,811.14,1320.75,811.14z"
                className="color38212a svgShape"
              ></path>
              <path
                fill="#38212a"
                d="M1452.39 823.89c-.09 0-.18 0-.28-.01-80.01-3.54-102.42-39.42-103.34-40.95-1.78-2.96-.82-6.81 2.15-8.58 2.95-1.77 6.77-.82 8.56 2.11.35.55 19.66 29.86 86.73 34.56.02-5-.02-12.7-.31-22.44-1.52-50.78-10.65-177.16-62.48-253.58-1.94-2.86-1.19-6.75 1.67-8.69 2.86-1.94 6.75-1.19 8.69 1.67 51.73 76.28 62.7 195.78 64.63 260.23.54 18.17.25 29.15.23 29.61-.05 1.68-.76 3.26-1.99 4.41C1455.49 823.29 1453.96 823.89 1452.39 823.89zM1573.4 629.79c-3.05 0-5.72-2.24-6.18-5.34-23.57-159.86-63.38-338.54-238.54-435.69-3.02-1.68-4.11-5.48-2.44-8.51 1.68-3.02 5.49-4.11 8.51-2.44 82.53 45.77 142.48 112.64 183.26 204.42 34.38 77.36 49.91 161.25 61.58 240.39.5 3.42-1.86 6.6-5.28 7.1C1574.01 629.77 1573.71 629.79 1573.4 629.79z"
                className="color38212a svgShape"
              ></path>
              <path
                fill="#38212a"
                d="M1651.84,915.52c-54.38,0-88.12-21.58-124.53-57.23l-0.17-0.16c-1.1-1.09-2.21-2.18-3.33-3.3
								c-45.19-45.21-72.5-60.89-72.77-61.04c-3-1.7-4.07-5.52-2.37-8.52c1.7-3.01,5.51-4.07,8.51-2.38
								c1.16,0.65,28.87,16.47,75.47,63.1c1.1,1.1,2.18,2.16,3.26,3.23l0.15,0.15c38.23,37.42,71.42,57.45,131.27,53.07
								c-21.26-21.83-68.98-81.06-86.67-187.18c-3.11-18.62-5.95-38.54-8.96-59.62c-1.45-10.16-2.94-20.57-4.5-31.16
								c-0.5-3.42,1.86-6.6,5.28-7.1c3.42-0.51,6.6,1.86,7.1,5.28c1.57,10.61,3.06,21.04,4.51,31.22c3,21.01,5.83,40.86,8.92,59.34
								c21.79,130.74,91.85,188.66,92.56,189.23c1.95,1.58,2.77,4.17,2.09,6.58c-0.69,2.41-2.75,4.18-5.24,4.49
								C1671.52,914.86,1661.36,915.52,1651.84,915.52z"
                className="color38212a svgShape"
              ></path>
              <path
                fill="#38212a"
                d="M1716.14,739.43c-0.08,0-0.16,0-0.24,0c-88.5-3.39-142.2-101.78-148.04-112.98
								c-0.05-0.09-0.09-0.18-0.13-0.27l-0.18-0.34c-1.64-3.04-0.51-6.83,2.53-8.47c3.04-1.64,6.83-0.52,8.48,2.52l0.41,0.77
								c0.05,0.09,0.09,0.19,0.14,0.28c5.61,10.7,47.92,87.38,116.55,103.21c-25.24-25.24-73.67-89.54-117.39-238.52
								c-4.52-15.39-8.89-31.34-12.98-47.39c-33.09-129.63-95.02-230.75-184.07-300.58C1280.32,58.53,1144.99,20.28,978.94,24.03
								c-0.8,0-1.48,0.02-2.16,0.04c-3.51,0.04-6.32-2.64-6.41-6.1c-0.09-3.45,2.64-6.32,6.1-6.41c0.78-0.02,1.57-0.04,2.34-0.04
								c168.88-3.78,306.91,35.33,410.12,116.3c91.28,71.56,154.69,174.96,188.47,307.33c4.06,15.91,8.39,31.71,12.87,46.96
								c59.86,203.97,128.3,245.25,128.99,245.64c2.5,1.43,3.69,4.39,2.9,7.15C1721.38,737.59,1718.92,739.43,1716.14,739.43z"
                className="color38212a svgShape"
              ></path>
              <path
                fill="#38212a"
                d="M559.46 187.81c-1.69 0-3.37-.68-4.61-2.02-2.34-2.54-2.17-6.5.37-8.84 88.92-81.73 176.1-134.98 259.11-158.28C888.62-2.18 945.75 5.3 980.59 15.24c37.63 10.74 57.68 26.29 58.51 26.95 2.72 2.14 3.19 6.07 1.05 8.79-2.13 2.71-6.06 3.19-8.78 1.06l0 0c-.19-.15-19.16-14.75-54.22-24.76-33.29-9.5-87.97-16.61-159.44 3.45-81.1 22.76-166.56 75.06-254.02 155.44C562.49 187.27 560.97 187.81 559.46 187.81zM587.04 563.61c-1.37 0-2.71-.45-3.82-1.3-1.52-1.17-2.41-2.96-2.44-4.88-.98-76.45-20.11-141.69-56.85-193.93-65.57-93.23-166.32-113.55-167.33-113.74-3.08-.59-5.25-3.38-5.07-6.51.16-2.77 4.59-68.02 59.17-83.89 21.61-6.27 40.08-4.12 54.89 6.4 19.48 13.81 24.94 37.13 25.16 38.11.76 3.37-1.35 6.72-4.72 7.48-3.37.77-6.72-1.35-7.48-4.72-.04-.18-4.71-19.69-20.2-30.67-11.55-8.2-26.4-9.74-44.15-4.58-37.85 11-47.35 52.59-49.55 67.37 23.02 5.67 109.29 31.9 169.53 117.56 36.87 52.41 56.68 117.18 58.95 192.62 15.31-5.27 49.78-19.83 65.98-48.43 9.91-17.5 11.49-37.78 4.7-60.29-1-3.31.87-6.8 4.18-7.8 3.31-1 6.8.87 7.8 4.18 7.83 25.93 5.87 49.53-5.83 70.13-23.77 41.88-79.06 56.11-81.4 56.7C588.06 563.55 587.55 563.61 587.04 563.61z"
                className="color38212a svgShape"
              ></path>
              <path
                fill="#38212a"
                d="M656.02,449.94c-1.54,0-2.55-0.16-2.86-0.22c-3.4-0.62-5.66-3.87-5.04-7.27
								c0.61-3.36,3.8-5.61,7.16-5.06c0.37,0.05,5.11,0.52,10.57-3.88c7.29-5.84,19.35-23.47,18.37-76.01
								c-0.68-36.47-15.02-66.12-42.63-88.11c-20.89-16.64-41.97-22.48-42.18-22.54c-3.33-0.9-5.31-4.33-4.41-7.67
								c0.9-3.33,4.32-5.31,7.66-4.42c0.95,0.25,23.44,6.41,46.33,24.52c21.26,16.81,46.8,47.46,47.74,97.98
								c0.82,44.15-6.93,73.08-23.04,86C666.58,448.99,659.76,449.94,656.02,449.94z"
                className="color38212a svgShape"
              ></path>
              <path
                fill="#38212a"
                d="M594.56 312.82c-.76 0-1.54-.14-2.29-.44-3.21-1.26-4.8-4.89-3.54-8.1.14-.35 11.23-29.46 4.01-61.89-4.99-22.36-17.45-41.15-37.04-55.83-41.1-30.77-90.74-10.24-91.24-10.03-3.18 1.35-6.85-.13-8.21-3.3-1.35-3.17.11-6.84 3.29-8.2 2.29-.98 56.67-23.65 103.66 11.52 22.05 16.52 36.1 37.76 41.76 63.12 8.08 36.33-4.05 67.86-4.57 69.19C599.42 311.32 597.06 312.82 594.56 312.82zM614.83 908.18c-1.42 0-2.84-.48-4.01-1.46-54.84-45.91-89.07-128.93-85.19-206.61 3.49-69.85 44.63-137.91 57.63-147.75 2.75-2.08 6.68-1.54 8.77 1.22 2.08 2.76 1.54 6.68-1.22 8.77-9.08 6.87-49.27 70.12-52.68 138.39-3.7 73.95 28.74 152.87 80.72 196.39 2.65 2.22 3 6.16.78 8.81C618.4 907.42 616.62 908.18 614.83 908.18zM473.27 1197.96c-.68 0-1.37-.11-2.05-.35-91.28-31.67-172.03-73.81-240.02-125.26-65.57-49.61-118.15-106.97-156.29-170.48C12.98 798.74-8.16 683.37 13.76 568.25 24.96 509.44 50 455.42 88.18 407.7c30.46-38.07 69.29-72.22 115.41-101.49 78.39-49.75 149.67-67.91 152.67-68.66 3.36-.84 6.75 1.2 7.59 4.55.84 3.35-1.2 6.75-4.55 7.59-.72.18-72.61 18.54-149.32 67.29C139.59 361.72 50.54 442.03 26.05 570.59 4.71 682.65 25.32 794.97 85.64 895.43c77 128.21 211.75 228.62 389.68 290.36 3.26 1.13 4.99 4.7 3.86 7.96C478.29 1196.34 475.86 1197.96 473.27 1197.96z"
                className="color38212a svgShape"
              ></path>
              <path
                fill="#38212a"
                d="M478.13,1511.86c-40.89,0-74.83-12.58-97.33-36.51c-21.33-22.69-30.08-53.62-24.01-84.87
								c12.85-66.07,79.26-70.51,79.93-70.55c2.08-0.11,4.12,0.83,5.37,2.52c1.25,1.69,1.58,3.89,0.86,5.87
								c-0.75,2.08-18.1,51.34,15.37,64.44c14.16,5.54,28.42,2.94,39.14-7.14c11.87-11.17,21.05-33.95,11.23-64.42
								c-15.88-49.25-31.57-65.95-134.19-45.76c-108.02,21.25-251.6,18.8-322.18-113.53c-36.62-68.64-28.45-137.57-15.15-183.31
								c14.34-49.33,36.98-82.12,37.94-83.49c1.98-2.83,5.87-3.53,8.71-1.55c2.83,1.97,3.53,5.87,1.56,8.71
								c-0.22,0.32-22.57,32.76-36.3,80.22c-18.27,63.14-13.46,121.53,14.29,173.54c66.97,125.57,204.84,127.57,308.72,107.14
								c105.4-20.73,129.53-4.65,148.51,54.2c9.72,30.13,4.14,59.78-14.56,77.37c-14.17,13.33-33.71,16.94-52.27,9.67
								c-31.08-12.17-31.15-47.35-25.49-70.61c-16.66,3.54-50.81,15.98-59.19,59.08c-5.3,27.25,2.3,54.19,20.84,73.91
								c24.75,26.32,65.7,37.24,115.29,30.74c47.58-6.24,100.88-44.73,139.09-100.45c50.8-74.08,67.93-165.99,46.99-252.15
								c-0.82-3.36,1.24-6.74,4.6-7.56c3.35-0.82,6.74,1.24,7.56,4.6c21.77,89.61,3.97,185.17-48.83,262.18
								c-40.16,58.56-96.78,99.1-147.78,105.78C496.95,1511.21,487.36,1511.86,478.13,1511.86z"
                className="color38212a svgShape"
              ></path>
              <path
                fill="#38212a"
                d="M1184.5,1299.86c-1.49,0-2.98,0-4.49-0.01c-19.09-0.07-39.51-0.72-60.66-1.92
								c-39.41-2.23-77.05-6.63-111.87-13.09c-110.86-20.55-178.38-59.14-215.49-87.9c-31.28-24.23-46.83-45.55-52.62-54.63
								c-15.34,4.68-29.59,5.99-42.42,3.9c-15.79-2.61-23.66-9.45-24.5-10.23c-1.28-1.17-2.02-2.83-2.03-4.57
								c-0.01-1.74,0.7-3.41,1.97-4.6c24.49-23.02,33.95-76.17,35.59-86.59c0.29-1.77,0.42-2.75,0.43-2.79
								c0.47-3.42,3.63-5.81,7.05-5.34c3.42,0.47,5.82,3.62,5.35,7.05c0,0-0.15,1.09-0.47,3.07c-2.29,14.48-11.18,61.13-33.85,87.89
								c2.97,1.39,7.13,2.89,12.5,3.78c12.1,1.98,25.94,0.31,41.16-4.96c2.94-1.02,6.17,0.27,7.6,3.03
								c0.13,0.24,13.79,25.78,52.67,55.7c35.98,27.69,101.51,64.9,209.35,84.89c34.31,6.36,71.42,10.7,110.3,12.9
								c20.94,1.19,41.13,1.83,60,1.9c114.91,0.52,192.65-18.6,237.8-58.41c40.18-35.44,47.27-81.96,48.96-118.53
								c4.16-89.35,25.33-145.48,40.79-186.47c10.31-27.33,18.45-48.91,17.82-69.93c0-0.06,0-0.12,0-0.19c0-3.46,2.8-6.31,6.26-6.31
								c3.46,0,6.26,2.75,6.26,6.2c0.7,23.41-7.83,46.02-18.62,74.64c-15.16,40.2-35.93,95.26-40,182.63
								c-1.66,35.99-8.98,88.35-53.19,127.34C1379.19,1279.71,1300.11,1299.86,1184.5,1299.86z"
                className="color38212a svgShape"
              ></path>
              <path
                fill="#38212a"
                d="M675.35,1678.62c-0.69,0-1.39-0.12-2.07-0.36c-3.26-1.15-4.97-4.72-3.83-7.98
								c16.41-46.69,147.77-254.07,197.55-298.55c14.02-12.52,33.74-22.31,52.82-31.79c4.24-2.11,8.5-4.22,12.72-6.37
								c12.39-6.3,26.57-13.97,37.82-23.17c10.1-8.25,27.56-28.56,33.44-35.69c0.01-0.02,0.11-0.13,0.13-0.15l4.88,3.91l4.99,3.77
								c0,0-0.13,0.19-0.45,0.55c-0.11,0.13-21.94,26.58-35.06,37.29c-12.17,9.95-27.08,18.04-40.06,24.63
								c-4.25,2.17-8.55,4.3-12.83,6.43c-19.18,9.53-37.3,18.52-50.05,29.91c-47.37,42.33-178.38,248.69-194.08,293.37
								C680.35,1677.01,677.93,1678.62,675.35,1678.62z"
                className="color38212a svgShape"
              ></path>
              <path
                fill="#38212a"
                d="M587.96 1880.18c-3.17 0-5.89-2.4-6.22-5.63-.27-2.63-6.36-64.84 5.97-106.38 7.86-26.44 49.95-68.94 83.89-99.93 18.7-17.08 33.42-29.29 33.57-29.41 2.66-2.2 6.61-1.83 8.81.83 2.2 2.66 1.83 6.61-.83 8.81-.14.12-14.65 12.15-33.11 29.01-46.31 42.3-74.84 75.77-80.33 94.25-11.63 39.19-5.57 100.94-5.51 101.56.35 3.44-2.16 6.51-5.6 6.85C588.38 1880.17 588.17 1880.18 587.96 1880.18zM770.2 1960.08c-6.44 0-10.54-1.66-11.25-1.97-3.17-1.38-4.61-5.07-3.23-8.24 1.37-3.14 5.01-4.59 8.16-3.26.46.18 7.84 2.93 18.88-1.87 12.94-5.63 32.24-22.33 50.68-69.9 7.95-20.5 15.48-43.11 22.38-67.21 35.99-125.87 44.1-256.16 44.17-257.46.21-3.45 3.16-6.08 6.62-5.87 3.45.21 6.08 3.17 5.87 6.62-.08 1.31-8.26 132.93-44.63 260.16-7.01 24.47-14.66 47.44-22.74 68.29-16.25 41.91-35.79 67.88-58.1 77.17C780.49 1959.25 774.76 1960.08 770.2 1960.08zM1421.37 1496.19c-1.85 0-3.68-.82-4.91-2.38-.73-.93-73.69-93.04-117.51-130.12-23.45-19.83-49.9-26.04-75.01-29.8-2-.3-3.95-.58-5.85-.86-14.57-2.1-26.07-3.77-32.92-9.57-4.51-3.81-8.59-16.99-11.21-27.37-.85-3.35 1.18-6.75 4.53-7.6 3.36-.85 6.75 1.18 7.6 4.53 2.34 9.26 5.72 18.97 7.31 21.01 4.21 3.39 14.53 4.89 26.47 6.61 1.92.28 3.89.56 5.91.86 26.93 4.03 55.4 10.77 81.23 32.62 44.78 37.89 116.23 128.09 119.25 131.91 2.14 2.71 1.68 6.65-1.03 8.79C1424.1 1495.75 1422.73 1496.19 1421.37 1496.19zM1193.27 1313.92c.01 0 .01.01.01.01C1193.28 1313.93 1193.27 1313.92 1193.27 1313.92z"
                className="color38212a svgShape"
              ></path>
              <path
                fill="#38212a"
                d="M1112.38,1382.84c-36.8,0-130.19-55.55-141.29-62.23c-2.96-1.78-3.92-5.63-2.13-8.59
								c1.78-2.96,5.63-3.91,8.59-2.13c42.71,25.71,117.88,64.78,137.88,60.17c22.84-5.26,57.56-41.76,69.02-55.39
								c2.22-2.64,6.17-2.99,8.82-0.76c2.64,2.22,2.99,6.17,0.76,8.82c-1.79,2.13-44.24,52.26-75.78,59.53
								C1116.49,1382.65,1114.53,1382.84,1112.38,1382.84z"
                className="color38212a svgShape"
              ></path>
              <path
                fill="#38212a"
                d="M1119.09,1433.58c-58.32,0-165.45-73.81-187.33-89.33l-1.32-0.93c-2.81-2.02-3.45-5.93-1.43-8.73
								c2.02-2.8,5.93-3.45,8.73-1.43l1.23,0.87c49.77,35.31,145.18,93.24,187.19,86.52c53.44-8.55,92.59-94.36,92.98-95.22
								c1.42-3.15,5.12-4.56,8.27-3.14c3.15,1.41,4.56,5.12,3.15,8.27c-1.7,3.79-42.3,92.84-102.42,102.46
								C1125.29,1433.36,1122.26,1433.58,1119.09,1433.58z"
                className="color38212a svgShape"
              ></path>
              <path
                fill="#38212a"
                d="M1108.05,1564.41c-8.26,0-16.41-2.87-22.83-8.24c-9.78-8.17-14.76-21.14-14.03-36.51
								c2.32-49.12,46.64-93.93,48.52-95.82c2.44-2.44,6.4-2.44,8.84,0c0.57,0.57,1.01,1.23,1.31,1.93
								c0.07,0.13,0.13,0.27,0.19,0.41c2.22,5.18,21.46,52.08,14.34,103.64c-2.43,17.57-13.06,30.16-28.45,33.68
								C1113.34,1564.12,1110.69,1564.41,1108.05,1564.41z M1121.95,1440.01c-12.09,14.14-36.68,46.82-38.26,80.26
								c-0.54,11.37,2.85,20.71,9.55,26.31c5.48,4.58,12.92,6.35,19.91,4.75c10.12-2.32,17.17-10.99,18.85-23.2
								C1137.16,1490.81,1127.53,1456.06,1121.95,1440.01z"
                className="color38212a svgShape"
              ></path>
              <path
                fill="#38212a"
                d="M1207.22 1524.18c-11.77 0-24.23-6.02-37.22-18.01l0 0c-26.42-24.35-47.39-66.6-51.33-74.82-.02-.04-.07-.15-.1-.22-.45-.88-.69-1.86-.69-2.86 0-2.82 1.88-5.31 4.6-6.05 50.23-13.82 103.89 25.04 115.56 57.98 6.46 18.24.15 33.57-16.86 41C1216.65 1523.19 1211.99 1524.18 1207.22 1524.18zM1133.33 1432.68c7.26 14.04 24.81 45.53 45.16 64.29 0 0 0 0 0 0 14.26 13.16 26.93 17.46 37.67 12.77 10.95-4.78 14.34-13.31 10.07-25.36C1216.95 1458.14 1174.21 1426.4 1133.33 1432.68zM1134.27 1785.63c-2.62 0-5.07-1.66-5.94-4.29-27.49-82.81-20.34-218.53-20.03-224.27 0-.08.01-.16.02-.23-.02.18-.01.28-.01.28h12.51c0 0 .01.27-.03.75-.38 6.91-7.19 139.38 19.41 219.54 1.09 3.28-.69 6.82-3.97 7.91C1135.59 1785.53 1134.93 1785.63 1134.27 1785.63z"
                className="color38212a svgShape"
              ></path>
              <path
                fill="#38212a"
                d="M1171.41 1741.17c-.34 0-.68-.03-1.03-.09-3.41-.56-5.72-3.78-5.15-7.19 22.89-138.64 3.73-227.25 2.91-230.96 0-.02-.01-.04-.01-.06-.74-3.09.96-6.29 4.02-7.37 3.26-1.14 6.83.58 7.97 3.84.08.24.17.57.24.86l0 0c.85 3.8 20.51 94.72-2.78 235.72C1177.07 1738.99 1174.42 1741.17 1171.41 1741.17zM712.48 2026.96c-1.74 0-3.45-.72-4.68-2.1-6.42-7.23-13.71-14.19-21.66-20.69-53.47-43.64-122.59-54.6-123.28-54.7-2.14-.33-3.96-1.74-4.81-3.72-.85-1.99-.61-4.28.63-6.05 17.35-24.79 23.04-66.18 23.09-66.6.39-2.95 2.8-5.21 5.77-5.42 60.48-4.21 105.89 18 133.35 37.39 29.74 21 45.08 42.82 45.71 43.74 1.02 1.46 1.36 3.29.95 5.03-11.01 45.91-50.06 71.1-51.72 72.15C714.79 2026.64 713.63 2026.96 712.48 2026.96zM573.95 1938.84c21.3 4.55 75.23 19.01 120.11 55.63 6.94 5.67 13.41 11.68 19.29 17.91 9.59-7.34 32.84-27.76 41.31-58.65-10.12-12.96-65.96-78.16-161.29-73.86C591.46 1890.93 585.91 1917.54 573.95 1938.84z"
                className="color38212a svgShape"
              ></path>
              <path
                fill="#38212a"
                d="M637.25,2101.23c-2.25,0-4.5-0.28-6.74-0.85c-8.16-2.08-13.22-10.2-11.55-18.48
								c1.62-7.95,1.57-18.42,1.27-25.51c-54.24,17.95-88.63,21-102.25,9.07c-2.77-2.43-4.32-5.08-5.16-7.49
								c-15.65,0.39-23.38-6.64-26.46-12.94c-3.75-0.78-8.49-2.67-10.23-7.62c-3.64-10.29,9.11-22.41,37.05-48.98l1.88-1.79
								c31.79-30.27,43.49-46.78,43.61-46.94c1.98-2.83,5.88-3.52,8.71-1.54c2.83,1.98,3.52,5.87,1.55,8.7
								c-0.49,0.7-12.36,17.54-45.24,48.84l-1.89,1.79c-15.08,14.34-30.64,29.14-33.35,35.16c0.66,0.16,1.65,0.34,3.08,0.45
								c3.03,0.24,5.41,2.29,5.68,5.32c0.17,0.79,2.42,9.04,20.19,6.62c2.1-0.29,4.25,0.27,5.64,1.87c1.36,1.57,1.91,3.48,1.37,5.47
								c-0.03,0.54,0.06,2.24,2.08,3.87c5.04,4.06,24.63,10.78,97.42-14.32c1.81-0.62,3.81-0.39,5.42,0.65
								c1.61,1.03,2.66,2.75,2.85,4.66c0.09,0.9,2.11,22.13-0.95,37.15c-0.34,1.7,0.72,3.44,2.37,3.86
								c4.24,1.07,8.52,0.27,12.72-2.4c10.29-6.54,24.95-26.8,36.4-86.23c0.65-3.39,3.94-5.61,7.33-4.96
								c3.39,0.65,5.61,3.93,4.96,7.33c-9.87,51.23-23.99,83-41.98,94.43C648,2099.61,642.64,2101.23,637.25,2101.23z
								 M524.38,2052.5L524.38,2052.5L524.38,2052.5z"
                className="color38212a svgShape"
              ></path>
              <path
                fill="#38212a"
                d="M491.03 2045.61c-2.13 0-4.2-1.08-5.37-3.04-1.78-2.96-.82-6.81 2.15-8.58.34-.2 33.89-20.39 58.15-40.81 2.64-2.23 6.59-1.89 8.82.76 2.22 2.64 1.89 6.59-.76 8.82-25.03 21.07-58.36 41.12-59.77 41.96C493.24 2045.32 492.13 2045.61 491.03 2045.61zM518.25 2057.51c-2.66 0-5.13-1.71-5.97-4.38-1.04-3.29.79-6.8 4.08-7.85.32-.1 29.9-9.65 59.09-33.98 2.65-2.21 6.6-1.85 8.81.8 2.21 2.66 1.85 6.6-.8 8.81-31.19 26-62.04 35.9-63.34 36.31C519.5 2057.42 518.87 2057.51 518.25 2057.51zM993.24 2245.54c-28.19 0-57-2.5-86.19-7.49-91.84-15.69-154.92-50.11-157.56-51.57-2.01-1.11-3.26-3.24-3.23-5.54.05-4.64 1.87-114.78 66.39-210.44 53.81-79.81 46.57-142.57 43.07-159.9-.42-2.05-.72-3.15-.73-3.16-.93-3.32 1-6.78 4.31-7.72 3.32-.94 6.77.98 7.72 4.29.04.15.44 1.56.96 4.1 3.75 18.55 11.57 85.55-44.96 169.38-55.83 82.78-63.18 179.63-64.12 199.79 14.24 7.26 72.32 35.11 150.26 48.43 49.45 8.46 97.77 9.59 143.62 3.35l28.84-3.93c54.38-7.42 105.75-14.44 152.58-20.04 23.95-2.86 44.83-5.13 63.83-6.93 59.03-5.67 104.24-7.48 142.25-5.69 44.53 2.1 86.6 4.07 120.65 2.01 29.92-1.82 52.94-6.54 73.87-15.21-3.14-30.18-25.83-210.12-135.53-416.12-.24-.47-.41-.81-.59-1.14-1.66-3.03-.54-6.83 2.49-8.49 3.03-1.66 6.83-.54 8.49 2.49.25.46.5.94.73 1.4 120.95 227.13 137.16 423.38 137.31 425.33.2 2.64-1.28 5.12-3.7 6.19-23.47 10.44-48.86 16-82.32 18.03-34.73 2.11-77.12.12-122-2-37.41-1.76-82.05.03-140.48 5.65-18.9 1.8-39.68 4.05-63.53 6.9-46.73 5.58-98.04 12.59-152.37 20.01l-28.85 3.93C1034.47 2244.18 1014.02 2245.54 993.24 2245.54zM1402.89 1581.57c-2.45 0-4.78-1.45-5.78-3.86-22.03-53.04-58.44-115.94-58.8-116.57-1.74-2.99-.72-6.82 2.27-8.55 2.99-1.73 6.82-.72 8.55 2.27.37.64 37.18 64.23 59.54 118.05 1.33 3.19-.19 6.85-3.38 8.18C1404.5 1581.42 1403.69 1581.57 1402.89 1581.57z"
                className="color38212a svgShape"
              ></path>
              <path
                fill="#38212a"
                d="M1481.47,1684.88c-0.77,0-1.56-0.14-2.32-0.45c-50.13-20.04-82.52-67.88-82.52-121.86
								c0-26.3,7.74-51.67,22.4-73.36c6.01-8.88,13.04-16.96,20.89-24.03c24.1-21.8,55.32-33.82,87.9-33.82
								c12.42,0,24.72,1.74,36.55,5.16c33.11,9.58,61.68,32.44,78.39,62.73c10.65,19.25,16.28,41.15,16.28,63.32
								c0,24.16-6.63,47.78-19.17,68.3c-6.58,10.78-14.69,20.57-24.11,29.09c-2.56,2.32-6.52,2.12-8.84-0.45
								c-2.32-2.56-2.12-6.52,0.45-8.84c8.53-7.71,15.87-16.57,21.83-26.33c11.34-18.55,17.34-39.91,17.34-61.78
								c0-20.06-5.09-39.86-14.72-57.27c-15.12-27.41-40.97-48.1-70.91-56.76c-10.7-3.1-21.82-4.67-33.07-4.67
								c-29.47,0-57.71,10.87-79.52,30.6c-7.11,6.4-13.47,13.72-18.91,21.75c-13.25,19.61-20.25,42.56-20.25,66.35
								c0,48.84,29.3,92.11,74.65,110.24c3.21,1.28,4.77,4.92,3.49,8.13C1486.3,1683.39,1483.95,1684.88,1481.47,1684.88z"
                className="color38212a svgShape"
              ></path>
              <path
                fill="#38212a"
                d="M1443.83 1475.76c-2.23 0-4.4-1.2-5.52-3.31-5.36-10.03-8.19-21.38-8.19-32.82 0-38.5 31.32-69.83 69.83-69.83 38.49 0 69.81 31.32 69.81 69.83 0 3.45-2.8 6.26-6.26 6.26s-6.26-2.8-6.26-6.26c0-31.6-25.7-57.31-57.29-57.31-31.6 0-57.31 25.71-57.31 57.31 0 9.39 2.32 18.7 6.72 26.92 1.63 3.05.48 6.84-2.57 8.47C1445.83 1475.52 1444.82 1475.76 1443.83 1475.76zM1666.06 1628.62c-3.46 0-6.26-2.8-6.26-6.26s2.8-6.26 6.26-6.26c31.59 0 57.29-25.71 57.29-57.31 0-31.59-25.7-57.29-57.29-57.29-8.42 0-16.51 1.78-24.05 5.28-3.13 1.46-6.85.1-8.31-3.04-1.46-3.13-.1-6.85 3.04-8.31 9.2-4.28 19.07-6.45 29.33-6.45 38.49 0 69.81 31.32 69.81 69.81C1735.87 1597.29 1704.55 1628.62 1666.06 1628.62z"
                className="color38212a svgShape"
              ></path>
              <path
                fill="#38212a"
                d="M1547.11,1779.19c-15.99,0-32.78-3.41-46.2-14.09c-5.05-4.02-9.36-8.9-12.81-14.51
								c-22.06-35.9-20.02-62.11-10.75-74.67c3.88-5.25,9.21-8.52,15-9.22c2.78-0.33,5.57-0.06,8.25,0.78
								c2.43-5.79,6.92-13.13,14.76-16.25c6.16-2.46,12.96-1.81,20.25,1.91c3.5-5.01,9.55-11.51,18.14-13.12
								c5.77-1.07,11.53,0.22,17.19,3.85c2.84-4.11,7.34-8.53,13.95-9.63c9.52-1.57,19.67,4.51,30.18,18.09
								c1.69,2.19,3.41,4.59,5.16,7.2c0.9-11.77,3.33-25.55,9.37-35.07c5-7.86,16.75-19.31,39.33-7.66
								c1.72,0.89,2.93,2.51,3.28,4.41c0.52,2.77,12.47,68.32-6.43,103.08c-11.25,20.7-52.19,44.01-91.24,51.95
								C1566.33,1777.92,1556.87,1779.19,1547.11,1779.19z M1494.67,1679.08c-0.28,0-0.55,0.02-0.83,0.05
								c-2.34,0.28-4.62,1.78-6.43,4.23c-6.53,8.85-7.47,30.05,11.35,60.69c2.68,4.36,6.03,8.16,9.94,11.27
								c13.92,11.07,36.42,14.15,63.35,8.67c38.37-7.8,74.4-30.33,82.74-45.67c14.64-26.93,7.72-78.57,5.64-91.71
								c-11.99-5.19-17.12-0.38-20.26,4.57c-8.4,13.25-8.33,41.07-7.59,50.67c0.23,2.96-1.66,5.67-4.51,6.49
								c-2.85,0.81-5.89-0.48-7.27-3.11c-5.43-10.36-10.69-18.85-15.62-25.23c-7.14-9.23-13.76-14.1-18.2-13.4
								c-4.27,0.69-7.36,6.85-8.1,8.95c-0.71,2.01-2.4,3.53-4.47,4.02c-2.07,0.49-4.26-0.1-5.79-1.58
								c-4.59-4.44-8.82-6.34-12.54-5.66c-6.23,1.14-11.23,9.11-12.63,12.09c-0.79,1.67-2.28,2.92-4.06,3.39
								c-1.79,0.47-3.7,0.14-5.21-0.92c-5.83-4.1-10.6-5.45-14.19-4.02c-5.84,2.33-8.97,11.79-9.6,14.91
								c-0.44,2.16-1.98,3.93-4.06,4.66c-2.08,0.73-4.39,0.31-6.08-1.09C1498.47,1679.85,1496.56,1679.08,1494.67,1679.08z"
                className="color38212a svgShape"
              ></path>
              <path
                fill="#38212a"
                d="M1524.34 1721.29c-2.07 0-4.09-1.02-5.28-2.9-7.37-11.57-19.92-38.07-20.45-39.19-1.48-3.12-.14-6.85 2.98-8.33 3.13-1.47 6.85-.14 8.33 2.98.13.27 12.75 26.91 19.7 37.82 1.86 2.92 1 6.78-1.92 8.64C1526.66 1720.98 1525.49 1721.29 1524.34 1721.29zM1560.04 1707.85c-1.8 0-3.59-.78-4.83-2.27-10.26-12.42-22.63-40.1-23.15-41.27-1.4-3.16.02-6.85 3.17-8.26 3.15-1.41 6.85.01 8.26 3.17.12.27 12.19 27.28 21.36 38.39 2.2 2.66 1.82 6.61-.84 8.81C1562.86 1707.38 1561.44 1707.85 1560.04 1707.85zM1594.17 1696.98c-2.05 0-4.05-1-5.25-2.85-6.78-10.43-20.87-36.58-21.47-37.68-1.64-3.04-.5-6.84 2.54-8.48 3.04-1.64 6.84-.5 8.47 2.54.14.27 14.43 26.79 20.94 36.79 1.88 2.9 1.06 6.77-1.83 8.66C1596.52 1696.65 1595.34 1696.98 1594.17 1696.98zM815.37 2938.47c-32.88 0-64.08-8.14-81.38-16.74-12.4-6.16-18.43-12.47-18.43-19.27 0-15.68 10.76-41.24 27.04-79.94 13.15-31.25 29.52-70.15 44.72-115.3 3.24-9.67 6.13-18.66 8.83-27.47 34.2-111.64 105.03-445.31 105.74-448.67.72-3.38 4.03-5.54 7.42-4.82 3.38.72 5.54 4.04 4.82 7.42-.71 3.36-71.66 337.57-106.02 449.74-2.73 8.91-5.65 18.01-8.93 27.79-15.35 45.59-31.82 84.72-45.05 116.17-14.48 34.41-25.93 61.62-26.06 74.86.94 2.27 9.29 8.99 29.02 15.14 40.86 12.75 97.69 13.8 132.54-12.61 32.07-24.29 51.55-75.42 71.94-134.8 3.57-10.4 7.21-21.22 10.99-32.46 17.19-51.11 36.68-109.04 64.81-173.45 76.9-176.03 180.73-338.24 192.31-356.15 1.12-1.73 1.71-2.61 1.71-2.61 1.92-2.88 5.8-3.66 8.67-1.74 2.88 1.92 3.66 5.8 1.74 8.67-.01.02-.57.86-1.62 2.48-11.52 17.82-114.85 179.24-191.35 354.36-27.91 63.91-47.31 121.56-64.42 172.43-3.79 11.26-7.44 22.11-11.01 32.53-21.07 61.35-41.34 114.29-76.22 140.71C874.06 2932.26 844.07 2938.47 815.37 2938.47zM728.03 2902.12L728.03 2902.12 728.03 2902.12z"
                className="color38212a svgShape"
              ></path>
              <path
                fill="#38212a"
                d="M943.62 2778.38c-92.05 0-152.21-62.01-154.91-64.85-.05-.05-.09-.1-.13-.14-2.44-2.42-2.44-6.32-.04-8.78 2.4-2.46 6.38-2.49 8.85-.1 0 0 .16.15.44.46 3.48 3.64 68.63 70.08 166.12 59.83 3.44-.37 6.52 2.13 6.88 5.57.36 3.44-2.13 6.52-5.57 6.88C957.88 2778.02 950.65 2778.38 943.62 2778.38zM1345.16 2953.78c-13.43 0-26.88-1.02-39.59-3.08-17.44-2.82-38.91-8.41-42.1-19.06-2.44-8.12.57-25.57 7.62-64.26 5.73-31.43 13.57-74.46 20.08-126.49 4.95-39.61 8.35-77.64 10.38-116.25 9.01-171.03-8.94-416.7-9.13-419.16-.26-3.45 2.33-6.45 5.78-6.7 3.46-.27 6.45 2.33 6.7 5.78.18 2.47 18.19 248.92 9.14 420.75-2.02 38.38-5.54 77.79-10.46 117.15-6.56 52.37-14.44 95.61-20.19 127.18-5.1 28.01-9.52 52.24-8.01 58.2 3.04 4.28 27.35 12.5 64.07 13.35 26.93.62 92.73-2.45 122.03-44.14 15.33-21.81 25.85-69.11 32.17-144.62 3.89-46.47 5.85-98.03 7.75-147.89 2.34-61.51 4.56-119.61 10.12-162.9 15.66-121.86 40.86-230.37 43.68-242.34.15-.72.26-1.15.26-1.15.81-3.36 4.18-5.43 7.55-4.62 3.36.81 5.43 4.18 4.62 7.54-.01.03-.09.36-.22.98-1.15 4.88-27.63 117.88-43.48 241.2-5.49 42.73-7.69 100.56-10.03 161.78-1.9 50-3.87 101.7-7.79 148.45-6.6 78.86-17.53 126.77-34.4 150.77-15.58 22.16-42.72 37.71-78.49 44.95C1378.15 2952.24 1361.66 2953.78 1345.16 2953.78z"
                className="color38212a svgShape"
              ></path>
              <path
                fill="#38212a"
                d="M1411.75 2775.94c-20.96 0-39.6-2.73-54.68-6.12-37.04-8.34-60.6-22.04-61.58-22.62-2.98-1.75-3.97-5.59-2.22-8.56 1.75-2.98 5.58-3.97 8.56-2.22 1.03.6 91.88 52.59 193.42 10.57 3.19-1.32 6.85.2 8.17 3.39 1.32 3.19-.2 6.85-3.39 8.17C1468.62 2771.55 1438.33 2775.94 1411.75 2775.94zM1597.33 490.63c-7.12 0-12-1.27-12.43-1.39-3.34-.9-5.31-4.34-4.41-7.67.9-3.33 4.33-5.31 7.67-4.41.15.04 17.99 4.52 33.55-6.55 14.22-10.11 22.6-29.84 24.9-58.63 2.91-36.49-7.79-68.81-31.83-96.05-18.14-20.56-37.49-30.38-37.68-30.48-2.48-1.24-3.85-3.97-3.37-6.69.06-.33 5.8-33.6-.29-72.04-7.14-45.18-26.92-78.28-58.78-98.41-24.34-15.37-47.6-20.52-69.13-15.29-33.69 8.18-52.36 39.36-52.54 39.68-1.75 2.98-5.58 3.98-8.56 2.23-2.98-1.74-3.98-5.57-2.25-8.55.85-1.47 21.37-35.99 60.26-45.49 24.99-6.11 51.53-.44 78.9 16.84 34.55 21.82 56.84 58.83 64.46 107.03 5.17 32.6 2.36 61.03.92 71.72 7.08 4.15 22.31 14.14 37.09 30.78 18.29 20.59 39.26 55.65 35.26 105.71-2.62 32.78-12.82 55.64-30.31 67.97C1617.63 488.8 1605.87 490.63 1597.33 490.63z"
                className="color38212a svgShape"
              ></path>
              <path
                fill="#38212a"
                d="M1848.87,699.79c-0.54,0-1.09-0.07-1.64-0.22c-3.33-0.9-5.31-4.34-4.4-7.67
								c0.05-0.17,4.67-17.41,9.03-45.53c9.86-63.48,19.14-187.13-29.43-302.06c-28.44-67.27-77.53-110.01-145.91-127.04
								c-51.4-12.8-95.05-5.49-95.48-5.41c-3.39,0.59-6.64-1.69-7.23-5.09c-0.59-3.4,1.68-6.64,5.09-7.24
								c1.87-0.33,46.3-7.83,100.19,5.48c49.95,12.34,117.36,45.67,154.88,134.43c49.78,117.78,40.33,244.06,30.27,308.85
								c-4.47,28.88-9.12,46.17-9.32,46.89C1854.15,697.96,1851.63,699.79,1848.87,699.79z"
                className="color38212a svgShape"
              ></path>
              <path
                fill="#38212a"
                d="M1616.39,1301.86c-14.28,0-28.01-3.29-40.82-9.89c-25.28-12.99-38.33-34.06-38.87-34.95
								c-1.8-2.95-0.87-6.8,2.08-8.6c2.95-1.8,6.8-0.87,8.6,2.08c0.11,0.18,11.88,19.01,33.91,30.33
								c23.06,11.87,48.72,11.44,76.27-1.28c20.94-9.67,34.7-23.98,40.89-42.55c8.02-24.05,2.03-50.78-3.99-68.21
								c-8.27,34.04-26.17,60.08-49.9,71.56c-17.19,8.31-35.18,7.62-50.66-1.96c-19.5-12.07-29.8-37.82-25.64-64.06
								c2.56-16.15,14.89-55.26,73.99-69.74c14.58-3.57,30.21-6.04,46.76-8.65c80.92-12.78,172.64-27.27,215.9-176.63
								c20.21-69.74,19.47-133.89-2.21-190.65c-16.97-44.44-41.76-70.02-48.95-76.8c-1.19-1.13-1.89-1.72-1.97-1.79
								c-2.65-2.21-3.02-6.15-0.82-8.81c2.2-2.66,6.13-3.03,8.8-0.83c0.1,0.08,1.04,0.86,2.6,2.35
								c17.78,16.77,104.09,109.17,54.58,280.02c-45.48,156.99-145.55,172.8-225.97,185.5c-16.28,2.57-31.67,5-45.74,8.45
								c-36.48,8.93-60.03,30.63-64.61,59.54c-3.33,21,4.84,42.16,19.87,51.46c11.7,7.24,25.42,7.71,38.62,1.33
								c24.21-11.71,42.1-43.49,46.68-82.93c0.32-2.71,2.35-4.9,5.03-5.42c2.68-0.51,5.39,0.76,6.69,3.17
								c1.14,2.11,27.77,52.11,12.84,97.01c-7.32,22.01-23.31,38.84-47.54,50.02C1647.02,1298.21,1631.4,1301.86,1616.39,1301.86z"
                className="color38212a svgShape"
              ></path>
              <path
                fill="#38212a"
                d="M1527.35,1299.89c-26.26,0-49.57-6.31-69.72-18.92c-25.95-16.23-38.14-38.24-41.26-44.6
								c-0.69-1.42-1-2.17-1-2.17c-1.32-3.19,0.2-6.85,3.39-8.18c3.19-1.32,6.83,0.18,8.16,3.35l0,0c0.03,0.08,0.26,0.61,0.7,1.51
								c6.45,13.14,44.01,77.42,149.2,49.47l1.6-0.43c3.33-0.89,6.77,1.1,7.65,4.45c0.89,3.34-1.11,6.77-4.45,7.65l-1.53,0.41
								C1561.41,1297.41,1543.8,1299.89,1527.35,1299.89z"
                className="color38212a svgShape"
              ></path>
              <g>
                <circle cx="1496.24" cy="1522.49" r="15.75" fill="#38212a" className="color38212a svgShape"></circle>
              </g>
              <g>
                <circle cx="1577.02" cy="1578.63" r="15.75" fill="#38212a" className="color38212a svgShape"></circle>
              </g>
              <g>
                <path
                  fill="#38212a"
                  d="M1510.53,1586.24c0,0-5.46-22.67-0.42-26.21c5.04-3.54,25.11,13.02,26.44,18.25
							S1510.53,1586.24,1510.53,1586.24z"
                  className="color38212a svgShape"
                ></path>
              </g>
              <g>
                <path
                  fill="#38212a"
                  d="M1534.84,1634.96c-0.03,0-0.05,0-0.08,0c-11.9-0.15-20.78-4.1-26.38-11.74
							c-6.05-8.25-6.65-19.01-5.94-27.1c-7.46,2.21-17.59,3.79-26.74,0.44c-7.88-2.89-13.65-8.76-17.15-17.45
							c-1.29-3.21,0.27-6.85,3.47-8.14c3.21-1.29,6.85,0.27,8.14,3.47c2.14,5.33,5.35,8.71,9.81,10.36
							c9.57,3.53,23.19-1.75,27.64-4.08c2.23-1.17,4.95-0.89,6.89,0.71c1.94,1.6,2.74,4.21,2.01,6.63c-1.47,4.97-4,19.68,1.97,27.79
							c3.2,4.35,8.58,6.51,16.43,6.61c3.46,0.04,6.22,2.88,6.18,6.34C1541.05,1632.21,1538.26,1634.96,1534.84,1634.96z"
                  className="color38212a svgShape"
                ></path>
              </g>
              <g>
                <path
                  fill="#3a212b"
                  d="M1316.96,746.86c51.91-6.58,97.48-5.79,193.86,61.79c0,0-157.26-97.25-292.8-7.27l0,0
																		C1225.11,775.92,1276.88,751.94,1316.96,746.86z"
                  className="color3a212b svgShape"
                ></path>
                <ellipse cx="1350.37" cy="970.16" fill="#ffffff" rx="103.63" ry="107.46" transform="rotate(-89.118 1350.361 970.137)" className="colorfff svgShape"></ellipse>
                <path
                  fill="#c1c1c1"
                  d="M1245.43,949.29c0,0,105.04-85.71,218.12,17.12c0,0,20.55-60.79-49.15-90.53
														C1344.7,846.15,1274.31,862.8,1245.43,949.29z"
                  className="colorc1c1c1 svgShape"
                ></path>
                <path
                  fill="#603745"
                  d="M1278.01,970.05c-0.86,56.78,36.07,103.4,82.52,104.11c46.43,0.71,84.82-44.74,85.68-101.52
														c0.11-7.46-0.42-14.74-1.56-21.77c-0.55-3.53-1.27-6.99-2.14-10.38c-10.38-41.25-41.55-71.4-78.82-71.97
														c-33.79-0.52-63.3,23.42-77.21,58.37c-0.69,1.7-1.32,3.43-1.93,5.19C1280.54,943.78,1278.22,956.58,1278.01,970.05z"
                  className="color603745 svgShape"
                ></path>
                <ellipse cx="1383.04" cy="973.56" fill="#3a212b" rx="44.92" ry="36.99" transform="rotate(-85.94 1383.018 973.552)" className="color3a212b svgShape"></ellipse>
                <ellipse cx="1399.12" cy="941.19" fill="#ffffff" opacity=".5" rx="24.05" ry="29.76" transform="rotate(-17.273 1399.126 941.065)" className="colorfff svgShape"></ellipse>
                <circle cx="1329.26" cy="1008.22" r="21.55" fill="#ffffff" opacity=".5" className="colorfff svgShape"></circle>
                <path fill="#3a212b" d="M1253.12,1047.55c0,0,84.14,66.97,196.98,3.03C1450.1,1050.58,1336.8,1077.57,1253.12,1047.55z" className="color3a212b svgShape"></path>
                <path
                  fill="#603745"
                  d="M1286.48,926.87c37.16-14.19,95.55-22.2,158.16,23.99c-0.55-3.53-1.27-6.99-2.14-10.38
														c-10.38-41.25-41.55-71.4-78.82-71.97C1329.89,867.99,1300.39,891.92,1286.48,926.87z"
                  opacity=".5"
                  className="color603745 svgShape"
                ></path>
                <path
                  fill="#3a212b"
                  d="M1523.07,899.35c-21.03,8.83-54.37-1.45-54.37-1.45c-16.81-16.83-47.41-42.5-82.01-47.86
														c-72.89-11.31-137.54,42.08-141.26,99.26c0,0,17.99-62.59,95.4-78.35c65.12-13.26,107.29,54.89,112.73,75.69
														c5.83,22.26,2.47,43.1,2.47,43.1s21.36-39.99,27.21-49.03c5.85-9.04,34.64-6.79,41-19.1c0,0-23.96,4.89-41.89-8.74
														c0,0-0.33-0.42-0.93-1.14C1510.46,913.8,1523.07,899.35,1523.07,899.35z"
                  className="color3a212b svgShape"
                ></path>
                <ellipse cx="920.8" cy="970.15" fill="#ffffff" rx="103.63" ry="107.46" transform="rotate(-86.864 920.818 970.154)" className="colorfff svgShape"></ellipse>
                <path
                  fill="#c1c1c1"
                  d="M1026.94,956.69c0,0-98.77-92.86-218.78,1.8c0,0-16.24-62.08,55.37-86.86
														C935.14,846.84,1004.19,868.38,1026.94,956.69z"
                  className="colorc1c1c1 svgShape"
                ></path>
                <path
                  fill="#603745"
                  d="M842.27,969.33c-3.23,59.05,32.2,100.79,78.58,103.33c46.39,2.54,86.16-35.08,89.39-94.13
														c0.69-12.68-0.39-24.92-2.94-36.37c-0.26-1.19-0.55-2.39-0.84-3.56c-10.2-40.14-38.94-69.69-74.35-71.62
														c-36.1-1.98-68.48,25.35-82.57,65.42c-0.44,1.24-0.85,2.51-1.26,3.77C844.98,946.52,842.91,957.66,842.27,969.33z"
                  className="color603745 svgShape"
                ></path>
                <path
                  fill="#3a212b"
                  d="M1012.39 1054.16c0 0-88.63 60.91-196.71-10.77C815.68 1043.39 926.81 1078.25 1012.39 1054.16zM934.69 745.06c-52.2-3.57-97.65-.15-189.97 72.89 0 0 151.38-106.17 291.9-24.18l0 0C1028.07 768.77 975 747.82 934.69 745.06z"
                  className="color3a212b svgShape"
                ></path>
                <ellipse cx="949.95" cy="970.02" fill="#3a212b" rx="44.92" ry="36.99" transform="matrix(.00718 -1 1 .00718 -26.865 1912.986)" className="color3a212b svgShape"></ellipse>
                <ellipse cx="971.51" cy="937.66" fill="#ffffff" opacity=".5" rx="24.05" ry="29.76" transform="rotate(-21.323 971.624 937.75)" className="colorfff svgShape"></ellipse>
                <circle cx="906.56" cy="1009.45" r="21.55" fill="#ffffff" opacity=".5" className="colorfff svgShape"></circle>
                <path
                  fill="#603745"
                  d="M849.54,932.4c70.1-33.47,128.71-8.44,157.76,9.77c-0.26-1.19-0.55-2.39-0.84-3.56
														c-10.2-40.14-38.94-69.69-74.35-71.62C896.01,864.99,863.63,892.32,849.54,932.4z"
                  opacity=".5"
                  className="color603745 svgShape"
                ></path>
                <path
                  fill="#3a212b"
                  d="M753.48,887.42c20.36,10.28,54.33,2.36,54.33,2.36c17.95-15.61,50.28-39.07,85.17-42
														c73.5-6.17,134.26,51.61,133.96,108.91c0,0-13.56-63.7-89.68-84.84c-64.03-17.78-110.87,47.24-117.76,67.61
														c-7.37,21.8-5.48,42.82-5.48,42.82s-18.51-41.39-23.71-50.81c-5.2-9.42-34.08-9.2-39.56-21.92
														c0,0,23.56,6.56,42.4-5.78c0,0,0.36-0.39,1.01-1.07C765.05,902.71,753.48,887.42,753.48,887.42z"
                  className="color3a212b svgShape"
                ></path>
                <g>
                  <circle cx="1170.54" cy="1061.09" r="11.69" fill="#e2a383" className="colore2a383 svgShape"></circle>
                </g>
                <g>
                  <ellipse cx="1340.61" cy="1130.32" fill="#f7c1ba" rx="71.1" ry="27.21" transform="rotate(-1.146 1341.041 1132.532)" className="colorf7c1ba svgShape"></ellipse>
                </g>
                <g>
                  <ellipse cx="907.73" cy="1124.66" fill="#f7c1ba" rx="71.1" ry="27.21" className="colorf7c1ba svgShape"></ellipse>
                </g>
                <g>
                  <path
                    fill="#38212a"
                    d="M1191.09,1171.05c0,0,2.17,34.24-23.18,50.33c-8.7,5.52-20.61,8.92-36.97,8.06
								c-23.15-1.21-36.72-12.42-44.68-25.2c-11.37-18.26-11.24-39.72-11.24-39.72S1137.75,1176.27,1191.09,1171.05z"
                    className="color38212a svgShape"
                  ></path>
                </g>
                <g>
                  <path
                    fill="#38212a"
                    d="M1135.87,1235.83c-1.72,0-3.47-0.05-5.26-0.14c-21.73-1.13-38.91-10.86-49.66-28.14
								c-12.18-19.57-12.19-42.11-12.19-43.06c0.01-1.85,0.84-3.61,2.27-4.79c1.43-1.18,3.31-1.67,5.13-1.32
								c0.62,0.12,62.51,11.52,114.31,6.45c1.69-0.17,3.37,0.36,4.66,1.46c1.29,1.1,2.08,2.68,2.19,4.37
								c0.1,1.55,2.08,38.14-26.07,56.01C1161.67,1232.75,1149.78,1235.83,1135.87,1235.83z M1081.87,1172.03
								c0.94,7.29,3.38,18.74,9.71,28.9c8.62,13.84,21.97,21.33,39.69,22.25c13.55,0.72,24.75-1.67,33.3-7.09
								c15.66-9.94,19.3-28.45,20.1-38.23C1143.59,1180.79,1099.59,1174.85,1081.87,1172.03z"
                    className="color38212a svgShape"
                  ></path>
                </g>
                <g>
                  <path
                    fill="#d68e8e"
                    d="M1167.91,1221.38c-8.7,5.52-20.61,8.92-36.97,8.06c-23.15-1.21-36.72-12.42-44.68-25.2
								C1134.4,1184.95,1160.15,1211.22,1167.91,1221.38z"
                    className="colord68e8e svgShape"
                  ></path>
                </g>
              </g>
            </svg>