<svg xmlns="http://www.w3.org/2000/svg" enableBackground="new 0 0 1772.96 2784.24" viewBox="0 0 1772.96 2784.24">
              <rect width="4000" height="4000" x="-998.88" y="-787.9" fill="#ffffff" display="none" className="colorfff svgShape"></rect>
              <path
                fill="#38212a"
                d="M613.38,2784.24c-12.15,0-28.25-1.18-35.98-6.81c-12.61-9.16-11.64-28.62-9.87-63.96
							c1.47-29.46,3.48-69.79-0.75-122.85c-1.11-13.85-2.61-27.97-4.44-41.97c-12.3-93.97-44.8-192.91-70.91-272.41
							c-10.65-32.42-19.84-60.39-26.07-83.25c-15.9-58.3-20.71-98.53-22.11-120.02c-14.33,3.52-35.27,7.41-63.77,7.41
							c-44.77,0-94.3-23.17-147.21-68.87c-38.77-33.49-64.44-66.45-65.51-67.84c-2.33-3.01-2.84-7.05-1.32-10.54
							c42.95-99,105.42-170.34,150.27-212.75c38.24-36.17,70.24-57.89,82.41-65.66c-1.72-13.61-2.3-28.32-1.74-43.95
							c-24.18,34.8-65.74,86.24-135.05,152.24c-15.82,15.06-40.17,30.82-59.73,43.49c-9.3,6.02-17.31,11.2-22.85,15.28
							c-23.79,17.52-43.62,26.4-58.94,26.4c-5.45,0-10.44-1.11-14.81-3.3c-7.45-3.72-12.98-10.54-15.87-19.44
							c-13.94,2.32-25.94,3.49-35.72,3.49c-18.3,0-30.02-4.01-35.83-12.27c-2.18-3.1-3.4-6.66-3.61-10.45
							c-4.7-2.18-8.23-5.38-10.51-9.54c-2.53-4.62-3.25-10.18-2.08-15.84c-1.66-4.32-1.83-8.68-0.52-12.98
							c4.12-13.51,21.47-21.03,45.48-31.42c23.07-9.99,51.78-22.42,71.41-42.14c13.9-13.95,45.86-55.17,95-122.51
							c67.02-91.83,144.2-202.54,155.19-218.34c4.49-18.21,22.54-35.9,31.87-44.05c-1.52-73.36,37.93-108.67,61.56-123.19
							c-35.74-21.29-60.44-45.46-75.37-62.81c3.15,88.69-16.58,154.76-63.16,212.71c-35.47,44.12-80.96,68.42-128.09,68.42
							c-7.91,0-15.9-0.7-23.75-2.08c-47.64-8.4-88.14-42.33-103.16-86.44c-16.08-47.22-2.61-97.67,37.93-142.07
							c1.98-2.16,4.78-3.4,7.71-3.4c1.71,0,3.42,0.43,4.93,1.24c4.22,2.26,6.35,7.08,5.2,11.72c-0.17,0.68-16.64,69.1,10.46,106.02
							c10.46,14.26,26.67,22.15,48.15,23.46c1.53,0.09,3.06,0.14,4.53,0.14c0.01,0,0.01,0,0.02,0c16.91,0,30.55-6.05,41.72-18.49
							c40.24-44.86,45.23-170.36,14.03-353.38c-16.8-98.54-16.04-215.67,2.07-321.36c22.45-131.02,70.72-244.29,139.59-327.57
							c93.74-113.35,223.95-173.01,386.99-177.34c11.41-12.59,56.83-59.19,128.79-89.11C941.24,8.71,984.25,0,1027.78,0
							c7.69,0,15.51,0.28,23.22,0.82c64.14,4.51,129.41,27.81,193.98,69.25c105.51,67.71,172.07,174.54,203.48,326.58
							c26.9,130.2,23.9,272.32,21.26,397.72c-1.01,48.04-1.97,93.42-1.16,134.61c3.6,183.53,72.9,250.18,153.15,327.35
							c9.63,9.26,19.59,18.84,29.52,28.72c45.56,45.31,79.02,94.48,99.46,146.14c18.63,47.07,25.77,95.71,20.65,140.66
							c-7.53,66.19-41.45,122.56-93.07,154.64c-45.24,28.1-90.08,42.82-133.31,43.77c-33.49,51.91-92.95,82.04-172.15,87.16
							c-8.2,0.53-16.66,0.8-25.16,0.8c-48.98,0-86.46-8.82-88.03-9.19c-4.44-1.06-7.65-4.83-7.98-9.39
							c-0.33-4.56,2.29-8.76,6.53-10.45c11.25-4.5,21.94-10.82,30.79-16.86c-43.39-1.59-76.36-10.31-84.31-12.59
							c-11.92-0.44-25.07-2.55-39.37-6.31c3.13,1.64,5.25,4.8,5.56,8.32c6.28,70.1-50.49,87.47-100.59,102.79l-0.34,0.11
							c-4.02,1.23-8.05,2.46-12.05,3.72c-6.32,1.99-12.6,4.49-19.06,7.58c10.25,10.27,25.05,27.02,36.81,48.01
							c29.05-23.53,84.32-41.11,146.63-46.34c11.64-0.98,23.08-1.48,34.01-1.48c54.38,0,95.41,11.82,115.55,33.27
							c18.54,19.74,31.92,52.45,37.68,92.1c5.2,35.8,3.24,71.85-5.23,96.43c-8.75,25.38-22.29,32.5-32.11,34.01
							c-3.5,0.54-7.04,0.82-10.51,0.82c-18.51,0-33.58-7.43-49.54-15.3c-17.8-8.77-37.96-18.71-66.54-18.71
							c-4.83,0-9.96,0.58-15.63,1.78c-1.96,2.43-4.93,3.88-8.12,3.88c-1.28,0-2.56-0.24-3.76-0.7
							c-15.09,4.78-31.32,12.41-49.99,21.2c-43.26,20.36-97.11,45.69-165.13,45.69c-4.79,0-9.67-0.13-14.5-0.38
							c-48.95-2.58-105.92-25.85-169.35-69.18c-42.75-29.2-76.36-59.42-90.79-73c-0.43,0.17-0.87,0.34-1.3,0.51
							c26.5,105.01,54.07,321.63,60.63,477.42c0.53,1.72,0.6,3.55,0.22,5.29c3.3,83.79-0.21,137.16-10.43,158.62
							c-19.22,40.37-69.82,58.52-98.27,65.75C657.59,2781.1,633.63,2784.24,613.38,2784.24z"
                className="color38212a svgShape"
              ></path>
              <path
                fill="#ca6c4a"
                d="M1672.78,1717.62c-53.05,32.96-98.45,42.52-133.64,42.27c-51.37-0.37-81-21.64-81-21.64
								s185.75-132.08,78.42-396.26c-6.97-17.18-14.01-33.63-21.08-49.44c-98.56-220.53-202.75-316.5-215.73-486.32l-2.55-0.75
								c93.8-317.03-113.48-688.33-521.19-680.17c0,0,186.77-223.94,463.35-46.44s213.76,594.32,218.78,850.33
								c3.97,202.35,87.42,267.3,175.09,352.76c3.55,3.47,7.11,6.97,10.66,10.5C1808.13,1455.81,1786.4,1647,1672.78,1717.62z"
                className="colorca6c4a svgShape"
              ></path>
              <path
                fill="#ca6c4a"
                d="M1458.13,1738.25c0,0,29.63,21.27,81,21.64v0.03c-75.85,126.95-277.09,78.95-277.09,78.95
								c30.97-12.38,57.28-37.15,57.28-37.15s82.05-69.65,122.29-218.25c40.24-148.62,35.61-233.74-27.87-235.3
								c-4.33-0.1-9.05,1.56-14.13,4.78l-1.04-1.43c-93.73-145.05-101.1-299.64-101.1-299.64c-64.72,120.52-2.23,287.91-2.23,287.91
								l-0.08,0.51c-45.98-7.79-81.1-15.35-81.1-15.35c-15.94,14.09-30.05,30.32-42.44,47.28c-6.79-8.44-50.49-68.05-23.68-175.28
								c23.79-95.16-0.43-130.3-9.92-139.87c1.38-0.5,2.78-1.03,4.17-1.57c18.8-7.46,39.1-19.92,57.61-40.53
								c20.5-22.81,34.35-52.83,40.2-81.72l0.37,0.08c24.93-40.79,43.78-83.8,56.81-127.86l2.55,0.75
								c7.37,96.39,50.11,157.6,98.53,242.68c36.89,64.82,74.58,148.27,117.2,243.64c7.06,15.81,14.11,32.27,21.08,49.44
								C1643.88,1606.16,1458.13,1738.25,1458.13,1738.25z"
                className="colorca6c4a svgShape"
              ></path>
              <path
                fill="#f7c683"
                d="M1441.62,1583.47c-40.24,148.6-122.29,218.25-122.29,218.25c-61.92,3.1-113-12.38-113-12.38
								c0.21-0.92,0.43-1.81,0.64-2.73c4.82-20.42,10.43-41.64,16.73-63.3c0.14-0.51,0.31-1.04,0.45-1.56l0.1-1.52
								c60.55,3.93,42.19-35.73,42.19-35.73c89.01-23.02,58.32-43.73,58.32-43.73c17.64-11.53,4.03-22.89,4.03-22.89
								c2.44-19.01-27.84-14.53-65.51-13.85V1604c13.2-35.46,27.31-69.91,41.59-101.42c7.26-16,14.54-31.24,21.8-45.48
								c25.73-50.61,50.82-88.58,70.99-102.8c0.66-0.48,1.32-0.93,1.97-1.35c3.55-2.25,6.93-3.74,10.13-4.4
								c1.36-0.29,2.7-0.42,4-0.39C1477.22,1349.72,1481.86,1434.85,1441.62,1583.47z"
                className="colorf7c683 svgShape"
              ></path>
              <path
                fill="#7f5c54"
                d="M1370.55,2161.64c-3.93,0.61-7.69,0.8-11.33,0.63c-34.75-1.43-59.01-33.94-113.67-33.94
								c-7.24,0-14.69,1.12-22.39,3.07c33.15-64.71,19.18-140.01,8.32-178.22c-4.43-15.59-8.35-24.99-8.35-24.99l-0.02-0.18
								c58.8-4.94,116.94,2.83,141.09,28.54C1413.47,2009.01,1413.25,2155.07,1370.55,2161.64z"
                className="color7f5c54 svgShape"
              ></path>
              <path
                fill="#e5a355"
                d="M1171.62,1372.23c12.39-16.95,26.5-33.18,42.44-47.28c0,0,35.12,7.56,81.1,15.35
								c31.66,5.36,68.45,10.84,102.48,14c-20.16,14.22-45.25,52.19-70.99,102.8l-1.14-0.58c-48.35-5.84-91.16-13.1-163.88-70.34
								l1.8-2.3C1166.07,1379.96,1168.8,1376.08,1171.62,1372.23z"
                className="colore5a355 svgShape"
              ></path>
              <path
                fill="#ffdfca"
                d="M1266.43,1684.5c0,0,18.36,39.67-42.19,35.73c-7.34-0.48-15.83-1.59-25.67-3.5
								c-21.67-4.19-58.83-16-87.17-28.4c-123.53-54-179.36-129.35-191.01-146.72c-1.59-2.39-2.36-3.68-2.36-3.68
								c66.84-8.15,110.97-47.1,131.04-69.12c3.52,4.32,22.8,27.72,48.14,53.57c28.99,29.52,65.91,62.2,96.3,73.1
								c22.33,8.01,47.36,8.96,69.75,8.54c30.42-0.55,56.02-3.56,63.46,5.3c1.78,2.1,2.52,4.9,2.05,8.56c0,0,13.61,11.37-4.03,22.89
								C1324.75,1640.77,1355.44,1661.48,1266.43,1684.5z"
                className="colorffdfca svgShape"
              ></path>
              <path
                fill="#f7c683"
                d="M1326.66,1457.1c-2.65,5.2-5.3,10.53-7.95,15.97c-4.62,9.49-9.25,19.34-13.85,29.51l-2.57-1.16
								c-64.07-2.52-123.29-29.75-171.06-61.23c-69.94-46.1-115.31-101.31-115.31-101.31l-1.72-0.02c0.63-18.7,0-42.04-5.88-64.89
								c-2.99-11.62-7.34-23.12-13.56-33.79c0,0,73.79,69.28,154.28,135.84c4.3,3.55,8.49,6.93,12.59,10.15
								c72.72,57.24,115.53,64.5,163.88,70.34L1326.66,1457.1z"
                className="colorf7c683 svgShape"
              ></path>
              <path
                fill="#e5a355"
                d="M1302.29,1501.42l2.57,1.16c-14.29,31.51-28.4,65.96-41.59,101.42v0.03
								c-22.39,0.42-47.42-0.53-69.75-8.54c-30.39-10.9-67.31-43.58-96.3-73.1l2.3-0.85c0,0,9.92-36.52,31.72-81.34
								C1179.01,1471.67,1238.23,1498.9,1302.29,1501.42z"
                className="colore5a355 svgShape"
              ></path>
              <path
                fill="#ca6c4a"
                d="M1297.19,805.47c-13.03,44.06-31.88,87.07-56.81,127.86l-0.37-0.08c12.41-61.15-10.98-117.2-82.78-89.01
								c-15.23,100.41-48.93,171.67-83.94,221.06c-50.69,71.56-104.17,97.22-108.18,99.06c-0.16,0.08-0.24,0.11-0.24,0.11
								c0.05-0.06,0.16-0.21,0.34-0.48c2.49-3.48,17.61-25.41,34.98-66.72c28.29-67.26,62.48-185.96,57.55-360.03
								c-1.4-48.88-5.23-92.87-10.88-132.4c-0.39,7.75-1.04,15.12-1.88,22.09c-6.28,52.56-23.21,82.59-23.21,82.59
								c-47.5,11.37-77.54-3.02-83.57-6.32c-2.6,13.61-4.61,21.41-4.61,21.41c-20.88,5.8-60.34,3.48-60.34,3.48
								c-50.23,18.19-126.35,18.27-161.7,17.14c-12.01-0.37-19.31-0.9-19.31-0.9c-41.42-31.29-73.6-95.8-88.03-128.53
								c-0.06-0.14-0.1-0.22-0.1-0.22c-2.23-5.09-4.03-9.39-5.38-12.68c9.26,93.54,41.21,149.56,41.21,149.56
								c-58.38,7.88-91.2,3.69-108.82-1.56c-14.01-4.17-18.41-9.04-18.41-9.04c-71.29-95.05-76.12-227.5-69.11-316.13l-1.94-0.14
								c0,0-0.74,0.39-2.1,1.2c-0.16,0.1-0.34,0.21-0.51,0.32C422.97,437.17,338,499.47,324,701.12
								c-9.1,131.07,37.69,265.05,49.33,388.62c8.17,86.59-0.93,168.07-58.62,239.84c-126.9,157.86-331.2-6.12-201.27-148.54
								c0,0.03,0,0.06-0.02,0.11c-0.02,0.06-0.03,0.14-0.06,0.24c0,0.02-0.02,0.02,0,0.03c-2.04,8.62-30.48,135.98,68.22,141.97
								c102.16,6.18,107.44-171.36,71.21-383.9C206.35,667.07,277.5,135.26,776,125.29c203.2-4.06,356.61,86.12,447.76,216.87
								C1315.54,473.75,1344.24,646.45,1297.19,805.47z"
                className="colorca6c4a svgShape"
              ></path>
              <path
                fill="#ffdfca"
                d="M1138.02,1057.08c-35.4,12.86-64.48,8.4-64.48,8.4l-0.26-0.18c35.01-49.39,68.71-120.65,83.94-221.06
								c71.8-28.19,95.19,27.87,82.78,89.01c-5.84,28.9-19.7,58.91-40.2,81.72C1179.92,1037.11,1157.98,1049.85,1138.02,1057.08z"
                className="colorffdfca svgShape"
              ></path>
              <path
                fill="#f7c683"
                d="M1224.24,1720.24l-0.1,1.52c-0.14,0.51-0.3,1.04-0.45,1.56l-1.89-0.55
								c-86.52,1.19-156.37-13.95-212.76-39.22c-66.94-29.95-114.91-74.18-149.26-122.21c-84.6-118.21-86.81-259.53-86.88-268.45
								c13.23-0.47,27.96-3.11,44.16-9.04c1.91-0.69,3.85-1.43,5.81-2.23c8.86-3.6,17.02-7.43,24.51-11.43l0.85,1.61
								c-1.65,81.21,11.57,154.49,38.75,213.34c8.88,19.22,19.23,36.89,31.05,52.8c0,0,52.94,89.01,193.37,150.4
								c28.33,12.39,65.5,24.21,87.17,28.4C1208.42,1718.65,1216.91,1719.75,1224.24,1720.24z"
                className="colorf7c683 svgShape"
              ></path>
              <path
                fill="#e5a355"
                d="M1221.8,1722.77l1.89,0.55c-6.57,22.62-12.41,44.77-17.37,66.03c-60.37-1.56-140.86-51.1-140.86-51.1
								l-1.22,1.49c-19.49-16.05-39.01-34.79-55.4-55.77l0.19-0.42C1065.43,1708.82,1135.28,1723.96,1221.8,1722.77z"
                className="colore5a355 svgShape"
              ></path>
              <path
                fill="#ffdfca"
                d="M1223.15,2131.4c-56.71,14.37-127.81,74-234.18,68.4c-111.65-5.88-239.6-125.79-258.39-143.98
								c1.03-0.43,2.07-0.88,3.11-1.35c49.03-21.24,104.84-60.17,172.23-119.26c11.04,13.39,22.83,23.69,33.08,24.03
								c23.08,0.79,47.34-25.73,81.95-45.7c7.21,6.21,34.59,31.24,50.86,65.82l3-0.56c25.14-26.74,87.09-45.65,148.28-50.79
								l0.02,0.18c0,0,3.92,9.41,8.35,24.99C1242.34,1991.38,1256.3,2066.69,1223.15,2131.4z"
                className="colorffdfca svgShape"
              ></path>
              <path
                fill="#60423d"
                d="M905.93,1935.21c-68.82,60.34-125.57,99.66-175.34,120.6c-5.44,2.31-10.8,4.38-16.08,6.21
								c-50.58,17.79-94.15,15.76-136.55-3.03c-60.23-26.7-83.35-11.59-124.81,0.51c-18.96,5.54-41.75,10.45-73.67,10.45
								c-101.74,0-204.46-132.66-204.46-132.66c81.79-188.51,234.39-277.26,234.39-277.26s273.48,88.53,448.02-96.99l2.36-1.7
								c34.35,48.03,82.32,92.26,149.26,122.21l-0.19,0.42c16.39,20.98,35.91,39.71,55.4,55.77c48.17,39.67,96.2,62.93,96.2,62.93
								c5.99,66.81-51.87,78.79-105.72,95.74c-12.33,3.88-23.5,9.23-33.76,15.14c-34.61,19.97-58.87,46.49-81.95,45.7
								C928.76,1958.91,916.98,1948.6,905.93,1935.21z"
                className="color60423d svgShape"
              ></path>
              <path
                fill="#ffdfca"
                d="M1000.18,1097.27c-1.32,1.72-3.32,4.17-6.07,7.22c-13.71,15.17-46.15,45.03-107.41,71.45
								c-35.19,15.17-79.88,29.2-136,38.64c-17.79,2.99-36.74,5.52-56.89,7.48c-21.37,2.07-41.51,2.65-60.47,1.97
								c-56.15-1.96-101.94-14.83-138.52-31.88c-3.79-1.77-7.48-3.58-11.06-5.43c-77.44-39.83-109.64-97.07-109.64-97.07l-0.79,0.08
								c0,0,0-0.03-0.02-0.1c-2.65-28.22-7.14-56.99-12.38-86.14c-17.72-98.45-43.95-201.29-36.94-302.39
								c15.47-222.89,117.64-275.53,117.64-275.53l1.94,0.14c-7.02,88.63-2.18,221.08,69.11,316.13c0,0,22.38,24.74,127.23,10.59
								c0,0-31.95-56.02-41.21-149.56c9.95,24.37,45.53,105.21,93.51,141.44c0,0,113.72,8.12,181.01-16.25
								c0,0,39.46,2.31,60.34-3.48c0,0,2.01-7.8,4.61-21.41c6.04,3.31,36.07,17.69,83.57,6.32c0,0,21.74-38.54,25.09-104.68
								c5.65,39.54,9.49,83.52,10.88,132.4C1062.66,911.32,1028.46,1030.01,1000.18,1097.27z"
                className="colorffdfca svgShape"
              ></path>
              <path
                fill="#7f5c54"
                d="M1061.53,1453.52c0,0-4.19,6.21-12.46,15.3c-20.07,22.02-64.2,60.97-131.04,69.12
								c-1.3-1.77-2.6-3.55-3.87-5.35c-10.23-14.5-19.28-30.37-27.18-47.45l0.35-0.16c0,0,1.65-0.31,4.66-1
								c19.01-4.37,91.81-23.92,134.23-74.97C1026.23,1409.02,1054.63,1428.97,1061.53,1453.52z"
                className="color7f5c54 svgShape"
              ></path>
              <path
                fill="#fce9c9"
                d="M1026.23,1409.02c-49.11,59.09-138.89,75.96-138.89,75.96l-0.35,0.16c-1.19-2.55-2.33-5.14-3.47-7.75
								c-24.83-57.47-36.87-127.91-35.28-205.59l-0.85-1.61c37.8-20.11,58.93-44.13,69.93-60.58c7.3-10.92,10.15-18.49,10.5-19.42
								c24.69,10.58,53.58,27.08,66.96,50c18.48,31.67,20.39,70.46,19.44,98.68c-0.43,12.81-1.46,23.44-1.78,30.24
								C1010.89,1400.58,1026.23,1409.02,1026.23,1409.02z"
                className="colorfce9c9 svgShape"
              ></path>
              <path
                fill="#7f5c54"
                d="M927.81,1190.19c-0.35,0.93-3.19,8.51-10.5,19.42c-11,16.45-32.12,40.47-69.93,60.58
								c-7.5,4-15.65,7.83-24.51,11.43c-18.51,7.5-35.17,10.76-49.97,11.27c-53.33,1.88-82.01-31.98-82.01-31.98l-0.14-1.11
								c22.35-2.83,39.6-18.65,49.75-30.73c6.65-7.91,10.26-14.22,10.26-14.22l-0.05-0.27c56.12-9.44,100.81-23.47,136-38.64
								C890.75,1176.99,907.91,1181.66,927.81,1190.19z"
                className="color7f5c54 svgShape"
              ></path>
              <path
                fill="#fce9c9"
                d="M859.78,1561.34l-2.36,1.7c-174.54,185.52-448.02,96.99-448.02,96.99c-0.32-2.02-0.61-4.06-0.87-6.12
								c-3.48-26.89-2.1-56.33,2.55-86.67c5.92-38.46,17.13-78.35,30.44-116.29c8.86-25.24,18.64-49.6,28.43-72.09
								c30.42-69.99,60.82-121.89,62.99-125.57c29.59,29.67,77.94,50.36,151.04,7.61l-0.02-0.67c1.01,0,2.04-0.03,3.08-0.1
								c1.25-0.08,2.47-0.19,3.69-0.34l0.14,1.11c0,0,26.42,31.19,75.69,32.04c2.07,0.03,4.17,0.02,6.32-0.06
								C772.97,1301.82,775.18,1443.13,859.78,1561.34z"
                className="colorfce9c9 svgShape"
              ></path>
              <path
                fill="#7f5c54"
                d="M767.98,2705.4c-31.8,66.78-166.95,76.32-184.43,63.6c-5.55-4.03-6.84-13.84-6.6-29.79
								c0.43-28.91,5.92-78,0.24-149.4l2.22-0.18c0,0,74.63,6.21,158.83-23.92c12.87-4.61,25.97-10.07,39.07-16.52
								C780.37,2624.63,778.19,2683.95,767.98,2705.4z"
                className="color7f5c54 svgShape"
              ></path>
              <path
                fill="#ffdfca"
                d="M777.3 2549.19c-13.1 6.45-26.2 11.91-39.07 16.52-84.2 30.13-158.83 23.92-158.83 23.92l-2.22.18c-1.08-13.37-2.54-27.53-4.49-42.49-17.48-133.54-75.93-278.82-97.26-357.05-14.3-52.46-19.46-90.02-21.29-111.7-.8-9.33-.98-15.7-1-19.05 41.46-12.1 64.58-27.21 124.81-.51 42.4 18.8 85.96 20.82 136.55 3.03C741.31 2161.43 770.86 2390.84 777.3 2549.19zM750.75 1214.86c0 0-3.61 6.31-10.26 14.22-10.15 12.07-27.4 27.9-49.75 30.73-1.22.14-2.44.26-3.69.34-1.04.06-2.07.1-3.08.1-22.55.11-36.47-13.48-43.87-24.03-4.69-6.68-6.76-12.14-6.76-12.14v-.03c18.96.67 39.1.1 60.47-1.97 20.15-1.96 39.1-4.49 56.89-7.48L750.75 1214.86z"
                className="colorffdfca svgShape"
              ></path>
              <path
                fill="#7f5c54"
                d="M683.99,1260.92c-73.1,42.75-121.46,22.06-151.04-7.61c-24.38-24.46-35.99-55.05-38.13-61.15
								c36.58,17.05,82.37,29.92,138.52,31.88v0.03c0,0,2.07,5.46,6.76,12.14c7.4,10.55,21.32,24.14,43.87,24.03L683.99,1260.92z"
                className="color7f5c54 svgShape"
              ></path>
              <path
                fill="#fce9c9"
                d="M532.95,1253.31c-2.17,3.68-32.57,55.57-62.99,125.57c-4.85-8.75-26.62-45.59-59.56-64.72
								c-0.26-5.68-0.27-11.11-0.05-16.33c3.26-80.39,59.75-106.03,73.41-111.09c1.8,0.93,3.64,1.85,5.51,2.76
								c1.83,0.9,3.68,1.78,5.55,2.66C496.96,1198.26,508.56,1228.84,532.95,1253.31z"
                className="colorfce9c9 svgShape"
              ></path>
              <path
                fill="#7f5c54"
                d="M469.96,1378.87c-9.79,22.49-19.57,46.86-28.43,72.09l-3.27-1.16c-14.53-44.82-60.57-92.06-60.57-92.06
								c0.16-0.95,0.39-1.91,0.66-2.86c5.6-19.79,32.06-40.74,32.06-40.74s0.02,0.02,0.03,0.03
								C443.36,1333.31,465.11,1370.12,469.96,1378.87z"
                className="color7f5c54 svgShape"
              ></path>
              <path
                fill="#ffdfca"
                d="M441.53,1450.97c-13.31,37.93-24.51,77.82-30.44,116.29c-7.02,13.82-44.43,81.07-156.95,188.22
								c-7.8,7.43-17.93,15.14-28.56,22.57c-19.84,13.89-41.43,26.82-53.01,35.35c-74.6,54.92-75.11-0.03-75.11-0.03
								c-90.3,17.37-71.45-14.51-71.45-14.51c-20.88-2.83-13.45-18.94-13.45-18.94c-16.5-25.72,67.73-33.15,112.59-78.23
								c16.36-16.42,54.34-66.59,96.03-123.72c72.66-99.54,156.5-220.21,156.5-220.21s46.04,47.24,60.57,92.06L441.53,1450.97z"
                className="colorffdfca svgShape"
              ></path>
              <path
                fill="#e2a383"
                d="M1000.18,1097.27c-1.32,1.72-3.32,4.17-6.07,7.22c0.27-0.93,0.56-1.86,0.85-2.81
							c59.44-192.51,22.65-363.77,22.65-363.77c-25.48,2.84-63.7-5.65-63.7-5.65l-7.08,16.98c-12.73,1.41-67.94,7.08-67.94,7.08
							c-87.76,25.48-192.51,16.98-192.51,16.98l-52.38-72.19l26.9,72.19C559,797.38,495.3,764.82,495.3,764.82
							c-69.35-75.03-84.92-259.03-84.92-259.03c-81,118.45-65.08,366.24-49.44,497.72c-17.72-98.45-43.95-201.29-36.94-302.39
							c15.47-222.89,117.64-275.53,117.64-275.53l1.94,0.14c-7.02,88.63-2.18,221.08,69.11,316.13c0,0,22.38,24.74,127.23,10.59
							c0,0-31.95-56.02-41.21-149.56c9.95,24.37,45.53,105.21,93.51,141.44c0,0,113.72,8.12,181.01-16.25c0,0,39.46,2.31,60.34-3.48
							c0,0,2.01-7.8,4.61-21.41c6.04,3.31,36.07,17.69,83.57,6.32c0,0,21.74-38.54,25.09-104.68c5.65,39.54,9.49,83.52,10.88,132.4
							C1062.66,911.32,1028.46,1030.01,1000.18,1097.27z"
                className="colore2a383 svgShape"
              ></path>
              <path
                fill="#a02f20"
                d="M455.06 326.53c0 0-6.69 40.63-15.52 100.27C424.88 435.79 338.16 497.2 324 701.12c-9.1 131.07 37.69 265.05 49.33 388.62 8.17 86.59-.93 168.07-58.62 239.84-126.91 157.88-331.23-6.15-201.25-148.57-1.03 1.93-52.03 97.62 5.19 160.96 57.79 63.97 291.66 10.1 208.45-313.72C250.73 731.05 292.01 508.15 455.06 326.53zM598.71 602.9c9.26 93.54 41.21 149.56 41.21 149.56-104.86 14.14-127.23-10.59-127.23-10.59 52.78 1.06 71.37-19.07 71.37-19.07-75.91-233.84 65.3-414.66 67.05-416.89-58.38 135.28-60.78 238.43-47.02 309.67C601.86 610.49 600.06 606.19 598.71 602.9zM873.23 728.09c-67.29 24.37-181.01 16.25-181.01 16.25 80.68-15.35 111.63-40.12 111.63-40.12-123.83-206.39-49.52-377.69-49.52-377.69C727.49 497.83 873.23 728.09 873.23 728.09zM878.16 347.16c0 0 65.01 168.21 32.61 357.97l-37.54 22.96 60.34-3.48C933.58 724.61 991.68 454.49 878.16 347.16z"
                className="colora02f20 svgShape"
              ></path>
              <path
                fill="#a02f20"
                d="M887.45 272.35c0 0 83.94 81.84 114.97 247.23 5.92 31.57 8.1 63.73 6.66 95.82-1.1 24.47-3.04 53.35-6.32 65.63-6.19 23.22-64.57 22.16-64.57 22.16s67.72 24 83.57 6.32c15.85-17.68 25.13-113.65 25.13-113.65S1015.93 363.67 887.45 272.35zM1297.19 805.47c-13.03 44.06-31.88 87.07-56.81 127.86l-.37-.08c12.41-61.15-10.98-117.2-82.78-89.01-15.23 100.41-48.93 171.67-83.94 221.06-50.69 71.56-104.17 97.22-108.18 99.06 7.72-4 200.55-109.01 179.31-652.08 0 0 58.82 154.8 58.82 303.4 0 0 156.9-246.92 20.53-473.51C1315.54 473.75 1344.24 646.45 1297.19 805.47zM1672.78 1717.62c-53.05 32.96-98.45 42.52-133.64 42.27v.03c-75.85 126.95-277.09 78.95-277.09 78.95 30.97-12.38 57.28-37.15 57.28-37.15s82.05-69.65 122.29-218.25c40.24-148.62 35.61-233.74-27.87-235.3-4.33-.1-9.05 1.56-14.13 4.78l-1.04-1.43c-93.73-145.05-101.1-299.64-101.1-299.64-64.72 120.52-2.23 287.91-2.23 287.91l-.08.51c-45.98-7.79-81.1-15.35-81.1-15.35-15.94 14.09-30.05 30.32-42.44 47.28-6.79-8.44-50.49-68.05-23.68-175.28 23.79-95.16-.43-130.3-9.92-139.87l4.17-1.57 39.36-14.86c0 0 45.41 16.52 28.9 107.33-16.31 89.7 11.69 135.12 12.36 136.21-.64-1.97-30.57-153.74 100.63-284.96 0 0-22.18 128.1 101.65 309.74 123.85 181.62 16.52 408.66-45.4 478.82 0 0 242.48-185.65 135.77-495.25-4.66-13.53-10-27.32-16.05-41.34 1.77 2.86 148.06 240.36 61.9 400.36 0 0 115.58-49.52 57.79-214.64 0 0 103.2 107.33 28.9 239.41 0 0 162.65-141.15-14.78-394.39 3.55 3.47 7.11 6.97 10.66 10.5C1808.13 1455.81 1786.4 1647 1672.78 1717.62z"
                className="colora02f20 svgShape"
              ></path>
              <path
                fill="#c1a2a0"
                d="M113.45 1181.02c-.01.03-.02.08-.04.15.01-.05.02-.09.02-.11C113.45 1181.04 113.45 1181.02 113.45 1181.02zM113.36 1181.41c.02-.1.04-.17.06-.24C113.4 1181.23 113.38 1181.3 113.36 1181.41z"
                className="colorc1a2a0 svgShape"
              ></path>
              <path
                fill="#f2ae99"
                d="M268.38,920.77c43.45,241.84,41.56,414.37-79.61,426.22c-119.29,11.69-77.86-156.08-75.42-165.55
								c-2.04,8.62-30.48,135.98,68.22,141.97c102.16,6.18,107.44-171.36,71.21-383.9C206.35,667.07,277.5,135.26,776,125.29
								C274.58,146.29,229.02,701.76,268.38,920.77z"
                className="colorf2ae99 svgShape"
              ></path>
              <path
                fill="#f2ae99"
                d="M531.1 750.9c-14.01-4.17-18.41-9.04-18.41-9.04-71.29-95.05-76.12-227.5-69.11-316.13l-1.94-.14c0 0-.74.39-2.1 1.2-.16.1-.34.21-.51.32 7.69-59.22 16.04-100.59 16.04-100.59s-23.77 293.81 74.82 422.75C530.3 749.83 530.72 750.37 531.1 750.9zM711.89 743.6c0 0-.1.63-.35 1.64-12.01-.37-19.31-.9-19.31-.9-41.42-31.29-73.6-95.8-88.03-128.53-.06-.14-.1-.22-.1-.22s-36.28-177.17 52.78-309.9C654.77 310.73 539.03 591.4 711.89 743.6zM754.33 326.53c0 0 10.64 172.48 133.88 398.1l-14.98 3.46C873.23 728.09 730.41 491.54 754.33 326.53zM1000.08 1139.85l-34.98 24.51c0 0 .03-.13.1-.37 2.49-3.48 17.61-25.41 34.98-66.72 28.29-67.26 62.48-185.96 57.55-360.03-1.4-48.88-5.23-92.87-10.88-132.4-.39 7.75-1.04 15.12-1.88 22.09-16.52-130.14-62.19-299.43-157.48-354.56 2.6.75 169.6 51.45 186.53 437.1C1088.16 1031.67 1000.08 1139.85 1000.08 1139.85z"
                className="colorf2ae99 svgShape"
              ></path>
              <path
                fill="#e2a383"
                d="M750.75,1214.86c0,0-3.61,6.31-10.26,14.22c-42.59,11.29-79.72,9.63-100.39,7.13
							c-4.69-6.68-6.76-12.14-6.76-12.14v-0.03c18.96,0.67,39.1,0.1,60.47-1.97c20.15-1.96,39.1-4.49,56.89-7.48L750.75,1214.86z"
                className="colore2a383 svgShape"
              ></path>
              <path
                fill="#d0b08a"
                d="M1026.23,1409.02c-49.11,59.09-138.89,75.96-138.89,75.96l-0.35,0.16c-1.19-2.55-2.33-5.14-3.47-7.75
							c0.16-0.06,0.32-0.1,0.48-0.14c45.65-12.1,90.65-52,98.64-66.65c7.99-14.67-9.33-29.33-5.33-103.99
							c2.63-49.31-26.71-82.93-60.01-96.99c7.3-10.92,10.15-18.49,10.5-19.42c24.69,10.58,53.58,27.08,66.96,50
							c18.48,31.67,20.39,70.46,19.44,98.68c-0.43,12.81-1.46,23.44-1.78,30.24C1010.89,1400.58,1026.23,1409.02,1026.23,1409.02z"
                className="colord0b08a svgShape"
              ></path>
              <path
                fill="#60423d"
                d="M927.81 1190.19c-.35.93-3.19 8.51-10.5 19.42-17.11-7.22-35.25-9.28-50.65-5.67-45.33 10.68-126.18 25.14-126.18 25.14 6.65-7.91 10.26-14.22 10.26-14.22l-.05-.27c56.12-9.44 100.81-23.47 136-38.64C890.75 1176.99 907.91 1181.66 927.81 1190.19zM1061.53 1453.52c0 0-4.19 6.21-12.46 15.3-20.07 22.02-64.2 60.97-131.04 69.12-1.3-1.77-2.6-3.55-3.87-5.35.61-.22 1.22-.47 1.83-.69 138.65-52 125.31-114.65 81.32-83.99-44 30.66-103.99 37.34-103.99 37.34-.48-.42-.92-.83-1.33-1.27 19.01-4.37 91.81-23.92 134.23-74.97C1026.23 1409.02 1054.63 1428.97 1061.53 1453.52z"
                className="color60423d svgShape"
              ></path>
              <path
                fill="#e2a383"
                d="M1326.73,1609.33c-26.62,8.6-96.93,10.18-120.68,3.69c-84-22.91-135.41-113.11-174.06-93.11
							c-38.66,20-106.65,24-106.65,24s-1.91-0.72-4.93-2.3c-1.59-2.39-2.36-3.68-2.36-3.68c66.84-8.15,110.97-47.1,131.04-69.12
							c3.52,4.32,22.8,27.72,48.14,53.57c28.99,29.52,65.91,62.2,96.3,73.1c22.33,8.01,47.36,8.96,69.75,8.54
							C1293.69,1603.48,1319.29,1600.47,1326.73,1609.33z"
                className="colore2a383 svgShape"
              ></path>
              <path
                fill="#d0b08a"
                d="M859.78,1561.34l-2.36,1.7c-174.54,185.52-448.02,96.99-448.02,96.99c-0.32-2.02-0.61-4.06-0.87-6.12
							c7.34,2.07,59.06,13.55,224.02-16.81c179.57-33.02,156.85-158.92,109.38-150.66c-47.47,8.25-80.49,0-80.49,0
							s125.9-6.2,113.51-63.99c-11.01-51.43-8.96-115.95-8.38-129.51c2.07,0.03,4.17,0.02,6.32-0.06
							C772.97,1301.82,775.18,1443.13,859.78,1561.34z"
                className="colord0b08a svgShape"
              ></path>
              <path
                fill="#60423d"
                d="M640.1,1236.21c-104.17,12.95-145.28-44.05-145.28-44.05c36.58,17.05,82.37,29.92,138.52,31.88v0.03
							C633.34,1224.07,635.41,1229.53,640.1,1236.21z"
                className="color60423d svgShape"
              ></path>
              <path
                fill="#d0b08a"
                d="M532.95,1253.31c-2.17,3.68-32.57,55.57-62.99,125.57c-4.85-8.75-26.62-45.59-59.56-64.72
							c-0.26-5.68-0.27-11.11-0.05-16.33c1.14-1.14,1.86-1.73,1.86-1.73s34.56,28.4,51.83,32.09c17.29,3.71,46.91-56.78,39.51-76.52
							c-7.4-19.76-16.05-61.72-16.05-61.72s0.63-0.16,1.77-0.43c1.83,0.9,3.68,1.78,5.55,2.66
							C496.96,1198.26,508.56,1228.84,532.95,1253.31z"
                className="colord0b08a svgShape"
              ></path>
              <path
                fill="#60423d"
                d="M469.96,1378.87c-9.79,22.49-19.57,46.86-28.43,72.09l-3.27-1.16c-14.53-44.82-60.57-92.06-60.57-92.06
							c0.16-0.95,0.39-1.91,0.66-2.86c1.3,0.75,2.71,1.73,4.24,2.92c56.78,44.43,55.13,57.02,66.62,38.01
							c11.57-19.1-37.4-79.94-38.77-81.64C443.36,1333.31,465.11,1370.12,469.96,1378.87z"
                className="color60423d svgShape"
              ></path>
              <path
                fill="#e2a383"
                d="M441.53,1450.97c-13.31,37.93-24.51,77.82-30.44,116.29c-7.02,13.82-44.43,81.07-156.95,188.22
							c-7.8,7.43-17.93,15.14-28.56,22.57c1.65-2.14,3.5-4.38,5.54-6.76c81.52-94.95,175.43-253.88,177.5-299.27
							c2.07-45.41-30.93-114.26-30.93-114.26s46.04,47.24,60.57,92.06L441.53,1450.97z"
                className="colore2a383 svgShape"
              ></path>
              <path
                fill="#7f5c54"
                d="M409.4,1660.04c0,0,76.61,72.02,307.77,20.43c231.16-51.6,284.82,74.3,334.36,123.84
							c49.53,49.53-9.88,54.99-55.73,88.75c-67.13,49.43-94.4-0.87-158.38-73.11c0,0,18.98,40.71,33.75,77.21
							c18.43,45.53-106.3,119.62-177.51,132c-6.29,1.09-28.58-165.74-34.29-165.01c-2.77,0.36,7.63,168.41,4.99,168.69
							c-115.24,12.12-108.99-48.2-238.21-7.7c-20.97,6.57-41.78,8.28-61.77,6.55c-3.38-0.29,27.95-119.59,24.62-120.07
							c-6.07-0.88-46.73,116.85-52.61,115.41c-71.31-17.49-126.64-73.47-131.08-92.71C199.13,1907.5,297.71,1728.36,409.4,1660.04z"
                className="color7f5c54 svgShape"
              ></path>
              <path
                fill="#e2a383"
                d="M1231.47,1953.18c-80.41,1.36-154.06,55.74-154.06,55.74c-15.36-30.71-41.46-55.27-95.21-30.71
							c-53.74,24.58-41.78-17.11-100.13,16.67c-58.35,33.79-134.82,73.93-134.82,73.93c-5.36-4.75-9.87-9.54-13.55-14.34
							c49.03-21.24,104.84-60.17,172.23-119.26c11.04,13.39,22.83,23.69,33.08,24.03c23.08,0.79,47.34-25.73,81.95-45.7
							c7.21,6.21,34.59,31.24,50.86,65.82l3-0.56c25.14-26.74,87.09-45.65,148.28-50.79l0.02,0.18
							C1223.12,1928.18,1227.04,1937.59,1231.47,1953.18z"
                className="colore2a383 svgShape"
              ></path>
              <path
                fill="#60423d"
                d="M1370.55,2161.64c-3.93,0.61-7.69,0.8-11.33,0.63c11.45-62.32,28.12-153.28-36.73-190.06
							c-25.14-14.25-65.02-19.48-91.01-19.03c-4.43-15.59-8.35-24.99-8.35-24.99l-0.02-0.18c58.8-4.94,116.94,2.83,141.09,28.54
							C1413.47,2009.01,1413.25,2155.07,1370.55,2161.64z"
                className="color60423d svgShape"
              ></path>
              <path
                fill="#e2a383"
                d="M777.3,2549.19c-13.1,6.45-26.2,11.91-39.07,16.52c-3.24-153.34-40.41-422.03-60.26-443.55
							c-24.77-26.84-80.5-8.27-119.72-33.02c-36.15-22.84-95.14-12.33-104.1-10.56c-0.8-9.33-0.98-15.7-1-19.05
							c41.46-12.1,64.58-27.21,124.81-0.51c42.4,18.8,85.96,20.82,136.55,3.03C741.31,2161.43,770.86,2390.84,777.3,2549.19z"
                className="colore2a383 svgShape"
              ></path>
              <path
                fill="#60423d"
                d="M767.98,2705.4c-31.8,66.78-166.95,76.32-184.43,63.6c-5.55-4.03-6.84-13.84-6.6-29.79
							c38.29-1.19,140.04-11.51,156.74-86.62c4.08-18.35,5.33-49.12,4.54-86.88c12.87-4.61,25.97-10.07,39.07-16.52
							C780.37,2624.63,778.19,2683.95,767.98,2705.4z"
                className="color60423d svgShape"
              ></path>
              <path
                fill="#e5a355"
                d="M1198.58,1716.74c-375.11-34.88-381.45-412.33-381.51-432.88c1.91-0.69,3.85-1.43,5.81-2.23
							c8.86-3.6,17.02-7.43,24.51-11.43l0.85,1.61c-1.65,81.21,11.57,154.49,38.75,213.34c8.88,19.22,19.23,36.89,31.05,52.8
							c0,0,52.94,89.01,193.37,150.4C1139.74,1700.73,1176.9,1712.55,1198.58,1716.74z"
                className="colore5a355 svgShape"
              ></path>
              <g>
                <path
                  fill="#e5a355"
                  d="M1326.66,1457.1c-2.65,5.2-5.3,10.53-7.95,15.97c-125.44,4.66-286.25-171.77-310.38-199.09
							c-2.99-11.62-7.34-23.12-13.56-33.79c0,0,73.79,69.28,154.28,135.84c4.3,3.55,8.49,6.93,12.59,10.15
							c72.72,57.24,115.53,64.5,163.88,70.34L1326.66,1457.1z"
                  className="colore5a355 svgShape"
                ></path>
              </g>
              <g>
                <path
                  fill="#e5a355"
                  d="M1441.62,1583.47c-40.24,148.6-122.29,218.25-122.29,218.25c-61.92,3.1-113-12.38-113-12.38
							c0.21-0.92,0.43-1.81,0.64-2.73c46.81,9.13,125.61-5.15,189.02-164.86c96.78-243.76,10.76-265.27,10.76-265.27
							c0.96-2.78,1.97-5.43,3-7.93c1.36-0.29,2.7-0.42,4-0.39C1477.22,1349.72,1481.86,1434.85,1441.62,1583.47z"
                  className="colore5a355 svgShape"
                ></path>
              </g>
              <g>
                <path
                  fill="#38212a"
                  d="M581.18,762.48c-55.39,0-70.73-14.71-72.66-16.85c-0.12-0.13-0.22-0.26-0.33-0.4
								c-71.43-95.23-77.61-226.55-70.21-319.94c4.45-56.2,13.77-95.54,13.86-95.93c0.72-3.02,3.76-4.88,6.77-4.15
								c3.02,0.72,4.88,3.75,4.16,6.77c-0.09,0.38-9.22,38.94-13.59,94.2c-7.23,91.36-1.33,219.6,67.77,312
								c1.63,1.43,25.2,20.49,114.29,9.73c-8.89-18.18-30.64-69.05-38.11-144.46c-9.87-99.59,8.8-201.36,55.49-302.5
								c1.3-2.82,4.64-4.05,7.46-2.75c2.82,1.3,4.05,4.64,2.75,7.46c-45.84,99.3-64.18,199.12-54.51,296.69
								c9.02,91.1,40.19,146.79,40.5,147.34c0.92,1.62,0.98,3.6,0.15,5.27c-0.83,1.67-2.43,2.83-4.28,3.08
								C616.98,761.22,597.36,762.48,581.18,762.48z"
                  className="color38212a svgShape"
                ></path>
                <path
                  fill="#38212a"
                  d="M737.07,751.31c-25.37,0-43.42-1.24-45.25-1.37c-1.08-0.08-2.12-0.47-2.98-1.12
								c-49.09-37.07-85.37-119.44-95.32-143.8c-1.86-4.54-2.83-7.15-2.87-7.26c-1.08-2.91,0.4-6.14,3.3-7.23
								c2.91-1.08,6.14,0.39,7.23,3.3c0.01,0.03,0.96,2.57,2.74,6.93c9.59,23.47,44.22,102.23,90.37,138.07
								c13.72,0.83,108.91,5.7,170.4-13.78c-10.06-16.26-38.14-63.54-64.21-124.88c-29.91-70.37-63.26-174.25-52.34-269.57
								c0.35-3.08,3.14-5.31,6.22-4.94c3.08,0.35,5.3,3.14,4.94,6.22c-10.64,92.82,22.1,194.64,51.43,263.71
								c31.92,75.15,66.85,128.89,67.2,129.42c0.94,1.44,1.17,3.23,0.63,4.85c-0.54,1.63-1.8,2.92-3.42,3.5
								C833.94,748.3,776.62,751.31,737.07,751.31z"
                  className="color38212a svgShape"
                ></path>
                <path
                  fill="#38212a"
                  d="M891.47,734.17c-10.2,0-17.85-0.43-18.56-0.47c-3.1-0.18-5.46-2.84-5.28-5.94
								c0.18-3.1,2.85-5.47,5.94-5.28c0.37,0.02,34.96,1.97,55.35-2.51c0.81-3.46,2.17-9.58,3.75-17.83
								c10.33-53.9,36.66-238.48-57.94-351.03c-2-2.38-1.69-5.92,0.69-7.92c2.38-2,5.92-1.69,7.92,0.69
								c41.64,49.55,65.52,116.97,70.97,200.39c4.43,67.91-4.74,129.38-10.6,159.98c-2.6,13.63-4.6,21.43-4.68,21.76
								c-0.5,1.95-2,3.48-3.94,4.01C922.83,733.42,904.93,734.17,891.47,734.17z"
                  className="color38212a svgShape"
                ></path>
                <path
                  fill="#38212a"
                  d="M986.89 719.4c-28.89 0-47.1-8.92-51.41-11.28-.92-.5-1.41-.81-1.41-.81-2.61-1.66-3.4-5.13-1.75-7.75 1.65-2.62 5.08-3.41 7.71-1.78.06.04.35.21.84.48 5.19 2.84 32.83 16.23 77.09 6.37 4.38-8.84 20.47-44.75 23.28-100.08.28-5.42.43-11.09.43-16.88 0-3.1 2.52-5.62 5.62-5.62 3.1 0 5.62 2.52 5.62 5.62 0 5.98-.15 11.85-.44 17.45-3.38 66.68-24.89 105.53-25.81 107.15-.77 1.36-2.07 2.34-3.59 2.7C1009.66 718.19 997.55 719.4 986.89 719.4zM964.85 1170.09c-1.39 0-2.78-.51-3.87-1.55-2.25-2.14-2.34-5.69-.2-7.93l.02-.02c.51-.54 1.13-.97 1.81-1.27.53-.24 54.88-24.98 106.1-97.28 42.04-59.31 69.96-132.88 82.97-218.66 14.51-95.54 10.21-205.9-12.78-328-.57-3.05 1.43-5.99 4.48-6.56 3.05-.58 5.99 1.43 6.56 4.48 23.22 123.35 27.54 234.97 12.84 331.77-13.28 87.53-41.85 162.71-84.91 223.47-51.62 72.87-106.63 99.17-110.53 100.97C966.56 1169.9 965.7 1170.09 964.85 1170.09z"
                  className="color38212a svgShape"
                ></path>
                <path
                  fill="#38212a"
                  d="M964.86 1170.08c-1.14 0-2.3-.35-3.29-1.07-2.51-1.82-3.07-5.33-1.25-7.84 1.69-2.32 16.9-23.78 34.68-66.07 28.74-68.34 61.98-185.87 57.11-357.7-1.33-46.44-4.97-90.77-10.83-131.77-19.69-137.92-61.79-219.93-93.64-264.45-34.12-47.69-63.51-63.18-63.81-63.33-2.76-1.42-3.84-4.81-2.42-7.57 1.42-2.76 4.81-3.84 7.57-2.42 1.29.67 32.12 16.9 67.8 66.78 32.58 45.53 75.61 129.23 95.62 269.4 5.92 41.41 9.6 86.17 10.94 133.04 4.92 173.83-28.82 293.01-57.99 362.37-18.27 43.46-34.18 65.89-35.94 68.31C968.32 1169.27 966.6 1170.08 964.86 1170.08zM1086.71 1071.86c-8.36 0-13.51-.75-14.02-.83-3.07-.47-5.17-3.34-4.7-6.41.47-3.07 3.34-5.18 6.4-4.7.58.08 28.41 3.98 61.71-8.12 22.69-8.21 42.71-21.87 59.53-40.58 18.76-20.88 32.93-49.7 38.87-79.08 7.24-35.69 1.32-66.61-15.45-80.69-13.51-11.34-34.18-12.03-59.77-1.98-.09.04-.19.07-.28.1l-.39.16c-2.88 1.15-6.15-.25-7.31-3.13-1.15-2.88.25-6.15 3.13-7.31.35-.14.61-.24.85-.33 37.41-14.65 59.25-5.98 71 3.88 20.23 16.99 27.42 51.2 19.24 91.53-6.33 31.29-21.46 62.04-41.52 84.36-18.06 20.11-39.61 34.79-64.05 43.63C1118.3 1070.22 1099.02 1071.86 1086.71 1071.86z"
                  className="color38212a svgShape"
                ></path>
                <path
                  fill="#38212a"
                  d="M194.75,1399.73c-7.63,0-15.28-0.66-22.92-2.01c-45.94-8.1-84.97-40.77-99.43-83.25
								c-15.49-45.48-2.37-94.23,36.92-137.27c1.74-1.9,4.54-2.38,6.8-1.16c2.27,1.21,3.42,3.81,2.8,6.31
								c-0.18,0.71-17.28,71.16,11.25,110.04c11.35,15.47,28.76,24.02,51.75,25.41c20.58,1.24,36.99-5.28,50.14-19.95
								c41.25-45.98,46.64-172.91,15.19-357.4c-16.71-98.02-15.95-214.56,2.07-319.74c22.31-130.2,70.22-242.69,138.56-325.31
								c93.72-113.33,224.27-172.45,388.01-175.72c181.55-3.63,337.65,67.92,439.5,201.46c50.68,66.45,85.55,146.2,100.83,230.61
								c15.37,84.9,10.65,173.19-13.65,255.31c-13.42,45.36-32.73,88.83-57.4,129.2c-1.62,2.65-5.07,3.48-7.72,1.86
								c-2.65-1.62-3.48-5.08-1.86-7.72c24.16-39.53,43.08-82.1,56.22-126.52c48.59-164.23,16.69-342.14-85.34-475.92
								c-99.62-130.62-252.47-200.64-430.34-197.04c-160.33,3.21-288.03,60.96-379.58,171.65c-141.25,170.8-171.19,442.5-138.21,636
								c22.67,132.96,37.96,304.53-17.9,366.8c-15.38,17.14-35.3,25.1-59.19,23.66c-26.49-1.61-46.72-11.7-60.15-30.01
								c-21.41-29.21-20.19-72.14-16.92-97.81c-25.81,35.5-33.34,73.83-21.15,109.65c13.16,38.65,48.78,68.41,90.75,75.8
								c48.9,8.62,98.67-13.46,136.55-60.59c49.3-61.34,67.01-134.06,57.41-235.8c-4.33-46.01-13.41-92.62-23.01-141.98
								c-15.77-81.04-32.08-164.84-26.33-247.56c8.08-116.37,40.11-186.09,65.56-224.09c27.96-41.75,54.01-55.48,55.11-56.05
								c2.76-1.42,6.15-0.34,7.57,2.42c1.42,2.76,0.34,6.14-2.41,7.56c-0.44,0.23-25.19,13.57-51.48,53.15
								c-24.46,36.83-55.27,104.5-63.13,217.79c-5.64,81.24,10.52,164.31,26.15,244.64c9.66,49.63,18.78,96.51,23.17,143.07
								c9.9,104.88-8.56,180.1-59.84,243.89C284.4,1376.26,240.07,1399.73,194.75,1399.73z"
                  className="color38212a svgShape"
                ></path>
                <path
                  fill="#38212a"
                  d="M648.43,1229.93c-5.15,0-10.25-0.09-15.29-0.27c-51.04-1.78-98.37-12.68-140.69-32.4
								c-3.77-1.76-7.56-3.62-11.26-5.52c-78.04-40.13-110.61-96.91-111.96-99.31c-1.52-2.7-0.56-6.13,2.14-7.65
								c2.7-1.52,6.13-0.56,7.65,2.14l0,0c0.32,0.56,32.44,56.33,107.32,94.83c3.57,1.84,7.23,3.63,10.86,5.33
								c40.95,19.08,86.82,29.63,136.34,31.36c19.22,0.69,39.32,0.03,59.73-1.95c19.31-1.88,38.32-4.38,56.5-7.43
								c50.01-8.41,95.33-21.28,134.7-38.26c72.21-31.14,103.41-66.77,111.25-76.95c1.2-1.56,1.78-2.42,1.78-2.43
								c1.71-2.58,5.19-3.3,7.78-1.59c2.59,1.71,3.31,5.18,1.61,7.77c-0.08,0.12-0.81,1.22-2.28,3.12
								c-8.25,10.71-41,48.19-115.69,80.39c-40.2,17.33-86.39,30.46-137.29,39.02c-18.44,3.1-37.72,5.63-57.28,7.53
								C678.8,1229.17,663.41,1229.93,648.43,1229.93z"
                  className="color38212a svgShape"
                ></path>
                <path
                  fill="#38212a"
                  d="M683.67,1265.86c-40.01,0-54.96-38.16-55.58-39.79c-1.1-2.9,0.36-6.15,3.26-7.25
								c2.89-1.1,6.14,0.35,7.24,3.24l0,0c0.51,1.33,12.92,32.56,45.12,32.56c1,0,1.99-0.02,3-0.09c1.14-0.07,2.26-0.18,3.38-0.31
								c33.65-4.25,55.57-41.78,55.79-42.16c1.54-2.69,4.98-3.62,7.67-2.08c2.69,1.54,3.62,4.97,2.09,7.66
								c-1,1.74-24.86,42.77-64.18,47.73c-1.4,0.17-2.71,0.28-4.04,0.37C686.13,1265.83,684.89,1265.86,683.67,1265.86z"
                  className="color38212a svgShape"
                ></path>
                <path
                  fill="#38212a"
                  d="M606.4,1290.84c-34.54,0-59.97-16.06-77.44-33.57c-25.39-25.48-37.32-57.16-39.45-63.26
								c-0.27-0.73-0.41-1.17-0.41-1.17c-0.98-2.94,0.61-6.13,3.55-7.11c2.94-0.98,6.12,0.61,7.1,3.55
								c0.02,0.05,0.13,0.38,0.34,0.95c2.01,5.75,13.15,35.34,36.82,59.1c38.06,38.17,86.59,40.43,144.23,6.72
								c2.68-1.57,6.12-0.67,7.69,2.01c1.57,2.68,0.66,6.12-2.01,7.69C655.86,1283.88,629.15,1290.84,606.4,1290.84z"
                  className="color38212a svgShape"
                ></path>
                <path
                  fill="#38212a"
                  d="M768.58,1298.59c-52.51,0-80.77-32.61-81.98-34.04c-2.01-2.37-1.71-5.91,0.65-7.92
								c2.36-2,5.9-1.71,7.91,0.64l0,0c0.27,0.32,27.76,31.76,77.54,30c15.42-0.53,31.59-4.19,48.06-10.86
								c8.35-3.39,16.42-7.15,23.98-11.18c60.59-32.24,76.87-74.48,77.77-76.92c0.09-0.26,0.2-0.52,0.31-0.74
								c1.39-2.77,4.76-3.9,7.54-2.51c2.56,1.28,3.72,4.26,2.79,6.89c-0.02,0.05-0.03,0.1-0.05,0.14
								c-0.71,1.97-18.22,48.55-83.07,83.05c-7.9,4.21-16.32,8.14-25.04,11.68c-17.7,7.17-35.16,11.1-51.89,11.68
								C771.57,1298.56,770.07,1298.59,768.58,1298.59z"
                  className="color38212a svgShape"
                ></path>
                <path
                  fill="#38212a"
                  d="M1026.23,1414.64c-0.92,0-1.84-0.22-2.7-0.7c-0.75-0.41-18.4-10.53-16.71-45.1
								c0.12-2.56,0.34-5.59,0.58-9.1c0.41-5.82,0.92-13.06,1.19-21.05c1.36-40.49-4.75-71.78-18.68-95.66
								c-12.93-22.16-42.11-38.16-64.32-47.67c-19.94-8.54-37.07-13.13-40.3-13.96c-0.58-0.14-0.92-0.23-0.92-0.23
								c-3-0.79-4.79-3.86-4.01-6.86c0.79-3,3.86-4.8,6.85-4.01l0.81,0.2c3.44,0.89,21.29,5.67,41.99,14.53
								c34.56,14.81,57.98,32.42,69.6,52.34c15.03,25.76,21.63,59.02,20.2,101.7c-0.28,8.2-0.8,15.56-1.22,21.47
								c-0.24,3.41-0.45,6.38-0.57,8.85c-1.33,27.21,10.78,34.65,10.9,34.72c2.72,1.5,3.71,4.91,2.21,7.63
								C1030.13,1413.59,1028.21,1414.64,1026.23,1414.64z"
                  className="color38212a svgShape"
                ></path>
                <path
                  fill="#38212a"
                  d="M918.03,1543.56c-2.8,0-5.22-2.09-5.57-4.94c-0.38-3.08,1.82-5.88,4.9-6.26
								c64.83-7.91,107.75-45.58,127.57-67.33c5.06-5.56,8.55-10.03,10.4-12.51c-5.61-15.95-20.96-29.84-28.31-35.8
								c-50.36,56.65-134.98,73.1-138.64,73.78c-3.05,0.58-5.98-1.43-6.56-4.48c-0.57-3.05,1.43-5.99,4.48-6.56
								c0.88-0.17,88.41-17.23,135.61-74.03c1.87-2.25,5.16-2.69,7.55-1c1.23,0.86,30.12,21.4,37.48,47.58
								c0.45,1.59,0.17,3.29-0.75,4.66c-0.18,0.27-4.52,6.66-12.96,15.94c-20.87,22.91-66.09,62.57-134.51,70.92
								C918.49,1543.55,918.26,1543.56,918.03,1543.56z"
                  className="color38212a svgShape"
                ></path>
                <path
                  fill="#38212a"
                  d="M1232.2,1726.12c-2.65,0-5.43-0.09-8.32-0.28c-7.89-0.52-16.77-1.72-26.37-3.59
								c-23.08-4.46-61.06-16.83-88.35-28.77c-140.47-61.4-193.75-148.98-195.95-152.67c-1.59-2.67-0.71-6.12,1.96-7.7
								c2.67-1.59,6.11-0.71,7.7,1.96c0.52,0.87,53.87,88.27,190.79,148.12c26.64,11.65,63.6,23.7,85.98,28.03
								c9.15,1.78,17.55,2.92,24.97,3.41c18.89,1.23,31.46-1.86,36.34-8.92c5.32-7.69,0.42-18.76,0.37-18.87
								c-0.68-1.51-0.67-3.26,0.05-4.75c0.72-1.5,2.05-2.61,3.66-3.03c52.5-13.58,58.55-25.21,59.15-28.45
								c0.54-2.92-2.49-5.13-2.62-5.22c-1.51-1.08-2.42-2.86-2.38-4.71c0.04-1.85,0.96-3.59,2.51-4.61
								c2.86-1.87,6.31-4.75,6.49-7.86c0.19-3.16-2.95-5.98-2.99-6.01c-1.47-1.23-2.22-3.13-1.97-5.03c0.34-2.63-0.29-3.7-0.88-4.35
								c-4.51-4.95-23.63-4.29-42.11-3.66c-5.41,0.19-11.01,0.38-16.85,0.48c-20.81,0.38-47.78-0.27-71.75-8.87
								c-25.91-9.29-59.02-34.34-98.41-74.46c-25.58-26.08-44.88-49.52-48.49-53.96l-0.6-0.73c-1.94-2.42-1.56-5.95,0.86-7.9
								c2.42-1.94,5.95-1.56,7.9,0.86l0.53,0.65c3.58,4.4,22.59,27.49,47.82,53.21c37.65,38.34,70.22,63.16,94.19,71.75
								c22.25,7.98,47.89,8.58,67.75,8.21c5.75-0.1,11.3-0.29,16.66-0.48c24.85-0.85,42.8-1.47,50.81,7.32
								c2.58,2.83,3.89,6.35,3.9,10.49c2.2,2.56,5.19,7.18,4.85,13.12c-0.27,4.57-2.42,8.79-6.42,12.6c1.82,2.89,3.04,6.65,2.29,11
								c-2.32,13.47-22.5,25.26-61.66,35.95c1.45,6.05,2.24,15.45-3.35,23.61C1263.83,1721.39,1251.04,1726.12,1232.2,1726.12z"
                  className="color38212a svgShape"
                ></path>
                <path
                  fill="#38212a"
                  d="M1262.19 1632.32c-.62 0-1.23 0-1.84-.01-3.1-.04-5.59-2.58-5.55-5.68.04-3.08 2.54-5.55 5.62-5.55.02 0 .04 0 .07 0 29.91.32 66.6-8.56 66.97-8.65 3.02-.73 6.06 1.1 6.8 4.12.74 3.01-1.1 6.06-4.12 6.8C1328.6 1623.71 1293.14 1632.32 1262.19 1632.32zM1260.06 1655.93c-3.1 0-5.62-2.52-5.62-5.62s2.52-5.62 5.62-5.62c28.14 0 62.89-9.25 63.23-9.34 2.99-.81 6.08.97 6.88 3.97.81 3-.97 6.08-3.97 6.89C1324.73 1646.6 1289.71 1655.93 1260.06 1655.93zM1242.95 1692.51c-6.87 0-14.62-.58-22.55-2.31-3.03-.66-4.95-3.65-4.29-6.68.66-3.03 3.65-4.96 6.69-4.3 21.4 4.66 42.13-.14 42.34-.19 3.01-.7 6.04 1.15 6.76 4.17.72 3.02-1.14 6.04-4.16 6.76C1267.11 1690.12 1256.85 1692.51 1242.95 1692.51zM119.82 1843.38c-4.71 0-8.94-.93-12.66-2.79-9.56-4.78-13.15-14.22-14.5-20.63-39.96 7.13-63.25 5.13-71.13-6.05-2.54-3.61-3.05-7.52-2.65-10.92-5.24-1.72-8.99-4.6-11.2-8.62-2.86-5.22-2.14-10.69-1.25-13.94-1.76-3.74-2.09-7.48-.97-11.15 3.47-11.38 19.96-18.52 42.79-28.41 23.45-10.15 52.63-22.78 72.91-43.16 14.07-14.12 46.19-55.53 95.47-123.07 71.78-98.35 155.59-218.9 156.42-220.11 1.77-2.55 5.27-3.18 7.82-1.41 2.55 1.77 3.18 5.27 1.41 7.82-.84 1.21-84.71 121.86-156.58 220.32-49.62 68-82.11 109.84-96.58 124.37-21.81 21.91-52.08 35.02-76.41 45.55-16.99 7.35-34.55 14.96-36.5 21.37-.25.83-.36 2.08 1.07 4.31 1.04 1.61 1.18 3.65.37 5.39l0 0c0 0-1.66 3.98-.1 6.76 1.52 2.7 5.85 3.81 9.21 4.27 1.87.25 3.48 1.42 4.3 3.12.82 1.69.74 3.69-.22 5.31-.04.08-1.84 3.38-.1 5.79 1.94 2.67 12.39 10.59 65.65.35 1.63-.32 3.33.11 4.62 1.17s2.05 2.63 2.06 4.3c0 .1.33 12.9 9.15 17.26 6.15 3.04 21.74 4.27 57.01-21.7 5.91-4.35 14.12-9.66 23.62-15.82 19.01-12.3 42.66-27.62 57.4-41.65 112.48-107.12 149.53-174.31 155.81-186.69.78-1.53 1.15-2.34 1.18-2.42 1.27-2.82 4.58-4.09 7.41-2.83 2.83 1.26 4.1 4.58 2.85 7.41 0 0-.44.99-1.42 2.93-6.43 12.66-44.27 81.35-158.08 189.74-15.5 14.75-39.64 30.38-59.04 42.94-9.35 6.05-17.43 11.28-23.06 15.43C152.89 1834.86 134.1 1843.38 119.82 1843.38z"
                  className="color38212a svgShape"
                ></path>
                <path
                  fill="#38212a"
                  d="M12.56 1785.52c-2.61 0-4.95-1.83-5.5-4.49-.62-3.04 1.33-6.01 4.37-6.63.37-.08 37.33-7.76 64.23-20.9 2.79-1.36 6.15-.21 7.51 2.59 1.36 2.79.2 6.15-2.58 7.51-28.2 13.77-65.33 21.48-66.89 21.8C13.31 1785.49 12.93 1785.52 12.56 1785.52zM26.01 1804.47c-2.66 0-5.03-1.9-5.52-4.61-.55-3.05 1.47-5.98 4.52-6.53.35-.06 35.72-6.59 61.14-18.67 2.8-1.33 6.16-.14 7.49 2.66 1.33 2.8.14 6.15-2.66 7.49-26.79 12.73-62.44 19.3-63.95 19.57C26.68 1804.44 26.34 1804.47 26.01 1804.47zM97.46 1818.98c-2.6 0-4.93-1.81-5.49-4.46-.64-3.03 1.3-6.01 4.33-6.66.25-.05 21-4.61 38.33-17.99 2.46-1.9 5.98-1.44 7.88 1.01 1.9 2.46 1.44 5.99-1.01 7.88-19.45 15.01-41.92 19.89-42.87 20.09C98.24 1818.94 97.85 1818.98 97.46 1818.98zM410.39 1319.77c-2.98 0-5.47-2.35-5.61-5.36-4.49-97.76 63.37-127.89 77.03-132.94 2.03-.75 3.23-1.09 3.37-1.13 2.98-.85 6.09.88 6.94 3.87.85 2.98-.88 6.08-3.86 6.94l0 0c-.01 0-.95.28-2.56.87-7.08 2.62-25.33 10.71-41.45 29.16-20.49 23.44-29.99 54.64-28.24 92.72.14 3.1-2.25 5.73-5.35 5.87C410.57 1319.76 410.48 1319.77 410.39 1319.77z"
                  className="color38212a svgShape"
                ></path>
                <path
                  fill="#38212a"
                  d="M438.25,1455.43c-2.37,0-4.57-1.51-5.34-3.89c-13.95-43.02-58.8-89.41-59.25-89.87
								c-1.26-1.3-1.82-3.12-1.51-4.9c3.97-22.42,33.5-46.03,34.76-47.03c1.81-1.43,4.31-1.61,6.31-0.45
								c33.66,19.55,55.7,56.12,61.65,66.86c0.71,1.31,1.07,2.01,1.07,2.01c1.44,2.75,0.38,6.14-2.37,7.58
								c-2.75,1.44-6.14,0.38-7.59-2.37c-0.01-0.02-0.35-0.67-0.98-1.84c-3.82-6.88-23.97-41.41-54.1-60.51
								c-8.38,7.25-23.22,22.16-27.06,35.05c9.45,10.09,46.62,51.52,59.75,92c0.96,2.95-0.66,6.12-3.61,7.08
								C439.41,1455.34,438.82,1455.43,438.25,1455.43z"
                  className="color38212a svgShape"
                ></path>
                <path
                  fill="#38212a"
                  d="M561.78,1686.77c-87.02,0-153.43-21.17-154.1-21.38c-2.01-0.65-3.48-2.38-3.82-4.46
								c-4.33-27.2-3.77-59,1.68-94.52c5.43-35.27,15.76-74.73,30.69-117.3c8.23-23.44,17.85-47.83,28.58-72.48
								c30.19-69.47,60-120.58,63.3-126.17c0.27-0.48,0.48-0.74,0.48-0.74l8.98,6.76c0,0,0.07-0.08,0.19-0.27
								c-3.79,6.44-33,56.69-62.65,124.9c-10.63,24.4-20.14,48.53-28.28,71.71c-14.7,41.91-24.86,80.7-30.18,115.28
								c-5.04,32.85-5.78,62.3-2.21,87.58c14.66,4.27,76.52,20.75,153.81,19.81c81.09-1,196.37-22,285.09-116.3
								c2.13-2.26,5.68-2.37,7.94-0.24c2.26,2.13,2.37,5.68,0.24,7.94c-40.43,42.97-89.5,74.89-145.85,94.87
								c-44.98,15.94-94.65,24.34-147.64,24.97C565.94,1686.75,563.84,1686.77,561.78,1686.77z"
                  className="color38212a svgShape"
                ></path>
                <path
                  fill="#38212a"
                  d="M647.81,2079.99c-24.55,0-48.27-5.28-72.12-15.86c-49.7-22.03-72.5-14.67-104.06-4.49
								c-5.37,1.73-10.92,3.52-16.89,5.27c-17.02,4.97-40.95,10.68-75.24,10.68c-43.58,0-92.05-22.78-144.06-67.7
								c-38.38-33.15-63.79-65.77-64.85-67.14c-1.25-1.62-1.53-3.8-0.71-5.68c42.63-98.25,104.64-169.06,149.16-211.17
								c48.29-45.68,85.98-67.8,87.56-68.72c2.68-1.56,6.12-0.65,7.68,2.03c1.56,2.68,0.65,6.12-2.03,7.68
								c-0.38,0.22-38.36,22.54-85.75,67.42c-43.2,40.9-103.19,109.37-144.95,204.13c14.92,18.34,107.9,127.9,197.96,127.9
								c32.87,0,55.79-5.46,72.09-10.22c5.83-1.7,11.3-3.47,16.6-5.17c32.65-10.53,58.45-18.84,112.07,4.92
								c42.42,18.81,84.49,19.72,132.4,2.87c5.16-1.79,10.45-3.83,15.75-6.08c48.36-20.35,105.22-59.49,173.84-119.66
								c0.73-0.63,1.43-1.24,2.14-1.87c2.32-2.06,5.87-1.85,7.93,0.46c2.06,2.32,1.85,5.87-0.46,7.93c-0.74,0.66-1.48,1.3-2.22,1.94
								c-70.48,61.8-126.68,100.43-176.84,121.53c-5.52,2.35-11.05,4.48-16.43,6.34C692.38,2075.77,669.76,2079.99,647.81,2079.99z"
                  className="color38212a svgShape"
                ></path>
                <path
                  fill="#38212a"
                  d="M940.02 1964.88c-.4 0-.8-.01-1.2-.02-10.87-.36-23.05-8.89-37.23-26.07-1.98-2.39-1.64-5.94.76-7.91 2.39-1.97 5.94-1.63 7.91.76 15.52 18.82 24.79 21.86 28.93 21.99 13.26.5 28.38-10.42 45.96-23.01 9.75-6.99 20.81-14.91 33-21.94 11.97-6.9 23.38-12.01 34.88-15.63 4.16-1.31 8.34-2.59 12.52-3.87 49.74-15.21 92.82-28.39 89.53-82.92-11.22-5.75-53.03-28.1-94.41-62.18-22.34-18.4-41.27-37.46-56.26-56.65-1.91-2.45-1.48-5.98.97-7.89 2.44-1.91 5.98-1.48 7.89.97 14.48 18.54 32.83 37.01 54.54 54.89 47.05 38.74 94.61 61.98 95.08 62.21 1.78.86 2.97 2.59 3.15 4.55 5.93 66.21-46.5 82.25-97.21 97.76-4.15 1.27-8.3 2.54-12.43 3.84-10.71 3.37-21.39 8.16-32.64 14.65-11.71 6.76-22.06 14.17-32.07 21.34C972.91 1953.21 956.63 1964.88 940.02 1964.88zM918.04 1543.56c-1.72 0-3.41-.78-4.52-2.27-11.91-16.04-22.56-34.14-31.64-53.79-27.36-59.24-40.94-133.86-39.27-215.81.06-3.1 2.67-5.52 5.73-5.5 3.1.06 5.57 2.63 5.5 5.73-1.63 80.25 11.59 153.17 38.24 210.87 8.75 18.95 19 36.38 30.46 51.8 1.85 2.49 1.33 6.01-1.16 7.86C920.38 1543.2 919.21 1543.56 918.04 1543.56z"
                  className="color38212a svgShape"
                ></path>
                <path
                  fill="#38212a"
                  d="M1212.48 1728.45c-77.63 0-146.8-13.37-205.73-39.77-61.28-27.42-112.26-69.17-151.53-124.07-35.76-49.96-61.35-109.61-76.06-177.28-11.25-51.72-11.84-90.18-11.87-94.4v-.49c0-3.1 2.52-5.62 5.62-5.62 3.1 0 5.62 2.52 5.62 5.62v.45c.04 5.95 2.02 148.07 85.83 265.18 38.1 53.26 87.55 93.75 146.99 120.35 59.8 26.79 130.57 39.81 210.39 38.73.03 0 .05 0 .08 0 3.07 0 5.57 2.46 5.62 5.54.04 3.1-2.44 5.65-5.54 5.7C1218.73 1728.43 1215.6 1728.45 1212.48 1728.45zM1325.53 1462.14c-.22 0-.45-.01-.68-.04-52.47-6.34-95.13-15.18-166.68-71.51-3.92-3.07-8.07-6.42-12.68-10.23-79.71-65.91-153.82-135.38-154.55-136.08-2.26-2.12-2.37-5.68-.25-7.94 2.13-2.26 5.68-2.37 7.94-.25.74.69 74.6 69.93 154.02 135.6 4.54 3.74 8.62 7.03 12.47 10.06 69.26 54.52 110.45 63.07 161.09 69.19 3.08.37 5.28 3.17 4.9 6.25C1330.75 1460.05 1328.33 1462.14 1325.53 1462.14zM1302.3 1507.04c-.07 0-.15 0-.22 0-56.18-2.21-114.7-23.12-173.93-62.15-69.84-46.04-116.1-101.87-116.56-102.43-1.97-2.4-1.62-5.94.77-7.91 2.4-1.97 5.94-1.63 7.91.77.45.55 45.7 55.12 114.06 100.19 57.49 37.88 114.08 58.17 168.19 60.3 3.1.12 5.52 2.73 5.39 5.83C1307.79 1504.67 1305.3 1507.04 1302.3 1507.04z"
                  className="color38212a svgShape"
                ></path>
                <path
                  fill="#38212a"
                  d="M1163.43 1389.5c-1.08 0-2.17-.31-3.13-.96-2.57-1.73-3.26-5.22-1.53-7.8 2.67-3.97 5.47-7.96 8.32-11.84 13.6-18.61 28.16-34.82 43.25-48.16 1.34-1.18 3.16-1.66 4.9-1.28.35.08 35.54 7.63 80.86 15.3 38.71 6.56 73.05 11.25 102.06 13.94.11.01.22.02.34.04l.19.01c3.09.23 5.42 2.93 5.18 6.02-.23 3.1-2.94 5.42-6.02 5.18-.29-.02-.57-.05-.86-.08-29.27-2.72-63.84-7.45-102.77-14.04-38.22-6.47-69.29-12.86-78.54-14.8-13.74 12.45-27.03 27.41-39.53 44.51-2.77 3.77-5.48 7.63-8.06 11.47C1167.01 1388.63 1165.24 1389.5 1163.43 1389.5zM1099.52 1527.15c-.49 0-.98-.06-1.48-.2-2.99-.81-4.76-3.9-3.95-6.89.41-1.51 10.31-37.54 32.09-82.33.22-.45.42-.85.62-1.26l10.12 4.87c-.22.46-.44.92-.66 1.36-21.26 43.72-31.23 79.94-31.32 80.3C1104.26 1525.51 1101.99 1527.15 1099.52 1527.15zM1206.33 1794.96c-.05 0-.1 0-.15 0-61.18-1.58-140.32-49.87-143.66-51.93-2.64-1.63-3.47-5.09-1.84-7.73 1.63-2.64 5.09-3.47 7.73-1.84.79.49 79.92 48.76 138.06 50.26 3.1.08 5.55 2.66 5.47 5.76C1211.87 1792.54 1209.37 1794.96 1206.33 1794.96z"
                  className="color38212a svgShape"
                ></path>
                <path
                  fill="#38212a"
                  d="M1302.53 1807.75c-54.12 0-95.9-12.45-97.82-13.03-2.83-.86-4.52-3.77-3.84-6.65 4.92-21.07 10.79-43.38 17.44-66.31l.44-1.51c.84-2.99 3.93-4.73 6.93-3.89 2.99.84 4.73 3.94 3.89 6.93l-.45 1.56c-6.06 20.88-11.45 41.2-16.06 60.51 14.09 3.62 55.77 12.96 104.02 10.85 10.85-9.94 82.7-79.71 119.12-214.2 29.96-110.63 33.8-181.94 11.43-211.93-7.9-10.59-19.03-15.92-34.01-16.28-3.1-.07-6.79 1.25-10.97 3.91-.56.36-1.12.74-1.67 1.14-18.43 13-42.36 47.84-69.29 100.81-7.07 13.87-14.36 29.09-21.69 45.25-14.21 31.33-28.15 65.34-41.44 101.06-1.08 2.91-4.32 4.39-7.23 3.31-2.91-1.08-4.39-4.32-3.31-7.23 13.38-35.97 27.43-70.21 41.74-101.78 7.4-16.32 14.77-31.69 21.91-45.71 19.35-38.07 47.69-87.16 72.75-104.84.68-.5 1.44-1.02 2.2-1.5 6.09-3.87 11.89-5.8 17.26-5.66 18.42.45 32.8 7.45 42.76 20.8 24.89 33.36 21.75 105.85-9.59 221.59-40.24 148.58-120.67 218.18-124.08 221.07-.94.8-2.12 1.27-3.36 1.33C1313.8 1807.62 1308.1 1807.75 1302.53 1807.75zM613.38 2779.42c-15.47 0-27.71-1.93-33.14-5.88-10.5-7.63-9.58-26.17-7.9-59.82 1.48-29.58 3.5-70.1-.75-123.47-1.12-13.93-2.62-28.13-4.46-42.21-12.36-94.42-44.94-193.59-71.11-273.28-10.62-32.34-19.8-60.26-26-83.01-20.52-75.23-22.39-120.2-22.48-132.19-.02-2.02.02-3.03.02-3.03.11-3.1 2.7-5.52 5.81-5.42 3.1.11 5.52 2.71 5.42 5.8 0 .1-.03.95-.01 2.55.08 11.65 1.93 55.39 22.08 129.32 6.13 22.47 15.26 50.27 25.83 82.46 26.32 80.14 59.08 179.87 71.58 275.33 1.87 14.26 3.39 28.65 4.52 42.77 4.31 54.1 2.27 95.03.78 124.93-1.34 26.77-2.3 46.12 3.28 50.18 6.49 4.72 44.95 6.64 88.34-4.38 25.72-6.53 71.31-22.64 87.72-57.09 8.93-18.76 12.05-73.29 8.79-153.56-6.47-159.19-35.73-386.25-62.61-485.92-.19-.65-.39-1.39-.59-2.12-.82-2.99.95-6.08 3.94-6.9 2.99-.82 6.08.95 6.9 3.94.19.68.37 1.36.57 2.05 27.08 100.41 56.52 328.63 63.02 488.49 3.43 84.44.11 137.89-9.87 158.85-18.38 38.6-67.47 56.13-95.09 63.15C655.97 2776.54 632.27 2779.42 613.38 2779.42zM1002.93 2205.78c-4.68 0-9.43-.12-14.25-.38-48.05-2.53-104.2-25.52-166.89-68.34-48.42-33.08-85.04-67.46-95.11-77.21-1.59-1.53-2.42-2.36-2.42-2.36-2.19-2.19-2.19-5.75 0-7.94 2.19-2.19 5.75-2.19 7.94 0 .03.03.8.8 2.28 2.21 14.44 13.98 144.08 136.6 254.79 142.42 70.93 3.75 126.94-22.62 171.95-43.8 21.54-10.13 41.88-19.71 60.55-24.44 8.64-2.18 16.42-3.24 23.77-3.24 32.32 0 54.26 10.81 73.62 20.35 17.26 8.51 32.16 15.85 50.53 13.02 9.88-1.52 15.99-13.55 19.38-23.38 7.57-21.94 9.3-56 4.52-88.89-5.21-35.91-17.42-66.31-33.5-83.42-20.54-21.88-72.85-32.14-136.52-26.79-64 5.37-122.13 25.08-144.66 49.04-2.13 2.26-5.68 2.37-7.94.24-2.26-2.12-2.37-5.68-.25-7.94 24.67-26.24 84.29-46.87 151.9-52.54 68.03-5.72 122.47 5.6 145.65 30.29 17.87 19.03 30.81 50.81 36.43 89.5 5.09 35.07 3.22 70.28-5.02 94.17-7.96 23.1-19.78 29.51-28.29 30.82-21.86 3.38-39.03-5.09-57.2-14.05-18.26-9-38.95-19.2-68.65-19.2-6.42 0-13.29.95-21.02 2.89-17.61 4.46-36.57 13.38-58.52 23.71C1122.87 2180.85 1069.88 2205.78 1002.93 2205.78z"
                  className="color38212a svgShape"
                ></path>
                <path
                  fill="#38212a"
                  d="M1081.18 2011.45c-2.55 0-4.86-1.75-5.46-4.34-1.96-8.36-4.98-16.89-8.97-25.36-15.66-33.3-41.8-57.37-49.44-63.95-1-.88-1.57-1.34-1.62-1.38-2.42-1.94-2.81-5.47-.87-7.89 1.93-2.42 5.46-2.82 7.89-.89 0 0 .71.57 1.97 1.67 8.04 6.93 35.64 32.35 52.24 67.66 4.32 9.18 7.6 18.46 9.74 27.58.71 3.02-1.16 6.04-4.18 6.75C1082.03 2011.4 1081.6 2011.45 1081.18 2011.45zM1221.8 2139.6c-.9 0-1.81-.22-2.65-.67-2.73-1.47-3.76-4.87-2.29-7.61.44-.82.86-1.62 1.27-2.44 44.93-87.71.26-197.44-.19-198.54-1.19-2.87.17-6.15 3.03-7.34 2.86-1.19 6.15.16 7.34 3.03.49 1.17 12.01 29.13 17.89 68.78 5.45 36.77 6.74 90.77-18.04 139.15-.43.87-.91 1.77-1.4 2.68C1225.74 2138.53 1223.8 2139.6 1221.8 2139.6zM597.75 2595.83c-11.07 0-17.8-.52-18.82-.6-3.09-.26-5.39-2.97-5.13-6.06.26-3.09 2.96-5.39 6.06-5.14.98.09 98.83 7.52 194.87-39.83.1-.05.21-.11.31-.16 2.66-1.4 5.98-.45 7.48 2.18 1.54 2.69.61 6.12-2.08 7.67-.17.1-.36.19-.54.28-.04.02-.08.04-.12.06C705.28 2590.99 631.45 2595.83 597.75 2595.83zM780.1 2554.06c-.02.01-.04.03-.07.04C780.05 2554.09 780.08 2554.07 780.1 2554.06zM774.91 2544.11c-.02.01-.03.02-.05.03C774.88 2544.13 774.89 2544.12 774.91 2544.11zM774.92 2544.1C774.92 2544.1 774.91 2544.11 774.92 2544.1 774.91 2544.11 774.92 2544.1 774.92 2544.1zM1540.53 1765.51c-.48 0-.96 0-1.44 0-52.55-.38-82.97-21.78-84.24-22.69-1.47-1.06-2.35-2.76-2.34-4.58 0-1.81.88-3.51 2.36-4.57.45-.32 45.97-33.28 77.93-97.49 29.44-59.15 53.08-157.83-1.46-292.08-1.17-2.88.22-6.15 3.09-7.32 2.88-1.17 6.15.22 7.32 3.09 24.79 61.02 36.04 120.15 33.43 175.75-2.09 44.61-13.05 87.03-32.57 126.08-26.19 52.37-60.27 84.1-74.55 95.91 11.16 5.9 35.92 16.41 71.11 16.66 41.93.29 85.89-13.63 130.64-41.42 47.42-29.47 78.62-81.53 85.59-142.82 10.31-90.62-31.78-190.35-115.49-273.6-9.82-9.76-19.74-19.3-29.33-28.53-40.62-39.06-78.99-75.96-107.97-127.19-32.48-57.43-48.41-124.61-50.11-211.41-.81-41.49.15-87.04 1.16-135.27 5.29-250.98 11.86-563.34-217.36-710.45-112.9-72.45-223.85-86.94-329.76-43.06-79.2 32.81-125.78 87.82-126.24 88.37-1.99 2.38-5.53 2.7-7.91.71-2.38-1.99-2.7-5.53-.71-7.91 1.94-2.33 48.52-57.43 130.12-91.37 48-19.96 98.08-28.27 148.86-24.7 63.33 4.45 127.83 27.5 191.72 68.5 104.36 66.98 170.23 172.79 201.36 323.5 26.79 129.66 23.8 271.5 21.16 396.64-1.01 48.11-1.97 93.55-1.16 134.81 3.64 185.53 73.61 252.81 154.62 330.72 9.63 9.26 19.58 18.83 29.47 28.66 45.08 44.84 78.18 93.46 98.38 144.5 18.34 46.34 25.37 94.17 20.34 138.34-7.36 64.72-40.47 119.79-90.83 151.09C1629.68 1751 1584.19 1765.51 1540.53 1765.51z"
                  className="color38212a svgShape"
                ></path>
                <path
                  fill="#38212a"
                  d="M1352.11 317.83c-1.79 0-3.56-.86-4.64-2.45-92.83-135.93-196.81-173.84-267.68-181.71-76.87-8.53-132.66 15.38-133.21 15.63-2.84 1.24-6.15-.05-7.4-2.89-1.25-2.84.04-6.15 2.88-7.4 2.36-1.03 58.64-25.26 138.37-16.57 46.77 5.1 91.83 20.58 133.93 46.03 52.43 31.69 100.34 78.99 142.4 140.58 1.75 2.56 1.09 6.06-1.47 7.81C1354.3 317.51 1353.2 317.83 1352.11 317.83zM1172.49 1378.88c-1.57 0-3.14-.66-4.25-1.94 0 0-.34-.4-.98-1.17-8.91-11.08-51.89-71.73-24.77-180.19 23.35-93.39-.57-126.6-8.46-134.55-1.52-1.53-2.52-2.2-2.52-2.21-2.56-1.7-3.31-5.17-1.64-7.75 1.67-2.58 5.07-3.36 7.68-1.73.32.2 2.05 1.33 4.47 3.77 11.45 11.55 35.48 48.81 11.38 145.19-26.37 105.5 17.51 164.07 22.61 170.4.45.55.71.86.74.89 2.02 2.35 1.76 5.89-.58 7.92C1175.1 1378.43 1173.79 1378.88 1172.49 1378.88zM1398.58 1357.14c-1.84 0-3.65-.91-4.72-2.57-73.52-113.77-94.44-234.69-100.06-281.89-23.78 56.87-22.25 121.31-16.18 167.36 7.34 55.68 22.73 97.37 22.88 97.78 1.08 2.91-.39 6.14-3.3 7.23-2.9 1.08-6.14-.39-7.23-3.3-.65-1.73-15.93-43.1-23.46-99.98-6.98-52.75-8.14-128.97 26.01-192.55 1.19-2.23 3.73-3.38 6.19-2.82 2.46.56 4.25 2.69 4.37 5.21.07 1.53 8.44 154.84 100.21 296.86 1.68 2.61.94 6.08-1.67 7.77C1400.69 1356.85 1399.63 1357.14 1398.58 1357.14zM1458.13 1743.87c-2.83 0-5.27-2.13-5.58-5.01-.33-3.09 1.9-5.86 4.98-6.19 80.05-8.67 134.26-37.38 161.13-85.34 48.55-86.65-8.18-208.84-8.76-210.07-1.33-2.8-.13-6.15 2.68-7.48 2.81-1.32 6.15-.13 7.48 2.67.62 1.3 15.18 32.34 23.68 75.04 11.34 56.95 6.07 107.19-15.26 145.28-28.74 51.34-85.86 81.98-169.75 91.06C1458.53 1743.85 1458.33 1743.87 1458.13 1743.87zM1347.66 1853.39c-48.28 0-85.12-8.63-86.91-9.06-2.38-.57-4.12-2.61-4.3-5.05-.18-2.44 1.24-4.72 3.52-5.63 29.63-11.84 55.26-35.78 55.51-36.02 2.26-2.13 5.82-2.02 7.94.24 2.13 2.26 2.02 5.82-.24 7.94-.91.86-19.03 17.79-43.11 30.77 19.5 3.19 53.97 7.29 91.99 4.79 77.25-5.06 131.84-33.43 162.25-84.33 1.59-2.66 5.04-3.53 7.71-1.94 2.66 1.59 3.53 5.04 1.94 7.7-32 53.56-91.29 84.62-171.45 89.8C1363.99 1853.15 1355.66 1853.39 1347.66 1853.39z"
                  className="color38212a svgShape"
                ></path>
              </g>
              <g>
                <path
                  fill="#3a212b"
                  d="M511.92,687.78c-48.84-5.05-91.58-3.32-180.53,62.18c0,0,145.42-94.65,274.54-13.18l0,0
																		C598.73,713.06,549.64,691.68,511.92,687.78z"
                  className="color3a212b svgShape"
                ></path>
                <ellipse cx="485.44" cy="898" fill="#ffffff" rx="100.84" ry="97.25" transform="rotate(-2.206 485.96 898.921)" className="colorfff svgShape"></ellipse>
                <path
                  fill="#c1c1c1"
                  d="M583.43,876.15c0,0-100.4-78.13-204.26,20.8c0,0-20.6-56.58,44.14-86
														C488.06,781.54,554.46,795.63,583.43,876.15z"
                  className="colorc1c1c1 svgShape"
                ></path>
                <path
                  fill="#603745"
                  d="M553.32,896.33c2.04,53.25-31.59,97.79-75.16,99.47c-43.55,1.67-80.54-40.14-82.59-93.38
														c-0.27-6.99,0.07-13.84,0.99-20.46c0.44-3.33,1.04-6.59,1.78-9.79c8.84-38.93,37.43-67.88,72.38-69.23
														c31.69-1.22,59.89,20.59,73.7,53.08c0.68,1.58,1.32,3.19,1.92,4.83C550.38,871.74,552.82,883.7,553.32,896.33z"
                  className="color603745 svgShape"
                ></path>
                <ellipse cx="454.86" cy="901.9" fill="#3a212b" rx="34.72" ry="42.16" transform="rotate(-5.377 454.958 901.684)" className="color3a212b svgShape"></ellipse>
                <ellipse cx="439.07" cy="871.89" fill="#ffffff" opacity=".5" rx="27.92" ry="22.57" transform="rotate(-74.05 439.07 871.888)" className="colorfff svgShape"></ellipse>
                <circle cx="506.06" cy="933.25" r="20.22" fill="#ffffff" opacity=".5" className="colorfff svgShape"></circle>
                <path fill="#3a212b" d="M578.36,968.49c0,0-77.49,64.66-184.74,7.13C393.62,975.62,500.5,998.48,578.36,968.49z" className="color3a212b svgShape"></path>
                <path
                  fill="#603745"
                  d="M544.43,856.01c-35.17-12.5-90.13-18.75-147.86,25.94c0.44-3.33,1.04-6.59,1.78-9.79
														c8.84-38.93,37.43-67.88,72.38-69.23C502.43,801.71,530.62,823.52,544.43,856.01z"
                  opacity=".5"
                  className="color603745 svgShape"
                ></path>
                <path
                  fill="#3a212b"
                  d="M321.87,835.32c19.92,7.82,50.97-2.54,50.97-2.54c15.4-16.15,43.56-40.9,75.9-46.69
														c68.13-12.19,129.95,36.49,134.68,90.05c0,0-18.24-58.33-91.21-71.43c-61.38-11.02-99.46,53.82-104.12,73.46
														c-4.98,21.01-1.38,40.49-1.38,40.49s-20.91-37.05-26.59-45.4c-5.68-8.35-32.65-5.61-38.88-17.03
														c0,0,22.58,4.07,39.11-9.11c0,0,0.3-0.4,0.85-1.09C334.02,848.61,321.87,835.32,321.87,835.32z"
                  className="color3a212b svgShape"
                ></path>
                <ellipse cx="888.44" cy="888.66" fill="#ffffff" rx="100.84" ry="97.25" transform="rotate(-4.462 888.212 888.452)" className="colorfff svgShape"></ellipse>
                <path
                  fill="#c1c1c1"
                  d="M788.57,878.34c0,0,90.65-89.26,205.29-3.06c0,0,13.89-58.59-53.83-80.29
														C872.31,773.29,808,795,788.57,878.34z"
                  className="colorc1c1c1 svgShape"
                ></path>
                <path
                  fill="#603745"
                  d="M962.1,886.19c4.32,55.33-28.02,95.26-71.47,98.65c-43.47,3.39-81.59-31.04-85.91-86.37
														c-0.93-11.88-0.18-23.39,1.97-34.18c0.21-1.12,0.46-2.25,0.71-3.36c8.7-37.88,35.02-66.22,68.19-68.81
														c33.82-2.64,64.79,22.29,78.88,59.59c0.44,1.16,0.85,2.33,1.26,3.51C959.06,864.85,961.25,875.26,962.1,886.19z"
                  className="color603745 svgShape"
                ></path>
                <path
                  fill="#3a212b"
                  d="M804.34 969.47c0 0 84.47 55.22 184.32-14.38C988.65 955.09 885.15 990.21 804.34 969.47zM870.52 677.8c48.9-4.48 91.61-2.26 179.8 64.25 0 0-144.32-96.32-274.37-16.34l0 0C783.43 702.07 832.76 681.26 870.52 677.8z"
                  className="color3a212b svgShape"
                ></path>
                <ellipse cx="861.09" cy="889.18" fill="#3a212b" rx="34.72" ry="42.16" transform="rotate(-1.736 861.798 889.891)" className="color3a212b svgShape"></ellipse>
                <ellipse cx="840.16" cy="859.29" fill="#ffffff" opacity=".5" rx="27.92" ry="22.57" transform="rotate(-70.001 840.184 859.289)" className="colorfff svgShape"></ellipse>
                <circle cx="902.66" cy="925.22" r="20.22" fill="#ffffff" opacity=".5" className="colorfff svgShape"></circle>
                <path
                  fill="#603745"
                  d="M954.47,851.7c-66.49-29.88-120.93-5.12-147.79,12.59c0.21-1.12,0.46-2.25,0.71-3.36
														c8.7-37.88,35.02-66.22,68.19-68.81C909.41,789.47,940.38,814.4,954.47,851.7z"
                  opacity=".5"
                  className="color603745 svgShape"
                ></path>
                <path
                  fill="#3a212b"
                  d="M1043.62,807.41c-18.88,10.08-50.92,3.4-50.92,3.4c-17.17-14.25-48.02-35.56-80.81-37.55
														c-69.09-4.19-124.83,51.33-123.31,105.09c0,0,11.34-60.05,82.29-81.54c59.68-18.08,105.04,41.91,111.94,60.87
														c7.39,20.29,6.07,40.05,6.07,40.05s16.46-39.23,21.14-48.18c4.68-8.95,31.77-9.37,36.64-21.43c0,0-21.96,6.66-39.9-4.5
														c0,0-0.35-0.36-0.97-0.98C1033.1,822.02,1043.62,807.41,1043.62,807.41z"
                  className="color3a212b svgShape"
                ></path>
                <g>
                  <circle cx="666.82" cy="1011.02" r="10.97" fill="#e2a383" className="colore2a383 svgShape"></circle>
                </g>
                <g>
                  <ellipse cx="498.07" cy="1048.05" fill="#f7c1ba" rx="66.72" ry="25.53" transform="matrix(1 -.00393 .00393 1 -4.112 1.964)" className="colorf7c1ba svgShape"></ellipse>
                </g>
                <g>
                  <ellipse cx="904.06" cy="1033.34" fill="#f7c1ba" rx="66.72" ry="25.53" transform="rotate(-1.284 903.719 1032.963)" className="colorf7c1ba svgShape"></ellipse>
                </g>
                <g>
                  <circle cx="686.11" cy="1118.05" r="29.61" fill="#38212a" className="color38212a svgShape"></circle>
                </g>
                <g>
                  <path
                    fill="#38212a"
                    d="M686.11,1153.27c-19.42,0-35.22-15.8-35.22-35.22s15.8-35.22,35.22-35.22
								c19.42,0,35.22,15.8,35.22,35.22S705.53,1153.27,686.11,1153.27z M686.11,1094.06c-13.23,0-23.99,10.76-23.99,23.99
								s10.76,23.99,23.99,23.99c13.23,0,23.99-10.76,23.99-23.99S699.33,1094.06,686.11,1094.06z"
                    className="color38212a svgShape"
                  ></path>
                </g>
              </g>
            </svg>