<svg xmlns="http://www.w3.org/2000/svg" enableBackground="new 0 0 1540.32 2915.83" viewBox="0 0 1540.32 2915.83">
              <rect width="4000" height="4000" x="-1189.88" y="-617.74" fill="#ffffff" display="none" className="colorfff svgShape"></rect>
              <path
                fill="#38212a"
                d="M690.78,2915.83c-30.37,0-86.59-5.78-121.85-44.48c-35.91-39.4-28.7-95.03-20.35-159.44
				c2.25-17.38,4.56-35.21,6.23-53.84c2.93-32.86,3.15-60.54,0.69-87.1c-9.77-105.33-58.95-173.48-75.56-193.76
				c-131.18-30.5-222.98-65.72-223.9-66.07c-4.82-1.86-7.68-6.91-6.79-12c14.84-85.57,64.25-198.78,146.9-336.59
				c-96.62-32.48-156.5-107.78-189.9-165.85c-12.66-22.01-22.55-43.15-30.04-61.29c6.38,72.44,25.06,123.3,25.27,123.87
				c1.51,4.04,0.49,8.6-2.61,11.61c-2.04,1.98-4.73,3.07-7.57,3.07c-1.42,0-2.8-0.27-4.12-0.81c-58.51-24-88.12-81.47-103.04-136.38
				c0.13,58.31,7.05,100.71,7.13,101.22c0.82,4.93-1.8,9.76-6.38,11.75c-1.38,0.6-2.84,0.91-4.34,0.91c-3.4,0-6.53-1.54-8.61-4.23
				c-65.2-84.47-86.23-213.63-62.51-383.89c18.02-129.33,61.62-282.11,129.59-454.12c-0.1-0.36-0.18-0.72-0.24-1.09
				c-0.2-1.25-19.52-125.89,4.24-290.07c14-96.73,39.93-188.45,77.09-272.62C266.63,339.32,330.91,245.6,411.2,166.1
				C500.36,77.81,620.41,22.23,758.38,5.36C787.44,1.8,817.57,0,847.93,0c99.92,0,202.61,19.26,296.99,55.7
				c108.92,42.05,202.72,104.74,271.25,181.29c74.05,82.71,116.04,179.73,121.43,280.55c14.55,272.36-32.27,394.5-73.57,502.26
				c-26.78,69.87-49.91,130.21-52.55,221.34c-1.11,38.06-1.41,73.87-1.68,105.46c-1.22,142.81-2.03,237.51-72.2,299.72
				c-12.41,138.19-56.38,228.08-91.17,279.22c-28.23,41.5-54.87,64.93-67.82,74.94c64.94,122.56,145.73,261.37,146.55,262.77
				c2.65,4.54,1.67,10.32-2.33,13.74c-54.17,46.29-119.7,82.09-194.84,106.44c14.02,74.43-8.37,162.72-66.6,262.51
				c-8.6,14.76-16.61,29.98-23.79,45.22c-34.65,73.56-43.68,132.53-42.62,149.56c0.49,7.79-2.86,14.97-9.44,20.21
				c-11.34,9.04-30.61,10.94-44.77,10.94c-20.09,0-44.06-3.82-67.49-10.74c-40.31-11.91-71.25-37.52-88.78-55.05
				c-12.34,38.38-17.63,68.15-19.98,81.34c-0.55,3.1-0.95,5.35-1.3,6.9c-1.63,7.3-8.52,12.05-23.03,15.9
				C726.81,2913.79,708.8,2915.83,690.78,2915.83z"
                className="color38212a svgShape"
              ></path>
              <path
                fill="#ffdfca"
                d="M778.26,2410.45c32.63,1.77,65.68,2.41,98.74,1.61l0.02,0.92c13.4,46.95,3.71,125.6-22.11,201.72
				c-10.07,29.62-22.56,58.84-37.1,85.68c-117.09,29.27-251.49-41.26-251.49-41.26l-0.69-0.07c2.51-28.1,3.58-57.88,0.69-89.08
				c-10.74-115.73-68.54-188.67-80.38-202.52C570.71,2387,672.32,2404.71,778.26,2410.45z"
                className="colorffdfca svgShape"
              ></path>
              <path
                fill="#ffdfca"
                d="M1115.88 2378.35c17.29 77.17-7.98 166.33-63.87 262.12-9.18 15.75-17.23 31.19-24.23 46.06l-3.71-.8c-85.16 10.64-167.66-70.53-167.66-70.53l-1.49-.52c25.82-76.11 35.51-154.77 22.11-201.72l-.02-.92c80.95-1.94 162.13-12.46 238.19-35.92L1115.88 2378.35zM597.87 1161.43c-54.97-38.28-76.23-70.76-76.23-70.76l-.65.02c-1-81.16 1.25-173.62 9.62-273.25 1.66-19.82 4.01-39.45 6.97-58.87l4.21.65c0 0 89.59-33.6 190.38-40.32 0 0 6.69-140.62 66.68-277.91l.5.22c0 0-4.48 199.31 15.67 297.85l51.51 8.96c0 0-24.64-197.08 73.91-360.57 0 0 47.03 176.93-26.88 369.53l91.83 20.15 82.85 17.91c0 0 69.29-101.22 90.95-251.27l3.11.43c0 0 38.08 156.78-4.47 282.19l96.3 24.64 73.91 29.12 37.21 22.9-1.39 2.27c-94.06 62.7-87.34 127.12-103.02 230.13-10.34 68.05-79.49 123.39-199.56 138.93-11.97 1.56-24.47 2.71-37.45 3.45l-.48.03c-2.09-29.59-16.46-21.93-16.46-21.93s9.75-34.87-17.43-29.22c0 0 6.66-32.81-20.34-29.22 0 0-17.43-38.33-55.44 2.91l-.15.85c-21.41-3.83-55.33 25.91-86.58 60.38l-.28-.25c-50.83-10.39-94.51-23.77-131.84-38.45C665.25 1203.45 626.87 1181.64 597.87 1161.43z"
                className="colorffdfca svgShape"
              ></path>
              <path
                fill="#ffdfca"
                d="M989.14,1197.51c0,0-14.23,6.2-19.79,15.91c-6.34-9.35-24.28-5.25-24.28-5.25c-3.21-3.9-7.11-6.1-11.52-6.89
				l0.15-0.85C971.71,1159.18,989.14,1197.51,989.14,1197.51z"
                className="colorffdfca svgShape"
              ></path>
              <path
                fill="#ffdfca"
                d="M989.14,1197.51c26.99-3.6,20.34,29.22,20.34,29.22s-8.16,0.54-18.7,19.15c-0.97-1.37-2.19-2.69-3.65-3.91
				c-8.36-7.02-21.91,1.14-22.51,1.49c8.2-15.89,8.18-24.95,4.73-30.04C974.91,1203.71,989.14,1197.51,989.14,1197.51z"
                className="colorffdfca svgShape"
              ></path>
              <path
                fill="#ffdfca"
                d="M1009.48,1226.73c27.18-5.65,17.43,29.22,17.43,29.22s-14.33,21.51-34.4,64.51l-2.69-0.72
				c7.86-28.18-7.17-32.7-7.17-32.7s19.8-24.92,8.14-41.16C1001.31,1227.26,1009.48,1226.73,1009.48,1226.73z"
                className="colorffdfca svgShape"
              ></path>
              <path
                fill="#ffdfca"
                d="M1088.9,1386.03c0,0-21.96,48.79-66.61,93.42c-41.34-9.13-62.53-31.81-73.17-49.97
				c-6.87-11.74-9.35-21.61-10-24.7c31.96-40.66,45.78-67.47,50.69-85.04l2.69,0.72c20.07-43,34.4-64.51,34.4-64.51
				s14.37-7.66,16.46,21.93c1.05,14.73-0.94,38.73-9.28,77.52C1034.08,1355.39,1061.49,1324.75,1088.9,1386.03z"
                className="colorffdfca svgShape"
              ></path>
              <path
                fill="#ffdfca"
                d="M945.07,1208.16c0,0,17.95-4.1,24.28,5.25c3.45,5.08,3.46,14.15-4.73,30.04c0.6-0.35,14.15-8.51,22.51-1.49
				c1.46,1.22,2.68,2.54,3.65,3.91c11.66,16.24-8.14,41.16-8.14,41.16s15.04,4.52,7.17,32.7c-4.92,17.58-18.73,44.39-50.69,85.04
				c-8.91,11.36-19.25,23.78-31.19,37.4c-13.76,15.69-29.69,32.93-48.03,51.91l-4.05,1.52c-28.42-28.87-63.55-74.63-84.11-138.6
				c0,0,2.63-3.81,7.24-10.24c12.36-17.23,39.04-53.2,67.99-85.13c31.26-34.47,65.18-64.21,86.58-60.38
				C937.96,1202.06,941.86,1204.27,945.07,1208.16z"
                className="colorffdfca svgShape"
              ></path>
              <path
                fill="#ffdfca"
                d="M846.68,1261.4l0.28,0.25c-28.95,31.93-55.63,67.9-67.99,85.13l-2.94-2.68c0,0-35.89-14.68-58.1-58.18
				c-11.96-23.38-3.24-62.58-3.24-62.58l0.15-0.38C752.17,1237.63,795.85,1251.01,846.68,1261.4z"
                className="colorffdfca svgShape"
              ></path>
              <path
                fill="#af465f"
                d="M908.28 1442.47c0 0 33.33 34.95-7.53 90.86 0 0-19.85-12.29-44.91-37.73l4.05-1.52c18.35-18.98 34.27-36.23 48.03-51.91L908.28 1442.47zM1022.29 1479.45c-18.7 18.7-41.38 36.68-68.09 50.02-29.79-15.44-6.14-99.36-6.14-99.36l1.05-.64C959.75 1447.64 980.94 1470.32 1022.29 1479.45z"
                className="coloraf465f svgShape"
              ></path>
              <path
                fill="#d65f72"
                d="M1022.29 1479.45c44.65-44.64 66.61-93.42 66.61-93.42s30.34 38.02 62.58 88.22c7.74 12.08 15.62 24.87 23.2 38-3.43 7.44-52.03 112.29-62.68 116.54-11.04 4.42-79.46 7.73-79.46 7.73l-.43.38c-45.98-50.73-77.9-107.42-77.9-107.42C980.91 1516.13 1003.59 1498.15 1022.29 1479.45zM900.75 1533.34c-4 6.05-8.48 12.21-13.38 18.41 0 .02-.02.02-.02.03-.03.05-.07.08-.12.13-1 1.25-2.01 2.51-3.03 3.76-.89 1.09-1.79 2.19-2.71 3.28-1.19 1.44-2.41 2.86-3.65 4.3-1.07 1.25-2.16 2.49-3.26 3.75-1.19 1.34-2.37 2.66-3.58 4-1.12 1.22-2.26 2.46-3.41 3.7-.9.97-1.81 1.96-2.74 2.93-.74.79-1.49 1.59-2.26 2.37-16.76 17.48-36.13 35.04-56.96 52.03-2.56 2.09-5.17 4.16-7.78 6.26-6.54 5.18-13.2 10.32-19.94 15.35-2.27-1.47-10.47-6.74-21.16-13.96-22.98-15.54-57.5-40.07-69.61-55.02-18.75-23.16-30.89-120.27-30.89-120.27l-.17-.2c69.34-57.01 115.63-107.17 115.63-107.17 20.55 63.97 55.69 109.73 84.11 138.6C880.9 1521.05 900.75 1533.34 900.75 1533.34z"
                className="colord65f72 svgShape"
              ></path>
              <path
                fill="#e9e9f4"
                d="M1194.75 1708.25c-35.49 15.3-72.52 3.19-106.57-20.57-20.02-13.97-39.02-31.96-56.08-50.78l.43-.38c0 0 68.42-3.31 79.46-7.73 7.24-2.89 31.99-52.2 48.2-85.86v-.02c7.64-15.89 13.38-28.28 14.48-30.66C1220.12 1590.97 1255.26 1682.14 1194.75 1708.25zM756.77 1639.67c10.69 7.23 18.88 12.49 21.16 13.96-89.36 66.81-194.66 118.91-236.27 109.78-88.17-19.35-108.79-260.25-73.66-414.47.54-2.37 1.09-4.7 1.66-7.01l1.07-.69c40.84 63.77 74.47 82.54 75.53 83.1-.23-1.47-13.65-80.08-20.92-207.79h.1c31.81-41.29 63.72-52.68 72.43-55.14 29 20.2 67.38 42.01 116.97 61.51l-.15.38c0 0-8.71 39.2 3.24 62.58 22.21 43.5 58.1 58.19 58.1 58.19l2.94 2.68c-4.62 6.42-7.24 10.24-7.24 10.24s-46.29 50.16-115.63 107.17l.17.2c0 0 12.14 97.1 30.89 120.27C699.27 1599.6 733.79 1624.14 756.77 1639.67z"
                className="colore9e9f4 svgShape"
              ></path>
              <path
                fill="#e9e9f4"
                d="M777.92,1653.64c51.11-38.18,97-81.2,122.83-120.3c40.86-55.91,7.53-90.86,7.53-90.86l-0.35-0.3
				c11.94-13.61,22.28-26.04,31.19-37.4c0.65,3.09,3.13,12.96,10,24.7l-1.05,0.64c0,0-23.65,83.92,6.14,99.36
				c0,0,31.93,56.7,77.9,107.42c17.06,18.82,36.06,36.81,56.08,50.78l-0.35,2.63c0,0-26.63,79.89,23.87,200.31
				c-15.82,2.74-124.15,23.33-167.93,77.08c0,0-152.04-124.2-458.27-124.72c33.06-48.77,56.16-79.56,56.16-79.56
				C583.27,1772.55,688.56,1720.45,777.92,1653.64z"
                className="colore9e9f4 svgShape"
              ></path>
              <path
                fill="#d65f72"
                d="M778.26,2410.45c-105.93-5.74-207.55-23.45-292.31-43C351.86,2336.52,259.96,2301,259.96,2301
				c18.1-104.34,87.35-237.19,152.65-344.69c26.11-42.97,51.58-81.88,72.89-113.33c306.23,0.52,458.27,124.72,458.27,124.72
				c43.79-53.75,152.11-74.34,167.93-77.08c3.19,7.63,6.71,15.4,10.54,23.33c2.34,4.82,4.75,9.77,7.26,14.8
				c6.42,12.99,13.35,26.66,20.64,40.74c4.68,9.08,9.52,18.35,14.45,27.71c66.46,126.1,151.19,271.54,151.19,271.54
				c-58.9,50.34-127.37,84.86-200.58,107.39c-76.06,23.46-157.24,33.98-238.19,35.92C843.94,2412.85,810.89,2412.22,778.26,2410.45z
				"
                className="colord65f72 svgShape"
              ></path>
              <path
                fill="#666666"
                d="M798.85,440.99c-59.99,137.29-66.68,277.91-66.68,277.91c-100.78,6.72-190.38,40.32-190.38,40.32l-4.21-0.65
				c-2.96,19.42-5.32,39.05-6.97,58.87c-8.36,99.63-10.62,192.08-9.62,273.25c0.59,45.79,2.19,88,4.35,125.89
				c7.34,128.91,20.94,207.8,20.94,207.8s-34.05-18.33-75.55-83.12c-44.3-69.17-97.1-191.31-126.02-400.64
				c-18.95-137.23-14.03-258.03,10.07-363.79c-17.28,30.84-115.99,210.04-203.25,429.57l-1.99-0.79c0,0-78.4-487.49,269.32-831.78
				c347.7-344.31,1084.04-102.27,1107.91,344.29c23.85,446.58-119.31,487.49-126.14,722.7c-6.04,208.02,11.94,328.07-73.44,400.17
				c-22.56,267.61-162.53,356.17-162.53,356.17l-0.07,0.03c-4.93-9.37-9.77-18.63-14.45-27.71l2.86-1.47
				c90.33-93.26,78.67-236.05,78.67-236.05c-14.57,122.41-99.08,195.26-99.08,195.26l-3.09,1.52c-2.51-5.03-4.92-9.98-7.26-14.8
				c-3.83-7.93-7.34-15.7-10.54-23.33c-50.49-120.42-23.87-200.31-23.87-200.31l0.35-2.63c34.05,23.77,71.08,35.87,106.57,20.57
				c60.51-26.11,25.37-117.27-20.07-196c-7.58-13.13-15.45-25.92-23.2-38l1.92-1.12c0,0-14.73-87.7-36.24-132.86
				c-21.51-45.16-35.61-63.72-35.61-63.72l-0.27-2.16c120.07-15.54,189.22-70.88,199.56-138.93
				c15.69-103.01,8.96-167.43,103.02-230.13l1.39-2.27l-37.21-22.9l-73.91-29.12l-96.3-24.64c42.55-125.42,4.47-282.19,4.47-282.19
				l-3.11-0.43c-21.66,150.05-90.95,251.27-90.95,251.27l-82.85-17.91l-91.83-20.15c73.91-192.6,26.88-369.53,26.88-369.53
				c-98.54,163.48-73.91,360.57-73.91,360.57l-51.51-8.96c-20.15-98.54-15.67-297.85-15.67-297.85L798.85,440.99z"
                className="color666 svgShape"
              ></path>
              <path
                fill="#7f5c54"
                d="M1153.41 1473.13l-1.92 1.12c-32.25-50.21-62.58-88.22-62.58-88.22-27.41-61.28-54.82-30.64-54.82-30.64 8.35-38.78 10.34-62.78 9.28-77.52l.48-.03c12.98-.74 25.47-1.89 37.45-3.45l.27 2.16c0 0 14.1 18.56 35.61 63.72C1138.67 1385.43 1153.41 1473.13 1153.41 1473.13zM1024.06 2685.73l3.71.8c-35.62 75.63-44.74 137.07-43.63 154.87 1.34 21.29-49.22 26.63-107.77 9.32-53.49-15.8-90.31-58.25-96.28-65.48 9.2-25.87 21.44-54.79 37.73-84.88 14.53-26.84 27.03-56.06 37.1-85.68l1.49.52C856.4 2615.2 938.9 2696.37 1024.06 2685.73z"
                className="color7f5c54 svgShape"
              ></path>
              <path
                fill="#7f5c54"
                d="M780.08 2785.24c-20.07 56.5-25.64 98.52-27.46 106.74-2.68 11.97-121.1 31.93-175.66-27.95-41.38-45.41-19.23-116.84-11.32-204.99l.69.07c0 0 134.4 70.53 251.49 41.26C801.52 2730.45 789.28 2759.37 780.08 2785.24zM521.64 1090.67c0 0 21.26 32.48 76.23 70.76-8.71 2.46-40.62 13.85-72.43 55.14h-.1c-2.16-37.88-3.76-80.09-4.35-125.89L521.64 1090.67z"
                className="color7f5c54 svgShape"
              ></path>
              <path
                fill="#666666"
                d="M485.49,1842.98c-21.31,31.44-46.78,70.36-72.89,113.33c-195.11-55.46-247.52-288.45-247.52-288.45
				l-1.46-0.05c-4.3,110.01,27.68,195.29,27.68,195.29c-102.34-41.98-110.17-197.33-110.72-227.89
				c-16.54,105.5-0.03,204.58-0.03,204.58C-59.48,1658.36,36,1297.02,151.52,1006.4c87.27-219.53,185.98-398.73,203.25-429.57
				c-24.1,105.77-29.02,226.57-10.07,363.79c28.92,209.33,81.72,331.47,126.02,400.64l-1.07,0.69c-0.57,2.31-1.12,4.63-1.66,7.01
				c-35.14,154.22-14.52,395.12,73.66,414.47C541.66,1763.42,518.56,1794.21,485.49,1842.98z"
                className="color666 svgShape"
              ></path>
              <path
                fill="#e2a383"
                d="M1385.26 903.06l-1.39 2.27c-.9.6-1.81 1.2-2.69 1.82-114.21-51.6-242.62-62.97-242.62-62.97 39.19-74.63 31.71-166.04 31.71-166.04-39.17 106.34-72.75 152.98-72.75 152.98l-212.69-46.64c54.1-136.19 37.31-294.77 37.31-294.77-46.64 97.02-46.64 292.91-46.64 292.91l-76.48-14.94c-22.39-65.29-22.39-192.15-22.39-192.15-29.85 104.46-22.39 173.5-22.39 173.5-58.75-18.08-163.92-.74-202.2 6.61 26.26-8.85 99.63-31.38 180.14-36.74 0 0 6.69-140.62 66.68-277.91l.5.22c0 0-4.48 199.31 15.67 297.85l51.51 8.96c0 0-24.64-197.08 73.91-360.57 0 0 47.03 176.93-26.88 369.53l91.83 20.15 82.85 17.91c0 0 69.29-101.22 90.95-251.27l3.11.43c0 0 38.08 156.78-4.47 282.19l96.3 24.64 73.91 29.12L1385.26 903.06zM1088.9 1386.03c0 0-21.96 48.79-66.61 93.42-9.62-2.12-18.13-4.98-25.69-8.35.05-.03.12-.05.17-.07 41.04-13.06 74.62-78.35 63.44-93.27-11.19-14.94-52.25-1.87-52.25-1.87 17.31-31.94 27.03-86.7 31.16-115.43 2.02 3.41 3.65 8.86 4.25 17.41 1.05 14.73-.94 38.73-9.28 77.52C1034.08 1355.39 1061.49 1324.75 1088.9 1386.03zM846.96 1261.65c-6.64 7.31-13.15 14.83-19.38 22.29-71.18-12.74-114.4-42.38-114.4-42.38-.33-.25-.67-.52-1-.77.89-10.17 2.51-17.46 2.51-17.46l.15-.38c37.33 14.68 81.01 28.06 131.84 38.45L846.96 1261.65zM989.81 1319.73c-4.92 17.58-18.73 44.39-50.69 85.04-8.91 11.36-19.25 23.78-31.19 37.4-13.76 15.69-29.69 32.93-48.03 51.91l-4.05 1.52c-28.42-28.87-63.55-74.63-84.11-138.6 0 0 .5-.74 1.47-2.11 13.21 27.76 56.81 109.96 100.43 88.16 48.2-24.12 109.13-126.07 118.24-141.64C992.4 1305.99 991.98 1311.96 989.81 1319.73z"
                className="colore2a383 svgShape"
              ></path>
              <path
                fill="#af465f"
                d="M1174.68,1512.25c-1.1,2.37-6.84,14.77-14.48,30.66c-30.02-71.72-69.66-139.87-75.11-149.15
			c-0.42-0.7-0.64-1.07-0.64-1.07c1.35-2.36,2.83-4.55,4.4-6.57c0.02-0.03,0.03-0.05,0.05-0.07c0.8,1,30.77,38.67,62.58,88.21
			C1159.23,1486.33,1167.11,1499.12,1174.68,1512.25z"
                className="coloraf465f svgShape"
              ></path>
              <path
                fill="#c8c5d8"
                d="M1194.75,1708.25c-35.49,15.3-72.52,3.19-106.57-20.57c-20.02-13.97-39.02-31.96-56.08-50.78
			c80.11,55.78,179.22,87.87,156.83-9.13c-6.1-26.44-16.64-55.93-28.73-84.84v-0.02c7.64-15.89,13.38-28.28,14.48-30.66
			C1220.12,1590.97,1255.26,1682.14,1194.75,1708.25z"
                className="colorc8c5d8 svgShape"
              ></path>
              <path
                fill="#c8c5d8"
                d="M1111.7,1890.61c-15.82,2.74-124.15,23.33-167.93,77.08c0,0-152.04-124.2-458.27-124.72
			c165.96-60.89,457.17,77.69,457.17,77.69c110.08-39.17,102.61-179.1,70.9-253.73c-31.71-74.63-67.17-136.19-67.17-136.19
			c2.01-0.85,4.03-1.64,6.04-2.32c0.57,0.38,1.15,0.74,1.77,1.05c0,0,31.93,56.7,77.9,107.42c17.06,18.82,36.06,36.81,56.08,50.78
			l-0.35,2.63C1087.83,1690.3,1061.21,1770.19,1111.7,1890.61z"
                className="colorc8c5d8 svgShape"
              ></path>
              <path
                fill="#c8c5d8"
                d="M777.92 1653.64c-89.36 66.81-194.66 118.91-236.27 109.78-88.17-19.35-108.79-260.25-73.66-414.47.54-2.37 1.09-4.7 1.66-7.01l1.07-.69c-18.58 185.51 16.72 340.61 91.35 376.05 37.43 17.78 120.84-27.78 194.69-77.64C767.45 1646.9 775.65 1652.17 777.92 1653.64zM714.84 1222.95l-.15.38c0 0-1.66 7.49-2.53 17.88-.02.23-.03.47-.05.7-86.52-19.7-131.39-67.5-131.39-67.5s.75-2.69 2.39-7.17c0-.02 0-.02 0-.02 6.79-3.29 11.96-5 14.75-5.79C626.87 1181.64 665.25 1203.45 714.84 1222.95z"
                className="colorc8c5d8 svgShape"
              ></path>
              <path
                fill="#c8c5d8"
                d="M629.23,1374.03c0,0-22.39,82.09-18.66,89.55c3.73,7.46,162.63-108.68,162.63-108.68
			S631.1,1495.3,576.99,1515.82C576.99,1515.82,590.05,1437.46,629.23,1374.03z"
                className="colorc8c5d8 svgShape"
              ></path>
              <path
                fill="#e2a383"
                d="M1052.01,2640.48c-9.18,15.75-17.23,31.19-24.23,46.06l-3.71-0.8c-9.85,1.24-19.68,1.24-29.35,0.25
			c0.07-0.13,0.13-0.27,0.2-0.4c48.5-98.88,128.73-268.65,31.71-259.32c-92.35,8.86-140.74,9.3-145.19,9.32
			c-0.97-8.14-2.44-15.72-4.42-22.61l-0.02-0.92c80.95-1.94,162.13-12.46,238.19-35.92l0.69,2.22
			C1133.17,2455.52,1107.9,2544.68,1052.01,2640.48z"
                className="colore2a383 svgShape"
              ></path>
              <path
                fill="#60423d"
                d="M984.14,2841.4c1.34,21.29-49.22,26.63-107.77,9.32c-53.49-15.8-90.31-58.25-96.28-65.48
			c195.36,121.87,166.39-0.43,214.63-99.26c9.67,0.99,19.5,0.99,29.35-0.25l3.71,0.8C992.15,2762.16,983.03,2823.61,984.14,2841.4z"
                className="color60423d svgShape"
              ></path>
              <path
                fill="#60423d"
                d="M817.81,2700.37c-16.29,30.09-28.53,59-37.73,84.88c-20.07,56.5-25.64,98.52-27.46,106.74
			c-2.68,11.98-121.1,31.93-175.66-27.95c-5.35-5.87-9.63-12.18-13.03-18.9c158.93,59.44,170.47,20.96,216.42-129.7
			c0.94-3.08,1.87-6.14,2.81-9.2C794.78,2705.13,806.37,2703.23,817.81,2700.37z"
                className="color60423d svgShape"
              ></path>
              <path
                fill="#e2a383"
                d="M854.91,2614.69c-10.07,29.62-22.56,58.84-37.1,85.68c-11.44,2.86-23.03,4.77-34.65,5.87
			c45.41-148.68,82.02-266.94-56.91-268.78c-141.79-1.87-210.81-27.98-210.81-27.98c-0.12-0.03-0.22-0.07-0.33-0.1
			c-13.01-22.26-24.55-36.54-29.15-41.93c84.76,19.55,186.38,37.26,292.31,43c32.63,1.77,65.68,2.41,98.74,1.61l0.02,0.92
			C890.41,2459.92,880.73,2538.57,854.91,2614.69z"
                className="colore2a383 svgShape"
              ></path>
              <path
                fill="#af465f"
                d="M1315.77,2268.74c-58.9,50.34-127.37,84.86-200.58,107.39c-76.06,23.46-157.24,33.98-238.19,35.92
			c-33.06,0.8-66.11,0.17-98.74-1.61c-105.93-5.74-207.55-23.45-292.31-43c-132.68-30.61-224.06-65.71-225.95-66.43
			c3.56,1,291.02,81.72,427.65,39.85c136.41-41.81,85.04-325.95,84.26-330.31c110.83,270.45-39.9,334.74,210.61,343.62
			c249.45,8.83,87.92-344.95,86.5-348.09c115.27,137.48,119.7,314.82,159.62,274.92c39.91-39.9-66.51-266.07-115.3-312.62
			c-48.79-46.56-172.93,37.68-172.93,37.68c-115.3-117.51-454.91-163.1-454.91-163.1c306.23,0.52,458.27,124.72,458.27,124.72
			c43.79-53.75,152.11-74.34,167.93-77.08c3.19,7.63,6.71,15.4,10.54,23.33c2.34,4.82,4.75,9.77,7.26,14.8
			c6.42,13,13.35,26.66,20.64,40.74c4.68,9.08,9.52,18.35,14.45,27.71C1231.04,2123.3,1315.77,2268.74,1315.77,2268.74z"
                className="coloraf465f svgShape"
              ></path>
              <path
                fill="#a8a8a8"
                d="M853.27,10.81c-131.14,9.95-367.26,64.39-528.8,311.9C130.26,620.28,163.55,923.31,169,963.33
				c0.4,2.94,0.65,4.47,0.65,4.47l-5.37,6.97l-16.11,20.94c-8.8-70.76-47.92-506.44,270.67-821.88
				C534.26,59.55,692.48,9.86,853.27,10.81z"
                className="colora8a8a8 svgShape"
              ></path>
              <path
                fill="#a8a8a8"
                d="M679.27,118.43c0,0-238.38,133.45-311.79,518.22c-62.36,326.85,101.34,701.58,101.34,701.58
				S259.96,980.7,354.77,576.83C427.82,265.67,679.27,118.43,679.27,118.43z"
                className="colora8a8a8 svgShape"
              ></path>
              <path
                fill="#a8a8a8"
                d="M794.05 179.13c0 0-222.29 354.31-222.29 573.64l-29.97 6.45C541.79 759.22 543.27 536.57 794.05 179.13zM866.35 331.31c0 0-73.11 116.12-40.86 408.56l-10.47-.81c0 0-19.29-272.5-17.48-285.18C799.35 441.21 829.79 365.72 866.35 331.31zM940.44 387.45c0 0 73.56 162.64-9.54 370.4h-23.97C906.92 757.86 991.53 589.19 940.44 387.45zM1148.24 251.24c0 0 87.9 100.68 43.15 322.83l-14.38-17.58C1177.01 556.49 1212.17 399.87 1148.24 251.24zM1317.65 454.21c0 0 49.54 202.97-23.97 404.33l-19.53-7.5C1274.14 851.04 1357.6 617.22 1317.65 454.21z"
                className="colora8a8a8 svgShape"
              ></path>
              <g>
                <path
                  fill="#464649"
                  d="M1084.51 451.84c0 0-30.09 197.18-96.43 302.37l-74.52 2.77 91.83 20.15C1005.4 777.14 1093.38 613.69 1084.51 451.84zM1399.35 551.61c0 0-19.87 188.39-69.15 304.95l-56.06-5.52 73.91 29.12C1348.05 880.16 1406 680.21 1399.35 551.61zM685.92 118.81c0 0-245.14 98.91-363.4 430.06s-164.35 457.91-164.35 457.91 129.95-311.68 196.6-417.05C354.77 589.73 374.13 335.99 685.92 118.81zM525.33 1216.58c7.28 127.71 20.69 206.31 20.92 207.79-1.05-.57-34.69-19.33-75.53-83.1-.64-1-1.29-2.01-1.91-3.03C320.51 689.16 790.87 182.54 794.05 179.13 581.21 460.72 541.79 759.22 541.79 759.22l-4.21-.65c-2.96 19.42-5.32 39.05-6.97 58.87-8.36 99.63-10.62 192.08-9.62 273.25C521.57 1136.48 523.17 1178.69 525.33 1216.58z"
                  className="color464649 svgShape"
                ></path>
                <path
                  fill="#464649"
                  d="M867.22 323.26c-44.3 46.98-74.79 119.63-95.4 189.91-30.14 102.79-39.19 200.51-39.64 205.53-.02.13-.02.2-.02.2-100.78 6.72-190.38 40.32-190.38 40.32 38.18-58.45 154.72-79.02 154.72-79.02C740.49 416.22 865.26 324.69 867.22 323.26zM940.44 387.45c0 0-115.33 110.94-95.38 330.45l-30.04 21.16 51.51 8.96C866.53 748.02 845.14 551.44 940.44 387.45zM1142.16 250.07c0 0 65.79 253-68.78 521.2l-67.98 5.87 82.85 17.91C1088.25 795.05 1266.32 505.05 1142.16 250.07z"
                  className="color464649 svgShape"
                ></path>
                <path
                  fill="#464649"
                  d="M1310.67 449.62c0 0-6.65 270.5-51 365.84l-57.65-6.65c0 0 44.82-134.52-19.72-264.59 0 0 42.3 135.73-4.47 282.19l96.3 24.64C1274.14 851.04 1359.44 576 1310.67 449.62zM1355.01 298.85c0 0 154.93 202.27 39.64 581.4l-46.6-.09 55.74 28.42C1403.79 908.58 1563.42 602.6 1355.01 298.85zM442.63 1908.15c-9.78 15.29-19.85 31.41-30.02 48.15-195.11-55.46-247.52-288.45-247.52-288.45l-1.46-.05c-4.3 110.01 27.68 195.29 27.68 195.29-102.34-41.98-110.16-197.33-110.72-227.89-16.54 105.5-.03 204.58-.03 204.58s0-.02-.02-.03c-1.42-2.76-79.68-157.46 39.64-334.34-.5 2.69-31.76 166.51 25.82 283.82 0 0-23.67-124.73 38.7-258.04C184.7 1531.18 242.49 1778.39 442.63 1908.15zM1327.44 1641.53c-.12.03-.23.1-.33.15-22.73 267.08-162.46 355.48-162.46 355.48l-.07.03c-4.93-9.37-9.77-18.63-14.45-27.71l2.86-1.47c90.33-93.26 78.67-236.05 78.67-236.05-14.57 122.41-99.08 195.26-99.08 195.26l-3.09 1.52c-2.51-5.03-4.92-9.98-7.26-14.8-3.83-7.93-7.34-15.7-10.54-23.33-2.86-6.82-5.47-13.51-7.84-20.07 139.53-106.52 136.66-246.89 136.66-246.89s60.16 139.65-21.41 281.51c2.99-4.5 66.61-102.17 68.7-244.97 0 0 .02 0 .03-.02.02-.02.07-.03.12-.05l39.22-19.13C1327.18 1641 1327.26 1641.18 1327.44 1641.53z"
                  className="color464649 svgShape"
                ></path>
                <path
                  fill="#464649"
                  d="M1400.61 1240.83c-6.04 208.02 11.94 328.07-73.44 400.17 0 0 .08.18.27.54-.12.03-.23.1-.33.15-22.14 11.02-37.5 17.73-39.15 18.45-.05.02-.1.03-.12.05 131.12-71 4.28-326.87 135.44-640.77 114.33-273.65 74.76-588.82 64.49-655.82 22.38 47.95 36.06 99.7 38.99 154.54C1550.6 964.7 1407.44 1005.61 1400.61 1240.83zM79.34 1810.72c0 0-122.57-176.33 21.5-599.94s242.98-552.63 242.98-552.63l4.3-68.81c0 0-262.34 470.92-320.4 814.97s52.81 435.44 52.81 435.44L79.34 1810.72zM1084.51 451.84c0 0 38.16 125.43-54.53 329.99l-24.58-4.69C1005.4 777.14 1094.3 599.69 1084.51 451.84zM1403.95 545.3c0 0 19.18 164.61-36.76 343.6l-19.14-8.75C1348.05 880.16 1413.54 716.3 1403.95 545.3z"
                  className="color464649 svgShape"
                ></path>
              </g>
              <path
                fill="#af465f"
                d="M894.16,1536.35c-2.26,5.2-4.52,10.35-6.79,15.4c0,0.02-0.02,0.02-0.02,0.03c-0.03,0.05-0.07,0.08-0.12,0.13
			c-1,1.25-2.01,2.51-3.03,3.76c-0.89,1.09-1.79,2.19-2.71,3.28c-1.19,1.44-2.41,2.86-3.65,4.3c-1.07,1.25-2.16,2.49-3.26,3.75
			c-1.19,1.34-2.37,2.66-3.58,4c-1.12,1.22-2.26,2.46-3.41,3.7c-0.9,0.97-1.81,1.96-2.74,2.93c-0.74,0.79-1.49,1.59-2.26,2.37
			c-16.76,17.48-36.13,35.04-56.96,52.03c-2.58,2.09-5.17,4.18-7.78,6.26c-6.54,5.18-13.2,10.32-19.94,15.35
			c-2.27-1.47-10.47-6.74-21.16-13.96C830.17,1590.14,894.16,1536.35,894.16,1536.35z"
                className="coloraf465f svgShape"
              ></path>
              <g>
                <circle cx="831.46" cy="1533.81" r="17.35" fill="#e9e9f4" className="colore9e9f4 svgShape"></circle>
                <circle cx="817.72" cy="1715.1" r="21.59" fill="#d65f72" className="colord65f72 svgShape"></circle>
                <circle cx="1008.4" cy="1723.45" r="21.59" fill="#d65f72" className="colord65f72 svgShape"></circle>
                <circle cx="812.15" cy="1811.13" r="21.59" fill="#d65f72" className="colord65f72 svgShape"></circle>
                <circle cx="1018.14" cy="1820.03" r="21.59" fill="#d65f72" className="colord65f72 svgShape"></circle>
                <circle cx="1021.71" cy="1542.41" r="17.35" fill="#e9e9f4" className="colore9e9f4 svgShape"></circle>
                <circle cx="1052.3" cy="1589.26" r="17.35" fill="#e9e9f4" className="colore9e9f4 svgShape"></circle>
                <circle cx="772.19" cy="1587.35" r="17.35" fill="#e9e9f4" className="colore9e9f4 svgShape"></circle>
              </g>
              <g>
                <path
                  fill="none"
                  stroke="#38212a"
                  strokeLinecap="round"
                  strokeLinejoin="round"
                  strokeWidth="7"
                  d="M541.79,759.22c0,0,89.59-33.6,190.38-40.32c0,0,6.69-140.62,66.68-277.91
				c17.59-40.24,39.77-80.21,67.68-116.25"
                  className="colorStroke38212a svgStroke"
                ></path>
                <path
                  fill="none"
                  stroke="#38212a"
                  strokeLinecap="round"
                  strokeLinejoin="round"
                  strokeWidth="7"
                  d="M799.35,441.21c0,0-4.48,199.31,15.67,297.85l51.51,8.96c0,0-24.64-197.08,73.91-360.57
				c0,0,47.03,176.93-26.88,369.53l91.83,20.15c0,0,71.66-114.21,82.85-324.74"
                  className="colorStroke38212a svgStroke"
                ></path>
                <path
                  fill="none"
                  stroke="#38212a"
                  strokeLinecap="round"
                  strokeLinejoin="round"
                  strokeWidth="7"
                  d="M1005.4 777.14l82.85 17.91c0 0 69.29-101.22 90.95-251.27 12.29-85.11 9.25-185.96-30.47-292.95M1182.31 544.21c0 0 38.08 156.78-4.47 282.19l96.3 24.64c0 0 69.42-188.12 40.31-398.65M1274.14 851.04l73.91 29.12c0 0 53.75-118.69 53.75-331.47"
                  className="colorStroke38212a svgStroke"
                ></path>
                <path
                  fill="none"
                  stroke="#38212a"
                  strokeLinecap="round"
                  strokeLinejoin="round"
                  strokeWidth="7"
                  d="M1348.05 880.16l37.21 22.9 21.01 12.93c0 0 159.02-353.84-49.27-615.88M799.35 179.16c0 0-213.04 258.85-261.77 579.41-2.96 19.42-5.32 39.05-6.97 58.87-8.36 99.63-10.62 192.08-9.62 273.25.59 45.79 2.19 88 4.35 125.89 7.34 128.91 20.94 207.8 20.94 207.8s-34.05-18.33-75.55-83.12c-44.3-69.17-97.1-191.31-126.02-400.64-18.95-137.23-14.03-258.03 10.07-363.79 47.06-206.65 167.36-355.92 325.88-458.12M1043.85 1277.84c12.98-.74 25.47-1.89 37.45-3.45 120.07-15.54 189.22-70.88 199.56-138.93 15.69-103.01 8.96-167.43 103.02-230.13"
                  className="colorStroke38212a svgStroke"
                ></path>
                <path
                  fill="none"
                  stroke="#38212a"
                  strokeLinecap="round"
                  strokeLinejoin="round"
                  strokeWidth="7"
                  d="M521.64 1090.67c0 0 21.26 32.48 76.23 70.76 29 20.2 67.38 42.01 116.97 61.51 37.33 14.68 81.01 28.06 131.84 38.45M469.66 1341.94c-.57 2.31-1.12 4.63-1.66 7.01-35.14 154.22-14.52 395.12 73.66 414.47 41.61 9.13 146.91-42.97 236.27-109.78 51.11-38.18 97-81.2 122.83-120.3 0 0-19.85-12.29-44.91-37.73-28.42-28.87-63.55-74.63-84.11-138.6 0 0-46.29 50.16-115.63 107.17-23.68 19.48-50.06 39.77-78.2 59.14-12.48 8.6-25.3 16.99-38.4 25.07"
                  className="colorStroke38212a svgStroke"
                ></path>
                <path
                  fill="none"
                  stroke="#38212a"
                  strokeLinecap="round"
                  strokeLinejoin="round"
                  strokeWidth="7"
                  d="M600.19 1160.85c0 0-.82.15-2.32.59-8.71 2.46-40.62 13.85-72.43 55.14M625.55 1374.77c0 0-9.15 14.42-19.53 38.62-11.44 26.76-24.4 65.48-28.11 109.93-.03.23-.05.45-.07.69"
                  className="colorStroke38212a svgStroke"
                ></path>
                <path
                  fill="none"
                  stroke="#38212a"
                  strokeLinecap="round"
                  strokeLinejoin="round"
                  strokeWidth="7"
                  d="M576.96 1358.28c0 0 4.3 31.73 29.05 55.11.15.15.3.3.45.43M714.69 1223.33c0 0-8.71 39.2 3.24 62.58 22.21 43.5 58.1 58.18 58.1 58.18M964.6 1243.47c0 0 0 0 .02-.02.6-.35 14.15-8.51 22.51-1.49 1.46 1.22 2.68 2.54 3.65 3.91 11.66 16.24-8.14 41.16-8.14 41.16s15.04 4.52 7.17 32.7c-4.92 17.58-18.73 44.39-50.69 85.04-8.91 11.36-19.25 23.78-31.19 37.4-13.76 15.69-29.69 32.93-48.03 51.91M771.74 1357.01c0 0 2.63-3.81 7.24-10.24 12.36-17.23 39.04-53.2 67.99-85.13 31.26-34.47 65.18-64.21 86.58-60.38 4.42.79 8.31 2.99 11.52 6.89 0 0 17.95-4.1 24.28 5.25 3.45 5.08 3.46 14.15-4.73 30.04M945.07 1208.16c0 0-33.05 45.07-65.36 73.62M964.6 1243.47c0 0-31.56 44.32-56.35 72.87M982.63 1287.04c0 0-18.78 23.3-44.32 56.35M908.28 1442.47c0 0 33.33 34.95-7.53 90.86"
                  className="colorStroke38212a svgStroke"
                ></path>
                <path
                  fill="none"
                  stroke="#38212a"
                  strokeLinecap="round"
                  strokeLinejoin="round"
                  strokeWidth="7"
                  d="M1088.9 1386.03c-27.41-61.28-54.82-30.64-54.82-30.64 8.35-38.78 10.34-62.78 9.28-77.52-2.09-29.59-16.46-21.93-16.46-21.93s9.75-34.87-17.43-29.22c0 0 6.66-32.81-20.34-29.22 0 0-17.43-38.33-55.44 2.91M938.92 1403.77c0 0 .05.35.2 1 .65 3.09 3.13 12.96 10 24.7 10.64 18.16 31.83 40.84 73.17 49.97.17.05.33.08.5.12M948.06 1430.12c0 0-23.65 83.92 6.14 99.36"
                  className="colorStroke38212a svgStroke"
                ></path>
                <path
                  fill="none"
                  stroke="#38212a"
                  strokeLinecap="round"
                  strokeLinejoin="round"
                  strokeWidth="7"
                  d="M1088.9,1386.03c0,0-21.96,48.79-66.61,93.42c-18.7,18.7-41.38,36.68-68.09,50.02
				c0,0,31.93,56.7,77.9,107.42c17.06,18.82,36.06,36.81,56.08,50.78c34.05,23.77,71.08,35.87,106.57,20.57
				c60.51-26.11,25.37-117.27-20.07-196c-7.58-13.13-15.45-25.92-23.2-38C1119.24,1424.04,1088.9,1386.03,1088.9,1386.03z"
                  className="colorStroke38212a svgStroke"
                ></path>
                <path
                  fill="none"
                  stroke="#38212a"
                  strokeLinecap="round"
                  strokeLinejoin="round"
                  strokeWidth="7"
                  d="M1032.54 1636.51c0 0 68.42-3.31 79.46-7.73 10.65-4.25 59.26-109.09 62.68-116.54.13-.28.2-.42.2-.42M656.27 1464.38c0 0 12.14 97.1 30.89 120.27 17.73 21.91 83.59 64.39 90.76 68.99.42.27.64.4.64.4M1081.56 1276.55c0 0 14.1 18.56 35.61 63.72 21.51 45.16 36.24 132.86 36.24 132.86M541.66 1763.42c0 0-23.1 30.79-56.16 79.56-21.31 31.44-46.78 70.36-72.89 113.33-65.29 107.51-134.55 240.35-152.65 344.69 0 0 91.9 35.52 225.98 66.45 84.76 19.55 186.38 37.26 292.31 43 32.63 1.77 65.68 2.41 98.74 1.61 80.95-1.94 162.13-12.46 238.19-35.92 73.2-22.53 141.67-57.05 200.58-107.39 0 0-84.73-145.44-151.19-271.54-4.93-9.37-9.77-18.63-14.45-27.71-7.29-14.08-14.22-27.75-20.64-40.74-2.51-5.03-4.92-9.98-7.26-14.8-3.83-7.93-7.34-15.7-10.54-23.33-50.49-120.42-23.87-200.31-23.87-200.31"
                  className="colorStroke38212a svgStroke"
                ></path>
                <circle cx="817.72" cy="1715.1" r="21.59" fill="none" stroke="#38212a" strokeLinecap="round" strokeLinejoin="round" strokeWidth="7" className="colorStroke38212a svgStroke"></circle>
                <circle cx="1008.4" cy="1723.45" r="21.59" fill="none" stroke="#38212a" strokeLinecap="round" strokeLinejoin="round" strokeWidth="7" className="colorStroke38212a svgStroke"></circle>
                <circle cx="812.15" cy="1811.13" r="21.59" fill="none" stroke="#38212a" strokeLinecap="round" strokeLinejoin="round" strokeWidth="7" className="colorStroke38212a svgStroke"></circle>
                <circle cx="1018.14" cy="1820.03" r="21.59" fill="none" stroke="#38212a" strokeLinecap="round" strokeLinejoin="round" strokeWidth="7" className="colorStroke38212a svgStroke"></circle>
                <path
                  fill="none"
                  stroke="#38212a"
                  strokeLinecap="round"
                  strokeLinejoin="round"
                  strokeWidth="7"
                  d="M1113.64 1890.28c0 0-.67.1-1.94.33-15.82 2.74-124.15 23.33-167.93 77.08 0 0-152.04-124.2-458.27-124.72-.64 0-1.27 0-1.91 0M773.89 2010.69c0 0 53.7 242.77 4.37 399.75-.02.07-.05.15-.07.22M1074.94 2008.55c0 0 98.91 193.52 83.86 350.5"
                  className="colorStroke38212a svgStroke"
                ></path>
                <path
                  fill="none"
                  stroke="#38212a"
                  strokeLinecap="round"
                  strokeLinejoin="round"
                  strokeWidth="7"
                  d="M483.82,2365.04c0,0,0.75,0.82,2.12,2.41c11.84,13.85,69.64,86.78,80.38,202.52
				c2.89,31.19,1.82,60.98-0.69,89.08c-7.91,88.16-30.05,159.59,11.32,204.99c54.56,59.87,172.98,39.92,175.66,27.95
				c1.82-8.21,7.39-50.24,27.46-106.74c9.2-25.87,21.44-54.79,37.73-84.88c14.53-26.84,27.03-56.06,37.1-85.68
				c25.82-76.11,35.51-154.77,22.11-201.72"
                  className="colorStroke38212a svgStroke"
                ></path>
                <path
                  fill="none"
                  stroke="#38212a"
                  strokeLinecap="round"
                  strokeLinejoin="round"
                  strokeWidth="7"
                  d="M779.23 2784.19c0 0 .28.37.85 1.05 5.97 7.22 42.8 49.67 96.28 65.48 58.55 17.31 109.11 11.97 107.77-9.32-1.1-17.79 8.01-79.24 43.63-154.87 7.01-14.87 15.05-30.3 24.23-46.06 55.89-95.8 81.16-184.96 63.87-262.12M856.4 2615.2c0 0 82.5 81.16 167.66 70.53M566.32 2659.11c0 0 134.4 70.53 251.49 41.26M149.53 1005.61c0 0-78.4-487.49 269.32-831.78 347.7-344.31 1084.04-102.27 1107.91 344.29 23.85 446.58-119.31 487.49-126.14 722.7-6.04 208.02 11.94 328.07-73.44 400.17-11.16 9.45-24.08 18.06-39.05 25.94 0 0 51.13-221.58-17.06-409.07"
                  className="colorStroke38212a svgStroke"
                ></path>
                <path
                  fill="none"
                  stroke="#38212a"
                  strokeLinecap="round"
                  strokeLinejoin="round"
                  strokeWidth="7"
                  d="M357.42,572.13c0,0-0.92,1.61-2.64,4.7c-17.28,30.84-115.99,210.04-203.25,429.57
				c-115.52,290.62-211,651.96-70.96,833.39c0,0-16.51-99.08,0.03-204.58c6.51-41.48,18.13-83.96,37.86-121.81"
                  className="colorStroke38212a svgStroke"
                ></path>
                <path
                  fill="none"
                  stroke="#38212a"
                  strokeLinecap="round"
                  strokeLinejoin="round"
                  strokeWidth="7"
                  d="M80.56,1629.97c0,0-0.03,1.86,0.03,5.23c0.55,30.56,8.38,185.91,110.72,227.89
				c0,0-31.98-85.28-27.68-195.29c1.64-42.16,8.63-87.97,24.77-134"
                  className="colorStroke38212a svgStroke"
                ></path>
                <path
                  fill="none"
                  stroke="#38212a"
                  strokeLinecap="round"
                  strokeLinejoin="round"
                  strokeWidth="7"
                  d="M165.08 1667.86c0 0 52.41 232.99 247.52 288.45.05.02.12.03.17.05M1132.59 1927.22c0 0 84.51-72.85 99.08-195.26 0 0 11.66 142.79-78.67 236.05M1164.65 1997.16c0 0 139.97-88.56 162.53-356.17.23-2.68.45-5.39.65-8.11M989.14 1197.51c0 0-14.23 6.2-19.79 15.91-.17.32-.33.64-.5.95M1009.48 1226.73c0 0-8.16.54-18.7 19.15-.15.25-.3.5-.43.75M1026.9 1255.95c0 0-14.33 21.51-34.4 64.51"
                  className="colorStroke38212a svgStroke"
                ></path>
                <circle cx="831.46" cy="1533.81" r="17.35" fill="none" stroke="#38212a" strokeLinecap="round" strokeLinejoin="round" strokeWidth="7" className="colorStroke38212a svgStroke"></circle>
                <circle cx="1021.71" cy="1542.41" r="17.35" fill="none" stroke="#38212a" strokeLinecap="round" strokeLinejoin="round" strokeWidth="7" className="colorStroke38212a svgStroke"></circle>
                <circle cx="1052.3" cy="1589.26" r="17.35" fill="none" stroke="#38212a" strokeLinecap="round" strokeLinejoin="round" strokeWidth="7" className="colorStroke38212a svgStroke"></circle>
                <circle cx="772.19" cy="1587.35" r="17.35" fill="none" stroke="#38212a" strokeLinecap="round" strokeLinejoin="round" strokeWidth="7" className="colorStroke38212a svgStroke"></circle>
              </g>
              <g>
                <path
                  fill="#3a212b"
                  d="M1169.09,723.43c55.59,2.12,103.24,10.86,192.58,98.48c0,0-148.03-129.31-305.83-58.49l0,0
														C1067.7,737.96,1126.16,721.79,1169.09,723.43z"
                  className="color3a212b svgShape"
                ></path>
                <ellipse cx="1165.33" cy="963.42" fill="#ffffff" rx="110.17" ry="114.24" transform="rotate(-79.712 1165.36 963.449)" className="colorfff svgShape"></ellipse>
                <path
                  fill="#c1c1c1"
                  d="M1058.9,923.31c0,0,125.05-71.64,225.79,55.85c0,0,32.11-60.18-35.82-103.48
										C1180.93,832.38,1104.21,837.62,1058.9,923.31z"
                  className="colorc1c1c1 svgShape"
                ></path>
                <path
                  fill="#603745"
                  d="M1089.46,950.74c-10.77,59.4,19.87,114.71,68.46,123.52c48.58,8.81,96.73-32.19,107.5-91.59
										c1.42-7.8,2.12-15.53,2.15-23.11c0.04-3.8-0.12-7.56-0.44-11.26c-3.72-45.07-31.17-82.1-70.16-89.17
										c-35.35-6.41-70.45,13.56-91.11,47.8c-1.01,1.66-1.99,3.37-2.93,5.11C1096.67,923.63,1092.02,936.66,1089.46,950.74z"
                  className="color603745 svgShape"
                ></path>
                <ellipse cx="1199.01" cy="972.67" fill="#3a212b" rx="47.76" ry="39.33" transform="rotate(-76.532 1199.061 972.67)" className="color3a212b svgShape"></ellipse>
                <ellipse cx="1221.49" cy="941.52" fill="#ffffff" opacity=".5" rx="25.57" ry="31.63" transform="rotate(-7.874 1221.153 941.289)" className="colorfff svgShape"></ellipse>
                <circle cx="1136.58" cy="999.68" r="22.91" fill="#ffffff" opacity=".5" className="colorfff svgShape"></circle>
                <path fill="#3a212b" d="M1049.89,1027.69c0,0,76.61,84.86,206.07,37.4C1255.96,1065.09,1132.45,1073.72,1049.89,1027.69z" className="color3a212b svgShape"></path>
                <path
                  fill="#603745"
                  d="M1105.85,906.93c41.44-8.42,104.07-6.69,161.71,52.63c0.04-3.8-0.12-7.56-0.44-11.26
										c-3.72-45.07-31.17-82.1-70.16-89.17C1161.6,852.71,1126.51,872.69,1105.85,906.93z"
                  opacity=".5"
                  className="color603745 svgShape"
                ></path>
                <path
                  fill="#3a212b"
                  d="M1358.76,919.16c-23.59,5.6-56.77-10.96-56.77-10.96c-14.71-20.57-42.35-52.81-77.7-64.45
										c-74.48-24.52-151.56,20.24-165.39,79.56c0,0,29.74-62.52,113.67-65.6c70.6-2.59,102.99,76.2,105.08,98.97
										c2.24,24.36-4.9,45.63-4.9,45.63s29.35-38.23,37.05-46.69c7.7-8.46,37.51-1.1,46.32-12.91c0,0-25.98,0.97-42.42-16.44
										c0,0-0.28-0.5-0.78-1.36C1343.03,932.13,1358.76,919.16,1358.76,919.16z"
                  className="color3a212b svgShape"
                ></path>
                <ellipse cx="714.81" cy="888.8" fill="#ffffff" rx="110.17" ry="114.24" transform="rotate(-77.461 714.848 888.84)" className="colorfff svgShape"></ellipse>
                <path
                  fill="#c1c1c1"
                  d="M828.46,893.12c0,0-87.46-114.54-229.77-36.12c0,0-6.25-67.93,73.16-81.48
										C751.27,761.96,819.94,796.55,828.46,893.12z"
                  className="colorc1c1c1 svgShape"
                ></path>
                <path
                  fill="#603745"
                  d="M632.59,874.29c-13.65,61.37,16.27,111.3,64.46,122.02c48.21,10.72,96.45-21.82,110.1-83.19
										c2.93-13.18,3.92-26.2,3.24-38.65c-0.06-1.3-0.16-2.6-0.26-3.88c-3.72-43.87-28.74-79.85-65.53-88.03
										c-37.51-8.34-76.22,14.69-97.96,54.27c-0.68,1.23-1.33,2.48-1.98,3.74C639.39,850.85,635.28,862.17,632.59,874.29z"
                  className="color603745 svgShape"
                ></path>
                <path
                  fill="#3a212b"
                  d="M796.27 992.82c0 0-103.53 48.49-204.44-45.47C591.84 947.35 702.33 1003.21 796.27 992.82zM768.48 655.14c-54.13-12.81-102.39-17.12-211.89 43.44 0 0 177.2-85.06 310.33 25.35l0 0C862.29 696.23 810.28 665.03 768.48 655.14z"
                  className="color3a212b svgShape"
                ></path>
                <ellipse cx="745.41" cy="893.73" fill="#3a212b" rx="47.76" ry="39.33" transform="rotate(-80.184 745.385 893.69)" className="color3a212b svgShape"></ellipse>
                <ellipse cx="773.63" cy="863.53" fill="#ffffff" opacity=".5" rx="25.57" ry="31.63" transform="rotate(-11.918 773.78 863.669)" className="colorfff svgShape"></ellipse>
                <circle cx="693.04" cy="927.54" r="22.91" fill="#ffffff" opacity=".5" className="colorfff svgShape"></circle>
                <path
                  fill="#603745"
                  d="M646.63,836.82c79.34-22.93,136.45,13.51,163.76,37.64c-0.06-1.3-0.16-2.6-0.26-3.88
										c-3.72-43.87-28.74-79.85-65.53-88.03C707.08,774.2,668.37,797.24,646.63,836.82z"
                  opacity=".5"
                  className="color603745 svgShape"
                ></path>
                <path
                  fill="#3a212b"
                  d="M553.7,772.96c19.57,14.32,56.57,11.92,56.57,11.92c21.53-13.25,59.51-32.24,96.62-29.26
										c78.16,6.29,131.84,77.45,121.57,137.49c0,0-3.16-69.16-79.32-104.56c-64.06-29.77-124.48,30.28-135.24,50.45
										c-11.52,21.58-13.19,43.96-13.19,43.96s-12.22-46.62-16.04-57.41c-3.82-10.79-34.14-15.56-37.68-29.86
										c0,0,23.57,10.97,45.47,1.3c0,0,0.45-0.35,1.24-0.95C563.17,791.02,553.7,772.96,553.7,772.96z"
                  className="color3a212b svgShape"
                ></path>
                <g>
                  <circle cx="960.93" cy="1027.55" r="12.43" fill="#e2a383" className="colore2a383 svgShape"></circle>
                </g>
                <g>
                  <ellipse cx="1127.28" cy="1129.7" fill="#f7c1ba" rx="28.93" ry="75.58" transform="rotate(-81.697 1127.265 1129.726)" className="colorf7c1ba svgShape"></ellipse>
                </g>
                <g>
                  <ellipse cx="674.26" cy="1048.58" fill="#f7c1ba" rx="28.93" ry="75.58" transform="rotate(-80.636 674.307 1048.567)" className="colorf7c1ba svgShape"></ellipse>
                </g>
                <g>
                  <path
                    fill="#38212a"
                    d="M865.9,1161.63c4.83,17.15,16.34,32.64,41.13,37.09c25.26,4.53,41.87-6.69,52.69-21.76
						c16.22-22.53,19.49-53.67,19.49-53.67s-60.91-5.31-112.36-18.54C866.85,1104.74,858.43,1135.17,865.9,1161.63z"
                    className="color38212a svgShape"
                  ></path>
                  <path
                    fill="#d68e8e"
                    d="M865.9,1161.63c4.83,17.15,16.34,32.64,41.13,37.09c25.26,4.53,41.87-6.69,52.69-21.76
						C944.87,1163.74,909.77,1140.12,865.9,1161.63z"
                    className="colord68e8e svgShape"
                  ></path>
                  <path
                    fill="#38212a"
                    d="M907.05,1204.12c23.22,3.85,42.91-4.46,56.98-24.06c16.85-23.4,20.32-54.89,20.46-56.22
						c0.15-1.42-0.28-2.84-1.19-3.94c-0.91-1.1-2.23-1.78-3.64-1.92c-0.61-0.05-61.09-5.43-111.5-18.39
						c-2.8-0.73-5.68,0.94-6.45,3.73c-0.36,1.3-8.73,32.18-0.94,59.75c6.35,22.57,22.02,36.7,45.31,40.88
						C906.41,1204.01,906.73,1204.06,907.05,1204.12z M973.12,1128.04c-1.68,9.55-6.41,30.1-17.72,45.81
						c-11.88,16.54-27.81,23.15-47.43,19.63c-19.27-3.46-31.7-14.66-36.94-33.29c0,0,0,0,0,0c-5.23-18.51-2.11-39.52-0.2-48.96
						C911.76,1121.21,957.44,1126.43,973.12,1128.04z"
                    className="color38212a svgShape"
                  ></path>
                </g>
              </g>
            </svg>