<svg xmlns="http://www.w3.org/2000/svg" enableBackground="new 0 0 1842.73 2858.13" viewBox="0 0 1842.73 2858.13">
              <rect width="4000" height="4000" x="-987.86" y="-711.73" fill="#ffffff" display="none" className="colorfff svgShape"></rect>
              <path
                fill="#38212a"
                d="M986.99,2858.13c-34.66,0-82.89-2.94-115.78-16.95c-21.39-9.11-33.71-21.91-36.6-38.02
				c-13.85-77.29,8.65-120.8,29.96-143.69c14.48-15.55,30.29-23.88,40.53-28.03c-1.65-15.23-2.65-45.02,9.18-73.13
				c0.28-0.67,0.61-1.35,0.98-2.06c2.89-41.78-11.05-106.19-42.61-196.91c-3.65-10.49-6.95-21.12-9.83-31.59
				c-14.58-52.89-17.06-96.03-16.8-121.44c-20.01,9.17-40.84,16.54-62.1,21.97c0.88,16.13-0.85,47.51-16.35,99.86
				c-2.85,9.72-6.24,20.23-10.06,31.21c-31.55,90.69-45.49,155.11-42.63,196.91c0.37,0.71,0.69,1.38,0.96,2.04
				c11.85,28.13,10.85,57.93,9.21,73.16c10.25,4.15,26.05,12.48,40.53,28.03c21.31,22.89,43.81,66.4,29.94,143.69
				c-2.89,16.11-15.19,28.9-36.58,38.01c-32.88,14.01-81.11,16.95-115.78,16.95c-9.36,0-18.75-0.21-27.92-0.63
				c-41.59-1.9-97.5-9.01-118.18-22.79c-9.67-6.44-16.32-19.64-20.33-40.36c-11.83-61.01,1.44-196.14,22.93-237.7
				c-20.02-76.67-16.55-210.14-5.1-273.1c0.25-1.37,0.48-2.73,0.71-4.07c-0.21-0.44-0.4-0.89-0.55-1.34
				c-1.53-4.47-0.44-9.38,2.64-12.8c4.23-33.53,2.24-59.14,0.5-72.23c-17.77,2.81-35.37,4.23-52.4,4.23
				c-76.66,0-131.59-28.71-164.17-52.79c-47.2-34.89-68.92-74.15-69.83-75.8c-2.52-4.62-2-10.24,1.32-14.33
				c21.61-26.58,50.56-51.22,61.33-60.06c20.76-117.1,139.44-248.77,200.62-310.06c-83.81,67.22-202.58,115.72-233.11,127.59
				c-3.86,11.17-15.1,33.65-47.71,72.24c-23.01,27.24-44.78,41.06-64.69,41.06c-8.95,0-17.48-2.9-24.68-8.39
				c-4.69-3.57-7.59-8.79-8.15-14.7c-0.57-6,1.42-12.03,5.46-16.56c5.68-6.34,9.74-14.52,12.57-22.09
				c-4.81,1.18-10.22,2.42-15.78,3.54c-13.4,2.7-24.05,4.02-32.57,4.02c-11.91,0-19.42-2.53-24.37-8.19
				c-4.59-5.24-7.22-10.76-7.88-16.46c-10.35-1.7-18.38-7.23-22.95-15.93c-4.67-8.87-4.17-19.05,1.33-29.19
				c-4.49-3.03-7.95-7.19-10.17-12.26c-2.64-6.03-2.72-12.43-0.23-18.5c3.12-7.64,9.85-13.26,15.86-16.99
				c0.38-4.5,1.98-8.85,4.71-12.75c10.58-15.07,39.02-24.15,89.52-28.57c17.88-1.57,38.44-2.46,59.65-2.59
				c50.21-77.15,133.88-137.02,165.27-157.83c-19.19-33.73-23.34-66.15-11.95-94.06c13.15-32.26,37.6-57.09,72.66-73.8
				c36.34-46.13,103.02-78.3,150.94-96.75c-78.21-11.05-133.48-29.62-172.7-57.85c-27.28-19.64-42.53-41.45-45.34-64.81
				c-1.82-15.18,2.01-28.16,6.68-37.74c-24.64-7.78-56.64-23.29-85.86-54.2c9.84,102.83,62.08,167.26,64.42,170.09
				c0.22,0.26,0.46,0.59,0.68,0.94c0.23,0.31,0.42,0.6,0.59,0.89c0.29,0.51,0.54,1.03,0.78,1.62l0.08,0.16l0.17,0.48
				c1.61,4.61,0.42,9.87-3.06,13.35c-2.45,2.45-5.69,3.8-9.14,3.8c-1.97,0-3.98-0.49-5.81-1.43l-0.35-0.18
				c-0.38-0.21-0.74-0.43-1.09-0.67l-0.12-0.07l-0.37-0.27c-72.87-54.44-123.85-123.05-151.51-203.89
				c-22.04-64.44-29.32-136.6-21.63-214.49c9.61-97.28,40.34-179.16,56.71-217.21c-11.68,0.67-22.97,1.01-33.68,1.01
				c-88.18,0-115.98-22.43-118.85-24.99c-4.09-3.64-5.45-9.48-3.37-14.55c1.99-4.87,6.69-8.02,11.98-8.02c0.2,0,0.4,0,0.6,0.01
				c6.26,0.32,12.37,0.48,18.18,0.48c98.02,0,136.32-44.59,205.83-125.52c44.66-52,100.25-116.71,190.44-191.87
				c109.83-91.53,204.17-110.74,263.98-110.74c53.42,0,89.46,14.66,101.95,20.65c36.26-10.11,71.74-15.23,105.49-15.23
				c91.93,0,174.4,37.6,245.25,111.79c0.49-1.06,0.99-2.12,1.5-3.18c-34.99-47.31-90.03-128.79-84.23-165.94
				c5.62-35.99,86.61-71.42,128.64-85.13C1231.84,9.05,1263.57,0,1290.18,0c17.77,0,30.86,4.08,38.9,12.12
				c28.52,28.51,37.22,133.24,39.82,187.64c23.74-17.52,68.03-48.2,110.31-66.7c39.03-17.06,61.76-24.02,78.44-24.02
				c10.78,0,19.56,2.87,27.63,9.02c25.5,19.42,46.9,125.14,50.64,178.94c26.91,20.28,132.48,111.99,129.03,299.11
				c-2.68,146.08-33.52,227.25-50.09,270.85c-3.02,7.96-7.44,19.59-8.27,24.09c2.67,2.97,9.08,9.32,13.98,14.16
				c44.2,43.74,147.66,146.13,116.35,229.63c-17.77,47.39-59.9,81.57-112.69,91.44c-9.72,1.82-19.53,2.74-29.13,2.74
				c-35.53,0-67.16-12.6-86.78-34.58c-3.68-4.12-4.33-10.12-1.62-14.93c2.29-4.06,6.6-6.58,11.27-6.58c0.78,0,1.56,0.07,2.32,0.21
				l0,0c0,0,3.52,0.58,9.08,0.58c5.78,0,14.41-0.63,23.92-3.48c6.71-21.6,5.43-42.49-3.8-62.14
				c-22.34-47.53-85.24-78.11-111.36-89.08c-8.7,22.97-9.86,38.7-3.68,49.22c7.93,13.51,30.02,22.1,65.66,25.53
				c5.93,0.57,10.68,5.09,11.54,10.99c0.86,5.9-2.4,11.59-7.92,13.83c-2.76,1.12-27.91,10.94-61.85,10.94
				c-24.32,0-47.04-5.07-67.53-15.08c-34.38-16.79-61.26-46.94-80.05-89.75c-25.13,80.15-62.82,133.94-90.87,165.57
				c-36.59,41.27-67.68,58.18-68.98,58.88c-1.87,1-3.97,1.53-6.1,1.53c-3.69,0-7.22-1.59-9.67-4.35c-3.99-4.5-4.35-11.08-0.89-15.99
				c45.2-64.19,63.04-123.02,70-162.17c-63.45,87.56-151.11,124.39-174.44,132.99c-16.58,35.3-61.17,62.42-129.73,79.07
				c48.03,16.83,128.41,51.19,169.78,103.67c35.07,16.71,59.51,41.54,72.66,73.81c11.38,27.91,7.24,60.33-11.96,94.05
				c31.4,20.82,115.08,80.7,165.27,157.83c21.21,0.13,41.77,1.02,59.65,2.59c50.49,4.42,78.94,13.5,89.51,28.57
				c2.74,3.9,4.33,8.24,4.71,12.75c6.01,3.73,12.74,9.35,15.86,16.99c2.48,6.07,2.4,12.47-0.23,18.5
				c-2.22,5.08-5.68,9.23-10.17,12.26c5.49,10.14,6,20.33,1.32,29.21c-4.56,8.69-12.59,14.22-22.94,15.92
				c-0.66,5.7-3.3,11.22-7.89,16.46c-4.94,5.65-12.46,8.18-24.36,8.18c-8.52,0-19.18-1.32-32.57-4.02
				c-5.57-1.13-10.98-2.37-15.78-3.54c2.83,7.57,6.89,15.74,12.56,22.08c4.05,4.54,6.04,10.58,5.47,16.57
				c-0.38,3.99-1.84,7.69-4.25,10.81c-15.29,61.85-59.65,105.82-128.37,127.2c-38.53,11.99-73.99,13.81-91.82,13.83
				c-20.95,40.39-53.42,71.35-96.61,92.12c-1.89,19.7-5.94,72.49-0.55,119.45c3.04,3.45,4.03,8.28,2.45,12.75
				c-0.15,0.42-0.32,0.83-0.52,1.24c0.23,1.38,0.46,2.73,0.7,4.04c11.45,62.99,14.93,196.47-5.08,273.11
				c21.5,41.58,34.75,176.74,22.91,237.74c-4.01,20.69-10.66,33.88-20.32,40.31c-20.68,13.78-76.58,20.89-118.17,22.79
				C1005.75,2857.92,996.35,2858.13,986.99,2858.13z"
                className="color38212a svgShape"
              ></path>
              <path
                fill="#ffdfca"
                d="M1120.88,2273.23c-4.65-1.39-16.03-4.43-32.4-6.54c-44.97-5.86-127.61-4.75-211.32,57.11l-1.89,0.52
					c-14.74-53.48-16.75-96.74-16.27-120.98c0.18-8.76,0.68-15.02,0.99-18.38c14.7-7.83,29.46-16.96,44.18-27.57
					c0,0,119.61,23.52,217.22-19.92C1120.68,2143.65,1112.97,2214.39,1120.88,2273.23z"
                className="colorffdfca svgShape"
              ></path>
              <path
                fill="#ffe9e9"
                d="M1116.63 2558.51c-.95-1.39-2.09-2.72-3.38-3.99-.46-.44-.91-.87-1.41-1.29-2.17-1.89-4.71-3.64-7.59-5.24-.36-.2-.72-.42-1.09-.6-3.06-1.65-6.46-3.12-10.15-4.47-.12-.04-.22-.08-.34-.12-.64-.22-1.27-.44-1.93-.66-.04-.02-.06-.04-.1-.04-.46-.16-.93-.32-1.39-.46-.62-.2-1.23-.4-1.87-.58-.7-.22-1.41-.44-2.15-.64-4.59-1.31-9.52-2.42-14.66-3.36-1.01-.18-2.03-.36-3.06-.54-.16-.02-.32-.06-.5-.08-.4-.06-.79-.12-1.19-.18-1.41-.24-2.86-.44-4.31-.64-1.21-.16-2.42-.32-3.66-.46-3.93-.48-7.95-.85-12.04-1.13-.73-.06-1.49-.1-2.22-.14-.26-.02-.52-.04-.77-.06-.95-.06-1.89-.1-2.84-.14-3.06-.16-6.12-.26-9.2-.3-1.55-.02-3.08-.04-4.63-.04-5.15 0-10.29.14-15.4.4-1.93.1-3.83.22-5.74.36-1.25.1-2.52.2-3.77.3-1.27.1-2.52.22-3.77.36-.62.06-1.23.12-1.87.18-1.85.2-3.69.42-5.52.66-2.44.32-4.87.66-7.23 1.03-1.19.18-2.36.38-3.54.6-1.17.2-2.32.42-3.46.64-.58.1-1.15.22-1.71.34-1.71.34-3.38.7-5.03 1.07-1.65.38-3.26.77-4.85 1.19-2.11.56-4.17 1.13-6.16 1.75-1.49.46-2.94.93-4.35 1.43-.95.34-1.89.68-2.78 1.01-1.37.52-2.7 1.05-3.97 1.61-1.71.74-3.32 1.51-4.87 2.3-1.15.6-2.26 1.21-3.32 1.85-.34.2-.7.42-1.03.64-.68.42-1.33.85-1.97 1.31-.95.66-1.85 1.35-2.68 2.05-.83.7-1.61 1.41-2.34 2.15-.48.5-.93.99-1.35 1.49l-1.35-.52c2.9-40.41-8.64-102.92-43.27-202.46-3.67-10.57-6.85-20.86-9.57-30.77l1.89-.52c83.71-61.86 166.35-62.97 211.32-57.11 16.37 2.11 27.75 5.14 32.4 6.54.58 4.29 1.23 8.5 1.99 12.63C1134.41 2349.33 1137.79 2484.46 1116.63 2558.51zM1438.54 1906.55c-32.72 144.2-216.39 134.33-216.39 134.33-22.77 48.43-59.81 78.41-100.75 96.6-97.62 43.44-217.22 19.92-217.22 19.92-14.72 10.61-29.48 19.75-44.18 27.57-30.61 16.33-60.97 27-90.33 33.47-126.68 27.95-234.47-22.43-260.45-36.07-3.89-2.05-5.96-3.26-5.96-3.26-196.11 35.3-279.28-114.4-280.43-116.51-.02-.02-.02-.02-.02-.02 25.69-31.59 63.21-61.22 63.21-61.22s80.97 146.17 235.02 71.12c0 0 104.67 94.8 209.34 3.93 0 0 120.48 88.88 235.02-49.36 0 0 124.43 53.32 209.36-73.08 0 0 131.55 35.36 173.42-101.49 5.2 6.93 11.38 14.68 18.69 23.34C1405.07 1921.01 1428.15 1914.47 1438.54 1906.55z"
                className="colorffe9e9 svgShape"
              ></path>
              <path
                fill="#b8c8d8"
                d="M1824.83,1130.31c-34.49,91.93-159,109.18-206.87,55.54c0,0,21.41,3.95,45.89-5.58l-0.16-0.4
					c41.78-113.73-121.67-173.62-132.68-177.51c-23.7,54.07-24.12,95.41,67.86,104.27c0,0-153.1,62.2-206.2-124.99
					c8.1-34.9,13.75-74.04,15.71-117.78v-0.16c0.46-9.87,0.72-19.96,0.77-30.31c0.02-3.16,0.02-6.36,0-9.57
					c0,0,61.3,53.64,139.83,24.91c0,0-128.33-34.49-237.52-314.14c-13.09-33.53-26.94-64.98-41.54-94.24
					c6.26,1.03,12.65,1.55,19.19,1.55c7.01,0,13.89-0.62,20.56-1.77c13.33,22.09,133.73,219.53,173.44,214.7
					c42.07-5.11,145.33-114.74,140.23-155.52c-4.85-38.94-135.1-132.28-147-140.74c58.18,10.25,122.51,7.43,139.35-5.86
					c6.87-5.42,8.94-24.22,7.71-48.83c15.16,10.35,132.24,96.72,128.65,291.99c-3.83,208.8-67.04,285.42-57.47,300.75
					c1.21,1.95,4.77,5.66,9.95,10.87c0.04,0.04,0.08,0.08,0.1,0.1C1740.61,943.58,1854.93,1050.07,1824.83,1130.31z"
                className="colorb8c8d8 svgShape"
              ></path>
              <path
                fill="#fcb19e"
                d="M1623.2,506.79c-6.08,44.68-97.93,140.66-138.5,147.79c-0.54,0.1-1.07,0.18-1.59,0.24
					c-39.71,4.83-160.11-192.61-173.44-214.7c51.21-8.94,91.12-50.72,97.26-102.84l0.97,0.12c18.63,9.69,42.95,16.69,68.43,21.16
					c11.9,8.46,142.15,101.81,147,140.74C1623.62,501.58,1623.58,504.09,1623.2,506.79z"
                className="colorfcb19e svgShape"
              ></path>
              <path
                fill="#fcb19e"
                d="M1619.07,348.23c-0.95,1.95-2.09,3.44-3.38,4.47c-16.85,13.29-81.17,16.11-139.35,5.86
					c-25.49-4.47-49.8-11.46-68.43-21.16l-0.97-0.12c0.56-4.61,0.83-9.3,0.83-14.04c0-40.44-20.24-76.16-51.15-97.58l0.3-0.46
					c0,0,66.29-53.54,127.47-80.31c49.5-21.65,70.8-25.98,84.43-21.3c3.22,1.11,6,2.72,8.64,4.73
					c19.17,14.6,42.91,113.55,45.95,175.55C1624.4,323.83,1623.22,339.96,1619.07,348.23z"
                className="colorfcb19e svgShape"
              ></path>
              <path
                fill="#ffdfca"
                d="M1537.05,1783.82c-5.36,12.28-21.47,9.97-21.47,9.97s20.7,16.09,13.03,30.65
					c-7.83,14.92-29.26,8.12-30.59,7.69c0.97,0.7,12.73,9.34,1.47,22.21c-10.73,12.28-81.27-9.2-81.27-9.2s4.41,30.23,21.22,49.01
					c1.57,1.77,2.32,3.99,2.26,6.16c-0.06,2.36-1.09,4.69-3.16,6.24c-10.39,7.93-33.47,14.46-71.67-30.73
					c-7.31-8.66-13.49-16.41-18.69-23.34c-27.51-36.69-28.07-50.26-28.07-50.26s-164.84-61.3-256.79-145.91l-0.1-0.38
					c44.89-12.75,97.48-50.2,128.74-93.58c1.57-2.19,3.1-4.37,4.55-6.58c15.75,9.85,120.32,77.33,175.78,166.75
					c0,0,162.45-2.32,147.12,38.32C1519.41,1760.84,1542.95,1770.31,1537.05,1783.82z"
                className="colorffdfca svgShape"
              ></path>
              <path
                fill="#b8c8d8"
                d="M1548.99,848.72c-78.53,28.72-139.83-24.91-139.83-24.91c0.36,60.27-5.98,112.59-16.49,157.83
					c-44.28,190.5-162.46,255.12-164.3,256.12c85.14-120.96,76.5-222.15,76.5-222.15c-67.34,132.28-199.09,174.61-201.15,175.25
					c5.11-13.51,5.64-28.41,1.19-44.64l-3.06-0.97c-33.53,21.65-58.2,32.86-59.75,33.55c2.94-2.09,97.58-70.84,135.28-352.42
					c1.47-10.99,2.62-21.85,3.46-32.54l-1.31-0.1c-77.02-39.21-141.95-167.82-153.52-191.72c0,0,0,0.02-0.02,0.06
					c-3.42,23.58-8.92,44.38-15.34,62.4c0,0,0,0.02-0.02,0.04c-20.54,57.53-50.44,86.57-51.37,87.47l-0.02,0.02
					c27.06-143.76-48.69-273.62-48.69-273.62l-1.11,0.04C919.01,744.81,791.9,893.6,791.9,893.6
					c-176.04-45.01-214.82-198.15-217.86-312.67c-53.91,101.97-8.08,197.7-7.17,199.58c-55.5-48.81-77.53-103.02-83.49-151.47
					c-1.21,2.62-2.44,5.2-3.69,7.77c-45.11,91.42-117.92,127.81-117.92,127.81c56.26-71.02,76.46-129.4,81.96-174.25l-2.78-0.34
					c0,0-152.38,132.28-125.88,306.55c31.92,209.87,99.48,225.37,99.48,225.37s-24.16,3.93-56.99-3.12
					c-36.63-7.89-84.07-29.46-120.78-85.44c-1.63,101.71,39.41,174.87,58.94,203.85c0.08,0.14,0.18,0.28,0.28,0.4
					c4.37,6.46,7.63,10.65,9.06,12.4v0.02c0.12,0.16,0.22,0.3,0.32,0.42c0.2,0.24,0.32,0.38,0.36,0.44
					C-4.49,1019.12,202.37,611.2,202.37,611.2C72.11,622.68,37.63,592.03,37.63,592.03c187.72,9.59,182.72-119.37,423.34-319.88
					c203.64-169.71,351.61-88.82,356.2-86.25c0.04,0.04,0.06,0.04,0.08,0.04l0.02,0.02c144.14-41.89,262.14-1.37,357.03,107.27
					c34.94,40.03,66.79,89.31,95.63,147.12c11.74,23.52,22.98,48.43,33.73,74.71c-0.02,0.02,0,0.06,0.02,0.1
					c2.64,6.4,5.22,12.87,7.79,19.43C1420.66,814.24,1548.99,848.72,1548.99,848.72z"
                className="colorb8c8d8 svgShape"
              ></path>
              <path
                fill="#fcb19e"
                d="M1407.77,323.24c0,4.75-0.28,9.44-0.83,14.04c-6.14,52.13-46.05,93.9-97.26,102.84
					c-6.67,1.15-13.55,1.77-20.56,1.77c-6.54,0-12.93-0.52-19.19-1.55c-28.84-57.81-60.69-107.09-95.63-147.12
					c2.66-10.23,6.67-19.92,11.8-28.88c20.46-35.7,58.94-59.75,103.02-59.75c8.86,0,17.46,0.97,25.74,2.8
					c15.24,3.38,29.36,9.67,41.76,18.28C1387.53,247.07,1407.77,282.79,1407.77,323.24z"
                className="colorfcb19e svgShape"
              ></path>
              <path
                fill="#fcb19e"
                d="M1356.92 225.2l-.3.46c-19.15-13.29-42.41-21.08-67.5-21.08-44.08 0-82.56 24.06-103.02 59.75-11.16-14.86-92.63-124.77-86.69-162.77.56-3.56 2.44-7.35 5.42-11.3 28.68-37.8 159.4-89.45 204.75-74.91 4.27 1.35 7.77 3.3 10.37 5.9C1353.1 54.38 1356.92 225.2 1356.92 225.2zM1348.17 1852.47c-41.88 136.85-173.42 101.49-173.42 101.49-84.92 126.4-209.36 73.08-209.36 73.08-114.54 138.24-235.02 49.36-235.02 49.36-104.67 90.86-209.34-3.93-209.34-3.93-154.05 75.05-235.02-71.12-235.02-71.12 22.75-147.89 216.65-326.76 232.06-340.76-9.44 0-19.69-1.63-30.37-4.67-47.16-13.39-102.78-54.01-133.29-100.16-20.34-30.75-29.52-63.96-17.6-93.19 14.04-34.45 40.82-55.48 69.01-68.34C462.2 1319.62 607.83 1281 607.83 1281s10.99 81.05 165.47 76.14c102.56-3.26 142.35-37.33 157.57-60.21 4.65-6.97 6.99-12.91 8.14-16.63l4.07.7c0 0 145.63 38.62 202.01 113.25 28.19 12.85 54.97 33.89 69.01 68.34 11.92 29.22 2.74 62.44-17.6 93.19-30.51 46.15-86.13 86.77-133.29 100.16l.1.38c.89.81 1.79 1.63 2.68 2.42 92.43 83.35 254.11 143.48 254.11 143.48S1320.66 1815.78 1348.17 1852.47z"
                className="colorfcb19e svgShape"
              ></path>
              <path
                fill="#ffdfca"
                d="M1042.1,1178.8c1.55-0.7,26.22-11.9,59.75-33.55l3.06,0.97c4.45,16.23,3.91,31.13-1.19,44.64
					c-15.71,41.78-74.79,70.44-163.73,84.98c-45.11,7.39-97.89,11.14-156.61,11.14c-64.72,0-123.38-1.73-175.53-6.18
					c-99.92-8.52-175.86-26.94-224.55-61.98c-64.74-46.62-34.43-89.85-25.74-100c32.84,7.05,56.99,3.12,56.99,3.12
					s-65.59-15.04-98.05-216.27c-0.48-2.98-0.95-6.02-1.43-9.1c-26.5-174.27,125.88-306.55,125.88-306.55l2.78,0.34
					c-5.5,44.85-25.71,103.24-81.96,174.25c0,0,72.8-36.39,117.92-127.81c1.25-2.56,2.48-5.15,3.69-7.77
					c5.96,48.45,27.99,102.66,83.49,151.47c-0.91-1.89-46.74-97.62,7.17-199.58c3.04,114.52,41.82,267.66,217.86,312.67
					c0,0,127.12-148.79,117.54-415.18l1.11-0.04c0,0,75.74,129.86,48.69,273.62c0,0,52.28-49.74,66.77-149.98
					c11.56,23.9,76.5,152.5,153.52,191.72l1.31,0.1c-0.83,10.69-1.99,21.55-3.46,32.54c-21.73,162.36-62.4,253.95-93.5,302.82
					C1061.03,1165.09,1043.35,1177.92,1042.1,1178.8z"
                className="colorffdfca svgShape"
              ></path>
              <path
                fill="#a36671"
                d="M1116.63,2558.51c-0.95-1.39-2.09-2.72-3.38-3.99c-0.46-0.44-0.91-0.87-1.41-1.29
					c-2.17-1.89-4.71-3.64-7.59-5.24c-0.36-0.2-0.72-0.42-1.09-0.6c-3.06-1.65-6.46-3.12-10.15-4.47c-0.12-0.04-0.22-0.08-0.34-0.12
					c-0.64-0.24-1.27-0.46-1.93-0.66c-0.04-0.02-0.06-0.04-0.1-0.04c-0.46-0.16-0.93-0.32-1.39-0.46c-0.62-0.2-1.23-0.4-1.87-0.58
					c-0.7-0.22-1.41-0.44-2.15-0.64c-4.59-1.31-9.52-2.42-14.66-3.36c-1.01-0.18-2.03-0.36-3.06-0.54c-0.16-0.02-0.32-0.06-0.5-0.08
					c-0.4-0.06-0.79-0.12-1.19-0.18c-1.41-0.24-2.86-0.44-4.31-0.64c-1.21-0.16-2.42-0.32-3.66-0.46
					c-3.93-0.48-7.95-0.85-12.04-1.13c-0.73-0.06-1.49-0.1-2.22-0.14c-0.26-0.02-0.52-0.04-0.77-0.06c-0.95-0.06-1.91-0.1-2.84-0.14
					c-3.06-0.16-6.12-0.26-9.2-0.3c-1.55-0.02-3.08-0.04-4.63-0.04c-5.15,0-10.29,0.14-15.4,0.4c-1.93,0.1-3.83,0.22-5.74,0.36
					c-1.25,0.1-2.52,0.2-3.77,0.3c-1.27,0.1-2.52,0.22-3.77,0.36c-0.62,0.06-1.23,0.12-1.87,0.18c-1.85,0.2-3.69,0.42-5.52,0.66
					c-2.44,0.32-4.87,0.66-7.23,1.03c-1.19,0.18-2.36,0.38-3.54,0.6c-1.17,0.2-2.32,0.42-3.46,0.64c-0.58,0.1-1.15,0.22-1.71,0.34
					c-1.71,0.34-3.38,0.7-5.03,1.07c-1.65,0.38-3.26,0.77-4.85,1.19c-2.11,0.56-4.17,1.13-6.16,1.75c-1.49,0.46-2.94,0.93-4.35,1.43
					c-0.95,0.34-1.89,0.68-2.78,1.01c-1.37,0.52-2.7,1.05-3.97,1.61c-1.71,0.74-3.32,1.51-4.87,2.3c-1.15,0.6-2.26,1.21-3.32,1.85
					c-0.34,0.2-0.7,0.42-1.03,0.64c-0.68,0.42-1.33,0.85-1.97,1.31c-0.95,0.66-1.85,1.35-2.68,2.05c-0.83,0.7-1.61,1.41-2.34,2.15
					c-0.48,0.5-0.93,0.99-1.35,1.49c-1.41,1.67-2.5,3.42-3.28,5.24c-15.38,36.55-6.71,76.94-6.71,76.94s-97.14,21.18-72.15,160.63
					c0.46,2.56,1.29,5.01,2.48,7.31c27.31,53.79,240.17,39.73,276.12,15.77C1161.31,2800.39,1141.62,2595.06,1116.63,2558.51z
					 M953.58,2580.82c14.66-16.31,57.45,15.47,57.45,15.47l0.04,0.04c3.4-2.38,7.53-3.79,12-3.79c4.69,0,9,1.55,12.49,4.15l1.69-0.4
					c0,0,41.16-30.57,56.6-16.35c0.3,0.26,0.6,0.56,0.87,0.87c10.15,11.26,12.3,37.17,6.32,53.67v0.02
					c-2.66,7.35-6.93,12.83-12.85,14.34c-19.15,4.89-50.12-17.92-50.12-17.92l-3.32-0.26c-3.34,2.26-7.37,3.58-11.68,3.58
					c-4.69,0-9-1.55-12.5-4.15l-0.36,0.83c0,0-30.97,22.8-50.12,17.92C940.94,2643.97,938.9,2597.11,953.58,2580.82z"
                className="colora36671 svgShape"
              ></path>
              <path
                fill="#ffe9e9"
                d="M1101.39,2633.46c-2.62,7.87-7.03,13.81-13.21,15.4c-16.77,4.27-42.61-12.67-48.77-16.96
					c-0.87-0.6-1.35-0.95-1.35-0.95l-3.32-0.26c0.85-0.58,1.65-1.21,2.4-1.91c4.15-3.79,6.77-9.3,6.77-15.38
					c0-6.83-3.3-12.91-8.36-16.71l1.69-0.4c0,0,40.31-29.94,56.1-16.79c0.48,0.4,0.93,0.83,1.37,1.31
					C1104.65,2591.87,1106.92,2616.94,1101.39,2633.46z"
                className="colorffe9e9 svgShape"
              ></path>
              <path
                fill="#ffe9e9"
                d="M1035.56,2596.69c5.07,3.79,8.36,9.87,8.36,16.71c0,7.19-3.66,13.55-9.18,17.28
					c-3.34,2.26-7.37,3.58-11.68,3.58c-4.69,0-9-1.55-12.5-4.15c-5.07-3.79-8.36-9.87-8.36-16.71c0-7.05,3.5-13.31,8.86-17.06
					c3.4-2.38,7.53-3.79,12-3.79C1027.75,2592.54,1032.06,2594.09,1035.56,2596.69z"
                className="colorffe9e9 svgShape"
              ></path>
              <path
                fill="#ffe9e9"
                d="M1011.03,2596.3l0.04,0.04c-5.36,3.75-8.86,10.01-8.86,17.06c0,6.83,3.3,12.91,8.36,16.71l-0.36,0.83
					c0,0-30.97,22.8-50.12,17.92c-19.15-4.89-21.2-51.75-6.52-68.04C968.24,2564.51,1011.03,2596.3,1011.03,2596.3z"
                className="colorffe9e9 svgShape"
              ></path>
              <path
                fill="#ffdfca"
                d="M940.05,1276.21c0,0-0.22,1.51-1.03,4.09c-1.15,3.71-3.5,9.65-8.14,16.63
					c-15.22,22.88-55.01,56.95-157.57,60.21c-126,3.99-156.54-49.17-163.53-68.91c-1.57-4.47-1.95-7.23-1.95-7.23l0.02-0.2
					c52.15,4.45,110.81,6.18,175.53,6.18c58.72,0,111.5-3.75,156.61-11.14L940.05,1276.21z"
                className="colorffdfca svgShape"
              ></path>
              <path
                fill="#a36671"
                d="M710.69,2640.26c0,0,8.66-40.39-6.73-76.94c-0.77-1.83-1.87-3.58-3.28-5.24
					c-2.92-3.46-7.17-6.57-12.42-9.32c-0.85-0.46-1.73-0.89-2.64-1.33c-0.95-0.46-1.95-0.89-2.94-1.31
					c-1.85-0.79-3.77-1.55-5.78-2.24c-0.64-0.24-1.29-0.46-1.95-0.68c-0.97-0.34-1.95-0.66-2.94-0.95c-0.99-0.3-2.01-0.6-3.04-0.89
					c-2.36-0.68-4.81-1.31-7.33-1.89c-0.58-0.14-1.17-0.28-1.77-0.4c-2.38-0.54-4.83-1.03-7.31-1.49c-0.58-0.12-1.17-0.22-1.75-0.32
					c-0.58-0.1-1.17-0.2-1.75-0.3c-7.71-1.29-15.83-2.25-24.12-2.82c-1.49-0.12-2.98-0.22-4.49-0.3c-3.64-0.2-7.31-0.34-10.97-0.4
					c-0.91-0.02-1.83-0.04-2.76-0.04c-9.63-0.1-19.25,0.28-28.47,1.15c-1.19,0.1-2.38,0.22-3.56,0.36c-1.17,0.12-2.34,0.26-3.52,0.4
					c-1.15,0.16-2.32,0.3-3.46,0.46c-1.73,0.24-3.44,0.5-5.11,0.77c-1.67,0.28-3.34,0.58-4.97,0.89c-3.79,0.73-7.47,1.57-10.95,2.5
					c-1.01,0.28-1.99,0.56-2.96,0.83c-0.97,0.28-1.93,0.58-2.86,0.87c-0.46,0.14-0.93,0.3-1.39,0.46c-0.91,0.32-1.83,0.64-2.72,0.95
					c-0.44,0.16-0.87,0.32-1.31,0.5c-0.87,0.34-1.73,0.68-2.56,1.03c-0.83,0.34-1.65,0.7-2.46,1.07c-0.79,0.38-1.57,0.76-2.32,1.13
					c-0.77,0.38-1.51,0.77-2.22,1.19c-0.72,0.4-1.43,0.81-2.11,1.23c-4.39,2.72-7.91,5.82-10.27,9.3
					c-21.77,31.8-39.49,191.46-20.4,247.87c2.84,8.4,6.52,14.52,11.1,17.58c37.5,24.99,267.42,39.21,278.59-23.08
					C807.83,2661.43,710.69,2640.26,710.69,2640.26z M535.44,2580.82c14.66-16.31,57.45,15.47,57.45,15.47l0.93,1.01
					c3.6-2.98,8.22-4.77,13.27-4.77c4.45,0,8.6,1.41,12,3.81l0.04-0.06c0,0,42.77-31.78,57.45-15.47
					c4.35,4.85,7.23,12.38,8.64,20.72c0,0.02,0,0.02,0,0.02c1.95,11.64,0.99,24.81-2.86,34.37c-0.02,0.02-0.02,0.02-0.02,0.04
					c-2.7,6.61-6.77,11.48-12.28,12.89c-19.15,4.89-50.12-17.92-50.12-17.92l-1.19-0.26c-3.34,2.26-7.35,3.58-11.66,3.58
					c-5.05,0-9.67-1.79-13.27-4.77l-1.75,1.45c0,0-30.97,22.8-50.12,17.92C522.81,2643.97,520.76,2597.11,535.44,2580.82z"
                className="colora36671 svgShape"
              ></path>
              <path
                fill="#ffdfca"
                d="M755.19,2324.46l-2.19-0.66c-12.85-9.5-25.69-17.56-38.34-24.37c-99.74-53.75-189.71-30.85-205.32-26.22
					c3.54-24.45,3.89-45.23,3.16-60.91c-0.7-15.14-2.42-25.55-3.28-29.94c25.98,13.65,133.77,64.02,260.45,36.07l0.18,0.85
					C769.85,2219.3,777.83,2248,755.19,2324.46z"
                className="colorffdfca svgShape"
              ></path>
              <path
                fill="#ffe9e9"
                d="M745.31 2355.1c-34.62 99.54-46.17 162.06-43.29 202.46l-1.35.52c-2.92-3.46-7.17-6.57-12.42-9.32-.85-.46-1.75-.89-2.64-1.33-.95-.46-1.95-.89-2.94-1.31-1.85-.79-3.77-1.55-5.78-2.24-.64-.24-1.29-.46-1.95-.68-.97-.34-1.95-.66-2.94-.95-.99-.3-2.01-.6-3.04-.89-2.36-.68-4.81-1.31-7.33-1.89-.58-.14-1.17-.28-1.77-.4-2.38-.54-4.83-1.03-7.31-1.49-.58-.12-1.17-.22-1.75-.32-.58-.1-1.17-.2-1.75-.3-7.71-1.29-15.83-2.25-24.12-2.82-1.49-.12-2.98-.22-4.49-.3-3.64-.2-7.31-.34-10.97-.4-.91-.02-1.85-.04-2.76-.04-9.63-.1-19.25.28-28.47 1.15-1.19.1-2.38.22-3.56.36-1.17.12-2.34.26-3.52.4-1.15.14-2.32.3-3.46.46-1.73.24-3.44.5-5.11.77-1.67.28-3.34.58-4.97.89-3.79.73-7.47 1.57-10.95 2.5-1.01.26-1.99.54-2.96.83-.97.28-1.93.58-2.86.87-.46.14-.93.3-1.39.46-.91.3-1.83.62-2.72.95-.44.16-.87.32-1.31.5-.87.34-1.73.68-2.56 1.03-.83.34-1.65.7-2.46 1.07-.79.38-1.57.76-2.32 1.13-.77.38-1.51.77-2.22 1.19-.72.4-1.43.81-2.11 1.23-4.39 2.72-7.91 5.82-10.27 9.3-21.16-74.06-17.8-209.18-6.26-272.65.77-4.31 1.47-8.54 2.07-12.65 15.61-4.63 105.58-27.53 205.32 26.22 12.65 6.81 25.49 14.88 38.34 24.37l2.19.66C752.41 2333.94 749.13 2344.13 745.31 2355.1zM676.58 2580.82c14.66 16.29 12.63 63.15-6.52 68.04-19.15 4.89-50.12-17.92-50.12-17.92l-1.19-.26c5.52-3.73 9.18-10.09 9.18-17.28 0-7.05-3.5-13.29-8.84-17.04l.04-.06C619.13 2596.3 661.9 2564.51 676.58 2580.82z"
                className="colorffe9e9 svgShape"
              ></path>
              <path
                fill="#ffe9e9"
                d="M619.09,2596.35c5.34,3.75,8.84,9.99,8.84,17.04c0,7.19-3.66,13.55-9.18,17.28
					c-3.34,2.26-7.35,3.58-11.66,3.58c-5.05,0-9.67-1.79-13.27-4.77c-4.63-3.81-7.59-9.61-7.59-16.09c0-6.48,2.96-12.28,7.59-16.09
					c3.6-2.98,8.22-4.77,13.27-4.77C611.54,2592.54,615.7,2593.95,619.09,2596.35z"
                className="colorffe9e9 svgShape"
              ></path>
              <path
                fill="#ffe9e9"
                d="M592.89,2596.3l0.93,1.01c-4.63,3.81-7.59,9.61-7.59,16.09c0,6.48,2.96,12.28,7.59,16.09l-1.75,1.45
					c0,0-30.97,22.8-50.12,17.92c-19.15-4.89-21.2-51.75-6.52-68.04C550.1,2564.51,592.89,2596.3,592.89,2596.3z"
                className="colorffe9e9 svgShape"
              ></path>
              <path
                fill="#ffdfca"
                d="M31.51,1760.84c-15.34-40.64,147.12-38.32,147.12-38.32c55.46-89.41,160.03-156.89,175.78-166.75
					c30.51,46.15,86.13,86.77,133.29,100.16l-0.1,0.38c-91.95,84.6-256.79,145.91-256.79,145.91s-0.77,19.17-46.76,73.6
					c-38.18,45.19-61.28,38.66-71.67,30.73c-3.91-2.98-4.19-8.7-0.89-12.4c16.81-18.77,21.22-49.01,21.22-49.01
					s-70.54,21.47-81.27,9.2c-11.26-12.87,0.5-21.51,1.47-22.21c-1.33,0.44-22.77,7.23-30.59-7.69
					c-7.67-14.56,13.03-30.65,13.03-30.65s-16.11,2.3-21.47-9.97C7.97,1770.31,31.51,1760.84,31.51,1760.84z"
                className="colorffdfca svgShape"
              ></path>
              <path
                fill="#e2a383"
                d="M1180.83,793.83c-0.83,10.69-1.99,21.55-3.46,32.54c-21.73,162.36-62.4,253.95-93.5,302.82l-41.78,49.6
				c104.15-144.97,98.89-374.14,98.89-374.14c-57.47-40.23-105.36-120.68-105.36-120.68c-40.23,84.29-113.01,113.01-113.01,113.01
				c32.56-80.45,7.67-168.55,7.67-168.55c-11.5,149.4-111.1,293.07-111.1,293.07c-224.12-15.32-245.19-214.54-245.19-214.54
				c0,76.62,28.74,120.68,28.74,120.68C495.45,793.16,474.38,699.3,474.38,699.3c-61.94,77.27-134.72,83.65-134.72,83.65
				s8.94-26.82,47.24-104.71c0,0-77.89,94.5-70.22,210.71c0.4,6.08,0.32,11.64-0.18,16.73c-0.48-2.98-0.95-6.02-1.43-9.1
				c-26.5-174.27,125.88-306.55,125.88-306.55l2.78,0.34c-5.5,44.85-25.71,103.24-81.96,174.25c0,0,72.8-36.39,117.92-127.81
				c1.25-2.56,2.48-5.15,3.69-7.77c5.96,48.45,27.99,102.66,83.49,151.47c-0.91-1.89-46.74-97.62,7.17-199.58
				c3.04,114.52,41.82,267.66,217.86,312.67c0,0,127.12-148.79,117.54-415.18l1.11-0.04c0,0,75.74,129.86,48.69,273.62
				c0,0,52.28-49.74,66.77-149.98c11.56,23.9,76.5,152.5,153.52,191.72L1180.83,793.83z"
                className="colore2a383 svgShape"
              ></path>
              <path
                fill="#8a9baa"
                d="M443.73,590.36l-2.78-0.34c0,0-152.38,132.28-125.88,306.55c31.92,209.87,99.48,225.37,99.48,225.37
				s-24.16,3.93-56.99-3.12c-36.63-7.89-84.07-29.46-120.78-85.44c-1.63,101.71,39.41,174.87,58.94,203.85
				c-29.6-42.03-113.43-173.96-96.54-298.49c0,0,50.26,97.76,132.82,140.46c0,0-204.33-329.46,112.38-572.11
				C444.36,507.1,455.49,558.77,443.73,590.36z"
                className="color8a9baa svgShape"
              ></path>
              <path
                fill="#8a9baa"
                d="M959.26,751.98l-0.02,0.02c27.06-143.76-48.69-273.62-48.69-273.62l-1.11,0.04
				C919.01,744.81,791.9,893.6,791.9,893.6c-176.04-45.01-214.82-198.15-217.86-312.67c-53.91,101.97-8.08,197.7-7.17,199.58
				c-55.5-48.81-77.53-103.02-83.49-151.47c-1.21,2.62-2.44,5.2-3.69,7.77c-45.11,91.42-117.92,127.81-117.92,127.81
				s96.34-69.17,104.51-147.58c8.16-78.41,37.56-133.95,37.56-133.95s-11.44,138.86,16.33,199.28c0,0,16.35-158.44,68.61-240.13
				c0,0-33.12,334.55,186.96,406.29c0,0,104.04-104.04,120.13-473.26C895.87,375.28,1027.52,561.89,959.26,751.98z"
                className="color8a9baa svgShape"
              ></path>
              <path fill="#60423d" d="M1010.65,664.47c8.84-36.97,15-61.04,15.34-62.4C1022.57,625.66,1017.07,646.46,1010.65,664.47z" className="color60423d svgShape"></path>
              <path
                fill="#8a9baa"
                d="M1548.99,848.72c-78.53,28.72-139.83-24.91-139.83-24.91c0.36,60.27-5.98,112.59-16.49,157.83
				c-44.28,190.5-162.46,255.12-164.3,256.12c85.14-120.96,76.5-222.15,76.5-222.15c-67.34,132.28-199.09,174.61-201.15,175.25
				c5.11-13.51,5.64-28.41,1.19-44.64l-3.06-0.97c-33.53,21.65-58.2,32.86-59.75,33.55c2.94-2.09,97.58-70.84,135.28-352.42
				c1.47-10.99,2.62-21.85,3.46-32.54l-1.31-0.1c-77.02-39.21-141.95-167.82-153.52-191.72c0,0,15.24-92.73-14.12-174.39
				c1.43,2.92,47.5,97.48,57.13,171.43c9.79,75.15,110.51,194.68,110.51,194.68s21.17-256.3-125.17-415.14
				c2.54,2.56,166.55,168.3,164.94,388.72s-104.55,345.97-106.16,347.91c2.44-1.55,158.62-101.05,182.94-282.58
				c0,0,29,144.89-81.68,251.55c0,0,73.52-34.31,111.08-140.46c0,0,24.45,83.15-12.97,168.02c3.56-7.47,97-206.71,50.56-352.56
				c1.11,1.39,36.87,45.95,96.36,62.02c0,0-112.71-117.6-153.56-294.02c-0.99-4.27-1.71-8.28-2.19-12.04
				c2.64,6.4,5.22,12.87,7.79,19.43C1420.66,814.24,1548.99,848.72,1548.99,848.72z"
                className="color8a9baa svgShape"
              ></path>
              <path
                fill="#c97881"
                d="M1406.93 337.28c-6.14 52.13-46.05 93.9-97.26 102.84-6.67 1.15-13.55 1.77-20.56 1.77-6.54 0-12.93-.52-19.19-1.55-28.84-57.81-60.69-107.09-95.63-147.12 2.66-10.23 6.67-19.92 11.8-28.88 20.46-35.7 58.94-59.75 103.02-59.75 8.86 0 17.46.97 25.74 2.8-24.2 7.83-117 44.72-63.41 136.27C1312.74 448.36 1406.93 337.28 1406.93 337.28zM1619.07 348.23c-.95 1.95-2.09 3.44-3.38 4.47-16.85 13.29-81.17 16.11-139.35 5.86-25.49-4.47-49.8-11.46-68.43-21.16l-.97-.12c.56-4.61.83-9.3.83-14.04 0-40.44-20.24-76.16-51.15-97.58l.3-.46c0 0 66.29-53.54 127.47-80.31 49.5-21.65 70.8-25.98 84.43-21.3-12.77 4.93-111.38 44.36-143.27 100.46-33.47 58.9 112.91 14.08 118.55 12.36-2.94 1.25-46.38 19.59-88.54 35.42-43.66 16.37 13.65 79.14 162.4 76.42C1618.34 348.25 1618.71 348.23 1619.07 348.23z"
                className="colorc97881 svgShape"
              ></path>
              <path
                fill="#c97881"
                d="M1356.92 225.2l-.3.46c-19.15-13.29-42.41-21.08-67.5-21.08-44.08 0-82.56 24.06-103.02 59.75-11.16-14.86-92.63-124.77-86.69-162.77.56-3.56 2.44-7.35 5.42-11.3 0 .02.02.04.02.06 15.02 49.13 83.59 103.5 109.14 104.35 12.63.42 28.09-6.81 28.45-25.31.58-29.28-8.07-59.59-11.04-69.13 3.6 10.59 16.57 45.65 36.49 62.73 9.28 7.97 20.06 12.02 32.12 7.87 39.03-13.47 10.37-151.67 9.57-155.48 4.27 1.35 7.77 3.3 10.37 5.9C1353.1 54.38 1356.92 225.2 1356.92 225.2zM1623.2 506.79c-6.04-6.71-107.19-118.1-168.28-120.56-62.26-2.52 34.25 119.63 36.55 122.53-1.89-2.19-62.59-72.35-93.6-74.85-31.35-2.54-28.96 118 86.83 220.68-.54.1-1.07.18-1.59.24-39.71 4.83-160.11-192.61-173.44-214.7 51.21-8.94 91.12-50.72 97.26-102.84l.97.12c18.63 9.69 42.95 16.69 68.43 21.16 11.9 8.46 142.15 101.81 147 140.74C1623.62 501.58 1623.58 504.09 1623.2 506.79z"
                className="colorc97881 svgShape"
              ></path>
              <path
                fill="#8a9baa"
                d="M1824.83,1130.31c-34.49,91.93-159,109.18-206.87,55.54c0,0,21.41,3.95,45.89-5.58l-0.16-0.4
				c41.78-113.73-121.67-173.62-132.68-177.51c-23.7,54.07-24.12,95.41,67.86,104.27c0,0-153.1,62.2-206.2-124.99
				c8.1-34.9,13.75-74.04,15.71-117.78c0.64,55.07,11.66,169.9,88.88,218.53c-1.15-1.01-37.11-34.45,38.32-155.14
				c75.39-120.62,37.64-231.98,36.43-235.52c2.72,3.32,87.48,108.82,49.78,210.63c-38.32,103.44,67.04,126.42,67.04,206.87
				c0,0,40.23-55.54-5.76-124.51c0,0,114.94,109.2,51.73,185.82c0,0,130.71-82.84-30.17-262.95
				C1740.61,943.58,1854.93,1050.07,1824.83,1130.31z"
                className="color8a9baa svgShape"
              ></path>
              <path
                fill="#ffffff"
                d="M817.17,185.89c-4.17-1.67-151.85-59.65-351.45,110.63C304.85,433.78,279.98,551.38,136.95,597.83
				c0,0,48.29,3.32,98.45-9.67c0,0-217.34,412.36,69.65,661.88v0.02c0.12,0.16,0.22,0.3,0.32,0.42c0.2,0.24,0.32,0.38,0.36,0.44
				C-4.49,1019.12,202.37,611.2,202.37,611.2C72.11,622.68,37.63,592.03,37.63,592.03c187.72,9.59,182.72-119.37,423.34-319.88
				C664.6,102.44,812.58,183.33,817.17,185.89z"
                className="colorfff svgShape"
              ></path>
              <path
                fill="#ffffff"
                d="M440.33 504.02c0 0 51.42 125.69-50.27 241.09l-25.14 12.57C364.92 757.68 467.75 662.84 440.33 504.02zM1012.78 433.18c0 0 28.57 183.96-47.99 274.23l-2.29 33.14C962.5 740.54 1072.19 622.85 1012.78 433.18zM1027.78 350.63c0 0 163.65 228.49 137.4 435.36l9.26 6.18C1174.44 792.17 1219.21 580.66 1027.78 350.63z"
                className="colorfff svgShape"
              ></path>
              <path
                fill="#e2a383"
                d="M940.05,1276.21c0,0-0.22,1.51-1.03,4.09c-1.15,3.71-3.5,9.65-8.14,16.63c-0.12,0.02-0.24,0.06-0.36,0.08
				c-157.47,35.5-314.94,0-314.94,0s-2.46-3.18-5.8-8.78c-1.57-4.47-1.95-7.23-1.95-7.23l0.02-0.2
				c52.15,4.45,110.81,6.18,175.53,6.18c58.72,0,111.5-3.75,156.61-11.14L940.05,1276.21z"
                className="colore2a383 svgShape"
              ></path>
              <path fill="#af465f" d="M1040.23,1372.68c0.3,0.06,1.23,0.28,2.74,0.64C1041.5,1373,1040.53,1372.76,1040.23,1372.68z" className="coloraf465f svgShape"></path>
              <path
                fill="#c97881"
                d="M1196.51,1555.77c-30.51,46.15-86.13,86.77-133.29,100.16l0.1,0.38
				c-120.4,28.92-109.63-133.91-109.63-133.91c27.78,172.92,203.79,71.03,223.85-16.98c18.02-78.92-107.4-125.5-132.83-131.71
				c13.79,2.98,52.76,9.95,30.93-11.86c-26.24-26.24-144.76-64.92-144.76-64.92c4.65-6.97,6.99-12.91,8.14-16.63l4.07,0.7
				c0,0,145.63,38.62,202.01,113.25c28.19,12.85,54.97,33.89,69.01,68.34C1226.03,1491.81,1216.85,1525.02,1196.51,1555.77z"
                className="colorc97881 svgShape"
              ></path>
              <path
                fill="#e2a383"
                d="M1441.7,1900.31c-0.06,2.36-1.09,4.69-3.16,6.24c-10.39,7.93-33.47,14.46-71.67-30.73
				c-7.31-8.66-13.49-16.41-18.69-23.34c-27.51-36.69-28.07-50.26-28.07-50.26s-164.84-61.3-256.79-145.91l-0.1-0.38
				c44.89-12.75,98.22-54.01,129.49-97.4c0.68,0.12,6.81,4.26,6.81,4.26s-22.87,48.09-63,85.14
				c-40.15,37.05,193.86,132.3,193.86,132.3s50.93,128.15,108.06,120.42C1439.55,1900.49,1440.65,1900.39,1441.7,1900.31z"
                className="colore2a383 svgShape"
              ></path>
              <path
                fill="#c97881"
                d="M354.02,1555.77c30.51,46.15,86.13,86.77,133.29,100.16l-0.1,0.38c120.4,28.92,109.63-133.91,109.63-133.91
				c-27.78,172.92-203.79,71.03-223.85-16.98c-18.02-78.92,107.4-125.5,132.83-131.71c-13.79,2.98-52.76,9.95-30.93-11.86
				c26.24-26.24,144.76-64.92,144.76-64.92c-4.65-6.97-6.99-12.91-8.14-16.63l-4.07,0.7c0,0-145.63,38.62-202.01,113.25
				c-28.19,12.85-54.97,33.89-69.01,68.34C324.5,1491.81,333.68,1525.02,354.02,1555.77z"
                className="colorc97881 svgShape"
              ></path>
              <path
                fill="#e2a383"
                d="M108.83,1900.31c0.06,2.36,1.09,4.69,3.16,6.24c10.39,7.93,33.47,14.46,71.67-30.73
				c7.31-8.66,13.49-16.41,18.69-23.34c27.51-36.69,28.07-50.26,28.07-50.26s164.84-61.3,256.79-145.91l0.1-0.38
				c-44.89-12.75-98.22-54.01-129.49-97.4c-0.68,0.12-6.81,4.26-6.81,4.26s22.87,48.09,63,85.14
				c40.15,37.05-193.86,132.3-193.86,132.3s-50.93,128.15-108.06,120.42C110.97,1900.49,109.88,1900.39,108.83,1900.31z"
                className="colore2a383 svgShape"
              ></path>
              <path
                fill="#c97881"
                d="M1348.17,1852.47c-41.88,136.85-173.42,101.49-173.42,101.49c-84.92,126.4-209.36,73.08-209.36,73.08
				c-114.54,138.24-235.02,49.36-235.02,49.36c-104.67,90.86-209.34-3.93-209.34-3.93c-154.05,75.05-235.02-71.12-235.02-71.12
				c116.21,110.59,234.33,36.91,234.33,36.91c105.36,95.77,210.71,5.74,210.71,5.74c155.16,76.62,220.3-59.38,220.3-59.38
				c151.31,68.95,224.12-74.71,224.12-74.71c80.45-13.41,109.18-53.64-3.83-120.68c-113.01-67.04-178.15-139.83-178.15-139.83
				c33.49,19.81,62.16,12.97,72.51,9.32c92.43,83.35,254.11,143.48,254.11,143.48S1320.66,1815.78,1348.17,1852.47z"
                className="colorc97881 svgShape"
              ></path>
              <path
                fill="#cebab7"
                d="M1438.54,1906.55c-32.72,144.2-216.39,134.33-216.39,134.33c-22.77,48.43-59.81,78.41-100.75,96.6
				c-97.62,43.44-217.22,19.92-217.22,19.92c-14.72,10.61-29.48,19.75-44.18,27.57c-30.61,16.33-60.97,27-90.33,33.47
				c-126.68,27.95-234.47-22.43-260.45-36.07c-3.89-2.05-5.96-3.26-5.96-3.26c-196.11,35.3-279.28-114.4-280.43-116.51
				c2.07,1.99,120.72,136.19,287.94,90.6c0,0,164.74,122.59,390.76-19.16c0,0,235.62,44.07,306.5-116.85
				c0,0,122.59-7.65,153.24-51.71s-11.48-63.21-30.65-34.49c-19.15,28.72-84.27,57.47-145.57,53.64c0,0-63.21,95.78-204.96,68.95
				c0,0-99.6,114.94-245.19,47.89c0,0-90.03,82.37-214.54,0c0,0-200.48,67.94-234.33-100.12c0,0,80.97,146.17,235.02,71.12
				c0,0,104.67,94.8,209.34,3.93c0,0,120.48,88.88,235.02-49.36c0,0,124.43,53.32,209.36-73.08c0,0,131.55,35.36,173.42-101.49
				c5.2,6.93,11.38,14.68,18.69,23.34C1405.07,1921.01,1428.15,1914.47,1438.54,1906.55z"
                className="colorcebab7 svgShape"
              ></path>
              <path
                fill="#e2a383"
                d="M1120.88,2273.23c-4.65-1.39-16.03-4.43-32.4-6.54c-7.09-47.2-17.92-71.02-35.58-73.56
				c-140.62-20.22-192.27,10.59-192.27,10.59s-0.58-0.12-1.63-0.38c0.18-8.76,0.68-15.02,0.99-18.38
				c14.7-7.83,29.46-16.96,44.18-27.57c0,0,119.61,23.52,217.22-19.92C1120.68,2143.65,1112.97,2214.39,1120.88,2273.23z"
                className="colore2a383 svgShape"
              ></path>
              <path
                fill="#cebab7"
                d="M1116.63,2558.51c-0.95-1.39-2.09-2.72-3.38-3.99c-0.46-0.44-0.91-0.87-1.41-1.29
				c-2.17-1.89-4.71-3.64-7.59-5.24c-0.36-0.2-0.72-0.42-1.09-0.6c-3.06-1.65-6.46-3.12-10.15-4.47c0.1-1.97,0.26-3.91,0.46-5.84
				c6.63-66.45,7.01-190.66-4.99-270.38c16.37,2.11,27.75,5.14,32.4,6.54c0.58,4.29,1.23,8.5,1.99,12.63
				C1134.41,2349.33,1137.79,2484.46,1116.63,2558.51z"
                className="colorcebab7 svgShape"
              ></path>
              <path
                fill="#6b3d46"
                d="M1125.93,2823.97c-35.96,23.96-248.81,38.02-276.12-15.77c34.94,10.43,80.12,16.57,137.82,12.87
				c138.88-8.92,126.82-97.91,113.41-186.55v-0.02c-2.8-18.43-5.64-36.87-7.19-54.55c-1.13-12.83-1.59-25.27-0.83-37.03
				c3.69,1.35,7.09,2.82,10.15,4.47c0.38,0.18,0.73,0.4,1.09,0.6c2.88,1.61,5.42,3.36,7.59,5.24c0.5,0.42,0.95,0.85,1.41,1.29
				c1.29,1.27,2.42,2.6,3.38,3.99C1141.62,2595.06,1161.31,2800.39,1125.93,2823.97z"
                className="color6b3d46 svgShape"
              ></path>
              <path
                fill="#e2a383"
                d="M755.19,2324.46l-2.19-0.66c-12.85-9.5-25.69-17.56-38.34-24.37c-3.52-24.2-19.55-37.27-56.4-42.79
				c-76.62-11.5-141.76-40.23-141.76-40.23s-1.67-1.47-4.01-4.11c-0.7-15.14-2.42-25.55-3.28-29.94
				c25.98,13.65,133.77,64.02,260.45,36.07l0.18,0.85C769.85,2219.3,777.83,2248,755.19,2324.46z"
                className="colore2a383 svgShape"
              ></path>
              <path
                fill="#cebab7"
                d="M745.31,2355.1c-34.62,99.54-46.17,162.06-43.29,202.46l-1.35,0.52c-2.92-3.46-7.17-6.57-12.42-9.32
				c-0.85-0.46-1.75-0.89-2.64-1.33c-0.95-0.46-1.95-0.89-2.94-1.31c-1.89-36.29-2.32-77.67,10.07-124.73
				c14.92-56.67,25.69-95.81,21.91-121.95c12.65,6.81,25.49,14.88,38.34,24.37l2.19,0.66
				C752.41,2333.94,749.13,2344.13,745.31,2355.1z"
                className="colorcebab7 svgShape"
              ></path>
              <path
                fill="#6b3d46"
                d="M782.82,2800.88c-11.16,62.3-241.08,48.07-278.59,23.08c-4.59-3.06-8.26-9.18-11.1-17.58
				c68.65,9.77,258.48,30.35,264.74-40.21c7.67-86.19-86.19-101.53-86.19-101.53c5.24-8.96,8.6-18.49,10.67-28.69
				c0-0.02,0-0.02,0.02-0.04c2.17-10.75,2.88-22.19,2.86-34.37c0,0,0,0,0-0.02c-0.04-17-1.51-35.44-2.54-55.42
				c0.99,0.42,1.99,0.85,2.94,1.31c0.91,0.44,1.79,0.87,2.64,1.33c5.24,2.74,9.5,5.86,12.42,9.32c1.41,1.67,2.5,3.42,3.28,5.24
				c15.4,36.55,6.73,76.94,6.73,76.94S807.83,2661.43,782.82,2800.88z"
                className="color6b3d46 svgShape"
              ></path>
              <path
                fill="#cebab7"
                d="M1101.39 2633.46c-2.62 7.87-7.03 13.81-13.21 15.4-16.77 4.27-42.61-12.67-48.77-16.96-.77-1.03-1.53-2.07-2.26-3.12 4.15-3.79 6.77-9.3 6.77-15.38 0-6.83-3.3-12.91-8.36-16.71l1.69-.4c0 0 40.31-29.94 56.1-16.79-10.55 3.52-33.99 13.57-33.51 33.33C1060.29 2632.09 1087.92 2633.78 1101.39 2633.46zM947.25 2633.46c2.62 7.87 7.03 13.81 13.21 15.4 16.77 4.27 42.61-12.67 48.77-16.96.77-1.03 1.53-2.07 2.26-3.12-4.15-3.79-6.77-9.3-6.77-15.38 0-6.83 3.3-12.91 8.36-16.71l-1.69-.4c0 0-40.31-29.94-56.1-16.79 10.55 3.52 33.99 13.57 33.51 33.33C988.35 2632.09 960.72 2633.78 947.25 2633.46zM684.59 2633.46c-2.62 7.87-7.03 13.81-13.21 15.4-16.77 4.27-42.61-12.67-48.77-16.96-.77-1.03-1.53-2.07-2.26-3.12 4.15-3.79 6.77-9.3 6.77-15.38 0-6.83-3.3-12.91-8.36-16.71l1.69-.4c0 0 40.31-29.94 56.1-16.79-10.55 3.52-33.99 13.57-33.51 33.33C643.48 2632.09 671.12 2633.78 684.59 2633.46zM530.45 2633.46c2.62 7.87 7.03 13.81 13.21 15.4 16.77 4.27 42.61-12.67 48.77-16.96.77-1.03 1.53-2.07 2.26-3.12-4.15-3.79-6.77-9.3-6.77-15.38 0-6.83 3.3-12.91 8.36-16.71l-1.69-.4c0 0-40.31-29.94-56.1-16.79 10.55 3.52 33.99 13.57 33.51 33.33C571.55 2632.09 543.91 2633.78 530.45 2633.46z"
                className="colorcebab7 svgShape"
              ></path>
              <path
                fill="#38212a"
                d="M396.67,1130c-10.42,0-24.48-0.92-40.57-4.38c-35.67-7.68-86.33-29.25-125.13-88.42
					c-17.18-26.19-30.75-57.87-40.36-94.17c-0.98-3.71,1.23-7.52,4.94-8.5c3.72-0.98,7.52,1.23,8.5,4.94
					c9.22,34.85,22.19,65.16,38.54,90.1c36.22,55.23,83.31,75.32,116.43,82.46c12.67,2.72,24.05,3.73,33.07,3.98
					c-23.85-21.07-62.27-76.16-83.9-218.38c-14.01-92.15,21.63-172.35,54.01-223.4c34.93-55.08,72.61-88.07,74.19-89.45
					c2.9-2.51,7.29-2.21,9.81,0.69c2.52,2.9,2.21,7.29-0.69,9.81c-0.38,0.33-37.95,33.28-71.79,86.74
					c-30.99,48.97-65.13,125.77-51.78,213.52c16.29,107.1,41.92,161.6,60.55,188.47c18.82,27.14,33.47,31.13,33.61,31.17
					c3.24,0.74,5.5,3.68,5.39,7c-0.11,3.32-2.55,6.11-5.83,6.64C415.12,1128.89,408.08,1130,396.67,1130z"
                className="color38212a svgShape"
              ></path>
              <path
                fill="#38212a"
                d="M361.77 771.57c-2.04 0-4.04-.9-5.4-2.57-2.05-2.53-2.08-6.15-.05-8.7 46.76-59.03 73.85-116.49 80.51-170.78 4.36-35.43-.73-62.25-4.1-80l-.66-3.48c-.71-3.77 1.78-7.41 5.56-8.11 3.77-.71 7.41 1.78 8.11 5.56l.65 3.44c3.53 18.6 8.87 46.7 4.24 84.29-5.73 46.69-25.67 95.36-59.4 145.08 24.39-19.54 57.65-52.77 82.22-102.56 1.22-2.49 2.43-5.03 3.62-7.61l0 0 .12-.26c1.53-3.52 5.63-5.16 9.15-3.63 3.52 1.53 5.15 5.61 3.62 9.13l-.17.39c-.03.06-.06.14-.09.2-1.23 2.67-2.49 5.29-3.76 7.9-45.64 92.48-118 129.45-121.06 130.98C363.88 771.33 362.82 771.57 361.77 771.57zM566.87 787.47c-1.77 0-3.55-.68-4.9-2.03l-.02-.02c-.55-.55-1-1.19-1.34-1.89-1.98-4.09-47.91-101.48 7.28-205.86l6.28 3-6.15-3.25.21-.39c1.86-3.36 6.09-4.58 9.45-2.71 3.36 1.86 4.57 6.09 2.71 9.45l-.27.5c-51.35 97.12-9.73 187.49-7.07 193.05 1.35 2.62.93 5.91-1.26 8.1C570.43 786.79 568.65 787.47 566.87 787.47z"
                className="color38212a svgShape"
              ></path>
              <path
                fill="#38212a"
                d="M566.87 787.46c-1.63 0-3.27-.57-4.59-1.73-49.58-43.6-78.44-96.03-85.8-155.84-9.92-80.21 22.46-144.05 23.85-146.73 1.76-3.41 5.95-4.75 9.37-2.99 3.41 1.76 4.75 5.96 2.99 9.37-.45.89-31.76 63.02-22.4 138.64 6.93 56.33 34.24 105.82 81.18 147.1 2.88 2.54 3.16 6.93.63 9.81C570.72 786.66 568.79 787.46 566.87 787.46zM791.9 900.55c-.57 0-1.15-.07-1.72-.22C709.43 879.69 649.49 834.72 612 766.68c-27.88-50.6-42.99-113.04-44.91-185.57-1.99-75.44 11.12-133.4 11.67-135.83.86-3.74 4.59-6.08 8.33-5.22 3.74.86 6.08 4.59 5.22 8.33-.13.58-13.26 58.77-11.33 132.35 3.04 114.65 41.77 260.11 208.31 304.99 8.24-10.58 34.08-45.95 58.83-103.16 27.5-63.56 59.25-167.88 54.36-303.89-1.18-32.83-4.46-66.51-9.73-100.1-.6-3.79 2-7.35 5.79-7.95 3.79-.6 7.35 2 7.95 5.79 5.36 34.14 8.69 68.38 9.89 101.76 4.99 138.91-27.56 245.52-55.75 310.5-30.65 70.64-62.13 107.89-63.45 109.44C795.85 899.68 793.9 900.55 791.9 900.55z"
                className="color38212a svgShape"
              ></path>
              <path
                fill="#38212a"
                d="M959.24,758.95c-1.13,0-2.28-0.28-3.32-0.84c-2.65-1.44-4.07-4.43-3.51-7.39
					c26.24-139.42-47.12-267.55-47.86-268.83c-1.93-3.32-0.81-7.57,2.51-9.51c3.32-1.93,7.57-0.81,9.51,2.5
					c0.79,1.35,19.52,33.74,35.13,84.35c12.83,41.59,25.48,102.84,18.11,169.11c16.11-22.4,40.32-64.96,49.33-127.32
					c7.5-51.87,3.3-108.14-12.49-167.23c-0.99-3.71,1.21-7.52,4.92-8.51c3.71-0.99,7.52,1.21,8.51,4.92
					c16.28,60.93,20.59,119.07,12.82,172.81c-14.66,101.45-66.65,151.92-68.85,154.02C962.71,758.3,960.98,758.95,959.24,758.95z"
                className="color38212a svgShape"
              ></path>
              <path
                fill="#38212a"
                d="M1179.52 800.69c-1.06 0-2.14-.24-3.15-.76-78.73-40.09-144.28-169.37-156.62-194.88-1.25-2.57-1.89-3.98-1.89-3.98-1.59-3.49-.05-7.62 3.44-9.21 3.49-1.59 7.61-.06 9.21 3.44.02.05.61 1.34 1.75 3.67 12.01 24.83 75.66 150.51 150.42 188.57 3.42 1.74 4.78 5.93 3.04 9.35C1184.49 799.3 1182.05 800.69 1179.52 800.69zM1042.02 1185.79c-1.84 0-3.67-.72-5.04-2.16-2.65-2.78-2.54-7.18.24-9.83.57-.55 1.29-1.01 2.03-1.35v0c1.02-.46 25.45-11.49 58.83-33.05 72.81-47.03 194.95-148.91 194.95-302.82 0-3.84 3.11-6.95 6.95-6.95s6.95 3.11 6.95 6.95c0 160.49-126.13 265.93-201.31 314.5-33.13 21.4-57.94 32.82-60.5 33.97C1044.15 1185.55 1043.08 1185.79 1042.02 1185.79z"
                className="color38212a svgShape"
              ></path>
              <path
                fill="#38212a"
                d="M1042.1 1185.75c-2.18 0-4.32-1.02-5.68-2.93-2.22-3.13-1.48-7.47 1.65-9.69 3.87-2.75 95.3-70.48 132.41-347.68 1.44-10.76 2.59-21.58 3.42-32.16 10.7-136.47-29.79-247.97-65.65-317.48-38.95-75.5-81.01-119.21-81.43-119.64-2.67-2.75-2.61-7.15.14-9.83 2.75-2.68 7.15-2.61 9.83.14 1.76 1.81 43.68 45.31 83.58 122.5 36.8 71.2 78.37 185.45 67.39 325.4-.85 10.83-2.02 21.9-3.5 32.92-37.91 283.12-134.07 354.28-138.15 357.17C1044.9 1185.33 1043.49 1185.75 1042.1 1185.75zM305.76 1257.92c-1.76 0-3.52-.67-4.87-2.02l-.06-.06c-.15-.15-.3-.31-.44-.48-2.97-3.58-72.7-89.32-70.57-222.09 0-1.46.04-3.03.08-4.6.1-3.84 3.3-6.77 7.13-6.77 3.84.1 6.87 3.29 6.77 7.13-.04 1.45-.08 2.9-.08 4.34-2.04 127.2 63.91 208.91 67.33 213.05 2.32 2.73 2.21 6.86-.36 9.43C309.33 1257.24 307.54 1257.92 305.76 1257.92z"
                className="color38212a svgShape"
              ></path>
              <path
                fill="#38212a"
                d="M305.74,1257.88c-1.45,0-2.91-0.45-4.16-1.38c-71.9-53.72-122.19-121.37-149.45-201.06
					c-21.77-63.62-28.94-134.94-21.33-211.98c10.48-106.08,46.64-194.31,60.19-224.38C69,627.83,34.46,598.52,33.01,597.22
					c-2.21-1.96-2.93-5.1-1.81-7.83c1.12-2.73,3.83-4.46,6.79-4.31c114.6,5.87,155.16-41.37,228.8-127.11
					c44.52-51.83,99.92-116.34,189.73-191.18c108.45-90.38,201.34-109.36,260.17-109.36c0.01,0,0,0,0.01,0
					c55.51,0,91.49,16.05,101.35,21.05c141.02-40.07,262.64-3.01,361.49,110.16c34.81,39.87,67.31,89.87,96.61,148.59
					c14.57,29.2,28.63,61.1,41.79,94.81c55.59,142.36,116.03,219.1,156.95,258.41c44.16,42.42,75.61,51.47,75.92,51.56
					c2.91,0.81,4.98,3.4,5.11,6.42c0.12,3.02-1.71,5.78-4.55,6.81c-17.6,6.44-34.34,8.98-49.78,8.98
					c-39.01,0-69.76-16.21-85.52-26.65c-0.58,51.65-6.17,100.57-16.63,145.63c-23.39,100.61-67.54,165.99-100.47,203.11
					c-35.91,40.5-66.07,56.9-67.34,57.58c-2.84,1.52-6.35,0.89-8.49-1.52c-2.14-2.41-2.33-5.98-0.48-8.61
					c56.71-80.55,71.07-152.68,74.47-190.24c-70.09,113.42-184.83,151.86-191.12,153.88c-2.39,0.84-5.15,0.35-7.11-1.52
					c-2.78-2.65-2.9-7.04-0.25-9.82l0.02-0.02c0.82-0.86,1.85-1.5,2.99-1.85c1.3-0.4,130.89-41.91,197-171.76
					c1.41-2.77,4.48-4.27,7.53-3.67c3.05,0.59,5.33,3.14,5.59,6.23c0.33,3.87,6.63,88.33-57.49,195.58
					c10.1-8.48,22.09-19.71,34.75-34.05c31.68-35.87,74.2-99.08,96.84-196.48c11.15-48,16.64-100.55,16.31-156.21
					c-0.02-2.74,1.57-5.23,4.06-6.36c2.49-1.13,5.41-0.71,7.47,1.09c0.53,0.46,49.8,42.43,114.57,28.86
					c-14.38-7.44-36.06-21.23-61.93-45.89c-42.24-40.25-104.52-118.8-161.39-264.45c-13.01-33.33-26.9-64.84-41.28-93.66
					c-28.77-57.67-60.62-106.67-94.65-145.65c-95.61-109.47-213.32-144.85-349.85-105.17c-1.82,0.53-3.78,0.29-5.42-0.65
					c-0.35-0.2-36.75-20.63-97.12-20.63c-0.3,0-0.6,0-0.9,0c-56.34,0.19-145.5,18.76-250.35,106.14
					c-88.92,74.1-143.9,138.11-188.09,189.55c-66.31,77.21-109.09,126.98-204.65,132.01c24.01,6.03,64.48,10.91,129.07,5.22
					c2.51-0.22,4.95,0.94,6.37,3.03c1.42,2.09,1.58,4.79,0.44,7.04c-0.51,1.01-51.39,102.66-63.97,230.9
					c-16.78,171.01,38.84,305.63,165.31,400.12c3.08,2.3,3.71,6.65,1.41,9.73C309.95,1256.91,307.86,1257.88,305.74,1257.88z"
                className="color38212a svgShape"
              ></path>
              <path
                fill="#38212a"
                d="M783.38,1293.93c-69.59,0-127.2-2.03-176.12-6.2c-108.45-9.25-180.91-29.35-228.02-63.26
					c-25.87-18.63-40.3-39.05-42.9-60.68c-2.93-24.41,10.17-42.73,15.94-49.48c1.41-1.66,2.37-2.6,2.48-2.71
					c2.75-2.68,7.15-2.62,9.83,0.13c2.67,2.74,2.62,7.13-0.11,9.81l0,0c-0.1,0.1-0.71,0.71-1.62,1.79
					c-4.59,5.36-14.99,19.85-12.71,38.8c2.12,17.62,14.64,34.79,37.22,51.06c44.99,32.38,115.24,51.67,221.08,60.69
					c48.52,4.14,105.74,6.15,174.94,6.15c58.4,0,110.71-3.72,155.49-11.05c89.25-14.59,144.01-42.45,158.34-80.57
					c4.64-12.27,4.97-25.84,0.99-40.35c-1.02-3.7,1.16-7.53,4.87-8.54c3.7-1.02,7.53,1.16,8.54,4.87c4.77,17.4,4.3,33.86-1.39,48.93
					c-16.18,43.03-74.66,73.94-169.11,89.39C895.6,1290.15,842.53,1293.93,783.38,1293.93z"
                className="color38212a svgShape"
              ></path>
              <path
                fill="#38212a"
                d="M759.85,1364.31c-59.05,0-103.35-12.83-131.84-38.21c-23.71-21.12-26.94-43.24-27.07-44.17
					c-0.52-3.81,2.15-7.31,5.96-7.82c3.8-0.52,7.31,2.15,7.82,5.96c0.02,0.14,2.99,18.68,23.4,36.41
					c19.25,16.73,58.29,36.15,134.96,33.72c128.35-4.08,154.38-56.1,159.29-71.95c0.61-1.95,0.8-3.07,0.8-3.09
					c0.61-3.77,4.15-6.37,7.92-5.79c3.77,0.58,6.38,4.07,5.83,7.84c-0.05,0.35-0.35,2.21-1.28,5.18
					c-5.6,18.04-34.59,77.33-172.12,81.7C768.89,1364.24,764.32,1364.31,759.85,1364.31z"
                className="color38212a svgShape"
              ></path>
              <path
                fill="#38212a"
                d="M404.23,1403.33c-1.41,0-2.83-0.43-4.06-1.31c-3.11-2.24-3.82-6.59-1.57-9.71
					c0.56-0.78,1.14-1.56,1.73-2.31c57.12-75.62,199.69-114.12,205.73-115.72c3.71-0.98,7.52,1.23,8.5,4.94
					c0.98,3.71-1.23,7.52-4.94,8.5c-1.43,0.38-143.98,38.89-198.24,110.72c-0.54,0.69-1.03,1.35-1.5,2
					C408.52,1402.33,406.39,1403.33,404.23,1403.33z"
                className="color38212a svgShape"
              ></path>
              <path
                fill="#38212a"
                d="M518.09,1667.55c-9.92,0-20.77-1.66-32.29-4.93c-50.07-14.22-106.49-56.58-137.19-103.01
					c-23.83-36.02-30.14-70.48-18.24-99.65c12.95-31.75,37.36-55.98,72.56-72.04c48.99-22.32,101.13-20.66,103.32-20.57
					c3.84,0.14,6.83,3.37,6.69,7.21s-3.38,6.77-7.21,6.69c-0.74-0.03-51.23-1.54-97.04,19.32c-31.87,14.53-53.89,36.28-65.46,64.63
					c-12.74,31.23,2.19,64.4,16.96,86.73c29.03,43.9,82.24,83.92,129.39,97.31c10.28,2.92,19.86,4.4,28.47,4.4
					c8.85-0.02,16.53-1.63,22.83-4.79c63.39-31.69,52.73-124.42,52.61-125.35c-0.47-3.81,2.23-7.28,6.04-7.75
					c3.82-0.48,7.28,2.23,7.76,6.04c0.52,4.2,12.04,103.39-60.19,139.5C538.9,1665.42,529.13,1667.53,518.09,1667.55z"
                className="color38212a svgShape"
              ></path>
              <path
                fill="#38212a"
                d="M129.23,1919.25c-9.25,0-16.26-3.51-21.07-7.18c-3.35-2.55-5.43-6.3-5.83-10.53
					c-0.42-4.35,1.03-8.73,3.97-12.02c9.25-10.33,14.45-24.73,17.11-34.52c-6.88,1.85-16.2,4.19-25.94,6.16
					c-37.14,7.5-46.91,2.74-51.27-2.25c-4.97-5.68-7.14-11.62-6.44-17.64c0.97-8.38,7.21-13.44,9.1-14.79
					c0.54-0.39,1.14-0.7,1.76-0.91c2.51-0.9,5.42-0.3,7.38,1.75c2.65,2.78,2.54,7.18-0.24,9.83c-0.31,0.3-0.65,0.56-1.01,0.8
					c-0.69,0.55-2.89,2.5-3.17,4.93c-0.23,1.96,0.81,4.28,3.1,6.89c5.14,4.4,39.75-0.85,74.01-11.27c2.28-0.69,4.75-0.17,6.56,1.38
					c1.81,1.55,2.69,3.92,2.35,6.28c-0.19,1.32-4.92,32.54-22.91,52.64c-0.52,0.58-0.52,1.19-0.5,1.43c0.05,0.52,0.32,0.72,0.42,0.8
					c14.54,11.08,36.61,0.55,62.15-29.69c42.54-50.35,45.12-69.22,45.13-69.39c0.11-2.8,1.9-5.26,4.52-6.23
					c1.64-0.61,164.64-61.82,254.51-144.51c2.83-2.61,7.22-2.42,9.82,0.41c2.6,2.83,2.42,7.22-0.41,9.82
					c-85.51,78.67-230.31,136.29-255.51,145.96c-2.59,9.07-12.15,31.15-47.44,72.92C163.77,1910.59,143.75,1919.25,129.23,1919.25z"
                className="color38212a svgShape"
              ></path>
              <path
                fill="#38212a"
                d="M40.89,1841c-9.31,0-19.37-3.09-24.73-13.32c-5.31-10.09-1.41-20.58,4.56-28.71
					c-5.32-2.01-10.34-5.79-13.21-12.37c-1.98-4.52-2.04-9.32-0.18-13.86c3.07-7.5,10.88-12.85,16.26-15.79
					c-0.31-4.51,0.92-8.85,3.67-12.77c9.36-13.34,37.22-21.86,85.16-26.06c27.02-2.37,52.77-2.58,62.39-2.58
					c56.04-87.97,156.2-153.33,175.93-165.67c1.39-0.86,2.12-1.3,2.12-1.3c3.29-1.97,7.56-0.9,9.54,2.39
					c1.97,3.29,0.91,7.56-2.38,9.54c-0.03,0.02-0.69,0.42-1.91,1.18c-11.94,7.47-118.42,75.64-173.55,164.5
					c-1.27,2.05-3.51,3.29-5.91,3.29c-0.03,0-0.07,0-0.1,0c-47.44-0.7-127.39,4.89-139.9,22.7c-1.37,1.95-1.55,3.75-0.62,6.21
					c1.33,3.54-0.4,7.49-3.91,8.9c-3.73,1.52-12.06,6.15-13.92,10.73c-0.43,1.07-0.42,1.94,0.05,3.02
					c3.15,7.21,13.71,5.93,14.16,5.87c3.12-0.4,6.13,1.32,7.34,4.22c1.21,2.89,0.35,6.24-2.13,8.16
					c-4.16,3.26-15.15,14.31-11.15,21.92c5.16,9.83,21.57,4.55,22.26,4.32c3.65-1.21,7.58,0.78,8.78,4.43
					c1.2,3.65-0.78,7.58-4.43,8.78C51.27,1839.99,46.2,1841,40.89,1841z"
                className="color38212a svgShape"
              ></path>
              <path
                fill="#38212a"
                d="M31.54 1767.78c-2.66 0-5.2-1.53-6.36-4.1-1.57-3.49-.03-7.58 3.45-9.17.74-.34 18.61-8.27 57.16-9.06 3.89-.11 7.02 2.97 7.09 6.81.08 3.84-2.97 7.01-6.81 7.09-35.28.73-51.57 7.76-51.73 7.84C33.44 1767.59 32.48 1767.78 31.54 1767.78zM35.34 1800.75c-2.85 0-5.53-1.77-6.55-4.61-1.29-3.62.59-7.59 4.21-8.89.92-.33 22.89-8.05 55.83-8.85 3.87-.13 7.03 2.94 7.12 6.78.09 3.84-2.94 7.02-6.78 7.12-30.73.74-51.28 7.97-51.48 8.04C36.91 1800.62 36.12 1800.75 35.34 1800.75zM52.98 1839.06c-2.34 0-4.63-1.18-5.94-3.32-2-3.27-1-7.53 2.26-9.54.7-.43 17.6-10.7 53.69-17.77 3.75-.75 7.42 1.72 8.16 5.48.74 3.77-1.72 7.42-5.49 8.16-33.29 6.53-48.92 15.88-49.07 15.97C55.47 1838.73 54.22 1839.06 52.98 1839.06zM1146.69 1403.33c-2.16 0-4.28-1-5.64-2.88-.47-.66-.97-1.31-1.46-1.95-54.31-71.89-196.85-110.4-198.29-110.78-3.71-.98-5.92-4.79-4.94-8.5.99-3.71 4.8-5.92 8.5-4.94 6.04 1.6 148.61 40.1 205.77 115.78.54.69 1.12 1.47 1.68 2.25 2.25 3.11 1.55 7.46-1.57 9.71C1149.53 1402.9 1148.1 1403.33 1146.69 1403.33z"
                className="color38212a svgShape"
              ></path>
              <path
                fill="#38212a"
                d="M1033.01,1667.52c-11.08,0-20.93-2.08-29.22-6.22c-72.22-36.11-60.71-135.3-60.19-139.5
					c0.48-3.81,3.94-6.52,7.76-6.04c3.81,0.48,6.51,3.95,6.04,7.76c-0.11,0.93-10.77,93.65,52.61,125.34
					c12.48,6.24,30.22,6.37,51.31,0.39c47.15-13.39,100.36-53.4,129.39-97.31c14.77-22.33,29.7-55.5,16.96-86.72
					c-11.56-28.36-33.59-50.1-65.46-64.64c-46.02-20.96-96.53-19.35-97.04-19.32c-3.81,0.17-7.06-2.85-7.21-6.69
					c-0.14-3.84,2.85-7.07,6.69-7.21c2.2-0.08,54.33-1.75,103.32,20.57c35.21,16.05,59.62,40.29,72.57,72.04
					c11.9,29.16,5.59,63.62-18.24,99.65c-30.7,46.43-87.12,88.79-137.19,103.01C1053.61,1665.88,1042.83,1667.52,1033.01,1667.52z"
                className="color38212a svgShape"
              ></path>
              <path
                fill="#38212a"
                d="M1421.7,1919.24c-14.52,0-34.54-8.65-60.14-38.94c-7.1-8.42-13.48-16.37-18.94-23.66
					c-20.15-26.87-26.53-42.07-28.55-49.28c-25.31-9.72-170-67.31-255.46-145.94c-2.83-2.6-3.01-7-0.41-9.82
					c2.6-2.83,7-3.01,9.82-0.41c89.87,82.69,252.87,143.9,254.51,144.51c2.75,1.02,4.56,3.19,4.53,6.11
					c0.23,1.42,2.99,14.9,26.68,46.5c5.31,7.07,11.51,14.82,18.44,23.03c25.55,30.22,47.62,40.77,62.14,29.69
					c0.11-0.08,0.38-0.29,0.43-0.8c0.02-0.24,0.02-0.85-0.5-1.43c-17.99-20.1-22.72-51.32-22.91-52.63
					c-0.34-2.36,0.54-4.72,2.35-6.28c1.8-1.55,4.28-2.07,6.56-1.38c34.26,10.42,68.87,15.67,74.06,11.22
					c2.23-2.55,3.27-4.87,3.04-6.84c-0.28-2.43-2.48-4.37-3.17-4.93c-0.36-0.23-0.7-0.5-1.01-0.8c-2.78-2.65-2.89-7.05-0.24-9.83
					c1.96-2.05,4.87-2.65,7.39-1.75c0.62,0.22,1.21,0.52,1.76,0.91c1.89,1.35,8.13,6.42,9.1,14.79c0.7,6.02-1.47,11.96-6.44,17.65
					c-4.36,4.99-14.12,9.74-51.27,2.24c-9.74-1.97-19.05-4.31-25.93-6.16c2.68,9.81,7.88,24.23,17.09,34.51
					c2.95,3.3,4.39,7.68,3.98,12.03c-0.41,4.23-2.48,7.98-5.84,10.53C1437.96,1915.74,1430.94,1919.24,1421.7,1919.24z"
                className="color38212a svgShape"
              ></path>
              <path
                fill="#38212a"
                d="M1510.03,1841c-5.31,0-10.38-1.01-14.19-2.26c-3.65-1.2-5.63-5.13-4.43-8.78c1.2-3.65,5.13-5.63,8.78-4.43
					c0.7,0.23,17.11,5.5,22.26-4.31c4.75-9.01-10.98-21.81-11.14-21.93c-2.49-1.94-3.36-5.3-2.13-8.21c1.23-2.9,4.27-4.6,7.38-4.17
					c0.41,0.05,10.97,1.34,14.12-5.87c0.47-1.08,0.49-1.95,0.05-3.02c-1.86-4.58-10.19-9.21-13.93-10.74
					c-3.49-1.42-5.23-5.37-3.9-8.9c0.93-2.46,0.75-4.26-0.62-6.21c-12.5-17.81-92.45-23.4-139.9-22.7c-0.03,0-0.07,0-0.1,0
					c-2.4,0-4.64-1.24-5.91-3.29c-55.13-88.87-161.6-157.03-173.56-164.51c-1.21-0.75-1.87-1.15-1.9-1.17
					c-3.29-1.97-4.36-6.24-2.38-9.54c1.97-3.29,6.25-4.36,9.54-2.39c0,0,0.73,0.44,2.1,1.29c19.74,12.35,119.9,77.7,175.94,165.68
					c9.61-0.01,35.37,0.21,62.39,2.58c47.94,4.2,75.8,12.73,85.16,26.06c2.75,3.92,3.99,8.25,3.67,12.77
					c5.38,2.94,13.19,8.29,16.26,15.79c1.86,4.55,1.8,9.34-0.18,13.86c-2.87,6.57-7.9,10.35-13.21,12.37
					c5.96,8.12,9.87,18.62,4.55,28.71C1529.39,1837.91,1519.34,1841,1510.03,1841z"
                className="color38212a svgShape"
              ></path>
              <path
                fill="#38212a"
                d="M1519.41 1767.79c-.95 0-1.92-.2-2.85-.61-.36-.16-16.66-7.11-51.72-7.83-3.84-.08-6.89-3.26-6.81-7.09.08-3.84 3.16-6.92 7.09-6.81 38.55.79 56.42 8.73 57.16 9.06 3.5 1.59 5.04 5.71 3.45 9.21C1524.57 1766.28 1522.05 1767.79 1519.41 1767.79zM1515.58 1800.75c-.78 0-1.56-.13-2.33-.41-.3-.1-21.01-7.31-51.49-8.04-3.84-.09-6.88-3.28-6.78-7.12.09-3.84 3.25-6.93 7.12-6.78 32.94.79 54.91 8.52 55.83 8.85 3.62 1.29 5.5 5.27 4.21 8.89C1521.11 1798.97 1518.43 1800.75 1515.58 1800.75zM1497.95 1839.07c-1.24 0-2.49-.33-3.63-1.03-.22-.13-15.86-9.46-49.07-15.97-3.77-.74-6.22-4.39-5.49-8.16.74-3.77 4.4-6.22 8.16-5.48 36.09 7.07 52.99 17.34 53.69 17.77 3.27 2.02 4.28 6.3 2.26 9.57C1502.56 1837.9 1500.28 1839.07 1497.95 1839.07zM632.02 2122.68c-17.8 0-33.99-3.23-47.65-7.53-32.23-10.13-55.73-27.45-64.39-34.47-80.55 37.54-141.22 15.51-178.16-9.89-40.38-27.77-61.03-64.51-61.88-66.06-.75-1.35-1.02-2.9-.79-4.43 22.94-149.16 212.7-325.26 234.26-344.85.65-.61 1.04-.95 1.04-.95 2.88-2.54 7.27-2.27 9.81.61 2.54 2.87 2.28 7.26-.59 9.8l0 0c-.04.03-.32.29-.84.77-8.48 7.71-205.17 187.82-229.55 334.31 4.8 7.85 24.15 37.3 56.83 59.63 50.11 34.25 106.6 36.47 167.89 6.61 2.55-1.24 5.61-.81 7.71 1.1.25.22 25.83 23.04 63.29 34.7 49.46 15.39 95.49 5.01 136.82-30.87 2.46-2.13 6.07-2.28 8.69-.34.28.21 29.58 21.38 71.8 25.91 56.27 6.02 108-18.91 153.74-74.12 1.96-2.37 5.26-3.17 8.09-1.95.29.12 30.54 12.76 70.26 10.27 52.84-3.31 96.77-30.51 130.59-80.84 1.66-2.47 4.7-3.61 7.58-2.84.31.08 32.12 8.35 68.22.39 47.68-10.52 80.23-43.22 96.75-97.2.03-.09.06-.18.09-.27.1-.29.18-.57.27-.86l13.33 3.97c-.14.46-.27.91-.43 1.35-22.63 73.82-70.97 98.77-107.55 106.7-31.08 6.74-58.57 2.65-69.41.45-44.99 64.38-100.32 80.76-139.18 83.06-33.66 1.99-60.48-5.82-71.1-9.55-60.14 70.33-121.87 79.81-163.38 75.19-36.13-4.02-62.97-18.84-73.3-25.37C696.31 2113.56 661.9 2122.68 632.02 2122.68z"
                className="color38212a svgShape"
              ></path>
              <path
                fill="#38212a"
                d="M692.09,2233.78c-91.28,0-162.6-32.91-186.1-45.25c-1.64-0.86-2.97-1.58-3.97-2.13
					c-20.02,3.46-38.88,5-56.55,5c-73.37,0-126.61-26.48-160.63-51.62c-46.13-34.1-67.26-72.25-68.14-73.86
					c-1.35-2.48-1.07-5.52,0.71-7.72c25.87-31.81,62.74-61.07,64.29-62.3c3.02-2.37,7.39-1.86,9.76,1.15
					c2.38,3.01,1.87,7.39-1.15,9.77c-0.35,0.28-34.29,27.21-59.02,56.42c6.58,10.45,26.85,39.66,62.29,65.72
					c58.59,43.09,128.72,57.66,208.43,43.31c1.63-0.29,3.32,0.01,4.75,0.84c0.02,0.01,2.01,1.18,5.68,3.1
					c28.89,15.17,132.72,62.58,255.72,35.44c30.58-6.75,60.38-17.79,88.55-32.82c14.76-7.86,29.36-16.97,43.39-27.08
					c1.56-1.12,3.52-1.55,5.4-1.18c1.18,0.23,118.66,22.56,213.05-19.45c44.86-19.93,77.59-51.29,97.29-93.21
					c1.2-2.56,3.83-4.12,6.66-3.98c0.45,0.03,45.58,2.2,93.86-12.9c63.61-19.89,102.43-58.93,115.38-116.02
					c0.85-3.74,4.58-6.1,8.32-5.24c3.75,0.85,6.09,4.57,5.24,8.32c-13.96,61.52-57.24,105.21-125.18,126.34
					c-41.93,13.04-80.56,13.74-93.69,13.53c-21.34,42.96-55.71,75.2-102.23,95.87c-91.07,40.53-198.76,24.38-218.4,20.94
					c-13.79,9.79-28.1,18.64-42.56,26.34c-29.29,15.62-60.27,27.1-92.09,34.13C743.69,2231.3,717.13,2233.78,692.09,2233.78z"
                className="color38212a svgShape"
              ></path>
              <path
                fill="#38212a"
                d="M513.53 2565.47c-3.03 0-5.81-1.99-6.68-5.05-21.41-74.96-18.17-211.16-6.41-275.8.78-4.34 1.46-8.52 2.03-12.41 6.77-46.76 1.66-79.58-.07-88.53-.24-1.26-.41-1.96-.43-2.04-.9-3.72 1.39-7.47 5.11-8.38 3.73-.9 7.48 1.37 8.4 5.09 0 0 .23.93.57 2.7 1.83 9.48 7.25 44.23.17 93.15-.59 4.04-1.29 8.38-2.1 12.89-11.52 63.33-14.76 196.48 6.1 269.51 1.06 3.69-1.08 7.54-4.78 8.59C514.8 2565.38 514.16 2565.47 513.53 2565.47zM702.02 2564.51c-3.62 0-6.67-2.8-6.93-6.46-3.17-44.53 11.11-111.67 43.65-205.24 3.71-10.67 7-20.86 9.77-30.31 21.48-72.53 14.71-101.07 14.63-101.34-1.03-3.7 1.14-7.53 4.84-8.56 3.7-1.02 7.53 1.14 8.56 4.83.35 1.25 8.26 31.52-14.69 109-2.83 9.64-6.19 20.06-9.97 30.94-31.92 91.75-45.95 157.07-42.92 199.68.27 3.83-2.61 7.16-6.44 7.43C702.35 2564.51 702.19 2564.51 702.02 2564.51z"
                className="color38212a svgShape"
              ></path>
              <path
                fill="#38212a"
                d="M643.17,2852.17c-11.09,0-20.65-0.3-27.64-0.62c-44.05-2.01-96.74-9.53-115.14-21.8
					c-8.27-5.51-14.09-17.46-17.78-36.53c-12.25-63.2,2.82-205.93,25.2-238.63c15.12-22.1,61.83-26.79,81.21-27.78
					c43.56-2.23,98.74,5.21,116.98,26.78h0c1.85,2.19,3.32,4.55,4.37,7.02c12.56,29.81,10.07,61.5,8.21,74.76
					c9.19,3.2,26.74,11.08,42.66,28.18c20.39,21.9,41.87,63.71,28.44,138.57c-2.51,14.01-13.63,25.31-33.05,33.58
					C724.52,2849.37,676.84,2852.17,643.17,2852.17z M604.1,2540.33c-4.77,0-9.57,0.12-14.38,0.36
					c-35.52,1.81-62.51,10.14-70.45,21.74c-18.97,27.73-35.42,164.19-23.02,228.14c3.82,19.7,9.06,25.75,11.84,27.61
					c27.26,18.16,179.12,31.97,243.07,4.72c14.84-6.32,23.19-14.14,24.82-23.25c9.76-54.41,1.31-98.02-24.43-126.1
					c-19.4-21.17-42.13-26.46-42.36-26.51c-3.72-0.83-6.1-4.52-5.3-8.25c0.08-0.38,7.98-38.78-6.34-72.78
					c-0.49-1.16-1.23-2.33-2.18-3.45l0,0C684.25,2549.42,645.74,2540.33,604.1,2540.33z"
                className="color38212a svgShape"
              ></path>
              <path
                fill="#38212a"
                d="M607.09,2641.21c-6.46,0-12.75-2.26-17.71-6.36c-6.42-5.29-10.11-13.11-10.11-21.45
					c0-8.34,3.69-16.16,10.12-21.46c4.94-4.09,11.23-6.36,17.69-6.36c5.76,0,11.3,1.76,16,5.08c7.38,5.19,11.79,13.69,11.79,22.73
					c0,9.25-4.57,17.86-12.24,23.04C618.06,2639.56,612.68,2641.21,607.09,2641.21z M607.09,2599.49c-3.23,0-6.37,1.12-8.83,3.17
					c-3.23,2.66-5.07,6.57-5.07,10.74c0,4.17,1.84,8.08,5.06,10.73c4.62,3.83,11.66,4.16,16.6,0.81c3.84-2.6,6.13-6.91,6.13-11.53
					c0-4.52-2.2-8.77-5.89-11.36c-0.01,0-0.01-0.01-0.02-0.01C612.73,2600.37,609.97,2599.49,607.09,2599.49z"
                className="color38212a svgShape"
              ></path>
              <path
                fill="#38212a"
                d="M664.28 2656.48c-20.7 0-45.4-17.69-48.45-19.95-3.09-2.28-3.75-6.63-1.48-9.72 2.28-3.09 6.63-3.75 9.72-1.48 10.97 8.06 32.69 19.74 44.28 16.78 3.48-.89 6.64-5.23 8.66-11.92 4.57-15.08 1.9-36.4-5.6-44.73-7.1-7.9-32.92 5.12-48.14 16.41-3.08 2.29-7.44 1.64-9.73-1.44-2.29-3.08-1.65-7.43 1.43-9.72 7.99-5.94 48.76-34.54 66.76-14.55 12.09 13.43 13.86 40.59 8.57 58.06-3.52 11.63-10.1 19.21-18.53 21.36C669.38 2656.21 666.86 2656.48 664.28 2656.48zM547.74 2656.48c-2.58 0-5.1-.28-7.51-.89-8.44-2.15-15.02-9.75-18.55-21.39-5.28-17.47-3.5-44.62 8.58-58.04 17.98-20 58.77 8.61 66.76 14.55 3.08 2.29 3.72 6.64 1.44 9.72-2.29 3.08-6.64 3.73-9.73 1.44-15.22-11.28-41.04-24.3-48.13-16.41-7.5 8.32-10.17 29.63-5.61 44.71 2.03 6.7 5.19 11.06 8.67 11.94 13.03 3.32 36.93-11.37 44.28-16.78 3.09-2.28 7.44-1.62 9.72 1.48 2.28 3.09 1.62 7.44-1.48 9.72C593.14 2638.79 568.44 2656.48 547.74 2656.48zM753 2330.76c-1.43 0-2.88-.44-4.13-1.36-110.33-81.5-217.24-55.56-237.55-49.52-1.35.4-2.08.65-2.15.67-3.63 1.23-7.57-.71-8.81-4.35-1.24-3.63.7-7.58 4.33-8.82 0 0 .9-.31 2.64-.83 21.44-6.36 134.16-33.76 249.79 51.66 3.09 2.28 3.74 6.63 1.46 9.72C757.23 2329.79 755.13 2330.76 753 2330.76zM1116.63 2565.47c-.63 0-1.28-.09-1.91-.27-3.69-1.06-5.83-4.9-4.78-8.59 20.86-73.01 17.6-206.16 6.08-269.49-.74-4.08-1.43-8.44-2.04-12.95-8.08-60.15-.06-132.57.48-137.34.04-.5.08-.74.08-.74.6-3.77 4.13-6.41 7.9-5.85 3.73.56 6.33 3.91 5.89 7.63-.01.11-.02.31-.04.41-.35 3.03-8.49 74.83-.53 134.03.58 4.3 1.23 8.44 1.94 12.31 11.76 64.67 15.02 200.87-6.39 275.8C1122.44 2563.48 1119.66 2565.47 1116.63 2565.47zM928.12 2564.51c-.17 0-.33-.01-.5-.02-3.83-.28-6.71-3.6-6.44-7.43 3.06-42.59-10.97-107.9-42.9-199.68-3.6-10.36-6.87-20.87-9.71-31.21-20.15-73.11-16.95-127.08-15.49-141.88.2-2.06.35-3.14.35-3.14.55-3.8 4.08-6.43 7.88-5.89 3.79.55 6.43 4.06 5.89 7.85l0 0c-.01.09-.13.95-.28 2.52-1 10.13-4.96 64.22 15.06 136.84 2.76 10.06 5.94 20.26 9.44 30.33 32.56 93.6 46.83 160.73 43.63 205.24C934.78 2561.72 931.73 2564.51 928.12 2564.51z"
                className="color38212a svgShape"
              ></path>
              <path
                fill="#38212a"
                d="M986.99,2852.17c-33.67,0-81.34-2.8-113.44-16.47c-19.43-8.28-30.56-19.58-33.07-33.59
					c-13.42-74.86,8.07-116.68,28.46-138.57c15.92-17.1,33.47-24.97,42.66-28.18c-1.87-13.26-4.35-44.94,8.18-74.74
					c1.05-2.48,2.52-4.84,4.38-7.04h0c18.24-21.57,73.44-29,116.99-26.78c19.38,0.99,66.1,5.67,81.22,27.78
					c22.38,32.73,37.45,175.49,25.19,238.67c-3.7,19.05-9.51,30.98-17.77,36.49c-18.4,12.26-71.09,19.78-115.14,21.8
					C1007.65,2851.87,998.08,2852.17,986.99,2852.17z M934.77,2562.56L934.77,2562.56c-0.95,1.13-1.69,2.29-2.19,3.47
					c-14.3,33.99-6.4,72.39-6.32,72.77c0.79,3.74-1.58,7.43-5.32,8.24c-0.21,0.05-22.94,5.34-42.34,26.51
					c-25.74,28.08-34.2,71.69-24.45,126.1c1.63,9.1,9.99,16.93,24.84,23.25c63.96,27.24,215.81,13.43,243.07-4.73
					c2.78-1.85,8.02-7.9,11.83-27.57c12.4-63.92-4.04-200.42-23.02-228.17c-7.93-11.6-34.93-19.93-70.45-21.74
					C993.57,2538.29,947.17,2547.91,934.77,2562.56z"
                className="color38212a svgShape"
              ></path>
              <path
                fill="#38212a"
                d="M1023.07,2641.21c-6.03,0-11.79-1.91-16.65-5.53c-7-5.24-11.16-13.57-11.16-22.28
					c0-9.06,4.42-17.57,11.82-22.76c4.71-3.31,10.24-5.06,15.99-5.06c6.03,0,11.79,1.91,16.65,5.53c7,5.24,11.16,13.56,11.16,22.28
					c0,9.25-4.57,17.86-12.24,23.04C1034.05,2639.56,1028.66,2641.21,1023.07,2641.21z M1023.07,2599.49c-2.88,0-5.64,0.87-8,2.53
					c0,0,0,0-0.01,0c-3.69,2.58-5.9,6.83-5.9,11.37c0,4.36,2.09,8.53,5.58,11.14c4.67,3.48,11.34,3.62,16.1,0.39
					c3.84-2.6,6.13-6.91,6.13-11.53c0-4.36-2.08-8.52-5.58-11.14C1028.97,2600.45,1026.08,2599.49,1023.07,2599.49z
					 M1011.07,2596.33h0.02H1011.07z"
                className="color38212a svgShape"
              ></path>
              <path
                fill="#38212a"
                d="M965.88 2656.48c-2.58 0-5.1-.28-7.51-.89-8.44-2.15-15.02-9.75-18.55-21.39-5.28-17.47-3.5-44.62 8.58-58.04 17.98-20 58.77 8.61 66.76 14.55 3.08 2.29 3.72 6.64 1.44 9.72-2.29 3.08-6.64 3.73-9.73 1.44-15.22-11.28-41.04-24.3-48.14-16.41-7.5 8.32-10.17 29.63-5.61 44.71 2.03 6.7 5.19 11.06 8.67 11.94 13.02 3.32 36.93-11.37 44.28-16.78 3.09-2.28 7.44-1.62 9.72 1.48 2.28 3.09 1.62 7.44-1.48 9.72C1011.28 2638.79 986.58 2656.48 965.88 2656.48zM1082.4 2656.48c-20.7 0-45.39-17.69-48.45-19.95-3.09-2.28-3.75-6.63-1.48-9.72s6.63-3.75 9.72-1.48c10.97 8.06 32.69 19.74 44.28 16.78 3.49-.89 6.65-5.24 8.68-11.93 4.57-15.08 1.9-36.39-5.59-44.72-6.81-7.58-32.35 4.66-48.16 16.4-3.08 2.29-7.44 1.65-9.73-1.44-2.29-3.08-1.65-7.44 1.44-9.73 7.99-5.94 48.78-34.54 66.78-14.55 12.09 13.43 13.85 40.59 8.56 58.05-3.52 11.63-10.11 19.22-18.55 21.37C1087.49 2656.21 1084.98 2656.48 1082.4 2656.48zM877.16 2330.76c-2.13 0-4.23-.98-5.6-2.82-2.28-3.09-1.63-7.44 1.46-9.72 115.76-85.52 228.43-58.02 249.84-51.65 1.74.51 2.65.83 2.65.83 3.62 1.27 5.53 5.24 4.26 8.86-1.27 3.62-5.21 5.53-8.83 4.27l0 0c-.08-.03-.77-.26-2.03-.63-8.6-2.56-39.92-10.7-83.18-8.02-55.47 3.43-107.43 22.78-154.44 57.52C880.05 2330.32 878.6 2330.76 877.16 2330.76zM1289.12 448.84c-6.88 0-13.72-.55-20.32-1.64-.98-.16-1.83-.31-2.67-.47-3.77-.72-6.25-4.36-5.53-8.13.72-3.77 4.36-6.25 8.13-5.53.74.14 1.49.27 2.23.39 12.22 2.02 25.04 1.96 37.53-.19 48.17-8.41 85.81-48.22 91.54-96.8.52-4.33.79-8.78.79-13.23 0-36.63-18-70.97-48.16-91.86-18.7-12.98-40.67-19.84-63.54-19.84-39.93 0-77.1 21.56-96.99 56.26-4.91 8.58-8.64 17.72-11.1 27.18-.01.06-.03.11-.04.16-.85 3.62-4.43 5.94-8.11 5.23-3.77-.74-6.22-4.39-5.49-8.16.03-.15.1-.42.14-.6.01-.04.02-.09.03-.13 2.77-10.65 6.97-20.94 12.49-30.59 22.36-39.02 64.15-63.25 109.05-63.25 25.71 0 50.43 7.72 71.47 22.32 33.9 23.49 54.14 62.1 54.14 103.29 0 5.01-.3 10.01-.88 14.88-6.43 54.63-48.77 99.4-102.96 108.86C1303.67 448.21 1296.36 448.84 1289.12 448.84z"
                className="color38212a svgShape"
              ></path>
              <path
                fill="#38212a"
                d="M1547.81,371.7c-23.89,0-49.86-2.28-72.68-6.3c-28.09-4.93-52.45-12.48-70.44-21.83
					c-3.41-1.77-4.73-5.97-2.96-9.38c1.77-3.41,5.97-4.74,9.38-2.96c16.74,8.71,39.71,15.79,66.43,20.48
					c59.97,10.56,120.13,6.36,133.84-4.47c2.58-2.04,6.55-13.39,5.07-43.02c-3.07-62.72-27.31-158.25-43.22-170.36
					c-11.18-8.52-27.56-8.17-86.07,17.41c-59.59,26.08-125.23,78.82-125.89,79.35c-2.06,1.67-4.89,2.01-7.3,0.9
					c-2.4-1.12-3.96-3.5-4.02-6.15c-1.05-46.74-9.36-173.63-34.93-199.19c-10.7-10.7-47.43-7.88-93.58,7.16
					c-58.57,19.1-112.39,51.48-115.17,69.31c-4.48,28.68,51.56,112.51,85.38,157.52l1.25,1.64c2.32,3.06,1.72,7.42-1.33,9.74
					c-3.06,2.32-7.42,1.72-9.74-1.33l-1.26-1.65c-22.22-29.58-94.14-128.97-88.03-168.07c4.8-30.73,77.15-64.91,124.6-80.38
					c25.28-8.24,86.39-25.11,107.72-3.78c29.62,29.61,36.91,151.61,38.57,194.97c21.43-16.32,70.88-52.09,118.17-72.79
					c58.78-25.7,82.17-29.37,100.07-15.73c22.83,17.39,45.79,121.8,48.68,180.74c2,40.07-4.94,50.37-10.35,54.63
					C1608,367.62,1579.76,371.7,1547.81,371.7z"
                className="color38212a svgShape"
              ></path>
              <path
                fill="#38212a"
                d="M1481.52,661.87c-13.22,0-38.46-13.01-100.68-100.27c-37.07-51.99-70.74-107.32-77.12-117.89l-1.22-2.02
					c-1.97-3.29-0.91-7.56,2.39-9.54c3.3-1.97,7.57-0.9,9.54,2.39l1.2,1.98c6.34,10.5,39.77,65.44,76.54,117.01
					c64.14,89.96,85.21,95.01,90.11,94.39c21.9-2.66,69.09-41.67,103.06-85.19c21.01-26.92,32.64-50.31,31.1-62.56
					c-3.14-25.2-76.91-88.13-144.13-135.94c-0.6-0.41-0.95-0.67-0.95-0.67c-3.09-2.28-3.76-6.63-1.49-9.72
					c2.27-3.09,6.61-3.77,9.71-1.5c0.03,0.02,0.28,0.2,0.71,0.5c6.83,4.86,42.23,30.26,76.69,59.36
					c47.02,39.7,70.99,67.91,73.27,86.25c2.62,20.91-17.01,51.16-33.94,72.84c-32.55,41.71-83.48,86.94-112.35,90.44
					C1483.19,661.82,1482.38,661.87,1481.52,661.87z"
                className="color38212a svgShape"
              ></path>
              <path
                fill="#38212a"
                d="M1695.1,1223.07c-33.48,0-63.58-11.59-82.33-32.59c-1.98-2.22-2.33-5.45-0.87-8.04
					c1.46-2.59,4.41-3.97,7.32-3.43c0.18,0.03,19.93,3.42,42.1-5.22c24.44-9.52,42.46-29.47,53.56-59.32
					c28.36-76.21-35.01-122.16-37.72-124.08c-3.13-2.22-3.88-6.55-1.67-9.69c2.21-3.13,6.54-3.89,9.67-1.69
					c0.77,0.54,19.07,13.55,33.54,37.26c13.47,22.07,26.01,57.86,9.2,103.03c-12.54,33.72-33.25,56.4-61.54,67.42
					c-10.71,4.17-20.86,5.95-29.16,6.58c21.41,14.23,51.71,19.36,83.38,13.44c45.89-8.58,82.43-38.08,97.74-78.89
					c26.8-71.45-70.26-167.51-111.71-208.52c-10.96-10.85-15.89-15.78-17.93-19.04c-4.81-7.7-0.66-18.63,7.62-40.4
					c16.14-42.48,46.18-121.54,48.8-264.17c3.54-192.31-112.38-277.09-125.61-286.12c-0.91-0.62-1.42-0.95-1.46-0.97
					c-3.22-2.08-4.15-6.38-2.07-9.61c2.08-3.23,6.38-4.16,9.61-2.08c0,0,0.6,0.39,1.75,1.16c13.88,9.48,135.37,98.27,131.69,297.87
					c-2.66,145.05-33.26,225.58-49.7,268.85c-4.66,12.27-9.48,24.96-8.72,28.25c1.51,2.21,8.46,9.09,15.82,16.37
					c43.36,42.91,144.91,143.41,114.95,223.29c-17.04,45.41-57.49,78.19-108.2,87.68C1713.65,1222.2,1704.25,1223.07,1695.1,1223.07
					z"
                className="color38212a svgShape"
              ></path>
              <path
                fill="#38212a"
                d="M1541.88,1123.57c-19.74,0-42.41-3.49-64.91-14.47c-42.62-20.81-73.21-63.01-90.95-125.44
					c-0.11-0.36-0.22-0.72-0.32-1.08c-1.03-3.7,1.12-7.62,4.82-8.65c3.7-1.02,7.51,1.06,8.53,4.75l0.06,0.21
					c0.05,0.18,0.1,0.36,0.16,0.54c0.03,0.1,0.06,0.2,0.09,0.3c16.6,58.53,44.77,97.85,83.71,116.86
					c29.35,14.33,59.58,14.4,81.41,11.34c-23.51-6.03-39.06-15.83-47.16-29.64c-13.79-23.5-3.33-54.42,7.33-78.74
					c6.8-15.48,15.31-31.67,24.32-48.81c15.08-28.7,30.68-58.37,39.65-87.52c32.02-104.01-22.09-169.29-22.64-169.94
					c-2.48-2.92-2.14-7.31,0.78-9.8c2.91-2.49,7.29-2.15,9.79,0.76c2.46,2.86,59.72,71.44,25.36,183.07
					c-9.35,30.38-25.25,60.64-40.63,89.9c-8.89,16.92-17.29,32.89-23.89,47.92c-13.86,31.62-16.35,52.01-8.07,66.11
					c9.08,15.46,32.05,24.77,70.23,28.44c3.19,0.31,5.75,2.75,6.21,5.92c0.46,3.17-1.3,6.24-4.26,7.45
					C1599.86,1113.73,1575.03,1123.57,1541.88,1123.57z"
                className="color38212a svgShape"
              ></path>
              <path
                fill="#38212a"
                d="M1663.69,1186.82c-0.8,0-1.61-0.14-2.4-0.43c-3.6-1.32-5.45-5.32-4.13-8.92
					c9.17-24.97,8.41-49.16-2.28-71.9c-28.99-61.68-122.24-95.26-126.19-96.66l-0.32-0.11c-3.61-1.17-5.61-5.01-4.51-8.63
					c1.1-3.63,4.91-5.7,8.55-4.67c0,0,0.35,0.1,1.01,0.34c10.38,3.67,103.14,38.07,134.05,103.82
					c12.32,26.22,13.25,54.02,2.74,82.61C1669.18,1185.08,1666.52,1186.82,1663.69,1186.82z"
                className="color38212a svgShape"
              ></path>
              <g>
                <path
                  fill="#38212a"
                  d="M671.69,1217.6c-15.69-25.09-16.42-65.73-0.97-93.45c8.13-14.63,20.79-25.64,38.11-28.91
					c22.26-4.2,39.17,0.16,51.98,8.77c35.11,23.57,39.57,79.12,39.57,79.12C791.83,1267.94,693.24,1252.06,671.69,1217.6z"
                  className="color38212a svgShape"
                ></path>
                <path
                  fill="#3a212b"
                  d="M532.48,658.7c-60.87-9.95-114.54-10.68-230.29,68.16c0,0,188.42-112.77,344.88,2l0,0
															C639.6,697.56,579.49,666.39,532.48,658.7z"
                  className="color3a212b svgShape"
                ></path>
                <ellipse cx="485.52" cy="929.8" fill="#ffffff" rx="126.34" ry="126.65" transform="rotate(-52.394 485.56 929.854)" className="colorfff svgShape"></ellipse>
                <path
                  fill="#c1c1c1"
                  d="M609.74,908.25c0,0-120.7-108.43-257.32,12.79c0,0-22.11-74.9,60.95-108.59
											C496.43,778.77,578.71,801.69,609.74,908.25z"
                  className="colorc1c1c1 svgShape"
                ></path>
                <path
                  fill="#603745"
                  d="M570.69,932.35c-0.93,69.28-45.99,124.77-100.69,123.91c-54.68-0.86-98.3-57.72-97.37-127
											c0.12-9.1,1-17.96,2.58-26.5c0.77-4.29,1.73-8.48,2.88-12.59c13.63-49.93,51.34-85.53,95.23-84.85
											c39.79,0.62,73.7,30.91,88.87,74.05c0.75,2.09,1.44,4.24,2.09,6.41C568.61,900.23,570.9,915.93,570.69,932.35z"
                  className="color603745 svgShape"
                ></path>
                <ellipse cx="446.94" cy="932.74" fill="#3a212b" rx="43.56" ry="54.81" transform="rotate(-2.144 447.582 933.572)" className="color3a212b svgShape"></ellipse>
                <ellipse cx="429.13" cy="892.67" fill="#ffffff" opacity=".5" rx="36.18" ry="28.42" transform="rotate(-73.794 429.093 892.624)" className="colorfff svgShape"></ellipse>
                <ellipse cx="509.06" cy="977.01" fill="#ffffff" opacity=".5" rx="25.37" ry="26.29" transform="rotate(-1.146 506.91 975.125)" className="colorfff svgShape"></ellipse>
                <path fill="#3a212b" d="M597.33,1027.8c0,0-101.33,78.56-231.96-3.61C365.38,1024.18,497.81,1061.31,597.33,1027.8z" className="color3a212b svgShape"></path>
                <path
                  fill="#603745"
                  d="M562.19,879.38c-43.25-18.68-111.71-30.62-186.98,23.38c0.77-4.29,1.73-8.48,2.88-12.59
											c13.63-49.93,51.34-85.53,95.23-84.85C513.11,805.95,547.02,836.24,562.19,879.38z"
                  opacity=".5"
                  className="color603745 svgShape"
                ></path>
                <path
                  fill="#3a212b"
                  d="M284.66,837.03c24.45,11.54,64.04,0.25,64.04,0.25c20.36-19.9,57.26-50.07,98.17-55.33
											c86.17-11.08,160.45,56.43,162.87,126.3c0,0-19.04-77.01-109.61-99.1c-76.19-18.58-128.16,62.96-135.28,88.13
											c-7.62,26.93-4.38,52.47-4.38,52.47s-23.77-49.57-30.35-60.8c-6.58-11.24-40.54-9.56-47.6-24.81c0,0,28.03,6.86,49.61-9.1
											c0,0,0.41-0.5,1.14-1.36C299.01,855.12,284.66,837.03,284.66,837.03z"
                  className="color3a212b svgShape"
                ></path>
                <ellipse cx="991.12" cy="945.74" fill="#ffffff" rx="126.54" ry="126.45" transform="rotate(-18.377 991.16 945.891)" className="colorfff svgShape"></ellipse>
                <path
                  fill="#c1c1c1"
                  d="M866.66,925.38c0,0,119.44-109.58,257.45,10.32c0,0,21.24-75.11-62.2-108
											C978.47,794.82,896.46,818.53,866.66,925.38z"
                  className="colorc1c1c1 svgShape"
                ></path>
                <path
                  fill="#603745"
                  d="M1083.59,947.65c1.79,72.14-41.35,121.73-96.02,123.1c-54.69,1.38-100.21-45.98-101.99-118.12
											c-0.38-15.49,1.31-30.38,4.7-44.24c0.34-1.45,0.73-2.89,1.11-4.32c13.38-48.58,48.22-83.54,89.96-84.59
											c42.55-1.07,79.73,33.46,94.94,82.86c0.48,1.53,0.92,3.09,1.35,4.65C1081.17,919.74,1083.24,933.4,1083.59,947.65z"
                  className="color603745 svgShape"
                ></path>
                <path
                  fill="#3a212b"
                  d="M880.45 1044.8c0 0 102.23 77.58 231.9-5.84C1112.35 1038.97 980.35 1077.35 880.45 1044.8zM982.48 670.7c61.57-2.42 114.94 3.44 221.1 95.94 0 0-174.54-135.11-342.74-40.32l0 0C871.76 696.15 934.94 672.57 982.48 670.7z"
                  className="color3a212b svgShape"
                ></path>
                <ellipse cx="956.81" cy="944.5" fill="#3a212b" rx="54.81" ry="43.56" transform="rotate(-89.083 956.746 944.476)" className="color3a212b svgShape"></ellipse>
                <ellipse cx="932.55" cy="904.23" fill="#ffffff" opacity=".5" rx="36.12" ry="28.46" transform="rotate(-70.226 932.552 904.26)" className="colorfff svgShape"></ellipse>
                <ellipse cx="1006.54" cy="994.2" fill="#ffffff" opacity=".5" rx="25.37" ry="26.29" transform="rotate(-1.146 1003.175 992.74)" className="colorfff svgShape"></ellipse>
                <path
                  fill="#603745"
                  d="M1076.29,902.34c-81.36-43.43-151.2-15.07-186.02,6.05c0.34-1.45,0.73-2.89,1.11-4.32
											c13.38-48.58,48.22-83.54,89.96-84.59C1023.9,818.41,1061.08,852.94,1076.29,902.34z"
                  opacity=".5"
                  className="color603745 svgShape"
                ></path>
                <path
                  fill="#3a212b"
                  d="M1190.9,851.05c-24.32,11.78-64.03,0.86-64.03,0.86c-20.59-19.7-57.84-49.52-98.8-54.39
											c-86.3-10.26-159.79,57.96-161.4,127.86c0,0,18.15-77.18,108.46-100.14c75.97-19.31,128.88,61.73,136.29,86.83
											c7.93,26.86,4.98,52.43,4.98,52.43s23.2-49.79,29.65-61.09c6.45-11.3,40.43-9.95,47.31-25.27c0,0-27.95,7.12-49.71-8.63
											c0,0-0.41-0.5-1.15-1.34C1176.76,869.28,1190.9,851.05,1190.9,851.05z"
                  className="color3a212b svgShape"
                ></path>
                <g>
                  <ellipse cx="696.49" cy="1037.71" fill="#e2a383" rx="13.76" ry="14.26" transform="rotate(-1.146 693.829 1035.857)" className="colore2a383 svgShape"></ellipse>
                </g>
                <g>
                  <ellipse cx="491.52" cy="1125.5" fill="#f7c1ba" rx="33.2" ry="83.73" transform="rotate(-87.002 491.517 1125.528)" className="colorf7c1ba svgShape"></ellipse>
                </g>
                <g>
                  <ellipse cx="1001.22" cy="1134.67" fill="#f7c1ba" rx="83.72" ry="33.2" transform="rotate(-2.688 999.99 1134.223)" className="colorf7c1ba svgShape"></ellipse>
                </g>
                <g>
                  <path
                    fill="#ffffff"
                    d="M717.73,1124.4c-37.54,0.48-42.29-7.62-44.69-11.22c10.58-12.96,24.98-21.58,42.6-21.74
					c22.65-0.21,38.53,7.05,49.62,17.79C764.31,1114.54,752.77,1123.96,717.73,1124.4z"
                    className="colorfff svgShape"
                  ></path>
                </g>
                <g>
                  <path fill="#d68e8e" d="M671.69,1217.6c48.14-63.84,128.68-34.46,128.68-34.46C791.83,1267.94,693.24,1252.06,671.69,1217.6z" className="colord68e8e svgShape"></path>
                </g>
                <g>
                  <path
                    fill="#38212a"
                    d="M734.15,1252.32c-28.15,0-57.07-12.98-68.36-31.03l0,0c-17.23-27.56-17.73-70.77-1.15-100.52
					c9.86-17.74,24.7-28.93,42.89-32.36c22.04-4.15,41.27-0.85,57.15,9.83c23.85,16.01,34.67,44.73,39.55,66
					c4.13,18,1.99,36.41-6.01,51.83c-11.54,22.23-33.01,35.08-60.46,36.18C736.56,1252.3,735.36,1252.32,734.15,1252.32z
					 M677.58,1213.91c9.18,14.68,35.38,25.41,59.62,24.44c12.88-0.52,36.34-4.93,48.68-28.69c6.49-12.5,8.19-27.52,4.8-42.31
					c-3.53-15.41-12.61-43.38-33.75-57.56c-12.75-8.57-28.49-11.17-46.82-7.71c-17.69,3.33-27.89,15.68-33.32,25.45
					C662.72,1152.77,663.07,1190.71,677.58,1213.91L677.58,1213.91z"
                    className="color38212a svgShape"
                  ></path>
                </g>
              </g>
            </svg>