            <svg xmlns="http://www.w3.org/2000/svg" enableBackground="new 0 0 1854.97 2912.86" viewBox="0 0 1854.97 2912.86">
              <g display="none">
                <rect width="4000" height="4000" x="-1072.52" y="-574.43" fill="#ffffff" className="colorfff svgShape"></rect>
                <ellipse cx="1015.91" cy="2857.94" fill="#dddddd" rx="596.57" ry="142.39" className="colorddd svgShape"></ellipse>
              </g>
              <path
                fill="#fdf2d2"
                d="M1075.88 1354.12l-1.87-3.08c0 0 59.62 6.43 122.89 5.35-3.61.11-7.26.21-10.95.26C1146.47 1357.24 1109.8 1356.27 1075.88 1354.12zM1301.23 1367.13l-.25 1.83-97.96 71.67-112.29-62.11-.53-.87c43.16-5.58 101.55 56.02 101.55 56.02l3.14 1.91c1.95-2.91 4.18-4.56 6.54-4.56 1.46 0 2.86.62 4.16 1.76l.17-.19C1205.77 1432.59 1257.8 1365.99 1301.23 1367.13zM1304.56 1342.67l-.09.68c-2.25.49-4.52.96-6.79 1.44C1300.04 1344.13 1302.33 1343.41 1304.56 1342.67z"
                className="colorfdf2d2 svgShape"
              ></path>
              <path
                fill="#db7789"
                d="M1200.24,1506.28c-0.06,0.15-0.13,0.28-0.19,0.44c-32.02,74.67-19.48,136.71-32,149.35
						c-17.27,17.44-131.08-50.58-121.18-95.71c1.51-6.9,5.81-13.79,12.01-20.52c33.69-36.54,123.51-68.11,126.84-69.26
						c0.06-0.02,0.09-0.04,0.09-0.04l1.91-0.02C1188.05,1489.41,1193.44,1504.67,1200.24,1506.28z"
                className="colordb7789 svgShape"
              ></path>
              <path
                fill="#be7974"
                d="M1758.71,754.74c24.44,157.9,18.57,286.21-0.89,396.69c0,0,0,0.06-0.02,0.15c0,0.02,0,0.04-0.02,0.08
						c-5.52,31.3-12.14,61.19-19.48,89.9c-18.16,71.19-40.7,135.2-61.83,196.14c-25.78,74.39-49.46,144.16-60.45,216.76
						c-11.97-37.98-37.2-63.76-37.2-63.76l-0.76-0.04c0.3-7.38,0.23-14.41-0.13-20.84c-0.62-11.65-7.6-21.35-17.46-28.62
						c-0.49-0.38-0.98-0.72-1.49-1.08l1.42-0.55c19.8-55.38,34.39-103.37,45.11-143.73c0.66-2.53,1.32-5.07,1.99-7.62
						c24.38-93.8,27.41-144.35,27.61-148.68c0-0.09,0.02-0.21,0.02-0.3l-0.43-0.26c-75.43,122.17-165.37,176.34-165.37,176.34
						c64.35-82.28,93.78-167.54,106.94-234.59c13.54-68.9,9.87-118.57,9.21-126.03c-25.19,44.07-44.73,68.22-44.73,68.22
						c51.33-171.85,0-316.93,0-316.93l-0.78-0.06c-4.56,57.8-12.62,93.8-12.62,93.8c-49.1-232.13-149.54-328.11-149.54-328.11
						l-3.57,0.06c3.03,212.33-86.55,370.25-87.93,372.67l-0.02,0.02c4.46-40.17-8.93-75.88-8.93-75.88l-4.58-1.31
						c-23.32,82.86-57.92,128.52-57.92,128.52c-55.8-6.7-154-131.68-154-131.68l-1.29,0.11c5.14,51.88-0.95,89.16-0.95,89.16
						C857.76,772.5,862.23,294.86,862.23,294.86c-332.57,345.94-84.81,845.9-84.81,845.9c-52.9-24.1-95.14-59.03-128.64-97.43
						c0-0.02-0.02-0.02-0.02-0.04h-0.02c20.64,76.6,49.73,139.95,78.72,189.82c10.63,18.33,21.28,34.86,31.47,49.54l0.68-0.47
						c0,0,71.5,40.33,217.19,61.68l-34.52,26.84l0.15,0.59c-48.53,12.9-128.05,52.07-203.31,96.48
						c-36.39,21.47-71.78,44.18-102.17,65.73c0,0-0.06-0.06-0.17-0.15c-0.78-0.76-2.08-2.04-3.82-3.88
						c-0.51-0.51-1.06-1.08-1.63-1.68c-3.08-3.22-7.19-7.64-12.12-13.3c-0.87-1-1.78-2.04-2.72-3.14c-0.11-0.13-0.23-0.28-0.36-0.42
						c-1.04-1.23-2.12-2.5-3.23-3.82c-2.31-2.72-4.73-5.67-7.26-8.81c-1.15-1.44-2.35-2.91-3.56-4.45
						c-0.64-0.81-1.29-1.65-1.95-2.48c-1.32-1.66-2.65-3.39-4.01-5.16c-0.68-0.87-1.36-1.78-2.04-2.69
						c-6.24-8.19-12.92-17.36-19.88-27.52c-0.78-1.13-1.57-2.27-2.35-3.42c-3.16-4.62-6.36-9.44-9.57-14.45
						c-0.81-1.25-1.63-2.52-2.44-3.78c-2.46-3.84-4.94-7.77-7.41-11.84c-0.51-0.81-1.02-1.65-1.53-2.48c-0.7-1.15-1.4-2.31-2.1-3.48
						c-3.88-6.39-7.77-13.07-11.67-19.99c-0.78-1.36-1.55-2.74-2.35-4.14c-3.42-6.13-6.87-12.45-10.29-18.99
						c-0.85-1.61-1.68-3.23-2.55-4.86c-1.7-3.31-3.42-6.68-5.13-10.08c-0.85-1.7-1.7-3.4-2.55-5.13c-0.85-1.74-1.7-3.46-2.55-5.22
						c-2.99-6.13-5.96-12.43-8.91-18.88c-0.64-1.38-1.29-2.78-1.91-4.2c-0.61-1.34-1.23-2.69-1.82-4.05
						c-0.83-1.87-1.66-3.76-2.5-5.66c-1.61-3.65-3.2-7.36-4.79-11.1c-4.16-9.85-8.27-20.03-12.26-30.53
						c-0.76-1.97-1.51-3.95-2.25-5.94c-0.51-1.32-1-2.67-1.49-4.01c-1.1-2.99-2.19-6-3.27-9.02c-0.78-2.14-1.53-4.29-2.29-6.47
						c-0.66-1.87-1.32-3.76-1.97-5.67c-3.1-9.04-6.13-18.31-9.06-27.79c-0.7-2.23-1.38-4.48-2.06-6.75
						c-2.99-9.85-5.86-19.94-8.62-30.23c-0.51-1.87-1-3.76-1.49-5.66c-1.93-7.34-3.78-14.77-5.58-22.32
						c-0.49-2.08-0.98-4.16-1.46-6.26c-0.81-3.4-1.59-6.83-2.35-10.27c-0.45-2.06-0.91-4.14-1.34-6.24
						c-1.15-5.35-2.27-10.74-3.35-16.21c-0.51-2.55-1-5.13-1.49-7.7c-0.4-2.12-0.81-4.24-1.19-6.37c-0.42-2.21-0.81-4.43-1.19-6.64
						c-0.32-1.7-0.62-3.42-0.91-5.14c-0.68-3.95-1.34-7.93-1.99-11.92c-1.04-6.37-2.01-12.8-2.93-19.29
						c-0.4-2.82-0.79-5.64-1.17-8.49c-0.26-1.95-0.53-3.92-0.78-5.88c-0.42-3.1-0.79-6.22-1.17-9.34c-0.25-2.1-0.51-4.2-0.74-6.3
						c-0.23-2-0.45-3.99-0.68-6c-0.53-4.77-1.02-9.55-1.48-14.37c-0.17-1.74-0.34-3.48-0.49-5.24c-0.21-2.16-0.4-4.31-0.59-6.49
						c-0.23-2.63-0.43-5.26-0.64-7.91c-0.25-3.01-0.47-6.05-0.68-9.1c-0.23-3.05-0.43-6.11-0.62-9.17c-0.21-3.14-0.4-6.28-0.57-9.44
						c-0.15-3.03-0.32-6.07-0.45-9.12c-0.15-3.12-0.28-6.26-0.42-9.4c-0.13-3.39-0.26-6.77-0.36-10.19
						c-0.08-2.44-0.15-4.9-0.21-7.36c-0.08-3.12-0.15-6.24-0.19-9.38c-0.04-1.34-0.06-2.67-0.06-4.01
						c-0.04-2.19-0.08-4.43-0.09-6.64c-0.04-3.5-0.04-7-0.04-10.52c0-3.31,0.02-6.64,0.04-9.99c0.02-2.72,0.06-5.47,0.09-8.21
						c0.04-2.8,0.08-5.62,0.15-8.44c0.04-1.85,0.08-3.71,0.13-5.56c0.06-2.72,0.13-5.45,0.23-8.17v-0.09
						c0.09-2.7,0.19-5.41,0.3-8.13c0.09-2.67,0.21-5.35,0.32-8.04c0-0.17,0.02-0.34,0.04-0.51c0.11-2.67,0.25-5.35,0.38-8.04
						c0.21-4.24,0.45-8.51,0.72-12.8c0.15-2.5,0.3-4.99,0.47-7.51c0.04-0.45,0.06-0.91,0.09-1.36c0.25-3.56,0.49-7.13,0.78-10.72
						c0.25-3.29,0.51-6.62,0.79-9.95c0.17-2.16,0.36-4.33,0.55-6.51c0.25-2.82,0.51-5.66,0.78-8.49c0.34-3.65,0.7-7.32,1.08-11.01
						c7.09-69.25,20.11-132.06,37.36-188.92c54.36-179.17,150.78-299.28,236.2-375.66l-1.68-1.89c0,0-35.94-35.45-89.18-61.17
						c-5.01-2.42-10.19-4.77-15.51-6.98c10.54-8.53,312.69-247.32,805.5-21.37c0,0,175.83-135.52,329.07-24.99
						c26.67,19.24,52.66,45.92,76.92,82.09c163.63,243.9-92.62,398.26-92.62,398.26l-1.17,0.47
						C1727.54,614.1,1747.19,680.35,1758.71,754.74z"
                className="colorbe7974 svgShape"
              ></path>
              <path
                fill="#ffdfca"
                d="M1304.56,1342.67l-1.72,12.63l-1.85,13.66l-97.96,71.67l-112.29-62.11l-9-14.81l-7.72-12.67
						C1074.01,1351.03,1229.3,1367.77,1304.56,1342.67z"
                className="colorffdfca svgShape"
              ></path>
              <path
                fill="#be7974"
                d="M1752.96,1433.23c12.92,189.67,73.27,290.26,73.27,290.26c-87.65,47.42-218.42,27.31-218.42,27.31
						l-0.25-0.11c3.29-6.87,6.19-13.92,8.61-21.11c9.23-27.35,6.73-53.26-0.15-75.13c23.66-156.1,105.88-299.2,141.8-503.02
						l0.89,0.15C1757.27,1239.23,1740.02,1243.54,1752.96,1433.23z"
                className="colorbe7974 svgShape"
              ></path>
              <path
                fill="#754545"
                d="M1634.69,1238.97l0.44,0.26c0,0-4.31,103.46-74.73,300.34l-1.42,0.55c-13.28-9.19-31.19-14.17-45.92-13.81
						l-0.02-0.55c0,0-27.44-2.5-47.91,13.86l-3.1-1.83c-18.4-85.06-110.67-192.32-120.71-203.8
						c154.66-45.15,227.48-142.78,234.95-153.28c-13.16,67.05-42.59,152.32-106.94,234.59
						C1469.32,1415.3,1559.26,1361.13,1634.69,1238.97z"
                className="color754545 svgShape"
              ></path>
              <path
                fill="#eec692"
                d="M1616.17,1729.58c-2.42,7.19-5.31,14.24-8.61,21.11c-28.22,58.75-86.21,103.65-137.03,97.16
						c-72.55-9.25-106.96-122.94-83.2-195.42c0.17-0.53,0.34-1.04,0.51-1.55c8.1-23.66,31.3-50.26,52.58-71.02l0.38-0.38
						c5.35,5.28,14.94,8,32.19,0.3l0.36-0.02c0.11,4.44,1.14,9.65,3.48,15.66c0,0-27.9,9.46-9.46,45.43c0,0-7.89,3.12-11.69,10.36
						c-6.36,12.03-5.39,32.46,33.74,42.73c66.43,17.46,86.61-51.11,88.63-103.29l0.76,0.04c0,0,0.02,0,0.02,0.02
						c0.79,0.83,25.4,26.39,37.19,63.74C1622.9,1676.32,1625.4,1702.23,1616.17,1729.58z"
                className="coloreec692 svgShape"
              ></path>
              <path
                fill="#ffdfca"
                d="M1576.26,1180.71c-2.18,3.06-9.89,13.5-23.55,27.88c-33.25,35.01-101.76,93.4-211.4,125.4
						c-44.79,13.09-96.44,21.77-155.36,22.66c-81.56,1.23-151.2-4.27-209.13-12.79c-145.7-21.35-217.19-61.68-217.19-61.68
						l-0.68,0.47c-37.94-54.64-81.97-134.61-110.19-239.38c0,0,0,0,0.02,0.02c33.5,38.41,75.73,73.35,128.65,97.47
						c0,0-247.76-499.96,84.81-845.9c0,0-4.46,477.64,196.41,658.42c0,0,6.09-37.28,0.95-89.16l1.29-0.11
						c0,0,98.2,124.99,154,131.68c0,0,34.59-45.66,57.92-128.52l4.58,1.31c0,0,13.39,35.71,8.93,75.88c0,0,91-158.71,87.95-372.69
						l3.57-0.06c0,0,100.43,95.97,149.54,328.11c0,0,8.06-35.99,12.62-93.8l0.78,0.06c0,0,51.33,145.07,0,316.93
						c0,0,19.54-24.15,44.73-68.22C1586.13,1062.14,1589.8,1111.81,1576.26,1180.71z"
                className="colorffdfca svgShape"
              ></path>
              <path
                fill="#eec692"
                d="M1589.18,2203.5c-77.79,80.48-171.29,108.23-231.02,117.68c-36.54,5.77-60.45,4.73-60.45,4.73
						c-62.21,34.8-129.18,44.41-189.35,42.52c-12.33-0.38-24.36-1.27-36.01-2.5c-88.69-9.42-155.02-40.02-155.02-40.02
						c-67.41,9.17-113.94-5.18-144.77-23.78c-35.1-21.18-49.82-47.87-51.73-51.58c29.77-4.48,71.65-93.23,100.06-163.7l1.36,0.55
						c0,0,84.04,76.57,151.26,93.36c44.71,11.18,159.56-46.98,237.58-97.11c7.85,11.82,75.2,111.88,103.8,110.72
						c23.98-0.95,145.55-80.59,197.62-123.11l0.81,1c0,0,13.9,30.62,39.45,64.69C1583.28,2177.62,1589.18,2203.5,1589.18,2203.5z"
                className="coloreec692 svgShape"
              ></path>
              <path
                fill="#ffdfca"
                d="M1578.06,1590.66c-1.61,41.76-14.87,94-54.13,104.26c-9.8,2.57-21.22,2.52-34.5-0.96
						c-39.13-10.27-40.1-30.7-33.74-42.73c3.8-7.24,11.69-10.36,11.69-10.36c-18.44-35.97,9.46-45.43,9.46-45.43
						c-2.35-6.01-3.37-11.22-3.48-15.66c-0.47-18.54,14.72-24.38,14.72-24.38c-7.23-19.67,6.36-28.62,24.99-29.07
						c14.73-0.36,32.65,4.62,45.92,13.81c0.51,0.36,1,0.7,1.49,1.08c0,0,0,0,0,0.02c9.85,7.24,16.83,16.95,17.46,28.6
						C1578.28,1576.25,1578.36,1583.28,1578.06,1590.66z"
                className="colorffdfca svgShape"
              ></path>
              <path
                fill="#f7f7f9"
                d="M1536.18,2047.27c-0.78,3.86-9.72,12.58-23.68,24c-52.07,42.52-173.63,122.17-197.62,123.11
						c-28.6,1.15-95.95-98.9-103.8-110.72c39.32-25.27,69.28-48.5,76.17-59.75c20.54-33.63,18.67-91.51-57.9-235.31
						c-14.28-26.84-24.12-53.49-30.64-79.12c3.84-3.95,7.49-7.81,10.97-11.5c13.98-14.89,24.95-27.41,31.96-35.63
						c5.75-6.73,8.87-10.61,8.87-10.61c13.92,11.58,75.69-28.13,101.48-67.41l0.13,0.17c1.68,1.93,9.63,11.37,17.89,25.78
						c6.53,11.37,13.22,25.84,17.17,42.12l0.13,0.04c-23.76,72.48,10.65,186.17,83.2,195.42
						C1463.23,1935.41,1539.83,2029.03,1536.18,2047.27z"
                className="colorf7f7f9 svgShape"
              ></path>
              <path
                fill="#ffdfca"
                d="M1488.06,1555.38c0,0-12.94,4.97-14.56,20.3c0,0.02,0,0.02,0,0.02c-0.13,1.29-0.19,2.65-0.15,4.07
						l-0.36,0.02c-17.25,7.7-26.84,4.97-32.19-0.3c-2.97-2.93-4.63-6.68-5.56-9.84c-1.06-3.63,0.26-7.57,3.37-9.76
						c4.94-3.54,13.9-10.14,26.52-20.26c2.59-2.06,5.28-3.84,8.02-5.33c18.93-10.44,39.89-8.53,39.89-8.53l0.02,0.55
						C1494.42,1526.77,1480.84,1535.71,1488.06,1555.38z"
                className="colorffdfca svgShape"
              ></path>
              <path
                fill="#f7f7f9"
                d="M1201.44,1506.43c0.95,0,1.85-0.26,2.74-0.74c-0.11,0.3-0.72,2-1.66,4.99
						c-5.43,17.33-21.71,77.55-12.37,153.32c-5.64,5.48-11.5,11.03-17.59,16.55c-80.78,73.52-199.55,149.74-293.61,192.38
						c-8.34,3.78-16.23,7.6-23.72,11.46c-8.95,4.61-17.27,9.23-25.04,13.86c-9.84-10.55-35.16-27.16-58.9-41.55l0.53-0.89
						c0,0,50.01-59.26,67.01-122.45c11.35-11.95,22.81-24.42,34.06-36.98c52.66-58.56,101.27-118.74,114.3-135.48
						c25.53-32.84,54.72-178.74-9.12-193.34c-8.04-1.83-20.29-0.38-35.63,3.73l-0.15-0.59l34.52-26.84
						c29.9,4.39,62.91,7.98,99.07,10.25l14.32,23.53c-2.67,0.32-5.26,0.93-7.79,1.8c-43.52,15.21-23.81,160.15-23.81,160.15
						l0.28,0.25c-6.2,6.73-10.5,13.62-12.01,20.52c-9.89,45.13,103.92,113.15,121.18,95.71c11.23-11.33,2.27-62.51,23.51-126.88
						c2.46-7.47,5.33-15.11,8.68-22.91C1200.64,1506.38,1201.04,1506.43,1201.44,1506.43z"
                className="colorf7f7f9 svgShape"
              ></path>
              <path
                fill="#eec692"
                d="M1390.12 1396.28c-1.34 4.9-2.89 9.7-4.6 14.36-13.45 37.05-36.09 65.29-37.68 67.24-2.29-43.73-10.57-102.84-38.42-109.68-2.69-.66-5.43-1-8.21-1.06l3.23-23.78c12.77-2.76 25.04-5.92 36.84-9.36 0 0 0 0 .02.02 1.31 1.49 3.99 4.58 7.7 9.02.7.83 1.44 1.72 2.21 2.65 2.63 3.2 5.69 6.92 9.08 11.14 1.12 1.4 2.29 2.87 3.48 4.39.02.02.04.04.04.06.68.85 1.36 1.7 2.04 2.59 4.8 6.13 10.08 13.03 15.62 20.52 1.42 1.91 2.84 3.86 4.28 5.84C1387.21 1392.21 1388.67 1394.21 1390.12 1396.28zM1435.24 1569.64c.93 3.16 2.59 6.9 5.56 9.84l-.38.38c-19.43 18.95-40.46 42.76-50.12 64.76-.93 2.1-1.76 4.2-2.46 6.26-.17.51-.34 1.02-.51 1.55l-.13-.04c-1.68-6.92-3.86-13.52-6.3-19.69-10.86-27.33-27.03-46.25-28.9-48.38 9.15-13.96 13.77-27.88 10.06-39.42-1.51-4.71-4.39-9.29-8.32-13.69 22.73-25.52 41.63-60.71 51.81-81.65 5.24-10.74 8.19-17.74 8.19-17.74-.83-1.38-2.69-4.41-4.99-8.17 7.41 11.42 14.72 23.42 21.47 35.65 1.04 1.91 2.08 3.82 3.1 5.73.45.83.91 1.68 1.34 2.53 1.34 2.53 2.67 5.09 3.93 7.66 1.55 3.06 3.06 6.17 4.5 9.25.62 1.32 1.23 2.63 1.82 3.93.64 1.4 1.27 2.8 1.87 4.18.62 1.4 1.23 2.78 1.8 4.18.55 1.27 1.08 2.53 1.57 3.8.64 1.51 1.23 3.03 1.82 4.54.55 1.38 1.06 2.76 1.57 4.14 1.44 3.84 2.74 7.66 3.92 11.46.25.76.49 1.51.7 2.27.45 1.44.87 2.88 1.25 4.29.32 1.13.64 2.27.93 3.4.62 2.38 1.19 4.77 1.7 7.11l3.1 1.83c-12.62 10.12-21.58 16.72-26.52 20.26C1435.5 1562.08 1434.18 1566.01 1435.24 1569.64z"
                className="coloreec692 svgShape"
              ></path>
              <path
                fill="#ffdfca"
                d="M1358.16,2321.18c-0.76,3.71-8.95,42.41-36.07,122.51c-10.69,31.51-24.3,69.42-41.55,114.13
						c-12.62,32.72-27.35,61.55-42.86,86.72c-9.8-2.36-19.07-5.07-27.84-8c-84.72-28.5-122.45-80.56-124.68-83.73
						c16.76-36.6,22.39-84.6,23.93-122.41c0.36-8.93,0.47-17.29,0.47-24.78c-0.02-22.13-1.21-36.83-1.21-36.83l0.02-0.36
						c60.17,1.89,127.14-7.72,189.35-42.52C1297.71,2325.91,1321.62,2326.95,1358.16,2321.18z"
                className="colorffdfca svgShape"
              ></path>
              <path
                fill="#f7f7f9"
                d="M1287.25,2023.91c-6.88,11.25-36.85,34.48-76.17,59.75c-78.02,50.12-192.87,108.28-237.58,97.11
						c-67.22-16.8-151.26-93.36-151.26-93.36l-1.36-0.55c8.8-21.83,16.32-41.91,21.77-57.2c14.98-41.97,15.79-70.74,10.23-91.79
						l-0.34-0.51c7.81-5.13,15.93-10.1,24.32-14.96c52.75-30.62,111.1-62.72,169.13-96.81c49.88-29.3,102.15-65.55,138.32-101.53
						c5.03-4.99,9.84-9.87,14.39-14.58c6.53,25.63,16.36,52.28,30.64,79.12C1305.92,1932.4,1307.79,1990.28,1287.25,2023.91z"
                className="colorf7f7f9 svgShape"
              ></path>
              <path
                fill="#b8c8d8"
                d="M1250.52,1651.73c0,0-19.99,24.87-51.81,57.74c-37.41,38.68-100.59,86.25-157.39,119.61
						c-67.26,39.49-131.91,70.89-188.78,108.27c-11.29,7.41-21.88,15.15-31.62,23.36c-17.87,15.04-32.84,31.64-43.71,50.67
						l-4.73,2.72c-6.85-1.59-13.5-3.59-19.82-5.81c-9-3.12-17.31-6.7-24.53-10.16l1.1-2.31c0,0,13.15-35.35,69.06-76.49
						c9.38-6.92,19.97-14,31.91-21.09c14.26-8.49,30.43-17,48.76-25.33c101.15-45.85,230.87-130.55,311.2-208.93
						c19.01-18.54,35.26-36.73,47.7-53.96l0.7-0.11c2.16,12.11,3.76,22.21,5.84,29.64
						C1245.98,1645.36,1247.89,1649.52,1250.52,1651.73z"
                className="colorb8c8d8 svgShape"
              ></path>
              <path
                fill="#db7789"
                d="M1237.68,2644.54c-62.34,101.38-137.11,143.75-137.11,143.75l-1.08,0.23
						c-5.35-24.83-10.84-53.66-15.6-83.2c-7.21-44.85-12.73-91.34-13.54-128.05l0.45-0.02c5.52-7.26,10.27-15.51,14.36-24.44
						c2.23,3.18,39.97,55.23,124.68,83.73C1218.61,2639.47,1227.88,2642.18,1237.68,2644.54z"
                className="colordb7789 svgShape"
              ></path>
              <path
                fill="#db7789"
                d="M978.87,2891.86c-20.33-10.69-36.98-29.98-50.82-54.85c-10.29-18.48-19.07-40.04-26.67-63.44
						c-7.36-22.62-13.64-46.98-19.2-71.93c6.7,1.63,93,21.88,175.6,8.91c8.53-1.32,17-3.03,25.36-5.13l0.74-0.11
						c0,0,0.38,2.25,1.02,6.24c4.52,27.35,9.61,53.89,14.58,76.96c6.75,31.28,13.3,56.27,17.91,68.39
						C1132.13,2895.57,1057.76,2933.34,978.87,2891.86z"
                className="colordb7789 svgShape"
              ></path>
              <path
                fill="#ffdfca"
                d="M1083.88,2705.31l-0.74,0.11c-8.36,2.1-16.83,3.8-25.36,5.13c-82.6,12.98-168.9-7.28-175.6-8.91
						c-17-76.47-27.1-158.61-40.14-214.24c-15.59-66.52-35.88-116.02-50.6-146.51c-1.82-3.75-3.54-7.21-5.14-10.38
						c-8.53-16.72-14.2-25.34-14.2-25.34l0.45-3.03c30.83,18.59,77.36,32.95,144.77,23.78c0,0,66.33,30.6,155.02,40.02l-0.19,1.82
						c2.17,13.83,2.65,33.14,2.27,56.89c-0.55,36.3-3.01,82.98-4.12,136.39c-0.11,5.14-0.09,10.57,0.04,16.23
						C1071.15,2613.98,1076.68,2660.47,1083.88,2705.31z"
                className="colorffdfca svgShape"
              ></path>
              <path
                fill="#eec692"
                d="M987.19 1560.91c-15.81 20.31-84.11 104.71-148.36 172.46-39.57 41.69-77.59 77.08-100.93 87.33-5.45 2.38-11.07 4.07-16.7 5.16-36.75 7.24-74.65-9.61-74.65-9.61l-1.95.04c-1.19-12.58-2.55-24.19-3.06-32.02-1.7-26.71-50.58-67.62-86.38-71.04-2.17-.21-4.39-.28-6.68-.25l-.02-1.3c0 0-10.57-8.63-14.94-26.86-3.86-16.02-2.93-39.47 14.13-71.02 10.36-19.16 44.41-48.48 89.31-80.29 93.3-66.12 233.48-143.07 305.48-162.21 15.34-4.1 27.6-5.56 35.63-3.73C1041.91 1382.17 1012.73 1528.07 987.19 1560.91zM842.65 2029.66c-5.45 15.28-12.98 35.37-21.77 57.2-28.41 70.47-70.29 159.22-100.06 163.7-7.09 1.06-13.51-2.67-18.88-12.58 0 0 78.21-131.95 107.91-220.2 7.74-23.04 12.18-43.11 11.06-57.06 9.74-8.21 20.33-15.94 31.62-23.36l.34.51C858.45 1958.92 857.63 1987.69 842.65 2029.66z"
                className="coloreec692 svgShape"
              ></path>
              <path
                fill="#484e6e"
                d="M820.92,1960.72c1.12,13.96-3.33,34.03-11.06,57.06l-0.43-0.15c-12.37,0.78-24.93-0.76-36.94-3.52
						l4.73-2.72C788.08,1992.36,803.05,1975.75,820.92,1960.72z"
                className="color484e6e svgShape"
              ></path>
              <path
                fill="#b8c8d8"
                d="M809.42,2017.63l0.43,0.15c-29.7,88.25-107.91,220.2-107.91,220.2c-46.09-7.17-93.13-52.83-98.71-58.35
						c24.72-27.29,65.67-127.07,98.2-196.27c2.21,1.44,12.24,7.87,26.69,14.79c12.29,5.88,27.77,12.12,44.35,15.96
						C784.49,2016.87,797.05,2018.4,809.42,2017.63z"
                className="colorb8c8d8 svgShape"
              ></path>
              <path
                fill="#b8c8d8"
                d="M830.19,1898.26c-11.93,7.09-22.53,14.17-31.91,21.09l-0.59-0.79c0,0-27.03-23.06-56.48-3.42
						c-8.97,5.98-23.28,33.18-39.78,68.22c-32.53,69.21-73.48,168.98-98.2,196.27c-3.88,4.29-7.36,6.79-10.35,7.09
						c-31.64,3.27-124.15-77.85-123.06-123.64c0.23-9.15,3.65-21.56,9.02-35.58c20.39-53.28,68.64-129.56,73.31-136.88
						c11.97,2.65,21.17-4.05,21.17-4.05c32.4,15.91,34.67-32.4,34.67-32.4s9.67,33.54,26.71,30.68
						c13.85-2.29,12.86-35.26,10.25-64.59c-0.11-1.34-0.23-2.67-0.36-3.97l1.95-0.04c0,0,37.9,16.85,74.65,9.61l0.38,2.02
						c0,0,23.91,13.13,49.71,28.83C795.03,1871.1,820.35,1887.71,830.19,1898.26z"
                className="colorb8c8d8 svgShape"
              ></path>
              <path
                fill="#484e6e"
                d="M797.69,1918.56l0.59,0.79c-55.91,41.14-69.06,76.49-69.06,76.49l-1.1,2.31
						c-14.45-6.92-24.48-13.35-26.69-14.79c16.49-35.05,30.81-62.25,39.78-68.22C770.66,1895.5,797.69,1918.56,797.69,1918.56z"
                className="color484e6e svgShape"
              ></path>
              <path
                fill="#be7974"
                d="M692.32,191.38c-82.67,73.92-175.68,188.82-230.83,358.6c-1.83,5.62-3.63,11.31-5.37,17.06
						c-8.8-4.03-56.5-26.78-100.79-66.67c-63.7-57.39-120.39-150.2-44.43-273.82c32.85-53.45,68.51-86.23,104.39-104.61
						c60.43-30.94,121.47-21.11,170.66-0.59c61.64,25.69,104.69,68.15,104.69,68.15L692.32,191.38z"
                className="colorbe7974 svgShape"
              ></path>
              <path
                fill="#ffdfca"
                d="M640.67,1881.03c-1.57,2.08-3.54,3.42-5.96,3.82c-17.04,2.86-26.71-30.68-26.71-30.68
						s-2.27,48.31-34.67,32.4c0,0-9.19,6.7-21.17,4.05c-5.11-1.12-10.72-3.95-16.34-9.74c0,0-21.43,12.63-29.54-13.07
						c-6.83-21.6-0.57-86.95-0.57-86.95s-41.61,27.67-52.09,2.95c-10.38-24.44,46.06-66.65,89.58-70.53
						c1.78-0.19,3.54-0.28,5.28-0.3c2.29-0.04,4.5,0.04,6.68,0.25c35.8,3.42,84.68,44.33,86.38,71.04
						c0.51,7.83,1.87,19.44,3.06,32.02C646.98,1841.5,648.57,1870.61,640.67,1881.03z"
                className="colorffdfca svgShape"
              ></path>
              <path
                fill="#be7974"
                d="M636.96,1533.5c-44.9,31.81-78.95,61.13-89.31,80.29c-17.06,31.55-17.99,55-14.13,71.02l-0.45,0.11
						c-109.44,12.16-223.74-48.65-223.74-48.65s43.77-170.23,19.46-175.09c-24.32-4.86-80.25,194.55-80.25,194.55
						c-144.79-21.71-244.05-129.62-245.6-131.3c0-0.02-0.02-0.02-0.02-0.02s0,0,0.02-0.02c1.8-1.93,117.65-126.8,238.3-481.48
						c121.6-357.48,111.86-539.87,111.86-539.87l2.23-2.69c8.21,7.38,16.53,14.19,24.7,20.39c35.94,27.29,68.92,42.99,76.09,46.28
						c-17.25,56.86-30.26,119.67-37.36,188.92c-0.38,3.69-0.74,7.36-1.08,11.01c-0.26,2.84-0.53,5.67-0.78,8.49
						c-0.19,2.18-0.38,4.35-0.55,6.51c-0.28,3.33-0.55,6.66-0.79,9.95c-0.28,3.59-0.53,7.17-0.78,10.72
						c-0.04,0.45-0.06,0.91-0.09,1.36c-0.17,2.52-0.32,5.01-0.47,7.51c-0.26,4.29-0.51,8.57-0.72,12.8
						c-0.15,2.69-0.28,5.37-0.38,8.04c-0.02,0.17-0.04,0.34-0.04,0.51c-0.11,2.69-0.23,5.37-0.32,8.04
						c-0.11,2.72-0.21,5.43-0.3,8.13v0.09c-0.09,2.72-0.17,5.45-0.23,8.17c-0.06,1.85-0.09,3.71-0.13,5.56
						c-0.08,2.82-0.11,5.64-0.15,8.44c-0.04,2.74-0.08,5.48-0.09,8.21c-0.02,3.35-0.04,6.68-0.04,9.99c0,3.52,0,7.02,0.04,10.52
						c0.02,2.21,0.06,4.43,0.09,6.64c0,1.34,0.02,2.67,0.06,4.01c0.04,3.14,0.11,6.26,0.19,9.38c0.06,2.48,0.13,4.92,0.21,7.36
						c0.09,3.42,0.23,6.81,0.36,10.19c0.13,3.16,0.26,6.28,0.42,9.4c0.13,3.06,0.3,6.09,0.45,9.12c0.17,3.16,0.36,6.3,0.57,9.44
						c0.19,3.06,0.4,6.13,0.62,9.17c0.21,3.05,0.43,6.09,0.68,9.1c0.21,2.65,0.42,5.28,0.64,7.91c0.19,2.18,0.38,4.33,0.59,6.49
						c0.15,1.76,0.32,3.5,0.49,5.24c0.45,4.82,0.95,9.61,1.48,14.37c0.23,2,0.45,3.99,0.68,6c0.23,2.1,0.49,4.2,0.74,6.3
						c0.38,3.12,0.76,6.24,1.17,9.34c0.25,1.97,0.51,3.93,0.78,5.88c0.38,2.84,0.78,5.67,1.17,8.49c0.93,6.49,1.89,12.92,2.93,19.29
						c0.64,3.99,1.3,7.96,1.99,11.92c0.28,1.72,0.59,3.44,0.91,5.14c0.38,2.21,0.78,4.43,1.19,6.64c0.4,2.14,0.79,4.26,1.19,6.37
						c0.49,2.57,0.98,5.14,1.49,7.7c1.08,5.47,2.19,10.86,3.35,16.21c0.43,2.08,0.89,4.18,1.34,6.24c0.76,3.44,1.53,6.87,2.35,10.27
						c0.47,2.1,0.96,4.18,1.46,6.26c1.8,7.55,3.65,14.98,5.58,22.32c0.49,1.89,0.98,3.78,1.49,5.66
						c2.76,10.29,5.64,20.37,8.62,30.23c0.68,2.27,1.36,4.52,2.06,6.75c2.93,9.48,5.96,18.74,9.06,27.79
						c0.64,1.91,1.3,3.8,1.97,5.67c0.76,2.17,1.51,4.31,2.29,6.47c1.08,3.03,2.17,6.03,3.27,9.02c0.49,1.34,0.98,2.69,1.49,4.01
						c0.74,1.99,1.49,3.97,2.25,5.94c3.99,10.5,8.1,20.67,12.26,30.53c1.59,3.74,3.18,7.45,4.79,11.1c0.81,1.89,1.65,3.78,2.5,5.66
						c0.59,1.36,1.21,2.7,1.82,4.05c0.62,1.42,1.27,2.82,1.91,4.2c2.95,6.45,5.92,12.75,8.91,18.88c0.83,1.76,1.7,3.5,2.55,5.22
						c0.85,1.72,1.7,3.42,2.55,5.13c1.7,3.4,3.42,6.77,5.13,10.08c0.85,1.63,1.7,3.25,2.55,4.86c3.42,6.54,6.87,12.86,10.29,18.99
						c0.78,1.4,1.55,2.78,2.35,4.14c3.9,6.92,7.79,13.6,11.67,19.99c0.7,1.17,1.4,2.33,2.1,3.48c0.51,0.83,1.02,1.66,1.53,2.48
						c2.48,4.07,4.96,8,7.41,11.84c0.81,1.27,1.63,2.53,2.44,3.78c3.22,5.01,6.41,9.84,9.57,14.45c0.78,1.15,1.55,2.29,2.35,3.42
						c6.96,10.16,13.64,19.33,19.88,27.52c0.68,0.91,1.36,1.82,2.04,2.69c1.36,1.78,2.69,3.5,4.01,5.16
						c0.64,0.85,1.3,1.66,1.95,2.48c1.21,1.53,2.4,3.01,3.56,4.45c2.53,3.14,4.96,6.09,7.26,8.81c1.12,1.32,2.19,2.59,3.23,3.82
						c0.13,0.13,0.25,0.28,0.36,0.42c0.95,1.1,1.85,2.14,2.72,3.14c4.94,5.66,9.04,10.08,12.12,13.3c0.57,0.61,1.1,1.17,1.63,1.68
						c1.74,1.83,3.05,3.12,3.82,3.88C636.9,1533.44,636.96,1533.5,636.96,1533.5z"
                className="colorbe7974 svgShape"
              ></path>
              <path
                fill="#ffd7d7"
                d="M1238.55,1609.93l-10.67,11.92l-29.22,32.65l-8.51,9.51c-7.79-46.59-0.23-97.26,6.47-128.39
						c2.48-11.58,4.84-20.45,6.24-25.42c0.3-1.06,0.57-1.95,0.76-2.65c0.36-1.21,0.57-1.85,0.57-1.85c0.45,0.91,0.93,1.87,1.4,2.88
						C1220.43,1540.08,1238.55,1609.93,1238.55,1609.93z"
                className="colorffd7d7 svgShape"
              ></path>
              <path
                fill="#eec692"
                d="M1413.73,1431.82c0,0-26.39,62.66-61.57,101.15c0,0-6.43-1.25-10.61-7.81c-4.63-7.28-6.53-21.15,6.2-47.17
						c0,0,30.79-37.37,42.88-83.56c0,0,8.63,13.88,15.43,24.89C1409.59,1425.01,1412.61,1429.94,1413.73,1431.82z"
                className="coloreec692 svgShape"
              ></path>
              <path
                fill="#eec692"
                d="M1353.73 1531.21c-.51.59-1.04 1.17-1.57 1.76 0 0-28.6-5.5-4.41-54.98 0 0 .04-.04.09-.11 1.38 26.57.55 47.47.55 47.47l-.25.28C1350.2 1527.47 1352.07 1529.32 1353.73 1531.21zM1408.55 1423.34c-6.15-9.48-12.37-18.57-18.42-27.07.19-.61.34-1.23.51-1.85C1390.64 1394.42 1401.59 1412.05 1408.55 1423.34z"
                className="coloreec692 svgShape"
              ></path>
              <path
                fill="#db7789"
                d="M1200.24,1506.28c-6.81-1.61-12.2-16.87-12.52-35.77c-0.02-0.61-0.02-1.19-0.02-1.8
						c0-14.3,2.91-26.76,7.19-33.14c1.95-2.91,4.18-4.56,6.54-4.56c1.46,0,2.86,0.62,4.16,1.76c5.56,4.84,9.59,19.1,9.59,35.94
						c0,18.21-4.71,33.42-10.97,36.96c0-0.02-0.02-0.02-0.02-0.04c0,0,0,0.02-0.02,0.06c-0.89,0.47-1.8,0.74-2.74,0.74
						C1201.04,1506.43,1200.64,1506.38,1200.24,1506.28z"
                className="colordb7789 svgShape"
              ></path>
              <path
                fill="#db7789"
                d="M1351.99,1584.32c-25.78,39.28-87.55,78.99-101.48,67.41c-6.03-5.03-8.13-20.24-11.97-41.8
						c-4.69-26.46-12.05-62.49-32.66-101.17c-0.55-1.02-1.1-2.06-1.66-3.08c6.26-3.54,10.97-18.74,10.97-36.96c0,0,0.02,0,0.08,0.02
						c0.04,0.02,0.08,0.04,0.11,0.04c4.73,1.15,96.05,23.93,132.78,56.86c6.81,6.11,11.75,12.54,13.9,19.27
						C1365.76,1556.44,1361.15,1570.36,1351.99,1584.32z"
                className="colordb7789 svgShape"
              ></path>
              <path
                fill="#db7789"
                d="M1348.4 1525.35l-.25.28c-37.71-33.8-132.97-56.91-132.97-56.91 0-16.83-4.03-31.09-9.59-35.94 0 0 .02-.02.04-.04l.13-.15c0 0 58.9-75.39 103.67-64.4C1354.21 1379.2 1348.4 1525.35 1348.4 1525.35zM1187.7 1468.72c0 .61 0 1.19.02 1.8l-1.91.02c0 0-92.6 32.06-126.93 69.3l-.28-.25c0 0-19.71-144.94 23.81-160.15 42.92-15 107.49 52.28 109.31 54.21.02.02.04.02.04.02l3.14 1.91C1190.62 1441.95 1187.7 1454.42 1187.7 1468.72z"
                className="colordb7789 svgShape"
              ></path>
              <path
                fill="#dd9762"
                d="M1616.17,1729.58c-2.42,7.19-5.31,14.24-8.61,21.11c-28.22,58.75-86.21,103.65-137.03,97.16
					c-72.55-9.25-106.96-122.94-83.2-195.42c0.17-0.53,0.34-1.04,0.51-1.55c-8.13,86.74,76.96,210.19,161.51,129.56
					c83.81-79.89,30.43-187.82,29.49-189.73c0.79,0.83,25.4,26.39,37.19,63.74C1622.9,1676.32,1625.4,1702.23,1616.17,1729.58z"
                className="colordd9762 svgShape"
              ></path>
              <path
                fill="#cfcbe2"
                d="M1198.66 1654.49l-8.51 9.51c-7.79-46.59-.23-97.26 6.47-128.39.23-.17.34-.25.34-.25C1190.03 1578.42 1191.7 1617.99 1198.66 1654.49zM1202.85 1510.2c-.91-2.44-1.42-3.76-1.42-3.76l2.18 1.12 1.97 1.02c14.85 31.51 32.97 101.36 32.97 101.36l-10.67 11.92C1224.61 1572.63 1207.85 1523.85 1202.85 1510.2zM1536.18 2047.27c-.78 3.86-9.72 12.58-23.68 24-52.07 42.52-173.63 122.17-197.62 123.11-28.6 1.15-95.95-98.9-103.8-110.72 39.32-25.27 69.28-48.5 76.17-59.75 20.54-33.63 18.67-91.51-57.9-235.31-14.28-26.84-24.12-53.49-30.64-79.12 3.84-3.95 7.49-7.81 10.97-11.5 35.84 113.6 112.54 218.29 111.24 270.42-1.89 75.57-70.37 117.29-70.37 117.29s24.82 47.91 61.31 64.32c36.47 16.42 192.81-102.12 178.48-134.7-28.87-65.62-50.81-157.13-50.81-157.13-74.79-32.82-82.09-158.67-76.6-184.21 5.47-25.53-18.25-52.88-18.25-52.88-51.33 47.59-85.49 58.2-103.03 41.25 5.75-6.73 8.87-10.61 8.87-10.61 13.92 11.58 75.69-28.13 101.48-67.41l.13.17 17.89 25.78c6.53 11.37 13.22 25.84 17.17 42.12l.13.04c-23.76 72.48 10.65 186.17 83.2 195.42C1463.23 1935.41 1539.83 2029.03 1536.18 2047.27zM771.29 1856.71l.53-.89c0 0 50.01-59.26 67.01-122.45 11.35-11.95 22.81-24.42 34.06-36.98-.57 1.82-1.17 3.67-1.82 5.56-35.09 103.52-30.92 148.82-15.85 182.45-8.95 4.61-17.27 9.23-25.04 13.86C820.35 1887.71 795.03 1871.1 771.29 1856.71z"
                className="colorcfcbe2 svgShape"
              ></path>
              <path
                fill="#cfcbe2"
                d="M1190.14 1664.01c-5.64 5.48-11.5 11.03-17.59 16.55-3.54-15.89-4.5-24.49-4.5-24.49 11.23-11.33 2.27-62.51 23.51-126.88 5.39-10.04 9.76-16.7 10.95-18.5C1197.09 1528.01 1180.8 1588.24 1190.14 1664.01zM1287.25 2023.91c-6.88 11.25-36.85 34.48-76.17 59.75-78.02 50.12-192.87 108.28-237.58 97.11-67.22-16.8-151.26-93.36-151.26-93.36l-1.36-.55c8.8-21.83 16.32-41.91 21.77-57.2 14.98-41.97 15.79-70.74 10.23-91.79l-.34-.51c7.81-5.13 15.93-10.1 24.32-14.96 24.72 43.69-20.33 105.69-17.95 129.73 2.44 24.32 60.79 70.53 111.86 89.98 51.07 19.46 228.04-64.31 286.29-134.61 37.79-45.61 10.4-89.11-35.81-188.82-17.19-37.07-28.94-69.06-36.94-94.61 5.03-4.99 9.84-9.87 14.39-14.58 6.53 25.63 16.36 52.28 30.64 79.12C1305.92 1932.4 1307.79 1990.28 1287.25 2023.91z"
                className="colorcfcbe2 svgShape"
              ></path>
              <path
                fill="#e2a383"
                d="M1358.16,2321.18c-0.76,3.71-8.95,42.41-36.07,122.51c-10.69,31.51-24.3,69.42-41.55,114.13
					c-12.62,32.72-27.35,61.55-42.86,86.72c-9.8-2.36-19.07-5.07-27.84-8c30.53-52.37,134.12-280.46,62.68-255.97
					c-61.77,21.18-139.93,24.51-162.97,25.04c-0.02-22.13-1.21-36.83-1.21-36.83l0.02-0.36c60.17,1.89,127.14-7.72,189.35-42.52
					C1297.71,2325.91,1321.62,2326.95,1358.16,2321.18z"
                className="colore2a383 svgShape"
              ></path>
              <path
                fill="#ba495f"
                d="M1237.68,2644.54c-62.34,101.38-137.11,143.75-137.11,143.75l-1.08,0.23
					c-5.35-24.83-10.84-53.66-15.6-83.2c-7.21-44.85-12.73-91.34-13.54-128.05c0,0,34.63,134.23,45.09,144.69
					c10.48,10.48,64.93-37.7,92.15-81.67c0.7-1.12,1.44-2.36,2.25-3.74C1218.61,2639.47,1227.88,2642.18,1237.68,2644.54z"
                className="colorba495f svgShape"
              ></path>
              <path fill="#708391" d="M528.45,1025.42l19.35,48.38C541.12,1058.47,534.65,1042.35,528.45,1025.42z" className="color708391 svgShape"></path>
              <path
                fill="#754545"
                d="M942.29,1370.7l0.15,0.59c-48.53,12.9-128.05,52.07-203.31,96.48c-134.95-162.4-185.7-379.86-185.7-379.86
						l-5.64-14.11c109.99,252.58,278,294.08,278,294.08l-66.18-85.7c0,0,71.5,40.33,217.19,61.68L942.29,1370.7z"
                className="color754545 svgShape"
              ></path>
              <path
                fill="#e2a383"
                d="M1576.26,1180.71c-2.18,3.06-9.89,13.5-23.55,27.88c11.82-45.96,14.53-93.74,14.53-93.74
						c-10.76,15.07-53.81,43.07-53.81,43.07c43.05-103.33,27.99-254.02,27.99-254.02c-12.92,30.15-27.99,45.21-27.99,45.21
						c-21.52-148.51-116.23-292.74-116.23-292.74c-6.47,174.35-122.7,320.73-122.7,320.73l-6.47-38.76
						c-12.92,45.21-45.21,77.49-45.21,77.49c-96.86-10.76-142.07-96.86-142.07-96.86c0,51.65-17.21,73.18-17.21,73.18
						c-234.63-178.66-222.9-612.05-222.9-612.05c-248.6,308.26-22.55,789.98-22.55,789.98C704.9,1142.32,649.61,1045,648.76,1043.3
						c33.5,38.41,75.73,73.35,128.65,97.47c0,0-247.76-499.96,84.81-845.9c0,0-4.46,477.64,196.41,658.42c0,0,6.09-37.28,0.95-89.16
						l1.29-0.11c0,0,98.2,124.99,154,131.68c0,0,34.59-45.66,57.92-128.52l4.58,1.31c0,0,13.39,35.71,8.93,75.88
						c0,0,91-158.71,87.95-372.69l3.57-0.06c0,0,100.43,95.97,149.54,328.11c0,0,8.06-35.99,12.62-93.8l0.78,0.06
						c0,0,51.33,145.07,0,316.93c0,0,19.54-24.15,44.73-68.22C1586.13,1062.14,1589.8,1111.81,1576.26,1180.71z"
                className="colore2a383 svgShape"
              ></path>
              <path
                fill="#8e5252"
                d="M825.81 1367.88c0 0-183.31-130.94-261.88-451.74 0 0 38.48 80.52 84.83 127.16C648.76 1043.3 714.51 1266.4 825.81 1367.88zM1286.3 944.34l-.02.02c4.46-40.17-8.93-75.88-8.93-75.88l-4.58-1.31c-23.32 82.86-57.92 128.52-57.92 128.52-55.8-6.7-154-131.68-154-131.68l-1.29.11c5.14 51.88-.95 89.16-.95 89.16C857.76 772.5 862.23 294.86 862.23 294.86c-332.57 345.94-84.81 845.9-84.81 845.9-52.9-24.1-95.14-59.03-128.64-97.43 0-.02 128.64 97.45 128.64 97.43 0 0-246.53-505.56 84.81-845.9 0 0 25.78 316.85 159.98 559.09 0 0 19.65-36.01 13.11-91.66 0 0 68.73 117.84 140.76 157.12 0 0 114.56-147.3 108.02-317.53C1284.09 601.88 1340.85 789.24 1286.3 944.34zM1366.91 464.48c0 0 111.51 106.69 149.33 257.95 0 0 24.51-162.34-50.82-353.56 0 0 123.87 276.55 61.93 530.85 0 0-38.58-212.16-153.11-328.05C1374.24 571.67 1381.39 513.73 1366.91 464.48z"
                className="color8e5252 svgShape"
              ></path>
              <path
                fill="#8e5252"
                d="M1543.64,728.13c0,0,58.54,112.91,53.38,221.2c0,0,68.3-64.75,91.48-218.31c0,0-5.8,213.01-147.76,391.88
						c0,0,53.49-155.17-0.78-316.98L1543.64,728.13z"
                className="color8e5252 svgShape"
              ></path>
              <path
                fill="#8e5252"
                d="M1617.65,997.46c0,0,10.31,170.18-39.54,266.44c0,0,110.01-96.26,144.39-249.25
						c0,0-37.1,259.84-253.19,400.65c0,0,144.14-189.95,116.15-360.62L1617.65,997.46z"
                className="color8e5252 svgShape"
              ></path>
              <path
                fill="#8e5252"
                d="M1738.3,1241.56c3.5-11.16,6.62-22,9.32-32.44c-10.69,52-30.87,132.68-65.52,214.98
						c-1.93,4.58-3.8,9.12-5.64,13.6c-53.24,131-60.45,216.76-60.45,216.76c-11.97-37.98-37.2-63.76-37.2-63.76l-0.76-0.04
						c0.3-7.38,0.23-14.41-0.13-20.84c-0.62-11.65-7.6-21.35-17.46-28.62c10.25-28.83,28.79-83.53,45.04-145.36
						c0.66-2.53,1.32-5.07,1.99-7.62c12.52-48.67,23.4-101.21,27.61-148.68c0-0.09,0.02-0.21,0.02-0.3l25.08-41.29
						c0,0-12.77,218.82-63.82,364.72C1598.28,1559.17,1695.51,1378.1,1738.3,1241.56z"
                className="color8e5252 svgShape"
              ></path>
              <path
                fill="#8a9baa"
                d="M1757.78,1151.66c0.02-0.04,0.02-0.06,0.02-0.08c-1.08,16.72-4.69,36.16-10.14,57.35
						C1754.53,1175.53,1757.48,1154.02,1757.78,1151.66z"
                className="color8a9baa svgShape"
              ></path>
              <path
                fill="#8e5252"
                d="M636.96,1533.5c-44.9,31.81-78.95,61.13-89.31,80.29c-17.06,31.55-17.99,55-14.13,71.02l-0.45,0.11
						c-109.44,12.16-223.74-48.65-223.74-48.65s43.77-170.23,19.46-175.09c-24.32-4.86-80.25,194.55-80.25,194.55
						c-144.79-21.71-244.05-129.62-245.6-131.3c106.41,73.94,223.13,72.5,223.13,72.5s90.15-200,112.67-180.27
						c22.55,19.71,22.55,188.73,22.55,188.73c22.53,11.27,138.02,28.16,138.02,28.16c11.27-70.42,56.35-107.04,56.35-107.04
						c-170.38-253.15-151.47-590.39-143.18-677.4v-0.09c1.31-13.64,2.35-21.09,2.35-21.09c-6.24,182.94,22.38,326.95,60.98,435.84
						c64.4,181.73,156.63,265.67,161,269.57C636.9,1533.44,636.96,1533.5,636.96,1533.5z"
                className="color8e5252 svgShape"
              ></path>
              <path
                fill="#eaedef"
                d="M1711.27,430.1c0,0-9.78-25.23-29.92-61.76c-33.46-60.7-95.55-152.6-188.93-211.82
						c0,0,127.67-94.85,222.51,21.88c8.42,10.35,15.3,20.84,20.86,31.38C1793.07,318.01,1711.27,430.1,1711.27,430.1z"
                className="coloreaedef svgShape"
              ></path>
              <path
                fill="#d3e1ed"
                d="M1711.27,430.1c0,0-9.78-25.23-29.92-61.76c38.85-38.85,50.8-112.52,54.43-158.56
						C1793.07,318.01,1711.27,430.1,1711.27,430.1z"
                className="colord3e1ed svgShape"
              ></path>
              <path
                fill="#eaedef"
                d="M603.05,226.83c-10.78,9.55-20.96,19.6-30.55,29.96c-83.07,89.65-121.79,201.72-121.79,201.72
						s-154.74-83.32-71.42-214.24c10.36-16.3,21.62-28.81,33.38-38.21C495.39,139.84,603.05,226.83,603.05,226.83z"
                className="coloreaedef svgShape"
              ></path>
              <path
                fill="#d3e1ed"
                d="M603.05,226.83c-10.78,9.55-20.96,19.6-30.55,29.96c-62.02-61.62-141.02-53.68-159.83-50.73
						C495.39,139.84,603.05,226.83,603.05,226.83z"
                className="colord3e1ed svgShape"
              ></path>
              <path
                fill="#ffffff"
                d="M355.33 500.36c8.21 7.38 16.53 14.19 24.7 20.39-16.23 131.3-36.18 295.91-126.2 551.62-133.88 380.27-250.9 452.07-250.9 452.07s0-.02 0-.04c1.8-1.93 117.65-126.8 238.3-481.48 121.6-357.48 111.86-539.87 111.86-539.87L355.33 500.36zM1720.52 74.98c-69.96-26.4-202.29-53.53-319.46 51.73 0 0-443.79-232.49-789.05 2.7 0 0-3.84-.81-10.55-1.1-5.01-2.42-10.19-4.77-15.51-6.98 10.54-8.53 312.69-247.32 805.5-21.37C1391.45 99.97 1567.28-35.55 1720.52 74.98z"
                opacity=".5"
                className="colorfff svgShape"
              ></path>
              <path
                fill="#ffffff"
                d="M461.49,549.98c-1.83,5.62-3.63,11.31-5.37,17.06c-8.8-4.03-56.5-26.78-100.79-66.67
						c-63.7-57.39-120.39-150.2-44.43-273.82c32.85-53.45,68.51-86.23,104.39-104.61C369,153.25,283.15,228.02,289.73,348.62
						C295.84,460.51,423.4,531.29,461.49,549.98z"
                className="colorfff svgShape"
              ></path>
              <path
                fill="#ffffff"
                d="M861.35 79.91c0 0-378.7 184.92-427.64 664.62-53.42 523.58 216.07 776.24 216.07 776.24l-12.99 12.58c0 0-282.47-304.4-216.81-804.14S861.35 79.91 861.35 79.91zM1293.15 255.6c0 0 147.27 366.2-6.84 688.74C1286.3 944.34 1475.36 580.54 1293.15 255.6z"
                opacity=".5"
                className="colorfff svgShape"
              ></path>
              <path fill="#8e5252" d="M533.93,799.2c0,0,63.77,179.18,212.58,267.25l30.91,74.32C777.42,1140.76,579.48,1057.33,533.93,799.2z" className="color8e5252 svgShape"></path>
              <path fill="#ffffff" d="M746.51,1066.44c0,0-239.91-446.42,115.72-771.58C862.23,294.86,552.15,562.32,746.51,1066.44z" opacity=".5" className="colorfff svgShape"></path>
              <path
                fill="#dd9762"
                d="M987.19,1560.91c-15.81,20.31-84.11,104.71-148.36,172.46c-39.57,41.69-77.59,77.08-100.93,87.33
						c-5.45,2.38-11.07,4.07-16.7,5.16c-36.75,7.24-74.65-9.61-74.65-9.61l-1.95,0.04c-1.19-12.58-2.55-24.19-3.06-32.02
						c-1.7-26.71-50.58-67.62-86.38-71.04c-2.17-0.21-4.39-0.28-6.68-0.25l-0.02-1.3c0,0-10.57-8.63-14.94-26.86
						c-3.86-16.02-2.93-39.47,14.13-71.02c0,0-5.05,64.67,20.62,67.01c25.69,2.33,84.02,49.01,105.03,100.36
						c21.01,51.33,261.39-182.05,294.07-247.4c32.66-65.35,42.43-143.35,10.71-166.2
						C1041.91,1382.17,1012.73,1528.07,987.19,1560.91z"
                className="colordd9762 svgShape"
              ></path>
              <path
                fill="#ba495f"
                d="M1348.4 1525.35l-.25.28c-37.71-33.8-132.97-56.91-132.97-56.91 32.84-8.28 105.79 31.38 110.65 22.87 4.86-8.51 4.86-76.6-21.88-97.28-26.4-20.37-96.46 36.92-98.32 38.43l.13-.15c0 0 58.9-75.39 103.67-64.4C1354.21 1379.2 1348.4 1525.35 1348.4 1525.35zM1185.81 1470.53c0 0-92.6 32.06-126.93 69.3l-.28-.25c0 0-19.71-144.94 23.81-160.15 42.92-15 107.49 52.28 109.31 54.21-2.02-1.32-79.38-51.54-102.87-31.25-23.79 20.54-18.38 96.22-14.05 102.7S1162.78 1461.91 1185.81 1470.53z"
                className="colorba495f svgShape"
              ></path>
              <path
                fill="#ba495f"
                d="M1351.99 1584.32c-25.78 39.28-87.55 78.99-101.48 67.41-6.03-5.03-8.13-20.24-11.97-41.8-4.69-26.46-12.05-62.49-32.66-101.17 31.13 18.97 48.4 105.6 57.05 118.54 8.64 12.98 85.42-37.85 75.68-78.93-9.49-40.12-118.14-77.83-123.23-79.59 4.73 1.15 96.05 23.93 132.78 56.86 6.81 6.11 11.75 12.54 13.9 19.27C1365.76 1556.44 1361.15 1570.36 1351.99 1584.32zM1200.06 1506.72c-32.02 74.67-19.48 136.71-32 149.35-17.27 17.44-131.08-50.58-121.18-95.71 1.51-6.9 5.81-13.79 12.01-20.52 33.69-36.54 123.51-68.11 126.84-69.26-3.67 1.93-124.87 65.35-117.42 99.41 7.57 34.61 72.44 72.44 82.16 61.64C1160.03 1621 1174.07 1513.71 1200.06 1506.72z"
                className="colorba495f svgShape"
              ></path>
              <path
                fill="#e2a383"
                d="M1578.06 1590.66c-1.61 41.76-14.87 94-54.13 104.26 51.54-59.56 36.83-152.01 36.54-153.7 9.85 7.24 16.83 16.95 17.46 28.6C1578.28 1576.25 1578.36 1583.28 1578.06 1590.66zM1488.06 1555.38c0 0-12.94 4.97-14.56 20.3-.15-.28-.27-.61-.4-.93-6.13-16.1-2.63-32.19.04-40.46 18.93-10.44 39.89-8.53 39.89-8.53l.02.55C1494.42 1526.77 1480.84 1535.71 1488.06 1555.38z"
                className="colore2a383 svgShape"
              ></path>
              <path
                fill="#dd9762"
                d="M1435.24,1569.64c0.93,3.16,2.59,6.9,5.56,9.84l-0.38,0.38c-19.43,18.95-40.46,42.76-50.12,64.76
						c-1.42,0.11-2.19,0.15-2.19,0.15l-7.21-12.07l-28.9-48.38l4.65-6.41c0,0,19.67,9.84,27.54,23.59
						c7.87,13.77,51.58-36.39,45.7-85.55c-1.91-15.87-11.8-40.42-24.34-66.39c5.24-10.74,8.19-17.74,8.19-17.74
						c-0.83-1.38-2.69-4.41-4.99-8.17c7.41,11.42,14.72,23.42,21.47,35.65c1.04,1.91,2.08,3.82,3.1,5.73
						c0.45,0.83,0.91,1.68,1.34,2.53c1.34,2.53,2.67,5.09,3.93,7.66c1.55,3.06,3.06,6.17,4.5,9.25c0.62,1.32,1.23,2.63,1.82,3.93
						c0.64,1.4,1.27,2.8,1.87,4.18c0.62,1.4,1.23,2.78,1.8,4.18c0.55,1.27,1.08,2.53,1.57,3.8c0.64,1.51,1.23,3.03,1.82,4.54
						c0.55,1.38,1.06,2.76,1.57,4.14c1.44,3.84,2.74,7.66,3.92,11.46c0.25,0.76,0.49,1.51,0.7,2.27c0.45,1.44,0.87,2.88,1.25,4.29
						c0.32,1.13,0.64,2.27,0.93,3.4c0.62,2.38,1.19,4.77,1.7,7.11l3.1,1.83c-12.62,10.12-21.58,16.72-26.52,20.26
						C1435.5,1562.08,1434.18,1566.01,1435.24,1569.64z"
                className="colordd9762 svgShape"
              ></path>
              <path
                fill="#e2a383"
                d="M1304.56,1342.67l-1.72,12.63c-98.47,28.96-206.96,10.95-221.11,8.4l-7.72-12.67
						C1074.01,1351.03,1229.3,1367.77,1304.56,1342.67z"
                className="colore2a383 svgShape"
              ></path>
              <path
                fill="#dd9762"
                d="M1589.18,2203.5c-77.79,80.48-171.29,108.23-231.02,117.68c-36.54,5.77-60.45,4.73-60.45,4.73
						c-62.21,34.8-129.18,44.41-189.35,42.52c-12.33-0.38-24.36-1.27-36.01-2.5c-88.69-9.42-155.02-40.02-155.02-40.02
						c-67.41,9.17-113.94-5.18-144.77-23.78c-35.1-21.18-49.82-47.87-51.73-51.58c77.79,82.43,193.93,50.2,193.93,50.2
						c234.52,109.99,378.46-3.23,378.46-3.23c142.33,16.17,255.53-77.62,258.77-97.05c3.23-19.41-33.95-69.53-53.36-79.23
						c-19.42-9.72-163.36,101.89-197.33,92.19c-33.95-9.72-95.42-98.68-95.42-98.68s-148.78,100.28-226.42,85.72
						c-77.62-14.54-158.56-113.62-158.56-113.62l1.36,0.55c0,0,84.04,76.57,151.26,93.36c44.71,11.18,159.56-46.98,237.58-97.11
						c7.85,11.82,75.2,111.88,103.8,110.72c23.98-0.95,145.55-80.59,197.62-123.11l0.81,1c0,0,13.9,30.62,39.45,64.69
						C1583.28,2177.62,1589.18,2203.5,1589.18,2203.5z"
                className="colordd9762 svgShape"
              ></path>
              <path
                fill="#e2a383"
                d="M640.67,1881.03c-0.17-41.91-12.77-101.27-12.77-101.27c-17.59-39.98-71.65-61.74-84.7-66.48
						c1.78-0.19,3.54-0.28,5.28-0.3c2.29-0.04,4.5,0.04,6.68,0.25c35.8,3.42,84.68,44.33,86.38,71.04
						c0.51,7.83,1.87,19.44,3.06,32.02C646.98,1841.5,648.57,1870.61,640.67,1881.03z"
                className="colore2a383 svgShape"
              ></path>
              <path
                fill="#8a9baa"
                d="M1250.52,1651.73c0,0-19.99,24.87-51.81,57.74c-37.41,38.68-100.59,86.25-157.39,119.61
						c-67.26,39.49-131.91,70.89-188.78,108.27c-11.29,7.41-21.88,15.15-31.62,23.36c-17.87,15.04-32.84,31.64-43.71,50.67
						l-4.73,2.72c-6.85-1.59-13.5-3.59-19.82-5.81c78.44-133.55,198.71-110.53,400.51-283.26c34.56-29.58,64.82-58.26,91.22-85.47
						C1245.98,1645.36,1247.89,1649.52,1250.52,1651.73z"
                className="color8a9baa svgShape"
              ></path>
              <path
                fill="#e5a26a"
                d="M1413.73,1431.82c0,0-26.39,62.66-61.57,101.15c0,0-6.43-1.25-10.61-7.81
						c37.3-51.13,56.69-88.93,64.52-105.84C1409.59,1425.01,1412.61,1429.94,1413.73,1431.82z"
                className="colore5a26a svgShape"
              ></path>
              <path
                fill="#8a9baa"
                d="M701.44 1983.36c-32.53 69.21-73.48 168.98-98.2 196.27-3.88 4.29-7.36 6.79-10.35 7.09-31.64 3.27-124.15-77.85-123.06-123.64.23-9.15 3.65-21.56 9.02-35.58 4.14 11.78 33.02 88.71 85.21 98.79 56.53 10.95 93.29-209.16 157.39-239.53 19.45-9.22-19.36-41.77-76.5-66.51-.11-1.34-.23-2.67-.36-3.97l1.95-.04c0 0 37.9 16.85 74.65 9.61l.38 2.02c0 0 23.91 13.13 49.71 28.83 23.74 14.39 49.06 31 58.9 41.55-11.93 7.09-22.53 14.17-31.91 21.09l-.59-.79c0 0-27.03-23.06-56.48-3.42C732.25 1921.11 717.93 1948.31 701.44 1983.36zM842.65 2029.66c-5.45 15.28-12.98 35.37-21.77 57.2-28.41 70.47-70.29 159.22-100.06 163.7-7.09 1.06-13.51-2.67-18.88-12.58 0 0 78.21-131.95 107.91-220.2 7.74-23.04 12.18-43.11 11.06-57.06 9.74-8.21 20.33-15.94 31.62-23.36l.34.51C858.45 1958.92 857.63 1987.69 842.65 2029.66z"
                className="color8a9baa svgShape"
              ></path>
              <path
                fill="#e2a383"
                d="M1083.88,2705.31l-0.74,0.11c-8.36,2.1-16.83,3.8-25.36,5.13c-5.83-35.1-10.93-72.16-12.82-106.81
						c-5.9-108.32,17.74-208.76-90.58-228.47c-99.09-18.01-158.63-40.97-168.07-44.77c-8.53-16.72-14.2-25.34-14.2-25.34l0.45-3.03
						c30.83,18.59,77.36,32.95,144.77,23.78c0,0,66.33,30.6,155.02,40.02l-0.19,1.82c2.17,13.83,2.65,33.14,2.27,56.89
						c-0.55,36.3-3.01,82.98-4.12,136.39c-0.11,5.14-0.09,10.57,0.04,16.23C1071.15,2613.98,1076.68,2660.47,1083.88,2705.31z"
                className="colore2a383 svgShape"
              ></path>
              <path
                fill="#ba495f"
                d="M978.87,2891.86c-20.33-10.69-36.98-29.98-50.82-54.85c0.89,0.96,1.78,2.01,2.69,3.08
						c61.06,72.88,141.8,47.27,149.69,25.59c5.35-14.73-10.25-80.48-22.64-155.13c8.53-1.32,17-3.03,25.36-5.13l0.74-0.11
						c0,0,0.38,2.25,1.02,6.24c4.52,27.35,9.61,53.89,14.58,76.96c6.75,31.28,13.3,56.27,17.91,68.39
						C1132.13,2895.57,1057.76,2933.34,978.87,2891.86z"
                className="colorba495f svgShape"
              ></path>
              <g>
                <path
                  fill="#603745"
                  d="M833.21,1373.56c-0.75,0-1.49-0.28-2.06-0.85l-0.02-0.02c-1.29-1.14-34.89-31.24-74.59-88.37
						c-49.75-71.65-86.97-152.49-110.62-240.28l-0.8-2.95c-0.42-1.55,0.51-3.15,2.06-3.57c1.55-0.42,3.15,0.5,3.57,2.06l0.79,2.95
						c23.47,87.14,60.4,167.37,109.77,238.47c39.3,56.56,72.4,86.21,73.79,87.45c0.04,0.04,0.11,0.1,0.15,0.14
						c1.14,1.14,1.14,2.98,0,4.12C834.71,1373.28,833.96,1373.56,833.21,1373.56z"
                  className="color603745 svgShape"
                ></path>
                <path
                  fill="#603745"
                  d="M833.19 1373.54c-.31 0-.62-.05-.93-.15-106.86-36.01-186.03-129.89-233.62-202.3-51.48-78.32-78.15-149.12-78.41-149.83-.56-1.51.2-3.19 1.71-3.75 1.51-.56 3.19.2 3.75 1.71.26.7 26.75 70.99 77.89 148.77 47.08 71.61 125.3 164.41 230.54 199.87 1.53.51 2.35 2.17 1.83 3.69C835.55 1372.78 834.41 1373.54 833.19 1373.54zM777.42 1143.68c-.41 0-.82-.09-1.21-.26-48.46-22.08-92.09-55.13-129.66-98.22-93.1-106.74-119.5-241.78-119.75-243.14-.3-1.58.74-3.11 2.32-3.41 1.58-.31 3.11.74 3.41 2.32.25 1.34 26.38 134.88 118.42 240.39 35.14 40.29 75.62 71.66 120.42 93.33-13.35-29.3-61.72-142.91-79.14-286.81-11.87-98.03-7.28-190.76 13.63-275.61C732 466.14 783.91 372.12 860.13 292.84c.83-.86 2.1-1.13 3.2-.68 1.11.45 1.83 1.53 1.81 2.73-.01 1.19-.84 120.85 22.85 261 21.52 127.35 68.2 297.8 168.48 391.47 1.42-12.13 4.12-43.41.2-82.94-4.16-41.92-14.36-80.95-30.32-116.01-1.23-2.72-2.51-5.44-3.82-8.09-.71-1.44-.12-3.19 1.32-3.9 1.45-.71 3.19-.12 3.9 1.32 1.34 2.71 2.65 5.49 3.9 8.26 16.22 35.63 26.59 75.28 30.81 117.84 5.12 51.66-.91 89.54-.97 89.92-.17 1.05-.91 1.93-1.91 2.28-1 .35-2.12.13-2.92-.58-46.15-41.54-85.24-102.18-116.19-180.24-24.7-62.3-44.3-135.8-58.26-218.45-20.41-120.82-22.67-226.49-22.9-254.62C693.06 479.07 679.68 695.82 698 847.19c20.08 165.82 81.41 291.03 82.03 292.28.55 1.11.34 2.44-.52 3.32C778.95 1143.37 778.19 1143.68 777.42 1143.68z"
                  className="color603745 svgShape"
                ></path>
                <path
                  fill="#603745"
                  d="M1214.87,998.61c-0.12,0-0.23-0.01-0.35-0.02c-56.35-6.76-151.9-127.63-155.94-132.77
						c-0.99-1.27-0.77-3.1,0.49-4.09c1.26-1,3.1-0.77,4.09,0.49c0.96,1.23,96.1,121.59,150.37,130.35
						c5.8-8.19,35.75-52.67,56.44-126.18c23.31-82.62,27.08-171.11,11.21-263.02c-0.27-1.59,0.79-3.09,2.38-3.37
						c1.57-0.27,3.09,0.79,3.37,2.38c16.03,92.77,12.21,182.13-11.34,265.6c-23.2,82.44-58.05,129.03-58.4,129.49
						C1216.63,998.18,1215.77,998.61,1214.87,998.61z"
                  className="color603745 svgShape"
                ></path>
                <path
                  fill="#603745"
                  d="M1286.29,947.27c-0.3,0-0.61-0.05-0.91-0.14c-1.31-0.43-2.14-1.72-1.99-3.09
						c4.34-39.03-8.63-74.19-8.76-74.54c-0.57-1.51,0.2-3.19,1.71-3.75c1.5-0.57,3.19,0.2,3.75,1.71c0.49,1.31,10.73,29.08,10,63.4
						c20.53-40.91,83.76-181.68,81.24-359.14c-1.58-110.42-28.05-215.88-78.7-313.45c-0.74-1.43-0.19-3.19,1.24-3.93
						c1.43-0.74,3.19-0.19,3.93,1.25c51.07,98.39,77.76,204.72,79.35,316.05c3.02,212.32-87.42,372.58-88.34,374.18
						C1288.28,946.73,1287.31,947.27,1286.29,947.27z"
                  className="color603745 svgShape"
                ></path>
                <path
                  fill="#603745"
                  d="M1527.35,902.64c-0.01,0-0.01,0-0.02,0c-1.37-0.01-2.55-0.97-2.84-2.31
						c-48.31-228.42-147.7-325.65-148.7-326.6c-1.16-1.11-1.2-2.96-0.09-4.12c1.11-1.16,2.96-1.21,4.12-0.09
						c1.04,0.99,25.76,24.88,56.85,77.63c27.51,46.67,65.03,125.28,90.49,238.12c2.75-15.51,7.03-43.33,9.89-79.56
						c8.81-112.22,2.97-278.93-74.81-435.89c-0.72-1.44-0.13-3.19,1.32-3.91c1.44-0.72,3.19-0.13,3.91,1.32
						c78.38,158.15,84.27,325.98,75.4,438.93c-4.52,57.35-12.59,93.84-12.68,94.2C1529.9,901.69,1528.71,902.64,1527.35,902.64z"
                  className="color603745 svgShape"
                ></path>
                <path
                  fill="#603745"
                  d="M1540.74,1125.82c-0.46,0-0.93-0.11-1.36-0.34c-1.23-0.65-1.83-2.08-1.43-3.41
						c50.45-168.9,0.56-313.68,0.05-315.12c-0.54-1.52,0.26-3.18,1.78-3.72c1.51-0.54,3.18,0.26,3.72,1.78
						c0.5,1.42,48.09,139.32,4.35,303.5c8.08-11.33,20.7-30.08,35.11-55.27c38.87-67.99,88.53-178.53,104.44-319.02
						c0.18-1.6,1.62-2.75,3.22-2.57c1.6,0.18,2.75,1.63,2.57,3.22c-16.01,141.48-66.03,252.8-105.17,321.26
						c-25.02,43.77-44.8,68.37-45,68.61C1542.44,1125.45,1541.6,1125.82,1540.74,1125.82z"
                  className="color603745 svgShape"
                ></path>
                <path
                  fill="#603745"
                  d="M1469.32 1418.22c-.81 0-1.62-.34-2.18-.98-.93-1.05-.98-2.62-.11-3.73 53.66-68.6 89.45-147.12 106.38-233.36 13.3-67.68 9.97-116.17 9.17-125.21-.05-.56-.08-.86-.09-.88-.19-1.6.96-3.04 2.55-3.23 1.59-.19 3.04.95 3.24 2.55 0 0 .04.35.1 1.05.81 9.17 4.2 58.39-9.26 126.84-15.95 81.22-48.45 155.66-96.69 221.54 28.48-20.74 93.5-74.24 149.77-165.37 41.41-67.05 70.5-141.81 86.45-222.22.31-1.58 1.85-2.6 3.43-2.29 1.58.31 2.61 1.85 2.29 3.43-16.09 81.09-45.44 156.51-87.21 224.15-74.94 121.36-165.44 176.76-166.34 177.3C1470.35 1418.08 1469.83 1418.22 1469.32 1418.22zM637.62 1537.06c-.7 0-1.41-.25-1.97-.76 0 0-.26-.24-.75-.73-7.51-7.29-75.3-75.26-134.68-204.92-34.19-74.66-59.15-155.69-74.19-240.86-18.63-105.52-22.05-217.93-10.16-334.13 6.77-66.09 19.38-129.84 37.47-189.47 24.97-82.3 60.91-158.72 106.82-227.16 37.15-55.37 80.96-105.78 130.22-149.83C781.84 107.44 861.9 75.09 862.7 74.77c1.49-.59 3.19.14 3.78 1.63.6 1.5-.13 3.19-1.63 3.79-.79.31-79.96 32.33-170.59 113.37-110.9 99.16-190.08 225.1-235.35 374.33-17.98 59.27-30.51 122.65-37.25 188.37-21.59 210.91 6.63 403.35 83.85 571.97 58.94 128.7 126.02 195.95 133.47 203.19.38.38.58.57.61.59 1.18 1.09 1.26 2.93.17 4.11C639.19 1536.74 638.41 1537.06 637.62 1537.06z"
                  className="color603745 svgShape"
                ></path>
                <path
                  fill="#603745"
                  d="M1616,1657.43c-1.61,0-2.92-1.31-2.92-2.92c0-0.22,0.03-0.44,0.08-0.66
						c11.49-75.68,36.82-148.7,63.64-226c29.32-84.51,59.63-171.89,78.14-276.93c22.26-126.32,22.54-255.77,0.88-395.74
						c-10.63-68.65-29.09-135.36-54.88-198.28c-88.74-216.55-237.91-323.99-239.41-325.05c-1.31-0.93-1.62-2.75-0.69-4.06
						c0.93-1.32,2.75-1.62,4.06-0.69c0.38,0.27,38.4,27.41,86.89,81.11c44.72,49.52,107.82,132.49,154.54,246.49
						c25.96,63.34,44.54,130.5,55.24,199.6c21.76,140.61,21.47,270.68-0.9,397.64c-18.59,105.5-48.99,193.1-78.38,277.82
						c-26.75,77.1-52.01,149.92-63.41,225.13c-0.03,0.17-0.06,0.33-0.12,0.48C1618.42,1656.56,1617.31,1657.43,1616,1657.43z
						 M1616.02,1654.46h0.02H1616.02z"
                  className="color603745 svgShape"
                ></path>
                <path
                  fill="#603745"
                  d="M1163.47 1359.74c-65.52 0-128.35-4.36-187.08-12.99-144.56-21.19-217.48-61.62-218.2-62.02-1.4-.79-1.9-2.57-1.11-3.97.79-1.4 2.56-1.9 3.97-1.11.71.4 72.82 40.32 216.18 61.33 65.12 9.57 135.32 13.87 208.67 12.76 54.19-.82 106.2-8.4 154.59-22.54 153.48-44.8 225.67-141.32 233.4-152.18.37-.52.56-.8.58-.83.88-1.35 2.68-1.73 4.03-.84 1.35.88 1.73 2.68.85 4.03 0 0-.23.36-.72 1.04-7.84 11.02-81.14 109.02-236.51 154.38-48.89 14.29-101.42 21.95-156.13 22.78C1178.45 1359.68 1170.94 1359.74 1163.47 1359.74zM701.65 1830.6c-29.59 0-54.99-11.11-56.28-11.69-1.47-.65-2.13-2.38-1.48-3.85.65-1.47 2.38-2.14 3.85-1.48.37.17 37.53 16.39 72.91 9.41 5.66-1.1 11.07-2.78 16.1-4.97 20.17-8.86 53.8-38.01 99.98-86.66 65.35-68.91 133.5-153.39 148.18-172.24 18.31-23.54 39.81-109.93 22.46-158.61-5.99-16.8-16.06-26.93-29.93-30.1-7.3-1.66-18.82-.42-34.23 3.7-75.41 20.04-216.8 99.58-304.55 161.77-47.62 33.74-79.02 61.9-88.43 79.3-13.99 25.86-18.65 49.06-13.86 68.95 4.06 16.95 13.86 25.21 13.96 25.29 1.24 1.02 1.42 2.86.4 4.1-1.02 1.24-2.85 1.43-4.09.41-.46-.38-11.39-9.47-15.93-28.44-5.14-21.33-.29-45.92 14.4-73.09 12.6-23.29 56-57.06 90.19-81.28 88.17-62.49 230.39-142.44 306.42-162.65 16.33-4.37 28.78-5.63 37.03-3.75 15.94 3.65 27.42 15.03 34.12 33.83 17.94 50.33-4.38 139.76-23.35 164.15-14.71 18.9-83.03 103.59-148.55 172.68-46.72 49.21-80.99 78.82-101.87 87.99-5.42 2.37-11.25 4.17-17.32 5.36C715 1830.05 708.22 1830.6 701.65 1830.6z"
                  className="color603745 svgShape"
                ></path>
                <path
                  fill="#603745"
                  d="M557.86,1894.16c-2,0-4.12-0.2-6.32-0.69c-5.77-1.26-11.24-4.3-16.27-9.05c-3.47,1.55-10.81,4-18.05,1.22
						c-6.31-2.42-10.93-8.13-13.71-16.95c-5.79-18.33-2.56-65.76-1.19-82.35c-8.62,4.9-26.49,13.54-39.37,9.69
						c-5.56-1.67-9.59-5.39-12-11.07c-2.99-7.05-1.4-15.65,4.6-24.88c15.05-23.15,57.98-49.45,92.89-50c2.44-0.04,4.75,0.04,7,0.26
						c36.47,3.49,87.22,45.54,89.02,73.76c0.32,4.9,0.97,11.25,1.73,18.6c0.43,4.22,0.89,8.71,1.33,13.33
						c3.36,35.63,4.2,68.97-12.32,71.72c-12.51,2.1-21.22-11.59-25.91-21.93c-1.87,8.48-5.84,19.36-14.17,24.29
						c-6.04,3.57-13.29,3.5-21.57-0.19C570.94,1891.4,565.2,1894.16,557.86,1894.16z M535.82,1877.96c0.77,0,1.53,0.3,2.09,0.88
						c4.64,4.78,9.64,7.78,14.87,8.92c10.49,2.33,18.75-3.5,18.83-3.56c0.87-0.63,2.03-0.73,2.99-0.25
						c7.03,3.45,12.93,3.82,17.52,1.11c11.65-6.88,12.94-30.79,12.95-31.03c0.07-1.42,1.16-2.59,2.57-2.76
						c1.44-0.17,2.74,0.72,3.14,2.09c2.49,8.63,11.58,30.58,23.42,28.61c13.44-2.23,8.95-49.79,7.47-65.42
						c-0.44-4.6-0.9-9.08-1.33-13.29c-0.76-7.41-1.42-13.81-1.74-18.82c-1.63-25.53-50.15-65.12-83.75-68.33
						c-2.03-0.19-4.1-0.26-6.35-0.23c-32.61,0.52-74.13,25.88-88.1,47.35c-3.41,5.25-6.9,12.88-4.12,19.43
						c1.72,4.06,4.44,6.6,8.3,7.76c14.58,4.38,39.24-11.84,39.49-12c0.94-0.62,2.15-0.65,3.11-0.07c0.96,0.58,1.51,1.66,1.4,2.78
						c-0.06,0.65-6.13,65.01,0.45,85.79c2.22,7.03,5.65,11.49,10.21,13.25c7.1,2.75,15-1.77,15.08-1.82
						C534.81,1878.1,535.32,1877.96,535.82,1877.96z"
                  className="color603745 svgShape"
                ></path>
                <path
                  fill="#603745"
                  d="M535.83 1883.79c-.11 0-.22-.01-.32-.02-1.6-.18-2.75-1.62-2.58-3.22.02-.2 2.24-20.43 1.69-34.8-.06-1.61 1.19-2.96 2.8-3.03 1.63-.07 2.96 1.19 3.03 2.8.57 14.82-1.62 34.82-1.72 35.67C538.56 1882.69 537.29 1883.79 535.83 1883.79zM573.34 1889.49c-.08 0-.16 0-.24-.01-1.61-.13-2.8-1.54-2.66-3.15.02-.27 2.23-27.13 1.14-36.97-.18-1.6.98-3.04 2.58-3.22 1.57-.17 3.04.98 3.22 2.58 1.15 10.39-1.03 36.96-1.13 38.09C576.11 1888.34 574.83 1889.49 573.34 1889.49zM985.82 2185.01c-4.83 0-9.19-.46-13.03-1.42-67.16-16.78-149.06-90.89-152.51-94.03-1.19-1.08-1.28-2.93-.19-4.12 1.09-1.19 2.93-1.28 4.12-.19.84.76 84.28 76.26 150 92.69 3.59.9 7.69 1.33 12.22 1.33 48.28.01 146.33-48.75 223.08-98.06 39.31-25.26 68.85-48.35 75.26-58.82 17.37-28.44 24.07-78.3-57.98-232.42-13.47-25.31-23.86-52.15-30.89-79.77-.09-.32-.12-.46-.15-.6-.35-1.57.64-3.13 2.21-3.48 1.57-.35 3.13.64 3.48 2.21.07.24.1.38.13.51 6.9 27.09 17.12 53.49 30.37 78.39 36.07 67.74 57.54 120 65.65 159.76 6.84 33.56 4.35 58.49-7.84 78.44-7.04 11.5-35.85 34.19-77.08 60.68C1135.17 2135.89 1035.78 2185.01 985.82 2185.01zM1190.22 1667.27c-1.37 0-2.61-1.02-2.89-2.41-.02-.09-.05-.33-.06-.42-10.9-88.36 12.88-156.13 14.15-159.68.37-1.18 1.48-2.03 2.78-2.03 1.61 0 2.92 1.31 2.92 2.92 0 .34-.07.71-.19 1.05h0c-1.01 2.8-24.66 69.56-13.88 156.97l0 0c.01.08.02.16.03.21.32 1.58-.72 3.04-2.3 3.36C1190.58 1667.26 1190.4 1667.27 1190.22 1667.27zM771.82 1858.73c-.66 0-1.33-.23-1.88-.69-1.23-1.04-1.39-2.88-.35-4.11.5-.59 49.79-59.51 66.43-121.33l.22-.84c.44-1.55 2.06-2.44 3.6-2 1.55.44 2.44 2.06 2 3.6l-.2.78c-16.97 63.07-67.09 122.95-67.59 123.55C773.47 1858.38 772.65 1858.73 771.82 1858.73z"
                  className="color603745 svgShape"
                ></path>
                <path
                  fill="#603745"
                  d="M729.22 1998.75c-.34 0-.68-.06-1.02-.18-1.51-.56-2.27-2.24-1.71-3.74.55-1.48 14.09-36.64 70.06-77.82 9.89-7.3 20.71-14.45 32.15-21.25 15.03-8.95 31.53-17.52 49.04-25.48 106.47-48.26 234.09-133.93 310.37-208.36 19.46-18.98 35.4-37.01 47.38-53.58.94-1.31 2.77-1.6 4.07-.66 1.31.94 1.6 2.77.66 4.07-12.17 16.85-28.33 35.13-48.03 54.34-76.7 74.84-205.02 160.99-312.03 209.49-17.31 7.86-33.62 16.33-48.47 25.18-11.27 6.7-21.93 13.74-31.67 20.93-54.4 40.03-67.93 74.82-68.06 75.16C731.51 1998.03 730.4 1998.75 729.22 1998.75zM777.21 2014.3c-.49 0-.99-.12-1.44-.38-1.4-.8-1.88-2.58-1.08-3.98 10.47-18.32 24.98-35.15 44.36-51.46 9.47-7.98 19.91-15.69 31.9-23.56 34.54-22.7 71.66-43.04 110.95-64.58 25.31-13.87 51.48-28.21 77.96-43.77 57.54-33.8 120.54-81.67 156.76-119.13 31.34-32.39 51.43-57.3 51.63-57.54 1.01-1.26 2.85-1.45 4.1-.45 1.25 1.01 1.46 2.84.45 4.1-.2.25-20.44 25.35-51.98 57.95-36.55 37.79-100.05 86.06-158 120.1-26.56 15.6-52.77 29.96-78.11 43.85-39.19 21.48-76.2 41.77-110.55 64.34-11.8 7.74-22.05 15.32-31.35 23.15-18.85 15.85-32.93 32.17-43.06 49.89C779.2 2013.77 778.22 2014.3 777.21 2014.3z"
                  className="color603745 svgShape"
                ></path>
                <path
                  fill="#603745"
                  d="M802.97,2020.74c-9.73,0-20.17-1.27-31.14-3.79c-14.34-3.32-29.46-8.76-44.96-16.17
						c-13.65-6.54-23.45-12.65-27.02-14.98c-0.43-0.28-0.63-0.43-0.63-0.43c-1.27-0.98-1.53-2.81-0.56-4.08
						c0.97-1.28,2.77-1.54,4.05-0.59c0.03,0.02,0.14,0.1,0.32,0.21c3.49,2.27,13.02,8.22,26.37,14.61
						c15.11,7.23,29.83,12.53,43.75,15.75c12.95,2.98,25.1,4.14,36.1,3.45c1.65-0.1,2.99,1.12,3.09,2.73
						c0.1,1.61-1.12,2.99-2.73,3.09C807.43,2020.68,805.22,2020.74,802.97,2020.74z"
                  className="color603745 svgShape"
                ></path>
                <path
                  fill="#603745"
                  d="M590.88 2189.74c-19.04 0-49.74-22.05-70.89-41.59-26.07-24.08-53.7-59.09-53.07-85.14 1.05-44.61 74.43-160.85 82.79-173.96.26-.43.43-.67.43-.67.93-1.31 2.75-1.63 4.06-.7 1.31.93 1.64 2.73.71 4.05-.02.02-.11.16-.25.4-3.34 5.24-80.88 127.26-81.91 171.02-.58 24.1 26.07 57.5 51.2 80.72 26.97 24.92 55.22 41.35 68.64 39.96 1.21-.12 3.91-1.08 8.48-6.15 18.34-20.24 45.9-81.36 72.55-140.46 8.83-19.57 17.17-38.06 25.18-55.1 20.29-43.11 32.49-63.87 40.8-69.41 30.93-20.61 59.7 3.39 59.99 3.63 1.22 1.05 1.37 2.89.33 4.11-1.05 1.23-2.88 1.37-4.11.33-1.06-.9-25.78-21.35-52.97-3.22-9.41 6.28-26.63 41.27-38.76 67.04-7.99 17-16.32 35.46-25.14 55.02-26.84 59.51-54.59 121.05-73.54 141.97-4.55 5.04-8.54 7.67-12.21 8.04C592.44 2189.7 591.67 2189.74 590.88 2189.74zM718.47 2253.65c-7.53 0-13.94-4.79-19.08-14.28-.49-.9-.47-1.99.05-2.88.78-1.32 78.39-132.7 107.65-219.64 8.25-24.56 11.93-43.37 10.92-55.9l-.08-.89c-.11-1.61 1.11-3 2.71-3.11 1.57-.09 3 1.11 3.11 2.71l.08.85c1.06 13.28-2.71 32.87-11.21 58.19-27.78 82.56-98.68 204.59-107.3 219.3 4.35 7.37 9.32 10.54 15.08 9.67 22-3.31 57.64-62.33 97.78-161.91 7.71-19.14 15.43-39.41 21.73-57.09 13.13-36.78 16.45-66.24 10.16-90.07-.41-1.56.52-3.15 2.07-3.56 1.55-.41 3.15.52 3.56 2.07 6.6 25 3.23 55.59-10.3 93.51-6.33 17.75-14.07 38.1-21.81 57.31-29.38 72.89-70.99 160.78-102.33 165.5C720.31 2253.58 719.38 2253.65 718.47 2253.65zM830.63 1901.67c-.79 0-1.57-.32-2.14-.95-.15-.17-.26-.29-.38-.41-8.07-8.65-28.22-22.85-58.34-41.11-25.45-15.48-49.36-28.63-49.6-28.76-1.41-.77-1.93-2.55-1.15-3.96.77-1.41 2.55-1.93 3.96-1.15.24.13 24.26 13.34 49.82 28.89 21.32 12.93 48.95 30.72 59.52 42.06.13.13.3.32.47.5 1.08 1.2 1 3.06-.2 4.14C832.03 1901.42 831.32 1901.67 830.63 1901.67z"
                  className="color603745 svgShape"
                ></path>
                <path
                  fill="#603745"
                  d="M701.95 2240.9c-.15 0-.3-.01-.45-.03-45.8-7.13-91.6-50.53-100.32-59.16l-.55-.57c-1.13-1.14-1.12-2.99.02-4.12 1.14-1.13 2.99-1.12 4.12.02l.57.59c5.15 5.09 52.09 50.49 97.05 57.48 1.59.25 2.68 1.74 2.43 3.33C704.6 2239.87 703.36 2240.9 701.95 2240.9zM1314.44 2197.31c-29.86 0-93.3-93.24-105.78-112.04l-.76-1.14c-.89-1.34-.52-3.15.82-4.04 1.34-.89 3.15-.52 4.04.82l.75 1.13c27.1 40.8 78.62 109.44 100.84 109.44.14 0 .28 0 .42-.01 22.69-.89 144.56-80.55 195.89-122.46 20.71-16.95 22.51-21.56 22.67-22.32 1.01-5.04-7.17-20.42-16.64-38.23-21.5-40.44-54-101.54-49.06-160.85.13-1.6 1.53-2.76 3.15-2.66 1.6.13 2.8 1.54 2.66 3.15-4.8 57.6 27.21 117.8 48.39 157.63 12.24 23.02 18.57 35.35 17.21 42.11-.61 3.05-3.97 8.73-24.69 25.69-53.47 43.66-174.45 122.79-199.35 123.77C1314.81 2197.3 1314.62 2197.31 1314.44 2197.31zM1462.01 1540.71c-1.34 0-2.55-.93-2.85-2.3-18.23-84.28-109.69-190.65-120.06-202.5l-.87-.98c-1.07-1.2-.97-3.04.23-4.12 1.2-1.07 3.05-.97 4.12.23l.9 1.01c10.48 11.98 102.83 119.41 121.38 205.12.34 1.57-.66 3.13-2.23 3.47C1462.43 1540.69 1462.22 1540.71 1462.01 1540.71z"
                  className="color603745 svgShape"
                ></path>
                <path
                  fill="#603745"
                  d="M1480.18,1851.37c-3.38,0-6.72-0.21-10.02-0.63c-25.74-3.28-48.4-19.35-65.54-46.47
						c-27.19-43.02-35.44-105.84-20.06-152.75l0.51-1.56c6.87-20.1,24.81-44.38,53.31-72.19c1.15-1.13,3-1.1,4.12,0.05
						c1.13,1.15,1.1,3-0.05,4.12c-27.45,26.79-45.39,50.96-51.86,69.88l-0.49,1.5c-14.64,44.67-6.46,106.84,19.45,147.84
						c11.28,17.85,31.08,39.94,61.35,43.8c47.36,6.05,104.97-35.03,134.04-95.53c3.28-6.85,6.13-13.84,8.47-20.78
						c7.87-23.31,7.81-47.98-0.17-73.32c-11.63-36.89-36.26-62.34-36.51-62.59c-1.13-1.15-1.11-3,0.05-4.12
						c1.15-1.12,3-1.11,4.12,0.05c1.05,1.07,25.86,26.72,37.9,64.92c8.36,26.55,8.4,52.43,0.13,76.94
						c-2.41,7.16-5.35,14.37-8.74,21.44C1582.08,1810.46,1527.74,1851.37,1480.18,1851.37z"
                  className="color603745 svgShape"
                ></path>
                <path
                  fill="#603745"
                  d="M1509.46,1699.64c-6.56,0-13.49-0.95-20.77-2.87c-19.61-5.15-31.98-13.29-36.77-24.2
						c-4.27-9.72-1.09-18.4,1.19-22.71c2.78-5.29,7.4-8.61,10.38-10.31c-5.75-12.27-6.86-22.91-3.31-31.68
						c3.21-7.92,9.4-12.12,12.98-13.99c-1.7-4.97-2.61-9.68-2.72-14.04c-0.4-15.51,9.34-23.13,14.07-25.9
						c-2.3-7.7-1.66-14.25,1.91-19.51c4.63-6.81,14.06-10.73,26.56-11.04c16.09-0.33,34.33,5.1,47.65,14.32
						c12.56,8.72,19.55,19.76,20.21,31.94c0.38,6.85,0.43,13.96,0.13,21.12c-0.84,21.7-6.2,74.71-37.64,98
						C1533.57,1696.01,1522.23,1699.64,1509.46,1699.64z M1468.45,1643.57L1468.45,1643.57c-0.07,0.03-6.96,2.86-10.19,9.01
						c-1.79,3.39-4.3,10.17-1.01,17.65c3.98,9.07,15.36,16.3,32.91,20.9c19.69,5.18,36.41,2.81,49.7-7.03
						c29.41-21.78,34.47-72.68,35.28-93.55c0.29-6.98,0.24-13.9-0.13-20.57c-0.7-13.03-10.02-22.13-17.7-27.46
						c-12.17-8.43-29.53-13.7-44.19-13.29c-10.56,0.26-18.34,3.27-21.88,8.48c-2.83,4.16-2.97,9.77-0.44,16.67
						c0.55,1.5-0.2,3.15-1.69,3.73c-0.53,0.21-13.26,5.43-12.85,21.59c0.11,4.44,1.22,9.38,3.28,14.68
						c0.29,0.74,0.26,1.57-0.07,2.29c-0.34,0.72-0.95,1.27-1.71,1.53c-0.08,0.03-8.67,3.11-12.22,11.94
						c-3.1,7.74-1.61,17.63,4.42,29.4c0.38,0.73,0.42,1.59,0.13,2.36C1469.81,1642.65,1469.21,1643.26,1468.45,1643.57z"
                  className="color603745 svgShape"
                ></path>
                <path
                  fill="#603745"
                  d="M1526.76 1570.9c-.44 0-.88-.1-1.3-.31-19.12-9.55-37.63-12.29-37.81-12.32-1.59-.23-2.7-1.71-2.47-3.3.23-1.6 1.71-2.69 3.3-2.47.79.11 19.59 2.89 39.59 12.88 1.44.72 2.03 2.47 1.31 3.91C1528.86 1570.31 1527.83 1570.9 1526.76 1570.9zM1517.32 1611.39c-.44 0-.88-.1-1.3-.31-17.41-8.7-39.49-12.75-39.71-12.79-1.58-.29-2.64-1.8-2.35-3.39.29-1.59 1.81-2.62 3.39-2.35.94.17 23.11 4.23 41.28 13.31 1.44.72 2.02 2.47 1.3 3.91C1519.42 1610.8 1518.39 1611.39 1517.32 1611.39zM1497.97 1656.82c-.53 0-1.06-.14-1.54-.44-12.56-7.79-29.69-12.67-29.86-12.72-1.55-.44-2.45-2.05-2.01-3.6.44-1.55 2.05-2.46 3.6-2.01.73.21 18.1 5.16 31.35 13.38 1.37.85 1.79 2.65.94 4.01C1499.9 1656.33 1498.95 1656.82 1497.97 1656.82z"
                  className="color603745 svgShape"
                ></path>
                <path
                  fill="#603745"
                  d="M1454.17 1587.51c-6.24 0-11.4-1.99-15.43-5.95-2.85-2.82-4.98-6.55-6.31-11.09-1.42-4.86.39-10.06 4.48-12.96 5.36-3.84 14.31-10.47 26.38-20.15 21.14-16.9 48.82-14.59 50-14.49 1.6.15 2.78 1.56 2.64 3.17-.14 1.6-1.52 2.78-3.16 2.64-.26-.02-26.56-2.17-45.83 13.24-12.17 9.76-21.2 16.45-26.64 20.35-2.08 1.47-2.99 4.11-2.27 6.57 1.05 3.57 2.67 6.46 4.81 8.58 5.85 5.77 15.59 5.68 28.96-.28 1.47-.65 3.19.01 3.85 1.47.65 1.47 0 3.19-1.47 3.85C1466.61 1585.82 1459.93 1587.51 1454.17 1587.51zM1201.44 1509.35c-.6 0-1.21-.08-1.87-.23-9.73-2.3-14.47-21.59-14.76-38.55-.02-.59-.02-1.21-.02-1.85 0-14.38 2.94-27.7 7.68-34.76 3.24-4.83 6.66-5.85 8.97-5.85 2.14 0 4.19.83 6.07 2.48 6.44 5.6 10.59 20.57 10.59 38.14 0 19.42-5 35.29-12.45 39.5-.04.03-.09.05-.14.07C1204.18 1508.99 1202.81 1509.35 1201.44 1509.35zM1201.44 1433.94c-1.25 0-2.71 1.16-4.12 3.26-4.07 6.06-6.69 18.43-6.69 31.52 0 .58 0 1.13.02 1.71.34 20.06 6.19 32.05 10.28 33.02.21.05.38.07.52.07.42 0 .87-.13 1.37-.4l0 0c.01 0 .01-.01.02-.01 4.65-2.7 9.44-16.26 9.44-34.39 0-17.24-4.32-30.02-8.59-33.74C1202.89 1434.29 1202.13 1433.94 1201.44 1433.94z"
                  className="color603745 svgShape"
                ></path>
                <path
                  fill="#603745"
                  d="M1348.4,1528.26c-0.04,0-0.08,0-0.12,0c-1.61-0.06-2.86-1.42-2.8-3.03
						c0.06-1.44,5.22-143.89-36.75-154.21c-42.47-10.45-100.1,62.63-100.68,63.37c-0.99,1.26-2.82,1.49-4.09,0.5
						c-1.27-0.99-1.49-2.82-0.5-4.09c2.45-3.14,60.6-76.73,106.66-65.44c46.55,11.45,41.42,154.04,41.18,160.11
						C1351.25,1527.03,1349.96,1528.26,1348.4,1528.26z"
                  className="color603745 svgShape"
                ></path>
                <path
                  fill="#603745"
                  d="M1257.48 1656.69c-3.69 0-6.65-.91-8.82-2.71-6.26-5.22-8.5-18-11.89-37.34l-1.09-6.2c-5.65-31.81-13.68-66.35-34.01-103.36-.02-.04-.04-.08-.06-.12-.21-.41-.32-.87-.32-1.33 0-1.61 1.31-2.92 2.92-2.92 1.14 0 2.13.66 2.61 1.61 20.72 37.73 28.88 72.8 34.61 105.09l1.1 6.21c2.94 16.77 5.26 30.01 9.88 33.86 1.56 1.3 4.43 1.68 8.3 1.1 21.66-3.23 67.85-35.84 88.87-67.88 9.48-14.45 12.84-27.22 9.72-36.92-1.87-5.83-6.27-11.89-13.07-18-36.73-32.92-130.76-56.02-131.71-56.25-1.57-.38-2.53-1.96-2.15-3.52.38-1.57 1.95-2.52 3.52-2.15 3.92.95 96.4 23.68 134.22 57.57 7.59 6.81 12.55 13.73 14.73 20.56 3.73 11.6.23 25.7-10.4 41.9-22.17 33.78-69.6 66.97-92.89 70.45C1260.1 1656.58 1258.74 1656.69 1257.48 1656.69zM1058.59 1542.5c-1.43 0-2.69-1.06-2.89-2.52-.82-6.02-19.51-147.48 25.74-163.29 44.79-15.64 109.68 52.08 112.42 54.97 1.11 1.17 1.06 3.01-.11 4.12-1.17 1.1-3.01 1.06-4.12-.11-.65-.68-65.02-67.9-106.26-53.48-40.79 14.25-22.08 155.58-21.89 157 .22 1.6-.9 3.07-2.5 3.28C1058.86 1542.5 1058.72 1542.5 1058.59 1542.5z"
                  className="color603745 svgShape"
                ></path>
                <path
                  fill="#603745"
                  d="M1159.21 1661.77c-14.22 0-34.88-10.48-42.3-14.52-33.07-17.99-79.77-56.14-72.89-87.52 1.54-7.03 5.82-14.39 12.71-21.87 34.43-37.35 124.32-68.76 128.12-70.08 1.53-.53 3.18.28 3.71 1.8.53 1.52-.28 3.18-1.8 3.71-.92.32-92.31 32.25-125.75 68.52-6.18 6.71-9.99 13.16-11.31 19.17-5.48 25.01 31.97 60.47 69.98 81.15 25.92 14.1 42.16 16.04 46.28 11.88 4.24-4.28 5.28-17.63 6.6-34.53 2.14-27.42 5.37-68.85 24.99-114.36h0c.02-.04.03-.08.05-.11.46-.99 1.47-1.69 2.64-1.69 1.61 0 2.92 1.31 2.92 2.92 0 .43-.1.87-.28 1.25-19.21 44.6-22.39 85.42-24.5 112.44-1.52 19.5-2.53 32.39-8.27 38.18C1167.54 1660.73 1163.69 1661.77 1159.21 1661.77zM1387.19 1655.31c-1.32 0-2.51-.89-2.83-2.23-8.79-36.26-31.61-63.44-34.5-66.77-.27-.28-.39-.44-.39-.44-.9-1.31-.62-3.15.67-4.07 1.25-.9 2.94-.71 3.91.46.04.04.12.13.14.15 2.7 3.1 26.65 31.42 35.83 69.3.38 1.57-.58 3.14-2.15 3.52C1387.65 1655.28 1387.42 1655.31 1387.19 1655.31zM1122.73 2371.57c-4.79 0-9.61-.08-14.46-.23-11.61-.35-23.79-1.2-36.23-2.51-83.01-8.82-147.37-36.47-155.15-39.92-57.36 7.67-106.42-.5-145.84-24.28-36.16-21.82-51.22-49.64-52.82-52.74l-.24-.45c-.73-1.44-.15-3.19 1.28-3.92 1.44-.72 3.19-.15 3.92 1.28l.2.39c1.53 2.97 15.88 29.45 50.66 50.44 38.44 23.19 86.51 31.05 142.87 23.38.55-.07 1.11.01 1.61.24.66.3 66.96 30.52 154.11 39.77 12.29 1.29 24.33 2.13 35.79 2.48 70.69 2.2 133.87-11.96 187.84-42.15.47-.26 1.01-.37 1.55-.37.24.01 24.09.95 59.87-4.69 62.41-9.88 152.51-37.98 228.23-115.64-1.77-6.01-9.85-29.78-35.49-63.95-25.45-33.93-39.64-64.92-39.78-65.23-.66-1.47-.02-3.19 1.45-3.86 1.47-.67 3.19-.02 3.86 1.45.14.3 14.08 30.75 39.13 64.14 30.53 40.69 36.67 66.56 36.92 67.64.22.96-.06 1.97-.75 2.68-77.07 79.73-169.06 108.47-232.66 118.54-33.06 5.22-55.59 4.91-60.19 4.79C1247.4 2357.23 1188.35 2371.57 1122.73 2371.57zM1560.39 1542.49c-.33 0-.66-.05-.98-.17-1.52-.54-2.31-2.21-1.76-3.73 69.42-194.08 74.52-298.45 74.56-299.48.07-1.61 1.47-2.87 3.03-2.79 1.61.07 2.86 1.43 2.79 3.03-.04 1.04-5.14 106.16-74.9 301.2C1562.71 1541.74 1561.59 1542.49 1560.39 1542.49zM1673.16 1757.84c-37.86 0-65.2-4.06-65.79-4.15-1.59-.24-2.68-1.73-2.44-3.32.24-1.59 1.74-2.68 3.32-2.44 1.29.2 128.23 19.01 213.97-25.61-9.46-17.26-60.5-117.46-72.17-288.89-8.68-127.26-3.85-170.78.81-212.87 2.29-20.67 4.46-40.19 4.93-69.03.03-1.59 1.33-2.87 2.91-2.87.02 0 .03 0 .05 0 1.61.03 2.89 1.35 2.87 2.96-.48 29.11-2.66 48.76-4.97 69.57-4.64 41.84-9.44 85.1-.79 211.83 12.72 186.67 72.27 287.96 72.87 288.96.41.68.52 1.5.31 2.27-.21.77-.73 1.42-1.42 1.79C1779.78 1751.94 1718.82 1757.84 1673.16 1757.84zM942.29 1373.62c-.87 0-1.73-.39-2.3-1.13-.99-1.27-.76-3.1.51-4.09l35.17-27.34c1.28-.97 3.11-.72 4.08.57.97 1.28.72 3.11-.57 4.08l-.62.47-34.49 26.82C943.55 1373.42 942.92 1373.62 942.29 1373.62zM503.54 1689.43c-99.26 0-194.53-50.02-195.58-50.58-1.19-.63-1.79-2-1.45-3.3 10.54-40.98 35.34-151.37 23.77-169.8-.93-1.48-1.77-1.65-2.05-1.71-2.13-.43-14.3 2.09-45.91 93.53-16.8 48.6-30.82 98.46-30.96 98.95-.4 1.42-1.78 2.32-3.24 2.1C102.84 1636.84 1.76 1527.49.76 1526.38c-1.02-1.13-1.01-2.85.03-3.96 1.16-1.24 117.75-127.87 237.68-480.44 119.97-352.68 111.8-536.96 111.71-538.78-.08-1.61 1.15-2.98 2.76-3.07 1.59-.08 2.98 1.15 3.07 2.76.1 1.83 8.38 187.05-112.01 540.96-62.89 184.89-124.44 306.17-165 375.34-37.81 64.48-64.99 97.05-72.11 105.16 14.05 14.53 108.27 107.41 239.55 128.11 3.05-10.71 15.64-54.21 30.35-96.78 30.91-89.43 44.34-99.02 52.58-97.36 2.37.47 4.34 1.93 5.85 4.32 14.44 22.99-16.59 148.89-22.48 172.09 15.8 7.95 120.66 58.35 220.01 47.28 1.6-.17 3.04.98 3.22 2.58.18 1.6-.98 3.04-2.58 3.22C523.46 1688.93 513.47 1689.43 503.54 1689.43z"
                  className="color603745 svgShape"
                ></path>
                <path
                  fill="#603745"
                  d="M457.55,570.6c-0.38,0-0.76-0.07-1.13-0.23c0,0-0.52-0.22-1.53-0.68c-9.16-4.19-57.11-27.16-101.52-67.15
						c-63.28-57-122.44-151.42-44.96-277.52C398.39,78.57,509.62,86.34,587.07,118.65c61.45,25.61,105.18,68.33,105.62,68.76
						c1.15,1.13,1.16,2.98,0.03,4.12c-1.13,1.15-2.98,1.16-4.12,0.03c-0.43-0.42-43.4-42.38-103.76-67.53
						C509.47,92.6,401.2,85.13,313.38,228.07C238,350.75,295.65,442.68,357.28,498.2c43.79,39.43,91.03,62.05,100.06,66.19
						c0.87,0.4,1.33,0.6,1.36,0.61c1.48,0.63,2.18,2.34,1.55,3.82C459.77,569.93,458.69,570.6,457.55,570.6z"
                  className="color603745 svgShape"
                ></path>
                <path
                  fill="#603745"
                  d="M1704.82 558.24c-.99 0-1.95-.5-2.5-1.41-.83-1.38-.39-3.17.99-4 1.14-.69 114.56-70.24 140.5-186.95 14.89-67.02-1.52-136.73-48.79-207.18-46.63-69.5-104.19-110.28-171.08-121.2-119.6-19.52-229.61 63.94-230.71 64.78-.86.66-2.01.79-2.99.34C1188.61 10.18 987.46-16.46 808.51 25.56c-138.78 32.6-217.45 95.39-220.73 98.04l-.3.24c-1.26 1.01-3.09.8-4.1-.46-1.01-1.26-.8-3.09.46-4.1l.29-.23c12.6-10.2 314.44-247.5 806.96-22.46 13.42-9.8 119.11-83.56 233.74-64.87 68.57 11.18 127.45 52.8 175.03 123.71 48.2 71.85 64.9 143.09 49.63 211.74-26.5 119.17-142 189.94-143.17 190.64C1705.85 558.11 1705.33 558.24 1704.82 558.24zM1048.32 2912.86c-21.67 0-46.17-5.46-70.81-18.41-56.28-29.57-82.99-123.83-98.18-192.17-8.76-39.41-15.56-79.51-22.13-118.28-6.01-35.49-11.69-69-18-95.93-27.16-115.87-69.12-180.66-69.54-181.3-.88-1.35-.51-3.15.84-4.04 1.34-.88 3.15-.51 4.04.84.43.65 42.93 66.21 70.35 183.17 6.35 27.1 12.04 60.71 18.07 96.29 6.56 38.7 13.34 78.72 22.07 117.99 14.94 67.2 41.06 159.83 95.2 188.27 51.3 26.98 101.53 20.34 124.63-.14 10.46-9.28 13.95-20.35 9.82-31.19-4.67-12.27-11.25-37.36-18.04-68.82-5.69-26.38-11.09-55.2-15.63-83.35-5.68-35.34-12.65-86.31-13.58-128.45-.13-5.78-.15-11.28-.04-16.36.57-27.14 1.5-52.94 2.32-75.71 1.88-52.01 3.36-93.09-.43-117.06-.25-1.59.83-3.08 2.42-3.33 1.6-.25 3.08.84 3.34 2.42 3.87 24.52 2.38 65.85.5 118.18-.82 22.75-1.75 48.53-2.32 75.62-.11 4.99-.1 10.41.04 16.1.93 41.81 7.86 92.5 13.51 127.65 4.52 28.05 9.91 56.77 15.58 83.05 6.73 31.18 13.21 55.96 17.79 67.97 4.98 13.07.83 26.79-11.4 37.63C1095.42 2905.3 1073.83 2912.86 1048.32 2912.86z"
                  className="color603745 svgShape"
                ></path>
                <path
                  fill="#603745"
                  d="M1070.79 2580.16c-.61 0-1.24-.19-1.76-.59-1.28-.98-1.53-2.8-.56-4.09 5.16-6.78 9.88-14.82 14.03-23.89 31.69-69.19 23.03-181.44 22.93-182.57-.13-1.6 1.06-3.01 2.67-3.14 1.59-.09 3.01 1.07 3.14 2.67.09 1.14 8.88 114.89-23.45 185.47-4.33 9.46-9.27 17.86-14.69 24.99C1072.54 2579.76 1071.67 2580.16 1070.79 2580.16zM1100.57 2791.21c-1.02 0-2-.53-2.54-1.48-.79-1.4-.3-3.18 1.1-3.97.74-.42 74.88-43.24 136.07-142.74 16.62-26.98 30.96-55.99 42.62-86.24 60.28-156.26 75.9-228.45 77.49-236.17l.05-.29c.32-1.58 1.85-2.61 3.43-2.28 1.58.31 2.6 1.85 2.29 3.42l-.05.26c-1.61 7.83-17.32 80.47-77.77 237.16-11.79 30.58-26.29 59.92-43.1 87.2-62.02 100.85-137.4 144.33-138.16 144.75C1101.55 2791.08 1101.06 2791.21 1100.57 2791.21zM998.99 2717.73c-62.07 0-114.38-12.5-117.5-13.26-.32-.06-.53-.12-.53-.12-1.53-.46-2.43-2.08-1.97-3.62.45-1.53 2.01-2.42 3.54-2l.22.05c4.57 1.11 110.19 26.34 199.68 3.81 1.56-.38 3.15.55 3.54 2.12.39 1.56-.56 3.15-2.12 3.54C1055.95 2715.28 1026.51 2717.73 998.99 2717.73z"
                  className="color603745 svgShape"
                ></path>
                <path
                  fill="#603745"
                  d="M1237.81 2647.5c-.29 0-.58-.04-.86-.13 0 0 0 0-.01 0-105.9-25.58-152.25-90.14-154.17-92.88-.01-.02-.14-.19-.15-.21-.89-1.34-.53-3.15.81-4.04 1.32-.88 3.1-.54 4.01.76.03.04.09.12.11.15 1.87 2.66 47 65.52 150.82 90.58.06.01.11.03.17.04.2.06.42.13.59.22 1.44.72 2.02 2.47 1.3 3.91C1239.91 2646.91 1238.88 2647.5 1237.81 2647.5zM1348.79 1481.12c-.57 0-1.15-.17-1.66-.52-1.32-.92-1.65-2.73-.73-4.06.33-.47 32.77-47.5 41.08-80.75.39-1.56 1.97-2.51 3.53-2.12 1.56.39 2.51 1.97 2.12 3.53-8.57 34.29-40.58 80.7-41.94 82.66C1350.62 1480.68 1349.71 1481.12 1348.79 1481.12zM1354.76 1535.73c-.63 0-1.27-.2-1.8-.62-1.27-.99-1.49-2.83-.49-4.09.37-.47 37.55-48.07 58.48-98.3.62-1.49 2.33-2.18 3.81-1.57 1.49.62 2.19 2.33 1.57 3.81-21.24 50.97-58.9 99.18-59.28 99.66C1356.48 1535.35 1355.62 1535.73 1354.76 1535.73zM1089.53 1379.04c-.89 0-1.78-.41-2.35-1.19l-16.72-22.7c-.95-1.3-.68-3.12.62-4.08 1.29-.95 3.12-.68 4.08.62l16.72 22.7c.95 1.3.68 3.12-.62 4.08C1090.74 1378.86 1090.14 1379.04 1089.53 1379.04zM1299.78 1369.49c-.24 0-.49-.03-.73-.09-1.56-.4-2.5-1.99-2.1-3.55l5.97-23.19c.4-1.56 2-2.51 3.55-2.1 1.56.4 2.5 1.99 2.1 3.55l-5.97 23.19C1302.27 1368.61 1301.08 1369.49 1299.78 1369.49z"
                  className="color603745 svgShape"
                ></path>
              </g>
              <g>
                <ellipse cx="1417.76" cy="1143.82" fill="#f7c1ba" rx="82.03" ry="32.5" transform="rotate(-.596 1419.554 1145.257)" className="colorf7c1ba svgShape"></ellipse>
              </g>
              <g>
                <ellipse cx="915.56" cy="1159.46" fill="#f7c1ba" rx="82.03" ry="32.5" className="colorf7c1ba svgShape"></ellipse>
              </g>
              <g>
                <path
                  fill="#603745"
                  d="M1304.29,1269.31c-24.59,11.21-52.33,18.07-80.76,21.91c-105.42,14.24-220.39-12.86-220.39-12.86
					c-0.56-23.14,4.54-51.17,20.21-76.28c20.92-33.53,60.62-66.14,131.26-66.14C1279.41,1135.94,1304.29,1269.31,1304.29,1269.31z"
                  className="color603745 svgShape"
                ></path>
              </g>
              <g>
                <path
                  fill="#d68e8e"
                  d="M1223.53,1291.22c-105.42,14.24-220.39-12.86-220.39-12.86c-0.56-23.14,4.54-51.17,20.21-76.28
					C1065.8,1195.7,1152.83,1197.01,1223.53,1291.22z"
                  className="colord68e8e svgShape"
                ></path>
              </g>
              <g>
                <path
                  fill="#603745"
                  d="M1158.08,1298.23c-82.15,0-154.69-16.82-155.61-17.03c-1.29-0.3-2.22-1.44-2.25-2.77
					c-0.39-16.11,1.78-47.65,20.65-77.89c19.22-30.8,58.02-67.51,133.74-67.51c65.77,0,103.77,36.98,124.07,68
					c21.89,33.45,28.21,66.36,28.47,67.75c0.24,1.32-0.44,2.63-1.66,3.19c-23.01,10.48-50.46,17.94-81.58,22.14
					C1202.07,1297.06,1179.74,1298.23,1158.08,1298.23z M1006.02,1276.01c16.45,3.61,121.42,25.23,217.12,12.31
					c29.59-4,55.76-10.97,77.81-20.71c-1.82-7.96-9.12-35.94-27.24-63.56c-28.38-43.27-68.45-65.2-119.09-65.2
					c-73.05,0-110.35,35.22-128.79,64.76C1008.6,1231.21,1005.91,1259.99,1006.02,1276.01z"
                  className="color603745 svgShape"
                ></path>
              </g>
              <g>
                <path
                  fill="#3a212b"
                  d="M1354.28,690.27c61.1-12.28,115.3-15.27,235.59,56.72c0,0-195.17-101.99-348.44,16.55l0,0
										C1247.67,732.7,1307.1,699.75,1354.28,690.27z"
                  className="color3a212b svgShape"
                ></path>
                <ellipse cx="1413.17" cy="952.65" fill="#603745" rx="127.98" ry="123.43" transform="rotate(-3.242 1412.744 951.67)" className="color603745 svgShape"></ellipse>
                <path
                  fill="#603745"
                  d="M1286.72,936.89c0,0,117.4-110.85,260.57,1.57c0,0,19.18-73.98-66.17-103.31
						C1395.77,805.83,1313.59,831.66,1286.72,936.89z"
                  opacity=".5"
                  className="color603745 svgShape"
                ></path>
                <path
                  fill="#ffffff"
                  d="M1327.2,958.74c3.86,67.52,51.74,119.72,106.98,116.57c55.22-3.15,96.9-60.45,93.04-127.97
						c-0.51-8.87-1.77-17.48-3.72-25.73c-0.96-4.15-2.11-8.2-3.44-12.15c-15.88-48.11-55.49-81.24-99.82-78.71
						c-40.19,2.29-73.17,33.26-86.69,75.97c-0.67,2.07-1.28,4.19-1.84,6.34C1327.95,927.33,1326.3,942.73,1327.2,958.74z"
                  className="colorfff svgShape"
                ></path>
                <path fill="#3a212b" d="M1304.3,1052.94c0,0,105.71,72.32,234.25-13.34C1538.56,1039.6,1406.3,1081.4,1304.3,1052.94z" className="color3a212b svgShape"></path>
                <path
                  fill="#c1c1c1"
                  d="M1333.56,906.72c42.92-20.05,111.59-34.59,189.94,14.89c-0.96-4.15-2.11-8.2-3.44-12.15
						c-15.88-48.11-55.49-81.24-99.82-78.71C1380.06,833.04,1347.07,864.01,1333.56,906.72z"
                  className="colorc1c1c1 svgShape"
                ></path>
                <path
                  fill="#3a212b"
                  d="M1612.23,853.68c-24.22,12.29-64.71,2.95-64.71,2.95c-21.41-18.54-59.98-46.4-101.54-49.8
						c-87.55-7.16-159.76,61.82-159.26,130.06c0,0,15.99-75.9,106.59-101.28c76.21-21.35,132.16,55.97,140.42,80.21
						c8.84,25.94,6.64,50.99,6.64,50.99s21.93-49.34,28.11-60.58c6.17-11.24,40.56-11.04,47.06-26.21c0,0-28.04,7.87-50.51-6.78
						c0,0-0.43-0.47-1.2-1.27C1598.49,871.93,1612.23,853.68,1612.23,853.68z"
                  className="color3a212b svgShape"
                ></path>
              </g>
              <g>
                <ellipse cx="877.42" cy="980.19" fill="#603745" rx="127.98" ry="123.43" transform="rotate(-1.985 877.713 981.75)" className="color603745 svgShape"></ellipse>
                <path
                  fill="#603745"
                  d="M1001.91,953.02c0,0-126.98-99.73-259.35,25.23c0,0-25.82-71.93,56.52-108.89
						C881.41,832.4,965.6,850.66,1001.91,953.02z"
                  opacity=".5"
                  className="color603745 svgShape"
                ></path>
                <path
                  fill="#ffffff"
                  d="M784.17,987.51c2.4,70.39,48.84,116.17,104.12,114.28c55.3-1.88,98.5-50.71,96.11-121.1
						c-0.51-15.11-3.09-29.52-7.32-42.83c-0.43-1.39-0.9-2.77-1.37-4.14c-16.33-46.54-53.56-78.56-95.76-77.12
						c-43.03,1.47-78.56,37.3-91.04,86.33c-0.39,1.52-0.75,3.06-1.1,4.61C784.98,960.17,783.69,973.6,784.17,987.51z"
                  className="colorfff svgShape"
                ></path>
                <path
                  fill="#3a212b"
                  d="M994.94 1070.18c0 0-98.71 81.62-234.5 7.98C760.44 1078.17 895.95 1107.79 994.94 1070.18zM870.13 711.7c-62.31 1.27-115.86 10.13-217.66 106.52 0 0 168.37-141.93 343.72-59.49l0 0C983.41 729.97 918.25 710.72 870.13 711.7z"
                  className="color3a212b svgShape"
                ></path>
                <ellipse cx="934.14" cy="936.29" fill="#ffffff" opacity=".5" rx="28.64" ry="35.44" transform="rotate(-26.411 934.073 936.261)" className="colorfff svgShape"></ellipse>
                <path
                  fill="#c1c1c1"
                  d="M788.9,942.92c79.63-47.11,151.8-23.6,188.18-5.07c-0.43-1.39-0.9-2.77-1.37-4.14
						c-16.33-46.54-53.56-78.56-95.76-77.12C836.91,858.06,801.38,893.89,788.9,942.92z"
                  className="colorc1c1c1 svgShape"
                ></path>
                <path
                  fill="#3a212b"
                  d="M670.19,899.7c25.24,10.04,64.71-2.93,64.71-2.93c19.64-20.41,55.52-51.66,96.6-58.82
						c86.54-15.08,164.72,47.05,170.41,115.06c0,0-22.81-74.13-115.34-91.18c-77.83-14.34-126.53,67.74-132.56,92.63
						c-6.44,26.64-1.98,51.38-1.98,51.38s-26.32-47.14-33.49-57.77c-7.17-10.63-41.4-7.31-49.25-21.83c0,0,28.64,5.29,49.69-11.34
						c0,0,0.39-0.51,1.08-1.38C685.53,916.63,670.19,899.7,670.19,899.7z"
                  className="color3a212b svgShape"
                ></path>
              </g>
            </svg>