<svg xmlns="http://www.w3.org/2000/svg" enableBackground="new 0 0 1903.14 2986.85" viewBox="0 0 1903.14 2986.85">
              <g display="none">
                <rect width="4000" height="4000" x="-1048.43" y="-506.57" fill="#ffffff" className="colorfff svgShape"></rect>
                <ellipse cx="989.99" cy="2923.85" fill="#dddddd" rx="717.72" ry="150.67" className="colorddd svgShape"></ellipse>
              </g>
              <path
                fill="#38212a"
                d="M757.66,2986.85c-6.07,0-12.12-0.24-17.96-0.72c-20.21-1.65-45.65-6.47-52.08-20.1
				c-4.29-9.08-1.48-22.61,3.63-47.18c6.3-30.29,15.82-76.03,13-129.01c-0.22-4.05-0.64-8.62-1.24-13.57
				c-7.98-66.41-46.92-218.43-75.35-329.43l-0.36-1.42c-32.04,7.72-63.25,11.63-92.84,11.63c-47.69,0-92.39-10.1-132.85-30.02
				c-47.29-23.28-76.06-54.18-87.68-68.46c-11.11,1.8-22.23,2.71-33.1,2.71c-24.1,0-47.92-4.4-70.82-13.07
				c-44.46-16.84-86.31-50.05-124.39-98.71c-46.54-59.47-61.92-123.2-45.69-189.44c11.89-48.51,38.16-85.47,51.96-102.38
				c-33.54-22.77-58.97-53.16-75.63-90.4c-23.04-51.5-21.59-100.21,4.21-140.85c16.05-25.29,37.55-41.51,50.68-49.78
				c-25.04-93.48,6.17-177.91,37.02-232.54c28.91-51.2,62.57-86.32,72.9-96.52c-20.78-85.51,37.91-151.85,80.88-200.42
				c9.76-11.03,18.92-21.39,26.06-30.72c1.66-2.18,3.21-4.41,4.62-6.66c-0.5-2.65,0.04-5.44,1.57-7.74c1.05-1.57,2.51-2.81,4.2-3.62
				c7.17-18.49,2.4-34.65-4.37-46.36c0.05,0.35,0.1,0.69,0.15,1.02c0.77,4.89-1.91,9.58-6.52,11.39c-1.23,0.48-2.52,0.73-3.84,0.73
				c-3.49,0-6.74-1.73-8.69-4.62c-1.69-2.51-41.68-62.47-59.65-158.16c-10.55-56.15-11.22-112.93-2-168.79
				c11.51-69.72,38.54-138.09,80.34-203.22c58.04-90.43,143.45-162.55,247.19-208.8c-12.56-35.57-14.46-77.61-5.65-125.06
				c-2.06-2.91-2.54-6.73-1.08-10.14c0.27-0.63,1.69-3.71,4.86-7.88c21.6-92.02,74.62-173.01,75.16-173.82
				c1.95-2.95,5.22-4.71,8.75-4.71c0.18,0,0.36,0,0.55,0.01c110.52,5.81,188.32,63.54,234.13,110.95
				c37.21,38.51,59.43,75.62,68.85,93.14c12.13-5.05,26.27-7.61,42.09-7.61c11.79,0,24.73,1.42,38.46,4.24
				c24.72,5.06,45.3,13.65,61.25,25.55c11.72-14.96,38.56-45.72,81.99-76.51c52.54-37.24,140.91-81.64,263.53-81.64
				c2.89,0,5.79,0.03,8.71,0.07c3.73,0.06,7.17,2.13,8.99,5.39c1,1.81,24.71,44.98,36.07,112.43
				c10.41,61.82,11.84,156.55-40.32,257.15c0,0.01,0,0.02,0,0.03c-0.37,2.3-1.48,4.38-3.16,5.96
				c-16.1,29.93-36.36,59.12-60.24,86.82c10.49,19.46,19.53,40.06,26.9,61.29c7.54,7.61,37.26,39.14,61.37,86.57
				c24.47,48.13,47.51,122.59,19.71,205.65c19.13,11.87,60.63,41.39,97.62,93.2c25.47,35.67,44.11,75.47,55.41,118.31
				c13.28,50.37,16.42,105.3,9.32,163.32c26.25,14.08,124.63,74.52,162.09,205.59c10.83,37.89,10.12,79.72-2.02,121.24
				c18.15,8.94,58.78,36.17,44.23,95.57c-5.26,21.5-18.87,45.02-40.49,69.98c18.94,16.64,63.13,61.99,55.93,117.12
				c-0.79,6.02-2.28,12.14-4.44,18.26c6.79,5.48,16.44,15.65,21.53,31.92c7.39,23.61,3.04,51.98-12.94,84.39
				c15.49,3.5,27.44,11.14,35.56,22.76c10.74,15.41,12.32,33.48,4.59,52.28c-16.46,39.99-75.45,78.68-137.24,90
				c-0.6,0.11-1.25,0.17-1.89,0.17c-3.8,0-7.31-2.06-9.16-5.38c-2.19-3.92-1.64-8.8,1.37-12.14c0.46-0.51,45.65-51.39,20.02-75.26
				c-7.37-6.86-18.69-10.33-33.66-10.33c-23.58,0-55.46,8.78-87.74,24.14c-24.71,98.52-101.87,214.77-328.24,214.78
				c-0.6,0-1.21,0-1.81-0.01c-50.54,68.62-131.35,105.22-240.31,108.86c9.71,48.63-2.31,99.41-32.68,136.89
				c-32.6,40.24-75.11,53.72-105.02,57.94c-8.38,1.18-16.84,1.78-25.13,1.78c-23.86,0-46.28-5.09-58.51-13.29
				c-16.46-11.03-10.57-23.91-9.22-26.38c8.15-14.94,20.55-79.11,27.31-118.81c-7.58,0.38-14.99,0.57-22.1,0.57
				c-11.51,0-22.51-0.5-32.77-1.49c1.09,28.5,6.79,105.84,36.18,196.47c8.65,26.68,16.35,50.66,23.16,73.93
				c26.08,89.21,36.25,159.05,1.14,209.94C860.01,2967.78,813.52,2986.85,757.66,2986.85z"
                className="color38212a svgShape"
              ></path>
              <path
                fill="#ffdfca"
                d="M892.09,2290.99c32.88,1.68,60.83,8.15,84.2,18.16l-0.8,1.89c0,9.89-0.62,19.07-1.77,27.59
					c-12.35,91.47-84.79,106.48-84.79,106.48c-29.51,2.25-55.51,1.81-78.12-1.45c-62.34-8.92-99.03-39.05-112.97-92.51
					c-13.24-50.73,14.5-120.92,32.57-158.85c6.72-14.14,12.12-23.81,13.53-26.31c8.95-3.94,14.8-6.59,14.8-6.59
					s43.72,7.95,61.6,4.96c16.36-2.73,82.6-60.32,156.14-59.45C968.63,2184.03,892.09,2290.99,892.09,2290.99z"
                className="colorffdfca svgShape"
              ></path>
              <path
                fill="#ffdfca"
                d="M870.82 2728.84l-.9.26c-6.29 3.89-13.02 7.47-20.04 10.77-57.53 27.08-133.05 34.63-133.05 34.63l-3.4.51c-8.34-69.48-50.33-232.08-78.56-342.32-9.15-35.73-16.85-65.97-21.5-85.76-13.76-58.69-12.12-121.38-9.72-154.91.82-11.58 1.74-19.69 2.14-22.96 6.08.3 12.35.41 18.84.28 0 0 15.9 28.8 27.82 30.79 8.95 1.49 64.44-22.24 91.49-34.14-5.22 9.2-64.26 115.51-46.1 185.16 13.94 53.45 50.63 83.59 112.97 92.51-.02 2.84-.46 96.17 36.95 211.54C856.04 2680.8 863.96 2705.39 870.82 2728.84zM565.04 1390.14l.18.33c-5.73 3.14-14.22 7.31-24.81 11.2l-.08-1.89c-7.01-24.37-47.26-15.5-53.18-21.78-4.73-5.03-3.07-15.96 16.31-22.4 4.84-1.61 10.79-2.94 18.03-3.83 13.99-1.71 24.55-7.65 31.47-11.66l.97-.31C562.21 1365.84 565.04 1390.14 565.04 1390.14z"
                className="colorffdfca svgShape"
              ></path>
              <path
                fill="#ffdfca"
                d="M540.32,1399.78l0.08,1.89c-23.22,8.54-56.56,15.7-93.1,7.37c2.27-18.05-7.8-32.89-7.8-32.89l-0.18-0.62
					c3.24-0.82,6.52-2.87,9.79-6.39c0,0,13.99,1.61,17.36-11.45c0,0,17.05,9.54,22.15-8.13c0,0,5.6,4.66,10.63,3.74
					c0.72-0.13,1.87-0.39,3.14-0.8l1.07,3.1c-19.38,6.44-21.04,17.37-16.31,22.4C493.06,1384.28,533.31,1375.41,540.32,1399.78z"
                className="colorffdfca svgShape"
              ></path>
              <path
                fill="#ffdfca"
                d="M547.01 1321.14c2.64 6.13 4.94 12.45 6.91 18.67l-.97.31c-6.91 4.01-17.47 9.95-31.47 11.66-7.24.89-13.19 2.22-18.03 3.83l-1.07-3.1c-1.26.41-2.41.67-3.14.8-5.03.92-10.63-3.74-10.63-3.74-5.11 17.67-22.15 8.13-22.15 8.13-3.37 13.06-17.36 11.45-17.36 11.45-3.27 3.51-6.55 5.57-9.79 6.39-15.34 3.88-29.07-20.35-30.46-47-1.28-24.6 17.72-17.36 17.72-17.36 2.22-21.41 21.27-13.71 21.27-13.71 8.51-18.1 26.54-7.54 26.54-7.54 2.78-7.39 9.9-10.1 17.64-10.66 12.46-.9 26.51 3.84 26.51 3.84C530.83 1290.67 540.11 1305.19 547.01 1321.14zM1408.09 980.01c11.43 50.99-22.89 122.84-67.89 152.84-55.11 36.74-86.73 24.22-92.1 21.6 19.97-45.16 37.79-108.65 47.43-197.87 4.01-5.45 36.74-47.21 82.37-19.67C1394.55 946.95 1404.1 962.21 1408.09 980.01zM907.05 1359.38c-.76 2.46-1.61 4.91-2.58 7.34-.72 1.86-1.49 3.7-2.33 5.52-11.33 24.86-32.58 46.59-63.77 56.41-12.55 3.94-26.67 5.98-42.42 5.5-11.78-.36-21.84-2.86-30.45-6.72-23.6-10.53-36.1-31.05-42.06-44.5-1.4-3.14-2.41-5.9-3.15-8.03-1.03-3.04-1.48-4.88-1.48-4.88l.2-1.89c30.35 3.3 62.26 4.52 94.59 2.82C844.69 1369.33 876.18 1365.44 907.05 1359.38z"
                className="colorffdfca svgShape"
              ></path>
              <path
                fill="#ffdfca"
                d="M1208.45,971.32c0.07,82.83-9.9,168.95-38.53,245.86h-0.02l-0.9-0.34c-10.12,14.67-21.89,28.18-35.37,40.66
					c-19.58,18.11-42.73,34.08-69.66,48.25l-2.46,0.07c5.91,6.8,8.59,16.46,8.59,16.46c5.53,18.26-1.69,57.63-1.69,57.63
					s-56.03,30.76-114.23,8.1c-3.28-3.83-14.98-17.64-25.87-33.17l-0.13,0.08c-7,1.61-14.04,3.1-21.12,4.48
					c-30.87,6.06-62.36,9.95-93.44,11.58c-32.34,1.69-64.24,0.48-94.59-2.82c-70.42-7.67-132.45-26.64-172.01-47
					c-6.9-15.95-16.18-30.46-28.48-38.03c0,0-14.04-4.75-26.51-3.84v-0.11c-65.38-73.74-41.75-175.78-41.75-175.78
					c-25.45-14.04-41.12-35.9-50.02-52.5c-6.83-12.78-9.66-22.43-9.84-23.11v-0.02l20.91-18.29c0,0-62.16-49.2-37.28-228.71l2.1-0.1
					c3.01,64.34,19.85,138.69,67.99,206.97c0,0,74.05-54.72,214.1-70.83c0,0-15.63-60.99-2.2-176.82
					c9.95,60.19,30.25,123.77,66.59,186.48c0,0,144.88-64.38,304.24-20.92c0,0,38.13-90.55,27.84-210.78l1.15-0.1
					c0,0,74.05,111.08,75.66,246.3C1131.51,940.93,1171.52,950.53,1208.45,971.32z"
                className="colorffdfca svgShape"
              ></path>
              <path
                fill="#f26e6b"
                d="M797.12,1452.78c3.74,2.04,6.31,6.03,6.31,10.61c0,5.75-4.02,10.56-9.43,11.76c-0.85,0.2-1.74,0.3-2.64,0.3
					c-2.09,0-4.04-0.53-5.76-1.46c-3.74-2.04-6.31-6.03-6.31-10.59c0-5.42,3.56-10,8.47-11.53c1.13-0.34,2.35-0.54,3.6-0.54
					C793.44,1451.31,795.39,1451.84,797.12,1452.78z"
                className="colorf26e6b svgShape"
              ></path>
              <path
                fill="#c45053"
                d="M786.53 1450.1l1.23 1.76c-4.91 1.53-8.47 6.11-8.47 11.53 0 4.57 2.56 8.56 6.31 10.59l-1.48 2.07c0 0-40.42 31.97-53.68 21.12-3.24-2.64-4.65-8.19-4.63-15.08.03-21.35 13.7-55.51 28.76-55.51 3.73 0 7.19.82 10.35 2.17C778.56 1434.58 786.53 1450.1 786.53 1450.1zM857.13 1428.98c13.22 4.42 13.4 34.37 5.85 55.23-3.83 10.56-9.62 18.79-16.72 20.2-21.12 4.22-51.88-27.75-51.88-27.75l-.38-1.51c5.4-1.2 9.43-6.01 9.43-11.76 0-4.58-2.56-8.57-6.31-10.61l2.09-.26c0 0 20.76-16.47 39.63-22.4C845.5 1428.03 851.92 1427.26 857.13 1428.98z"
                className="colorc45053 svgShape"
              ></path>
              <path
                fill="#a53c43"
                d="M1223.28 326.96c104.5-19 207.66 10.61 193.93 113.02-16.29 31.12-37.79 62.78-65.71 94.33l-.31.18c-66.66-118.29-178.86-173.37-261.66-198.78l4.15-.57c0 0 .44-1.41 1.02-3.96C1103.03 332.15 1161.2 338.26 1223.28 326.96zM884.98 276.5l2.92.21c-.16 2.18-.2 3.78-.2 4.6-90.77-14.85-215.46-4.35-333.32 45.9-18.8-44.5-16.59-95.82-5.55-144.01 10.95-13.12 43.12-37.56 123.33-18.57C775.84 189.18 785.39 235.57 884.98 276.5z"
                className="colora53c43 svgShape"
              ></path>
              <path
                fill="#f26e6b"
                d="M1094.71,331.18c-0.57,2.55-1.02,3.96-1.02,3.96l-4.15,0.57c-60.38-18.54-105.14-21.3-105.14-21.3
					c-23.3-15.14-56.71-26.59-96.69-33.11c0-0.82,0.03-2.41,0.2-4.6c0.95-12.09,6.14-42.22,34.06-58.64
					c17.37-10.23,43.58-15.14,83.06-7.06c30.48,6.24,51.2,17.33,65.15,30.38C1104.59,273.59,1097.78,317.86,1094.71,331.18z"
                className="colorf26e6b svgShape"
              ></path>
              <path
                fill="#dd6c64"
                d="M921.96 218.06c-27.9 16.42-33.11 46.52-34.06 58.63v.02l-2.92-.21c-99.59-40.92-109.14-87.32-212.82-111.87-80.21-18.98-112.38 5.45-123.33 18.57 20.77-90.9 72.9-170.68 74.21-172.68.02-.02.02-.03.02-.03 207.35 10.9 298.75 207.35 298.75 207.35L921.96 218.06zM1417.21 439.98c13.73-102.41-89.44-132.02-193.93-113.02-51.73 9.41-100.75 6.75-120.47 5.04-3.94-.36-6.7-.66-8.1-.82 3.07-13.32 9.89-57.59-24.53-89.8l.33-.36c0 0 110.97-165.11 349.11-162.38.94.02 1.89.03 2.84.05C1422.45 78.69 1517.24 249.12 1417.21 439.98z"
                className="colordd6c64 svgShape"
              ></path>
              <path
                fill="#936f69"
                d="M1759.19,2163.12c0,0,53.04-58.61,19.38-89.96c-35.82-33.35-119.88,5.45-137.55,14.19
					c-22.94,97.65-98.07,214.02-326.34,211.55c-40.48,57.58-114.2,107.98-248.22,109.19c-5.65-19.82-15.44-38.79-29.74-55.47
					c-14.99-17.56-35-32.6-60.42-43.47c-23.37-10.02-51.32-16.49-84.2-18.16c0,0,76.54-106.96,84.38-186.06
					c6.83,0.07,13.75,0.66,20.68,1.84c0,0-5.96,19.87-0.99,23.85c4.96,3.97,125.17-32.8,152.99-76.5c0,0-2.99,25.83,5.96,28.8
					c8.93,2.99,113.25-70.53,123.18-118.21c0,0-27.62-30.87-94.86-59.02c-23.83-9.98-52.63-19.61-86.94-27.41
					c0,0-52.62-111.16-142.94-147.98c8.29-8.56,9.76-16.29,4.84-20.91c-16.88-15.9-33.78-25.83-2.97-56.62l3.1-1.25
					c28.28,71.6,87.24,127.52,137.31,100c56.31-30.97,80.95-174.55-8.44-294.21c0,0,7.74-40.81-19-77.41c0,0,7.23-39.36,1.69-57.63
					c0,0-2.68-9.66-8.59-16.46l2.46-0.07c45.47-23.94,80.24-52.95,105.04-88.91l0.9,0.34c-6.04,16.23-12.91,32.02-20.69,47.3
					c0,0,54.72-10,98.9-110.03c2.71,1.33,12.05,5.14,27.69,3.93c15.45-1.18,37.03-7.28,64.41-25.52
					c6.13-4.09,12.05-8.95,17.69-14.42c35.8-34.75,60.07-94.38,50.2-138.42c7.09-8.52,13.53-17.03,19.33-25.49
					c14.01-20.45,24.4-40.63,31.78-60.38c17.7,9.82,199.24,117.14,163.75,376.27l0.23,0.03c0,0,0,0,0.02,0.02
					c1.87,0.84,121.18,55.69,163.09,202.34c11.3,39.53,9.3,82.24-4.76,124.32c3.86,1.25,62.93,21.51,46.87,87.12
					c-6.22,25.44-24.73,51.27-45.41,73.62c1.43,1.08,68.86,51.62,60.63,114.61c-1.07,8.15-3.48,16.01-6.9,23.55
					c1.2,0.59,56.18,28.64,6.9,117.63l-0.18,3.24c16.29,1.05,31.99,6.39,41.7,20.28C1916.97,2082.85,1842.24,2147.9,1759.19,2163.12
					z"
                className="color936f69 svgShape"
              ></path>
              <path
                fill="#936f69"
                d="M1459.2,894.14c-10.43,27.93-26.88,56.74-51.11,85.87c-3.99-17.8-13.55-33.06-30.18-43.11
					c-35.24-21.27-62.8-1.2-75.36,11.54c-3.7,3.76-6.11,6.88-7.01,8.13c-9.64,89.22-27.46,152.71-47.43,197.87
					c-44.18,100.03-98.9,110.03-98.9,110.03c7.78-15.27,14.65-31.07,20.69-47.3h0.02c28.62-76.91,38.59-163.02,38.53-245.86
					c-1.15-0.64-2.3-1.28-3.45-1.9c-5.21-2.82-10.44-5.42-15.6-7.82c-30.43-14.09-57.89-20.68-57.89-20.68
					c-1.43-120.18-60.09-221.29-73.11-242.29c-1.63-2.63-2.55-4.01-2.55-4.01l-1.15,0.1c1.95,22.79,2.17,44.5,1.22,64.75
					c-4.01,86.55-29.05,146.03-29.05,146.03c-6.06-1.66-12.09-3.15-18.1-4.5c-152.07-34.16-286.14,25.42-286.14,25.42
					c-36.34-62.7-56.64-126.29-66.59-186.48c-0.26,2.3-0.53,4.58-0.77,6.83c0,0.03,0,0.05,0,0.05c-1.26,11.73-2.23,22.88-2.94,33.42
					c-0.02,0.02-0.02,0.03,0,0.05c-6.11,89.6,5.91,136.47,5.91,136.47c-140.05,16.11-214.1,70.83-214.1,70.83
					c-46.21-65.56-63.59-136.7-67.54-199.22c-0.18-2.59-0.33-5.19-0.44-7.75l-2.1,0.1c-24.88,179.51,37.28,228.71,37.28,228.71
					l-6.44,5.63l-14.47,12.66v0.02l-18.87,16.5c-35.37-27.21-57.71-60.55-71.5-94.66c-2.07,6.27-9.92,31.02-14.29,57.58
					c-0.51,3.01-0.95,6.03-1.35,9.05c-0.33,2.46-0.61,4.94-0.84,7.41c-1.07,11.05-1.2,21.81,0.26,31.09
					c0,0-161.04-238.4,18.82-518.63c64.84-101.01,156.01-168.05,251.72-208.88c117.86-50.25,242.56-60.75,333.32-45.9
					c39.97,6.52,73.36,17.95,96.66,33.07c0.02,0.02,0.03,0.03,0.03,0.03s44.75,2.76,105.14,21.3c82.8,25.41,195,80.49,261.66,198.78
					c11.73,20.81,22.06,43.6,30.55,68.51c0.02,0.02,0.03,0.05,0.07,0.07C1385.22,606.37,1518.19,736.25,1459.2,894.14z"
                className="color936f69 svgShape"
              ></path>
              <path
                fill="#ad4049"
                d="M471.63,2116.7c0,0-38.74,2.97-55.64-1.99c-16.88-4.98-58.61-74.51-58.61-74.51
					c15.9-17.88,83.46-58.61,83.46-58.61c28.92-93.8,137.54-209.27,162.66-235.12c2.4-2.46,4.04-4.11,4.78-4.84
					c24.7,16.49,74.33,31.73,156.41,33.34c107.81,2.1,168.66-23.78,188.87-44.67c90.32,36.82,142.94,147.98,142.94,147.98
					c131.13,29.79,181.79,86.43,181.79,86.43c-9.94,47.67-114.25,121.2-123.18,118.21c-8.95-2.97-5.96-28.8-5.96-28.8
					c-27.82,43.7-148.03,80.47-152.99,76.5c-4.98-3.97,0.99-23.85,0.99-23.85c-6.93-1.18-13.84-1.77-20.68-1.84
					c-73.54-0.87-139.79,56.72-156.14,59.45c-17.88,2.99-61.6-4.96-61.6-4.96s-5.85,2.64-14.8,6.59
					c-27.05,11.91-82.54,35.64-91.49,34.14c-11.92-1.99-27.82-30.79-27.82-30.79c-6.49,0.13-12.76,0.02-18.84-0.28
					C516.07,2164.62,471.63,2116.7,471.63,2116.7z"
                className="colorad4049 svgShape"
              ></path>
              <path
                fill="#eec692"
                d="M1095.84,1751.51c-50.07,27.52-109.03-28.39-137.31-100c-3.53-8.93-6.59-18.1-9.08-27.39
					c-14.63-54.37-15.27-114.33-14.66-141.46c0.23-9.34,0.59-14.8,0.59-14.8s75.17,23.17,132.82-0.39
					c6.68-2.71,13.14-6.08,19.2-10.17C1176.79,1576.96,1152.15,1720.54,1095.84,1751.51z"
                className="coloreec692 svgShape"
              ></path>
              <path
                fill="#fdebdd"
                d="M1087.4,1457.31c-6.06,4.09-12.51,7.46-19.2,10.17c-57.66,23.57-132.82,0.39-132.82,0.39
					c-9.39-34.82,5.94-64.85,12.96-76.15c1.92-3.09,3.22-4.78,3.22-4.78c0.79,0.33,1.58,0.64,2.36,0.95
					c0.39,0.38,0.77,0.74,1.13,1.12c-0.1-0.11-0.39-0.46-0.89-1.02c58.2,22.66,114.23-8.1,114.23-8.1
					C1095.14,1416.5,1087.4,1457.31,1087.4,1457.31z"
                className="colorfdebdd svgShape"
              ></path>
              <path
                fill="#dd6c64"
                d="M1038.84,2548.57c-67.58,83.41-193.21,54.9-180.53,31.68c1.64-2.99,3.35-7.46,5.12-12.97
					c11.87-37.25,25.49-122.17,25.49-122.17s72.44-15.01,84.79-106.48c1.15-8.52,1.77-17.7,1.77-27.59l0.8-1.89
					c49.63,21.22,78.56,58.33,90.16,98.94C1080.4,2457.02,1069.25,2511.03,1038.84,2548.57z"
                className="colordd6c64 svgShape"
              ></path>
              <path
                fill="#eec692"
                d="M953.56,1730.3c-20.22,20.89-81.06,46.77-188.87,44.67c-40.04-0.79-72.34-4.83-97.81-10.64
					c-26.75-6.13-45.95-14.25-58.6-22.7c-0.74,0.74-2.38,2.38-4.78,4.84c-68.07,26.78-118.08-11.81-148.36-133.73
					c-12.66-51.04-16.16-94.86-15.9-128.64c2.55,0.72,12.38,3.38,26.75,5.32c33.39,4.5,91.24,5.11,138.74-31.53
					c4.81-3.7,9.51-7.78,14.07-12.28c2.17,9.49,2.84,21.2,2.5,33.91l0.99,0.03c0.34-0.56,0.69-1.12,1.05-1.66
					c9.62-14.86,24.19-26.19,24.19-26.19l0.18-0.16c15.83,18.15,47.54,35.65,76.68,30.53l1.41,0.02c-0.02,6.88,1.4,12.43,4.63,15.08
					c13.27,10.86,53.68-21.12,53.68-21.12l1.48-2.07c1.72,0.94,3.68,1.46,5.76,1.46c0.9,0,1.79-0.1,2.64-0.3l0.38,1.51
					c0,0,30.76,31.97,51.88,27.75c7.09-1.41,12.89-9.64,16.72-20.2l0.79,0.28c0,0,35.01,5.91,69.5-1.84l1.53,0.02
					c-0.61,27.13,0.03,87.09,14.66,141.46c2.5,9.28,5.53,18.41,9.05,27.33c0.02,0.05,0.03,0.07,0.03,0.07l-3.1,1.25
					c-30.81,30.79-13.91,40.73,2.97,56.62C963.31,1714.01,961.85,1721.74,953.56,1730.3z"
                className="coloreec692 svgShape"
              ></path>
              <path
                fill="#fdebdd"
                d="M951.55,1386.94c0,0-28.15,36.59-16.18,80.93c0,0-0.36,5.45-0.59,14.8l-1.53-0.02
					c-34.49,7.75-69.5,1.84-69.5,1.84l-0.79-0.28c0.82-2.25,1.54-4.61,2.17-7.03c5.19-20,3.78-44.26-8.01-48.2
					c-5.21-1.72-11.63-0.95-18.29,1.13l-0.46-1.46c28.84-9.08,49.18-28.34,61.03-50.86c1.89-3.55,3.55-7.18,4.99-10.87
					c0.03-0.07,0.05-0.13,0.08-0.2c0.13,0.03,0.3,0.08,0.46,0.11c6.52,1.72,37.25,10.26,48.99,21.05
					C953.13,1387.58,952.34,1387.27,951.55,1386.94z"
                className="colorfdebdd svgShape"
              ></path>
              <path
                fill="#dd6c64"
                d="M873.4,2929.88c-42.22,61.24-167.33,50.68-176.29,31.68c-1-2.13-1.26-5.34-1-9.54
					c1.69-25.13,22.73-85.59,18.62-162.73c-0.23-4.17-0.66-8.95-1.3-14.27l3.4-0.51c0,0,75.53-7.55,133.05-34.63
					c7.01-3.3,13.75-6.88,20.04-10.77l0.9-0.26C895.36,2812.77,906.41,2882.03,873.4,2929.88z"
                className="colordd6c64 svgShape"
              ></path>
              <path
                fill="#fdebdd"
                d="M765.51,1427.44l-0.61,1.31c-3.15-1.35-6.62-2.17-10.35-2.17c-13.73,0-26.29,28.36-28.43,49.55
					c-0.21,2.07-0.33,4.07-0.33,5.96l-1.41-0.02c-29.13,5.12-60.84-12.38-76.68-30.53c-8.41-9.64-12.33-19.48-8.98-26.18
					c9.18-18.39,75.3-47.72,81.57-50.47c0.74,2.13,1.76,4.88,3.15,8.01v0.02C729.41,1396.38,741.91,1416.91,765.51,1427.44z"
                className="colorfdebdd svgShape"
              ></path>
              <path
                fill="#936f69"
                d="M719.01 1368.14l-.2 1.89c0 0 .44 1.84 1.48 4.88-6.27 2.74-72.39 32.07-81.57 50.47-3.35 6.7.57 16.54 8.98 26.18l-.18.16c0 0-15.67 12.19-25.24 27.85l-.99-.03c.34-12.71-.33-24.42-2.5-33.91-11.32-49.63-45.28-60.07-45.28-60.07s-2.94 2-8.31 4.93l-.18-.33c0 0-2.82-24.3-11.12-50.33-1.97-6.22-4.27-12.55-6.91-18.67C586.57 1341.5 648.6 1360.47 719.01 1368.14zM634.87 2432.7c-202.68 53.62-301.45-65.29-316.54-85.54-60.86 11.74-143.25-.36-224.44-104.12-113.15-144.57 1.38-274.27 13.86-287.64-31.33-18.9-61.99-47.9-81.9-92.41-51.83-115.84 41.94-172.88 57.58-181.42-54.11-179.84 108.37-329.74 108.37-329.74l1.18-.34c-29.61-102.21 63.64-176.7 103.38-228.68 3.45-4.52 6.27-8.95 8.54-13.29 24.39-46.77-16.32-81.83-21.32-85.89 1.97-20.64 7.21-42.27 11.35-57.08 2.28-8.18 4.24-14.25 5.12-16.95 13.79 34.11 36.13 67.45 71.5 94.66l18.87-16.5c.43 1.54 14.86 50.79 59.86 75.61 0 0-23.63 102.05 41.75 175.78v.11c-7.74.56-14.86 3.27-17.64 10.66 0 0-18.03-10.56-26.54 7.54 0 0-19.05-7.7-21.27 13.71 0 0-19-7.24-17.72 17.36 1.4 26.65 15.13 50.88 30.46 47l.18.62c0 0 10.07 14.85 7.8 32.89 0 0 0 .03-.02.1-.49 1.79-7.72 29.13-8.05 74.97-.03 3.74-.02 7.62.07 11.61.56 31.97 4.57 71.65 15.83 117.03 30.28 121.92 80.29 160.51 148.36 133.73-21.99 22.61-107.91 113.86-148.41 199.15-5.78 12.19-10.64 24.24-14.25 35.96 0 0-67.56 40.73-83.46 58.61 0 0 41.73 69.53 58.61 74.51 16.9 4.96 55.64 1.99 55.64 1.99s44.44 47.92 134.15 52.37c-1.54 12.71-10.94 98.9 7.59 177.87 2.66 11.35 6.34 26.11 10.71 43.4C627.33 2403.2 630.97 2417.44 634.87 2432.7z"
                className="color936f69 svgShape"
              ></path>
              <path
                fill="#fdebdd"
                d="M618.81,1445.62c-4.57,4.5-9.26,8.59-14.07,12.28c-47.49,36.64-105.35,36.03-138.74,31.53
					c-14.37-1.94-24.21-4.6-26.75-5.32c0.35-47.44,8.06-75.07,8.06-75.07c36.54,8.33,69.88,1.17,93.1-7.37
					c10.59-3.89,19.08-8.06,24.81-11.2c5.37-2.92,8.31-4.93,8.31-4.93S607.49,1395.99,618.81,1445.62z"
                className="colorfdebdd svgShape"
              ></path>
              <polygon fill="#d18c59" points="907.05 1359.38 928.17 1354.9 951.55 1386.94 904.47 1366.72" className="colord18c59 svgShape"></polygon>
              <polygon fill="#fdebdd" points="781.52 1436.19 811.39 1437.98 798.25 1449.33 786.9 1447.54" className="colorfdebdd svgShape"></polygon>
              <path
                fill="#e2a383"
                d="M1208.45 971.32c.07 82.83-9.9 168.95-38.53 245.86h-.02l-.9-.34c-10.12 14.67-21.89 28.18-35.37 40.66.51-1.17 1.03-2.36 1.58-3.58 53.19-118.82 46.1-273.1 46.1-273.1l-83.34-28.38c10.64-86.91-23.06-143.65-23.06-143.65-5.32 76.25-35.47 120.59-35.47 120.59-169.02-41.94-324.54 23.06-324.54 23.06l-46.11-94 15.96 78.04c-143.65 7.09-237.65 74.49-237.65 74.49-31.43-24.44-57.68-88.42-58.5-90.4 15.95 58.5 46.08 101.05 46.08 101.05l-34.42 29.25c-6.83-12.78-9.66-22.43-9.84-23.11v-.02l20.91-18.29c0 0-62.16-49.2-37.28-228.71l2.1-.1c3.01 64.34 19.85 138.69 67.99 206.97 0 0 74.05-54.72 214.1-70.83 0 0-15.63-60.99-2.2-176.82 9.95 60.19 30.25 123.77 66.59 186.48 0 0 144.88-64.38 304.24-20.92 0 0 38.13-90.55 27.84-210.78l1.15-.1c0 0 74.05 111.08 75.66 246.3C1131.51 940.93 1171.52 950.53 1208.45 971.32zM907.05 1359.38c-.76 2.46-1.61 4.91-2.58 7.34-.72 1.86-1.49 3.7-2.33 5.52-81.37 24.52-156.29 14.6-178.69 10.69-1.4-3.14-2.41-5.9-3.15-8.03-1.03-3.04-1.48-4.88-1.48-4.88l.2-1.89c30.35 3.3 62.26 4.52 94.59 2.82C844.69 1369.33 876.18 1365.44 907.05 1359.38z"
                className="colore2a383 svgShape"
              ></path>
              <path
                fill="#ddcac3"
                d="M984.4,314.41c-191.58-54.55-455.72-25.26-638.38,194.65c-197.69,237.99-62.08,494.8-62.08,494.8
						c0.2,4.32,0.36,8.42,0.48,12.35c-0.33,2.46-0.61,4.94-0.84,7.41c-1.07,11.05-1.2,21.81,0.26,31.09
						c0,0-161.04-238.4,18.82-518.63c64.84-101.01,156.01-168.05,251.72-208.88c117.86-50.25,242.56-60.75,333.32-45.9
						c39.97,6.52,73.36,17.95,96.66,33.07C984.38,314.4,984.4,314.41,984.4,314.41z"
                className="colorddcac3 svgShape"
              ></path>
              <path
                fill="#ddcac3"
                d="M411.33 1009.44l-6.44 5.63c-80.32-74.11-51.78-248.85-51.78-248.85 8.87-108.19 47.87-157.83 47.87-157.83-27.57 55.15-19.97 128.69-24.39 179.99-.18-2.59-.33-5.19-.44-7.75l-2.1.1C349.17 960.24 411.33 1009.44 411.33 1009.44zM692.9 402.61c0 0-108.7 158.46-40.58 377.64l3.71-40.3C656.04 739.95 623.5 591.19 692.9 402.61zM1055.92 759.48c-4.01 86.55-29.05 146.03-29.05 146.03-6.06-1.66-12.09-3.15-18.1-4.5 59.32-120.74 19.02-320.83 18.28-324.46C1047.08 628.97 1054.37 696.91 1055.92 759.48zM1208.45 971.32c-1.15-.64-2.3-1.28-3.45-1.9-5.21-2.82-10.44-5.42-15.6-7.82 11.07-107.25-35.98-354.13-36.82-358.56C1197.1 747.09 1208.45 971.32 1208.45 971.32z"
                className="colorddcac3 svgShape"
              ></path>
              <path
                fill="#6d4b47"
                d="M411.33 1009.44l-20.91 18.29v.02l-18.87 16.5c-35.37-27.21-57.71-60.55-71.5-94.66-2.07 6.27-9.92 31.02-14.29 57.58-1.3-2.07-1.82-3.3-1.82-3.3s-56.76-152.53 3.55-246.52c0 0-17.74 159.61 81.59 260.7L411.33 1009.44zM658.24 916.77c-140.05 16.11-214.1 70.83-214.1 70.83-48.13-68.28-64.98-142.63-67.99-206.97 8.88-142.09 24.83-172.24 24.83-172.24s-14.17 191.53 60.3 312.12c0 0 85.13-42.57 152.51-40.79 0 0 3.55-83.34 37.25-115.27 0 0 .41 5.93 1.28 15.8-.02.02-.02.03 0 .05C646.21 869.9 658.24 916.77 658.24 916.77zM1026.87 905.5c-159.36-43.45-304.24 20.92-304.24 20.92-36.34-62.7-56.64-126.29-66.59-186.48-.26 2.3-.53 4.58-.77 6.83-.94-7.51-1.76-15.21-2.45-23.12-19.51-221.68 35.47-317.44 35.47-317.44s-49.66 289.07 54.98 459.32C743.27 865.53 970.26 856.66 1026.87 905.5zM1205 969.42c-35.93-19.48-73.49-28.49-73.49-28.49-1.43-120.18-60.09-221.29-73.11-242.29-1.74-15.17-8.46-60.55-31.37-122.13 1.69 2.18 110.08 143.42 125.91 344.01 0 0 42.55 21.28 51.42 42.57C1205.15 964.97 1205.33 967.12 1205 969.42z"
                className="color6d4b47 svgShape"
              ></path>
              <path
                fill="#6d4b47"
                d="M1156.48,608.39c0,0,120.6,266.02,53.2,562.19c0,0,93.99-177.35,90.45-445.14
						c0,0,28.03,457.38-150.92,539.04C1149.21,1264.48,1273.53,1002.09,1156.48,608.39z"
                className="color6d4b47 svgShape"
              ></path>
              <path
                fill="#6d4b47"
                d="M1459.2 894.14c-10.43 27.93-26.88 56.74-51.11 85.87-3.99-17.8-13.55-33.06-30.18-43.11-35.24-21.27-62.8-1.2-75.36 11.54-3.86-5.17-5.96-8.42-5.96-8.42s14.19-92.23 3.55-214.59c0 0 24.83 74.49 17.74 150.74 0 0 62.06-72.7 63.83-223.44 0 0 37.25 115.25-12.4 221.65.23-.3 4.2-5.26 13.58-16.77 59.27-72.91 60.76-177.74 1.86-250.95-.97-1.22-1.95-2.4-2.94-3.6C1385.22 606.37 1518.19 736.25 1459.2 894.14zM624.08 2390.34c3.25 12.86 6.9 27.1 10.79 42.35-202.68 53.62-301.45-65.29-316.54-85.54-60.86 11.74-143.25-.36-224.44-104.12-113.15-144.57 1.38-274.27 13.86-287.64-31.33-18.9-61.99-47.9-81.9-92.41-51.83-115.84 41.94-172.88 57.58-181.42-54.11-179.84 108.37-329.74 108.37-329.74l1.18-.34c-29.61-102.21 63.64-176.7 103.38-228.68 3.45-4.52 6.27-8.95 8.54-13.29 24.39-46.77-16.32-81.83-21.32-85.89 1.97-20.64 7.21-42.27 11.35-57.08 2.61.62 3.46 2.33 3.46 2.33 106.89 170.36 30.05 287.29-10.03 460.99-40.09 173.72 103.56 210.47 103.56 210.47s-103.56 56.79-160.35-86.86c-56.79-143.65 83.52-367.47 23.39-340.75-60.12 26.74-50.1 163.7-50.1 163.7-209.56 199.91-39.5 434.03-27.39 450.1-9-11.33-103.84-128.31-122.94-39.22-20.04 93.54 170.36 207.12 170.36 207.12-130.28-20.05-170.36 106.89-116.91 217.14 74.95 154.6 263.91 113.58 263.91 113.58C452.99 2384.53 545.41 2396.19 624.08 2390.34z"
                className="color6d4b47 svgShape"
              ></path>
              <path
                fill="#6d4b47"
                d="M1759.19,2163.12c0,0,53.04-58.61,19.38-89.96c-35.82-33.35-119.88,5.45-137.55,14.19
						c-22.94,97.65-98.07,214.02-326.34,211.55c-40.48,57.58-114.2,107.98-248.22,109.19c-5.65-19.82-15.44-38.79-29.74-55.47
						c241.05-39.22,323.98-227.91,323.98-227.91c36.75,30.07,20.05,120.26,20.05,120.26c217.14-10.02,263.91-283.94,263.91-283.94
						c33.4,36.74,30.07,76.82,30.07,76.82c106.89-16.7,160.35,63.47,160.35,63.47c60.12-80.17-43.44-76.82-43.44-76.82
						c36.75-10.03,73.49-93.54,36.75-76.84c-36.18,16.44-82.06,29.66-83.49,30.05c133.58-103.56,33.39-180.38,33.39-180.38
						l-73.51,20.05c126.94-103.56,63.47-136.96,63.47-136.96c-93.53,170.37-347.41,173.7-347.41,173.7
						c410.89-126.93,307.33-350.75,307.33-350.75c-1.01,91.36-66.4,116.33-247.24,161.23c-152.8,37.94-86.81,166.15-86.81,166.15
						c-100.23-213.8,130.28-240.54,220.47-297.33c90.19-56.79,23.39-203.77,23.39-203.77c-13.37,33.4-46.77,56.79-46.77,56.79
						c20.05-380.83-163.68-430.94-163.68-430.94c-0.03-0.33-0.07-0.66-0.08-0.99c14.01-20.45,24.4-40.63,31.78-60.38
						c17.7,9.82,199.24,117.14,163.75,376.27l0.23,0.03c0,0,0,0,0.02,0.02c1.87,0.84,121.18,55.69,163.09,202.34
						c11.3,39.53,9.3,82.24-4.76,124.32c3.86,1.25,62.93,21.51,46.87,87.12c-6.22,25.44-24.73,51.27-45.41,73.62
						c1.43,1.08,68.86,51.62,60.63,114.61c-1.07,8.15-3.48,16.01-6.9,23.55c1.2,0.59,56.18,28.64,6.9,117.63l-0.18,3.24
						c16.29,1.05,31.99,6.39,41.7,20.28C1916.97,2082.85,1842.24,2147.9,1759.19,2163.12z"
                className="color6d4b47 svgShape"
              ></path>
              <path
                fill="#6d4b47"
                d="M1539.24,1985.88c0,0-201.81,27.72-266.04-156.24c-76.81-220.03,52.55-287.26,90.55-451.94
						c38-164.7-87.96-219.32-87.96-219.32c15.45-1.18,37.03-7.28,64.41-25.52c6.13-4.09,12.05-8.95,17.69-14.42
						c1.31,0.54,2.64,1.13,3.99,1.76c63.34,29.56,104.04,161.02,44.92,317.28c-59.12,156.24-116.7,147.24-99.81,337.27
						C1323.88,1964.76,1539.24,1985.88,1539.24,1985.88z"
                className="color6d4b47 svgShape"
              ></path>
              <path
                fill="#e8cab5"
                d="M1087.4,1457.31c-6.06,4.09-12.51,7.46-19.2,10.17c-0.76-0.99-1.18-1.49-1.18-1.49
					s-2.35-60.49-36.91-57.35c-41.24,3.75-71.85-13.65-81.77-16.91c1.92-3.09,3.22-4.78,3.22-4.78c0.79,0.33,1.58,0.64,2.36,0.95
					c0.39,0.38,0.77,0.74,1.13,1.12c-0.1-0.11-0.39-0.46-0.89-1.02c58.2,22.66,114.23-8.1,114.23-8.1
					C1095.14,1416.5,1087.4,1457.31,1087.4,1457.31z"
                className="colore8cab5 svgShape"
              ></path>
              <path
                fill="#e5a26a"
                d="M1095.84,1751.51c-50.07,27.52-109.03-28.39-137.31-100c102.74,136.57,142.43,62.77,148.56-22.94
					c5.58-78.42-37.32-148.09-45.56-158.68c6.68-2.71,19.81-8.51,25.87-12.6C1176.79,1576.96,1152.15,1720.54,1095.84,1751.51z"
                className="colore5a26a svgShape"
              ></path>
              <path fill="#b4adbd" d="M933.24,1482.73c-0.25,1.13-2.81,13.5-4.6,33.55C929.02,1504.87,930.45,1493.55,933.24,1482.73z" className="colorb4adbd svgShape"></path>
              <path
                fill="#e5a26a"
                d="M953.56 1730.3c-20.22 20.89-81.06 46.77-188.87 44.67-40.04-.79-72.34-4.83-97.81-10.64-26.75-6.13-45.95-14.25-58.6-22.7-.36.36-.95.95-1.76 1.76-25.32-17.46-18.03-38.72-6.32-47.82 13.78-10.72 30.61-9.2 32.14-65.82 1.54-56.62 38.26-94.89 38.26-94.89-26.01 42.85-21.41 78.06-30.61 127.03-9.18 48.99-16.83 32.14-26.01 48.99-9.18 16.83 33.67 36.72 140.8 42.85 107.14 6.13 166.6-22.08 154.35-46.58-12.23-24.49 9.2-67.33 9.2-67.33-8.7-47.84 7.83-95.75 10.31-123.49-2.18 64.74 28.8 132.86 29.86 135.14.02.05.03.07.03.07l-3.1 1.25c-30.81 30.79-13.91 40.73 2.97 56.62C963.31 1714.01 961.85 1721.74 953.56 1730.3zM600.22 1605.19c.48-2.59 16.55-91.09 4.52-147.29 4.81-3.7 9.51-7.78 14.07-12.28 2.17 9.49 2.84 21.2 2.5 33.91l.99.03c.34-.56.69-1.12 1.05-1.66C620.86 1517.18 614.59 1563.41 600.22 1605.19z"
                className="colore5a26a svgShape"
              ></path>
              <path
                fill="#e5a26a"
                d="M666.87,1764.32c-26.75-6.13-45.95-14.25-58.6-22.7c-0.74,0.74-2.38,2.38-4.78,4.84
					c-68.07,26.78-118.08-11.81-148.36-133.73c-12.66-51.04-16.16-94.86-15.9-128.64c2.55,0.72,25.05,4.28,39.42,6.22
					c0.07,89.83,26.71,259.23,124.61,251.15C647.43,1737.84,665.38,1749.97,666.87,1764.32z"
                className="colore5a26a svgShape"
              ></path>
              <path
                fill="#e8cab5"
                d="M723.58 1476.29c.85-.05 1.71-.1 2.55-.16-.21 2.07-.33 4.07-.33 5.96l-1.41-.02c-29.13 5.12-60.84-12.38-76.68-30.53-8.41-9.64-12.33-19.48-8.98-26.18 9.18-18.39 75.3-47.72 81.57-50.47.74 2.13 1.76 4.88 3.15 8.01v.02c0 0-57.31 31.44-56.26 46.12C668.23 1443.72 687.94 1478.4 723.58 1476.29zM951.55 1386.94c0 0-28.15 36.59-16.18 80.93 0 0-.36 5.45-.59 14.8l-1.53-.02c-34.49 7.75-69.5 1.84-69.5 1.84l-.79-.28c.82-2.25 1.54-4.61 2.17-7.03 10.95.2 14.76-6.43 22-8.85 28.3-9.44 17.8-30.88 34.56-64.41 8.69-17.37-4.54-21.3-22.31-26.13-16.54-4.53-34.32-5.26-34.32-5.26l39.31-5.62.54-.08c6.52 1.72 37.25 10.26 48.99 21.05C953.13 1387.58 952.34 1387.27 951.55 1386.94z"
                className="colore8cab5 svgShape"
              ></path>
              <path
                fill="#dd6c64"
                d="M606.52,1763.65c0,0,153.53,77.64,332.47,0.04c0,0,92.38,54.4,131.97,128.83c0,0,131.72,43.63,163.39,89.55
					c0,0-41.91,60.29-57.74,63.45c-15.84,3.17,4.75-47.51-90.26-102.93s-123.52-106.1-123.52-106.1s1.58,64.93,101.35,137.77
					c99.77,72.84,34.56,101.88-18.22,114.02s-21.93-9.9-69.44-60.57c-47.51-50.67-54.87-45.78-73.87-90.12
					c-19-44.34-55.43-90.02-72.85-104.27c0,0,25.34,88.68,38.01,133.02c12.67,44.34,88.68,106.1,90.26,115.6
					c1.58,9.5-38.01-3.17-76.01,22.17c-38.01,25.34-59.39,25.54-78.4,25.54c-19,0-34.81,12.91-66.48-69.44
					c-31.67-82.35-43.57-150.88-41.98-214.22c0,0-36.42,107.68,4.75,221.7c41.17,114.02-34.9,114.47-44.42,105.9
					c-19.31-17.37-15.23-21.9-34.28-20c-36.96,3.7-102.09-16.23-111.59-43.15c-9.5-26.92,41.43-83.93,41.43-83.93
					s-22.17-83.93,9.5-177.36c0,0-45.92,90.26-47.51,136.19c-1.58,45.92-55.43,88.68-60.18,109.27
					c-4.75,20.59-60.18-11.08-69.68-53.84c0,0,34.84-33.26,69.68-42.76C452.91,1998.02,506.75,1865,606.52,1763.65z"
                className="colordd6c64 svgShape"
              ></path>
              <path
                fill="#e8cab5"
                d="M618.81,1445.62c-4.57,4.5-9.26,8.59-14.07,12.28c-5.49-25.64-16.83-44.54-38.2-45.49
					c0,0-15.4,26.43-85.82,23.38c0,0-2.07,22.14-2.05,54.54c-14.37-1.94-36.87-5.5-39.42-6.22c0.35-47.44,8.06-75.07,8.06-75.07
					c36.54,8.33,69.88,1.17,93.1-7.37c10.59-3.89,19.08-8.06,24.81-11.2c5.37-2.92,8.31-4.93,8.31-4.93
					S607.49,1395.99,618.81,1445.62z"
                className="colore8cab5 svgShape"
              ></path>
              <path
                fill="#e2a383"
                d="M870.82,2728.84l-0.9,0.26c-6.29,3.89-13.02,7.47-20.04,10.77c-0.62-2.15-1.28-4.32-1.95-6.5
					c-44.36-144.57-52.57-254.63-103.49-285.83c-50.93-31.22-88.7-82.14-68.99-157.7c19.71-75.58,1.64-67.36-26.29-62.42
					c-27.92,4.93-42.7-29.58-42.7-29.58c-0.97-1.97-1.9-3.91-2.81-5.81c0.82-11.58,1.74-19.69,2.14-22.96
					c6.08,0.3,12.35,0.41,18.84,0.28c0,0,15.9,28.8,27.82,30.79c8.95,1.49,64.44-22.24,91.49-34.14
					c-5.22,9.2-64.26,115.51-46.1,185.16c13.94,53.45,50.63,83.59,112.97,92.51c-0.02,2.84-0.46,96.17,36.95,211.54
					C856.04,2680.8,863.96,2705.39,870.82,2728.84z"
                className="colore2a383 svgShape"
              ></path>
              <path
                fill="#ad4049"
                d="M873.4,2929.88c-42.22,61.24-167.33,50.68-176.29,31.68c-1-2.13-1.26-5.34-1-9.54
					c181.94,31.84,195.72-71.14,153.78-212.14c7.01-3.3,13.75-6.88,20.04-10.77l0.9-0.26
					C895.36,2812.77,906.41,2882.03,873.4,2929.88z"
                className="colorad4049 svgShape"
              ></path>
              <path
                fill="#e2a383"
                d="M892.09,2290.99c32.88,1.68,60.83,8.15,84.2,18.16l-0.8,1.89c0,9.89-0.62,19.07-1.77,27.59
					c-58.94-35.65-133.99-35.65-133.99-35.65s21.35-29.58,59.14-95.28c37.79-65.71-41.07-32.84-72.27-11.5
					c-31.22,21.35-95.28-3.28-95.28-3.28c-0.31-0.2-0.61-0.41-0.9-0.61c6.72-14.14,12.12-23.81,13.53-26.31
					c8.95-3.94,14.8-6.59,14.8-6.59s43.72,7.95,61.6,4.96c16.36-2.73,82.6-60.32,156.14-59.45
					C968.63,2184.03,892.09,2290.99,892.09,2290.99z"
                className="colore2a383 svgShape"
              ></path>
              <path
                fill="#ad4049"
                d="M1038.84,2548.57c-67.58,83.41-193.21,54.9-180.53,31.68c1.64-2.99,3.35-7.46,5.12-12.97
					c0.3,0.05,0.61,0.11,0.92,0.18c184,39.43,198.78-146.21,139.64-205.34c-9.18-9.18-19.46-16.93-30.28-23.48
					c1.15-8.52,1.77-17.7,1.77-27.59l0.8-1.89c49.63,21.22,78.56,58.33,90.16,98.94C1080.4,2457.02,1069.25,2511.03,1038.84,2548.57
					z"
                className="colorad4049 svgShape"
              ></path>
              <path
                fill="#c45053"
                d="M1417.21 439.98c13.73-102.41-89.44-132.02-193.93-113.02-51.73 9.41-100.75 6.75-120.47 5.04-.74-3.84-1.03-5.96-1.03-5.96s18.36 7.28 112.54-12.12c58.87-12.12 118.69-27.52 176.08-62.59 57.01-34.84 49.03-117.5 29.98-167.7-.79-2.09-1.02-3.74-.76-4.99.94.02 1.89.03 2.84.05C1422.45 78.69 1517.24 249.12 1417.21 439.98zM887.9 276.69v.02l-2.92-.21c-99.59-40.92-109.14-87.32-212.82-111.87-80.21-18.98-112.38 5.45-123.33 18.57 20.77-90.9 72.9-170.68 74.21-172.68-.38 2.22-15.88 93.84 35.73 117.29 52.26 23.76 77.6 38.02 126.68 71.27C821.03 223.17 849.95 258.09 887.9 276.69z"
                className="colorc45053 svgShape"
              ></path>
              <g>
                <path
                  fill="#38212a"
                  d="M390.42,1033.26c-1.54,0-3.07-0.64-4.16-1.89c-2.01-2.3-1.78-5.79,0.52-7.8l16.4-14.35
					c-14.55-15.87-55.87-75.87-34.61-229.25c0.42-3.02,3.2-5.13,6.24-4.72c3.03,0.42,5.14,3.21,4.72,6.24
					c-24.17,174.36,34.64,223.15,35.23,223.62c1.29,1.02,2.06,2.56,2.1,4.2c0.04,1.64-0.65,3.22-1.89,4.3l-20.91,18.29
					C393.01,1032.81,391.71,1033.26,390.42,1033.26z"
                  className="color38212a svgShape"
                ></path>
                <path
                  fill="#38212a"
                  d="M371.55 1049.79c-1.19 0-2.37-.38-3.37-1.15-32.79-25.22-57.44-57.85-73.26-96.97-36.87-91.11-14.25-185.68-13.27-189.66.73-2.96 3.71-4.78 6.69-4.05 2.97.73 4.78 3.72 4.05 6.69-.23.94-22.71 95.16 12.78 182.87 14.49 35.84 36.75 65.95 66.19 89.55l15.42-13.49c2.3-2.01 5.79-1.78 7.8.52 2.01 2.3 1.78 5.79-.52 7.8l-18.87 16.5C374.15 1049.33 372.85 1049.79 371.55 1049.79zM444.14 993.13c-.29 0-.59-.02-.88-.07-1.47-.24-2.78-1.06-3.64-2.27-42.06-59.67-65.27-130.29-68.99-209.9-4.42-94.89 20.56-167.16 21.62-170.19 1.01-2.88 4.18-4.39 7.05-3.38 2.88 1.01 4.4 4.17 3.39 7.05-.25.72-25.32 73.38-21.01 166.01 3.53 75.48 25.01 142.58 63.87 199.55 18.16-11.99 87.78-53.21 206-67.92-3.56-18.25-12.16-76.49-1-172.69.18-1.67.38-3.39.6-5.13.38-3.03 3.12-5.18 6.18-4.8 3.03.38 5.18 3.15 4.8 6.18-.21 1.68-.4 3.34-.58 4.98-13.14 113.26 1.91 174.25 2.06 174.85.39 1.55.1 3.19-.8 4.5-.91 1.31-2.34 2.18-3.92 2.36-136.74 15.73-210.72 69.25-211.45 69.79C446.46 992.75 445.31 993.13 444.14 993.13z"
                  className="color38212a svgShape"
                ></path>
                <path
                  fill="#38212a"
                  d="M722.63,931.96c-1.92,0-3.77-1-4.79-2.76c-33.54-57.86-56.17-121.23-67.26-188.35
					c-15.75-95.06-5.48-181.43,5.91-237.15c12.35-60.42,28.2-97.84,28.87-99.4c1.2-2.81,4.45-4.11,7.26-2.91
					c2.81,1.2,4.11,4.45,2.91,7.26c-0.64,1.5-63.62,151.81-34.03,330.4c10.61,64.17,31.97,124.84,63.51,180.39
					c11.51-4.64,43.66-16.6,88.96-25.2c50.8-9.65,127.98-16.52,209.55,4.65c7.26-19.57,34.47-101.16,25.69-203.69
					c-3.34-38.96-11.52-76.98-24.32-113c-1.02-2.88,0.48-6.04,3.36-7.06c2.88-1.02,6.04,0.48,7.06,3.36
					c13.11,36.91,21.5,75.86,24.92,115.76c10.29,120.2-27.86,212.48-28.25,213.4c-1.08,2.56-3.89,3.92-6.55,3.19
					c-155.66-42.44-299.11,20.01-300.54,20.64C724.15,931.8,723.38,931.96,722.63,931.96z"
                  className="color38212a svgShape"
                ></path>
                <path
                  fill="#38212a"
                  d="M1208.74,977.03c-0.93,0-1.87-0.24-2.74-0.74c-0.01-0.01-0.04-0.02-0.06-0.04
					c-0.07-0.03-0.13-0.07-0.2-0.11c-35.79-20.15-75.13-29.74-75.52-29.84c-2.46-0.59-4.21-2.78-4.24-5.31
					c-1.57-131.93-74-242.2-74.73-243.3c-1.69-2.54-1-5.97,1.54-7.67c2.54-1.69,5.97-1.01,7.67,1.53
					c0.74,1.11,73.43,111.66,76.51,245.07c11.29,3.05,43.45,12.6,74.05,29.8c0.17,0.09,0.34,0.18,0.52,0.29
					c2.61,1.56,3.51,4.96,1.96,7.58C1212.46,976.04,1210.63,977.03,1208.74,977.03z M1206.25,976.4h0.02H1206.25z"
                  className="color38212a svgShape"
                ></path>
                <path
                  fill="#38212a"
                  d="M1149.21,1270.01c-1.73,0-3.38-0.81-4.43-2.23c-1.26-1.69-1.45-3.94-0.49-5.81
					c7.49-14.69,14.36-30.41,20.43-46.72c0.05-0.13,0.1-0.26,0.16-0.39c25.31-68.18,38.11-150.12,38.04-243.54
					c-0.16-189.28-53.62-363.47-54.16-365.2c-0.91-2.92,0.72-6.02,3.64-6.92c2.91-0.91,6.01,0.72,6.92,3.64
					c0.54,1.75,54.49,177.54,54.66,368.48c0.07,94.92-13.01,178.29-38.87,247.79c-0.05,0.13-0.1,0.26-0.16,0.39
					c-4.46,11.96-9.35,23.61-14.59,34.79c17.99-9.08,52.83-34.43,82.7-102.07c22.64-51.21,38.45-117.23,46.99-196.23
					c7.27-67.04,9.33-144.21,6.15-229.37c-0.12-3.05,2.27-5.62,5.32-5.73c3.1-0.1,5.62,2.27,5.73,5.32
					c3.21,85.7,1.12,163.41-6.2,230.98c-8.66,80.14-24.76,147.26-47.87,199.51c-44.84,101.54-100.61,112.8-102.96,113.23
					C1149.88,1269.98,1149.54,1270.01,1149.21,1270.01z M1169.92,1217.18h0.02H1169.92z"
                  className="color38212a svgShape"
                ></path>
                <path
                  fill="#38212a"
                  d="M1063.97 1311.28c-1.99 0-3.91-1.07-4.9-2.95-1.42-2.7-.39-6.05 2.32-7.47 45.39-23.9 79.1-52.41 103.06-87.16 1.74-2.52 5.18-3.15 7.69-1.41 2.52 1.73 3.15 5.18 1.41 7.69-25 36.25-60 65.91-107.01 90.66C1065.72 1311.07 1064.84 1311.28 1063.97 1311.28zM784.28 1377.25c-21.68 0-43.72-1.21-65.86-3.62-64.73-7.05-129.75-24.84-173.94-47.58l-.54-.27c-2.73-1.37-3.84-4.69-2.47-7.42 1.37-2.73 4.68-3.84 7.42-2.47l.58.29c43.12 22.19 106.7 39.55 170.15 46.46 31.72 3.45 63.25 4.39 93.7 2.8 30.91-1.62 62.09-5.48 92.67-11.48 7.01-1.37 14.06-2.86 20.94-4.45 2.98-.68 5.94 1.17 6.63 4.15.69 2.98-1.17 5.94-4.15 6.63-7.01 1.61-14.17 3.13-21.3 4.52-31.09 6.1-62.79 10.03-94.21 11.67C804.12 1376.99 794.24 1377.25 784.28 1377.25zM492.03 1284.67c-1.53 0-3.05-.63-4.14-1.86-34.81-39.26-44.65-86.3-46.77-118.85-1.79-27.47 1.37-49.13 2.96-57.79-43.33-25.95-57.99-73.54-58.94-76.77-.23-.74-.31-1.52-.22-2.29.14-1.25.7-2.45 1.68-3.38 2.21-2.11 5.71-2.03 7.81.18l.02.02c.68.72 1.14 1.58 1.37 2.5.87 2.96 15 48.85 57.16 72.09 2.16 1.19 3.27 3.68 2.72 6.09-.23.99-22.16 100.21 40.49 170.87 2.03 2.29 1.82 5.78-.47 7.81C494.64 1284.21 493.33 1284.67 492.03 1284.67zM1269.85 1164.11c-13.24 0-21.42-3.35-24.17-4.69-.79-.38-1.2-.63-1.2-.63-2.6-1.57-3.48-4.97-1.92-7.58 1.55-2.6 4.88-3.49 7.49-1.97.06.03.22.12.46.24 3.25 1.59 33.14 14.43 86.62-21.22 44.86-29.91 76.11-99.99 65.56-147.03-3.94-17.56-13.24-30.88-27.65-39.59-40.66-24.54-69.66 10.87-75.06 18.22-.16.22-.25.34-.27.38-1.7 2.51-5.11 3.18-7.64 1.49-2.53-1.68-3.22-5.09-1.56-7.63 0 0 .18-.28.57-.81 3.91-5.32 39.74-51.25 89.68-21.12 16.85 10.18 28.17 26.31 32.72 46.63 5.7 25.44 1.03 56.62-13.15 87.79-13.61 29.93-34.42 55.76-57.07 70.86C1311.26 1158.79 1286.54 1164.11 1269.85 1164.11z"
                  className="color38212a svgShape"
                ></path>
                <path
                  fill="#38212a"
                  d="M1298.8,944.27c-1.45,0-2.91-0.57-3.99-1.71c-2.11-2.21-2.04-5.7,0.17-7.82l0,0
					c0.26-0.25,26.71-25.93,49.8-72.72c21.26-43.08,43.96-113.46,31.35-204.04c-0.42-3.02,1.69-5.82,4.72-6.24
					c3.04-0.41,5.82,1.69,6.24,4.72c13.02,93.59-10.55,166.35-32.61,210.9c-23.96,48.38-50.72,74.29-51.84,75.37
					C1301.56,943.76,1300.18,944.27,1298.8,944.27z"
                  className="color38212a svgShape"
                ></path>
                <path
                  fill="#38212a"
                  d="M1309.84 933.24c-2.55 0-4.84-1.77-5.4-4.35-.65-2.98 1.24-5.93 4.22-6.58 1.02-.23 90.88-20.76 129.63-98.27 1.37-2.73 4.68-3.84 7.42-2.47 2.73 1.37 3.84 4.69 2.47 7.42-41.19 82.38-133.27 103.28-137.17 104.12C1310.62 933.2 1310.22 933.24 1309.84 933.24zM800.4 1439.75c-1.53 0-3.07-.02-4.61-.07-11.75-.36-22.7-2.78-32.54-7.2-31.01-13.82-44.03-43.62-48.18-55.79-1.1-3.24-1.6-5.28-1.62-5.37-.72-2.97 1.11-5.96 4.08-6.67 2.97-.71 5.95 1.11 6.67 4.07.02.08.43 1.74 1.34 4.4 3.69 10.79 15.18 37.21 42.23 49.26 8.53 3.83 18.07 5.92 28.37 6.24 14.44.44 28.11-1.33 40.59-5.25 29.19-9.2 51.42-30.03 62.6-58.66.9-2.26 1.72-4.59 2.45-6.95l.45-1.46c.91-2.92 4-4.55 6.92-3.64 2.92.91 4.55 4 3.64 6.92l-.44 1.43c-.81 2.65-1.73 5.26-2.73 7.76-12.41 31.78-37.12 54.93-69.57 65.16C827.71 1437.8 814.4 1439.75 800.4 1439.75z"
                  className="color38212a svgShape"
                ></path>
                <path
                  fill="#38212a"
                  d="M713.91 1488.5c-27.17 0-54.98-15.68-70.37-33.32-10.46-12-14.02-23.77-9.76-32.29 9.83-19.69 71.7-47.55 84.23-53.03.47-.22.73-.32.73-.32 2.84-1.08 6.06.31 7.16 3.14 1.1 2.82-.24 5.97-3.03 7.11l-.2.09c-.05.02-.1.05-.16.07-28.25 12.35-72.56 35.29-78.84 47.87-2.06 4.12 1.16 12 8.2 20.07 15.14 17.36 45.38 33.33 71.55 28.72 3.01-.53 5.88 1.48 6.4 4.49.53 3.01-1.48 5.88-4.49 6.4C721.57 1488.18 717.74 1488.5 713.91 1488.5zM791.35 1480.97c-2.93 0-5.83-.74-8.4-2.13-5.67-3.09-9.2-9.01-9.2-15.45 0-7.75 4.97-14.51 12.36-16.81 4.64-1.41 9.54-.89 13.64 1.34 0 0 0 0 0 0 5.67 3.08 9.19 9.01 9.19 15.47 0 8.17-5.79 15.39-13.76 17.16C793.98 1480.82 792.68 1480.97 791.35 1480.97zM791.35 1456.84c-.66 0-1.33.1-1.98.3-2.71.84-4.55 3.35-4.55 6.24 0 2.39 1.31 4.59 3.42 5.74 1.39.75 3.07.97 4.52.63 3-.66 5.14-3.34 5.14-6.37 0-2.4-1.31-4.6-3.41-5.75l0 0C793.51 1457.11 792.46 1456.84 791.35 1456.84z"
                  className="color38212a svgShape"
                ></path>
                <path
                  fill="#38212a"
                  d="M737.54,1504.83c-4.05,0-7.69-1-10.62-3.39c-4.44-3.63-6.68-10.15-6.66-19.37
					c0.03-20.95,13.41-61.02,34.28-61.02c4.25,0,8.46,0.88,12.52,2.61c15.32,6.54,24.01,23.2,24.38,23.91
					c1.39,2.72,0.32,6.05-2.4,7.44c-2.71,1.39-6.04,0.33-7.44-2.39c-0.09-0.17-7.3-13.85-18.88-18.8c-2.68-1.14-5.43-1.72-8.18-1.72
					c-9.74,0-23.19,28.96-23.22,49.99c-0.02,6.37,1.33,9.75,2.6,10.79c5.88,4.81,28.92-7.07,46.75-21.17
					c2.39-1.9,5.87-1.49,7.77,0.91c1.89,2.39,1.49,5.87-0.91,7.77C781.56,1485.12,755.55,1504.83,737.54,1504.83z"
                  className="color38212a svgShape"
                ></path>
                <path
                  fill="#38212a"
                  d="M842.27,1510.32c-22.48,0-48.75-26.58-51.87-29.83c-2.12-2.2-2.05-5.7,0.15-7.82
					c2.2-2.12,5.7-2.05,7.82,0.15c7.98,8.28,31.94,29.15,46.81,26.17c4.37-0.87,9.19-7.25,12.6-16.66
					c5.5-15.19,6.29-34.35,1.8-43.64c-1.17-2.42-2.58-3.92-4.2-4.46c-3.59-1.19-8.6-0.8-14.89,1.17
					c-17.64,5.54-37.64,21.3-37.84,21.46c-2.39,1.9-5.87,1.49-7.77-0.9c-1.9-2.39-1.5-5.87,0.89-7.77
					c0.88-0.7,21.78-17.18,41.41-23.34c8.55-2.67,15.84-3.04,21.69-1.11c4.5,1.5,8.19,5.01,10.67,10.14
					c6.59,13.62,4.3,36.58-1.36,52.22c-4.93,13.62-12.34,22.05-20.84,23.74C845.67,1510.16,843.98,1510.32,842.27,1510.32z"
                  className="color38212a svgShape"
                ></path>
                <path
                  fill="#38212a"
                  d="M894.19 1492.2c-17.66 0-30.47-2.11-31.35-2.26-3.01-.51-5.04-3.36-4.53-6.37.5-3.01 3.35-5.04 6.37-4.54.34.06 34.41 5.63 67.37-1.78 2.99-.66 5.94 1.21 6.61 4.18.67 2.98-1.2 5.94-4.18 6.61C920.29 1491.23 906.13 1492.2 894.19 1492.2zM955.05 1394.54c-1.45 0-2.91-.57-3.99-1.71-.3-.31-.62-.61-.94-.93-11.19-10.27-43.4-18.88-47.04-19.83l-.73-.19c-2.96-.74-4.76-3.75-4.01-6.71.74-2.96 3.74-4.76 6.71-4.01l.81.21c6.39 1.67 38.86 10.56 51.8 22.45.55.53.98.94 1.39 1.37 2.11 2.21 2.04 5.71-.17 7.82C957.8 1394.03 956.43 1394.54 955.05 1394.54z"
                  className="color38212a svgShape"
                ></path>
                <path
                  fill="#38212a"
                  d="M1007.39,1483.69c-38.7,0-71.35-9.83-73.64-10.54c-1.81-0.56-3.21-2.01-3.71-3.84
					c-12.54-46.45,15.91-84.16,17.13-85.74c1.53-1.99,4.2-2.69,6.51-1.73c0.72,0.3,1.45,0.59,2.17,0.87c0,0,0.2,0.08,0.21,0.08
					c55.11,21.46,109.14-7.45,109.68-7.75c2.43-1.33,5.49-0.65,7.12,1.59c27.83,38.1,20.3,79.94,19.97,81.71
					c-0.27,1.45-1.12,2.73-2.34,3.55C1065.57,1478.71,1034.95,1483.69,1007.39,1483.69z M939.97,1463.42
					c15.93,4.29,92.41,22.43,142.31-9.36c0.99-8.34,2.96-38.7-15.7-67.08c-14.64,6.85-62.47,25.66-112.95,6.73
					C947.65,1403.13,932.58,1431.06,939.97,1463.42z M953.56,1388.49l0.02,0.02l0.23-0.65L953.56,1388.49z"
                  className="color38212a svgShape"
                ></path>
                <path
                  fill="#38212a"
                  d="M1068.46 1764.15c-7.75 0-15.67-1.43-23.63-4.3-35.57-12.82-70.61-53.56-91.44-106.31-3.65-9.22-6.77-18.64-9.28-27.99-14.51-53.9-15.53-112.74-14.85-143.02.23-9.36.59-14.81.6-15.04.2-3.05 2.86-5.37 5.88-5.15 3.05.2 5.36 2.84 5.15 5.88 0 .05-.36 5.47-.58 14.57-.66 29.67.33 87.32 14.48 139.89 2.4 8.95 5.39 17.96 8.88 26.79 19.4 49.13 52.73 88.37 84.91 99.97 15.84 5.71 30.84 4.77 44.6-2.79 19.79-10.88 35.45-37.04 42.96-71.75 15.04-69.49-4.84-149.6-53.17-214.3-1.83-2.45-1.33-5.91 1.12-7.74 2.45-1.83 5.91-1.33 7.74 1.12 26.65 35.67 44.77 75.03 53.85 116.98 7.94 36.69 8.38 73.44 1.27 106.27-8.19 37.84-25.85 66.67-48.44 79.1C1089.07 1761.55 1078.93 1764.15 1068.46 1764.15zM955.09 1394.57c-1.4 0-2.81-.53-3.88-1.59-.12-.12-.24-.24-.35-.37-.15-.17-.41-.48-.84-.97-3.43-3.99-15.31-18.05-26.25-33.65-15.81-22.55-23.03-38.58-22.06-48.99.81-8.6 4.04-14.78 9.61-18.36 8.65-5.58 19.08-2.22 20.24-1.82 2.89 1 4.42 4.14 3.42 7.03-1 2.89-4.15 4.42-7.03 3.42-1.75-.58-7.15-1.61-10.68.69-2.54 1.66-4.07 5.05-4.55 10.07-.39 4.26 1.69 15.35 20.11 41.62 10.65 15.19 22.24 28.9 25.53 32.74.35.4.62.71.78.89 2.02 2.17 1.97 5.56-.14 7.67C957.92 1394.03 956.5 1394.57 955.09 1394.57z"
                  className="color38212a svgShape"
                ></path>
                <path
                  fill="#38212a"
                  d="M1068.41,1385.42c-0.33,0-0.67-0.03-1-0.09c-3-0.55-4.99-3.43-4.44-6.44c1.94-10.59,6.05-41.11,1.84-55.03
					c-0.06-0.2-2.49-8.7-7.47-14.43c-2.57-2.96-5.29-4.51-8.07-4.62c-2.06-0.08-3.9-1.3-4.78-3.16c-0.06-0.13-7.3-14.86-20.51-16.18
					c-2.32-0.23-4.25-1.9-4.82-4.16c-0.28-1.01-3.35-10.51-17.68-10.51c-2.77,0-5.11-2.05-5.48-4.8c-0.01-0.05-0.58-3.29-3.51-5.08
					c-3.04-1.86-7.97-1.79-14.26,0.21c-14.68,4.66-39.81,35.4-38.57,50.97c0.23,2.86,1.34,5.92,7.85,6.9
					c2.57,0.39,4.53,2.51,4.7,5.1l0,0c0,0,0.41,4.2,3.45,6.48c2.29,1.71,5.8,2.12,10.41,1.19c2.53-0.51,5.08,0.81,6.13,3.16
					c0.76,1.65,7.86,16.2,21.34,11.43c2.69-0.95,5.66,0.3,6.86,2.89c0.69,1.43,3.28,5.49,6.81,6.67c1.99,0.67,4.17,0.36,6.67-0.94
					c2.96-1.54,6.18-4.02,9.3-6.43c6.77-5.21,13.16-10.14,19.35-6.84c5.14,2.74,6.87,9.55,5.97,23.5c-0.2,3.05-2.8,5.37-5.88,5.16
					c-3.05-0.2-5.36-2.83-5.16-5.87c0.46-7.19,0.06-10.67-0.31-12.28c-1.94,1.02-5.02,3.4-7.22,5.09
					c-3.34,2.57-7.12,5.48-10.95,7.48c-5.19,2.7-10.5,3.24-15.38,1.58c-5.09-1.74-8.63-5.45-10.77-8.39
					c-13.93,2.59-23.86-6.87-28.72-14.77c-6.07,0.5-11.18-0.8-15.23-3.9c-4.02-3.08-5.95-7.17-6.87-10.23
					c-7.92-2.38-12.73-8.09-13.36-16.11c-1.68-21.13,26.98-56.28,46.25-62.39c9.72-3.08,17.67-2.72,23.63,1.06
					c3.79,2.41,5.9,5.65,7.07,8.3c13,1.35,20.02,9.03,22.95,15.07c13.26,2.89,21.3,13.93,24.44,19.16c4.64,1,8.97,3.72,12.7,8
					c6.66,7.66,9.62,18.16,9.75,18.61c5.82,19.2-1.28,58.44-1.58,60.1C1073.35,1383.56,1071.02,1385.42,1068.41,1385.42z"
                  className="color38212a svgShape"
                ></path>
                <path
                  fill="#38212a"
                  d="M946.69 1330.01c-.96 0-1.92-.25-2.8-.77-2.63-1.55-3.51-4.94-1.96-7.57.71-1.21 17.64-29.69 38.71-40.83 2.69-1.43 6.04-.39 7.47 2.31 1.43 2.7.39 6.05-2.31 7.47-18.27 9.66-34.18 36.39-34.34 36.66C950.43 1329.04 948.58 1330.01 946.69 1330.01zM967.15 1342.74c-1.08 0-2.18-.32-3.14-.98-2.51-1.74-3.14-5.18-1.4-7.69.68-.99 17.01-24.39 39.38-37.58 2.63-1.55 6.02-.68 7.57 1.95 1.55 2.63.68 6.02-1.95 7.57-20.3 11.97-35.75 34.12-35.9 34.35C970.63 1341.91 968.91 1342.74 967.15 1342.74zM995.39 1357.13c-.65 0-1.32-.12-1.97-.36-2.85-1.09-4.29-4.28-3.2-7.14.39-1.03 9.91-25.42 34.29-37.31 2.75-1.34 6.05-.2 7.39 2.55 1.34 2.74.2 6.06-2.55 7.39-20.49 9.99-28.72 31.09-28.8 31.3C999.71 1355.77 997.61 1357.13 995.39 1357.13zM622.28 1485.09c-.98 0-1.98-.26-2.88-.81-2.61-1.59-3.43-5-1.83-7.6 9.99-16.34 25.89-28.81 26.57-29.33 2.41-1.87 5.88-1.44 7.76.97s1.44 5.89-.97 7.76c-.27.21-15.05 11.85-23.92 26.37C625.96 1484.15 624.14 1485.09 622.28 1485.09z"
                  className="color38212a svgShape"
                ></path>
                <path
                  fill="#38212a"
                  d="M564.94,1760.05c-12.88,0-24.92-2.87-36.04-8.6c-34.74-17.92-60.62-62.85-79.13-137.36
					c-10.98-44.27-16.39-88.02-16.06-130.01c0.35-47.63,7.94-75.35,8.27-76.51c0.8-2.84,3.69-4.56,6.55-3.9
					c35.96,8.19,68.77,0.62,89.96-7.17c10.62-3.9,18.95-8.06,24.07-10.86c5.03-2.73,7.83-4.63,7.86-4.65
					c1.39-0.94,3.13-1.21,4.74-0.71c1.51,0.46,37.15,11.98,49.04,64.13c2.13,9.32,3.01,21.19,2.63,35.29
					c-1.43,53.72-20.17,123.72-20.96,126.68c-0.79,2.95-3.83,4.7-6.78,3.9c-2.95-0.79-4.7-3.83-3.9-6.78
					c0.19-0.71,19.19-71.7,20.58-124.09c0.36-13.17-0.44-24.12-2.36-32.53c-8.83-38.71-31.99-51.88-39.28-55.13
					c-1.48,0.91-3.59,2.15-6.27,3.61c-5.43,2.97-14.29,7.4-25.55,11.53c-21.54,7.92-54.4,15.62-90.87,8.7
					c-2.13,9.88-6.42,33.94-6.67,68.59c-0.32,41.07,4.97,83.89,15.74,127.26c17.45,70.25,42.17,114.05,73.47,130.2
					c19.44,10.03,41.52,9.93,67.5-0.29c0.06-0.02,0.11-0.04,0.17-0.06c0.23-0.08,0.46-0.18,0.7-0.27l0.51-0.21
					c2.84-1.12,6.05,0.28,7.17,3.13c1.12,2.84-0.28,6.05-3.13,7.17l-0.41,0.16c-0.35,0.14-0.7,0.28-1.05,0.41
					C591.2,1757.25,577.66,1760.05,564.94,1760.05z"
                  className="color38212a svgShape"
                ></path>
                <path
                  fill="#38212a"
                  d="M497.68 1497.17c-31.03 0-54.78-6.26-59.96-7.74l-.74-.23c-2.92-.89-4.56-3.98-3.67-6.91.89-2.92 3.99-4.56 6.9-3.67l.66.2c10.72 3.06 107.71 28.36 174.04-37.15 2.17-2.15 5.67-2.12 7.82.05 2.15 2.17 2.12 5.67-.05 7.82C583.85 1487.91 535.4 1497.17 497.68 1497.17zM565.03 1395.67c-2.77 0-5.16-2.07-5.49-4.89-.03-.24-2.87-24.12-10.89-49.29-2.04-6.45-4.3-12.55-6.72-18.16-7.42-17.16-16.08-28.98-25.75-35.17-2.65-.82-13.92-4.09-23.76-3.38-10.48.76-12.27 5.52-12.86 7.09-.57 1.53-1.79 2.72-3.33 3.27-1.54.54-3.24.38-4.64-.44-.04-.02-6.35-3.57-11.84-1.83-2.87.91-5.13 3.18-6.9 6.95-1.25 2.66-4.36 3.88-7.08 2.77-1.58-.62-6.45-1.82-9.58.08-2.25 1.37-3.63 4.43-4.11 9.07-.18 1.71-1.14 3.24-2.6 4.14-1.47.9-3.27 1.07-4.87.46-1.18-.43-5.18-1.32-7.42.34-2.12 1.57-3.11 5.68-2.81 11.57.91 17.32 7.41 33.74 15.8 39.94 2.69 1.98 5.24 2.64 7.79 1.99 2.29-.58 4.68-2.19 7.09-4.79 1.2-1.29 2.93-1.93 4.68-1.73 1.5.15 9.35.51 11.37-7.33.43-1.66 1.6-3.03 3.18-3.7 1.58-.68 3.38-.58 4.88.26 1.55.85 6.4 2.78 9.76 1.38 1.95-.81 3.43-2.91 4.38-6.22.52-1.79 1.91-3.2 3.69-3.75 1.79-.55 3.73-.16 5.16 1.04 1.49 1.22 4.55 2.84 6.09 2.55.27-.05 1.23-.24 2.42-.62 2.02-.66 3.04-1.38 3.42-1.75-.04-.1-.1-.24-.2-.41-7.24-13.21-9.76-34.92-9.86-35.84-.34-3.03 1.84-5.77 4.87-6.11 3.05-.35 5.77 1.84 6.12 4.87.02.2 2.38 20.48 8.57 31.76 2.28 4.14 1.75 7.55.91 9.68-1.45 3.69-5.05 6.56-10.39 8.32-1.75.57-3.17.86-3.87.99-3.25.6-6.45-.18-9.06-1.28-2.47 3.97-5.56 5.99-8.07 7.02-4.86 2-9.89 1.39-13.61.33-4.44 7.54-12.48 9.79-18.17 9.93-3.36 3.13-6.93 5.2-10.63 6.14-5.8 1.47-11.7.15-17.07-3.81-11.05-8.15-19.2-27.54-20.28-48.26-.52-10.06 1.95-17.16 7.37-21.1 3.79-2.76 8.08-3.26 11.49-3.03 1.52-5.23 4.31-9.09 8.33-11.51 5.09-3.06 10.73-2.88 14.63-2.17 2.94-4.36 6.75-7.29 11.37-8.72 5.84-1.81 11.54-.74 15.48.58 3.3-4.38 9.17-8.36 19.62-9.12 13.42-.97 28.06 3.91 28.68 4.12.39.13.77.31 1.13.53 11.86 7.3 22.17 20.94 30.65 40.55 2.57 5.95 4.96 12.41 7.11 19.2 8.36 26.23 11.22 50.35 11.34 51.37.35 3.03-1.82 5.78-4.85 6.13C565.46 1395.66 565.25 1395.67 565.03 1395.67z"
                  className="color38212a svgShape"
                ></path>
                <path
                  fill="#38212a"
                  d="M540.32 1405.31c-2.4 0-4.61-1.58-5.31-4-3.35-11.65-17.18-13.59-33.56-14.78-8.65-.63-14.9-1.09-18.33-4.73-3.26-3.46-4.48-8.38-3.27-13.17 1.13-4.49 5.48-12.83 21.85-18.27 5.47-1.82 11.9-3.19 19.1-4.07 13.25-1.62 23.34-7.46 29.36-10.96 2.64-1.53 6.03-.63 7.56 2.01 1.53 2.64.63 6.03-2.01 7.56-6.32 3.66-18.07 10.47-33.57 12.36-6.48.79-12.18 2-16.96 3.59-12.13 4.03-14.26 9.04-14.62 10.48-.33 1.3.02 2.16.43 2.69 1.61.77 7.16 1.17 11.25 1.47 14.98 1.09 37.62 2.75 43.38 22.75.85 2.93-.85 6-3.78 6.84C541.34 1405.24 540.83 1405.31 540.32 1405.31zM491.17 1374.22h.02H491.17zM449.12 1374.67c-1.52 0-3.04-.63-4.14-1.86-12.66-14.24-18.04-39.51-18.26-40.58-.62-2.99 1.3-5.92 4.28-6.54 2.99-.62 5.92 1.29 6.54 4.28l0 0c.05.23 5.02 23.47 15.7 35.49 2.03 2.28 1.82 5.78-.46 7.81C451.73 1374.21 450.42 1374.67 449.12 1374.67zM466.48 1363.22c-1.73 0-3.44-.81-4.51-2.33-10.56-14.87-14.8-37.8-14.97-38.77-.54-3 1.45-5.88 4.45-6.42 3.01-.54 5.88 1.45 6.43 4.45.04.21 3.99 21.5 13.11 34.34 1.77 2.49 1.18 5.94-1.31 7.71C468.7 1362.89 467.58 1363.22 466.48 1363.22zM488.63 1355.09c-1.95 0-3.84-1.03-4.85-2.86-10.39-18.87-12.31-36.71-12.38-37.47-.31-3.04 1.9-5.75 4.94-6.06 3.04-.31 5.75 1.9 6.06 4.93l0 0c.02.16 1.81 16.45 11.07 33.26 1.47 2.68.5 6.04-2.18 7.51C490.45 1354.87 489.53 1355.09 488.63 1355.09zM447.32 1414.57c-.23 0-.46-.01-.7-.04-3.03-.38-5.18-3.15-4.8-6.18 1.97-15.65-6.81-28.98-6.9-29.11-1.7-2.53-1.03-5.97 1.5-7.67 2.53-1.7 5.95-1.05 7.66 1.48.46.68 11.21 16.8 8.71 36.69C452.44 1412.53 450.06 1414.57 447.32 1414.57zM776.73 1780.61c-3.99 0-8.04-.04-12.16-.12-96.84-1.9-141.42-22.28-159.37-34.27-13.69-9.13-21.44-19.65-21.82-29.63-.24-6.43 2.61-12.3 8.02-16.52 20.82-16.3 30.32-23.74 33.66-65.63 5.03-63.47 36.53-105.47 37.87-107.23 1.85-2.43 5.32-2.9 7.75-1.05 2.43 1.85 2.9 5.32 1.05 7.75-.47.62-30.89 41.47-35.64 101.4-3.57 44.84-14.19 54.93-37.87 73.47-2.65 2.07-3.89 4.49-3.78 7.4.24 6.24 6.4 13.84 16.9 20.85 16.95 11.31 59.42 30.57 153.45 32.41 103.75 2.02 164.38-21.89 184.79-42.99 5.59-5.77 6.13-9.39 6.1-10.68-.02-.97-.34-1.67-1.07-2.35-1.42-1.33-2.83-2.62-4.21-3.88-8.93-8.14-17.36-15.82-17.62-27.31-.23-9.76 5.73-20.36 18.74-33.37 2.16-2.16 5.66-2.16 7.82 0 2.16 2.16 2.16 5.66 0 7.82-10.58 10.57-15.65 18.85-15.5 25.29.16 6.76 6.27 12.34 14.02 19.4 1.43 1.3 2.88 2.63 4.34 4 2.88 2.71 4.45 6.22 4.55 10.15.14 5.83-3.05 12.27-9.21 18.63C936.42 1755.96 876.69 1780.61 776.73 1780.61z"
                  className="color38212a svgShape"
                ></path>
                <path
                  fill="#38212a"
                  d="M653.28,2205.75c-0.82,0-1.34-0.09-1.75-0.15c-12.1-2.02-25.08-22.13-30.1-30.67
					c-5.23,0.05-10.57-0.07-15.92-0.33c-81.7-4.05-126.43-42.9-136.03-52.2c-9.12,0.58-39.8,2.11-55.05-2.37
					c-18.04-5.32-54.64-65.05-61.8-76.97c-1.24-2.07-1-4.71,0.61-6.52c14.98-16.85,71.83-51.82,82.94-58.58
					c29.62-92.86,132.38-203.46,163.35-235.33c2.43-2.49,4.09-4.15,4.83-4.9l0.44-0.44c2.16-2.16,5.66-2.16,7.82,0
					c2.16,2.16,2.16,5.66,0,7.82l-0.44,0.44c-0.73,0.73-2.35,2.36-4.73,4.79c-21.9,22.53-132.59,139.63-161.34,232.89
					c-0.4,1.3-1.27,2.41-2.43,3.11c-0.63,0.38-60.2,36.37-79.37,54.67c17.03,27.87,43.45,65.53,53.23,68.41
					c15.73,4.61,53.27,1.81,53.65,1.78c1.67-0.14,3.33,0.52,4.48,1.75c0.43,0.46,44.2,46.33,130.37,50.61
					c6.22,0.3,12.42,0.39,18.45,0.27c2.07-0.12,3.96,1.06,4.95,2.85c7.03,12.73,18.17,27.06,23.89,28.01
					c0.09,0.01,0.19,0.01,0.29,0.01c5.26,0,31.28-8.77,88.06-33.76c8.91-3.93,14.74-6.56,14.75-6.56c1.02-0.46,2.16-0.6,3.27-0.4
					c0.43,0.08,42.97,7.74,59.7,4.95c3.62-0.6,13.09-6.28,23.11-12.3c29.53-17.71,78.74-47.23,132.29-47.23c0.57,0,1.14,0,1.71,0.01
					c7.23,0.07,14.48,0.71,21.54,1.92c1.56,0.27,2.93,1.19,3.77,2.53c0.83,1.35,1.05,2.99,0.6,4.5c-1.89,6.34-3,13.51-2.72,16.9
					c18.64-2.37,120.46-35.94,144.76-74.11c1.38-2.17,4.08-3.1,6.51-2.24c2.43,0.86,3.94,3.29,3.64,5.85
					c-1.18,10.35,0,20.16,1.83,22.53c6.63-2.03,31.88-17.74,59.03-41.02c31.04-26.61,51.47-51.84,56.68-69.88
					c-10.5-10.24-63.27-56.89-176.91-82.7c-1.65-0.38-3.05-1.49-3.77-3.03c-0.52-1.09-52.8-109.67-140.03-145.23
					c-0.05-0.02-0.09-0.04-0.14-0.06c-0.06-0.03-0.13-0.06-0.18-0.08c-2.78-1.26-4.01-4.54-2.75-7.32c1.25-2.74,4.45-3.97,7.2-2.8
					c0.03,0.01,0.06,0.02,0.08,0.04c84.86,34.62,136.11,131.24,144.61,148.28c129.43,29.98,180.01,85.19,182.11,87.54
					c1.17,1.31,1.65,3.1,1.29,4.81c-8.74,41.95-83.12,99.58-112.67,116.54c-10.73,6.16-14.72,6.78-17.69,5.78
					c-6.76-2.24-9.26-10.4-10.01-18.46c-36.17,35.51-119.94,62.79-140.69,66.23c-4.56,0.75-7.65,0.83-9.95-1.01
					c-5.44-4.34-4.44-14.99-2.49-23.58c-4.56-0.55-9.18-0.85-13.8-0.89c-0.52-0.01-1.06-0.01-1.58-0.01
					c-50.51,0-98.08,28.54-126.62,45.66c-12.83,7.69-21.3,12.78-26.98,13.72c-16.76,2.81-53.34-3.2-61.79-4.67
					c-2.31,1.04-7.05,3.16-13.28,5.9C674.83,2202.45,658.34,2205.75,653.28,2205.75z M997.59,2125.37"
                  className="color38212a svgShape"
                ></path>
                <path
                  fill="#38212a"
                  d="M1149.15 2059.64c-.19 0-.38-.01-.58-.03-3.04-.32-5.24-3.04-4.93-6.07 3.91-37.56-49.17-74.11-87.92-100.8-6.85-4.72-13.32-9.17-19.1-13.36-40.27-29.2-78.46-97.25-80.07-100.14-1.49-2.67-.53-6.03 2.14-7.52 2.67-1.48 6.04-.53 7.52 2.14.38.69 38.62 68.81 76.9 96.57 5.67 4.11 12.08 8.53 18.88 13.21 41.03 28.26 97.23 66.96 92.65 111.05C1154.35 2057.53 1151.95 2059.64 1149.15 2059.64zM997.15 2112.29c-2.15 0-4.19-1.26-5.09-3.36-12.97-30.43-35.39-54.14-57.07-77.07-25.52-26.99-51.9-54.9-62.39-93.52-18.19-67.06-45.07-95.69-45.34-95.97-2.11-2.2-2.04-5.7.16-7.82 2.2-2.11 5.69-2.05 7.81.14 1.18 1.22 29.03 30.63 48.05 100.75 9.76 35.94 34.04 61.62 59.75 88.82 22.35 23.64 45.46 48.08 59.21 80.33 1.2 2.81-.11 6.06-2.92 7.26C998.6 2112.15 997.87 2112.29 997.15 2112.29zM758.73 2164.94c-1.88 0-3.71-.96-4.74-2.68-50.86-84.59-65.9-166.14-69.57-219.66-3.98-58.11 3.99-95.72 4.33-97.29.65-2.98 3.58-4.87 6.57-4.23 2.98.65 4.88 3.59 4.24 6.57-.08.37-8.01 37.97-4.08 94.63 3.63 52.2 18.36 131.75 67.99 214.28 1.57 2.62.73 6.02-1.89 7.59C760.68 2164.69 759.7 2164.94 758.73 2164.94zM471.63 2122.23c-.4 0-.8-.04-1.2-.13-2.98-.66-4.86-3.62-4.2-6.6 9.18-41.3 49.9-86.25 59.23-96.12-8.91-83.19 28.91-167.62 30.54-171.21 1.26-2.78 4.54-4.01 7.32-2.75 2.78 1.26 4.01 4.54 2.75 7.32-.39.86-38.96 87.04-29.33 167.93.2 1.66-.37 3.33-1.54 4.53-.49.5-48.69 50.08-58.16 92.69C476.45 2120.47 474.17 2122.23 471.63 2122.23zM757.67 2981.9c-6.06 0-11.94-.24-17.56-.7-12.46-1.02-42.08-4.73-48-17.27-3.58-7.58-.73-21.32 4.01-44.08 6.35-30.52 15.94-76.63 13.09-130.26-.23-4.14-.65-8.83-1.27-13.91-8.01-66.73-47-218.91-75.46-330.03l-2.97-11.58c-9.01-35.19-16.84-65.94-21.52-85.87-18.52-78.96-9.66-163.63-7.69-179.8.12-1.15.22-1.77.22-1.77.46-3.01 3.29-5.1 6.3-4.63 3.02.46 5.09 3.26 4.64 6.28-.01.08-.08.54-.17 1.38-1.19 9.79-11.01 97.24 7.47 176.02 4.66 19.82 12.48 50.51 21.47 85.65l2.97 11.58c28.54 111.42 67.63 264 75.73 331.45.64 5.31 1.09 10.23 1.33 14.63 2.93 55.07-6.84 102.03-13.3 133.11-3.52 16.9-6.84 32.87-4.84 37.1 1.2 2.54 12.66 8.83 38.89 10.97 46.13 3.76 103.56-8.21 127.85-43.43 31.51-45.69 21.46-111.54-3.33-196.35-6.75-23.06-14.42-46.92-23.03-73.49-37.32-115.08-37.24-209.31-37.22-213.27.02-3.04 2.49-5.53 5.53-5.53 0 0 .01 0 .02 0 3.05.01 5.51 2.45 5.51 5.5-.02 3.98-.09 96.49 36.68 209.89 8.63 26.65 16.33 50.59 23.12 73.79 25.68 87.85 35.82 156.45 1.82 205.74C852.85 2969.43 800.89 2981.9 757.67 2981.9z"
                  className="color38212a svgShape"
                ></path>
                <path
                  fill="#38212a"
                  d="M916.83 2609.94c-25.36 0-45.72-5.74-55.74-12.45-12.56-8.41-9.01-17.35-7.63-19.89 9.11-16.7 22.25-86.42 28.88-126.49-27.1 1.7-51.4 1.04-72.33-1.97-64.54-9.23-102.99-40.82-117.53-96.58-18.61-71.36 39.91-177.43 46.64-189.29.27-.5.46-.81.46-.81 1.62-2.58 5.03-3.39 7.62-1.78 2.58 1.6 3.39 4.96 1.82 7.55-.03.05-.1.18-.22.39-2.66 4.68-63.43 112.86-45.62 181.15 13.48 51.68 47.92 79.78 108.4 88.43 21.92 3.15 47.8 3.63 76.92 1.41 1.71-.13 3.34.52 4.49 1.77 1.15 1.25 1.66 2.95 1.39 4.62-.74 4.61-18.25 113.13-31.22 136.91-.99 1.81 2.87 4.59 4.07 5.4 11.75 7.87 40.42 13.48 72.49 8.96 27.07-3.82 65.49-15.97 94.81-52.16 29.76-36.73 39.95-88.65 26.59-135.48-12.2-42.73-43.1-76.6-87.02-95.38-23.77-10.19-51.46-16.15-82.3-17.73-2.02-.1-3.82-1.3-4.7-3.12-.88-1.82-.69-3.98.48-5.62.76-1.06 75.78-106.69 83.37-183.39.01-.06.01-.11.02-.17l.02-.19c.02-.21.04-.41.06-.61.39-3.03 3.18-5.17 6.19-4.78 3.03.39 5.17 3.16 4.78 6.19l-.02.2c-.02.17-.03.35-.05.52-6.76 67.9-61.75 153.94-79.78 180.58 28.26 2.32 53.88 8.35 76.28 17.95 47.03 20.11 80.17 56.51 93.3 102.51 14.34 50.24 3.37 105.99-28.63 145.48-31.59 38.99-72.83 52.05-101.86 56.15C932.76 2609.41 924.56 2609.94 916.83 2609.94zM716.83 2780.04c-2.81 0-5.21-2.13-5.5-4.98-.3-3.04 1.91-5.75 4.95-6.05.94-.09 94.44-9.81 150.73-44.61 2.6-1.6 6.01-.8 7.61 1.8 1.6 2.6.8 6.01-1.8 7.61-58.49 36.15-151.51 45.81-155.45 46.21C717.2 2780.03 717.01 2780.04 716.83 2780.04z"
                  className="color38212a svgShape"
                ></path>
                <path
                  fill="#38212a"
                  d="M888.91 2450.64c-2.57 0-4.87-1.8-5.41-4.41-.62-2.99 1.3-5.91 4.28-6.54.41-.09 20.98-4.67 41.18-22.6 27.19-24.12 40.98-59.81 40.98-106.06 0-3.05 2.48-5.53 5.53-5.53 3.05 0 5.53 2.48 5.53 5.53 0 62.06-24.56 96.65-45.16 114.74-22.48 19.74-44.87 24.55-45.81 24.74C889.66 2450.6 889.29 2450.64 888.91 2450.64zM283.84 1060.25c-1.79 0-3.53-.88-4.58-2.44-1.67-2.47-41.1-61.64-58.89-156.3-10.44-55.58-11.11-111.79-1.98-167.07 11.4-69.05 38.19-136.79 79.62-201.34 59.29-92.37 147.19-165.33 254.21-210.97 107.51-45.84 233.26-63.14 336.39-46.27 40.01 6.52 73.72 17.98 97.6 33.15 8.32.64 49.96 4.54 104.96 21.43 83.5 25.62 197.23 81.35 264.85 201.35 12.04 21.36 22.31 44.3 30.54 68.19 5.95 5.9 36.52 37.45 61.27 86.12 24.99 49.15 48.15 125.49 16.57 209.99-11.19 29.97-28.69 59.4-52.03 87.47l-1.28 1.53c-1.96 2.34-5.45 2.65-7.79.68-2.34-1.96-2.64-5.45-.68-7.79l1.27-1.51c22.53-27.09 39.41-55.45 50.16-84.25 24.18-64.72 18.83-132.27-15.91-200.79-26.08-51.44-59.86-84.09-60.2-84.42-.64-.61-1.12-1.37-1.41-2.21-8.08-23.7-18.21-46.44-30.13-67.58-65.83-116.82-176.89-171.17-258.46-196.2-58.97-18.11-103.41-21.04-103.86-21.07-.95-.06-1.87-.36-2.67-.88-22.67-14.73-55.37-25.9-94.57-32.29-101.13-16.54-224.6.48-330.26 45.53C451.59 377.07 365.4 448.57 307.31 539.07c-91.8 143.03-92.09 274.67-76.16 359.91 11.57 61.93 33.13 109.07 46.24 133.65.14-3.06.36-6.25.68-9.54 3.16-33.01 14.49-68.46 16.73-75.23.34-1.04.53-1.59.53-1.59.99-2.89 4.14-4.42 7.03-3.43 2.89.99 4.43 4.14 3.43 7.02-.01.02-.18.52-.48 1.45-2.18 6.59-13.17 41-16.22 72.84-1.12 11.64-1.05 21.63.22 29.7.4 2.56-1.02 5.06-3.44 6.01C285.2 1060.12 284.52 1060.25 283.84 1060.25z"
                  className="color38212a svgShape"
                ></path>
                <path
                  fill="#38212a"
                  d="M1093.69,340.67c-0.55,0-1.11-0.08-1.66-0.26c-2.91-0.92-4.53-4.02-3.62-6.93c0,0,0.39-1.27,0.9-3.51
					c2.81-12.2,9.45-54.26-22.92-84.54c-14.7-13.77-35.72-23.52-62.48-29c-33.61-6.88-60.24-4.72-79.15,6.41
					c-25.62,15.07-30.46,43-31.35,54.31c-0.16,2.15-0.18,3.63-0.18,4.16v0.64c0,3.05-2.48,5.53-5.53,5.53
					c-3.05,0-5.53-2.48-5.53-5.53v-0.64c0-0.82,0.03-2.56,0.21-5.01c1.03-13.06,6.67-45.29,36.77-63
					c21.33-12.56,50.6-15.16,86.98-7.71c28.79,5.89,51.61,16.58,67.82,31.76c36.68,34.32,29.28,81.45,26.14,95.08
					c-0.6,2.67-1.08,4.21-1.13,4.38C1098.22,339.16,1096.04,340.67,1093.69,340.67z"
                  className="color38212a svgShape"
                ></path>
                <path
                  fill="#38212a"
                  d="M1351.5 539.84c-1.3 0-2.61-.46-3.66-1.39-2.29-2.02-2.5-5.52-.48-7.81 26.23-29.63 48.08-61 64.95-93.23 50.87-97.06 49.64-188.6 39.65-248.3-9.27-55.43-27.6-94.47-32.89-104.94-120.64-1.31-207.34 41.82-259.04 78.38-56.63 40.04-84.67 81.15-84.95 81.56-1.71 2.53-5.14 3.2-7.67 1.5-2.53-1.7-3.21-5.14-1.5-7.67 1.16-1.73 29.2-42.92 87.33-84.13 53.57-37.97 143.79-82.76 269.3-80.65 1.97.03 3.78 1.12 4.74 2.84.99 1.77 24.29 44.2 35.51 110.84 10.35 61.48 11.7 155.75-40.69 255.7-17.28 33.02-39.64 65.12-66.46 95.43C1354.55 539.21 1353.03 539.84 1351.5 539.84zM554.86 333.86c-2.14 0-4.18-1.25-5.08-3.34l-.48-1.12c-17.06-40.38-19.03-89.97-5.87-147.44 21.02-91.97 74.47-173.71 75-174.52 1.08-1.64 2.94-2.58 4.91-2.48 108.91 5.73 185.63 62.68 230.82 109.44 48.85 50.56 71.71 99.06 72.66 101.09 1.29 2.77.09 6.06-2.68 7.34-2.77 1.29-6.06.09-7.35-2.68-.23-.49-23.18-49.11-70.85-98.35C802.63 77.06 729.44 22.66 625.97 16.19c-9.21 14.64-53.3 87.48-71.75 168.24-12.63 55.16-10.87 102.47 5.25 140.62l.46 1.07c1.21 2.8-.08 6.06-2.88 7.27C556.34 333.71 555.59 333.86 554.86 333.86z"
                  className="color38212a svgShape"
                ></path>
                <path
                  fill="#38212a"
                  d="M884.98 282.03c-.7 0-1.41-.13-2.1-.42-44.4-18.24-71.78-38.02-95.94-55.47-31.68-22.88-59.03-42.63-116.05-56.13-78.26-18.52-108.46 5.53-117.81 16.74-2.93 3.49-4.06 5.99-4.07 6.02-1.24 2.77-4.49 4.04-7.28 2.83-2.78-1.22-4.07-4.43-2.87-7.22.17-.39 1.75-3.96 5.74-8.72 13.25-15.87 47.61-39.63 128.84-20.4 59.16 14.01 88.7 35.34 119.98 57.93 24.82 17.92 50.48 36.46 93.67 54.2 2.83 1.16 4.17 4.39 3.01 7.22C889.22 280.73 887.15 282.03 884.98 282.03zM1417 447.09c-.28 0-.57-.02-.86-.07-3.02-.47-5.08-3.3-4.61-6.31.07-.47.13-.94.19-1.4 4.44-33.12-3.53-59.63-23.68-78.86-31.86-30.41-93.08-40.89-163.77-28.04-61.96 11.28-119.33 5.54-130.2 4.27-.78-.1-1.16-.15-1.16-.15-3.02-.43-5.12-3.23-4.69-6.26.43-3.02 3.23-5.12 6.25-4.69.03 0 .34.05.91.12 6.46.75 65.21 7.06 126.91-4.17 74.16-13.49 138.98-1.93 173.39 30.92 22.85 21.81 31.94 51.51 27.01 88.28-.06.53-.14 1.11-.23 1.69C1422.04 445.14 1419.68 447.09 1417 447.09zM203.43 1383.92c-2.05 0-4.03-1.15-4.98-3.12-4.48-9.25-8.11-18.59-10.78-27.77-24.96-86.17 34.56-153.46 78.01-202.59 9.78-11.06 19.02-21.51 26.28-31 3.16-4.14 5.87-8.35 8.03-12.49 22.38-42.92-15.51-75.47-19.9-79.04l-.31-.25c-2.41-1.83-2.9-5.25-1.11-7.68 1.79-2.43 5.21-2.98 7.67-1.22 0 0 .29.21.79.63 5.04 4.09 49.1 41.97 22.66 92.68-2.46 4.7-5.5 9.44-9.05 14.08-7.5 9.81-16.87 20.4-26.79 31.61-44.08 49.84-98.94 111.86-75.68 192.18 2.5 8.58 5.9 17.34 10.11 26.03 1.33 2.75.19 6.06-2.56 7.39C205.06 1383.74 204.23 1383.92 203.43 1383.92z"
                  className="color38212a svgShape"
                ></path>
                <path
                  fill="#38212a"
                  d="M175.21,1830.35c-1.4,0-2.79-0.52-3.87-1.58c-46.47-45.49-77.83-94.48-93.21-145.61
					c-28.51-94.77,2.95-180.98,34.37-236.63c33.89-60.02,73.86-97.22,75.54-98.78c2.24-2.07,5.74-1.93,7.81,0.31
					c2.07,2.24,1.93,5.74-0.31,7.81c-0.4,0.37-40.55,37.78-73.57,96.37c-30.27,53.7-60.61,136.8-33.25,227.72
					c14.84,49.32,45.24,96.72,90.36,140.89c2.18,2.14,2.22,5.64,0.08,7.82C178.07,1829.8,176.64,1830.35,175.21,1830.35z"
                  className="color38212a svgShape"
                ></path>
                <path
                  fill="#38212a"
                  d="M225 1996.32c-.02 0-.04 0-.06 0-2.5-.03-61.95-1.11-120.05-36.19-37.85-22.83-66.14-54.75-84.09-94.88-22.65-50.62-21.35-96.44 3.87-136.17 19.58-30.84 47.89-47.87 56.1-52.36 1.54-.84 2.39-1.25 2.39-1.25 2.74-1.34 6.06-.21 7.4 2.54 1.34 2.74.21 6.05-2.53 7.39l0 0c-.05.03-.75.37-1.97 1.03-17.85 9.75-104.5 64.02-55.16 174.29 17.01 38.03 43.83 68.29 79.71 89.93 55.43 33.46 113.88 34.59 114.47 34.6 3.05.04 5.5 2.54 5.46 5.6C230.49 1993.89 228.02 1996.32 225 1996.32zM389.29 1651.12c-.14 0-.29 0-.44-.02-55.21-4.32-95.11-24.55-118.61-60.14-25.46-38.57-31.88-93.68-19.65-168.49 10.3-62.98 32.47-128.58 47.15-171.98 33.93-100.35 8.69-131.74 3.28-137.01-.74-.73-1.18-1.05-1.19-1.05-2.54-1.69-3.19-5.1-1.49-7.64 1.7-2.54 5.17-3.2 7.71-1.51.28.18 1.29.9 2.72 2.31 8.74 8.53 34.6 44.5-.55 148.45-14.56 43.06-36.55 108.14-46.71 170.23-11.6 70.93-5.56 124.97 17.96 160.61 21.52 32.6 58.61 51.18 110.23 55.21 3.05.24 5.32 2.9 5.08 5.94C394.57 1648.92 392.15 1651.12 389.29 1651.12z"
                  className="color38212a svgShape"
                ></path>
                <path
                  fill="#38212a"
                  d="M280.84,2356.32c-23.54,0-46.65-4.26-69.07-12.75c-43.6-16.51-84.73-49.2-122.24-97.13
					c-115.72-147.85,0.54-280.21,14.17-294.82c0.79-0.85,1.22-1.27,1.22-1.27c2.16-2.15,5.67-2.15,7.82,0.01
					c2.16,2.16,2.16,5.65,0,7.81l0,0c-0.04,0.04-0.37,0.37-0.96,1c-12.97,13.9-123.6,139.85-13.55,280.45
					c65.12,83.22,138.81,117.57,219.04,102.1c20.8-4.03,41.95-11.53,62.84-22.28c2.72-1.4,6.05-0.33,7.45,2.39
					c1.4,2.72,0.33,6.05-2.39,7.45c-21.83,11.23-43.97,19.07-65.8,23.31C306.44,2355.08,293.58,2356.32,280.84,2356.32z"
                  className="color38212a svgShape"
                ></path>
                <path
                  fill="#38212a"
                  d="M534.47 2452.09c-47.02 0-90.71-9.84-130.66-29.51-52.99-26.09-82.22-61.8-89.92-72.13-1.44-1.92-2.17-3.04-2.25-3.16-1.67-2.56-.94-5.99 1.62-7.65 2.56-1.67 5.98-.94 7.65 1.61.05.07.66 1 1.85 2.58 7.33 9.84 35.17 43.83 85.94 68.83 65.01 32 140.63 36.94 224.76 14.69l.23-.06c.46-.12.94-.24 1.4-.37 2.94-.85 6 .85 6.84 3.78.85 2.94-.85 6-3.78 6.84-.57.17-1.16.31-1.73.46l-.17.04C600.84 2447.41 566.86 2452.09 534.47 2452.09zM1592.03 1400.21c-.61 0-1.23-.1-1.84-.32-2.88-1.02-4.39-4.17-3.38-7.05 14.95-42.42 25.27-83.86 30.66-123.18 14.66-107.06-5.84-200.48-60.95-277.66-42.25-59.17-90.72-87.87-100-93.02-.77-.42-1.21-.65-1.24-.67-2.71-1.41-3.77-4.74-2.36-7.45 1.4-2.71 4.74-3.77 7.45-2.37 0 0 .51.26 1.48.79 9.69 5.37 60.04 35.18 103.67 96.29 25.12 35.18 43.51 74.44 54.65 116.7 13.71 51.98 16.49 108.8 8.26 168.89-5.49 40.06-15.98 82.23-31.19 125.36C1596.44 1398.78 1594.3 1400.21 1592.03 1400.21z"
                  className="color38212a svgShape"
                ></path>
                <path
                  fill="#38212a"
                  d="M1393.79,1829.55c-2.11,0-4.12-1.21-5.05-3.26c-13.94-30.97-13.27-74.14,1.75-112.67
					c15.02-38.55,42.46-67.99,77.25-82.9c17.68-7.58,37.87-13.64,59.23-20.06c71.59-21.5,152.73-45.87,167.23-139.03
					c7.77-49.98-2.22-98.13-29.69-143.11c-20.75-33.97-43.84-52.99-44.82-53.78c-0.11-0.09-0.22-0.19-0.33-0.29
					c-2.21-2.11-2.3-5.62-0.19-7.83c2.04-2.14,5.39-2.29,7.61-0.38c5.29,4.34,97.75,82.33,78.34,207.08
					c-6.96,44.72-28.64,78.59-66.3,103.53c-32.48,21.51-71.21,33.14-108.67,44.39c-21.06,6.32-40.95,12.3-58.06,19.63
					c-32.05,13.73-57.37,40.98-71.3,76.75c-13.98,35.86-14.73,75.76-1.97,104.12c1.25,2.79,0.01,6.06-2.77,7.31
					C1395.32,1829.39,1394.55,1829.55,1393.79,1829.55z"
                  className="color38212a svgShape"
                ></path>
                <path
                  fill="#38212a"
                  d="M1421,1856.28c-2.7,0-5.07-1.99-5.47-4.74c-0.44-3.02,1.66-5.83,4.68-6.26
					c174.04-25.07,313.8-123.17,356.06-249.92c13.85-41.46,15.48-83.32,4.69-121.05c-41.17-144.06-158.85-198.28-160.03-198.81
					c-2.79-1.25-4.03-4.52-2.79-7.31c1.25-2.79,4.52-4.03,7.3-2.79c1.23,0.55,123.55,56.81,166.15,205.87
					c11.4,39.88,9.73,84-4.84,127.59c-19.99,59.95-64.07,117.59-124.12,162.28c-65.81,48.98-149.1,81.86-240.86,95.08
					C1421.52,1856.27,1421.26,1856.28,1421,1856.28z"
                  className="color38212a svgShape"
                ></path>
                <path
                  fill="#38212a"
                  d="M1707.99,1828.17c-1.77,0-3.51-0.85-4.58-2.42c-1.72-2.52-1.06-5.96,1.46-7.68
					c0.4-0.27,40.44-27.66,74.05-63.97c24.07-26.01,38.9-49.96,44.1-71.18c14.68-59.96-37.23-78.61-43.2-80.55
					c-0.08-0.03-0.16-0.05-0.24-0.08c0.31,0.12,0.47,0.14,0.47,0.14l2.56-10.76c0,0,0.24,0.04,0.73,0.22
					c4.06,1.34,67.59,23.57,50.43,93.66c-5.64,23.06-21.36,48.65-46.72,76.06c-34.5,37.27-74.27,64.46-75.95,65.6
					C1710.14,1827.86,1709.06,1828.17,1707.99,1828.17z"
                  className="color38212a svgShape"
                ></path>
                <path
                  fill="#38212a"
                  d="M1743.97,1988.73c-2,0-3.94-1.09-4.92-3c-1.4-2.71-0.33-6.05,2.38-7.45c0.68-0.35,68.04-35.55,90.25-84.55
					c3.33-7.35,5.5-14.75,6.45-21.99c7.61-58.23-54.77-106.66-58.37-109.4c-1.4-1-2.31-2.64-2.31-4.5c0-3.05,2.47-5.53,5.52-5.53
					h0.02c1.21,0,2.38,0.4,3.34,1.12c7.33,5.55,71.12,55.84,62.77,119.73c-1.09,8.32-3.56,16.77-7.34,25.12
					c-23.81,52.53-92.35,88.32-95.26,89.82C1745.69,1988.53,1744.82,1988.73,1743.97,1988.73z"
                  className="color38212a svgShape"
                ></path>
                <path
                  fill="#38212a"
                  d="M1843.61,2019.18c-0.91,0-1.83-0.22-2.67-0.69c-2.67-1.48-3.64-4.84-2.16-7.52
					c18.09-32.67,23.84-60.27,17.09-82.04c-6.23-20.08-21.45-27.88-21.6-27.96c-0.53-0.27-1.04-0.63-1.46-1.05
					c-2.16-2.16-2.17-5.67-0.01-7.83c1.82-1.82,4.6-2.11,6.71-0.86c2.74,1.45,19.65,11.21,26.86,34.24
					c7.76,24.78,1.73,55.35-17.93,90.85C1847.44,2018.15,1845.56,2019.18,1843.61,2019.18z"
                  className="color38212a svgShape"
                ></path>
                <path
                  fill="#38212a"
                  d="M1759.19,2168.65c-1.98,0-3.84-1.06-4.83-2.84c-1.15-2.07-0.86-4.64,0.73-6.4
					c0.49-0.55,48.99-54.94,19.71-82.21c-33.28-30.99-115.24,7.14-131.33,15.1c-1.99,0.98-3.1,1.57-3.14,1.6
					c-2.69,1.43-6.04,0.42-7.48-2.27c-1.44-2.69-0.43-6.04,2.27-7.48c0,0,1.22-0.66,3.47-1.76
					c24.21-11.97,106.15-48.31,143.76-13.28c27.46,25.57,5.31,65.19-9.14,85.25c51.1-13.23,97.04-44.78,110.31-77.03
					c5.64-13.7,4.66-26.15-2.91-37.01c-7.53-10.77-20.15-16.8-37.52-17.92c-28.51-1.87-59.43,10.1-59.74,10.22
					c-2.85,1.11-6.05-0.29-7.17-3.14c-1.11-2.84,0.29-6.05,3.14-7.17c1.36-0.53,33.57-12.98,64.48-10.96
					c20.89,1.35,36.32,8.96,45.87,22.63c9.72,13.95,11.13,30.39,4.07,47.55c-15.87,38.56-73.28,75.97-133.55,87.01
					C1759.85,2168.62,1759.52,2168.65,1759.19,2168.65z"
                  className="color38212a svgShape"
                ></path>
                <path
                  fill="#38212a"
                  d="M1321.79,2304.47c-2.39,0-4.76-0.01-7.18-0.04c-0.7,0-1.49,0-2.27-0.02c-3.05-0.06-5.48-2.59-5.41-5.64
					c0.06-3.01,2.53-5.41,5.53-5.41c0.04,0,0.08,0,0.12,0c0.7,0.02,1.44,0.02,2.1,0.01c2.34,0.02,4.7,0.04,7.01,0.04
					c219.02,0.01,291.65-112.43,313.95-207.33c15.98-68.04,6.09-127.66,5.99-128.26c-0.52-3.01,1.5-5.87,4.51-6.38
					c3-0.51,5.87,1.5,6.38,4.51c0.43,2.51,10.4,62.33-6.13,132.66C1623.18,2187.41,1547.9,2304.46,1321.79,2304.47z"
                  className="color38212a svgShape"
                ></path>
                <path
                  fill="#38212a"
                  d="M1066.3 2413.62c-3.05 0-5.53-2.48-5.53-5.53 0-3.05 2.48-5.53 5.53-5.53 112.71-1.02 194.72-36.97 243.85-106.84 52.98-75.34 47.74-164.56 47.68-165.45-.2-3.05 2.1-5.68 5.15-5.89 3.07-.17 5.68 2.1 5.89 5.14.25 3.8 5.62 93.92-49.67 172.55-51.3 72.96-136.32 110.49-252.7 111.54C1066.48 2413.62 1066.31 2413.62 1066.3 2413.62zM1540.82 1998.8c-.44 0-.88-.05-1.32-.16-76.89-18.79-136.82-51.45-178.11-97.07-46.33-51.18-69.34-118.92-68.39-201.32.86-75.36 29.79-121.95 60.41-171.28 26.67-42.97 54.26-87.4 67.97-155.95 20.81-104.06 1.12-165.77-19.06-199.22-21.72-36-48.68-47.87-48.95-47.99-2.8-1.2-4.11-4.45-2.91-7.25 1.19-2.8 4.43-4.12 7.23-2.93 1.21.51 30.02 13.02 53.64 51.7 21.47 35.16 42.52 99.76 20.9 207.86-14.11 70.51-42.23 115.81-69.42 159.62-29.79 47.98-57.92 93.3-58.74 165.57-1.75 151.75 78.34 248.49 238.06 287.52 2.97.73 4.78 3.72 4.06 6.69C1545.57 1997.11 1543.31 1998.8 1540.82 1998.8z"
                  className="color38212a svgShape"
                ></path>
              </g>
              <g>
                <path
                  fill="#3a212b"
                  d="M606.17,842.09c-50.95-4.89-95.48-2.76-187.7,66.19c0,0,150.85-99.77,286.06-15.84l0,0
												C696.85,867.77,645.52,845.87,606.17,842.09z"
                  className="color3a212b svgShape"
                ></path>
                <ellipse cx="580.17" cy="1061.41" fill="#ffffff" rx="105.11" ry="101.37" transform="rotate(-2.631 579.725 1060.648)" className="colorfff svgShape"></ellipse>
                <path
                  fill="#c1c1c1"
                  d="M682.14,1037.89c0,0-105.25-80.67-212.75,23.24c0,0-21.9-58.82,45.36-89.98
								C582.01,940,651.33,954.18,682.14,1037.89z"
                  className="colorc1c1c1 svgShape"
                ></path>
                <path
                  fill="#603745"
                  d="M650.91,1059.15c2.54,55.49-32.18,102.17-77.58,104.25c-45.38,2.08-84.26-41.22-86.8-96.71
								c-0.33-7.29-0.03-14.43,0.87-21.34c0.43-3.47,1.03-6.88,1.78-10.22c8.92-40.64,38.49-71.04,74.92-72.71
								c33.03-1.51,62.58,21.01,77.22,54.76c0.72,1.64,1.4,3.32,2.04,5.02C647.66,1033.55,650.3,1045.99,650.91,1059.15z"
                  className="color603745 svgShape"
                ></path>
                <ellipse cx="548.32" cy="1065.71" fill="#3a212b" rx="36.19" ry="43.94" transform="rotate(-5.808 548.2 1065.497)" className="color3a212b svgShape"></ellipse>
                <ellipse cx="531.64" cy="1034.55" fill="#ffffff" opacity=".5" rx="29.11" ry="23.52" transform="rotate(-74.467 531.686 1034.543)" className="colorfff svgShape"></ellipse>
                <circle cx="601.94" cy="1098" r="21.08" fill="#ffffff" opacity=".5" transform="rotate(-89.118 601.908 1097.97)" className="colorfff svgShape"></circle>
                <path fill="#3a212b" d="M677.56,1134.18c0,0-80.27,67.99-192.5,8.84C485.05,1143.02,596.63,1166.03,677.56,1134.18z" className="color3a212b svgShape"></path>
                <path
                  fill="#603745"
                  d="M641.34,1017.19c-36.75-12.76-94.08-18.86-153.92,28.17c0.43-3.47,1.03-6.88,1.78-10.22
								c8.92-40.64,38.49-71.04,74.92-72.71C597.14,960.91,626.7,983.43,641.34,1017.19z"
                  opacity=".5"
                  className="color603745 svgShape"
                ></path>
                <path
                  fill="#3a212b"
                  d="M409.2,997.33c20.82,8,53.11-3.04,53.11-3.04c15.93-16.95,45.09-42.96,78.76-49.24
								c70.92-13.23,135.73,37.04,141.07,92.84c0,0-19.46-60.66-95.61-73.76c-64.06-11.02-103.26,56.86-107.96,77.36
								c-5.03,21.94-1.13,42.21-1.13,42.21s-22.08-38.46-28.07-47.12c-5.99-8.66-34.07-5.6-40.66-17.45c0,0,23.57,4.07,40.7-9.79
								c0,0,0.31-0.42,0.88-1.14C421.96,1011.08,409.2,997.33,409.2,997.33z"
                  className="color3a212b svgShape"
                ></path>
              </g>
              <g>
                <ellipse cx="1031.18" cy="1046.91" fill="#ffffff" rx="105.11" ry="101.37" transform="rotate(-4.882 1030.935 1046.68)" className="colorfff svgShape"></ellipse>
                <path
                  fill="#c1c1c1"
                  d="M927,1036.91c0,0,93.81-93.73,213.96-4.76c0,0,14.03-61.18-56.73-83.28
								C1013.49,926.77,946.62,949.89,927,1036.91z"
                  className="colorc1c1c1 svgShape"
                ></path>
                <path
                  fill="#603745"
                  d="M1107.94,1043.76c4.92,57.64-28.48,99.5-73.75,103.37c-45.28,3.87-85.28-31.73-90.2-89.37
								c-1.06-12.38-0.37-24.38,1.79-35.64c0.21-1.17,0.46-2.35,0.72-3.51c8.77-39.55,36-69.29,70.56-72.24
								c35.23-3.01,67.71,22.74,82.68,61.51c0.47,1.2,0.91,2.43,1.34,3.65C1104.6,1021.55,1106.97,1032.38,1107.94,1043.76z"
                  className="color603745 svgShape"
                ></path>
                <path
                  fill="#3a212b"
                  d="M944.13 1131.78c0 0 88.47 56.91 192.01-16.4C1136.14 1115.38 1028.53 1152.77 944.13 1131.78zM1010.89 827.25c50.93-5.05 95.47-3.06 187.9 65.6 0 0-151.17-99.29-286.11-14.94l0 0C920.3 853.21 971.56 831.15 1010.89 827.25z"
                  className="color3a212b svgShape"
                ></path>
                <ellipse cx="1002.67" cy="1047.65" fill="#3a212b" rx="36.19" ry="43.94" transform="rotate(-2.144 1004.12 1048.718)" className="color3a212b svgShape"></ellipse>
                <ellipse cx="980.63" cy="1016.65" fill="#ffffff" opacity=".5" rx="29.11" ry="23.52" transform="rotate(-70.421 980.65 1016.635)" className="colorfff svgShape"></ellipse>
                <circle cx="1046.28" cy="1084.9" r="21.08" fill="#ffffff" opacity=".5" transform="rotate(-49.879 1046.31 1084.901)" className="colorfff svgShape"></circle>
                <path
                  fill="#603745"
                  d="M1099.72,1007.87c-69.54-30.64-126.09-4.41-153.95,14.25c0.21-1.17,0.46-2.35,0.72-3.51
								c8.77-39.55,36-69.29,70.56-72.24C1052.28,943.36,1084.75,969.11,1099.72,1007.87z"
                  opacity=".5"
                  className="color603745 svgShape"
                ></path>
                <path
                  fill="#3a212b"
                  d="M1192.3,961.03c-19.6,10.65-53.05,3.93-53.05,3.93c-18.01-14.72-50.32-36.7-84.52-38.53
								c-72.04-3.84-129.73,54.46-127.73,110.48c0,0,11.36-62.68,85.15-85.62c62.07-19.3,109.8,42.88,117.15,62.59
								c7.86,21.09,6.63,41.7,6.63,41.7s16.86-41.02,21.67-50.39c4.81-9.37,33.05-10.01,38.03-22.61c0,0-22.84,7.11-41.63-4.39
								c0,0-0.37-0.38-1.02-1.02C1181.45,976.33,1192.3,961.03,1192.3,961.03z"
                  className="color3a212b svgShape"
                ></path>
              </g>
              <g>
                <circle cx="791.07" cy="1157.89" r="11.43" fill="#e2a383" transform="rotate(-48.101 791.06 1157.906)" className="colore2a383 svgShape"></circle>
              </g>
              <g>
                <ellipse cx="588.14" cy="1213.49" fill="#f7c1ba" rx="69.54" ry="26.62" transform="rotate(-.647 585.641 1208.406)" className="colorf7c1ba svgShape"></ellipse>
              </g>
              <g>
                <ellipse cx="1017.54" cy="1199.28" fill="#f7c1ba" rx="69.54" ry="26.62" transform="rotate(-1.702 1018.09 1199.91)" className="colorf7c1ba svgShape"></ellipse>
              </g>
              <g>
                <path
                  fill="#d68e8e"
                  d="M761.22,1273.11c0,0-17.62,23.56-1.77,32.92c18.07,10.67,52.13-2.07,66.3-33.06
				C825.75,1272.97,790.53,1282.59,761.22,1273.11z"
                  className="colord68e8e svgShape"
                ></path>
              </g>
              <g>
                <path
                  fill="#38212a"
                  d="M792.03,1281.86c-30.81,0-51.67-9.11-53.13-9.77c-2.79-1.25-4.03-4.53-2.78-7.31
				c1.25-2.79,4.53-4.03,7.31-2.78c0.78,0.35,56.86,24.49,120.31-9.77c2.69-1.45,6.04-0.45,7.49,2.24c1.45,2.69,0.45,6.04-2.24,7.49
				C840.59,1277.3,813.82,1281.86,792.03,1281.86z"
                  className="color38212a svgShape"
                ></path>
              </g>
            </svg>