<svg xmlns="http://www.w3.org/2000/svg" enableBackground="new 0 0 1979.94 2788.25" viewBox="0 0 1979.94 2788.25">
              <rect width="4000" height="4000" x="-932.31" y="-715.32" fill="#ffffff" display="none" className="colorfff svgShape"></rect>
              <path
                fill="#38212a"
                d="M1219.8,2788.25c-44.96,0-85.09-13.2-102.24-33.63c-9.62-11.46-11.87-24.96-6.33-38.02
					c16.58-39.11,22.03-101.6,14.94-171.45c-4.45-43.71-13.47-86.81-26.08-124.63c-8.2-24.59-13.07-51.35-14.49-79.61
					c-5.83,0.36-13.05,0.68-20.53,0.68c-33.95,0-42.65-6.28-46.25-11.01c-4.16-5.46-6.69-12.5-8.21-18.58
					c-4.3,0.31-9.45,0.47-15.38,0.47c-7.18,0-15.48-0.23-24.74-0.68c-9.83,72.21-41.99,127.75-90.42,193.3
					c-4.49,6.06-9.1,12.21-13.82,18.44c-39.51,52.12-55.07,91.37-66.42,120.03c-8.6,21.7-14.81,37.38-27.29,48.07
					c-5.26,4.51-12.65,6.8-21.95,6.8c-17.71,0-39.04-8.29-50.18-13.23c-28.27-12.55-56.27-31.87-76.82-53.03
					c-25.93-26.7-40.04-55.89-40.81-84.42c-1.61-60.6,35.79-101.57,68.79-137.71c2.36-2.59,4.7-5.16,7.02-7.73
					c0.56-2.71,2.04-5.15,4.24-6.89c1.09-0.86,2.33-1.52,3.66-1.96c8.94-10.19,18.54-21.89,25.84-34.43
					c-8.57,0.77-16.63,1.16-24.06,1.16c-22.69,0-38.76-3.7-47.77-11.01c-5.77-4.68-9.05-10.9-9.46-17.98
					c-0.28-4.71,0.34-10.23,1.88-16.76c-23.19-4.03-69.26-17.76-73.08-40.75c-2.97-17.79,8.53-46.04,12.71-55.52
					c10.05-90.58,51.67-167.27,84.88-215.7c27.52-40.15,53.28-67.48,65.22-79.35c-3.72-11.81-2.81-22.57-1.36-29.57
					c-20.05-17.79-12.01-54.86-1.36-83.49c11.65-31.4,13.24-92.29,14.65-151.58c-24.26,23.5-69.57,60-116.8,60.01
					c-9.56,0-18.88-1.49-27.71-4.44c-38.16-12.71-61.22-41.67-70.51-88.51c-7.08-35.67-6.09-81.53,3.13-144.16
					c-9.92-9.76-28.62-30.93-31.02-53.65c-2.25-21.31,2.98-81.29,28.63-96.48c4.35-2.57,9.04-3.88,13.96-3.88
					c4.37,0,8.83,1.05,13.29,3.13c4.04-1.75,9.49-3.4,15.69-3.4c2.37,0,4.73,0.25,7.01,0.73c7.75,1.66,14.54,5.9,20.22,12.65
					c3.59-0.95,8.04-1.76,12.76-1.76c5,0,9.63,0.9,13.75,2.68c3.97,1.72,9.28,5.08,13.48,11.55c1.4-0.13,2.8-0.19,4.18-0.19
					c15.06,0,26.11,7.25,31.11,20.42c5.34,14.01,3.8,27.36,2.77,36.2c-0.28,2.4-0.78,6.71-0.62,8.39c0.6,0.85,0.91,1,2.86,1.96
					c3.17,1.56,7.97,3.92,14.47,10.18c1.83,1.76,3.48,3.66,4.95,5.7c37.33-58.68,83.86-93.32,112.01-110.43
					c-124.54-9.15-194.08-45.14-221.37-115.06c-12.8,46.22-33.76,80.71-62.45,102.71c-29.44,22.57-59.93,25.94-75.49,25.94
					c-1.15,0-2.29-0.02-3.42-0.05c-42.24,84.97-131.88,112.49-135.73,113.63c-0.15,0.05-0.45,0.13-0.76,0.19
					c-0.2,0.05-0.4,0.1-0.62,0.14c-0.75,0.14-1.47,0.21-2.18,0.21c-0.3,0-0.59-0.02-0.88-0.06c-0.43-0.03-0.88-0.07-1.33-0.16
					c-0.37-0.07-0.73-0.17-1.09-0.28c-0.47-0.13-0.78-0.23-1.1-0.36c-0.36-0.14-0.76-0.34-1.16-0.55c-0.4-0.21-0.63-0.35-0.87-0.49
					c-0.34-0.22-0.69-0.47-1.03-0.75c-0.2-0.15-0.4-0.3-0.58-0.48l-0.28-0.26l-0.04-0.05c-0.16-0.14-0.3-0.29-0.45-0.44
					c-0.26-0.29-0.46-0.55-0.64-0.82c-0.08-0.1-0.22-0.29-0.36-0.49c-0.3-0.44-0.59-0.92-0.83-1.42c-0.09-0.19-0.19-0.38-0.27-0.58
					c-0.23-0.53-0.41-1.06-0.56-1.59c-0.06-0.24-0.11-0.43-0.15-0.63c-0.11-0.51-0.2-1.09-0.24-1.66l-0.03-0.51
					c-0.02-0.61,0.01-1.17,0.08-1.73c0.03-0.24,0.06-0.44,0.09-0.64c0.08-0.5,0.21-1.02,0.38-1.55c0.07-0.22,0.15-0.46,0.24-0.7
					c0.19-0.48,0.4-0.95,0.65-1.4c0.13-0.24,0.27-0.49,0.43-0.73c0.22-0.35,0.46-0.67,0.71-0.99c0.15-0.21,0.31-0.42,0.49-0.61
					c40.37-44.49,54.42-95.11,41.74-150.46c-6.9-30.14-20.15-53.59-27.33-64.76c-25.46,6.75-48.45,10.16-68.39,10.16
					c-31.7,0-56.61-8.58-74.04-25.51c-41.97-40.74-24.07-113.26-23.28-116.32c1.35-5.28,6.1-8.98,11.55-8.98
					c0.68,0,1.36,0.06,2.03,0.17c6.1,1.06,10.42,6.71,9.85,12.86c-1.95,20.82,11.42,40.96,34.05,51.32
					c6.09,2.79,15.75,6.1,27.23,6.1c9.98,0,24.45-2.69,36.75-15.5c33.71-35.12,0.26-91.83-73.25-184.18
					c-37.71-47.39-46.38-101.61-47.02-138.76c-0.3-17.42,1.06-32.69,2.72-44.5c-32.04,19.6-55.5,46.69-69.8,80.68
					c-12.88,30.61-13.21,56.03-13.21,56.29c-0.02,5.75-4.14,10.67-9.8,11.69c-0.71,0.13-1.42,0.19-2.12,0.19
					c-4.93,0-9.42-3.1-11.16-7.71c-20.73-55-23.43-107.74-8.04-156.73c12.27-39.05,35.97-75.58,70.42-108.56
					c43.96-42.08,93.05-67.07,116.61-77.58c-8.56-19.09-24.69-59.49-33.22-109.22c-15.67-91.32,2.57-169.74,52.76-226.77
					c49.3-56.03,120.05-85.64,204.6-85.64c1.29,0,2.58,0.01,3.88,0.02c52.56,0.55,94.76,11.99,110.04,16.74
					c9.54-7.07,20.66-11.42,32.48-12.7c14.88-26.88,59.45-100.97,98.12-100.97c0.99,0,1.98,0.05,2.95,0.14
					c38.94,3.77,75.31,58.79,86.09,90.54c66.89-18.67,119.42-21.51,145.12-21.51c5.2,0,8.95,0.12,11.08,0.22
					c77.14-19.46,152.23-29.33,223.19-29.33c34.81,0,69.12,2.39,102.08,7.1c5.91-29.76,31.69-82.64,66.28-90.74
					c2.17-0.51,4.45-0.77,6.8-0.77c33.46,0,76.67,52.64,95.44,77.85c0.3,0,0.59-0.01,0.89-0.01c7.57,0,14.93,1.39,21.94,4.12
					c7.54-7.66,23.62-22.04,49.43-35.76c28.67-15.24,77.26-33.4,145.96-33.4c8.29,0,16.81,0.27,25.31,0.8
					c73.03,4.53,141.18,38.71,191.87,96.24c52.7,59.81,80.09,138.08,75.15,214.73c-4.53,70.12-32.56,125.28-55.28,159.2
					c-15.7,23.45-30.83,40.06-40.28,49.49c5.8,5.67,15.34,13.48,28.75,19.68c15.15,7.01,31.83,10.56,49.57,10.56
					c20.17,0,42.14-4.58,65.32-13.6l0.69-0.26c0.19-0.07,0.37-0.12,0.55-0.17c0.47-0.15,0.97-0.29,1.47-0.38
					c0.31-0.06,0.63-0.09,0.95-0.11c0.46-0.05,0.86-0.08,1.26-0.08c0.42,0.01,0.7,0.03,0.98,0.07c0.47,0.04,0.96,0.09,1.45,0.2
					l0.27,0.06l0.33,0.1c0.45,0.12,1.02,0.29,1.64,0.56l0.26,0.11l0.11,0.06c1.26,0.59,2.38,1.38,3.33,2.33
					c0.55,0.54,1.05,1.17,1.53,1.9l0.11,0.18c0.3,0.48,0.57,0.98,0.81,1.51l0.38,0.89l0.04,0.18c0.45,1.36,0.65,2.7,0.62,4.05l0,0.2
					l-0.02,0.19c-0.04,0.67-0.12,1.24-0.24,1.81l-0.05,0.24c-0.14,0.58-0.31,1.15-0.52,1.68l-0.02,0.07l-0.18,0.43
					c-2.87,7.03-27.23,63.53-79.19,92.53c8.04,8.93,19.35,23.63,28.74,43.92c15.16,32.76,28.12,87.04,3.72,159.58
					c-12.69,37.73-28.41,69.75-42.28,98c-35.3,71.91-54.75,111.52,11.91,158.47c4.4,3.1,6.18,8.79,4.33,13.85
					c-1.71,4.67-6.22,7.81-11.21,7.81c-0.34,0-0.67-0.01-1.01-0.04c-1.08-0.1-25.97-2.49-53.88-18.66
					c-20.96-12.15-48.31-35.09-64.38-76.6c-14.67,26.43-36,74.65-24.35,115.42c7.47,26.15,27.95,46.17,60.85,59.49
					c5.07,2.05,8.08,7.27,7.33,12.68c-0.75,5.41-5.06,9.61-10.49,10.22c-1.34,0.15-8.6,0.89-19.89,0.89
					c-35.48,0-102.39-7.12-151.86-54.83c-36.9-35.59-56.08-86.57-57.1-151.69c-77.37,96.31-166.55,144.23-228.92,167.63
					c-65.11,24.42-115.87,28.42-129.02,29.07c-8.7,6.18-33.67,22.6-75.88,40.18c13.45,2.64,34.2,5.09,64.86,5.08
					c17.75,0,37.49-0.82,58.66-2.43c44.49-3.39,87.69-11.43,125.81-18.52c39.06-7.27,72.8-13.55,99.33-13.55
					c22.05,0,37.64,4.33,48.5,13.56c15.92-12.08,49.48-33.9,85.07-34.77c0.6-0.01,1.2-0.02,1.78-0.02c41.2,0,60.5,34.91,66.5,48.69
					c14.91,7.46,18.08,26,15.88,42.22c13.86,16.68,10.9,33.41,8.43,40.98c8.9,16.66,5.46,28.58,0.84,35.76
					c-10.17,15.82-33.79,20.04-46.14,20.04c-2.31,0-4.34-0.14-6.04-0.41c-3.99-0.64-7.54-1.86-10.6-3.62
					c-28.08,13.52-52.89,17.2-67.93,18.02c-0.15,4.77-1.16,9.51-3.01,14.16c-7.8,19.51-29.58,35.24-64.74,46.75
					c-51.66,16.9-150.53,30.22-231.84,31.34c-3.85,21.77-10.39,79.61,12.68,143.58c32.09,88.98,19.35,148.88,13.23,168.65
					c13,19.88,12.5,37.11,10,47.75c150.38,76.57,236.19,200.79,237.04,202.05c1.65,2.42,2.35,5.36,1.97,8.27
					c-6.89,52.29-56.35,78.72-69.64,84.92c-16.07,23.41-39.7,40.85-70.29,51.86c-43.72,84.13-46.55,199.56-49.05,301.49l-0.15,6
					l0.01,0.36c0,0.19-0.01,0.38-0.03,0.56c-1.47,58.9-3.01,119.75-14.71,166.58c-10.61,42.45-44.51,72.29-95.45,84.04
					C1252.26,2786.49,1236.28,2788.25,1219.8,2788.25C1219.8,2788.25,1219.8,2788.25,1219.8,2788.25z"
                className="color38212a svgShape"
              ></path>
              <path
                fill="#ffdfca"
                d="M715.36 2345.64c20.68-65.15-31-180.19-31-180.19l.02-.75c34.3.74 91.65.6 121.74-7.03 0 0 38.82-7.53 90.98 8.06 25.52 7.63 46.34 12.73 59.87 15.77 7.77 45.11 9.54 83.49 6.19 117.82-7.45 76.53-40.33 132.99-88.81 199.1l-1.25-.91c-115.03 2.62-188.74-79.16-198.26-90.35 15.82-17.81 30.16-35.61 38.31-55.36C713.97 2349.79 714.71 2347.75 715.36 2345.64zM1100.38 2327.67c-.99-57.26 12.51-103.32 15.65-113.19 47.57 17.53 82.12 22.95 82.12 22.95s15.47 23.73 30.87 26.47c15.42 2.75 117.46-21.39 134.17-41.04 0 0 26.01.33 56.24-9.5l.56 1.69c-46.63 88.72-48.2 208.8-50.47 315.49-94.49 60.25-226.51 12.77-226.51 12.77l-.95.11c-4.59-43.54-13.82-87.81-27.08-127.1C1104.77 2386.04 1100.86 2355.51 1100.38 2327.67zM1687.29 1278.52c0 0-24.72 17.24-43.5 28.58-18.76 11.35-7.06 30.84 7.04 29.85 0 0-18.69 31.1 11.4 34.75 0 0-5.54 10.8-1.29 18.14l-.53.52c-45.07 24.09-83.18 20.26-83.18 20.26-65.95-55.73-35.46-138.39-35.46-138.39s42.45-38.32 86.53-39.55C1672.36 1231.45 1687.29 1278.52 1687.29 1278.52z"
                className="colorffdfca svgShape"
              ></path>
              <path
                fill="#ffdfca"
                d="M1707.62,1353.21c25.19,37.44-24.26,44.75-35.89,42.9c-5.82-0.92-9.09-3.31-10.79-6.25
					c-4.24-7.34,1.29-18.14,1.29-18.14S1689.67,1367.03,1707.62,1353.21z"
                className="colorffdfca svgShape"
              ></path>
              <path
                fill="#ffdfca"
                d="M1699.65,1315.16c19.8,18.73,7.96,38.05,7.96,38.05c-17.94,13.82-45.39,18.5-45.39,18.5
					c-30.09-3.65-11.4-34.75-11.4-34.75S1672.72,1332.79,1699.65,1315.16z"
                className="colorffdfca svgShape"
              ></path>
              <path
                fill="#ffdfca"
                d="M1687.29 1278.52c19.77 4.64 12.36 36.64 12.36 36.64-26.94 17.63-48.82 21.8-48.82 21.8-14.1.98-25.8-18.51-7.04-29.85C1662.57 1295.76 1687.29 1278.52 1687.29 1278.52zM1390.47 895.14c38.01-40.94 153.87-13.82 93.02 108.95-56.62 114.23-168.7 90.19-168.7 90.19l-.13-.07C1345.09 1042.08 1374.81 975.01 1390.47 895.14zM813.95 1322.35c-7.33-3.4-12.75-6.03-15.52-7.37 8.49.43 17.32.73 26.43.92 135.92 2.73 235.78-22.39 300.78-47.49-1.02.99-4.02 3.87-8.56 8.05-27.44 25.44-111.02 99.56-151.53 98.02-2.22-.08-4.59-.28-7.06-.58-5.19-.61-10.9-1.67-16.98-3.06l0-.02C900.33 1361.28 842.61 1335.71 813.95 1322.35zM603.55 1367.84c0 0 23.67-8.28 31.02 10.84 7.77 20.17-2.19 38.43 3.15 46.39 5.35 7.94 8.86 4.52 19.4 14.61 11.89 11.35 9.45 27.44 9.45 27.44-82.7 49.1-150.86 11.51-150.86 11.51s-29.31-25.14-32.05-50.36c-2.75-25.23 6.68-107.89 43.55-82.51 0 0 22.87-16.94 38.55 10.48C565.76 1356.25 595.47 1341.31 603.55 1367.84z"
                className="colorffdfca svgShape"
              ></path>
              <path
                fill="#ffdfca"
                d="M798.4,1314.97c-194.03-9.7-229.55-81-239.27-159.03c-1.92-15.47-2.84-31.23-3.78-46.79
					c-6.49-107.9-90.18-172.76-90.18-172.76l-0.48-0.07c22.37-147.53,81.32-337.4,230.92-477.21l0.42,0.07
					c-29.31,158.1-23.71,373.39,148.09,545.11c0,0-13.13-266.38,166.88-517.32c37.51,120.68,115.83,247.66,278.25,291.79l0.81-0.09
					l0.02,0c13.36,123.21,4.94,281.05-72.57,442.19c0,0-30.29,23.75-91.87,47.53c-65.01,25.1-164.86,50.23-300.78,47.49
					c-9.12-0.19-17.94-0.49-26.43-0.92L798.4,1314.97z"
                className="colorffdfca svgShape"
              ></path>
              <path
                fill="#fcd5c6"
                d="M1448.24,124.15c0.61,2.13,1.06,4.32,1.38,6.58c2.09,15.16-2.98,29.67-12.63,40.08
					c-26.56-14.91-54.92-27.89-85.06-38.64l0.25-0.7c2.62-21.6,19.49-39.59,42.05-42.7c10.69-1.47,21.06,0.6,29.9,5.36
					C1435.65,100.3,1444.57,110.98,1448.24,124.15z"
                className="colorfcd5c6 svgShape"
              ></path>
              <path
                fill="#fcd5c6"
                d="M1581.03 158.92c23.91 28.27-28.86 91.17-32.52 95.45-32.52-31.93-69.76-60.14-111.52-83.56 9.65-10.42 14.71-24.92 12.63-40.08-.32-2.25-.77-4.45-1.38-6.58C1462.2 125.02 1558.12 131.8 1581.03 158.92zM1394.25 88.78c-22.57 3.11-39.43 21.1-42.05 42.7l-.25.7c-34.32-12.28-70.93-21.71-109.76-27.88-1.72-20.46 25.31-85.23 58.02-93.01S1394.25 88.78 1394.25 88.78zM536.12 256.32l1.57 1.98c-34.2 27.3-68.09 60.2-100.29 99.84-2.63 3.24-5.2 6.47-7.71 9.71-6-5.13-77.55-67.48-55.62-102.33 21.18-33.69 126.45-56.27 141.92-59.45-.34 2.46-.5 4.95-.49 7.5C515.56 230.86 523.6 246.27 536.12 256.32z"
                className="colorfcd5c6 svgShape"
              ></path>
              <path
                fill="#fcd5c6"
                d="M515.99,206.06c1.7-12.86,7.86-24.35,16.87-32.82c9.8-9.22,23-14.9,37.53-14.95
					c25.55-0.09,47.11,17.22,53.41,40.81l0.65,1.17c-28.61,15.8-57.8,34.9-86.75,58.02l-1.57-1.98
					c-12.53-10.04-20.56-25.46-20.62-42.76C515.5,211.01,515.65,208.52,515.99,206.06z"
                className="colorfcd5c6 svgShape"
              ></path>
              <path
                fill="#fcd5c6"
                d="M662.64,57.49c37.1,3.47,76.76,69.54,78.94,93.3c-36.22,11.02-76.08,26.82-117.14,49.47l-0.65-1.17
					c-6.3-23.58-27.86-40.9-53.41-40.81C570.39,158.29,625.11,53.99,662.64,57.49z"
                className="colorfcd5c6 svgShape"
              ></path>
              <path
                fill="#a99797"
                d="M1877.45,651.42l0.76,1.78c0,0,85.14,68.1,40.8,201.49c-44.34,133.41-129.02,197.37-24.99,270.11
					c0,0-92.01-7.93-115.94-111.61c0,0-113.83,157.22,29.03,214.49c0,0-233.36,26.75-215.39-226.83l-1.51-1.06
					c32.67-46.32,62.32-102.33,86.25-170.07c71.47-202.34,21.85-428.3-127.95-575.35c3.65-4.29,56.42-67.18,32.52-95.45
					c-22.91-27.12-118.83-33.9-132.79-34.77c-3.68-13.17-12.59-23.85-24.1-30.01l2.86-0.62c0,0,63.4-79.22,215.54-70.3
					c152.12,8.9,265.82,151.16,256.9,297.41c-7.98,130.66-99.51,209.04-99.51,209.04s50.97,72.93,165.15,27.74
					C1964.61,558.69,1937.9,626.65,1877.45,651.42z"
                className="colora99797 svgShape"
              ></path>
              <path
                fill="#a99797"
                d="M1548.52,254.37c-32.52-31.93-69.77-60.14-111.52-83.56c-26.56-14.91-54.91-27.88-85.07-38.63
						c-34.32-12.29-70.93-21.72-109.76-27.9c-96.95-15.41-207.7-10.51-330.97,20.8c-1.23,0.29-2.48,0.62-3.7,0.94
						c0,0-70.25-4.35-165.92,24.78c-36.22,11.02-76.08,26.82-117.15,49.47c-28.61,15.81-57.79,34.9-86.76,58.03
						c-34.21,27.29-68.08,60.2-100.29,99.83c-2.62,3.25-5.21,6.47-7.7,9.7C223.75,632.2,406.58,859.2,406.58,859.2l1.17,0.11
						c0,0,0,0.04-0.02,0.13c-7.81,94.9,0.37,202.56,46.02,305.04c0,0-8.9-97.45,10.95-228.15
						c22.36-147.52,81.31-337.41,230.92-477.21l0.42,0.07c-29.31,158.08-23.72,373.38,148.09,545.11c0,0-13.13-266.39,166.87-517.32
						c37.51,120.69,115.83,247.66,278.26,291.79l0.81-0.09h0.02c13.35,123.2,4.93,281.05-72.58,442.19c0,0,219.29-3.36,372.7-221.09
						c32.67-46.31,62.32-102.33,86.26-170.06C1747.92,627.38,1698.31,401.43,1548.52,254.37z M1483.5,1004.1
						c-56.62,114.23-168.7,90.18-168.7,90.18l-0.13-0.07c30.43-52.13,60.14-119.2,75.81-199.08
						C1428.47,854.19,1544.33,881.32,1483.5,1004.1z"
                className="colora99797 svgShape"
              ></path>
              <path
                fill="#d0dae2"
                d="M728.07,1630.68l-1.96-0.05c0,0-79.35,97.25-151.17,73.58c-71.8-23.65-76.11-112.63-59.23-225.58
					c0,0,68.16,37.58,150.86-11.51c53.62-102.37,138.54-140.96,147.38-144.77c28.66,13.36,86.38,38.93,127.57,48.45l0,0.02
					l-0.74,3.19c0,0-106.76-8.91-129.87,17.7c-23.09,26.58,15.57,88.11,35.47,93.34l0.99,0.77c-9.24,12.14-17.48,24.93-23.4,37.76
					c0,0,47.06-1.49,55.7,3.79s25.31,37.7,25.31,37.7s47.49-71.09,50.28-125.47c0,0,3.93,80.19,31.24,116.56
					c0,0,17.8-28.57,29.06-30.6c11.25-2.02,45.73-4.8,45.73-4.8s-2.88-15.86-14.31-38.25l2.24-0.15
					c28.47-9.38,57.42-75.09,36.79-95.58c-27.28-27.09-110.71-5.57-110.71-5.57l-0.58,0.74c-4.62-3.56-10.26-5.89-16.38-6.49
					l0.18-1.56c2.48,0.3,4.84,0.5,7.06,0.58c40.5,1.55,124.08-72.57,151.53-98.02c8.2,4.63,43.85,19.45,153.3,10.74
					c128.69-10.24,243.24-58.22,271.38-14.94c0,0-30.49,82.66,35.46,138.39c0,0,19.72,36.3-57.14,61.75
					c-54.36,18-160.43,31.28-237.74,31.66c-0.52,2.02-18.9,75.34,11.75,159.42c31.08,85.23,20.1,145.43,11.77,166.44
					c0,0-128.82-27.52-361-9.93C752.42,1834.58,717,1889.42,717,1889.42c-24.8-10.53-11.36-55.3-4.4-74.21
					C726.82,1776.46,726.4,1698.38,728.07,1630.68z"
                className="colord0dae2 svgShape"
              ></path>
              <path
                fill="#e2958d"
                d="M1557.2,2083.67c-6.82,53.2-65.5,77.19-65.5,77.19s-39.27-27.85-89.9-101.83
					c-50.62-73.98-104.03-146.53-167.13-185.49l0.28-2.62c25.5,2.83,52,6.38,79.49,10.75
					C1470.01,1956.67,1557.2,2083.67,1557.2,2083.67z"
                className="colore2958d svgShape"
              ></path>
              <path
                fill="#fcd5c6"
                d="M1401.8,2059.03c50.62,73.98,89.9,101.83,89.9,101.83c-18.44,28.84-46.85,44.26-72.27,52.51
					c-30.23,9.83-56.24,9.5-56.24,9.5s-39.29-37.63-71.72-106.07c-32.41-68.45-88.84-196.97-167.37-254.05l0.02-0.26
					c34.63,1.35,71.56,4.04,110.83,8.43l-0.28,2.62C1297.77,1912.5,1351.18,1985.06,1401.8,2059.03z"
                className="colorfcd5c6 svgShape"
              ></path>
              <path
                fill="#7f5c54"
                d="M1369.52,2530.54c-1.34,62.31-2.9,120.04-13.79,164.28c-29.55,119.98-254.24,86.38-228.89,25.97
					c18.12-43.15,22.34-109.41,15.21-177.36l0.95-0.11C1143.01,2543.31,1275.03,2590.79,1369.52,2530.54z"
                className="color7f5c54 svgShape"
              ></path>
              <path
                fill="#fcd5c6"
                d="M1291.48,2116.79c32.43,68.45,71.72,106.07,71.72,106.07c-16.71,19.65-118.76,43.79-134.17,41.04
					c-15.4-2.73-30.87-26.47-30.87-26.47s-112.14-168.35-150.83-375.77c24.21-0.47,49.8-0.25,76.8,0.81l-0.02,0.26
					C1202.64,1919.82,1259.07,2048.34,1291.48,2116.79z"
                className="colorfcd5c6 svgShape"
              ></path>
              <path
                fill="#fcd5c6"
                d="M951.69,1867.32c-32.8,3.36-62.04,7.9-87.79,13c-53.91,10.68-92.49,23.76-116.28,33.38
					c-19.47,7.86-29.04,13.4-29.04,13.4c-9.86-19.55-1.58-37.69-1.58-37.69s35.43-54.84,227.87-69.43
					c232.18-17.59,361,9.93,361,9.93c22.5,29.3,8.58,51.75,8.58,51.75c-27.49-4.36-53.99-7.92-79.49-10.75
					c-39.27-4.39-76.2-7.09-110.83-8.43c-27-1.06-52.59-1.28-76.8-0.81C1012.62,1862.32,980.75,1864.36,951.69,1867.32z"
                className="colorfcd5c6 svgShape"
              ></path>
              <path
                fill="#fcd5c6"
                d="M1116.03,2214.49c-12.07-4.45-24.96-9.69-38.33-15.8c-54.65-24.99-103.59-13.63-103.59-13.63
					s-64.61-165.4-22.42-317.73c29.06-2.96,60.93-5,95.63-5.65c38.69,207.42,150.83,375.77,150.83,375.77
					S1163.6,2232.02,1116.03,2214.49z"
                className="colorfcd5c6 svgShape"
              ></path>
              <path
                fill="#d3817a"
                d="M1023.48,2298.21c-6.97,4.22-58.95,1.23-58.95,1.23l-1.38-0.12c3.35-34.33,1.58-72.71-6.19-117.82
					c10.98,2.46,17.14,3.55,17.14,3.55s48.93-11.36,103.59,13.63c13.37,6.12,26.27,11.35,38.33,15.8
					c-3.14,9.86-16.64,55.93-15.65,113.19c-14.54,1.46-62.26,4.11-68.81-4.45C1024.92,2314.55,1023.48,2298.21,1023.48,2298.21z"
                className="colord3817a svgShape"
              ></path>
              <path
                fill="#fcd5c6"
                d="M1085.99,1386.76c20.63,20.49-8.32,86.2-36.79,95.58l-2.24,0.15c-10.75-21.07-29.07-47.9-59.66-72.85
					l-0.09,0c0.05-0.77,0.09-1.54,0.08-2.33c-0.04-10.34-4.97-19.55-12.6-25.4l0.58-0.74
					C975.28,1381.19,1058.72,1359.68,1085.99,1386.76z"
                className="colorfcd5c6 svgShape"
              ></path>
              <path
                fill="#fcd5c6"
                d="M1046.97,1482.5c11.43,22.39,14.31,38.25,14.31,38.25s-34.47,2.78-45.73,4.8
					c-11.25,2.04-29.06,30.6-29.06,30.6c-27.31-36.37-31.24-116.56-31.24-116.56c16.97-0.06,30.82-13.26,31.96-29.94l0.09,0
					C1017.89,1434.6,1036.22,1461.42,1046.97,1482.5z"
                className="colorfcd5c6 svgShape"
              ></path>
              <path
                fill="#fcd5c6"
                d="M987.3,1407.32c0,0.79-0.03,1.56-0.08,2.33c-1.13,16.68-14.99,29.88-31.96,29.94
					c-16.97,0.06-30.91-13.04-32.16-29.71c-0.06-0.77-0.1-1.54-0.1-2.33c-0.06-17.75,14.29-32.2,32.04-32.26
					c1.12,0,2.2,0.05,3.28,0.15c6.13,0.6,11.77,2.93,16.38,6.49C982.33,1387.77,987.26,1396.98,987.3,1407.32z"
                className="colorfcd5c6 svgShape"
              ></path>
              <path
                fill="#fcd5c6"
                d="M958.49 1373.88l-.18 1.56c-1.08-.11-2.16-.16-3.28-.15-17.75.06-32.1 14.51-32.04 32.26 0 .79.04 1.56.1 2.33l-.09 0c0 0-43.72 34.03-75.63 75.94l-.99-.77c-19.9-5.23-58.56-66.76-35.47-93.34 23.11-26.6 129.87-17.7 129.87-17.7l.74-3.19C947.59 1372.21 953.3 1373.27 958.49 1373.88zM956.97 2181.5c-13.53-3.03-34.35-8.13-59.87-15.77-52.16-15.59-90.98-8.06-90.98-8.06s-25.73-155.21 57.8-277.23l-.02-.11c25.75-5.1 54.99-9.64 87.79-13-42.18 152.33 22.42 317.73 22.42 317.73S967.95 2183.95 956.97 2181.5z"
                className="colorfcd5c6 svgShape"
              ></path>
              <path
                fill="#fcd5c6"
                d="M923.09,1409.88c1.25,16.67,15.2,29.77,32.16,29.71c-2.78,54.37-50.28,125.47-50.28,125.47
					s-16.68-32.42-25.31-37.7s-55.7-3.79-55.7-3.79c5.92-12.82,14.16-25.62,23.4-37.76c31.91-41.91,75.63-75.94,75.63-75.94
					L923.09,1409.88z"
                className="colorfcd5c6 svgShape"
              ></path>
              <path
                fill="#7f5c54"
                d="M873.1,2497.5l1.25,0.91c-4.44,6.03-9,12.16-13.67,18.37c-68.7,91.29-66.7,145.26-91.38,166.57
					c-24.69,21.33-167.92-47.05-170.55-134.54c-1.87-62.06,40.82-101.94,76.1-141.66C684.36,2418.34,758.07,2500.12,873.1,2497.5z"
                className="color7f5c54 svgShape"
              ></path>
              <path
                fill="#fcd5c6"
                d="M863.9,1880.32l0.02,0.11c-83.52,122.02-57.8,277.23-57.8,277.23c-30.09,7.63-87.44,7.77-121.74,7.03
					c-16.69-0.35-27.94-0.91-27.94-0.91c-15.74-100.68,91.48-249.36,91.48-249.36l-0.3-0.71
					C771.41,1904.09,809.99,1891,863.9,1880.32z"
                className="colorfcd5c6 svgShape"
              ></path>
              <path
                fill="#fcd5c6"
                d="M747.62,1913.71l0.3,0.71c0,0-107.22,148.68-91.48,249.36c-22.19,54.64-89.34,59.08-89.34,59.08
					c17.59-172.16,151.48-295.76,151.48-295.76S728.15,1921.57,747.62,1913.71z"
                className="colorfcd5c6 svgShape"
              ></path>
              <path
                fill="#d3817a"
                d="M631.7,2305.19c-18.7,1.13-74.17-15.29-77-31.92c-2.86-16.79,12.41-50.41,12.41-50.41
					s67.15-4.44,89.34-59.08c0,0,11.25,0.57,27.94,0.91l-0.02,0.75c0,0,51.69,115.04,31,180.19c-14.13,2.18-87.5,12.17-89.11-13.85
					C625.82,2324.97,628.15,2315.38,631.7,2305.19z"
                className="colord3817a svgShape"
              ></path>
              <path
                fill="#a99797"
                d="M559.13,1155.94l-0.35,0.04c-22.73,183.69-134.33,173.93-146.82,172.26
					c-38.39,87.03-129.84,114.71-131.6,115.22c103.92-115.33,9.78-237.03,9.78-237.03c-151.83,44.15-165.86-41.56-163.26-87.71
					c0.88-15.61,3.67-26.69,3.67-26.69c-5.1,56.62,76.39,95.23,118.69,50.88c42.28-44.37-3.94-113.18-73.22-199.61
					c-69.28-86.42-37.84-197.96-37.84-197.96C27.66,796.71,27.3,903.51,27.3,904.9c-87.43-229.6,182.79-333.14,182.79-333.14
					s-105.04-201.26,11.21-334.31c102.97-117.83,267.51-77.73,303.81-67.02c4.7,1.38,7.24,2.27,7.24,2.27l0.51,0.53
					c-9.01,8.46-15.17,19.96-16.87,32.81c-15.46,3.17-120.74,25.75-141.91,59.44c-21.94,34.85,49.61,97.21,55.61,102.33
					C223.75,632.2,406.58,859.2,406.58,859.2l1.17,0.11c-7.83,94.94,0.33,202.64,46,305.16c0,0-8.9-97.45,10.95-228.15l0.48,0.07
					c0,0,83.69,64.86,90.18,172.76C556.28,1124.73,557.2,1140.46,559.13,1155.94z"
                className="colora99797 svgShape"
              ></path>
              <path
                fill="#e2a383"
                d="M1218.11,1221.66c95.49-254.12,38.94-413.25,38.94-413.25c-165.07-40.08-259.4-228.74-259.4-228.74
				c-134.41,200.43-129.69,466.92-129.69,466.92C603.84,883.89,651,565.52,651,565.52C523.96,696.8,476.77,896.52,468.46,935.94
				c-1.1-0.92-1.69-1.38-1.69-1.38l-0.48-0.07c22.89-147.45,82.5-337.12,232.59-476.4l0.42,0.07
				c-29.86,157.99-25.02,373.3,146.18,545.62c0,0-12.2-266.43,168.69-516.73c37.09,120.81,114.96,248.07,277.23,292.77l0.81-0.09
				h0.02C1305.16,902.98,1296.19,1060.79,1218.11,1221.66z"
                className="colore2a383 svgShape"
              ></path>
              <path
                fill="#7c6a6a"
                d="M454.56 1162.6c.02 12.89-107.77-443.8 300.2-882.42 0 0-42.45 110.83-56.6 186.3C698.16 466.48 453.85 627.75 454.56 1162.6zM845.49 1003.78c0 0-135.54-185.93 145.09-622.2l23.6 105.47C1014.18 487.05 844.25 718.08 845.49 1003.78zM1231.11 537.22c0 0 25.94 160.36 18.87 231.1l41.43 11.49C1291.41 779.82 1275.92 631.55 1231.11 537.22zM1344.31 499.49c0 0 124.98 304.21-77.82 606.05l-48.37 116.11C1218.11 1221.66 1525.89 985.28 1344.31 499.49z"
                className="color7c6a6a svgShape"
              ></path>
              <path
                fill="#7c6a6a"
                d="M1678.43,832.13c-24.17,67.66-54.02,123.57-86.85,169.77c-154.16,217.18-373.47,219.77-373.47,219.77
				s51.98-42.92,100.69-125.71c18.1,2.9,114.52,12.91,166.05-90.13c4.37-8.73,7.83-16.98,10.49-24.74
				c85.12-66.43,232.73-236.81,157.2-587.05C1719.5,526.67,1730.72,685.71,1678.43,832.13z"
                className="color7c6a6a svgShape"
              ></path>
              <path fill="#bc7b5e" d="M440.93,1128.47c4.09,11.43,8.64,22.82,13.63,34.13C449.1,1151.74,444.58,1140.32,440.93,1128.47z" className="colorbc7b5e svgShape"></path>
              <path
                fill="#7c6a6a"
                d="M559.97 1154.44l-.35.04c-23.37 183.6-134.96 173.45-147.43 171.75-38.7 86.88-130.24 114.25-132 114.76 104.33-114.96 10.6-236.99 10.6-236.99-203.39 58.36-159.19-114.96-159.19-114.96.07 5.8.37 11.26.9 16.42 13.52 133.53 174.21 61.41 174.21 61.41 66.03 89.62 42.44 198.09 42.44 198.09 49.52-37.14 69.85-74.5 79.59-113.19 2.52-10.03 21.39 38.99 28.3 21.22 24.76-63.67-2.48-110.38-2.48-110.38s-8.55-97.48 11.74-228.11l.48.07c0 0 83.47 65.15 89.58 173.07C557.24 1123.2 558.1 1138.96 559.97 1154.44zM1920.88 857.93c-44.81 133.25-129.71 196.91-25.93 270.02 0 0-91.98-8.25-115.55-112.01 0 0-114.38 156.82 28.28 214.59 0 0-233.45 25.93-214.59-227.58l-1.5-1.06c32.83-46.2 62.67-102.11 86.85-169.77.88-2.46 1.74-4.92 2.57-7.37-.31 9.19-2.42 19.46-6.55 30.83-87.25 240.53 49.52 346.65 49.52 346.65-82.54-122.63 70.74-254.69 70.74-254.69-9.43 101.41 35.38 115.55 35.38 115.55-21.22-66.03 14.14-134.42 47.16-254.69s-94.33-157.99-94.33-157.99c103.78-7.08 120.28-51.89 120.28-51.89-85.91-4.64-99.81-64.12-100.22-65.99 1.21 1.69 52.07 72.54 165.04 28.28-.5 1.28-27.44 69.15-87.98 93.71l.75 1.78C1880.79 656.31 1965.69 724.7 1920.88 857.93z"
                className="color7c6a6a svgShape"
              ></path>
              <path
                fill="#e2a383"
                d="M1126.08,1268.87c-1.03,0.99-4.04,3.85-8.58,8.02c-5.59,5.15-13.5,12.29-22.91,20.41
				c-90.88,40.37-211.13,38.46-254.69,36.17c-10.6-0.55-16.65-1.14-16.65-1.14s-3.37-3.45-7.08-9.68c-1.34-2.22-2.7-4.81-3.98-7.74
				c4.24,0.17,8.57,0.29,12.95,0.4C961.04,1318.52,1060.98,1293.74,1126.08,1268.87z"
                className="colore2a383 svgShape"
              ></path>
              <path
                fill="#e2958d"
                d="M1048.9 1482.55l-2.24.15c-10.67-21.11-28.91-48-59.41-73.05h-.09c.06-.77.09-1.54.09-2.33 0 0 27.51 14.18 57.24 35.66 21.84 15.77 38.33-23.75 42.9-54.33C1105.19 1410.74 1076.72 1473.49 1048.9 1482.55zM923.57 1411.84c0 .79.04 1.56.09 2.33h-.09c0 0-43.84 33.88-75.9 75.68l-.99-.77c-19.88-5.3-58.33-66.96-35.14-93.47 1.56-1.78 3.47-3.39 5.72-4.86 3.67 31.97 14.23 80.65 44.11 54.24 35.82-31.68 56.47-35.14 62.29-35.42C923.59 1410.32 923.57 1411.07 923.57 1411.84z"
                className="colore2958d svgShape"
              ></path>
              <path
                fill="#e2958d"
                d="M1061.46 1525.52c0 0-34.48 2.66-45.74 4.64-11.26 2-29.16 30.5-29.16 30.5-1.45-1.94-2.84-4.02-4.15-6.2 18.95-53.61 48.71-37.76 50.49-56.66 1.85-19.88-43.51-75.81-43.51-75.81s.66-1.98 1.93-4.95c28.45 24.23 45.69 49.87 55.96 70.17C1058.64 1509.66 1061.46 1525.52 1061.46 1525.52zM955.72 1444c-2.97 54.36-50.71 125.29-50.71 125.29s-16.56-32.48-25.18-37.78c-8.62-5.3-55.68-3.98-55.68-3.98 1.54-3.32 3.25-6.62 5.1-9.92 67.81-19.48 59.79 15.43 74.39 5.7 13.06-8.73 37.1-65.13 42.86-80.65C949.41 1443.52 952.51 1444 955.72 1444z"
                className="colore2958d svgShape"
              ></path>
              <path
                fill="#a5afb5"
                d="M1304.34,1826.43c0,0-128.72-27.97-360.96-11.19c-186.48,13.48-225.73,65.26-228,68.47
				c60.36-103.46,364.26-106.67,447.35-104.91c83.12,1.78,95.5-61.9,70.74-139.71c-24.76-77.82-10.6-137.96-10.6-137.96l56.58,5.3
				c0,0,0.37,0.18,1.08,0.53c-3.89,19.86-12.77,82.61,12.62,152.99C1323.93,1745.29,1312.74,1805.45,1304.34,1826.43z"
                className="colora5afb5 svgShape"
              ></path>
              <path
                fill="#a5afb5"
                d="M1519.81 1469.66c-54.42 17.81-160.54 30.72-237.85 30.83-.09.33-.66 2.59-1.43 6.47l-57.67-5.83c0 0 272.37-33.6 290.05-81.36 17.68-47.74-51.28-91.96 29.27-150.18 0 0-30.78 82.55 34.98 138.51C1577.17 1408.1 1596.75 1444.47 1519.81 1469.66zM727.24 1625.17l-1.96-.06c0 0-79.69 96.97-151.43 73.05-71.72-23.9-75.71-112.89-58.44-225.78 0 0 68.03 37.82 150.89-10.99.94-1.78 1.89-3.56 2.86-5.3.79 5.39-.22 10.49-3.43 14.97-12.31 17.17-72.32 41.62-106.12 45.98-34.56 4.48-33.99 146.77 37.14 149.01 81.18 2.53 124.89-95.41 134.26-119.13C726.34 1564.04 726.71 1604.74 727.24 1625.17z"
                className="colora5afb5 svgShape"
              ></path>
              <path
                fill="#99aa81"
                d="M727.65 1637.31l-.75 1.56c.11-4.6.22-9.15.35-13.66C727.44 1632.58 727.65 1637.31 727.65 1637.31zM732.91 1541.9c-.15.4-.77 2.18-1.89 5.03C731.57 1544.89 732.2 1543.19 732.91 1541.9z"
                className="color99aa81 svgShape"
              ></path>
              <path
                fill="#e2a383"
                d="M666.31 1461.4c-57.76 34.02-108.31 25.95-133.64 17.94 143.14 5.74 99.47-52.49 99.47-52.49s3.37-1.49 8.95-3.61c3.82 3.12 7.78 2.9 15.87 10.69C668.81 1445.32 666.31 1461.4 666.31 1461.4zM1654.81 1390.97c-42.66 20.76-77.64 17.13-77.64 17.13-65.75-55.96-34.98-138.51-34.98-138.51s-2.75 79.44 41.47 113.04C1601.28 1396.03 1628.49 1395.94 1654.81 1390.97z"
                className="colore2a383 svgShape"
              ></path>
              <path
                fill="#e2958d"
                d="M1312.74,1878.21c-27.48-4.46-53.96-8.11-79.45-11.02c-39.25-4.53-76.17-7.35-110.8-8.82
				c-27-1.16-52.58-1.47-76.8-1.08c-34.7,0.53-66.58,2.46-95.65,5.32c-32.81,3.25-62.07,7.69-87.84,12.69
				c-53.94,10.49-92.57,23.44-116.39,32.98c-19.5,7.8-29.09,13.3-29.09,13.3c-1.14-2.29-2.04-4.57-2.73-6.79
				c298.36-125.55,528.32-35.62,529.87-63.24c1.12-20.05-67.97-27.86-256.27-21.17c-196.23,6.97-272.21,53.34-272.21,53.34
				c2.27-3.21,41.53-54.99,228-68.47c232.24-16.78,360.96,11.19,360.96,11.19C1326.73,1855.82,1312.74,1878.21,1312.74,1878.21z"
                className="colore2958d svgShape"
              ></path>
              <path
                fill="#e2958d"
                d="M1489.02,2158.03c-18.54,28.78-47.01,44.09-72.45,52.25c-30.26,9.72-56.27,9.3-56.27,9.3
				c73.77-15.54,88.96-42.83,76.58-65.83c-12.38-22.98-40.85-54.82-86.99-132.96c-49.83-84.43-119.95-144.71-119.95-144.71
				c1.32-1.98,2.88-3.76,4.62-5.28c62.29,39.4,114.98,111.55,164.93,185.08C1449.84,2130.04,1489.02,2158.03,1489.02,2158.03z"
                className="colore2958d svgShape"
              ></path>
              <path fill="#60423d" d="M1316,1925.39c-4.33-11,12.51,11.1,13.35,12.23L1316,1925.39z" className="color60423d svgShape"></path>
              <path
                fill="#e2958d"
                d="M1360.3 2219.58c-16.78 19.59-118.91 43.38-134.31 40.57 20.96-2.92 98.29-19.22 74.45-65.22-23.86-46-47.71-112.45-78.37-175.49-30.67-63.04-93.71-149.92-93.71-149.92-.42-2.51-.79-4.93-1.08-7.26 75.82 59 130.17 183.85 161.68 251C1321.14 2181.82 1360.3 2219.58 1360.3 2219.58zM1195.21 2233.58c0 0-34.54-5.54-82.04-23.24-12.05-4.49-24.93-9.78-38.28-15.94-53.76-24.82-102.09-14.32-103.5-14.01 32.34-28.94 106.36 10.33 142.75 4.42 36.39-5.89-18.69-71.81-40.33-151.48-21.64-79.68-27.55-167.22-27.55-167.22s.35-.13 1.03-.35C1086.68 2069.4 1195.21 2233.58 1195.21 2233.58zM971.35 2180.4c0 0-6.16-1.12-17.13-3.61-13.52-3.08-34.32-8.25-59.81-15.98-52.11-15.77-90.96-8.38-90.96-8.38 22.78-28.45 106.07-5.01 122.8-5.98 16.73-.99-1.96-64.93-8.86-132.79-6.88-67.88 28.54-139.69 28.54-139.69.48-.42.95-.83 1.43-1.21C910.13 2022.06 971.35 2180.4 971.35 2180.4zM803.45 2152.43c-30.12 7.52-87.47 7.47-121.77 6.6-16.69-.4-27.93-1.01-27.93-1.01-.13-.84-.26-1.69-.37-2.53 1.47-.75 2.37-1.17 2.37-1.17s68.85-.99 96.38-14.76c27.55-13.77 22.63-37.38 39.36-128.85 16.71-91.49 61.96-124.94 61.96-124.94l2.55-.95C779.53 2004.99 803.45 2152.43 803.45 2152.43z"
                className="colore2958d svgShape"
              ></path>
              <path
                fill="#e2958d"
                d="M653.75,2158.03c-22.38,54.57-89.54,58.77-89.54,58.77c0.18-1.76,0.39-3.52,0.61-5.28
				c0.13-0.06,0.27-0.09,0.42-0.15c80.67-26.56,57.06-63.94,81.66-142.62c18.23-58.31,62.36-112.85,84-137.18
				C701.78,1976.91,642.03,2081.27,653.75,2158.03z"
                className="colore2958d svgShape"
              ></path>
              <path
                fill="#60423d"
                d="M1365.54,2527.28c-1.56,62.31-3.32,120.03-14.36,164.23c-29.97,119.88-254.54,85.49-228.97,25.16
				c136.35,62.4,201.46,4.82,206.76-101.3c1.03-20.54,2.33-45.21,3.1-71.62C1343.55,2539.49,1354.78,2534.08,1365.54,2527.28z"
                className="color60423d svgShape"
              ></path>
              <path
                fill="#e2a383"
                d="M1417.12 2211.97c-46.94 88.55-48.93 208.63-51.58 315.31-10.77 6.8-21.99 12.22-33.47 16.47 3.17-109.98-2.86-250.27-75.6-250.27-90.2 0-148.57-24.76-148.57-24.76-2.33-1.91-4.53-3.78-6.58-5.67 4.07-27.26 9.92-46.72 11.85-52.71 47.5 17.7 82.04 23.24 82.04 23.24s15.39 23.79 30.78 26.58c15.41 2.81 117.53-20.98 134.31-40.57 0 0 26.01.42 56.27-9.3L1417.12 2211.97zM960 2294.63c-7.72 76.5-40.79 132.85-89.51 198.78l-1.25-.92c-14.71.28-28.74-.81-42.04-2.97 28.21-41.41 57.35-83.2 72.72-120.61 30.56-74.39 15.94-119.57-31.9-158.1-47.83-38.52-172.72-22.58-172.72-22.58-.99-.39-1.96-.77-2.92-1.16-6-16.65-10.73-27.29-10.73-27.29l.02-.75c34.3.86 91.65.92 121.77-6.6 0 0 38.85-7.39 90.96 8.38 25.49 7.72 46.29 12.89 59.81 15.98C961.83 2221.93 963.46 2260.32 960 2294.63z"
                className="colore2a383 svgShape"
              ></path>
              <path
                fill="#60423d"
                d="M870.49,2493.42c-4.46,6.02-9.04,12.12-13.74,18.32c-69.02,91.05-67.2,145.03-91.96,166.25
				c-24.76,21.24-167.75-47.63-170.08-135.14c-0.15-5.37,0.05-10.58,0.53-15.63c28.26,62.03,120.01,130,165.18,79.53
				c25.07-28.03,38.88-76.28,66.78-117.22c13.3,2.16,27.33,3.25,42.04,2.97L870.49,2493.42z"
                className="color60423d svgShape"
              ></path>
              <path
                fill="#e2958d"
                d="M628.62,194.41c-28.67,15.7-57.92,34.7-86.96,57.72l-1.56-1.98c-12.49-10.09-20.47-25.53-20.47-42.83
				c0-2.55,0.17-5.04,0.51-7.5c0,0,13.43,36.04,53.92,12.07c40.5-23.97,4.13-56.22,4.13-56.22s6.71-0.48,16.1,0.17
				c16.45,6.25,29.14,20.18,33.68,37.4L628.62,194.41z"
                className="colore2958d svgShape"
              ></path>
              <path
                fill="#e2958d"
                d="M745.93 145.35c-36.26 10.89-76.17 26.56-117.31 49.06l-.64-1.17c-3.43-13.04-11.54-24.19-22.43-31.57 22.5 4.55 57.89 6.68 82.59-15.92 28.28-25.88 9.68-67.09-2.53-87.6C716.35 75.96 744.19 125.49 745.93 145.35zM541.66 252.13c-34.3 27.18-68.3 59.96-100.64 99.48-2.64 3.23-5.23 6.46-7.74 9.68-4.68-4.04-49.36-43.23-58.03-76.74 16.76 12.69 57.9 36.96 98.81 8.33 49.6-34.72 40.5-85.97 40.5-85.97l5.1-.09c-.02.17-.02.33-.02.5 0 17.3 7.98 32.74 20.47 42.83L541.66 252.13zM1441.27 167.8c-26.5-15-54.82-28.08-84.92-38.94l.26-.7c1.78-14.23 9.74-26.87 21.42-34.7 5.03-1.8 10.64-3.12 16.86-3.91 0 0-16.53 31.4 9.92 45.45 20.52 10.91 40.57-4.07 48.49-11.33.29 1.34.55 2.7.73 4.09C1456.08 142.93 1450.96 157.42 1441.27 167.8z"
                className="colore2958d svgShape"
              ></path>
              <path
                fill="#e2958d"
                d="M1366.7,103.99c-5.39,6.9-8.97,15.22-10.09,24.17l-0.26,0.7c-34.28-12.4-70.85-21.95-109.66-28.26
				c-1.28-15.88,14.84-58.36,37.42-80.21c0.28-0.09,0.57-0.18,0.84-0.28c0,0-11.57,72.74,38.85,86.79
				C1339.5,111.27,1354.06,109.09,1366.7,103.99z"
                className="colore2958d svgShape"
              ></path>
              <path
                fill="#d8c182"
                d="M1398.81,85.61c-1.28,0.17-2.57,0.39-3.82,0.66c0.9-0.77,1.78-1.54,2.62-2.31
				C1398.39,85.02,1398.81,85.61,1398.81,85.61z"
                className="colord8c182 svgShape"
              ></path>
              <path
                fill="#e2958d"
                d="M1591.45,175.72c-0.7,30.83-35.99,72.56-38.96,76.03c-32.41-32.04-69.55-60.38-111.22-83.95
				c6.8-7.28,11.35-16.6,12.73-26.76c1.83-1.78,2.88-2.71,2.88-2.71S1517.52,253.03,1591.45,175.72z"
                className="colore2958d svgShape"
              ></path>
              <path
                fill="#fce4d9"
                d="M230.65,268.38c-84.88,134.42,12.38,313.05,12.38,313.05S46.72,648.66,36.1,793.68
				c0,0,56.6-65.44,127.34-84.9c0,0-31.84,100.82,17.68,192.79s133.97,138.48,97.28,233.45c-25.9,67.06-142.4,40.88-151.54-16.29
				c0.88-15.61,3.67-26.69,3.67-26.69c-5.1,56.62,76.39,95.23,118.69,50.88c42.28-44.37-3.94-113.18-73.22-199.61
				c-69.28-86.42-37.84-197.96-37.84-197.96C27.66,796.71,27.3,903.51,27.3,904.9c-87.43-229.6,182.79-333.14,182.79-333.14
				s-105.04-201.26,11.21-334.31c102.97-117.83,267.51-77.73,303.81-67.02C494.01,166.04,308.32,145.42,230.65,268.38z"
                className="colorfce4d9 svgShape"
              ></path>
              <path
                fill="#fce4d9"
                d="M506.56,324.99c-211.95,209.22-153.87,397.95-98.81,534.32l-1.17-0.11c0,0-182.83-226.99,23.11-491.37
				c2.49-3.23,5.08-6.46,7.7-9.7c32.21-39.64,66.08-72.54,100.29-99.83c28.96-23.13,58.14-42.22,86.76-58.03
				c41.07-22.65,80.92-38.44,117.15-49.47c95.67-29.13,165.92-24.78,165.92-24.78c1.23-0.31,2.48-0.64,3.7-0.94
				c0.13,0.59,0.26,1.21,0.37,1.82C911.57,126.9,688.14,145.75,506.56,324.99z"
                className="colorfce4d9 svgShape"
              ></path>
              <path
                fill="#fce4d9"
                d="M770.09 238.33c0 0-174.63 462.66 75.4 765.46C845.49 1003.78 545.47 751.23 770.09 238.33zM980.56 231.25c0 0 21.22 429.78 310.85 548.57C1291.41 779.82 977.02 721.16 980.56 231.25z"
                className="colorfce4d9 svgShape"
              ></path>
              <path fill="#fce4d9" d="M1231.11,537.22c0,0,208.64,344.83-13,684.44C1218.11,1221.66,1384.4,901.56,1231.11,537.22z" className="colorfce4d9 svgShape"></path>
              <path
                fill="#38212a"
                d="M454.56,1169.02c-2.49,0-4.83-1.46-5.87-3.83c-39.97-90.61-55.27-194.4-45.46-308.47
					c13.73-160.35,73.45-286.13,74.05-287.38c1.53-3.2,5.37-4.54,8.57-3.01c3.2,1.54,4.54,5.37,3.01,8.57
					c-0.59,1.23-59.31,125.01-72.83,282.92c-8.39,97.52,1.88,187.26,30.53,267.37c-0.71-40.47,0.7-109.92,13.4-191.69
					c13.62-87.74,36.86-169.45,69.06-242.85c41.08-93.65,96.77-173.48,165.5-237.27c2.6-2.41,6.66-2.26,9.07,0.34
					c2.41,2.6,2.26,6.66-0.34,9.07c-151.83,140.9-209.21,334.81-230.61,472.68c-19.92,128.26-11.77,225.6-11.69,226.57
					c0.27,3.13-1.76,6-4.8,6.78C455.63,1168.96,455.09,1169.02,454.56,1169.02z"
                className="color38212a svgShape"
              ></path>
              <path
                fill="#38212a"
                d="M845.49,1010.2c-1.67,0-3.32-0.66-4.55-1.9C665.85,832.08,663.85,611.22,693,456.97
					c24-127.13,70.99-218.78,71.46-219.69c1.63-3.15,5.5-4.37,8.65-2.75c3.15,1.63,4.38,5.5,2.75,8.65
					c-0.46,0.9-46.61,90.99-70.25,216.17c-27.95,147.88-26.78,358.11,133.34,528.43c0.31-25.77,2.86-80.22,16.75-149.76
					c17.97-89.92,59.13-224.42,153.18-354.62c0.15-0.22,0.31-0.45,0.48-0.67c2.14-2.83,6.17-3.39,8.99-1.25
					c2.83,2.14,3.39,6.16,1.25,8.99c-0.07,0.11-0.16,0.22-0.23,0.33c-92.65,128.22-133.25,260.72-151,349.31
					c-19.25,96.11-16.51,162.71-16.48,163.37c0.12,2.65-1.4,5.1-3.83,6.17C847.24,1010.03,846.36,1010.2,845.49,1010.2z"
                className="color38212a svgShape"
              ></path>
              <path
                fill="#38212a"
                d="M1291.41,786.24c-0.56,0-1.14-0.08-1.71-0.23c-75.6-20.82-139.11-61.16-188.76-119.88
					c-40.13-47.46-71.38-107.08-92.91-177.19c-40.49-131.96-32.62-258.06-32.53-259.31c0.24-3.54,3.3-6.21,6.83-5.98
					c3.54,0.24,6.21,3.29,5.98,6.83c-0.08,1.24-7.77,125.08,31.99,254.69c47.47,154.62,139.25,251.67,272.8,288.46
					c3.42,0.94,5.43,4.48,4.48,7.89C1296.81,784.37,1294.23,786.24,1291.41,786.24z"
                className="color38212a svgShape"
              ></path>
              <path
                fill="#38212a"
                d="M1218.11,1228.08c-1.35,0-2.71-0.43-3.85-1.29c-2.46-1.84-3.26-5.17-1.92-7.94
					c65.14-134.21,89.89-281.56,73.56-437.99c-0.03-0.16-0.05-0.31-0.07-0.47c-14.76-140.68-58.85-237.2-59.29-238.15
					c-1.49-3.22-0.09-7.03,3.13-8.52c3.22-1.49,7.03-0.09,8.52,3.13c0.45,0.98,45.31,99.06,60.36,241.73
					c0.03,0.16,0.05,0.32,0.07,0.48c15.29,145.69-4.54,283.68-58.93,410.8c18.63-21.14,44.89-54.24,70.49-97.76
					c36.6-62.19,62.08-128.4,75.74-196.8c25.38-127.13,9.41-258.99-47.46-391.9c-1.4-3.26,0.12-7.03,3.38-8.43
					c3.27-1.4,7.03,0.12,8.43,3.38c57.91,135.34,74.14,269.74,48.25,399.46c-13.94,69.81-39.94,137.37-77.27,200.8
					c-47.91,81.44-96.77,125.97-98.83,127.83C1221.2,1227.52,1219.66,1228.08,1218.11,1228.08z"
                className="color38212a svgShape"
              ></path>
              <path
                fill="#38212a"
                d="M848.51,1322.01c-7.73,0-15.56-0.09-23.53-0.28c-9.35-0.22-18.31-0.57-26.62-1.02
					c-3.54-0.19-6.25-3.22-6.06-6.76c0.19-3.54,3.19-6.26,6.76-6.06c8.19,0.44,17.02,0.78,26.24,1
					c138.57,3.28,238.83-23.22,298.5-46.02c59.86-22.88,90.09-46.05,90.39-46.28c1.11-0.86,2.46-1.33,3.86-1.35
					c0.54-0.01,54.97-1.02,127.27-28.23c66.61-25.07,162.49-78.18,241.03-188.83c34.62-48.72,63.56-105.31,86.04-168.21
					c71.53-200.28,22.7-423.65-124.4-569.07c-32.6-32.23-69.56-60.13-109.87-82.93c-26.52-15.01-54.76-27.96-83.94-38.49
					c-34.41-12.45-70.92-21.85-108.52-27.97c-101.86-16.55-213.61-9.67-332.14,20.45c-0.65,0.17-1.33,0.23-2,0.18
					c-0.69-0.04-70.33-4.15-163.74,23.93c-40.23,12.09-79.29,28.42-116.08,48.55c-30.05,16.46-59,35.68-86.05,57.12
					c-35.97,28.5-69.5,61.65-99.66,98.52c-2.77,3.38-5.27,6.51-7.64,9.56c-105.15,134.02-106.38,258.12-88.9,338.64
					c19,87.52,63.57,144.13,64.02,144.69c2.21,2.77,1.76,6.81-1.01,9.02c-2.77,2.21-6.81,1.76-9.02-1.01
					c-1.9-2.37-46.67-59.12-66.41-149.41c-11.6-53.06-12-106.62-1.18-159.18c13.5-65.58,44.58-129.73,92.38-190.65
					c2.43-3.12,4.99-6.33,7.82-9.79c30.74-37.58,64.93-71.37,101.62-100.45c27.61-21.89,57.17-41.51,87.86-58.32
					c37.58-20.55,77.46-37.24,118.55-49.58c90.64-27.25,157.81-24.99,167.23-24.51c119.88-30.34,233.06-37.22,336.4-20.43
					c38.38,6.24,75.67,15.85,110.82,28.56c29.85,10.77,58.75,24.02,85.9,39.39c41.29,23.35,79.17,51.94,112.57,84.97
					c150.63,148.91,200.66,377.56,127.46,582.52c-22.87,64.01-52.36,121.65-87.66,171.33c-80.57,113.51-179.08,167.94-247.52,193.62
					c-67.04,25.15-117.97,28.38-128.97,28.79c-7.34,5.35-37.54,26.05-91.95,46.85C1071.06,1296.76,977.07,1322.01,848.51,1322.01z"
                className="color38212a svgShape"
              ></path>
              <path
                fill="#38212a"
                d="M798.69 1320.72c-.11 0-.23 0-.35-.01-198.78-10.64-235.1-85.83-244.74-165.5-1.85-15.29-2.73-30.92-3.58-46.04l-.07-1.18c-5.86-103.61-86.31-167.74-87.12-168.37-2.79-2.18-3.28-6.22-1.1-9.01 2.18-2.79 6.21-3.29 9.01-1.11 3.5 2.73 85.84 68.2 92.04 177.77l.07 1.18c.84 14.91 1.71 30.34 3.51 45.22 4.05 33.44 12.91 71.62 47.92 101.18 36.73 31.01 97.17 48.36 184.77 53.05 3.54.19 6.26 3.21 6.07 6.75C804.91 1318.07 802.08 1320.72 798.69 1320.72zM1341.52 1104.05c-15.93 0-26.34-2.21-27.05-2.36-3.46-.75-5.66-4.18-4.9-7.64.76-3.46 4.16-5.66 7.63-4.91l0 0c.27.06 27.43 5.73 60.83-2.14 44.42-10.46 78.42-38.74 101.08-84.06 24.27-48.54 22.23-87.49-5.61-106.85-23.27-16.18-59.06-13.93-76.6 4.83-.41.43-.75.82-1.1 1.21-2.34 2.67-6.4 2.92-9.06.58-2.66-2.34-2.92-6.4-.58-9.06.46-.53.93-1.05 1.41-1.55 21.91-23.44 64.64-26.46 93.26-6.55 15.91 11.07 48.72 45.22 9.77 123.13-30.57 61.14-76.79 83.2-110.18 90.94C1365.78 1103.03 1352.37 1104.05 1341.52 1104.05z"
                className="color38212a svgShape"
              ></path>
              <path
                fill="#38212a"
                d="M966.92,1380.82c-0.53,0-1.05-0.01-1.57-0.03c-2.4-0.1-4.95-0.32-7.6-0.65
					c-5.16-0.62-10.93-1.68-17.62-3.23c-0.17-0.04-0.33-0.08-0.49-0.13c-41.32-9.79-98-35.02-128.19-49.23
					c-7.57-3.55-13.19-6.3-15.33-7.34c-0.12-0.05-0.24-0.11-0.36-0.17c-1.26-0.64-1.94-0.97-1.97-0.98
					c-3.19-1.55-4.51-5.4-2.96-8.58c1.55-3.19,5.4-4.51,8.58-2.96c0,0,0.65,0.32,1.87,0.93c0.07,0.03,0.15,0.07,0.22,0.1
					c1.87,0.92,7.58,3.72,15.4,7.38c29.85,14.05,85.93,39.02,126.14,48.46c0.15,0.04,0.3,0.08,0.45,0.12
					c6.03,1.39,11.21,2.33,15.81,2.89c2.32,0.29,4.52,0.48,6.56,0.57c30.5,1.29,96.05-48.65,147.25-95.79c5-4.57,7.94-7.4,8.48-7.92
					l0.35-0.33c2.52-2.48,6.57-2.45,9.06,0.06c2.49,2.51,2.48,6.56-0.02,9.06c0,0-0.17,0.17-0.53,0.51c-0.5,0.48-3.55,3.4-8.64,8.07
					C1089.22,1311.64,1009.46,1380.82,966.92,1380.82z"
                className="color38212a svgShape"
              ></path>
              <path
                fill="#38212a"
                d="M672.15,1596.28c-0.31,0-0.62-0.02-0.93-0.07c-3.51-0.51-5.94-3.77-5.43-7.28
					c10.29-70.76-5.43-120.48-5.59-120.98c-0.53-1.65-0.38-3.44,0.43-4.98c54.84-103.81,141.36-143.03,151.04-147.16l0.75-0.31
					c3.27-1.39,7.03,0.13,8.42,3.39c1.39,3.26-0.12,7.03-3.38,8.42l-0.85,0.35c-9.09,3.88-90.59,40.84-143.41,139.01
					c3.27,11.59,14.75,58.97,5.28,124.11C678.03,1593.98,675.29,1596.28,672.15,1596.28z"
                className="color38212a svgShape"
              ></path>
              <path
                fill="#38212a"
                d="M597.8,1713c-8.64,0-17.34-1.28-25.98-4.16c-36.12-12.03-57.99-39.63-66.86-84.36
					c-7.04-35.52-5.91-81.68,3.59-145.08c-7.64-7.22-28.98-29.26-31.4-52.23c-2.07-19.65,2.78-77.44,25.96-91.17
					c5.28-3.13,13.61-5.32,24.35,0.64c4.56-2.34,12.64-5.33,21.64-3.41c7.53,1.61,14.01,6.18,19.34,13.62
					c6.28-2.11,16.94-4.44,26.35-0.37c4.04,1.75,9.15,5.28,12.73,12.43c11.03-1.91,26.84-0.17,33.09,16.25
					c4.86,12.75,3.47,24.8,2.45,33.6c-0.54,4.67-1.16,9.96-0.12,11.52c1.75,2.62,2.74,3.1,5.38,4.4c3.04,1.5,7.2,3.54,13.08,9.21
					c14.09,13.54,11.37,32.29,11.24,33.08c-0.3,1.9-1.43,3.57-3.09,4.55c-69.21,40.77-128,23.58-149.07,14.9
					c-18.52,128.15-1.79,191.2,55.38,210.25c66.68,22.24,143.67-70.1,144.44-71.04c2.25-2.74,6.3-3.13,9.03-0.88
					c2.74,2.25,3.13,6.3,0.88,9.03C727.26,1637.41,664.27,1713,597.8,1713z M519.12,1471.67c6.92,3.61,66.89,32.47,141.01-9.53
					c0-4.31-0.98-12.62-7.62-19c-4.44-4.28-7.19-5.63-9.84-6.94c-3.31-1.63-6.73-3.31-10.39-8.8c-3.66-5.48-2.87-12.27-1.96-20.13
					c0.96-8.31,2.06-17.73-1.69-27.56c-4.88-12.83-21.07-7.78-22.9-7.16c-1.65,0.56-3.47,0.42-5.01-0.38
					c-1.55-0.8-2.71-2.19-3.21-3.85c-1.55-5.18-4.09-8.47-7.76-10.07c-7.13-3.11-17.57,0.57-20.99,2.25
					c-3.05,1.5-6.75,0.37-8.43-2.58c-3.91-6.9-8.55-10.98-13.79-12.13c-7.89-1.73-15.3,3.48-15.38,3.54
					c-2.21,1.58-5.2,1.63-7.43,0.08c-7.46-5.17-11.59-3.83-14.06-2.37c-15.24,9.03-22.01,57.16-19.73,78.78
					C492.1,1446.51,515.39,1468.31,519.12,1471.67z"
                className="color38212a svgShape"
              ></path>
              <path
                fill="#38212a"
                d="M518.87 1391.59c-.11 0-.21 0-.32-.01-3.54-.17-6.27-3.19-6.1-6.73.93-18.89 8.51-41.78 8.83-42.75 1.12-3.36 4.76-5.18 8.12-4.06 3.36 1.12 5.18 4.76 4.06 8.12-.07.22-7.35 22.2-8.19 39.31C525.11 1388.92 522.27 1391.59 518.87 1391.59zM559.87 1400.25c-3.23 0-6.01-2.43-6.37-5.71-2.44-21.99 6.17-41.57 6.54-42.39 1.45-3.24 5.24-4.69 8.48-3.24 3.23 1.44 4.69 5.23 3.25 8.47l0 0c-.08.17-7.55 17.32-5.5 35.75.39 3.52-2.15 6.7-5.67 7.09C560.35 1400.24 560.11 1400.25 559.87 1400.25zM599.07 1410.28c-3.4 0-6.23-2.67-6.41-6.1-.96-19.08 4.57-38.65 4.81-39.47.97-3.41 4.53-5.38 7.94-4.4 3.41.98 5.38 4.53 4.4 7.94l0 0c-.05.18-5.18 18.39-4.33 35.29.18 3.54-2.55 6.56-6.09 6.73C599.29 1410.28 599.18 1410.28 599.07 1410.28zM955.1 1445.88c-20.13 0-37.03-15.72-38.46-35.79-.07-.92-.11-1.84-.11-2.79 0-21.27 17.3-38.57 38.57-38.57 1.34 0 2.63.06 3.93.2 7.17.73 13.96 3.45 19.64 7.86 9.53 7.36 15 18.48 15 30.52 0 .94-.04 1.87-.11 2.79C992.13 1430.17 975.23 1445.88 955.1 1445.88zM955.1 1381.58c-14.19 0-25.73 11.54-25.73 25.73 0 .63.03 1.25.08 1.87.96 13.39 12.22 23.87 25.66 23.87 13.43 0 24.7-10.48 25.66-23.86.04-.62.08-1.24.08-1.87 0-8.03-3.65-15.45-10.01-20.36-.01-.01-.01-.01-.02-.01-3.78-2.94-8.3-4.75-13.07-5.23C956.86 1381.62 956 1381.58 955.1 1381.58z"
                className="color38212a svgShape"
              ></path>
              <path
                fill="#38212a"
                d="M846.06 1490.97c-.55 0-1.1-.07-1.66-.22-15.24-4.06-35.65-30.76-43.69-57.15-6-19.7-4.15-35.87 5.37-46.75 24.63-28.16 124.06-20.39 135.32-19.41 3.53.31 6.15 3.42 5.84 6.95-.31 3.53-3.44 6.15-6.95 5.84-28.79-2.5-107.28-4.66-124.54 15.07-8.14 9.31-5.99 23.93-2.75 34.55 7.55 24.77 25.98 46.15 34.72 48.48 3.43.91 5.46 4.43 4.55 7.86C851.5 1489.07 848.9 1490.97 846.06 1490.97zM1048.9 1488.97c-2.7 0-5.22-1.72-6.1-4.43-1.1-3.37.75-6.99 4.12-8.09 14.53-4.73 31.79-29.53 37.69-54.14 3.39-14.12 2.25-25.29-3.12-30.66-20.16-20.16-82.32-9.92-104.57-4.28-3.44.87-6.93-1.21-7.8-4.64-.87-3.44 1.2-6.93 4.64-7.8 3.55-.9 87.39-21.78 116.81 7.64 8.73 8.73 11.05 23.9 6.53 42.74-6.18 25.76-25.15 56.5-46.2 63.36C1050.22 1488.87 1049.55 1488.97 1048.9 1488.97z"
                className="color38212a svgShape"
              ></path>
              <path
                fill="#38212a"
                d="M904.39 1571.18c-.13 0-.26 0-.39-.01-2.27-.14-4.3-1.47-5.33-3.49-7.57-14.85-18.46-32.55-22.83-35.23-4.35-2.56-30.47-3.64-52.14-3.03-2.25.07-4.32-1.03-5.54-2.89-1.22-1.86-1.39-4.22-.45-6.24 5.69-12.22 13.85-25.3 24.26-38.87 32.2-41.98 75.25-75.45 77.06-76.85 2.81-2.17 6.84-1.65 9 1.15 2.17 2.8 1.65 6.84-1.15 9.01-.43.33-43.58 33.88-74.73 74.5-7.21 9.4-13.25 18.5-18.05 27.17 16.05-.09 41.04.54 48.47 5.11 6.86 4.22 16.17 19.44 22.3 30.49 12.62-20.65 41.6-72.14 43.82-112.88.19-3.41 3-6.07 6.41-6.07.01 0 .02 0 .03 0 3.42.02 6.23 2.71 6.38 6.13.03.73 3.37 68.18 24.5 105.32 7.01-9.85 18.27-23.45 27.96-25.17 8.24-1.45 27.91-3.2 38.81-4.11-1.86-6.45-5.45-16.96-11.85-29.61-9.29-18.38-26.85-45.61-57.75-70.99-2.74-2.25-3.14-6.29-.88-9.03 2.25-2.74 6.3-3.13 9.03-.88 26.2 21.52 46.74 46.79 61.06 75.12 11.65 23.01 14.65 39.38 14.77 40.07.32 1.78-.13 3.62-1.24 5.05-1.11 1.43-2.77 2.33-4.58 2.47-.34.03-34.3 2.66-45.13 4.56-5.04.89-16.91 14.99-24.84 27.59-1.13 1.79-3.07 2.91-5.18 3-2.1.09-4.13-.88-5.4-2.58-15.24-20.45-23.35-53.2-27.61-79.38-14.33 44.13-41.95 85.5-43.47 87.75C908.51 1570.12 906.51 1571.18 904.39 1571.18zM1281.21 1511.49c-24.02 0-56.53-1.28-76.66-7.31-3.4-1.02-5.33-4.59-4.31-7.99 1.02-3.39 4.59-5.33 7.99-4.31 14.81 4.43 40.02 6.77 72.94 6.77.26 0 .52 0 .78 0 80.33-.11 183.93-13.52 235.86-30.51 37.07-12.13 49.51-26.34 53.42-36.13 2.97-7.44 1.43-13.27.64-15.4-27.61-24.02-42.57-56.5-43.28-94.04-.42-22.31 4.24-40.14 6.46-47.29-17.76-21.5-70.22-11.73-136.04.51-38.58 7.18-82.3 15.32-127.77 18.77-108.03 8.22-145.73-5.73-156.93-12.1-1.77-1.01-2.69-1.73-3-2-2.71-2.29-3.05-6.34-.76-9.05 2.26-2.67 6.23-3.04 8.93-.85.08.06.45.32 1.18.74 5.65 3.22 39.41 18.84 149.6 10.46 44.78-3.41 88.14-11.48 126.4-18.6 75.71-14.09 130.41-24.27 150.92 7.52 1.1 1.7 1.33 3.82.62 5.72-.07.19-7.34 20.17-6.76 46.36.77 34.55 14.19 63.16 39.88 85.03.61.52 1.11 1.14 1.49 1.84.26.49 6.35 12.09.34 27.14-7.17 17.93-27.81 32.59-61.35 43.56-53.02 17.35-158.37 31.04-239.84 31.15C1281.72 1511.49 1281.47 1511.49 1281.21 1511.49z"
                className="color38212a svgShape"
              ></path>
              <path
                fill="#38212a"
                d="M715.22,1894.87c-0.84,0-1.68-0.16-2.48-0.51c-28.71-12.31-17.1-56.89-7.63-82.36
					c12.12-32.67,13.61-95.19,15.05-155.64c0.21-9.03,0.43-17.99,0.68-26.78c0.42-14.67,1.06-33.74,2.31-51.09
					c5.37-75.02,23.74-105.01,24.52-106.25c1.89-3,5.85-3.9,8.85-2.02c3,1.89,3.91,5.85,2.02,8.85
					c-0.16,0.26-17.48,29.06-22.58,100.34c-1.23,17.1-1.86,35.99-2.28,50.53c-0.25,8.77-0.46,17.71-0.68,26.72
					c-1.46,61.51-2.97,125.12-15.85,159.81c-4.59,12.35-17.47,51.19-3.21,63.67c13.69-14.17,66.57-54.97,228.98-66.72
					c203.89-14.74,329.93,5.24,357.2,10.24c5.32-16.96,17.56-72.21-13-156.95c-30.67-85.05-12.66-158.23-11.4-163.12
					c0.67-2.84,3.21-4.96,6.25-4.96c3.54,0,6.42,2.86,6.42,6.4v0.04c0,0.55-0.07,1.1-0.21,1.64c-0.19,0.72-18.71,73.19,11.02,155.64
					c36.66,101.65,13.83,164.25,11.11,171.05c-1.16,2.91-4.27,4.56-7.32,3.89c-1.28-0.28-130.7-27.57-359.14-11.06
					c-185.36,13.41-222.88,65.27-223.24,65.79C719.37,1893.84,717.31,1894.87,715.22,1894.87z"
                className="color38212a svgShape"
              ></path>
              <path
                fill="#38212a"
                d="M716.71,1932.57c-0.62,0-1.25-0.09-1.86-0.28c-1.69-0.51-3.09-1.69-3.88-3.27
					c-11.05-22.09-1.93-42.4-1.54-43.25c1.48-3.22,5.29-4.63,8.52-3.14c3.21,1.48,4.62,5.28,3.16,8.49
					c-0.25,0.57-5.32,12.19-1.08,26.08c4.94-2.44,12.71-6.03,23.4-10.3c23.18-9.28,62.39-22.59,117.55-33.32
					c28.04-5.45,57.79-9.75,88.43-12.78c30.96-3.05,63.32-4.85,96.18-5.35c25.02-0.4,50.99-0.03,77.17,1.09
					c36.18,1.53,73.61,4.51,111.26,8.86c24.41,2.79,49.58,6.25,74.9,10.28c2.3-6.71,4.72-21.87-9.69-40.77
					c-2.15-2.82-1.61-6.85,1.21-9c2.82-2.15,6.85-1.6,9,1.21c24.8,32.54,9.41,58,8.74,59.07c-1.37,2.19-3.93,3.34-6.47,2.94
					c-26.75-4.34-53.38-8.03-79.16-10.98c-37.35-4.31-74.47-7.27-110.34-8.79c-25.94-1.11-51.66-1.48-76.42-1.08
					c-32.51,0.5-64.52,2.28-95.12,5.29c-30.24,2.99-59.59,7.23-87.24,12.6c-54.18,10.54-92.57,23.56-115.23,32.64
					c-18.74,7.49-28.19,12.86-28.29,12.91C718.92,1932.29,717.82,1932.57,716.71,1932.57z"
                className="color38212a svgShape"
              ></path>
              <path
                fill="#38212a"
                d="M564.21,2227.8c-1.74,0-3.42-0.71-4.64-1.98c-1.31-1.36-1.95-3.23-1.75-5.12
					c9.54-90.23,51.04-166.78,84.17-215.1c35.86-52.3,68.99-82.9,70.39-84.18c2.61-2.4,6.67-2.22,9.07,0.39
					c2.4,2.61,2.22,6.67-0.39,9.07c-0.33,0.3-33.63,31.09-68.67,82.26c-31.21,45.58-70.05,116.87-80.84,200.8
					c17.54-3,60.06-14.25,76.27-53.77c1.35-3.28,5.09-4.85,8.38-3.5c3.28,1.35,4.85,5.09,3.5,8.38
					c-23.63,57.62-92.17,62.56-95.08,62.74C564.47,2227.8,564.34,2227.8,564.21,2227.8z"
                className="color38212a svgShape"
              ></path>
              <path
                fill="#38212a"
                d="M711.51,2170.42c-11.17,0-21.48-0.17-29.98-0.39c-16.59-0.4-28-1.01-28.12-1.02
					c-3.04-0.16-5.54-2.44-6-5.44c-15.61-102.16,89.04-247.64,93.5-253.78c2.09-2.87,6.1-3.51,8.97-1.42
					c2.87,2.08,3.51,6.1,1.42,8.97c-1.04,1.44-102.33,142.24-91.87,239.11c4.86,0.21,12.74,0.52,22.42,0.75
					c30.12,0.75,83.39,1.01,114.45-5.16c-1.59-13.01-4.64-45.9-1.33-88.38c3.89-50.09,17.8-123.25,61.98-187.31
					c2.01-2.92,6.01-3.65,8.93-1.64c2.92,2.01,3.65,6.01,1.64,8.93c-81.45,118.11-57.96,270.83-57.71,272.36
					c0.53,3.29-1.55,6.44-4.78,7.25C781.83,2169.03,743.25,2170.42,711.51,2170.42z"
                className="color38212a svgShape"
              ></path>
              <path
                fill="#38212a"
                d="M971.35,2191.41c-0.38,0-0.76-0.03-1.15-0.1c-0.26-0.05-6.43-1.17-17.41-3.67
					c-13.12-2.99-34.23-8.21-60.25-16.09c-49.8-15.07-87.53-8.29-87.9-8.22c-3.48,0.65-6.84-1.64-7.49-5.12s1.62-6.83,5.1-7.5
					c1.65-0.31,41.01-7.5,94.01,8.54c25.67,7.77,46.46,12.91,59.38,15.86c2.14,0.49,4.09,0.92,5.85,1.3
					c-5.46-16.19-15.57-49.28-23.14-92.15c-9.85-55.79-16.89-139.04,5.5-218.82l0.31-1.13c0.92-3.42,4.45-5.45,7.87-4.52
					c3.42,0.92,5.45,4.45,4.52,7.87l-0.34,1.23c-41.63,148.31,20.48,312.15,21.11,313.78c0.84,2.17,0.44,4.62-1.04,6.41
					C975.06,2190.57,973.24,2191.41,971.35,2191.41z"
                className="color38212a svgShape"
              ></path>
              <path
                fill="#38212a"
                d="M1195.21,2244.58c-0.34,0-0.68-0.03-1.02-0.08c-1.44-0.23-35.71-5.84-83.27-23.56
					c-13.09-4.88-26.12-10.3-38.73-16.12c-51.77-23.89-98.96-13.67-99.43-13.56c-3.44,0.78-6.89-1.38-7.68-4.84
					c-0.78-3.46,1.37-6.89,4.83-7.68c2.08-0.48,51.75-11.38,107.66,14.42c12.32,5.68,25.05,10.98,37.83,15.75
					c28.35,10.56,52.16,16.76,66.44,19.99c-26.37-43.39-110.64-191.87-142.48-365.88l-0.08-0.46c-0.04-0.23-0.09-0.47-0.13-0.71
					c-0.56-3.5,1.83-6.79,5.33-7.35c3.51-0.56,6.79,1.83,7.35,5.33l0.06,0.33c0.04,0.23,0.09,0.46,0.12,0.7
					c37.26,203.65,147.43,372.09,148.54,373.77c1.4,2.12,1.42,4.88,0.04,7.02C1199.41,2243.49,1197.36,2244.58,1195.21,2244.58z"
                className="color38212a svgShape"
              ></path>
              <path
                fill="#38212a"
                d="M1229.28,2271.37c-1.79,0-3.28-0.1-4.45-0.32c-17.61-3.19-33.29-26.73-35.02-29.41
					c-1.93-2.98-1.07-6.95,1.9-8.88c2.98-1.92,6.95-1.07,8.88,1.9c5.39,8.3,17.36,22.08,26.53,23.75
					c12.69,2.35,99.58-17.75,123.87-34.62c-11.62-12.46-41.83-47.77-67.86-103.23c-2.25-4.79-4.61-9.88-7.09-15.21
					c-32.1-69.04-85.84-184.6-157.37-236.97c-2.86-2.1-3.48-6.11-1.39-8.97c2.1-2.86,6.11-3.48,8.97-1.39
					c74.2,54.33,128.81,171.76,161.43,241.92c2.47,5.32,4.83,10.39,7.07,15.17c31.24,66.55,69.61,104.06,69.99,104.43
					c2.44,2.36,2.62,6.22,0.42,8.79C1348.02,2248.36,1256.08,2271.37,1229.28,2271.37z"
                className="color38212a svgShape"
              ></path>
              <path
                fill="#38212a"
                d="M1360.89,2230.59c-0.38,0-0.61,0-0.7,0c-3.54-0.06-6.37-2.98-6.32-6.52c0.06-3.54,3.04-6.36,6.52-6.32
					c0.5,0.02,25.54,0.22,54.21-8.99c28.77-9.23,50.85-24.28,65.71-44.79c-12.22-9.99-45.49-40.02-86.15-99.89
					c-48.71-71.72-101.54-145.02-164.56-184.23c-3.01-1.87-3.93-5.83-2.06-8.84c1.87-3.01,5.84-3.93,8.84-2.06
					c65.16,40.54,118.92,115.06,168.4,187.92c48.98,72.11,87.59,100.26,87.97,100.53c2.78,2,3.51,5.82,1.66,8.7
					c-16.46,25.55-42,44.02-75.88,54.89C1390,2230.14,1365.39,2230.59,1360.89,2230.59z"
                className="color38212a svgShape"
              ></path>
              <path
                fill="#38212a"
                d="M1489.02 2169.03c-2.54 0-4.94-1.52-5.95-4.01-1.33-3.28.25-7.03 3.54-8.36.73-.3 53.58-22.43 61.45-69.41-11.86-16.5-96.86-129.96-238.13-198.69-3.19-1.55-4.52-5.39-2.96-8.58s5.39-4.52 8.58-2.96c155.04 75.42 243.67 203.73 244.55 205.02.89 1.3 1.26 2.89 1.06 4.45-7.41 56.23-67.18 81.04-69.73 82.07C1490.64 2168.88 1489.82 2169.03 1489.02 2169.03zM627.08 2310.39c-20.14 0-78.15-15.71-81.79-37.59-3.04-18.21 11.42-50.48 13.08-54.1 1.48-3.22 5.28-4.64 8.51-3.16 3.22 1.48 4.64 5.29 3.16 8.51-4.05 8.85-14.12 34.47-12.09 46.63.45 2.7 6.95 9.87 28.36 17.77 15.28 5.64 33.18 9.53 41.75 9.08.12-.01.23-.02.34-.02 3.47-.34 6.58 2.15 7 5.63.42 3.52-2.09 6.72-5.61 7.14-.22.03-.45.04-.68.06-.09.01-.15.01-.23.02C628.32 2310.37 627.72 2310.39 627.08 2310.39z"
                className="color38212a svgShape"
              ></path>
              <path
                fill="#38212a"
                d="M668.29 2354.7c-17.61 0-35.03-2.26-44.3-9.78-4.54-3.68-7.11-8.54-7.43-14.03-.42-7.09 1.51-16.6 5.89-29.08 8.94-25.61 25.01-54.38 25.69-55.6 1.74-3.09 5.65-4.19 8.74-2.46 3.09 1.73 4.19 5.65 2.46 8.74-.16.29-16.21 29.02-24.78 53.56-4.68 13.32-5.41 20.45-5.19 24.08.08 1.28.45 2.99 2.7 4.81 10.96 8.9 47.57 8.1 79 3.37 1.38-.2 2.13-.33 2.18-.34 3.5-.61 6.82 1.71 7.44 5.2s-1.7 6.82-5.19 7.44c0 0-.9.16-2.55.4C702.78 2352.55 685.44 2354.7 668.29 2354.7zM995.23 2306.96c-11.74 0-24.67-.62-34.25-1.21-3.54-.22-6.23-3.26-6.02-6.8.22-3.54 3.26-6.26 6.8-6.02 21.64 1.32 47.44 1.67 54.37.09 2.43-7.63 2.24-39.14.59-65.66-.22-3.54 2.47-6.59 6.01-6.81 3.6-.23 6.59 2.47 6.81 6.01 4.42 71.04-2.82 75.39-5.91 77.25C1019.66 2306.21 1008.17 2306.96 995.23 2306.96zM1015.73 2294.03L1015.73 2294.03 1015.73 2294.03z"
                className="color38212a svgShape"
              ></path>
              <path
                fill="#38212a"
                d="M1065.1 2336.08c-17.64 0-36.52-1.78-41.89-8.84-7.53-9.89-9.13-26.52-9.28-28.38-.3-3.53 2.32-6.64 5.86-6.94 3.54-.31 6.63 2.32 6.94 5.85l0 0c.35 4.01 2.21 15.66 6.62 21.57 5.06 4.19 38.58 4.7 63.16 2.31.11-.01.22-.02.33-.02 3.47-.34 6.62 2.16 7.04 5.62.42 3.51-2.01 6.69-5.52 7.13-.27.03-.53.06-.78.07C1092.6 2334.94 1079.24 2336.08 1065.1 2336.08zM1097.1 2321.63C1097.09 2321.63 1097.09 2321.63 1097.1 2321.63 1097.09 2321.63 1097.09 2321.63 1097.1 2321.63zM1097.11 2321.63C1097.1 2321.63 1097.1 2321.63 1097.11 2321.63 1097.1 2321.63 1097.1 2321.63 1097.11 2321.63zM1097.12 2321.63C1097.11 2321.63 1097.11 2321.63 1097.12 2321.63 1097.11 2321.63 1097.11 2321.63 1097.12 2321.63zM1033.42 2319.46C1033.42 2319.46 1033.42 2319.47 1033.42 2319.46 1033.42 2319.47 1033.42 2319.46 1033.42 2319.46zM750.59 2692.93c-16.81 0-37.59-8.16-47.95-12.76-27.65-12.27-55.02-31.16-75.1-51.83-24.95-25.69-38.53-53.61-39.25-80.73-1.55-58.38 35.06-98.48 67.36-133.86 3.66-4.01 7.3-8 10.87-11.98 14.68-16.41 29.36-34.23 37.36-53.42.8-1.93 1.46-3.76 2.04-5.59 19.93-62.02-29.61-174.64-30.11-175.77-1.44-3.24.02-7.03 3.26-8.47 3.24-1.44 7.03.02 8.47 3.25 2.14 4.79 52.03 118.23 30.62 184.87-.67 2.14-1.47 4.33-2.41 6.63-8.74 20.97-24.22 39.81-39.65 57.06-3.59 4.02-7.26 8.03-10.95 12.08-32.17 35.23-65.43 71.66-64.01 124.87 1.36 51.32 56.28 98.78 106.73 121.17 27.5 12.2 47.36 13.9 52.76 9.27 9.03-7.74 14.54-21.65 22.17-40.9 11.75-29.64 27.83-70.24 68.86-124.35 4.68-6.18 9.25-12.27 13.69-18.27 50.27-68.04 80.83-121.86 88.28-195.61 3.49-34.59 1.62-72.58-5.72-116.13l-.08-.47c-.04-.24-.08-.48-.12-.72-.53-3.51 1.88-6.78 5.39-7.31 3.52-.52 6.78 1.88 7.31 5.39l.06.36c.04.24.08.48.12.72 7.52 44.6 9.43 83.7 5.82 119.45-7.71 76.34-40.43 133.87-90.73 201.95-4.47 6.04-9.07 12.17-13.78 18.38-39.96 52.72-55.68 92.37-67.15 121.33-8.31 20.97-14.31 36.11-25.75 45.92C764.34 2691.41 757.84 2692.93 750.59 2692.93z"
                className="color38212a svgShape"
              ></path>
              <path
                fill="#38212a"
                d="M864.7 2503.55c-116.05 0-190.14-83.7-198.3-93.37-.78-.91-1.19-1.42-1.19-1.42-2.19-2.78-1.72-6.82 1.06-9.02 2.77-2.19 6.8-1.73 9 1.03l0 0c.04.05.34.42.89 1.06 7.81 9.25 78.31 88.87 188.54 88.87 1.47 0 2.94-.01 4.43-.04 3.52-.15 6.47 2.75 6.54 6.29.07 3.54-2.75 6.47-6.29 6.54C867.81 2503.53 866.25 2503.55 864.7 2503.55zM1219.8 2782.75c-41.74 0-81.38-11.84-98.02-31.66-8.34-9.94-10.23-21.12-5.48-32.34 16.93-39.94 22.53-103.41 15.35-174.15-4.49-44.1-13.6-87.61-26.33-125.82-9.25-27.75-14.17-58.24-14.62-90.64-.81-58.8 13.48-106.27 16.36-115.19.43-1.37.7-2.12.7-2.12 1.18-3.34 4.84-5.09 8.19-3.92 3.34 1.18 5.1 4.83 3.92 8.18l0 0c-.02.06-.23.66-.57 1.76-2.78 8.63-16.54 54.32-15.76 111.12.43 31.07 5.13 60.26 13.96 86.76 13.03 39.09 22.34 83.55 26.93 128.58 7.39 72.82 1.44 138.6-16.3 180.46-2.83 6.67-1.68 12.91 3.49 19.07 17.48 20.83 77.46 34.79 131.57 22.32 25.41-5.86 69.83-22.83 81.78-70.62 11.22-44.93 12.72-104.86 14.17-162.83l.16-6.68c2.57-104.73 5.49-223.43 52.16-311.47 1.66-3.13 5.55-4.32 8.68-2.67 3.13 1.66 4.33 5.55 2.67 8.68-45.25 85.37-48.13 202.47-50.67 305.77l-.16 6.69c-1.47 58.66-2.98 119.32-14.55 165.63-10.08 40.34-42.53 68.75-91.35 80.01C1251.07 2781.12 1235.28 2782.75 1219.8 2782.75z"
                className="color38212a svgShape"
              ></path>
              <path
                fill="#38212a"
                d="M1249.05 2568.4c-10.7 0-21.69-.56-32.94-1.69-45.08-4.52-77.94-16.34-79.32-16.84-3.33-1.21-5.05-4.89-3.84-8.22 1.21-3.33 4.9-5.05 8.22-3.84 1.29.47 129.89 46.07 220.75-11.25 1.04-.71 2.29-1.13 3.63-1.13 3.54 0 6.42 2.87 6.42 6.42 0 1.76-.71 3.36-1.86 4.52-.34.35-.72.66-1.14.92C1336.51 2557.83 1295.51 2568.4 1249.05 2568.4zM1675.85 1405.17c-2.04 0-3.8-.12-5.16-.34-9.02-1.45-13.3-5.94-15.31-9.44-3.17-5.53-2.72-11.86-1.54-16.69-7.43-2.58-11.09-7.05-12.9-10.77-3.87-7.98-1.78-17.34.72-23.9-5.97-2.49-10.82-7.54-12.84-13.98-2.42-7.73-.54-18.66 11.96-26.16 18.42-11.04 43-28.03 43.25-28.2 1.5-1.04 3.37-1.39 5.14-.97 18.9 4.51 20.23 26.36 17.71 40.87 13.49 14.74 11.98 30.68 8.21 39.77 9.03 15.35 6.32 25.97 2.25 32.3C1708.73 1401.07 1687.6 1405.17 1675.85 1405.17zM1668.02 1376.99L1668.02 1376.99c-1.28 2.54-3.34 8.81-1.5 12.02.9 1.57 2.99 2.63 6.22 3.15 5.98.97 27.46-1.54 33.82-11.44 3.31-5.15 1.92-12.36-4.14-21.43-1.39-2.09-1.44-4.8-.12-6.94.89-1.5 8.49-15.49-6.8-30.06-1.65-1.57-2.34-3.9-1.82-6.12.05-.23 4.88-22.52-5.08-28.05-7.02 4.8-26.09 17.71-41.2 26.77-5.35 3.21-7.59 7.23-6.32 11.32 1.25 4 5.38 6.91 9.52 6.65 2.38-.17 4.67 1.02 5.91 3.07 1.24 2.05 1.24 4.61 0 6.66-1.95 3.25-6.88 13.87-4.01 19.75 1.38 2.84 4.95 4.64 10.6 5.35 2.08.26 3.9 1.52 4.88 3.38C1668.96 1372.92 1668.97 1375.13 1668.02 1376.99z"
                className="color38212a svgShape"
              ></path>
              <path
                fill="#38212a"
                d="M1583.95 1419.37c-4.42 0-7.05-.25-7.45-.29-3.53-.37-6.09-3.52-5.72-7.05.37-3.52 3.55-6.09 7.04-5.72.43.04 36.93 3.35 79.59-19.26 3.13-1.66 7.02-.47 8.68 2.67 1.66 3.13.47 7.02-2.67 8.68C1628.41 1416.95 1597.62 1419.37 1583.95 1419.37zM1687.69 1287.38c-2.73 0-5.26-1.76-6.12-4.5-.54-1.7-13.65-41.55-51.23-41.55-.44 0-.88.01-1.32.02-41.23 1.01-82.13 37.25-82.54 37.61-2.64 2.36-6.7 2.15-9.07-.5-2.37-2.64-2.14-6.7.5-9.07 1.81-1.62 44.88-39.76 90.79-40.89 48.34-1.15 64.96 50.02 65.12 50.53 1.06 3.38-.82 6.98-4.21 8.04C1688.97 1287.29 1688.32 1287.38 1687.69 1287.38z"
                className="color38212a svgShape"
              ></path>
              <path
                fill="#38212a"
                d="M1664.59 1298.11c-2.26 0-4.44-1.19-5.62-3.3-5.62-10.12-12.77-16.01-21.24-17.5-15.02-2.64-32.14 8.84-37.48 13.48-2.68 2.33-6.73 2.04-9.06-.63-2.33-2.67-2.05-6.73.63-9.06.97-.84 24.08-20.66 48.12-16.44 12.47 2.19 22.65 10.23 30.24 23.91 1.72 3.1.61 7.01-2.49 8.73C1666.71 1297.85 1665.64 1298.11 1664.59 1298.11zM1651.02 1345.69c-3.03 0-5.73-2.15-6.3-5.24-.65-3.48 1.64-6.83 5.12-7.49l0 0c.21-.04 21.13-4.16 46.59-20.7 2.97-1.93 6.95-1.09 8.88 1.89 1.93 2.97 1.09 6.95-1.89 8.88-27.75 18.02-50.27 22.37-51.22 22.55C1651.81 1345.65 1651.41 1345.69 1651.02 1345.69zM1662.3 1380.48c-3.08 0-5.8-2.22-6.32-5.36-.58-3.5 1.78-6.8 5.27-7.39.41-.07 26.19-4.55 42.61-17.11 2.82-2.16 6.85-1.61 9 1.2 2.15 2.82 1.62 6.85-1.2 9-19.04 14.56-47.11 19.38-48.29 19.57C1663.01 1380.45 1662.65 1380.48 1662.3 1380.48zM540.1 261.16c-1.42 0-2.84-.47-4.03-1.43-14.52-11.73-22.86-29.16-22.86-47.82 0-2.88.2-5.71.58-8.4 1.88-13.91 8.62-26.9 18.96-36.55 11.41-10.67 26.32-16.55 41.96-16.55 27.92 0 52.37 18.82 59.47 45.78.9 3.43-1.14 6.94-4.57 7.84-3.43.9-6.94-1.15-7.84-4.57-5.62-21.32-24.97-36.21-47.06-36.21-12.38 0-24.17 4.65-33.2 13.09-8.18 7.64-13.51 17.91-15 28.93-.3 2.14-.46 4.36-.46 6.64 0 14.76 6.59 28.55 18.08 37.83 2.76 2.23 3.19 6.27.96 9.03C543.83 260.34 541.97 261.16 540.1 261.16z"
                className="color38212a svgShape"
              ></path>
              <path
                fill="#38212a"
                d="M574.71 163.25c-1.01 0-2.04-.24-3-.75-3.13-1.66-4.33-5.54-2.67-8.68 5.84-11.04 58.31-107.75 98.9-103.86 41.58 4.03 82.05 73.99 84.38 99.29.04.38.07.74.09 1.1.23 3.54-2.45 6.59-5.99 6.82-3.51.22-6.59-2.45-6.82-5.99-.01-.15-.02-.29-.04-.45-.01-.08-.02-.17-.03-.25-1.9-21.55-39.82-84.55-72.84-87.75-24.18-2.36-65.78 58.31-86.31 97.09C579.24 162.01 577.01 163.25 574.71 163.25zM433.69 372.65c-1.47 0-2.96-.51-4.17-1.54l-.43-.37c-13.68-11.79-80.73-72.59-56.49-110.82 21.79-34.4 117.48-56 146.28-61.81l1.95-.37c3.46-.68 6.85 1.59 7.53 5.07s-1.59 6.85-5.07 7.53l-1.93.37c-54.11 10.9-122.74 32.13-137.91 56.08-15.45 24.37 28.59 72.3 54.03 94.23l.38.33c2.7 2.3 3.01 6.35.71 9.05C437.3 371.89 435.5 372.65 433.69 372.65zM1441.05 179.04c-1.64 0-3.28-.63-4.54-1.88-2.49-2.49-2.51-6.5-.06-9.02.04-.05.08-.09.13-.14 8.76-9.39 12.81-22.08 11.1-34.81-.28-2.02-.67-3.94-1.17-5.68-3.08-11.17-10.68-20.71-20.87-26.21-7.96-4.32-16.94-5.96-25.98-4.75-19.2 2.57-34.28 17.78-36.68 36.98-.44 3.52-3.67 6-7.16 5.57-3.52-.44-6.01-3.65-5.57-7.17 3.12-24.98 22.74-44.77 47.72-48.12 11.75-1.58 23.44.57 33.79 6.19 13.24 7.15 23.13 19.56 27.12 34.04.64 2.26 1.16 4.78 1.53 7.41 2.22 16.53-3 32.98-14.32 45.18-.16.18-.32.35-.48.51C1444.34 178.42 1442.7 179.04 1441.05 179.04zM1436.52 168.08l4.54 4.54-4.52-4.56C1436.53 168.07 1436.52 168.08 1436.52 168.08zM1436.28 168.35C1436.28 168.36 1436.27 168.36 1436.28 168.35 1436.27 168.36 1436.28 168.36 1436.28 168.35z"
                className="color38212a svgShape"
              ></path>
              <path
                fill="#38212a"
                d="M1246.68 111.6c-3.31 0-6.12-2.55-6.39-5.9-1.88-23.3 26.56-90.98 63.28-99.57 35.86-8.43 93.96 71.23 100.47 80.34 2.06 2.88 1.39 6.89-1.49 8.95-2.88 2.06-6.89 1.39-8.96-1.49-22.64-31.7-66.28-80.16-87.09-75.3-28.44 6.66-54.86 67.98-53.41 86.04.29 3.53-2.35 6.63-5.88 6.91C1247.03 111.6 1246.86 111.6 1246.68 111.6zM1556.83 261.11l-9.08-9.08c0 0-.13.11-.34.37.07-.09.13-.17.2-.25 18.51-21.57 49.19-67.51 32.8-87.03-17.19-20.5-88.65-30.36-128.17-32.96-1.07-.05-1.69-.09-1.69-.09-3.54-.22-6.23-3.27-6-6.81.22-3.54 3.27-6.25 6.8-6.01.03 0 .58.04 1.62.09 26.34 1.73 113.78 9.53 137.26 37.52 26.31 31.34-22.49 91.5-32.81 103.54C1557.07 260.9 1556.83 261.11 1556.83 261.11zM280.18 1447.41c-1.64 0-3.29-.63-4.54-1.88-2.51-2.51-2.52-6.56-.01-9.07l.02-.02c.76-.76 1.71-1.32 2.74-1.62.9-.26 90.55-27.28 127.94-111.21 9.14-20.5 14.52-43.02 16-66.95.22-3.54 3.25-6.25 6.8-6.01 3.54.22 6.23 3.26 6.01 6.8-1.57 25.46-7.32 49.48-17.09 71.38-39.27 88.17-129.82 116.45-135.88 118.25C281.53 1447.3 280.85 1447.41 280.18 1447.41z"
                className="color38212a svgShape"
              ></path>
              <path
                fill="#38212a"
                d="M280.19 1447.41c-1.54 0-3.08-.55-4.31-1.67-2.62-2.38-2.82-6.44-.44-9.07 41.77-46.03 56.21-98.46 42.92-155.84-7.99-34.51-24.03-60.39-30.18-69.43-66 18.18-113.43 13.83-141.01-12.94-39.7-38.53-22.53-108.07-21.78-111.01.83-3.25 4.01-5.31 7.32-4.74 3.3.57 5.61 3.59 5.29 6.92-2.17 23.18 12.45 45.49 37.24 56.84 20.18 9.24 49.23 11.3 70.24-10.58 36.51-38.04 2.54-96.62-72.91-191.42-36.75-46.18-45.21-99.14-45.83-135.43-.4-23.39 2.24-42.81 4.51-54.92-38.3 20.52-65.9 50.43-82.16 89.06-13.42 31.89-13.64 58.13-13.64 58.39-.01 3.1-2.23 5.75-5.28 6.3-3.06.55-6.06-1.15-7.15-4.05C2.73 850.01.06 798.48 15.08 750.69c11.99-38.16 35.2-73.9 68.98-106.24 47.5-45.46 101.64-70.87 120.14-78.75-7.34-15.65-25.82-58.68-35.14-112.95-15.38-89.62 2.42-166.46 51.47-222.2 49-55.68 119.58-84.63 204.3-83.75 63.57.67 111.91 17.56 113.94 18.28 3.34 1.18 5.09 4.85 3.9 8.19-1.18 3.34-4.85 5.09-8.19 3.91C534 177 485.81 160.2 424.3 159.62c-81.78-.79-147.1 25.94-194.13 79.4-47 53.41-63.32 124.47-48.51 211.21 11.15 65.31 36.76 115.37 37.02 115.87.84 1.63.95 3.53.29 5.24-.65 1.71-2.01 3.06-3.71 3.71-.67.25-67.37 25.96-122.57 78.92-66.02 63.34-88.25 136.75-66.3 218.54 2.13-9.74 5.45-21.31 10.65-33.78 13.15-31.51 41.3-74.82 100.74-102.19 2.28-1.05 4.96-.67 6.86.96 1.9 1.63 2.68 4.23 1.99 6.64-.31 1.08-30.03 109.36 35.99 192.33 67.48 84.78 119.49 158.97 72.13 208.31-21.15 22.03-54.45 27.28-84.85 13.37-15.8-7.23-28.15-18.31-35.87-31.39.17 20.6 4.67 45.61 22.12 62.53 24.66 23.9 69.36 26.77 132.88 8.54 2.53-.73 5.26.17 6.86 2.26.99 1.29 24.4 32.14 34.98 77.85 9.83 42.44 9.84 105.93-45.92 167.37C283.68 1446.7 281.94 1447.41 280.19 1447.41zM422.89 1333.29c-5.6 0-9.65-.44-11.57-.7-.99-.15-1.47-.24-1.47-.24-3.48-.68-5.76-4.04-5.09-7.52.67-3.47 4-5.76 7.49-5.09.07.01.37.07.87.14 6.46.88 40.69 4.04 74.09-21.58 35.02-26.85 57.24-75.51 66.04-144.63.45-3.52 3.65-6.01 7.18-5.56 3.52.45 6 3.66 5.56 7.18-9.24 72.64-33.12 124.18-70.96 153.2C467.31 1329.73 438.83 1333.29 422.89 1333.29zM1834.82 669.69c-16.98 0-34.63-3.23-52.86-9.68-3.34-1.18-5.09-4.85-3.91-8.19 1.19-3.34 4.85-5.09 8.19-3.91 32.94 11.67 63.68 11.9 91.37.67 58-23.53 84.15-89.41 84.41-90.07.32-.83.82-1.59 1.45-2.22 2.51-2.51 6.58-2.51 9.09-.01 1.97 1.97 2.4 4.9 1.27 7.28-2.41 5.92-30.68 72.3-91.39 96.92C1867.3 666.62 1851.38 669.69 1834.82 669.69z"
                className="color38212a svgShape"
              ></path>
              <path
                fill="#38212a"
                d="M1897.98 581.68c-24.66 0-44.03-5.8-58.09-12.41-28.21-13.26-41.63-32.3-42.19-33.11-1.88-2.71-1.4-6.41 1.12-8.55.89-.76 89.84-77.98 97.99-204.21 4.63-71.82-21.1-145.23-70.61-201.42-47.45-53.85-111.11-85.84-179.25-90.06-76.67-4.76-129.79 13.76-160.85 30.14-33.63 17.73-49.39 36.85-49.55 37.04-2.23 2.74-6.27 3.17-9.03.95-2.75-2.23-3.18-6.26-.96-9.01.68-.85 17.15-20.99 52.84-39.96 32.6-17.33 88.25-36.95 168.34-31.97 71.57 4.44 138.37 37.96 188.09 94.39 51.74 58.73 78.64 135.54 73.79 210.73-4.45 68.9-32.02 123.13-54.35 156.49-18.06 26.96-35.4 44.77-43.46 52.42 5.31 5.89 16.61 16.67 34.19 24.8 34.01 15.73 74.29 14.69 119.7-3.1 3.3-1.29 7.02.33 8.32 3.64 1.29 3.3-.33 7.02-3.64 8.32C1942.6 577.67 1918.46 581.68 1897.98 581.68zM1789.11 1237.77c-32.56 0-99.36-6.34-148.04-53.29-42.05-40.55-60.34-101.78-54.38-182.01.26-3.54 3.32-6.2 6.88-5.93 3.54.26 6.19 3.34 5.93 6.88-5.67 76.19 11.3 133.97 50.42 171.74 41.45 40.02 98.83 48.3 131.53 49.47-24.71-14.99-40.74-34.98-47.78-59.66-19.71-69.09 38.09-149.45 40.56-152.83 1.48-2.03 4.02-3.01 6.48-2.5 2.46.51 4.41 2.41 4.96 4.86 9.32 41.01 30.54 71.46 63.09 90.5 6.85 4.01 13.51 7.07 19.56 9.39-50.58-49.29-26.63-98.06 5.13-162.76 13.62-27.74 29.06-59.19 41.36-95.77 17.95-53.39 17.04-102.32-2.72-145.44-14.76-32.21-35.13-48.98-35.33-49.14-2.75-2.23-3.18-6.27-.95-9.02 2.22-2.75 6.26-3.19 9.01-.97.92.74 22.58 18.44 38.65 53.15 14.74 31.85 27.32 84.69 3.5 155.52-12.57 37.38-28.21 69.23-42 97.33-35.43 72.17-56.82 115.73 13.68 165.39 2.38 1.67 3.33 4.73 2.33 7.46-1 2.73-3.7 4.45-6.6 4.18-1-.09-24.72-2.37-51.58-17.94-22.6-13.09-51.37-38.24-65.88-84.94-14.82 24.23-44.76 81.54-30.9 130.03 7.96 27.86 29.52 49.09 64.08 63.08 2.72 1.1 4.35 3.92 3.95 6.83-.4 2.91-2.73 5.18-5.65 5.5C1807.34 1237.04 1800.21 1237.77 1789.11 1237.77z"
                className="color38212a svgShape"
              ></path>
              <g>
                <path
                  fill="#3a212b"
                  d="M666,770c-54.71-0.59-101.94,5.71-193.92,87.49c0,0,151.64-119.92,303.24-42.76l0,0
															C764.9,789.14,708.25,770.46,666,770z"
                  className="color3a212b svgShape"
                ></path>
                <ellipse cx="658.16" cy="1005.94" fill="#ffffff" rx="112.36" ry="108.36" transform="rotate(-7.487 658.076 1005.832)" className="colorfff svgShape"></ellipse>
                <path
                  fill="#c1c1c1"
                  d="M764.64,971.66c0,0-119.4-76.39-224.49,44.01c0,0-28.65-60.67,40.16-99.94
											C649.13,876.46,724.24,885.29,764.64,971.66z"
                  className="colorc1c1c1 svgShape"
                ></path>
                <path
                  fill="#603745"
                  d="M733.3,997.13c7.72,58.87-25.03,111.73-73.19,118.06c-48.14,6.32-93.47-36.27-101.2-95.14
											c-1.02-7.73-1.34-15.36-1-22.8c0.15-3.73,0.48-7.42,0.98-11.04c5.82-44.09,34.57-79.15,73.21-84.23
											c35.04-4.6,68.56,16.71,87.21,51.34c0.92,1.68,1.79,3.41,2.63,5.16C727.51,970.15,731.46,983.17,733.3,997.13z"
                  className="color603745 svgShape"
                ></path>
                <ellipse cx="624.63" cy="1013.41" fill="#3a212b" rx="38.68" ry="46.97" transform="rotate(-10.673 624.35 1013.243)" className="color3a212b svgShape"></ellipse>
                <ellipse cx="604.04" cy="981.72" fill="#ffffff" opacity=".5" rx="31.11" ry="25.14" transform="rotate(-79.327 604.037 981.722)" className="colorfff svgShape"></ellipse>
                <circle cx="684.65" cy="1042.94" r="22.53" fill="#ffffff" opacity=".5" className="colorfff svgShape"></circle>
                <path fill="#3a212b" d="M768.47,1074.63c0,0-79.34,79.68-204.23,26.84C564.24,1101.47,685.16,1115.87,768.47,1074.63z" className="color3a212b svgShape"></path>
                <path
                  fill="#603745"
                  d="M719.31,953.3c-40.3-10.27-101.91-11.57-161.39,43.93c0.15-3.73,0.48-7.42,0.98-11.04
											c5.82-44.09,34.57-79.15,73.21-84.23C667.14,897.36,700.66,918.68,719.31,953.3z"
                  opacity=".5"
                  className="color603745 svgShape"
                ></path>
                <path
                  fill="#3a212b"
                  d="M470.26,953.16c22.9,6.64,56.29-8.04,56.29-8.04c15.43-19.5,44.14-49.84,79.43-59.58
											c74.34-20.51,147.92,27.17,158.65,86.11c0,0-26.21-62.85-108.51-69.91c-69.23-5.94-104.83,69.91-107.98,92.17
											c-3.37,23.82,2.62,45.06,2.62,45.06s-27-38.97-34.16-47.65c-7.16-8.68-36.79-2.88-44.88-14.91c0,0,25.47,2.2,42.46-14.11
											c0,0,0.3-0.48,0.83-1.3C485.1,966.66,470.26,953.16,470.26,953.16z"
                  className="color3a212b svgShape"
                ></path>
                <ellipse cx="1104.32" cy="954.28" fill="#ffffff" rx="112.36" ry="108.36" transform="rotate(-9.735 1104.675 954.53)" className="colorfff svgShape"></ellipse>
                <path
                  fill="#c1c1c1"
                  d="M992.46,953.06c0,0,91.43-108.32,227.45-24.44c0,0,9.4-66.43-67.96-83.56
											C1074.6,827.93,1005.47,858.61,992.46,953.06z"
                  className="colorc1c1c1 svgShape"
                ></path>
                <path
                  fill="#603745"
                  d="M1185.79,943.99c10.46,60.95-21.33,108.56-69.19,116.77c-47.88,8.22-93.7-26.07-104.16-87.02
											c-2.25-13.09-2.6-25.93-1.32-38.13c0.12-1.27,0.28-2.55,0.44-3.8c5.77-42.92,32.07-77.06,68.61-83.33
											c37.25-6.39,74.17,18.09,93.62,58.02c0.61,1.24,1.19,2.5,1.76,3.77C1180.23,920.63,1183.72,931.95,1185.79,943.99z"
                  className="color603745 svgShape"
                ></path>
                <path
                  fill="#3a212b"
                  d="M1019.29 1052.55c0 0 99.38 52.61 203.02-34.84C1222.31 1017.71 1111.08 1067.28 1019.29 1052.55zM1062.83 722.17c53.79-9.99 101.41-11.9 206.07 52.86 0 0-169.99-92.07-306.08 9.99l0 0C968.69 758.02 1021.29 729.88 1062.83 722.17z"
                  className="color3a212b svgShape"
                ></path>
                <ellipse cx="1074.03" cy="957.66" fill="#3a212b" rx="38.68" ry="46.97" transform="rotate(-7.022 1074.163 958.03)" className="color3a212b svgShape"></ellipse>
                <ellipse cx="1047.75" cy="926.64" fill="#ffffff" opacity=".5" rx="31.11" ry="25.14" transform="rotate(-75.28 1047.743 926.61)" className="colorfff svgShape"></ellipse>
                <circle cx="1123.84" cy="993.39" r="22.53" fill="#ffffff" opacity=".5" className="colorfff svgShape"></circle>
                <path
                  fill="#603745"
                  d="M1173.79,906.5c-76.83-26.34-134.7,6.71-162.68,29.11c0.12-1.27,0.28-2.55,0.44-3.8
											c5.77-42.92,32.07-77.06,68.61-83.33C1117.42,842.08,1154.34,866.57,1173.79,906.5z"
                  opacity=".5"
                  className="color603745 svgShape"
                ></path>
                <path
                  fill="#3a212b"
                  d="M1268.16,848.23c-19.91,13.12-56.15,8.99-56.15,8.99c-20.52-14.05-56.92-34.54-93.51-33.38
											c-77.08,2.43-133.24,69.75-126.04,129.23c0,0,6.43-67.79,82.95-98.9c64.36-26.17,120.83,35.73,130.44,56.06
											c10.28,21.76,10.84,43.82,10.84,43.82s14.25-45.21,18.52-55.63c4.27-10.41,34.29-13.65,38.45-27.53
											c0,0-23.68,9.64-44.73-0.91c0,0-0.42-0.37-1.18-0.99C1257.99,865.51,1268.16,848.23,1268.16,848.23z"
                  className="color3a212b svgShape"
                ></path>
                <g>
                  <circle cx="864.01" cy="1077.64" r="12.22" fill="#e2a383" className="colore2a383 svgShape"></circle>
                </g>
                <g>
                  <ellipse cx="687.55" cy="1171.12" fill="#f7c1ba" rx="74.34" ry="28.45" transform="rotate(-5.498 687.555 1170.902)" className="colorf7c1ba svgShape"></ellipse>
                </g>
                <g>
                  <ellipse cx="1122.95" cy="1115.07" fill="#f7c1ba" rx="74.34" ry="28.45" transform="rotate(-6.563 1122.443 1114.608)" className="colorf7c1ba svgShape"></ellipse>
                </g>
                <g>
                  <path
                    fill="#3a212b"
                    d="M1002.07,1230.69c-2.73,2.4-6.13,3.32-10.03,3.3c-15.35-0.13-38.68-14.91-61.66-10.73
					c-20.45,3.72-33.03,18.96-44.07,26.54c-4.95,3.41-9.61,5.26-14.53,3.82c-26.01-7.65-25.77-88.68,44.51-98.88
					C990.7,1143.95,1023.59,1211.78,1002.07,1230.69z"
                    className="color3a212b svgShape"
                  ></path>
                </g>
              </g>
            </svg>